<svg xmlns="http://www.w3.org/2000/svg" xmlns:xlink="http://www.w3.org/1999/xlink" width="292" height="148" viewBox="0 0 292 148"><defs><symbol id="1"><text x="16" y="57.3" class="c">❯</text></symbol><symbol id="2"><text x="16" y="57.3" class="c">❯ </text><text x="35.2" y="57.3" class="d">e</text></symbol><symbol id="3"><text x="16" y="57.3" class="c">❯ </text><text x="35.2" y="57.3" class="d">ec</text></symbol><symbol id="4"><text x="16" y="57.3" class="c">❯ </text><text x="35.2" y="57.3" class="d">ech</text></symbol><symbol id="5"><text x="16" y="57.3" class="c">❯ </text><text x="35.2" y="57.3" class="d">echo</text></symbol><symbol id="6"><text x="16" y="57.3" class="c">❯ </text><text x="35.2" y="57.3" class="d">echo &apos;</text></symbol><symbol id="7"><text x="16" y="57.3" class="c">❯ </text><text x="35.2" y="57.3" class="d">echo &apos;T</text></symbol><symbol id="8"><text x="16" y="57.3" class="c">❯ </text><text x="35.2" y="57.3" class="d">echo &apos;Th</text></symbol><symbol id="9"><text x="16" y="57.3" class="c">❯ </text><text x="35.2" y="57.3" class="d">echo &apos;Thi</text></symbol><symbol id="10"><text x="16" y="57.3" class="c">❯ </text><text x="35.2" y="57.3" class="d">echo &apos;This</text></symbol><symbol id="11"><text x="16" y="57.3" class="c">❯ </text><text x="35.2" y="57.3" class="d">echo &apos;This p</text></symbol><symbol id="12"><text x="16" y="57.3" class="c">❯ </text><text x="35.2" y="57.3" class="d">echo &apos;This pl</text></symbol><symbol id="13"><text x="16" y="57.3" class="c">❯ </text><text x="35.2" y="57.3" class="d">echo &apos;This pla</text></symbol><symbol id="14"><text x="16" y="57.3" class="c">❯ </text><text x="35.2" y="57.3" class="d">echo &apos;This play</text></symbol><symbol id="15"><text x="16" y="57.3" class="c">❯ </text><text x="35.2" y="57.3" class="d">echo &apos;This plays</text></symbol><symbol id="16"><text x="16" y="57.3" class="c">❯ </text><text x="35.2" y="57.3" class="d">echo &apos;This plays s</text></symbol><symbol id="17"><text x="16" y="57.3" class="c">❯ </text><text x="35.2" y="57.3" class="d">echo &apos;This plays sl</text></symbol><symbol id="18"><text x="16" y="57.3" class="c">❯ </text><text x="35.2" y="57.3" class="d">echo &apos;This plays slo</text></symbol><symbol id="19"><text x="16" y="57.3" class="c">❯ </text><text x="35.2" y="57.3" class="d">echo &apos;This plays slow</text></symbol><symbol id="20"><text x="16" y="57.3" class="c">❯ </text><text x="35.2" y="57.3" class="d">echo &apos;This plays slowl</text></symbol><symbol id="21"><text x="16" y="57.3" class="c">❯ </text><text x="35.2" y="57.3" class="d">echo &apos;This plays slowly</text></symbol><symbol id="22"><text x="16" y="57.3" class="c">❯ </text><text x="35.2" y="57.3" class="d">echo &apos;This plays slowly&apos;</text></symbol><symbol id="23"><text x="16" y="79.7" class="d">This plays slowly</text></symbol><symbol id="24"><text x="16" y="102.1" class="c">❯</text></symbol><symbol id="25"><text x="16" y="102.1" class="c">❯ </text><text x="35.2" y="102.1" class="d">H</text></symbol><symbol id="26"><text x="16" y="102.1" class="c">❯ </text><text x="35.2" y="102.1" class="d">Ha</text></symbol><symbol id="27"><text x="16" y="102.1" class="c">❯ </text><text x="35.2" y="102.1" class="d">Hal</text></symbol><symbol id="28"><text x="16" y="102.1" class="c">❯ </text><text x="35.2" y="102.1" class="d">Half</text></symbol><symbol id="29"><text x="16" y="102.1" class="c">❯ </text><text x="35.2" y="102.1" class="d">Half s</text></symbol><symbol id="30"><text x="16" y="102.1" class="c">❯ </text><text x="35.2" y="102.1" class="d">Half sp</text></symbol><symbol id="31"><text x="16" y="102.1" class="c">❯ </text><text x="35.2" y="102.1" class="d">Half spe</text></symbol><symbol id="32"><text x="16" y="102.1" class="c">❯ </text><text x="35.2" y="102.1" class="d">Half spee</text></symbol><symbol id="33"><text x="16" y="102.1" class="c">❯ </text><text x="35.2" y="102.1" class="d">Half speed</text></symbol><symbol id="34"><text x="16" y="102.1" class="c">❯ </text><text x="35.2" y="102.1" class="d">Half speed =</text></symbol><symbol id="35"><text x="16" y="102.1" class="c">❯ </text><text x="35.2" y="102.1" class="d">Half speed = 2</text></symbol><symbol id="36"><text x="16" y="102.1" class="c">❯ </text><text x="35.2" y="102.1" class="d">Half speed = 2x</text></symbol><symbol id="37"><text x="16" y="102.1" class="c">❯ </text><text x="35.2" y="102.1" class="d">Half speed = 2x s</text></symbol><symbol id="38"><text x="16" y="102.1" class="c">❯ </text><text x="35.2" y="102.1" class="d">Half speed = 2x sl</text></symbol><symbol id="39"><text x="16" y="102.1" class="c">❯ </text><text x="35.2" y="102.1" class="d">Half speed = 2x slo</text></symbol><symbol id="40"><text x="16" y="102.1" class="c">❯ </text><text x="35.2" y="102.1" class="d">Half speed = 2x slow</text></symbol><symbol id="41"><text x="16" y="102.1" class="c">❯ </text><text x="35.2" y="102.1" class="d">Half speed = 2x slowe</text></symbol><symbol id="42"><text x="16" y="102.1" class="c">❯ </text><text x="35.2" y="102.1" class="d">Half speed = 2x slower</text></symbol></defs><style>@keyframes f{0.16%{transform:translateX(0px)}1.18%{transform:translateX(-292px)}2.20%{transform:translateX(-584px)}3.18%{transform:translateX(-876px)}4.17%{transform:translateX(-1168px)}5.15%{transform:translateX(-1460px)}6.15%{transform:translateX(-1752px)}7.18%{transform:translateX(-2044px)}8.18%{transform:translateX(-2336px)}9.16%{transform:translateX(-2628px)}10.18%{transform:translateX(-2920px)}11.21%{transform:translateX(-3212px)}12.21%{transform:translateX(-3504px)}13.19%{transform:translateX(-3796px)}14.19%{transform:translateX(-4088px)}15.23%{transform:translateX(-4380px)}16.22%{transform:translateX(-4672px)}17.26%{transform:translateX(-4964px)}18.24%{transform:translateX(-5256px)}19.25%{transform:translateX(-5548px)}20.23%{transform:translateX(-5840px)}21.21%{transform:translateX(-6132px)}22.23%{transform:translateX(-6424px)}23.22%{transform:translateX(-6716px)}24.20%{transform:translateX(-7008px)}24.22%{transform:translateX(-7300px)}36.09%{transform:translateX(-7592px)}36.15%{transform:translateX(-7884px)}38.20%{transform:translateX(-8176px)}39.20%{transform:translateX(-8468px)}40.22%{transform:translateX(-8760px)}41.20%{transform:translateX(-9052px)}42.23%{transform:translateX(-9344px)}43.23%{transform:translateX(-9636px)}44.25%{transform:translateX(-9928px)}45.27%{transform:translateX(-10220px)}46.27%{transform:translateX(-10512px)}47.34%{transform:translateX(-10804px)}48.34%{transform:translateX(-11096px)}49.36%{transform:translateX(-11388px)}50.34%{transform:translateX(-11680px)}51.43%{transform:translateX(-11972px)}52.39%{transform:translateX(-12264px)}53.49%{transform:translateX(-12556px)}54.43%{transform:translateX(-12848px)}55.51%{transform:translateX(-13140px)}56.44%{transform:translateX(-13432px)}57.44%{transform:translateX(-13724px)}58.46%{transform:translateX(-14016px)}59.43%{transform:translateX(-14308px)}60.63%{transform:translateX(-14600px)}60.64%{transform:translateX(-14892px)}}.a{fill:#1e1e1e}.c{fill:#d2a8ff;stroke:#d2a8ff}.d{fill:#c9d1d9;stroke:#c9d1d9}path[fill="none"]{fill:none}path[shape-rendering="crispEdges"]{stroke:none}text{font-family:'SF Mono',Monaco,Consolas,Menlo,monospace;font-size:16px;dominant-baseline:text-before-edge;white-space:pre}text[class]{stroke:none}.bold{font-weight:700}.italic{font-style:italic}.uline{text-decoration:underline}.strike{text-decoration:line-through}.dim{opacity:0.5}@keyframes blink{0%,50%{opacity:1}50.01%,100%{opacity:0}}.cursor{animation:blink 1s step-end infinite;mix-blend-mode:difference}.cursor-active{opacity:1;mix-blend-mode:difference}</style><g transform="translate(0,0)"><rect width="292" height="148" rx="8" fill="#1e1e1e"/><rect width="292" height="40" rx="8" fill="#1e1e1e"/><path d="M0 32h292v8H0z" fill="#1e1e1e"/><circle cx="16" cy="20" r="6" fill="#ff5f56"/><circle cx="36" cy="20" r="6" fill="#ffbd2e"/><circle cx="56" cy="20" r="6" fill="#27c93f"/><clipPath id="content-clip"><path d="M0 40h292v108H0z" /></clipPath><g clip-path="url(#content-clip)"><g style="animation:f 10.174s steps(1,end) infinite"><g transform="translate(0,0)"><use xlink:href="#1"/><path d="M35.2 56h9.6v22.4H35.2z" fill="#fff" class="cursor"/></g><g transform="translate(292,0)"><use xlink:href="#2"/><path d="M44.8 56h9.6v22.4H44.8z" fill="#fff" class="cursor-active"/></g><g transform="translate(584,0)"><use xlink:href="#3"/><path d="M54.4 56h9.6v22.4H54.4z" fill="#fff" class="cursor-active"/></g><g transform="translate(876,0)"><use xlink:href="#4"/><path d="M64 56h9.6v22.4H64z" fill="#fff" class="cursor-active"/></g><g transform="translate(1168,0)"><use xlink:href="#5"/><path d="M73.6 56h9.6v22.4H73.6z" fill="#fff" class="cursor-active"/></g><g transform="translate(1460,0)"><use xlink:href="#5"/><path d="M83.2 56h9.6v22.4H83.2z" fill="#fff" class="cursor-active"/></g><g transform="translate(1752,0)"><use xlink:href="#6"/><path d="M92.8 56h9.6v22.4H92.8z" fill="#fff" class="cursor-active"/></g><g transform="translate(2044,0)"><use xlink:href="#7"/><path d="M102.4 56h9.6v22.4H102.4z" fill="#fff" class="cursor-active"/></g><g transform="translate(2336,0)"><use xlink:href="#8"/><path d="M112 56h9.6v22.4H112z" fill="#fff" class="cursor-active"/></g><g transform="translate(2628,0)"><use xlink:href="#9"/><path d="M121.6 56h9.6v22.4H121.6z" fill="#fff" class="cursor-active"/></g><g transform="translate(2920,0)"><use xlink:href="#10"/><path d="M131.2 56h9.6v22.4H131.2z" fill="#fff" class="cursor-active"/></g><g transform="translate(3212,0)"><use xlink:href="#10"/><path d="M140.8 56h9.6v22.4H140.8z" fill="#fff" class="cursor-active"/></g><g transform="translate(3504,0)"><use xlink:href="#11"/><path d="M150.4 56h9.6v22.4H150.4z" fill="#fff" class="cursor-active"/></g><g transform="translate(3796,0)"><use xlink:href="#12"/><path d="M160 56h9.6v22.4H160z" fill="#fff" class="cursor-active"/></g><g transform="translate(4088,0)"><use xlink:href="#13"/><path d="M169.6 56h9.6v22.4H169.6z" fill="#fff" class="cursor-active"/></g><g transform="translate(4380,0)"><use xlink:href="#14"/><path d="M179.2 56h9.6v22.4H179.2z" fill="#fff" class="cursor-active"/></g><g transform="translate(4672,0)"><use xlink:href="#15"/><path d="M188.8 56h9.6v22.4H188.8z" fill="#fff" class="cursor-active"/></g><g transform="translate(4964,0)"><use xlink:href="#15"/><path d="M198.4 56h9.6v22.4H198.4z" fill="#fff" class="cursor-active"/></g><g transform="translate(5256,0)"><use xlink:href="#16"/><path d="M208 56h9.6v22.4H208z" fill="#fff" class="cursor-active"/></g><g transform="translate(5548,0)"><use xlink:href="#17"/><path d="M217.6 56h9.6v22.4H217.6z" fill="#fff" class="cursor-active"/></g><g transform="translate(5840,0)"><use xlink:href="#18"/><path d="M227.2 56h9.6v22.4H227.2z" fill="#fff" class="cursor-active"/></g><g transform="translate(6132,0)"><use xlink:href="#19"/><path d="M236.8 56h9.6v22.4H236.8z" fill="#fff" class="cursor-active"/></g><g transform="translate(6424,0)"><use xlink:href="#20"/><path d="M246.4 56h9.6v22.4H246.4z" fill="#fff" class="cursor-active"/></g><g transform="translate(6716,0)"><use xlink:href="#21"/><path d="M256 56h9.6v22.4H256z" fill="#fff" class="cursor-active"/></g><g transform="translate(7008,0)"><use xlink:href="#22"/><path d="M265.6 56h9.6v22.4H265.6z" fill="#fff" class="cursor-active"/></g><g transform="translate(7300,0)"><use xlink:href="#22"/><path d="M265.6 56h9.6v22.4H265.6z" fill="#fff" class="cursor"/></g><g transform="translate(7592,0)"><use xlink:href="#22"/></g><g transform="translate(7884,0)"><use xlink:href="#22"/><use xlink:href="#23"/></g><g transform="translate(8176,0)"><use xlink:href="#22"/><use xlink:href="#23"/><use xlink:href="#24"/><path d="M35.2 100.8h9.6v22.4H35.2z" fill="#fff" class="cursor"/></g><g transform="translate(8468,0)"><use xlink:href="#22"/><use xlink:href="#23"/><use xlink:href="#25"/><path d="M44.8 100.8h9.6v22.4H44.8z" fill="#fff" class="cursor-active"/></g><g transform="translate(8760,0)"><use xlink:href="#22"/><use xlink:href="#23"/><use xlink:href="#26"/><path d="M54.4 100.8h9.6v22.4H54.4z" fill="#fff" class="cursor-active"/></g><g transform="translate(9052,0)"><use xlink:href="#22"/><use xlink:href="#23"/><use xlink:href="#27"/><path d="M64 100.8h9.6v22.4H64z" fill="#fff" class="cursor-active"/></g><g transform="translate(9344,0)"><use xlink:href="#22"/><use xlink:href="#23"/><use xlink:href="#28"/><path d="M73.6 100.8h9.6v22.4H73.6z" fill="#fff" class="cursor-active"/></g><g transform="translate(9636,0)"><use xlink:href="#22"/><use xlink:href="#23"/><use xlink:href="#28"/><path d="M83.2 100.8h9.6v22.4H83.2z" fill="#fff" class="cursor-active"/></g><g transform="translate(9928,0)"><use xlink:href="#22"/><use xlink:href="#23"/><use xlink:href="#29"/><path d="M92.8 100.8h9.6v22.4H92.8z" fill="#fff" class="cursor-active"/></g><g transform="translate(10220,0)"><use xlink:href="#22"/><use xlink:href="#23"/><use xlink:href="#30"/><path d="M102.4 100.8h9.6v22.4H102.4z" fill="#fff" class="cursor-active"/></g><g transform="translate(10512,0)"><use xlink:href="#22"/><use xlink:href="#23"/><use xlink:href="#31"/><path d="M112 100.8h9.6v22.4H112z" fill="#fff" class="cursor-active"/></g><g transform="translate(10804,0)"><use xlink:href="#22"/><use xlink:href="#23"/><use xlink:href="#32"/><path d="M121.6 100.8h9.6v22.4H121.6z" fill="#fff" class="cursor-active"/></g><g transform="translate(11096,0)"><use xlink:href="#22"/><use xlink:href="#23"/><use xlink:href="#33"/><path d="M131.2 100.8h9.6v22.4H131.2z" fill="#fff" class="cursor-active"/></g><g transform="translate(11388,0)"><use xlink:href="#22"/><use xlink:href="#23"/><use xlink:href="#33"/><path d="M140.8 100.8h9.6v22.4H140.8z" fill="#fff" class="cursor-active"/></g><g transform="translate(11680,0)"><use xlink:href="#22"/><use xlink:href="#23"/><use xlink:href="#34"/><path d="M150.4 100.8h9.6v22.4H150.4z" fill="#fff" class="cursor-active"/></g><g transform="translate(11972,0)"><use xlink:href="#22"/><use xlink:href="#23"/><use xlink:href="#34"/><path d="M160 100.8h9.6v22.4H160z" fill="#fff" class="cursor-active"/></g><g transform="translate(12264,0)"><use xlink:href="#22"/><use xlink:href="#23"/><use xlink:href="#35"/><path d="M169.6 100.8h9.6v22.4H169.6z" fill="#fff" class="cursor-active"/></g><g transform="translate(12556,0)"><use xlink:href="#22"/><use xlink:href="#23"/><use xlink:href="#36"/><path d="M179.2 100.8h9.6v22.4H179.2z" fill="#fff" class="cursor-active"/></g><g transform="translate(12848,0)"><use xlink:href="#22"/><use xlink:href="#23"/><use xlink:href="#36"/><path d="M188.8 100.8h9.6v22.4H188.8z" fill="#fff" class="cursor-active"/></g><g transform="translate(13140,0)"><use xlink:href="#22"/><use xlink:href="#23"/><use xlink:href="#37"/><path d="M198.4 100.8h9.6v22.4H198.4z" fill="#fff" class="cursor-active"/></g><g transform="translate(13432,0)"><use xlink:href="#22"/><use xlink:href="#23"/><use xlink:href="#38"/><path d="M208 100.8h9.6v22.4H208z" fill="#fff" class="cursor-active"/></g><g transform="translate(13724,0)"><use xlink:href="#22"/><use xlink:href="#23"/><use xlink:href="#39"/><path d="M217.6 100.8h9.6v22.4H217.6z" fill="#fff" class="cursor-active"/></g><g transform="translate(14016,0)"><use xlink:href="#22"/><use xlink:href="#23"/><use xlink:href="#40"/><path d="M227.2 100.8h9.6v22.4H227.2z" fill="#fff" class="cursor-active"/></g><g transform="translate(14308,0)"><use xlink:href="#22"/><use xlink:href="#23"/><use xlink:href="#41"/><path d="M236.8 100.8h9.6v22.4H236.8z" fill="#fff" class="cursor-active"/></g><g transform="translate(14600,0)"><use xlink:href="#22"/><use xlink:href="#23"/><use xlink:href="#42"/><path d="M246.4 100.8h9.6v22.4H246.4z" fill="#fff" class="cursor-active"/></g><g transform="translate(14892,0)"><use xlink:href="#22"/><use xlink:href="#23"/><use xlink:href="#42"/><path d="M246.4 100.8h9.6v22.4H246.4z" fill="#fff" class="cursor"/></g></g></g></g></svg>