<svg xmlns="http://www.w3.org/2000/svg" xmlns:xlink="http://www.w3.org/1999/xlink" width="349" height="148" viewBox="0 0 349 148"><defs><symbol id="1"><text x="16" y="57.3" class="c">❯</text></symbol><symbol id="2"><text x="16" y="57.3" class="c">❯ </text><text x="35.2" y="57.3" class="d">e</text></symbol><symbol id="3"><text x="16" y="57.3" class="c">❯ </text><text x="35.2" y="57.3" class="d">ec</text></symbol><symbol id="4"><text x="16" y="57.3" class="c">❯ </text><text x="35.2" y="57.3" class="d">ech</text></symbol><symbol id="5"><text x="16" y="57.3" class="c">❯ </text><text x="35.2" y="57.3" class="d">echo</text></symbol><symbol id="6"><text x="16" y="57.3" class="c">❯ </text><text x="35.2" y="57.3" class="d">echo &apos;</text></symbol><symbol id="7"><text x="16" y="57.3" class="c">❯ </text><text x="35.2" y="57.3" class="d">echo &apos;T</text></symbol><symbol id="8"><text x="16" y="57.3" class="c">❯ </text><text x="35.2" y="57.3" class="d">echo &apos;Th</text></symbol><symbol id="9"><text x="16" y="57.3" class="c">❯ </text><text x="35.2" y="57.3" class="d">echo &apos;Thi</text></symbol><symbol id="10"><text x="16" y="57.3" class="c">❯ </text><text x="35.2" y="57.3" class="d">echo &apos;This</text></symbol><symbol id="11"><text x="16" y="57.3" class="c">❯ </text><text x="35.2" y="57.3" class="d">echo &apos;This p</text></symbol><symbol id="12"><text x="16" y="57.3" class="c">❯ </text><text x="35.2" y="57.3" class="d">echo &apos;This pl</text></symbol><symbol id="13"><text x="16" y="57.3" class="c">❯ </text><text x="35.2" y="57.3" class="d">echo &apos;This pla</text></symbol><symbol id="14"><text x="16" y="57.3" class="c">❯ </text><text x="35.2" y="57.3" class="d">echo &apos;This play</text></symbol><symbol id="15"><text x="16" y="57.3" class="c">❯ </text><text x="35.2" y="57.3" class="d">echo &apos;This plays</text></symbol><symbol id="16"><text x="16" y="57.3" class="c">❯ </text><text x="35.2" y="57.3" class="d">echo &apos;This plays a</text></symbol><symbol id="17"><text x="16" y="57.3" class="c">❯ </text><text x="35.2" y="57.3" class="d">echo &apos;This plays at</text></symbol><symbol id="18"><text x="16" y="57.3" class="c">❯ </text><text x="35.2" y="57.3" class="d">echo &apos;This plays at 2</text></symbol><symbol id="19"><text x="16" y="57.3" class="c">❯ </text><text x="35.2" y="57.3" class="d">echo &apos;This plays at 2x</text></symbol><symbol id="20"><text x="16" y="57.3" class="c">❯ </text><text x="35.2" y="57.3" class="d">echo &apos;This plays at 2x s</text></symbol><symbol id="21"><text x="16" y="57.3" class="c">❯ </text><text x="35.2" y="57.3" class="d">echo &apos;This plays at 2x sp</text></symbol><symbol id="22"><text x="16" y="57.3" class="c">❯ </text><text x="35.2" y="57.3" class="d">echo &apos;This plays at 2x spe</text></symbol><symbol id="23"><text x="16" y="57.3" class="c">❯ </text><text x="35.2" y="57.3" class="d">echo &apos;This plays at 2x spee</text></symbol><symbol id="24"><text x="16" y="57.3" class="c">❯ </text><text x="35.2" y="57.3" class="d">echo &apos;This plays at 2x speed</text></symbol><symbol id="25"><text x="16" y="57.3" class="c">❯ </text><text x="35.2" y="57.3" class="d">echo &apos;This plays at 2x speed!</text></symbol><symbol id="26"><text x="16" y="57.3" class="c">❯ </text><text x="35.2" y="57.3" class="d">echo &apos;This plays at 2x speed!&apos;</text></symbol><symbol id="27"><text x="16" y="79.7" class="d">This plays at 2x speed!</text></symbol><symbol id="28"><text x="16" y="102.1" class="c">❯</text></symbol><symbol id="29"><text x="16" y="102.1" class="c">❯ </text><text x="35.2" y="102.1" class="d">E</text></symbol><symbol id="30"><text x="16" y="102.1" class="c">❯ </text><text x="35.2" y="102.1" class="d">Ev</text></symbol><symbol id="31"><text x="16" y="102.1" class="c">❯ </text><text x="35.2" y="102.1" class="d">Eve</text></symbol><symbol id="32"><text x="16" y="102.1" class="c">❯ </text><text x="35.2" y="102.1" class="d">Ever</text></symbol><symbol id="33"><text x="16" y="102.1" class="c">❯ </text><text x="35.2" y="102.1" class="d">Every</text></symbol><symbol id="34"><text x="16" y="102.1" class="c">❯ </text><text x="35.2" y="102.1" class="d">Everyt</text></symbol><symbol id="35"><text x="16" y="102.1" class="c">❯ </text><text x="35.2" y="102.1" class="d">Everyth</text></symbol><symbol id="36"><text x="16" y="102.1" class="c">❯ </text><text x="35.2" y="102.1" class="d">Everythi</text></symbol><symbol id="37"><text x="16" y="102.1" class="c">❯ </text><text x="35.2" y="102.1" class="d">Everythin</text></symbol><symbol id="38"><text x="16" y="102.1" class="c">❯ </text><text x="35.2" y="102.1" class="d">Everything</text></symbol><symbol id="39"><text x="16" y="102.1" class="c">❯ </text><text x="35.2" y="102.1" class="d">Everything h</text></symbol><symbol id="40"><text x="16" y="102.1" class="c">❯ </text><text x="35.2" y="102.1" class="d">Everything ha</text></symbol><symbol id="41"><text x="16" y="102.1" class="c">❯ </text><text x="35.2" y="102.1" class="d">Everything hap</text></symbol><symbol id="42"><text x="16" y="102.1" class="c">❯ </text><text x="35.2" y="102.1" class="d">Everything happ</text></symbol><symbol id="43"><text x="16" y="102.1" class="c">❯ </text><text x="35.2" y="102.1" class="d">Everything happe</text></symbol><symbol id="44"><text x="16" y="102.1" class="c">❯ </text><text x="35.2" y="102.1" class="d">Everything happen</text></symbol><symbol id="45"><text x="16" y="102.1" class="c">❯ </text><text x="35.2" y="102.1" class="d">Everything happens</text></symbol><symbol id="46"><text x="16" y="102.1" class="c">❯ </text><text x="35.2" y="102.1" class="d">Everything happens f</text></symbol><symbol id="47"><text x="16" y="102.1" class="c">❯ </text><text x="35.2" y="102.1" class="d">Everything happens fa</text></symbol><symbol id="48"><text x="16" y="102.1" class="c">❯ </text><text x="35.2" y="102.1" class="d">Everything happens fas</text></symbol><symbol id="49"><text x="16" y="102.1" class="c">❯ </text><text x="35.2" y="102.1" class="d">Everything happens fast</text></symbol><symbol id="50"><text x="16" y="102.1" class="c">❯ </text><text x="35.2" y="102.1" class="d">Everything happens faste</text></symbol><symbol id="51"><text x="16" y="102.1" class="c">❯ </text><text x="35.2" y="102.1" class="d">Everything happens faster</text></symbol></defs><style>@keyframes f{0.09%{transform:translateX(0px)}0.70%{transform:translateX(-349px)}1.31%{transform:translateX(-698px)}1.87%{transform:translateX(-1047px)}2.50%{transform:translateX(-1396px)}3.08%{transform:translateX(-1745px)}3.69%{transform:translateX(-2094px)}4.30%{transform:translateX(-2443px)}4.90%{transform:translateX(-2792px)}5.53%{transform:translateX(-3141px)}6.10%{transform:translateX(-3490px)}6.70%{transform:translateX(-3839px)}7.33%{transform:translateX(-4188px)}7.94%{transform:translateX(-4537px)}8.52%{transform:translateX(-4886px)}9.13%{transform:translateX(-5235px)}9.74%{transform:translateX(-5584px)}10.30%{transform:translateX(-5933px)}10.93%{transform:translateX(-6282px)}11.51%{transform:translateX(-6631px)}12.12%{transform:translateX(-6980px)}12.73%{transform:translateX(-7329px)}13.33%{transform:translateX(-7678px)}13.94%{transform:translateX(-8027px)}14.53%{transform:translateX(-8376px)}15.13%{transform:translateX(-8725px)}15.72%{transform:translateX(-9074px)}16.32%{transform:translateX(-9423px)}16.91%{transform:translateX(-9772px)}17.54%{transform:translateX(-10121px)}18.12%{transform:translateX(-10470px)}18.17%{transform:translateX(-10819px)}25.25%{transform:translateX(-11168px)}25.29%{transform:translateX(-11517px)}26.58%{transform:translateX(-11866px)}27.21%{transform:translateX(-12215px)}27.81%{transform:translateX(-12564px)}28.40%{transform:translateX(-12913px)}29.01%{transform:translateX(-13262px)}29.59%{transform:translateX(-13611px)}30.15%{transform:translateX(-13960px)}30.76%{transform:translateX(-14309px)}31.36%{transform:translateX(-14658px)}31.97%{transform:translateX(-15007px)}32.62%{transform:translateX(-15356px)}33.19%{transform:translateX(-15705px)}33.79%{transform:translateX(-16054px)}34.42%{transform:translateX(-16403px)}35.01%{transform:translateX(-16752px)}35.59%{transform:translateX(-17101px)}36.17%{transform:translateX(-17450px)}36.83%{transform:translateX(-17799px)}37.41%{transform:translateX(-18148px)}38.00%{transform:translateX(-18497px)}38.60%{transform:translateX(-18846px)}39.21%{transform:translateX(-19195px)}39.77%{transform:translateX(-19544px)}40.35%{transform:translateX(-19893px)}40.96%{transform:translateX(-20242px)}41.55%{transform:translateX(-20591px)}41.55%{transform:translateX(-20940px)}}.a{fill:#1e1e1e}.c{fill:#d2a8ff;stroke:#d2a8ff}.d{fill:#c9d1d9;stroke:#c9d1d9}path[fill="none"]{fill:none}path[shape-rendering="crispEdges"]{stroke:none}text{font-family:'SF Mono',Monaco,Consolas,Menlo,monospace;font-size:16px;dominant-baseline:text-before-edge;white-space:pre}text[class]{stroke:none}.bold{font-weight:700}.italic{font-style:italic}.uline{text-decoration:underline}.strike{text-decoration:line-through}.dim{opacity:0.5}@keyframes blink{0%,50%{opacity:1}50.01%,100%{opacity:0}}.cursor{animation:blink 1s step-end infinite;mix-blend-mode:difference}.cursor-active{opacity:1;mix-blend-mode:difference}</style><g transform="translate(0,0)"><rect width="349" height="148" rx="8" fill="#1e1e1e"/><rect width="349" height="40" rx="8" fill="#1e1e1e"/><path d="M0 32h349v8H0z" fill="#1e1e1e"/><circle cx="16" cy="20" r="6" fill="#ff5f56"/><circle cx="36" cy="20" r="6" fill="#ffbd2e"/><circle cx="56" cy="20" r="6" fill="#27c93f"/><clipPath id="content-clip"><path d="M0 40h349v108H0z" /></clipPath><g clip-path="url(#content-clip)"><g style="animation:f 4.282s steps(1,end) infinite"><g transform="translate(0,0)"><use xlink:href="#1"/><path d="M35.2 56h9.6v22.4H35.2z" fill="#fff" class="cursor"/></g><g transform="translate(349,0)"><use xlink:href="#2"/><path d="M44.8 56h9.6v22.4H44.8z" fill="#fff" class="cursor-active"/></g><g transform="translate(698,0)"><use xlink:href="#3"/><path d="M54.4 56h9.6v22.4H54.4z" fill="#fff" class="cursor-active"/></g><g transform="translate(1047,0)"><use xlink:href="#4"/><path d="M64 56h9.6v22.4H64z" fill="#fff" class="cursor-active"/></g><g transform="translate(1396,0)"><use xlink:href="#5"/><path d="M73.6 56h9.6v22.4H73.6z" fill="#fff" class="cursor-active"/></g><g transform="translate(1745,0)"><use xlink:href="#5"/><path d="M83.2 56h9.6v22.4H83.2z" fill="#fff" class="cursor-active"/></g><g transform="translate(2094,0)"><use xlink:href="#6"/><path d="M92.8 56h9.6v22.4H92.8z" fill="#fff" class="cursor-active"/></g><g transform="translate(2443,0)"><use xlink:href="#7"/><path d="M102.4 56h9.6v22.4H102.4z" fill="#fff" class="cursor-active"/></g><g transform="translate(2792,0)"><use xlink:href="#8"/><path d="M112 56h9.6v22.4H112z" fill="#fff" class="cursor-active"/></g><g transform="translate(3141,0)"><use xlink:href="#9"/><path d="M121.6 56h9.6v22.4H121.6z" fill="#fff" class="cursor-active"/></g><g transform="translate(3490,0)"><use xlink:href="#10"/><path d="M131.2 56h9.6v22.4H131.2z" fill="#fff" class="cursor-active"/></g><g transform="translate(3839,0)"><use xlink:href="#10"/><path d="M140.8 56h9.6v22.4H140.8z" fill="#fff" class="cursor-active"/></g><g transform="translate(4188,0)"><use xlink:href="#11"/><path d="M150.4 56h9.6v22.4H150.4z" fill="#fff" class="cursor-active"/></g><g transform="translate(4537,0)"><use xlink:href="#12"/><path d="M160 56h9.6v22.4H160z" fill="#fff" class="cursor-active"/></g><g transform="translate(4886,0)"><use xlink:href="#13"/><path d="M169.6 56h9.6v22.4H169.6z" fill="#fff" class="cursor-active"/></g><g transform="translate(5235,0)"><use xlink:href="#14"/><path d="M179.2 56h9.6v22.4H179.2z" fill="#fff" class="cursor-active"/></g><g transform="translate(5584,0)"><use xlink:href="#15"/><path d="M188.8 56h9.6v22.4H188.8z" fill="#fff" class="cursor-active"/></g><g transform="translate(5933,0)"><use xlink:href="#15"/><path d="M198.4 56h9.6v22.4H198.4z" fill="#fff" class="cursor-active"/></g><g transform="translate(6282,0)"><use xlink:href="#16"/><path d="M208 56h9.6v22.4H208z" fill="#fff" class="cursor-active"/></g><g transform="translate(6631,0)"><use xlink:href="#17"/><path d="M217.6 56h9.6v22.4H217.6z" fill="#fff" class="cursor-active"/></g><g transform="translate(6980,0)"><use xlink:href="#17"/><path d="M227.2 56h9.6v22.4H227.2z" fill="#fff" class="cursor-active"/></g><g transform="translate(7329,0)"><use xlink:href="#18"/><path d="M236.8 56h9.6v22.4H236.8z" fill="#fff" class="cursor-active"/></g><g transform="translate(7678,0)"><use xlink:href="#19"/><path d="M246.4 56h9.6v22.4H246.4z" fill="#fff" class="cursor-active"/></g><g transform="translate(8027,0)"><use xlink:href="#19"/><path d="M256 56h9.6v22.4H256z" fill="#fff" class="cursor-active"/></g><g transform="translate(8376,0)"><use xlink:href="#20"/><path d="M265.6 56h9.6v22.4H265.6z" fill="#fff" class="cursor-active"/></g><g transform="translate(8725,0)"><use xlink:href="#21"/><path d="M275.2 56h9.6v22.4H275.2z" fill="#fff" class="cursor-active"/></g><g transform="translate(9074,0)"><use xlink:href="#22"/><path d="M284.8 56h9.6v22.4H284.8z" fill="#fff" class="cursor-active"/></g><g transform="translate(9423,0)"><use xlink:href="#23"/><path d="M294.4 56h9.6v22.4H294.4z" fill="#fff" class="cursor-active"/></g><g transform="translate(9772,0)"><use xlink:href="#24"/><path d="M304 56h9.6v22.4H304z" fill="#fff" class="cursor-active"/></g><g transform="translate(10121,0)"><use xlink:href="#25"/><path d="M313.6 56h9.6v22.4H313.6z" fill="#fff" class="cursor-active"/></g><g transform="translate(10470,0)"><use xlink:href="#26"/><path d="M323.2 56h9.6v22.4H323.2z" fill="#fff" class="cursor-active"/></g><g transform="translate(10819,0)"><use xlink:href="#26"/><path d="M323.2 56h9.6v22.4H323.2z" fill="#fff" class="cursor"/></g><g transform="translate(11168,0)"><use xlink:href="#26"/></g><g transform="translate(11517,0)"><use xlink:href="#26"/><use xlink:href="#27"/></g><g transform="translate(11866,0)"><use xlink:href="#26"/><use xlink:href="#27"/><use xlink:href="#28"/><path d="M35.2 100.8h9.6v22.4H35.2z" fill="#fff" class="cursor"/></g><g transform="translate(12215,0)"><use xlink:href="#26"/><use xlink:href="#27"/><use xlink:href="#29"/><path d="M44.8 100.8h9.6v22.4H44.8z" fill="#fff" class="cursor-active"/></g><g transform="translate(12564,0)"><use xlink:href="#26"/><use xlink:href="#27"/><use xlink:href="#30"/><path d="M54.4 100.8h9.6v22.4H54.4z" fill="#fff" class="cursor-active"/></g><g transform="translate(12913,0)"><use xlink:href="#26"/><use xlink:href="#27"/><use xlink:href="#31"/><path d="M64 100.8h9.6v22.4H64z" fill="#fff" class="cursor-active"/></g><g transform="translate(13262,0)"><use xlink:href="#26"/><use xlink:href="#27"/><use xlink:href="#32"/><path d="M73.6 100.8h9.6v22.4H73.6z" fill="#fff" class="cursor-active"/></g><g transform="translate(13611,0)"><use xlink:href="#26"/><use xlink:href="#27"/><use xlink:href="#33"/><path d="M83.2 100.8h9.6v22.4H83.2z" fill="#fff" class="cursor-active"/></g><g transform="translate(13960,0)"><use xlink:href="#26"/><use xlink:href="#27"/><use xlink:href="#34"/><path d="M92.8 100.8h9.6v22.4H92.8z" fill="#fff" class="cursor-active"/></g><g transform="translate(14309,0)"><use xlink:href="#26"/><use xlink:href="#27"/><use xlink:href="#35"/><path d="M102.4 100.8h9.6v22.4H102.4z" fill="#fff" class="cursor-active"/></g><g transform="translate(14658,0)"><use xlink:href="#26"/><use xlink:href="#27"/><use xlink:href="#36"/><path d="M112 100.8h9.6v22.4H112z" fill="#fff" class="cursor-active"/></g><g transform="translate(15007,0)"><use xlink:href="#26"/><use xlink:href="#27"/><use xlink:href="#37"/><path d="M121.6 100.8h9.6v22.4H121.6z" fill="#fff" class="cursor-active"/></g><g transform="translate(15356,0)"><use xlink:href="#26"/><use xlink:href="#27"/><use xlink:href="#38"/><path d="M131.2 100.8h9.6v22.4H131.2z" fill="#fff" class="cursor-active"/></g><g transform="translate(15705,0)"><use xlink:href="#26"/><use xlink:href="#27"/><use xlink:href="#38"/><path d="M140.8 100.8h9.6v22.4H140.8z" fill="#fff" class="cursor-active"/></g><g transform="translate(16054,0)"><use xlink:href="#26"/><use xlink:href="#27"/><use xlink:href="#39"/><path d="M150.4 100.8h9.6v22.4H150.4z" fill="#fff" class="cursor-active"/></g><g transform="translate(16403,0)"><use xlink:href="#26"/><use xlink:href="#27"/><use xlink:href="#40"/><path d="M160 100.8h9.6v22.4H160z" fill="#fff" class="cursor-active"/></g><g transform="translate(16752,0)"><use xlink:href="#26"/><use xlink:href="#27"/><use xlink:href="#41"/><path d="M169.6 100.8h9.6v22.4H169.6z" fill="#fff" class="cursor-active"/></g><g transform="translate(17101,0)"><use xlink:href="#26"/><use xlink:href="#27"/><use xlink:href="#42"/><path d="M179.2 100.8h9.6v22.4H179.2z" fill="#fff" class="cursor-active"/></g><g transform="translate(17450,0)"><use xlink:href="#26"/><use xlink:href="#27"/><use xlink:href="#43"/><path d="M188.8 100.8h9.6v22.4H188.8z" fill="#fff" class="cursor-active"/></g><g transform="translate(17799,0)"><use xlink:href="#26"/><use xlink:href="#27"/><use xlink:href="#44"/><path d="M198.4 100.8h9.6v22.4H198.4z" fill="#fff" class="cursor-active"/></g><g transform="translate(18148,0)"><use xlink:href="#26"/><use xlink:href="#27"/><use xlink:href="#45"/><path d="M208 100.8h9.6v22.4H208z" fill="#fff" class="cursor-active"/></g><g transform="translate(18497,0)"><use xlink:href="#26"/><use xlink:href="#27"/><use xlink:href="#45"/><path d="M217.6 100.8h9.6v22.4H217.6z" fill="#fff" class="cursor-active"/></g><g transform="translate(18846,0)"><use xlink:href="#26"/><use xlink:href="#27"/><use xlink:href="#46"/><path d="M227.2 100.8h9.6v22.4H227.2z" fill="#fff" class="cursor-active"/></g><g transform="translate(19195,0)"><use xlink:href="#26"/><use xlink:href="#27"/><use xlink:href="#47"/><path d="M236.8 100.8h9.6v22.4H236.8z" fill="#fff" class="cursor-active"/></g><g transform="translate(19544,0)"><use xlink:href="#26"/><use xlink:href="#27"/><use xlink:href="#48"/><path d="M246.4 100.8h9.6v22.4H246.4z" fill="#fff" class="cursor-active"/></g><g transform="translate(19893,0)"><use xlink:href="#26"/><use xlink:href="#27"/><use xlink:href="#49"/><path d="M256 100.8h9.6v22.4H256z" fill="#fff" class="cursor-active"/></g><g transform="translate(20242,0)"><use xlink:href="#26"/><use xlink:href="#27"/><use xlink:href="#50"/><path d="M265.6 100.8h9.6v22.4H265.6z" fill="#fff" class="cursor-active"/></g><g transform="translate(20591,0)"><use xlink:href="#26"/><use xlink:href="#27"/><use xlink:href="#51"/><path d="M275.2 100.8h9.6v22.4H275.2z" fill="#fff" class="cursor-active"/></g><g transform="translate(20940,0)"><use xlink:href="#26"/><use xlink:href="#27"/><use xlink:href="#51"/><path d="M275.2 100.8h9.6v22.4H275.2z" fill="#fff" class="cursor"/></g></g></g></g></svg>