<svg xmlns="http://www.w3.org/2000/svg" xmlns:xlink="http://www.w3.org/1999/xlink" width="600" height="350" viewBox="0 0 600 350"><defs><symbol id="1"><text x="16" y="57.1" class="c">❯</text></symbol><symbol id="2"><text x="16" y="57.1" class="c">❯ </text><text x="32.8" y="57.1" class="d">e</text></symbol><symbol id="3"><text x="16" y="57.1" class="c">❯ </text><text x="32.8" y="57.1" class="d">ec</text></symbol><symbol id="4"><text x="16" y="57.1" class="c">❯ </text><text x="32.8" y="57.1" class="d">ech</text></symbol><symbol id="5"><text x="16" y="57.1" class="c">❯ </text><text x="32.8" y="57.1" class="d">echo</text></symbol><symbol id="6"><text x="16" y="57.1" class="c">❯ </text><text x="32.8" y="57.1" class="d">echo &apos;</text></symbol><symbol id="7"><text x="16" y="57.1" class="c">❯ </text><text x="32.8" y="57.1" class="d">echo &apos;T</text></symbol><symbol id="8"><text x="16" y="57.1" class="c">❯ </text><text x="32.8" y="57.1" class="d">echo &apos;Te</text></symbol><symbol id="9"><text x="16" y="57.1" class="c">❯ </text><text x="32.8" y="57.1" class="d">echo &apos;Tes</text></symbol><symbol id="10"><text x="16" y="57.1" class="c">❯ </text><text x="32.8" y="57.1" class="d">echo &apos;Test</text></symbol><symbol id="11"><text x="16" y="57.1" class="c">❯ </text><text x="32.8" y="57.1" class="d">echo &apos;Testi</text></symbol><symbol id="12"><text x="16" y="57.1" class="c">❯ </text><text x="32.8" y="57.1" class="d">echo &apos;Testin</text></symbol><symbol id="13"><text x="16" y="57.1" class="c">❯ </text><text x="32.8" y="57.1" class="d">echo &apos;Testing</text></symbol><symbol id="14"><text x="16" y="57.1" class="c">❯ </text><text x="32.8" y="57.1" class="d">echo &apos;Testing h</text></symbol><symbol id="15"><text x="16" y="57.1" class="c">❯ </text><text x="32.8" y="57.1" class="d">echo &apos;Testing he</text></symbol><symbol id="16"><text x="16" y="57.1" class="c">❯ </text><text x="32.8" y="57.1" class="d">echo &apos;Testing hea</text></symbol><symbol id="17"><text x="16" y="57.1" class="c">❯ </text><text x="32.8" y="57.1" class="d">echo &apos;Testing head</text></symbol><symbol id="18"><text x="16" y="57.1" class="c">❯ </text><text x="32.8" y="57.1" class="d">echo &apos;Testing heade</text></symbol><symbol id="19"><text x="16" y="57.1" class="c">❯ </text><text x="32.8" y="57.1" class="d">echo &apos;Testing header</text></symbol><symbol id="20"><text x="16" y="57.1" class="c">❯ </text><text x="32.8" y="57.1" class="d">echo &apos;Testing header a</text></symbol><symbol id="21"><text x="16" y="57.1" class="c">❯ </text><text x="32.8" y="57.1" class="d">echo &apos;Testing header an</text></symbol><symbol id="22"><text x="16" y="57.1" class="c">❯ </text><text x="32.8" y="57.1" class="d">echo &apos;Testing header and</text></symbol><symbol id="23"><text x="16" y="57.1" class="c">❯ </text><text x="32.8" y="57.1" class="d">echo &apos;Testing header and f</text></symbol><symbol id="24"><text x="16" y="57.1" class="c">❯ </text><text x="32.8" y="57.1" class="d">echo &apos;Testing header and fo</text></symbol><symbol id="25"><text x="16" y="57.1" class="c">❯ </text><text x="32.8" y="57.1" class="d">echo &apos;Testing header and foo</text></symbol><symbol id="26"><text x="16" y="57.1" class="c">❯ </text><text x="32.8" y="57.1" class="d">echo &apos;Testing header and foot</text></symbol><symbol id="27"><text x="16" y="57.1" class="c">❯ </text><text x="32.8" y="57.1" class="d">echo &apos;Testing header and foote</text></symbol><symbol id="28"><text x="16" y="57.1" class="c">❯ </text><text x="32.8" y="57.1" class="d">echo &apos;Testing header and footer</text></symbol><symbol id="29"><text x="16" y="57.1" class="c">❯ </text><text x="32.8" y="57.1" class="d">echo &apos;Testing header and footer c</text></symbol><symbol id="30"><text x="16" y="57.1" class="c">❯ </text><text x="32.8" y="57.1" class="d">echo &apos;Testing header and footer co</text></symbol><symbol id="31"><text x="16" y="57.1" class="c">❯ </text><text x="32.8" y="57.1" class="d">echo &apos;Testing header and footer con</text></symbol><symbol id="32"><text x="16" y="57.1" class="c">❯ </text><text x="32.8" y="57.1" class="d">echo &apos;Testing header and footer conf</text></symbol><symbol id="33"><text x="16" y="57.1" class="c">❯ </text><text x="32.8" y="57.1" class="d">echo &apos;Testing header and footer confi</text></symbol><symbol id="34"><text x="16" y="57.1" class="c">❯ </text><text x="32.8" y="57.1" class="d">echo &apos;Testing header and footer config</text></symbol><symbol id="35"><text x="16" y="57.1" class="c">❯ </text><text x="32.8" y="57.1" class="d">echo &apos;Testing header and footer config&apos;</text></symbol><symbol id="36"><text x="16" y="76.7" class="d">Testing header and footer config</text></symbol><symbol id="37"><text x="16" y="96.3" class="c">❯</text></symbol><symbol id="38"><text x="16" y="96.3" class="c">❯ </text><text x="32.8" y="96.3" class="d">e</text></symbol><symbol id="39"><text x="16" y="96.3" class="c">❯ </text><text x="32.8" y="96.3" class="d">ec</text></symbol><symbol id="40"><text x="16" y="96.3" class="c">❯ </text><text x="32.8" y="96.3" class="d">ech</text></symbol><symbol id="41"><text x="16" y="96.3" class="c">❯ </text><text x="32.8" y="96.3" class="d">echo</text></symbol><symbol id="42"><text x="16" y="96.3" class="c">❯ </text><text x="32.8" y="96.3" class="d">echo &apos;</text></symbol><symbol id="43"><text x="16" y="96.3" class="c">❯ </text><text x="32.8" y="96.3" class="d">echo &apos;H</text></symbol><symbol id="44"><text x="16" y="96.3" class="c">❯ </text><text x="32.8" y="96.3" class="d">echo &apos;He</text></symbol><symbol id="45"><text x="16" y="96.3" class="c">❯ </text><text x="32.8" y="96.3" class="d">echo &apos;Hea</text></symbol><symbol id="46"><text x="16" y="96.3" class="c">❯ </text><text x="32.8" y="96.3" class="d">echo &apos;Head</text></symbol><symbol id="47"><text x="16" y="96.3" class="c">❯ </text><text x="32.8" y="96.3" class="d">echo &apos;Heade</text></symbol><symbol id="48"><text x="16" y="96.3" class="c">❯ </text><text x="32.8" y="96.3" class="d">echo &apos;Header</text></symbol><symbol id="49"><text x="16" y="96.3" class="c">❯ </text><text x="32.8" y="96.3" class="d">echo &apos;Header h</text></symbol><symbol id="50"><text x="16" y="96.3" class="c">❯ </text><text x="32.8" y="96.3" class="d">echo &apos;Header ha</text></symbol><symbol id="51"><text x="16" y="96.3" class="c">❯ </text><text x="32.8" y="96.3" class="d">echo &apos;Header has</text></symbol><symbol id="52"><text x="16" y="96.3" class="c">❯ </text><text x="32.8" y="96.3" class="d">echo &apos;Header has c</text></symbol><symbol id="53"><text x="16" y="96.3" class="c">❯ </text><text x="32.8" y="96.3" class="d">echo &apos;Header has cu</text></symbol><symbol id="54"><text x="16" y="96.3" class="c">❯ </text><text x="32.8" y="96.3" class="d">echo &apos;Header has cus</text></symbol><symbol id="55"><text x="16" y="96.3" class="c">❯ </text><text x="32.8" y="96.3" class="d">echo &apos;Header has cust</text></symbol><symbol id="56"><text x="16" y="96.3" class="c">❯ </text><text x="32.8" y="96.3" class="d">echo &apos;Header has custo</text></symbol><symbol id="57"><text x="16" y="96.3" class="c">❯ </text><text x="32.8" y="96.3" class="d">echo &apos;Header has custom</text></symbol><symbol id="58"><text x="16" y="96.3" class="c">❯ </text><text x="32.8" y="96.3" class="d">echo &apos;Header has custom b</text></symbol><symbol id="59"><text x="16" y="96.3" class="c">❯ </text><text x="32.8" y="96.3" class="d">echo &apos;Header has custom ba</text></symbol><symbol id="60"><text x="16" y="96.3" class="c">❯ </text><text x="32.8" y="96.3" class="d">echo &apos;Header has custom bac</text></symbol><symbol id="61"><text x="16" y="96.3" class="c">❯ </text><text x="32.8" y="96.3" class="d">echo &apos;Header has custom back</text></symbol><symbol id="62"><text x="16" y="96.3" class="c">❯ </text><text x="32.8" y="96.3" class="d">echo &apos;Header has custom backg</text></symbol><symbol id="63"><text x="16" y="96.3" class="c">❯ </text><text x="32.8" y="96.3" class="d">echo &apos;Header has custom backgr</text></symbol><symbol id="64"><text x="16" y="96.3" class="c">❯ </text><text x="32.8" y="96.3" class="d">echo &apos;Header has custom backgro</text></symbol><symbol id="65"><text x="16" y="96.3" class="c">❯ </text><text x="32.8" y="96.3" class="d">echo &apos;Header has custom backgrou</text></symbol><symbol id="66"><text x="16" y="96.3" class="c">❯ </text><text x="32.8" y="96.3" class="d">echo &apos;Header has custom backgroun</text></symbol><symbol id="67"><text x="16" y="96.3" class="c">❯ </text><text x="32.8" y="96.3" class="d">echo &apos;Header has custom background</text></symbol><symbol id="68"><text x="16" y="96.3" class="c">❯ </text><text x="32.8" y="96.3" class="d">echo &apos;Header has custom background a</text></symbol><symbol id="69"><text x="16" y="96.3" class="c">❯ </text><text x="32.8" y="96.3" class="d">echo &apos;Header has custom background an</text></symbol><symbol id="70"><text x="16" y="96.3" class="c">❯ </text><text x="32.8" y="96.3" class="d">echo &apos;Header has custom background and</text></symbol><symbol id="71"><text x="16" y="96.3" class="c">❯ </text><text x="32.8" y="96.3" class="d">echo &apos;Header has custom background and b</text></symbol><symbol id="72"><text x="16" y="96.3" class="c">❯ </text><text x="32.8" y="96.3" class="d">echo &apos;Header has custom background and bo</text></symbol><symbol id="73"><text x="16" y="96.3" class="c">❯ </text><text x="32.8" y="96.3" class="d">echo &apos;Header has custom background and bor</text></symbol><symbol id="74"><text x="16" y="96.3" class="c">❯ </text><text x="32.8" y="96.3" class="d">echo &apos;Header has custom background and bord</text></symbol><symbol id="75"><text x="16" y="96.3" class="c">❯ </text><text x="32.8" y="96.3" class="d">echo &apos;Header has custom background and borde</text></symbol><symbol id="76"><text x="16" y="96.3" class="c">❯ </text><text x="32.8" y="96.3" class="d">echo &apos;Header has custom background and border</text></symbol><symbol id="77"><text x="16" y="96.3" class="c">❯ </text><text x="32.8" y="96.3" class="d">echo &apos;Header has custom background and border&apos;</text></symbol><symbol id="78"><text x="16" y="115.9" class="d">Header has custom background and border</text></symbol><symbol id="79"><text x="16" y="135.5" class="c">❯</text></symbol><symbol id="80"><text x="16" y="135.5" class="c">❯ </text><text x="32.8" y="135.5" class="d">e</text></symbol><symbol id="81"><text x="16" y="135.5" class="c">❯ </text><text x="32.8" y="135.5" class="d">ec</text></symbol><symbol id="82"><text x="16" y="135.5" class="c">❯ </text><text x="32.8" y="135.5" class="d">ech</text></symbol><symbol id="83"><text x="16" y="135.5" class="c">❯ </text><text x="32.8" y="135.5" class="d">echo</text></symbol><symbol id="84"><text x="16" y="135.5" class="c">❯ </text><text x="32.8" y="135.5" class="d">echo &apos;</text></symbol><symbol id="85"><text x="16" y="135.5" class="c">❯ </text><text x="32.8" y="135.5" class="d">echo &apos;F</text></symbol><symbol id="86"><text x="16" y="135.5" class="c">❯ </text><text x="32.8" y="135.5" class="d">echo &apos;Fo</text></symbol><symbol id="87"><text x="16" y="135.5" class="c">❯ </text><text x="32.8" y="135.5" class="d">echo &apos;Foo</text></symbol><symbol id="88"><text x="16" y="135.5" class="c">❯ </text><text x="32.8" y="135.5" class="d">echo &apos;Foot</text></symbol><symbol id="89"><text x="16" y="135.5" class="c">❯ </text><text x="32.8" y="135.5" class="d">echo &apos;Foote</text></symbol><symbol id="90"><text x="16" y="135.5" class="c">❯ </text><text x="32.8" y="135.5" class="d">echo &apos;Footer</text></symbol><symbol id="91"><text x="16" y="135.5" class="c">❯ </text><text x="32.8" y="135.5" class="d">echo &apos;Footer h</text></symbol><symbol id="92"><text x="16" y="135.5" class="c">❯ </text><text x="32.8" y="135.5" class="d">echo &apos;Footer ha</text></symbol><symbol id="93"><text x="16" y="135.5" class="c">❯ </text><text x="32.8" y="135.5" class="d">echo &apos;Footer has</text></symbol><symbol id="94"><text x="16" y="135.5" class="c">❯ </text><text x="32.8" y="135.5" class="d">echo &apos;Footer has c</text></symbol><symbol id="95"><text x="16" y="135.5" class="c">❯ </text><text x="32.8" y="135.5" class="d">echo &apos;Footer has cu</text></symbol><symbol id="96"><text x="16" y="135.5" class="c">❯ </text><text x="32.8" y="135.5" class="d">echo &apos;Footer has cus</text></symbol><symbol id="97"><text x="16" y="135.5" class="c">❯ </text><text x="32.8" y="135.5" class="d">echo &apos;Footer has cust</text></symbol><symbol id="98"><text x="16" y="135.5" class="c">❯ </text><text x="32.8" y="135.5" class="d">echo &apos;Footer has custo</text></symbol><symbol id="99"><text x="16" y="135.5" class="c">❯ </text><text x="32.8" y="135.5" class="d">echo &apos;Footer has custom</text></symbol><symbol id="100"><text x="16" y="135.5" class="c">❯ </text><text x="32.8" y="135.5" class="d">echo &apos;Footer has custom b</text></symbol><symbol id="101"><text x="16" y="135.5" class="c">❯ </text><text x="32.8" y="135.5" class="d">echo &apos;Footer has custom ba</text></symbol><symbol id="102"><text x="16" y="135.5" class="c">❯ </text><text x="32.8" y="135.5" class="d">echo &apos;Footer has custom bac</text></symbol><symbol id="103"><text x="16" y="135.5" class="c">❯ </text><text x="32.8" y="135.5" class="d">echo &apos;Footer has custom back</text></symbol><symbol id="104"><text x="16" y="135.5" class="c">❯ </text><text x="32.8" y="135.5" class="d">echo &apos;Footer has custom backg</text></symbol><symbol id="105"><text x="16" y="135.5" class="c">❯ </text><text x="32.8" y="135.5" class="d">echo &apos;Footer has custom backgr</text></symbol><symbol id="106"><text x="16" y="135.5" class="c">❯ </text><text x="32.8" y="135.5" class="d">echo &apos;Footer has custom backgro</text></symbol><symbol id="107"><text x="16" y="135.5" class="c">❯ </text><text x="32.8" y="135.5" class="d">echo &apos;Footer has custom backgrou</text></symbol><symbol id="108"><text x="16" y="135.5" class="c">❯ </text><text x="32.8" y="135.5" class="d">echo &apos;Footer has custom backgroun</text></symbol><symbol id="109"><text x="16" y="135.5" class="c">❯ </text><text x="32.8" y="135.5" class="d">echo &apos;Footer has custom background</text></symbol><symbol id="110"><text x="16" y="135.5" class="c">❯ </text><text x="32.8" y="135.5" class="d">echo &apos;Footer has custom background a</text></symbol><symbol id="111"><text x="16" y="135.5" class="c">❯ </text><text x="32.8" y="135.5" class="d">echo &apos;Footer has custom background an</text></symbol><symbol id="112"><text x="16" y="135.5" class="c">❯ </text><text x="32.8" y="135.5" class="d">echo &apos;Footer has custom background and</text></symbol><symbol id="113"><text x="16" y="135.5" class="c">❯ </text><text x="32.8" y="135.5" class="d">echo &apos;Footer has custom background and b</text></symbol><symbol id="114"><text x="16" y="135.5" class="c">❯ </text><text x="32.8" y="135.5" class="d">echo &apos;Footer has custom background and bo</text></symbol><symbol id="115"><text x="16" y="135.5" class="c">❯ </text><text x="32.8" y="135.5" class="d">echo &apos;Footer has custom background and bor</text></symbol><symbol id="116"><text x="16" y="135.5" class="c">❯ </text><text x="32.8" y="135.5" class="d">echo &apos;Footer has custom background and bord</text></symbol><symbol id="117"><text x="16" y="135.5" class="c">❯ </text><text x="32.8" y="135.5" class="d">echo &apos;Footer has custom background and borde</text></symbol><symbol id="118"><text x="16" y="135.5" class="c">❯ </text><text x="32.8" y="135.5" class="d">echo &apos;Footer has custom background and border</text></symbol><symbol id="119"><text x="16" y="135.5" class="c">❯ </text><text x="32.8" y="135.5" class="d">echo &apos;Footer has custom background and border&apos;</text></symbol></defs><style>@keyframes f{0.07%{transform:translateX(0px)}0.55%{transform:translateX(-600px)}1.02%{transform:translateX(-1200px)}1.47%{transform:translateX(-1800px)}1.93%{transform:translateX(-2400px)}2.40%{transform:translateX(-3000px)}2.87%{transform:translateX(-3600px)}3.32%{transform:translateX(-4200px)}3.80%{transform:translateX(-4800px)}4.25%{transform:translateX(-5400px)}4.70%{transform:translateX(-6000px)}5.17%{transform:translateX(-6600px)}5.63%{transform:translateX(-7200px)}6.11%{transform:translateX(-7800px)}6.56%{transform:translateX(-8400px)}7.00%{transform:translateX(-9000px)}7.47%{transform:translateX(-9600px)}7.94%{transform:translateX(-10200px)}8.38%{transform:translateX(-10800px)}8.82%{transform:translateX(-11400px)}9.27%{transform:translateX(-12000px)}9.73%{transform:translateX(-12600px)}10.21%{transform:translateX(-13200px)}10.66%{transform:translateX(-13800px)}11.11%{transform:translateX(-14400px)}11.58%{transform:translateX(-15000px)}12.05%{transform:translateX(-15600px)}12.50%{transform:translateX(-16200px)}12.95%{transform:translateX(-16800px)}13.42%{transform:translateX(-17400px)}13.87%{transform:translateX(-18000px)}14.32%{transform:translateX(-18600px)}14.78%{transform:translateX(-19200px)}15.23%{transform:translateX(-19800px)}15.69%{transform:translateX(-20400px)}16.14%{transform:translateX(-21000px)}16.62%{transform:translateX(-21600px)}17.06%{transform:translateX(-22200px)}17.53%{transform:translateX(-22800px)}17.96%{transform:translateX(-23400px)}17.97%{transform:translateX(-24000px)}23.38%{transform:translateX(-24600px)}23.46%{transform:translateX(-25200px)}24.45%{transform:translateX(-25800px)}24.90%{transform:translateX(-26400px)}25.36%{transform:translateX(-27000px)}25.82%{transform:translateX(-27600px)}26.28%{transform:translateX(-28200px)}26.75%{transform:translateX(-28800px)}27.22%{transform:translateX(-29400px)}27.64%{transform:translateX(-30000px)}28.11%{transform:translateX(-30600px)}28.57%{transform:translateX(-31200px)}29.05%{transform:translateX(-31800px)}29.53%{transform:translateX(-32400px)}30.00%{transform:translateX(-33000px)}30.45%{transform:translateX(-33600px)}30.88%{transform:translateX(-34200px)}31.36%{transform:translateX(-34800px)}31.81%{transform:translateX(-35400px)}32.25%{transform:translateX(-36000px)}32.73%{transform:translateX(-36600px)}33.19%{transform:translateX(-37200px)}33.65%{transform:translateX(-37800px)}34.11%{transform:translateX(-38400px)}34.56%{transform:translateX(-39000px)}35.02%{transform:translateX(-39600px)}35.48%{transform:translateX(-40200px)}35.96%{transform:translateX(-40800px)}36.42%{transform:translateX(-41400px)}36.88%{transform:translateX(-42000px)}37.34%{transform:translateX(-42600px)}37.80%{transform:translateX(-43200px)}38.24%{transform:translateX(-43800px)}38.71%{transform:translateX(-44400px)}39.17%{transform:translateX(-45000px)}39.59%{transform:translateX(-45600px)}40.06%{transform:translateX(-46200px)}40.51%{transform:translateX(-46800px)}40.99%{transform:translateX(-47400px)}41.47%{transform:translateX(-48000px)}41.94%{transform:translateX(-48600px)}42.37%{transform:translateX(-49200px)}42.83%{transform:translateX(-49800px)}43.25%{transform:translateX(-50400px)}43.71%{transform:translateX(-51000px)}44.18%{transform:translateX(-51600px)}44.63%{transform:translateX(-52200px)}45.11%{transform:translateX(-52800px)}45.59%{transform:translateX(-53400px)}45.59%{transform:translateX(-54000px)}51.04%{transform:translateX(-54600px)}51.07%{transform:translateX(-55200px)}52.10%{transform:translateX(-55800px)}52.56%{transform:translateX(-56400px)}53.02%{transform:translateX(-57000px)}53.48%{transform:translateX(-57600px)}53.96%{transform:translateX(-58200px)}54.41%{transform:translateX(-58800px)}54.87%{transform:translateX(-59400px)}55.32%{transform:translateX(-60000px)}55.80%{transform:translateX(-60600px)}56.25%{transform:translateX(-61200px)}56.72%{transform:translateX(-61800px)}57.20%{transform:translateX(-62400px)}57.67%{transform:translateX(-63000px)}58.07%{transform:translateX(-63600px)}58.56%{transform:translateX(-64200px)}59.03%{transform:translateX(-64800px)}59.43%{transform:translateX(-65400px)}59.89%{transform:translateX(-66000px)}60.36%{transform:translateX(-66600px)}60.82%{transform:translateX(-67200px)}61.29%{transform:translateX(-67800px)}61.76%{transform:translateX(-68400px)}62.22%{transform:translateX(-69000px)}62.69%{transform:translateX(-69600px)}63.14%{transform:translateX(-70200px)}63.60%{transform:translateX(-70800px)}64.06%{transform:translateX(-71400px)}64.53%{transform:translateX(-72000px)}64.98%{transform:translateX(-72600px)}65.44%{transform:translateX(-73200px)}65.90%{transform:translateX(-73800px)}66.39%{transform:translateX(-74400px)}66.84%{transform:translateX(-75000px)}67.29%{transform:translateX(-75600px)}67.78%{transform:translateX(-76200px)}68.22%{transform:translateX(-76800px)}68.69%{transform:translateX(-77400px)}69.14%{transform:translateX(-78000px)}69.57%{transform:translateX(-78600px)}70.04%{transform:translateX(-79200px)}70.53%{transform:translateX(-79800px)}71.00%{transform:translateX(-80400px)}71.44%{transform:translateX(-81000px)}71.90%{transform:translateX(-81600px)}72.37%{transform:translateX(-82200px)}72.83%{transform:translateX(-82800px)}73.27%{transform:translateX(-83400px)}73.28%{transform:translateX(-84000px)}}.a{fill:#1e1e1e}.c{fill:#d2a8ff;stroke:#d2a8ff}.d{fill:#c9d1d9;stroke:#c9d1d9}path[fill="none"]{fill:none}path[shape-rendering="crispEdges"]{stroke:none}text{font-family:'SF Mono',Monaco,Consolas,Menlo,monospace;font-size:14px;dominant-baseline:text-before-edge;white-space:pre}text[class]{stroke:none}.bold{font-weight:700}.italic{font-style:italic}.uline{text-decoration:underline}.strike{text-decoration:line-through}.dim{opacity:0.5}@keyframes blink{0%,50%{opacity:1}50.01%,100%{opacity:0}}.cursor{animation:blink 1s step-end infinite;mix-blend-mode:difference}.cursor-active{opacity:1;mix-blend-mode:difference}</style><g transform="translate(0,0)"><rect width="600" height="350" rx="8" fill="#1e1e1e"/><rect width="600" height="40" rx="8" fill="#242526"/><path d="M0 32h600v8H0z" fill="#242526"/><circle cx="16" cy="20" r="6" fill="#ff5f56"/><circle cx="36" cy="20" r="6" fill="#ffbd2e"/><circle cx="56" cy="20" r="6" fill="#27c93f"/><text x="300" y="20" text-anchor="middle" dominant-baseline="middle" fill="#c9d1d9" font-size="14">Header/Footer Test</text><clipPath id="content-clip"><path d="M0 40h600v310H0z" /></clipPath><g clip-path="url(#content-clip)"><g style="animation:f 11.315s steps(1,end) infinite"><g transform="translate(0,0)"><use xlink:href="#1"/><path d="M32.8 56h8.4v19.6H32.8z" fill="#fff" class="cursor"/></g><g transform="translate(600,0)"><use xlink:href="#2"/><path d="M41.2 56h8.4v19.6H41.2z" fill="#fff" class="cursor-active"/></g><g transform="translate(1200,0)"><use xlink:href="#3"/><path d="M49.6 56h8.4v19.6H49.6z" fill="#fff" class="cursor-active"/></g><g transform="translate(1800,0)"><use xlink:href="#4"/><path d="M58 56h8.4v19.6H58z" fill="#fff" class="cursor-active"/></g><g transform="translate(2400,0)"><use xlink:href="#5"/><path d="M66.4 56h8.4v19.6H66.4z" fill="#fff" class="cursor-active"/></g><g transform="translate(3000,0)"><use xlink:href="#5"/><path d="M74.8 56h8.4v19.6H74.8z" fill="#fff" class="cursor-active"/></g><g transform="translate(3600,0)"><use xlink:href="#6"/><path d="M83.2 56h8.4v19.6H83.2z" fill="#fff" class="cursor-active"/></g><g transform="translate(4200,0)"><use xlink:href="#7"/><path d="M91.6 56h8.4v19.6H91.6z" fill="#fff" class="cursor-active"/></g><g transform="translate(4800,0)"><use xlink:href="#8"/><path d="M100 56h8.4v19.6H100z" fill="#fff" class="cursor-active"/></g><g transform="translate(5400,0)"><use xlink:href="#9"/><path d="M108.4 56h8.4v19.6H108.4z" fill="#fff" class="cursor-active"/></g><g transform="translate(6000,0)"><use xlink:href="#10"/><path d="M116.8 56h8.4v19.6H116.8z" fill="#fff" class="cursor-active"/></g><g transform="translate(6600,0)"><use xlink:href="#11"/><path d="M125.2 56h8.4v19.6H125.2z" fill="#fff" class="cursor-active"/></g><g transform="translate(7200,0)"><use xlink:href="#12"/><path d="M133.6 56h8.4v19.6H133.6z" fill="#fff" class="cursor-active"/></g><g transform="translate(7800,0)"><use xlink:href="#13"/><path d="M142 56h8.4v19.6H142z" fill="#fff" class="cursor-active"/></g><g transform="translate(8400,0)"><use xlink:href="#13"/><path d="M150.4 56h8.4v19.6H150.4z" fill="#fff" class="cursor-active"/></g><g transform="translate(9000,0)"><use xlink:href="#14"/><path d="M158.8 56h8.4v19.6H158.8z" fill="#fff" class="cursor-active"/></g><g transform="translate(9600,0)"><use xlink:href="#15"/><path d="M167.2 56h8.4v19.6H167.2z" fill="#fff" class="cursor-active"/></g><g transform="translate(10200,0)"><use xlink:href="#16"/><path d="M175.6 56h8.4v19.6H175.6z" fill="#fff" class="cursor-active"/></g><g transform="translate(10800,0)"><use xlink:href="#17"/><path d="M184 56h8.4v19.6H184z" fill="#fff" class="cursor-active"/></g><g transform="translate(11400,0)"><use xlink:href="#18"/><path d="M192.4 56h8.4v19.6H192.4z" fill="#fff" class="cursor-active"/></g><g transform="translate(12000,0)"><use xlink:href="#19"/><path d="M200.8 56h8.4v19.6H200.8z" fill="#fff" class="cursor-active"/></g><g transform="translate(12600,0)"><use xlink:href="#19"/><path d="M209.2 56h8.4v19.6H209.2z" fill="#fff" class="cursor-active"/></g><g transform="translate(13200,0)"><use xlink:href="#20"/><path d="M217.6 56h8.4v19.6H217.6z" fill="#fff" class="cursor-active"/></g><g transform="translate(13800,0)"><use xlink:href="#21"/><path d="M226 56h8.4v19.6H226z" fill="#fff" class="cursor-active"/></g><g transform="translate(14400,0)"><use xlink:href="#22"/><path d="M234.4 56h8.4v19.6H234.4z" fill="#fff" class="cursor-active"/></g><g transform="translate(15000,0)"><use xlink:href="#22"/><path d="M242.8 56h8.4v19.6H242.8z" fill="#fff" class="cursor-active"/></g><g transform="translate(15600,0)"><use xlink:href="#23"/><path d="M251.2 56h8.4v19.6H251.2z" fill="#fff" class="cursor-active"/></g><g transform="translate(16200,0)"><use xlink:href="#24"/><path d="M259.6 56h8.4v19.6H259.6z" fill="#fff" class="cursor-active"/></g><g transform="translate(16800,0)"><use xlink:href="#25"/><path d="M268 56h8.4v19.6H268z" fill="#fff" class="cursor-active"/></g><g transform="translate(17400,0)"><use xlink:href="#26"/><path d="M276.4 56h8.4v19.6H276.4z" fill="#fff" class="cursor-active"/></g><g transform="translate(18000,0)"><use xlink:href="#27"/><path d="M284.8 56h8.4v19.6H284.8z" fill="#fff" class="cursor-active"/></g><g transform="translate(18600,0)"><use xlink:href="#28"/><path d="M293.2 56h8.4v19.6H293.2z" fill="#fff" class="cursor-active"/></g><g transform="translate(19200,0)"><use xlink:href="#28"/><path d="M301.6 56h8.4v19.6H301.6z" fill="#fff" class="cursor-active"/></g><g transform="translate(19800,0)"><use xlink:href="#29"/><path d="M310 56h8.4v19.6H310z" fill="#fff" class="cursor-active"/></g><g transform="translate(20400,0)"><use xlink:href="#30"/><path d="M318.4 56h8.4v19.6H318.4z" fill="#fff" class="cursor-active"/></g><g transform="translate(21000,0)"><use xlink:href="#31"/><path d="M326.8 56h8.4v19.6H326.8z" fill="#fff" class="cursor-active"/></g><g transform="translate(21600,0)"><use xlink:href="#32"/><path d="M335.2 56h8.4v19.6H335.2z" fill="#fff" class="cursor-active"/></g><g transform="translate(22200,0)"><use xlink:href="#33"/><path d="M343.6 56h8.4v19.6H343.6z" fill="#fff" class="cursor-active"/></g><g transform="translate(22800,0)"><use xlink:href="#34"/><path d="M352 56h8.4v19.6H352z" fill="#fff" class="cursor-active"/></g><g transform="translate(23400,0)"><use xlink:href="#35"/><path d="M360.4 56h8.4v19.6H360.4z" fill="#fff" class="cursor-active"/></g><g transform="translate(24000,0)"><use xlink:href="#35"/><path d="M360.4 56h8.4v19.6H360.4z" fill="#fff" class="cursor"/></g><g transform="translate(24600,0)"><use xlink:href="#35"/></g><g transform="translate(25200,0)"><use xlink:href="#35"/><use xlink:href="#36"/></g><g transform="translate(25800,0)"><use xlink:href="#35"/><use xlink:href="#36"/><use xlink:href="#37"/><path d="M32.8 95.2h8.4v19.6H32.8z" fill="#fff" class="cursor"/></g><g transform="translate(26400,0)"><use xlink:href="#35"/><use xlink:href="#36"/><use xlink:href="#38"/><path d="M41.2 95.2h8.4v19.6H41.2z" fill="#fff" class="cursor-active"/></g><g transform="translate(27000,0)"><use xlink:href="#35"/><use xlink:href="#36"/><use xlink:href="#39"/><path d="M49.6 95.2h8.4v19.6H49.6z" fill="#fff" class="cursor-active"/></g><g transform="translate(27600,0)"><use xlink:href="#35"/><use xlink:href="#36"/><use xlink:href="#40"/><path d="M58 95.2h8.4v19.6H58z" fill="#fff" class="cursor-active"/></g><g transform="translate(28200,0)"><use xlink:href="#35"/><use xlink:href="#36"/><use xlink:href="#41"/><path d="M66.4 95.2h8.4v19.6H66.4z" fill="#fff" class="cursor-active"/></g><g transform="translate(28800,0)"><use xlink:href="#35"/><use xlink:href="#36"/><use xlink:href="#41"/><path d="M74.8 95.2h8.4v19.6H74.8z" fill="#fff" class="cursor-active"/></g><g transform="translate(29400,0)"><use xlink:href="#35"/><use xlink:href="#36"/><use xlink:href="#42"/><path d="M83.2 95.2h8.4v19.6H83.2z" fill="#fff" class="cursor-active"/></g><g transform="translate(30000,0)"><use xlink:href="#35"/><use xlink:href="#36"/><use xlink:href="#43"/><path d="M91.6 95.2h8.4v19.6H91.6z" fill="#fff" class="cursor-active"/></g><g transform="translate(30600,0)"><use xlink:href="#35"/><use xlink:href="#36"/><use xlink:href="#44"/><path d="M100 95.2h8.4v19.6H100z" fill="#fff" class="cursor-active"/></g><g transform="translate(31200,0)"><use xlink:href="#35"/><use xlink:href="#36"/><use xlink:href="#45"/><path d="M108.4 95.2h8.4v19.6H108.4z" fill="#fff" class="cursor-active"/></g><g transform="translate(31800,0)"><use xlink:href="#35"/><use xlink:href="#36"/><use xlink:href="#46"/><path d="M116.8 95.2h8.4v19.6H116.8z" fill="#fff" class="cursor-active"/></g><g transform="translate(32400,0)"><use xlink:href="#35"/><use xlink:href="#36"/><use xlink:href="#47"/><path d="M125.2 95.2h8.4v19.6H125.2z" fill="#fff" class="cursor-active"/></g><g transform="translate(33000,0)"><use xlink:href="#35"/><use xlink:href="#36"/><use xlink:href="#48"/><path d="M133.6 95.2h8.4v19.6H133.6z" fill="#fff" class="cursor-active"/></g><g transform="translate(33600,0)"><use xlink:href="#35"/><use xlink:href="#36"/><use xlink:href="#48"/><path d="M142 95.2h8.4v19.6H142z" fill="#fff" class="cursor-active"/></g><g transform="translate(34200,0)"><use xlink:href="#35"/><use xlink:href="#36"/><use xlink:href="#49"/><path d="M150.4 95.2h8.4v19.6H150.4z" fill="#fff" class="cursor-active"/></g><g transform="translate(34800,0)"><use xlink:href="#35"/><use xlink:href="#36"/><use xlink:href="#50"/><path d="M158.8 95.2h8.4v19.6H158.8z" fill="#fff" class="cursor-active"/></g><g transform="translate(35400,0)"><use xlink:href="#35"/><use xlink:href="#36"/><use xlink:href="#51"/><path d="M167.2 95.2h8.4v19.6H167.2z" fill="#fff" class="cursor-active"/></g><g transform="translate(36000,0)"><use xlink:href="#35"/><use xlink:href="#36"/><use xlink:href="#51"/><path d="M175.6 95.2h8.4v19.6H175.6z" fill="#fff" class="cursor-active"/></g><g transform="translate(36600,0)"><use xlink:href="#35"/><use xlink:href="#36"/><use xlink:href="#52"/><path d="M184 95.2h8.4v19.6H184z" fill="#fff" class="cursor-active"/></g><g transform="translate(37200,0)"><use xlink:href="#35"/><use xlink:href="#36"/><use xlink:href="#53"/><path d="M192.4 95.2h8.4v19.6H192.4z" fill="#fff" class="cursor-active"/></g><g transform="translate(37800,0)"><use xlink:href="#35"/><use xlink:href="#36"/><use xlink:href="#54"/><path d="M200.8 95.2h8.4v19.6H200.8z" fill="#fff" class="cursor-active"/></g><g transform="translate(38400,0)"><use xlink:href="#35"/><use xlink:href="#36"/><use xlink:href="#55"/><path d="M209.2 95.2h8.4v19.6H209.2z" fill="#fff" class="cursor-active"/></g><g transform="translate(39000,0)"><use xlink:href="#35"/><use xlink:href="#36"/><use xlink:href="#56"/><path d="M217.6 95.2h8.4v19.6H217.6z" fill="#fff" class="cursor-active"/></g><g transform="translate(39600,0)"><use xlink:href="#35"/><use xlink:href="#36"/><use xlink:href="#57"/><path d="M226 95.2h8.4v19.6H226z" fill="#fff" class="cursor-active"/></g><g transform="translate(40200,0)"><use xlink:href="#35"/><use xlink:href="#36"/><use xlink:href="#57"/><path d="M234.4 95.2h8.4v19.6H234.4z" fill="#fff" class="cursor-active"/></g><g transform="translate(40800,0)"><use xlink:href="#35"/><use xlink:href="#36"/><use xlink:href="#58"/><path d="M242.8 95.2h8.4v19.6H242.8z" fill="#fff" class="cursor-active"/></g><g transform="translate(41400,0)"><use xlink:href="#35"/><use xlink:href="#36"/><use xlink:href="#59"/><path d="M251.2 95.2h8.4v19.6H251.2z" fill="#fff" class="cursor-active"/></g><g transform="translate(42000,0)"><use xlink:href="#35"/><use xlink:href="#36"/><use xlink:href="#60"/><path d="M259.6 95.2h8.4v19.6H259.6z" fill="#fff" class="cursor-active"/></g><g transform="translate(42600,0)"><use xlink:href="#35"/><use xlink:href="#36"/><use xlink:href="#61"/><path d="M268 95.2h8.4v19.6H268z" fill="#fff" class="cursor-active"/></g><g transform="translate(43200,0)"><use xlink:href="#35"/><use xlink:href="#36"/><use xlink:href="#62"/><path d="M276.4 95.2h8.4v19.6H276.4z" fill="#fff" class="cursor-active"/></g><g transform="translate(43800,0)"><use xlink:href="#35"/><use xlink:href="#36"/><use xlink:href="#63"/><path d="M284.8 95.2h8.4v19.6H284.8z" fill="#fff" class="cursor-active"/></g><g transform="translate(44400,0)"><use xlink:href="#35"/><use xlink:href="#36"/><use xlink:href="#64"/><path d="M293.2 95.2h8.4v19.6H293.2z" fill="#fff" class="cursor-active"/></g><g transform="translate(45000,0)"><use xlink:href="#35"/><use xlink:href="#36"/><use xlink:href="#65"/><path d="M301.6 95.2h8.4v19.6H301.6z" fill="#fff" class="cursor-active"/></g><g transform="translate(45600,0)"><use xlink:href="#35"/><use xlink:href="#36"/><use xlink:href="#66"/><path d="M310 95.2h8.4v19.6H310z" fill="#fff" class="cursor-active"/></g><g transform="translate(46200,0)"><use xlink:href="#35"/><use xlink:href="#36"/><use xlink:href="#67"/><path d="M318.4 95.2h8.4v19.6H318.4z" fill="#fff" class="cursor-active"/></g><g transform="translate(46800,0)"><use xlink:href="#35"/><use xlink:href="#36"/><use xlink:href="#67"/><path d="M326.8 95.2h8.4v19.6H326.8z" fill="#fff" class="cursor-active"/></g><g transform="translate(47400,0)"><use xlink:href="#35"/><use xlink:href="#36"/><use xlink:href="#68"/><path d="M335.2 95.2h8.4v19.6H335.2z" fill="#fff" class="cursor-active"/></g><g transform="translate(48000,0)"><use xlink:href="#35"/><use xlink:href="#36"/><use xlink:href="#69"/><path d="M343.6 95.2h8.4v19.6H343.6z" fill="#fff" class="cursor-active"/></g><g transform="translate(48600,0)"><use xlink:href="#35"/><use xlink:href="#36"/><use xlink:href="#70"/><path d="M352 95.2h8.4v19.6H352z" fill="#fff" class="cursor-active"/></g><g transform="translate(49200,0)"><use xlink:href="#35"/><use xlink:href="#36"/><use xlink:href="#70"/><path d="M360.4 95.2h8.4v19.6H360.4z" fill="#fff" class="cursor-active"/></g><g transform="translate(49800,0)"><use xlink:href="#35"/><use xlink:href="#36"/><use xlink:href="#71"/><path d="M368.8 95.2h8.4v19.6H368.8z" fill="#fff" class="cursor-active"/></g><g transform="translate(50400,0)"><use xlink:href="#35"/><use xlink:href="#36"/><use xlink:href="#72"/><path d="M377.2 95.2h8.4v19.6H377.2z" fill="#fff" class="cursor-active"/></g><g transform="translate(51000,0)"><use xlink:href="#35"/><use xlink:href="#36"/><use xlink:href="#73"/><path d="M385.6 95.2h8.4v19.6H385.6z" fill="#fff" class="cursor-active"/></g><g transform="translate(51600,0)"><use xlink:href="#35"/><use xlink:href="#36"/><use xlink:href="#74"/><path d="M394 95.2h8.4v19.6H394z" fill="#fff" class="cursor-active"/></g><g transform="translate(52200,0)"><use xlink:href="#35"/><use xlink:href="#36"/><use xlink:href="#75"/><path d="M402.4 95.2h8.4v19.6H402.4z" fill="#fff" class="cursor-active"/></g><g transform="translate(52800,0)"><use xlink:href="#35"/><use xlink:href="#36"/><use xlink:href="#76"/><path d="M410.8 95.2h8.4v19.6H410.8z" fill="#fff" class="cursor-active"/></g><g transform="translate(53400,0)"><use xlink:href="#35"/><use xlink:href="#36"/><use xlink:href="#77"/><path d="M419.2 95.2h8.4v19.6H419.2z" fill="#fff" class="cursor-active"/></g><g transform="translate(54000,0)"><use xlink:href="#35"/><use xlink:href="#36"/><use xlink:href="#77"/><path d="M419.2 95.2h8.4v19.6H419.2z" fill="#fff" class="cursor"/></g><g transform="translate(54600,0)"><use xlink:href="#35"/><use xlink:href="#36"/><use xlink:href="#77"/></g><g transform="translate(55200,0)"><use xlink:href="#35"/><use xlink:href="#36"/><use xlink:href="#77"/><use xlink:href="#78"/></g><g transform="translate(55800,0)"><use xlink:href="#35"/><use xlink:href="#36"/><use xlink:href="#77"/><use xlink:href="#78"/><use xlink:href="#79"/><path d="M32.8 134.4h8.4v19.6H32.8z" fill="#fff" class="cursor"/></g><g transform="translate(56400,0)"><use xlink:href="#35"/><use xlink:href="#36"/><use xlink:href="#77"/><use xlink:href="#78"/><use xlink:href="#80"/><path d="M41.2 134.4h8.4v19.6H41.2z" fill="#fff" class="cursor-active"/></g><g transform="translate(57000,0)"><use xlink:href="#35"/><use xlink:href="#36"/><use xlink:href="#77"/><use xlink:href="#78"/><use xlink:href="#81"/><path d="M49.6 134.4h8.4v19.6H49.6z" fill="#fff" class="cursor-active"/></g><g transform="translate(57600,0)"><use xlink:href="#35"/><use xlink:href="#36"/><use xlink:href="#77"/><use xlink:href="#78"/><use xlink:href="#82"/><path d="M58 134.4h8.4v19.6H58z" fill="#fff" class="cursor-active"/></g><g transform="translate(58200,0)"><use xlink:href="#35"/><use xlink:href="#36"/><use xlink:href="#77"/><use xlink:href="#78"/><use xlink:href="#83"/><path d="M66.4 134.4h8.4v19.6H66.4z" fill="#fff" class="cursor-active"/></g><g transform="translate(58800,0)"><use xlink:href="#35"/><use xlink:href="#36"/><use xlink:href="#77"/><use xlink:href="#78"/><use xlink:href="#83"/><path d="M74.8 134.4h8.4v19.6H74.8z" fill="#fff" class="cursor-active"/></g><g transform="translate(59400,0)"><use xlink:href="#35"/><use xlink:href="#36"/><use xlink:href="#77"/><use xlink:href="#78"/><use xlink:href="#84"/><path d="M83.2 134.4h8.4v19.6H83.2z" fill="#fff" class="cursor-active"/></g><g transform="translate(60000,0)"><use xlink:href="#35"/><use xlink:href="#36"/><use xlink:href="#77"/><use xlink:href="#78"/><use xlink:href="#85"/><path d="M91.6 134.4h8.4v19.6H91.6z" fill="#fff" class="cursor-active"/></g><g transform="translate(60600,0)"><use xlink:href="#35"/><use xlink:href="#36"/><use xlink:href="#77"/><use xlink:href="#78"/><use xlink:href="#86"/><path d="M100 134.4h8.4v19.6H100z" fill="#fff" class="cursor-active"/></g><g transform="translate(61200,0)"><use xlink:href="#35"/><use xlink:href="#36"/><use xlink:href="#77"/><use xlink:href="#78"/><use xlink:href="#87"/><path d="M108.4 134.4h8.4v19.6H108.4z" fill="#fff" class="cursor-active"/></g><g transform="translate(61800,0)"><use xlink:href="#35"/><use xlink:href="#36"/><use xlink:href="#77"/><use xlink:href="#78"/><use xlink:href="#88"/><path d="M116.8 134.4h8.4v19.6H116.8z" fill="#fff" class="cursor-active"/></g><g transform="translate(62400,0)"><use xlink:href="#35"/><use xlink:href="#36"/><use xlink:href="#77"/><use xlink:href="#78"/><use xlink:href="#89"/><path d="M125.2 134.4h8.4v19.6H125.2z" fill="#fff" class="cursor-active"/></g><g transform="translate(63000,0)"><use xlink:href="#35"/><use xlink:href="#36"/><use xlink:href="#77"/><use xlink:href="#78"/><use xlink:href="#90"/><path d="M133.6 134.4h8.4v19.6H133.6z" fill="#fff" class="cursor-active"/></g><g transform="translate(63600,0)"><use xlink:href="#35"/><use xlink:href="#36"/><use xlink:href="#77"/><use xlink:href="#78"/><use xlink:href="#90"/><path d="M142 134.4h8.4v19.6H142z" fill="#fff" class="cursor-active"/></g><g transform="translate(64200,0)"><use xlink:href="#35"/><use xlink:href="#36"/><use xlink:href="#77"/><use xlink:href="#78"/><use xlink:href="#91"/><path d="M150.4 134.4h8.4v19.6H150.4z" fill="#fff" class="cursor-active"/></g><g transform="translate(64800,0)"><use xlink:href="#35"/><use xlink:href="#36"/><use xlink:href="#77"/><use xlink:href="#78"/><use xlink:href="#92"/><path d="M158.8 134.4h8.4v19.6H158.8z" fill="#fff" class="cursor-active"/></g><g transform="translate(65400,0)"><use xlink:href="#35"/><use xlink:href="#36"/><use xlink:href="#77"/><use xlink:href="#78"/><use xlink:href="#93"/><path d="M167.2 134.4h8.4v19.6H167.2z" fill="#fff" class="cursor-active"/></g><g transform="translate(66000,0)"><use xlink:href="#35"/><use xlink:href="#36"/><use xlink:href="#77"/><use xlink:href="#78"/><use xlink:href="#93"/><path d="M175.6 134.4h8.4v19.6H175.6z" fill="#fff" class="cursor-active"/></g><g transform="translate(66600,0)"><use xlink:href="#35"/><use xlink:href="#36"/><use xlink:href="#77"/><use xlink:href="#78"/><use xlink:href="#94"/><path d="M184 134.4h8.4v19.6H184z" fill="#fff" class="cursor-active"/></g><g transform="translate(67200,0)"><use xlink:href="#35"/><use xlink:href="#36"/><use xlink:href="#77"/><use xlink:href="#78"/><use xlink:href="#95"/><path d="M192.4 134.4h8.4v19.6H192.4z" fill="#fff" class="cursor-active"/></g><g transform="translate(67800,0)"><use xlink:href="#35"/><use xlink:href="#36"/><use xlink:href="#77"/><use xlink:href="#78"/><use xlink:href="#96"/><path d="M200.8 134.4h8.4v19.6H200.8z" fill="#fff" class="cursor-active"/></g><g transform="translate(68400,0)"><use xlink:href="#35"/><use xlink:href="#36"/><use xlink:href="#77"/><use xlink:href="#78"/><use xlink:href="#97"/><path d="M209.2 134.4h8.4v19.6H209.2z" fill="#fff" class="cursor-active"/></g><g transform="translate(69000,0)"><use xlink:href="#35"/><use xlink:href="#36"/><use xlink:href="#77"/><use xlink:href="#78"/><use xlink:href="#98"/><path d="M217.6 134.4h8.4v19.6H217.6z" fill="#fff" class="cursor-active"/></g><g transform="translate(69600,0)"><use xlink:href="#35"/><use xlink:href="#36"/><use xlink:href="#77"/><use xlink:href="#78"/><use xlink:href="#99"/><path d="M226 134.4h8.4v19.6H226z" fill="#fff" class="cursor-active"/></g><g transform="translate(70200,0)"><use xlink:href="#35"/><use xlink:href="#36"/><use xlink:href="#77"/><use xlink:href="#78"/><use xlink:href="#99"/><path d="M234.4 134.4h8.4v19.6H234.4z" fill="#fff" class="cursor-active"/></g><g transform="translate(70800,0)"><use xlink:href="#35"/><use xlink:href="#36"/><use xlink:href="#77"/><use xlink:href="#78"/><use xlink:href="#100"/><path d="M242.8 134.4h8.4v19.6H242.8z" fill="#fff" class="cursor-active"/></g><g transform="translate(71400,0)"><use xlink:href="#35"/><use xlink:href="#36"/><use xlink:href="#77"/><use xlink:href="#78"/><use xlink:href="#101"/><path d="M251.2 134.4h8.4v19.6H251.2z" fill="#fff" class="cursor-active"/></g><g transform="translate(72000,0)"><use xlink:href="#35"/><use xlink:href="#36"/><use xlink:href="#77"/><use xlink:href="#78"/><use xlink:href="#102"/><path d="M259.6 134.4h8.4v19.6H259.6z" fill="#fff" class="cursor-active"/></g><g transform="translate(72600,0)"><use xlink:href="#35"/><use xlink:href="#36"/><use xlink:href="#77"/><use xlink:href="#78"/><use xlink:href="#103"/><path d="M268 134.4h8.4v19.6H268z" fill="#fff" class="cursor-active"/></g><g transform="translate(73200,0)"><use xlink:href="#35"/><use xlink:href="#36"/><use xlink:href="#77"/><use xlink:href="#78"/><use xlink:href="#104"/><path d="M276.4 134.4h8.4v19.6H276.4z" fill="#fff" class="cursor-active"/></g><g transform="translate(73800,0)"><use xlink:href="#35"/><use xlink:href="#36"/><use xlink:href="#77"/><use xlink:href="#78"/><use xlink:href="#105"/><path d="M284.8 134.4h8.4v19.6H284.8z" fill="#fff" class="cursor-active"/></g><g transform="translate(74400,0)"><use xlink:href="#35"/><use xlink:href="#36"/><use xlink:href="#77"/><use xlink:href="#78"/><use xlink:href="#106"/><path d="M293.2 134.4h8.4v19.6H293.2z" fill="#fff" class="cursor-active"/></g><g transform="translate(75000,0)"><use xlink:href="#35"/><use xlink:href="#36"/><use xlink:href="#77"/><use xlink:href="#78"/><use xlink:href="#107"/><path d="M301.6 134.4h8.4v19.6H301.6z" fill="#fff" class="cursor-active"/></g><g transform="translate(75600,0)"><use xlink:href="#35"/><use xlink:href="#36"/><use xlink:href="#77"/><use xlink:href="#78"/><use xlink:href="#108"/><path d="M310 134.4h8.4v19.6H310z" fill="#fff" class="cursor-active"/></g><g transform="translate(76200,0)"><use xlink:href="#35"/><use xlink:href="#36"/><use xlink:href="#77"/><use xlink:href="#78"/><use xlink:href="#109"/><path d="M318.4 134.4h8.4v19.6H318.4z" fill="#fff" class="cursor-active"/></g><g transform="translate(76800,0)"><use xlink:href="#35"/><use xlink:href="#36"/><use xlink:href="#77"/><use xlink:href="#78"/><use xlink:href="#109"/><path d="M326.8 134.4h8.4v19.6H326.8z" fill="#fff" class="cursor-active"/></g><g transform="translate(77400,0)"><use xlink:href="#35"/><use xlink:href="#36"/><use xlink:href="#77"/><use xlink:href="#78"/><use xlink:href="#110"/><path d="M335.2 134.4h8.4v19.6H335.2z" fill="#fff" class="cursor-active"/></g><g transform="translate(78000,0)"><use xlink:href="#35"/><use xlink:href="#36"/><use xlink:href="#77"/><use xlink:href="#78"/><use xlink:href="#111"/><path d="M343.6 134.4h8.4v19.6H343.6z" fill="#fff" class="cursor-active"/></g><g transform="translate(78600,0)"><use xlink:href="#35"/><use xlink:href="#36"/><use xlink:href="#77"/><use xlink:href="#78"/><use xlink:href="#112"/><path d="M352 134.4h8.4v19.6H352z" fill="#fff" class="cursor-active"/></g><g transform="translate(79200,0)"><use xlink:href="#35"/><use xlink:href="#36"/><use xlink:href="#77"/><use xlink:href="#78"/><use xlink:href="#112"/><path d="M360.4 134.4h8.4v19.6H360.4z" fill="#fff" class="cursor-active"/></g><g transform="translate(79800,0)"><use xlink:href="#35"/><use xlink:href="#36"/><use xlink:href="#77"/><use xlink:href="#78"/><use xlink:href="#113"/><path d="M368.8 134.4h8.4v19.6H368.8z" fill="#fff" class="cursor-active"/></g><g transform="translate(80400,0)"><use xlink:href="#35"/><use xlink:href="#36"/><use xlink:href="#77"/><use xlink:href="#78"/><use xlink:href="#114"/><path d="M377.2 134.4h8.4v19.6H377.2z" fill="#fff" class="cursor-active"/></g><g transform="translate(81000,0)"><use xlink:href="#35"/><use xlink:href="#36"/><use xlink:href="#77"/><use xlink:href="#78"/><use xlink:href="#115"/><path d="M385.6 134.4h8.4v19.6H385.6z" fill="#fff" class="cursor-active"/></g><g transform="translate(81600,0)"><use xlink:href="#35"/><use xlink:href="#36"/><use xlink:href="#77"/><use xlink:href="#78"/><use xlink:href="#116"/><path d="M394 134.4h8.4v19.6H394z" fill="#fff" class="cursor-active"/></g><g transform="translate(82200,0)"><use xlink:href="#35"/><use xlink:href="#36"/><use xlink:href="#77"/><use xlink:href="#78"/><use xlink:href="#117"/><path d="M402.4 134.4h8.4v19.6H402.4z" fill="#fff" class="cursor-active"/></g><g transform="translate(82800,0)"><use xlink:href="#35"/><use xlink:href="#36"/><use xlink:href="#77"/><use xlink:href="#78"/><use xlink:href="#118"/><path d="M410.8 134.4h8.4v19.6H410.8z" fill="#fff" class="cursor-active"/></g><g transform="translate(83400,0)"><use xlink:href="#35"/><use xlink:href="#36"/><use xlink:href="#77"/><use xlink:href="#78"/><use xlink:href="#119"/><path d="M419.2 134.4h8.4v19.6H419.2z" fill="#fff" class="cursor-active"/></g><g transform="translate(84000,0)"><use xlink:href="#35"/><use xlink:href="#36"/><use xlink:href="#77"/><use xlink:href="#78"/><use xlink:href="#119"/><path d="M419.2 134.4h8.4v19.6H419.2z" fill="#fff" class="cursor"/></g></g></g></g></svg>