<svg xmlns="http://www.w3.org/2000/svg" xmlns:xlink="http://www.w3.org/1999/xlink" width="563" height="185" viewBox="0 0 563 185"><defs><symbol id="1"><text x="16" y="57.2" class="c">PS&gt;</text></symbol><symbol id="2"><text x="16" y="57.2" class="c">PS&gt;</text><text x="43" y="57.2" class="d"> G</text></symbol><symbol id="3"><text x="16" y="57.2" class="c">PS&gt;</text><text x="43" y="57.2" class="d"> Ge</text></symbol><symbol id="4"><text x="16" y="57.2" class="c">PS&gt;</text><text x="43" y="57.2" class="d"> Get</text></symbol><symbol id="5"><text x="16" y="57.2" class="c">PS&gt;</text><text x="43" y="57.2" class="d"> Get-</text></symbol><symbol id="6"><text x="16" y="57.2" class="c">PS&gt;</text><text x="43" y="57.2" class="d"> Get-C</text></symbol><symbol id="7"><text x="16" y="57.2" class="c">PS&gt;</text><text x="43" y="57.2" class="d"> Get-Ch</text></symbol><symbol id="8"><text x="16" y="57.2" class="c">PS&gt;</text><text x="43" y="57.2" class="d"> Get-Chi</text></symbol><symbol id="9"><text x="16" y="57.2" class="c">PS&gt;</text><text x="43" y="57.2" class="d"> Get-Chil</text></symbol><symbol id="10"><text x="16" y="57.2" class="c">PS&gt;</text><text x="43" y="57.2" class="d"> Get-Child</text></symbol><symbol id="11"><text x="16" y="57.2" class="c">PS&gt;</text><text x="43" y="57.2" class="d"> Get-ChildI</text></symbol><symbol id="12"><text x="16" y="57.2" class="c">PS&gt;</text><text x="43" y="57.2" class="d"> Get-ChildIt</text></symbol><symbol id="13"><text x="16" y="57.2" class="c">PS&gt;</text><text x="43" y="57.2" class="d"> Get-ChildIte</text></symbol><symbol id="14"><text x="16" y="57.2" class="c">PS&gt;</text><text x="43" y="57.2" class="d"> Get-ChildItem</text></symbol><symbol id="15"><text x="16" y="78.2" class="d">zsh:1: command not found: Get-ChildItem</text></symbol><symbol id="16"><text x="16" y="99.2" class="c">PS&gt;</text></symbol><symbol id="17"><text x="16" y="99.2" class="c">PS&gt;</text><text x="43" y="99.2" class="d"> W</text></symbol><symbol id="18"><text x="16" y="99.2" class="c">PS&gt;</text><text x="43" y="99.2" class="d"> Wr</text></symbol><symbol id="19"><text x="16" y="99.2" class="c">PS&gt;</text><text x="43" y="99.2" class="d"> Wri</text></symbol><symbol id="20"><text x="16" y="99.2" class="c">PS&gt;</text><text x="43" y="99.2" class="d"> Writ</text></symbol><symbol id="21"><text x="16" y="99.2" class="c">PS&gt;</text><text x="43" y="99.2" class="d"> Write</text></symbol><symbol id="22"><text x="16" y="99.2" class="c">PS&gt;</text><text x="43" y="99.2" class="d"> Write-</text></symbol><symbol id="23"><text x="16" y="99.2" class="c">PS&gt;</text><text x="43" y="99.2" class="d"> Write-H</text></symbol><symbol id="24"><text x="16" y="99.2" class="c">PS&gt;</text><text x="43" y="99.2" class="d"> Write-Ho</text></symbol><symbol id="25"><text x="16" y="99.2" class="c">PS&gt;</text><text x="43" y="99.2" class="d"> Write-Hos</text></symbol><symbol id="26"><text x="16" y="99.2" class="c">PS&gt;</text><text x="43" y="99.2" class="d"> Write-Host</text></symbol><symbol id="27"><text x="16" y="99.2" class="c">PS&gt;</text><text x="43" y="99.2" class="d"> Write-Host &apos;</text></symbol><symbol id="28"><text x="16" y="99.2" class="c">PS&gt;</text><text x="43" y="99.2" class="d"> Write-Host &apos;H</text></symbol><symbol id="29"><text x="16" y="99.2" class="c">PS&gt;</text><text x="43" y="99.2" class="d"> Write-Host &apos;He</text></symbol><symbol id="30"><text x="16" y="99.2" class="c">PS&gt;</text><text x="43" y="99.2" class="d"> Write-Host &apos;Hel</text></symbol><symbol id="31"><text x="16" y="99.2" class="c">PS&gt;</text><text x="43" y="99.2" class="d"> Write-Host &apos;Hell</text></symbol><symbol id="32"><text x="16" y="99.2" class="c">PS&gt;</text><text x="43" y="99.2" class="d"> Write-Host &apos;Hello</text></symbol><symbol id="33"><text x="16" y="99.2" class="c">PS&gt;</text><text x="43" y="99.2" class="d"> Write-Host &apos;Hello f</text></symbol><symbol id="34"><text x="16" y="99.2" class="c">PS&gt;</text><text x="43" y="99.2" class="d"> Write-Host &apos;Hello fr</text></symbol><symbol id="35"><text x="16" y="99.2" class="c">PS&gt;</text><text x="43" y="99.2" class="d"> Write-Host &apos;Hello fro</text></symbol><symbol id="36"><text x="16" y="99.2" class="c">PS&gt;</text><text x="43" y="99.2" class="d"> Write-Host &apos;Hello from</text></symbol><symbol id="37"><text x="16" y="99.2" class="c">PS&gt;</text><text x="43" y="99.2" class="d"> Write-Host &apos;Hello from W</text></symbol><symbol id="38"><text x="16" y="99.2" class="c">PS&gt;</text><text x="43" y="99.2" class="d"> Write-Host &apos;Hello from Wi</text></symbol><symbol id="39"><text x="16" y="99.2" class="c">PS&gt;</text><text x="43" y="99.2" class="d"> Write-Host &apos;Hello from Win</text></symbol><symbol id="40"><text x="16" y="99.2" class="c">PS&gt;</text><text x="43" y="99.2" class="d"> Write-Host &apos;Hello from Wind</text></symbol><symbol id="41"><text x="16" y="99.2" class="c">PS&gt;</text><text x="43" y="99.2" class="d"> Write-Host &apos;Hello from Windo</text></symbol><symbol id="42"><text x="16" y="99.2" class="c">PS&gt;</text><text x="43" y="99.2" class="d"> Write-Host &apos;Hello from Window</text></symbol><symbol id="43"><text x="16" y="99.2" class="c">PS&gt;</text><text x="43" y="99.2" class="d"> Write-Host &apos;Hello from Windows</text></symbol><symbol id="44"><text x="16" y="99.2" class="c">PS&gt;</text><text x="43" y="99.2" class="d"> Write-Host &apos;Hello from Windows!</text></symbol><symbol id="45"><text x="16" y="99.2" class="c">PS&gt;</text><text x="43" y="99.2" class="d"> Write-Host &apos;Hello from Windows!&apos;</text></symbol><symbol id="46"><text x="16" y="99.2" class="c">PS&gt;</text><text x="43" y="99.2" class="d"> Write-Host &apos;Hello from Windows!&apos; -</text></symbol><symbol id="47"><text x="16" y="99.2" class="c">PS&gt;</text><text x="43" y="99.2" class="d"> Write-Host &apos;Hello from Windows!&apos; -F</text></symbol><symbol id="48"><text x="16" y="99.2" class="c">PS&gt;</text><text x="43" y="99.2" class="d"> Write-Host &apos;Hello from Windows!&apos; -Fo</text></symbol><symbol id="49"><text x="16" y="99.2" class="c">PS&gt;</text><text x="43" y="99.2" class="d"> Write-Host &apos;Hello from Windows!&apos; -For</text></symbol><symbol id="50"><text x="16" y="99.2" class="c">PS&gt;</text><text x="43" y="99.2" class="d"> Write-Host &apos;Hello from Windows!&apos; -Fore</text></symbol><symbol id="51"><text x="16" y="99.2" class="c">PS&gt;</text><text x="43" y="99.2" class="d"> Write-Host &apos;Hello from Windows!&apos; -Foreg</text></symbol><symbol id="52"><text x="16" y="99.2" class="c">PS&gt;</text><text x="43" y="99.2" class="d"> Write-Host &apos;Hello from Windows!&apos; -Foregr</text></symbol><symbol id="53"><text x="16" y="99.2" class="c">PS&gt;</text><text x="43" y="99.2" class="d"> Write-Host &apos;Hello from Windows!&apos; -Foregro</text></symbol><symbol id="54"><text x="16" y="99.2" class="c">PS&gt;</text><text x="43" y="99.2" class="d"> Write-Host &apos;Hello from Windows!&apos; -Foregrou</text></symbol><symbol id="55"><text x="16" y="99.2" class="c">PS&gt;</text><text x="43" y="99.2" class="d"> Write-Host &apos;Hello from Windows!&apos; -Foregroun</text></symbol><symbol id="56"><text x="16" y="99.2" class="c">PS&gt;</text><text x="43" y="99.2" class="d"> Write-Host &apos;Hello from Windows!&apos; -Foreground</text></symbol><symbol id="57"><text x="16" y="99.2" class="c">PS&gt;</text><text x="43" y="99.2" class="d"> Write-Host &apos;Hello from Windows!&apos; -ForegroundC</text></symbol><symbol id="58"><text x="16" y="99.2" class="c">PS&gt;</text><text x="43" y="99.2" class="d"> Write-Host &apos;Hello from Windows!&apos; -ForegroundCo</text></symbol><symbol id="59"><text x="16" y="99.2" class="c">PS&gt;</text><text x="43" y="99.2" class="d"> Write-Host &apos;Hello from Windows!&apos; -ForegroundCol</text></symbol><symbol id="60"><text x="16" y="99.2" class="c">PS&gt;</text><text x="43" y="99.2" class="d"> Write-Host &apos;Hello from Windows!&apos; -ForegroundColo</text></symbol><symbol id="61"><text x="16" y="99.2" class="c">PS&gt;</text><text x="43" y="99.2" class="d"> Write-Host &apos;Hello from Windows!&apos; -ForegroundColor</text></symbol><symbol id="62"><text x="16" y="99.2" class="c">PS&gt;</text><text x="43" y="99.2" class="d"> Write-Host &apos;Hello from Windows!&apos; -ForegroundColor C</text></symbol><symbol id="63"><text x="16" y="99.2" class="c">PS&gt;</text><text x="43" y="99.2" class="d"> Write-Host &apos;Hello from Windows!&apos; -ForegroundColor Cy</text></symbol><symbol id="64"><text x="16" y="99.2" class="c">PS&gt;</text><text x="43" y="99.2" class="d"> Write-Host &apos;Hello from Windows!&apos; -ForegroundColor Cya</text></symbol><symbol id="65"><text x="16" y="99.2" class="c">PS&gt;</text><text x="43" y="99.2" class="d"> Write-Host &apos;Hello from Windows!&apos; -ForegroundColor Cyan</text></symbol><symbol id="66"><text x="16" y="120.2" class="d">zsh:1: command not found: Write-Host</text></symbol><symbol id="67"><text x="16" y="141.2" class="c">PS&gt;</text></symbol></defs><style>@keyframes f{0.08%{transform:translateX(0px)}0.63%{transform:translateX(-563px)}1.16%{transform:translateX(-1126px)}1.67%{transform:translateX(-1689px)}2.20%{transform:translateX(-2252px)}2.73%{transform:translateX(-2815px)}3.26%{transform:translateX(-3378px)}3.80%{transform:translateX(-3941px)}4.32%{transform:translateX(-4504px)}4.85%{transform:translateX(-5067px)}5.37%{transform:translateX(-5630px)}5.90%{transform:translateX(-6193px)}6.44%{transform:translateX(-6756px)}6.96%{transform:translateX(-7319px)}6.97%{transform:translateX(-7882px)}12.13%{transform:translateX(-8445px)}12.30%{transform:translateX(-9008px)}13.51%{transform:translateX(-9571px)}24.38%{transform:translateX(-10134px)}24.89%{transform:translateX(-10697px)}25.43%{transform:translateX(-11260px)}25.96%{transform:translateX(-11823px)}26.48%{transform:translateX(-12386px)}27.00%{transform:translateX(-12949px)}27.52%{transform:translateX(-13512px)}28.06%{transform:translateX(-14075px)}28.60%{transform:translateX(-14638px)}29.14%{transform:translateX(-15201px)}29.66%{transform:translateX(-15764px)}30.19%{transform:translateX(-16327px)}30.73%{transform:translateX(-16890px)}31.24%{transform:translateX(-17453px)}31.76%{transform:translateX(-18016px)}32.28%{transform:translateX(-18579px)}32.81%{transform:translateX(-19142px)}33.32%{transform:translateX(-19705px)}33.86%{transform:translateX(-20268px)}34.37%{transform:translateX(-20831px)}34.89%{transform:translateX(-21394px)}35.40%{transform:translateX(-21957px)}35.91%{transform:translateX(-22520px)}36.44%{transform:translateX(-23083px)}36.96%{transform:translateX(-23646px)}37.47%{transform:translateX(-24209px)}38.01%{transform:translateX(-24772px)}38.57%{transform:translateX(-25335px)}39.08%{transform:translateX(-25898px)}39.60%{transform:translateX(-26461px)}40.14%{transform:translateX(-27024px)}40.68%{transform:translateX(-27587px)}41.20%{transform:translateX(-28150px)}41.74%{transform:translateX(-28713px)}42.25%{transform:translateX(-29276px)}42.76%{transform:translateX(-29839px)}43.31%{transform:translateX(-30402px)}43.85%{transform:translateX(-30965px)}44.39%{transform:translateX(-31528px)}44.92%{transform:translateX(-32091px)}45.41%{transform:translateX(-32654px)}45.96%{transform:translateX(-33217px)}46.47%{transform:translateX(-33780px)}47.04%{transform:translateX(-34343px)}47.58%{transform:translateX(-34906px)}48.12%{transform:translateX(-35469px)}48.66%{transform:translateX(-36032px)}49.19%{transform:translateX(-36595px)}49.70%{transform:translateX(-37158px)}50.26%{transform:translateX(-37721px)}50.81%{transform:translateX(-38284px)}51.33%{transform:translateX(-38847px)}51.85%{transform:translateX(-39410px)}52.40%{transform:translateX(-39973px)}52.41%{transform:translateX(-40536px)}57.72%{transform:translateX(-41099px)}57.74%{transform:translateX(-41662px)}58.99%{transform:translateX(-42225px)}}.a{fill:#1e1e1e}.c{fill:#3fb950;stroke:#3fb950}.d{fill:#c9d1d9;stroke:#c9d1d9}path[fill="none"]{fill:none}path[shape-rendering="crispEdges"]{stroke:none}text{font-family:'SF Mono',Monaco,Consolas,Menlo,monospace;font-size:15px;dominant-baseline:text-before-edge;white-space:pre}text[class]{stroke:none}.bold{font-weight:700}.italic{font-style:italic}.uline{text-decoration:underline}.strike{text-decoration:line-through}.dim{opacity:0.5}@keyframes blink{0%,50%{opacity:1}50.01%,100%{opacity:0}}.cursor{animation:blink 1s step-end infinite;mix-blend-mode:difference}.cursor-active{opacity:1;mix-blend-mode:difference}</style><g transform="translate(0,0)"><rect width="563" height="185" rx="8" fill="#1e1e1e"/><rect width="563" height="40" rx="8" fill="#1e1e1e"/><path d="M0 32h563v8H0z" fill="#1e1e1e"/><text x="281.5" y="20" text-anchor="middle" dominant-baseline="middle" fill="#c9d1d9" font-size="15">PowerShell</text><clipPath id="content-clip"><path d="M0 40h563v145H0z" /></clipPath><g clip-path="url(#content-clip)"><g style="animation:f 9.802s steps(1,end) infinite"><g transform="translate(0,0)"><use xlink:href="#1"/><path d="M52 56h9v21H52z" fill="#fff" class="cursor"/></g><g transform="translate(563,0)"><use xlink:href="#2"/><path d="M61 56h9v21H61z" fill="#fff" class="cursor-active"/></g><g transform="translate(1126,0)"><use xlink:href="#3"/><path d="M70 56h9v21H70z" fill="#fff" class="cursor-active"/></g><g transform="translate(1689,0)"><use xlink:href="#4"/><path d="M79 56h9v21H79z" fill="#fff" class="cursor-active"/></g><g transform="translate(2252,0)"><use xlink:href="#5"/><path d="M88 56h9v21H88z" fill="#fff" class="cursor-active"/></g><g transform="translate(2815,0)"><use xlink:href="#6"/><path d="M97 56h9v21H97z" fill="#fff" class="cursor-active"/></g><g transform="translate(3378,0)"><use xlink:href="#7"/><path d="M106 56h9v21H106z" fill="#fff" class="cursor-active"/></g><g transform="translate(3941,0)"><use xlink:href="#8"/><path d="M115 56h9v21H115z" fill="#fff" class="cursor-active"/></g><g transform="translate(4504,0)"><use xlink:href="#9"/><path d="M124 56h9v21H124z" fill="#fff" class="cursor-active"/></g><g transform="translate(5067,0)"><use xlink:href="#10"/><path d="M133 56h9v21H133z" fill="#fff" class="cursor-active"/></g><g transform="translate(5630,0)"><use xlink:href="#11"/><path d="M142 56h9v21H142z" fill="#fff" class="cursor-active"/></g><g transform="translate(6193,0)"><use xlink:href="#12"/><path d="M151 56h9v21H151z" fill="#fff" class="cursor-active"/></g><g transform="translate(6756,0)"><use xlink:href="#13"/><path d="M160 56h9v21H160z" fill="#fff" class="cursor-active"/></g><g transform="translate(7319,0)"><use xlink:href="#14"/><path d="M169 56h9v21H169z" fill="#fff" class="cursor-active"/></g><g transform="translate(7882,0)"><use xlink:href="#14"/><path d="M169 56h9v21H169z" fill="#fff" class="cursor"/></g><g transform="translate(8445,0)"><use xlink:href="#14"/></g><g transform="translate(9008,0)"><use xlink:href="#14"/><use xlink:href="#15"/></g><g transform="translate(9571,0)"><use xlink:href="#14"/><use xlink:href="#15"/><use xlink:href="#16"/><path d="M52 98h9v21H52z" fill="#fff" class="cursor"/></g><g transform="translate(10134,0)"><use xlink:href="#14"/><use xlink:href="#15"/><use xlink:href="#17"/><path d="M61 98h9v21H61z" fill="#fff" class="cursor-active"/></g><g transform="translate(10697,0)"><use xlink:href="#14"/><use xlink:href="#15"/><use xlink:href="#18"/><path d="M70 98h9v21H70z" fill="#fff" class="cursor-active"/></g><g transform="translate(11260,0)"><use xlink:href="#14"/><use xlink:href="#15"/><use xlink:href="#19"/><path d="M79 98h9v21H79z" fill="#fff" class="cursor-active"/></g><g transform="translate(11823,0)"><use xlink:href="#14"/><use xlink:href="#15"/><use xlink:href="#20"/><path d="M88 98h9v21H88z" fill="#fff" class="cursor-active"/></g><g transform="translate(12386,0)"><use xlink:href="#14"/><use xlink:href="#15"/><use xlink:href="#21"/><path d="M97 98h9v21H97z" fill="#fff" class="cursor-active"/></g><g transform="translate(12949,0)"><use xlink:href="#14"/><use xlink:href="#15"/><use xlink:href="#22"/><path d="M106 98h9v21H106z" fill="#fff" class="cursor-active"/></g><g transform="translate(13512,0)"><use xlink:href="#14"/><use xlink:href="#15"/><use xlink:href="#23"/><path d="M115 98h9v21H115z" fill="#fff" class="cursor-active"/></g><g transform="translate(14075,0)"><use xlink:href="#14"/><use xlink:href="#15"/><use xlink:href="#24"/><path d="M124 98h9v21H124z" fill="#fff" class="cursor-active"/></g><g transform="translate(14638,0)"><use xlink:href="#14"/><use xlink:href="#15"/><use xlink:href="#25"/><path d="M133 98h9v21H133z" fill="#fff" class="cursor-active"/></g><g transform="translate(15201,0)"><use xlink:href="#14"/><use xlink:href="#15"/><use xlink:href="#26"/><path d="M142 98h9v21H142z" fill="#fff" class="cursor-active"/></g><g transform="translate(15764,0)"><use xlink:href="#14"/><use xlink:href="#15"/><use xlink:href="#26"/><path d="M151 98h9v21H151z" fill="#fff" class="cursor-active"/></g><g transform="translate(16327,0)"><use xlink:href="#14"/><use xlink:href="#15"/><use xlink:href="#27"/><path d="M160 98h9v21H160z" fill="#fff" class="cursor-active"/></g><g transform="translate(16890,0)"><use xlink:href="#14"/><use xlink:href="#15"/><use xlink:href="#28"/><path d="M169 98h9v21H169z" fill="#fff" class="cursor-active"/></g><g transform="translate(17453,0)"><use xlink:href="#14"/><use xlink:href="#15"/><use xlink:href="#29"/><path d="M178 98h9v21H178z" fill="#fff" class="cursor-active"/></g><g transform="translate(18016,0)"><use xlink:href="#14"/><use xlink:href="#15"/><use xlink:href="#30"/><path d="M187 98h9v21H187z" fill="#fff" class="cursor-active"/></g><g transform="translate(18579,0)"><use xlink:href="#14"/><use xlink:href="#15"/><use xlink:href="#31"/><path d="M196 98h9v21H196z" fill="#fff" class="cursor-active"/></g><g transform="translate(19142,0)"><use xlink:href="#14"/><use xlink:href="#15"/><use xlink:href="#32"/><path d="M205 98h9v21H205z" fill="#fff" class="cursor-active"/></g><g transform="translate(19705,0)"><use xlink:href="#14"/><use xlink:href="#15"/><use xlink:href="#32"/><path d="M214 98h9v21H214z" fill="#fff" class="cursor-active"/></g><g transform="translate(20268,0)"><use xlink:href="#14"/><use xlink:href="#15"/><use xlink:href="#33"/><path d="M223 98h9v21H223z" fill="#fff" class="cursor-active"/></g><g transform="translate(20831,0)"><use xlink:href="#14"/><use xlink:href="#15"/><use xlink:href="#34"/><path d="M232 98h9v21H232z" fill="#fff" class="cursor-active"/></g><g transform="translate(21394,0)"><use xlink:href="#14"/><use xlink:href="#15"/><use xlink:href="#35"/><path d="M241 98h9v21H241z" fill="#fff" class="cursor-active"/></g><g transform="translate(21957,0)"><use xlink:href="#14"/><use xlink:href="#15"/><use xlink:href="#36"/><path d="M250 98h9v21H250z" fill="#fff" class="cursor-active"/></g><g transform="translate(22520,0)"><use xlink:href="#14"/><use xlink:href="#15"/><use xlink:href="#36"/><path d="M259 98h9v21H259z" fill="#fff" class="cursor-active"/></g><g transform="translate(23083,0)"><use xlink:href="#14"/><use xlink:href="#15"/><use xlink:href="#37"/><path d="M268 98h9v21H268z" fill="#fff" class="cursor-active"/></g><g transform="translate(23646,0)"><use xlink:href="#14"/><use xlink:href="#15"/><use xlink:href="#38"/><path d="M277 98h9v21H277z" fill="#fff" class="cursor-active"/></g><g transform="translate(24209,0)"><use xlink:href="#14"/><use xlink:href="#15"/><use xlink:href="#39"/><path d="M286 98h9v21H286z" fill="#fff" class="cursor-active"/></g><g transform="translate(24772,0)"><use xlink:href="#14"/><use xlink:href="#15"/><use xlink:href="#40"/><path d="M295 98h9v21H295z" fill="#fff" class="cursor-active"/></g><g transform="translate(25335,0)"><use xlink:href="#14"/><use xlink:href="#15"/><use xlink:href="#41"/><path d="M304 98h9v21H304z" fill="#fff" class="cursor-active"/></g><g transform="translate(25898,0)"><use xlink:href="#14"/><use xlink:href="#15"/><use xlink:href="#42"/><path d="M313 98h9v21H313z" fill="#fff" class="cursor-active"/></g><g transform="translate(26461,0)"><use xlink:href="#14"/><use xlink:href="#15"/><use xlink:href="#43"/><path d="M322 98h9v21H322z" fill="#fff" class="cursor-active"/></g><g transform="translate(27024,0)"><use xlink:href="#14"/><use xlink:href="#15"/><use xlink:href="#44"/><path d="M331 98h9v21H331z" fill="#fff" class="cursor-active"/></g><g transform="translate(27587,0)"><use xlink:href="#14"/><use xlink:href="#15"/><use xlink:href="#45"/><path d="M340 98h9v21H340z" fill="#fff" class="cursor-active"/></g><g transform="translate(28150,0)"><use xlink:href="#14"/><use xlink:href="#15"/><use xlink:href="#45"/><path d="M349 98h9v21H349z" fill="#fff" class="cursor-active"/></g><g transform="translate(28713,0)"><use xlink:href="#14"/><use xlink:href="#15"/><use xlink:href="#46"/><path d="M358 98h9v21H358z" fill="#fff" class="cursor-active"/></g><g transform="translate(29276,0)"><use xlink:href="#14"/><use xlink:href="#15"/><use xlink:href="#47"/><path d="M367 98h9v21H367z" fill="#fff" class="cursor-active"/></g><g transform="translate(29839,0)"><use xlink:href="#14"/><use xlink:href="#15"/><use xlink:href="#48"/><path d="M376 98h9v21H376z" fill="#fff" class="cursor-active"/></g><g transform="translate(30402,0)"><use xlink:href="#14"/><use xlink:href="#15"/><use xlink:href="#49"/><path d="M385 98h9v21H385z" fill="#fff" class="cursor-active"/></g><g transform="translate(30965,0)"><use xlink:href="#14"/><use xlink:href="#15"/><use xlink:href="#50"/><path d="M394 98h9v21H394z" fill="#fff" class="cursor-active"/></g><g transform="translate(31528,0)"><use xlink:href="#14"/><use xlink:href="#15"/><use xlink:href="#51"/><path d="M403 98h9v21H403z" fill="#fff" class="cursor-active"/></g><g transform="translate(32091,0)"><use xlink:href="#14"/><use xlink:href="#15"/><use xlink:href="#52"/><path d="M412 98h9v21H412z" fill="#fff" class="cursor-active"/></g><g transform="translate(32654,0)"><use xlink:href="#14"/><use xlink:href="#15"/><use xlink:href="#53"/><path d="M421 98h9v21H421z" fill="#fff" class="cursor-active"/></g><g transform="translate(33217,0)"><use xlink:href="#14"/><use xlink:href="#15"/><use xlink:href="#54"/><path d="M430 98h9v21H430z" fill="#fff" class="cursor-active"/></g><g transform="translate(33780,0)"><use xlink:href="#14"/><use xlink:href="#15"/><use xlink:href="#55"/><path d="M439 98h9v21H439z" fill="#fff" class="cursor-active"/></g><g transform="translate(34343,0)"><use xlink:href="#14"/><use xlink:href="#15"/><use xlink:href="#56"/><path d="M448 98h9v21H448z" fill="#fff" class="cursor-active"/></g><g transform="translate(34906,0)"><use xlink:href="#14"/><use xlink:href="#15"/><use xlink:href="#57"/><path d="M457 98h9v21H457z" fill="#fff" class="cursor-active"/></g><g transform="translate(35469,0)"><use xlink:href="#14"/><use xlink:href="#15"/><use xlink:href="#58"/><path d="M466 98h9v21H466z" fill="#fff" class="cursor-active"/></g><g transform="translate(36032,0)"><use xlink:href="#14"/><use xlink:href="#15"/><use xlink:href="#59"/><path d="M475 98h9v21H475z" fill="#fff" class="cursor-active"/></g><g transform="translate(36595,0)"><use xlink:href="#14"/><use xlink:href="#15"/><use xlink:href="#60"/><path d="M484 98h9v21H484z" fill="#fff" class="cursor-active"/></g><g transform="translate(37158,0)"><use xlink:href="#14"/><use xlink:href="#15"/><use xlink:href="#61"/><path d="M493 98h9v21H493z" fill="#fff" class="cursor-active"/></g><g transform="translate(37721,0)"><use xlink:href="#14"/><use xlink:href="#15"/><use xlink:href="#61"/><path d="M502 98h9v21H502z" fill="#fff" class="cursor-active"/></g><g transform="translate(38284,0)"><use xlink:href="#14"/><use xlink:href="#15"/><use xlink:href="#62"/><path d="M511 98h9v21H511z" fill="#fff" class="cursor-active"/></g><g transform="translate(38847,0)"><use xlink:href="#14"/><use xlink:href="#15"/><use xlink:href="#63"/><path d="M520 98h9v21H520z" fill="#fff" class="cursor-active"/></g><g transform="translate(39410,0)"><use xlink:href="#14"/><use xlink:href="#15"/><use xlink:href="#64"/><path d="M529 98h9v21H529z" fill="#fff" class="cursor-active"/></g><g transform="translate(39973,0)"><use xlink:href="#14"/><use xlink:href="#15"/><use xlink:href="#65"/><path d="M538 98h9v21H538z" fill="#fff" class="cursor-active"/></g><g transform="translate(40536,0)"><use xlink:href="#14"/><use xlink:href="#15"/><use xlink:href="#65"/><path d="M538 98h9v21H538z" fill="#fff" class="cursor"/></g><g transform="translate(41099,0)"><use xlink:href="#14"/><use xlink:href="#15"/><use xlink:href="#65"/></g><g transform="translate(41662,0)"><use xlink:href="#14"/><use xlink:href="#15"/><use xlink:href="#65"/><use xlink:href="#66"/></g><g transform="translate(42225,0)"><use xlink:href="#14"/><use xlink:href="#15"/><use xlink:href="#65"/><use xlink:href="#66"/><use xlink:href="#67"/><path d="M52 140h9v21H52z" fill="#fff" class="cursor"/></g></g></g></g></svg>