<svg xmlns="http://www.w3.org/2000/svg" xmlns:xlink="http://www.w3.org/1999/xlink" width="364" height="105" viewBox="0 0 364 105"><defs><symbol id="1"><text x="16" y="19.7" class="c">❯</text></symbol><symbol id="2"><text x="16" y="19.7" class="c">❯ </text><text x="71.2" y="19.7" class="d">a</text></symbol><symbol id="3"><text x="16" y="19.7" class="c">❯ </text><text x="71.2" y="19.7" class="d">aa</text></symbol><symbol id="4"><text x="16" y="19.7" class="c">❯ </text><text x="71.2" y="19.7" class="d">aaa</text></symbol><symbol id="5"><text x="16" y="19.7" class="c">❯ </text><text x="71.2" y="19.7" class="d">aaaa</text></symbol><symbol id="6"><text x="16" y="19.7" class="c">❯ </text><text x="71.2" y="19.7" class="d">aaaaA</text></symbol><symbol id="7"><text x="16" y="19.7" class="c">❯ </text><text x="71.2" y="19.7" class="d">aaaaAA</text></symbol><symbol id="8"><text x="16" y="19.7" class="c">❯ </text><text x="71.2" y="19.7" class="d">aaaaAAA</text></symbol><symbol id="9"><text x="16" y="19.7" class="c">❯ </text><text x="71.2" y="19.7" class="d">aaaaAAAA</text></symbol><symbol id="10"><text x="16" y="19.7" class="c">❯ </text><text x="71.2" y="19.7" class="d">aaaaAAAAA</text></symbol></defs><style>@keyframes f{0.10%{transform:translateX(0px)}0.78%{transform:translateX(-364px)}1.44%{transform:translateX(-728px)}2.08%{transform:translateX(-1092px)}2.74%{transform:translateX(-1456px)}3.42%{transform:translateX(-1820px)}4.06%{transform:translateX(-2184px)}4.75%{transform:translateX(-2548px)}5.41%{transform:translateX(-2912px)}6.07%{transform:translateX(-3276px)}6.72%{transform:translateX(-3640px)}7.38%{transform:translateX(-4004px)}8.05%{transform:translateX(-4368px)}8.71%{transform:translateX(-4732px)}9.38%{transform:translateX(-5096px)}9.40%{transform:translateX(-5460px)}}.a{fill:#1e1e1e}.c{fill:#d2a8ff;stroke:#d2a8ff}.d{fill:#c9d1d9;stroke:#c9d1d9}path[fill="none"]{fill:none}path[shape-rendering="crispEdges"]{stroke:none}text{font-family:'SF Mono',Monaco,Consolas,Menlo,monospace;font-size:46px;dominant-baseline:text-before-edge;white-space:pre}text[class]{stroke:none}.bold{font-weight:700}.italic{font-style:italic}.uline{text-decoration:underline}.strike{text-decoration:line-through}.dim{opacity:0.5}.cursor,.cursor-active{mix-blend-mode:difference}</style><g transform="translate(0,0)"><rect width="364" height="105" rx="8" fill="#1e1e1e"/><clipPath id="content-clip"><path d="M0 0h364v105H0z" /></clipPath><g clip-path="url(#content-clip)"><g style="animation:f 7.727s steps(1,end) infinite"><g transform="translate(0,0)"><use xlink:href="#1"/><path d="M71.2 16h27.6v64.4H71.2z" fill="#fff" class="cursor"/></g><g transform="translate(364,0)"><use xlink:href="#2"/><path d="M98.8 16h27.6v64.4H98.8z" fill="#fff" class="cursor-active"/></g><g transform="translate(728,0)"><use xlink:href="#3"/><path d="M126.4 16h27.6v64.4H126.4z" fill="#fff" class="cursor-active"/></g><g transform="translate(1092,0)"><use xlink:href="#4"/><path d="M154 16h27.6v64.4H154z" fill="#fff" class="cursor-active"/></g><g transform="translate(1456,0)"><use xlink:href="#5"/><path d="M181.6 16h27.6v64.4H181.6z" fill="#fff" class="cursor-active"/></g><g transform="translate(1820,0)"><use xlink:href="#6"/><path d="M209.2 16h27.6v64.4H209.2z" fill="#fff" class="cursor-active"/></g><g transform="translate(2184,0)"><use xlink:href="#7"/><path d="M236.8 16h27.6v64.4H236.8z" fill="#fff" class="cursor-active"/></g><g transform="translate(2548,0)"><use xlink:href="#8"/><path d="M264.4 16h27.6v64.4H264.4z" fill="#fff" class="cursor-active"/></g><g transform="translate(2912,0)"><use xlink:href="#9"/><path d="M292 16h27.6v64.4H292z" fill="#fff" class="cursor-active"/></g><g transform="translate(3276,0)"><use xlink:href="#10"/><path d="M319.6 16h27.6v64.4H319.6z" fill="#fff" class="cursor-active"/></g><g transform="translate(3640,0)"><use xlink:href="#10"/><path d="M292 16h27.6v64.4H292z" fill="#fff" class="cursor-active"/></g><g transform="translate(4004,0)"><use xlink:href="#10"/><path d="M264.4 16h27.6v64.4H264.4z" fill="#fff" class="cursor-active"/></g><g transform="translate(4368,0)"><use xlink:href="#10"/><path d="M236.8 16h27.6v64.4H236.8z" fill="#fff" class="cursor-active"/></g><g transform="translate(4732,0)"><use xlink:href="#10"/><path d="M209.2 16h27.6v64.4H209.2z" fill="#fff" class="cursor-active"/></g><g transform="translate(5096,0)"><use xlink:href="#10"/><path d="M181.6 16h27.6v64.4H181.6z" fill="#fff" class="cursor-active"/></g><g transform="translate(5460,0)"><use xlink:href="#10"/><path d="M181.6 16h27.6v64.4H181.6z" fill="#fff" class="cursor"/></g></g></g></g></svg>