<svg xmlns="http://www.w3.org/2000/svg" xmlns:xlink="http://www.w3.org/1999/xlink" width="529" height="105" viewBox="0 0 529 105"><defs><symbol id="1"><text x="16" y="16" class="c">&gt;</text></symbol><symbol id="2"><text x="16" y="16" class="c">&gt;</text><text x="43.6" y="16" class="d"> W                        </text></symbol><symbol id="3"><text x="16" y="16" class="c">&gt;</text><text x="43.6" y="16" class="d"> We                       </text></symbol><symbol id="4"><text x="16" y="16" class="c">&gt;</text><text x="43.6" y="16" class="d"> Wel                      </text></symbol><symbol id="5"><text x="16" y="16" class="c">&gt;</text><text x="43.6" y="16" class="d"> Welc                     </text></symbol><symbol id="6"><text x="16" y="16" class="c">&gt;</text><text x="43.6" y="16" class="d"> Welco                    </text></symbol><symbol id="7"><text x="16" y="16" class="c">&gt;</text><text x="43.6" y="16" class="d"> Welcom                   </text></symbol><symbol id="8"><text x="16" y="16" class="c">&gt;</text><text x="43.6" y="16" class="d"> Welcome                  </text></symbol><symbol id="9"><text x="16" y="16" class="c">&gt;</text><text x="43.6" y="16" class="d"> Welcome t                </text></symbol><symbol id="10"><text x="16" y="16" class="c">&gt;</text><text x="43.6" y="16" class="d"> Welcome to               </text></symbol><symbol id="11"><text x="16" y="16" class="c">&gt;</text><text x="43.6" y="16" class="d"> Welcome to D             </text></symbol><symbol id="12"><text x="16" y="16" class="c">&gt;</text><text x="43.6" y="16" class="d"> Welcome to DV            </text></symbol><symbol id="13"><text x="16" y="16" class="c">&gt;</text><text x="43.6" y="16" class="d"> Welcome to DVD           </text></symbol><symbol id="14"><text x="16" y="16" class="c">&gt;</text><text x="43.6" y="16" class="d"> Welcome to DVD!          </text></symbol></defs><style>@keyframes f{0.09%{transform:translateX(0px)}0.65%{transform:translateX(-529px)}1.19%{transform:translateX(-1058px)}1.73%{transform:translateX(-1587px)}2.30%{transform:translateX(-2116px)}2.86%{transform:translateX(-2645px)}3.42%{transform:translateX(-3174px)}3.99%{transform:translateX(-3703px)}4.54%{transform:translateX(-4232px)}5.08%{transform:translateX(-4761px)}5.64%{transform:translateX(-5290px)}6.19%{transform:translateX(-5819px)}6.72%{transform:translateX(-6348px)}7.28%{transform:translateX(-6877px)}7.82%{transform:translateX(-7406px)}8.38%{transform:translateX(-7935px)}83.84%{transform:translateX(-7935px)}100%{transform:translateX(-7935px)}}@keyframes fade{0%{opacity:1}83.84%{opacity:1}100.00%{opacity:0}100%{opacity:0}}.a{fill:#22212c}.c{fill:#80ffea}.d{fill:#f8f8f2}text{font-family:'SF Mono',Monaco,Consolas,Menlo,monospace;font-size:46px;dominant-baseline:text-before-edge;white-space:pre}</style><g transform="translate(0,0)"><rect width="529" height="105" rx="0" fill="#22212c"/><clipPath id="content-clip"><path d="M0 0h529v105H0z" /></clipPath><g clip-path="url(#content-clip)"><g style="animation:f 9.280s steps(1,end) infinite,fade 9.280s ease infinite"><g transform="translate(0,0)"><use xlink:href="#1"/><path d="M71.2 16h27.6v64.4H71.2z" fill="#f8f8f2"/></g><g transform="translate(529,0)"><use xlink:href="#2"/><path d="M98.8 16h27.6v64.4H98.8z" fill="#f8f8f2"/></g><g transform="translate(1058,0)"><use xlink:href="#3"/><path d="M126.4 16h27.6v64.4H126.4z" fill="#f8f8f2"/></g><g transform="translate(1587,0)"><use xlink:href="#4"/><path d="M154 16h27.6v64.4H154z" fill="#f8f8f2"/></g><g transform="translate(2116,0)"><use xlink:href="#5"/><path d="M181.6 16h27.6v64.4H181.6z" fill="#f8f8f2"/></g><g transform="translate(2645,0)"><use xlink:href="#6"/><path d="M209.2 16h27.6v64.4H209.2z" fill="#f8f8f2"/></g><g transform="translate(3174,0)"><use xlink:href="#7"/><path d="M236.8 16h27.6v64.4H236.8z" fill="#f8f8f2"/></g><g transform="translate(3703,0)"><use xlink:href="#8"/><path d="M264.4 16h27.6v64.4H264.4z" fill="#f8f8f2"/></g><g transform="translate(4232,0)"><use xlink:href="#8"/><path d="M292 16h27.6v64.4H292z" fill="#f8f8f2"/></g><g transform="translate(4761,0)"><use xlink:href="#9"/><path d="M319.6 16h27.6v64.4H319.6z" fill="#f8f8f2"/></g><g transform="translate(5290,0)"><use xlink:href="#10"/><path d="M347.2 16h27.6v64.4H347.2z" fill="#f8f8f2"/></g><g transform="translate(5819,0)"><use xlink:href="#10"/><path d="M374.8 16h27.6v64.4H374.8z" fill="#f8f8f2"/></g><g transform="translate(6348,0)"><use xlink:href="#11"/><path d="M402.4 16h27.6v64.4H402.4z" fill="#f8f8f2"/></g><g transform="translate(6877,0)"><use xlink:href="#12"/><path d="M430 16h27.6v64.4H430z" fill="#f8f8f2"/></g><g transform="translate(7406,0)"><use xlink:href="#13"/><path d="M457.6 16h27.6v64.4H457.6z" fill="#f8f8f2"/></g><g transform="translate(7935,0)"><use xlink:href="#14"/><path d="M485.2 16h27.6v64.4H485.2z" fill="#f8f8f2"/></g></g></g></g></svg>