<svg xmlns="http://www.w3.org/2000/svg" xmlns:xlink="http://www.w3.org/1999/xlink" width="234" height="152" viewBox="0 0 234 152"><defs><symbol id="1"><text x="16" y="17.3" class="c">❯</text></symbol><symbol id="2"><text x="16" y="17.3" class="c">❯ </text><text x="35.2" y="17.3" class="d">e</text></symbol><symbol id="3"><text x="16" y="17.3" class="c">❯ </text><text x="35.2" y="17.3" class="d">ec</text></symbol><symbol id="4"><text x="16" y="17.3" class="c">❯ </text><text x="35.2" y="17.3" class="d">ech</text></symbol><symbol id="5"><text x="16" y="17.3" class="c">❯ </text><text x="35.2" y="17.3" class="d">echo</text></symbol><symbol id="6"><text x="16" y="17.3" class="c">❯ </text><text x="35.2" y="17.3" class="d">echo &apos;</text></symbol><symbol id="7"><text x="16" y="17.3" class="c">❯ </text><text x="35.2" y="17.3" class="d">echo &apos;🚀</text></symbol><symbol id="8"><text x="16" y="17.3" class="c">❯ </text><text x="35.2" y="17.3" class="d">echo &apos;🚀❤️</text></symbol><symbol id="9"><text x="16" y="17.3" class="c">❯ </text><text x="35.2" y="17.3" class="d">echo &apos;🚀❤️😎</text></symbol><symbol id="10"><text x="16" y="17.3" class="c">❯ </text><text x="35.2" y="17.3" class="d">echo &apos;🚀❤️😎🙈</text></symbol><symbol id="11"><text x="16" y="17.3" class="c">❯ </text><text x="35.2" y="17.3" class="d">echo &apos;🚀❤️😎🙈✌🏼</text></symbol><symbol id="12"><text x="16" y="17.3" class="c">❯ </text><text x="35.2" y="17.3" class="d">echo &apos;🚀❤️😎🙈✌🏼&apos;</text></symbol><symbol id="13"><text x="16" y="39.7" class="d">🚀❤️😎🙈✌🏼</text></symbol><symbol id="14"><text x="16" y="39.7" class="d">🚀 ❤️ 😎 🙈 ✌🏼</text></symbol><symbol id="15"><text x="16" y="62.1" class="c">❯</text></symbol><symbol id="16"><text x="16" y="62.1" class="c">❯ </text><text x="35.2" y="62.1" class="d">e</text></symbol><symbol id="17"><text x="16" y="62.1" class="c">❯ </text><text x="35.2" y="62.1" class="d">ec</text></symbol><symbol id="18"><text x="16" y="62.1" class="c">❯ </text><text x="35.2" y="62.1" class="d">ech</text></symbol><symbol id="19"><text x="16" y="62.1" class="c">❯ </text><text x="35.2" y="62.1" class="d">echo</text></symbol><symbol id="20"><text x="16" y="62.1" class="c">❯ </text><text x="35.2" y="62.1" class="d">echo &apos;</text></symbol><symbol id="21"><text x="16" y="62.1" class="c">❯ </text><text x="35.2" y="62.1" class="d">echo &apos;🐢</text></symbol><symbol id="22"><text x="16" y="62.1" class="c">❯ </text><text x="35.2" y="62.1" class="d">echo &apos;🐢✅</text></symbol><symbol id="23"><text x="16" y="62.1" class="c">❯ </text><text x="35.2" y="62.1" class="d">echo &apos;🐢✅🎉</text></symbol><symbol id="24"><text x="16" y="62.1" class="c">❯ </text><text x="35.2" y="62.1" class="d">echo &apos;🐢✅🎉👌🏾</text></symbol><symbol id="25"><text x="16" y="62.1" class="c">❯ </text><text x="35.2" y="62.1" class="d">echo &apos;🐢✅🎉👌🏾💜</text></symbol><symbol id="26"><text x="16" y="62.1" class="c">❯ </text><text x="35.2" y="62.1" class="d">echo &apos;🐢✅🎉👌🏾💜&apos;</text></symbol><symbol id="27"><text x="16" y="84.5" class="d">🐢✅🎉👌🏾💜</text></symbol><symbol id="28"><text x="16" y="84.5" class="d">🐢 ✅ 🎉 👌🏾 💜</text></symbol><symbol id="29"><text x="16" y="106.9" class="c">❯</text></symbol></defs><style>@keyframes f{0.13%{transform:translateX(0px)}1.40%{transform:translateX(-234px)}2.68%{transform:translateX(-468px)}3.95%{transform:translateX(-702px)}5.22%{transform:translateX(-936px)}6.49%{transform:translateX(-1170px)}7.76%{transform:translateX(-1404px)}9.03%{transform:translateX(-1638px)}10.30%{transform:translateX(-1872px)}11.57%{transform:translateX(-2106px)}12.84%{transform:translateX(-2340px)}14.11%{transform:translateX(-2574px)}15.38%{transform:translateX(-2808px)}15.40%{transform:translateX(-3042px)}24.87%{transform:translateX(-3276px)}24.91%{transform:translateX(-3510px)}26.53%{transform:translateX(-3744px)}27.78%{transform:translateX(-3978px)}29.05%{transform:translateX(-4212px)}30.31%{transform:translateX(-4446px)}31.59%{transform:translateX(-4680px)}32.88%{transform:translateX(-4914px)}34.12%{transform:translateX(-5148px)}35.39%{transform:translateX(-5382px)}36.66%{transform:translateX(-5616px)}37.93%{transform:translateX(-5850px)}39.20%{transform:translateX(-6084px)}40.47%{transform:translateX(-6318px)}41.74%{transform:translateX(-6552px)}41.75%{transform:translateX(-6786px)}51.18%{transform:translateX(-7020px)}51.25%{transform:translateX(-7254px)}52.90%{transform:translateX(-7488px)}}.a{fill:#1e1e1e}.c{fill:#d2a8ff;stroke:#d2a8ff}.d{fill:#c9d1d9;stroke:#c9d1d9}path[fill="none"]{fill:none}path[shape-rendering="crispEdges"]{stroke:none}text{font-family:'SF Mono',Monaco,Consolas,Menlo,monospace;font-size:16px;dominant-baseline:text-before-edge;white-space:pre}text[class]{stroke:none}.bold{font-weight:700}.italic{font-style:italic}.uline{text-decoration:underline}.strike{text-decoration:line-through}.dim{opacity:0.5}@keyframes blink{0%,50%{opacity:1}50.01%,100%{opacity:0}}.cursor{animation:blink 1s step-end infinite;mix-blend-mode:difference}.cursor-active{opacity:1;mix-blend-mode:difference}</style><g transform="translate(0,0)"><rect width="234" height="152" rx="8" fill="#1e1e1e"/><clipPath id="content-clip"><path d="M0 0h234v152H0z" /></clipPath><g clip-path="url(#content-clip)"><g style="animation:f 6.378s steps(1,end) infinite"><g transform="translate(0,0)"><use xlink:href="#1"/><path d="M35.2 16h9.6v22.4H35.2z" fill="#fff" class="cursor"/></g><g transform="translate(234,0)"><use xlink:href="#2"/><path d="M44.8 16h9.6v22.4H44.8z" fill="#fff" class="cursor-active"/></g><g transform="translate(468,0)"><use xlink:href="#3"/><path d="M54.4 16h9.6v22.4H54.4z" fill="#fff" class="cursor-active"/></g><g transform="translate(702,0)"><use xlink:href="#4"/><path d="M64 16h9.6v22.4H64z" fill="#fff" class="cursor-active"/></g><g transform="translate(936,0)"><use xlink:href="#5"/><path d="M73.6 16h9.6v22.4H73.6z" fill="#fff" class="cursor-active"/></g><g transform="translate(1170,0)"><use xlink:href="#5"/><path d="M83.2 16h9.6v22.4H83.2z" fill="#fff" class="cursor-active"/></g><g transform="translate(1404,0)"><use xlink:href="#6"/><path d="M92.8 16h9.6v22.4H92.8z" fill="#fff" class="cursor-active"/></g><g transform="translate(1638,0)"><use xlink:href="#7"/><path d="M112 16h9.6v22.4H112z" fill="#fff" class="cursor-active"/></g><g transform="translate(1872,0)"><use xlink:href="#8"/><path d="M131.2 16h9.6v22.4H131.2z" fill="#fff" class="cursor-active"/></g><g transform="translate(2106,0)"><use xlink:href="#9"/><path d="M150.4 16h9.6v22.4H150.4z" fill="#fff" class="cursor-active"/></g><g transform="translate(2340,0)"><use xlink:href="#10"/><path d="M169.6 16h9.6v22.4H169.6z" fill="#fff" class="cursor-active"/></g><g transform="translate(2574,0)"><use xlink:href="#11"/><path d="M188.8 16h9.6v22.4H188.8z" fill="#fff" class="cursor-active"/></g><g transform="translate(2808,0)"><use xlink:href="#12"/><path d="M198.4 16h9.6v22.4H198.4z" fill="#fff" class="cursor-active"/></g><g transform="translate(3042,0)"><use xlink:href="#12"/><path d="M198.4 16h9.6v22.4H198.4z" fill="#fff" class="cursor"/></g><g transform="translate(3276,0)"><use xlink:href="#12"/></g><g transform="translate(3510,0)"><use xlink:href="#12"/><use xlink:href="#13"/></g><g transform="translate(3744,0)"><use xlink:href="#12"/><use xlink:href="#14"/><use xlink:href="#15"/><path d="M35.2 60.8h9.6v22.4H35.2z" fill="#fff" class="cursor"/></g><g transform="translate(3978,0)"><use xlink:href="#12"/><use xlink:href="#14"/><use xlink:href="#16"/><path d="M44.8 60.8h9.6v22.4H44.8z" fill="#fff" class="cursor-active"/></g><g transform="translate(4212,0)"><use xlink:href="#12"/><use xlink:href="#14"/><use xlink:href="#17"/><path d="M54.4 60.8h9.6v22.4H54.4z" fill="#fff" class="cursor-active"/></g><g transform="translate(4446,0)"><use xlink:href="#12"/><use xlink:href="#14"/><use xlink:href="#18"/><path d="M64 60.8h9.6v22.4H64z" fill="#fff" class="cursor-active"/></g><g transform="translate(4680,0)"><use xlink:href="#12"/><use xlink:href="#14"/><use xlink:href="#19"/><path d="M73.6 60.8h9.6v22.4H73.6z" fill="#fff" class="cursor-active"/></g><g transform="translate(4914,0)"><use xlink:href="#12"/><use xlink:href="#14"/><use xlink:href="#19"/><path d="M83.2 60.8h9.6v22.4H83.2z" fill="#fff" class="cursor-active"/></g><g transform="translate(5148,0)"><use xlink:href="#12"/><use xlink:href="#14"/><use xlink:href="#20"/><path d="M92.8 60.8h9.6v22.4H92.8z" fill="#fff" class="cursor-active"/></g><g transform="translate(5382,0)"><use xlink:href="#12"/><use xlink:href="#14"/><use xlink:href="#21"/><path d="M112 60.8h9.6v22.4H112z" fill="#fff" class="cursor-active"/></g><g transform="translate(5616,0)"><use xlink:href="#12"/><use xlink:href="#14"/><use xlink:href="#22"/><path d="M131.2 60.8h9.6v22.4H131.2z" fill="#fff" class="cursor-active"/></g><g transform="translate(5850,0)"><use xlink:href="#12"/><use xlink:href="#14"/><use xlink:href="#23"/><path d="M150.4 60.8h9.6v22.4H150.4z" fill="#fff" class="cursor-active"/></g><g transform="translate(6084,0)"><use xlink:href="#12"/><use xlink:href="#14"/><use xlink:href="#24"/><path d="M169.6 60.8h9.6v22.4H169.6z" fill="#fff" class="cursor-active"/></g><g transform="translate(6318,0)"><use xlink:href="#12"/><use xlink:href="#14"/><use xlink:href="#25"/><path d="M188.8 60.8h9.6v22.4H188.8z" fill="#fff" class="cursor-active"/></g><g transform="translate(6552,0)"><use xlink:href="#12"/><use xlink:href="#14"/><use xlink:href="#26"/><path d="M198.4 60.8h9.6v22.4H198.4z" fill="#fff" class="cursor-active"/></g><g transform="translate(6786,0)"><use xlink:href="#12"/><use xlink:href="#14"/><use xlink:href="#26"/><path d="M198.4 60.8h9.6v22.4H198.4z" fill="#fff" class="cursor"/></g><g transform="translate(7020,0)"><use xlink:href="#12"/><use xlink:href="#14"/><use xlink:href="#26"/></g><g transform="translate(7254,0)"><use xlink:href="#12"/><use xlink:href="#14"/><use xlink:href="#26"/><use xlink:href="#27"/></g><g transform="translate(7488,0)"><use xlink:href="#12"/><use xlink:href="#14"/><use xlink:href="#26"/><use xlink:href="#28"/><use xlink:href="#29"/><path d="M35.2 105.6h9.6v22.4H35.2z" fill="#fff" class="cursor"/></g></g></g></g></svg>