<svg xmlns="http://www.w3.org/2000/svg" xmlns:xlink="http://www.w3.org/1999/xlink" width="578" height="257" viewBox="0 0 578 257"><defs><symbol id="1"><text x="16" y="57.1" class="c">❯</text></symbol><symbol id="2"><text x="16" y="57.1" class="c">❯ </text><text x="32.8" y="57.1" class="d">e</text></symbol><symbol id="3"><text x="16" y="57.1" class="c">❯ </text><text x="32.8" y="57.1" class="d">ec</text></symbol><symbol id="4"><text x="16" y="57.1" class="c">❯ </text><text x="32.8" y="57.1" class="d">ech</text></symbol><symbol id="5"><text x="16" y="57.1" class="c">❯ </text><text x="32.8" y="57.1" class="d">echo</text></symbol><symbol id="6"><text x="16" y="57.1" class="c">❯ </text><text x="32.8" y="57.1" class="d">echo &apos;</text></symbol><symbol id="7"><text x="16" y="57.1" class="c">❯ </text><text x="32.8" y="57.1" class="d">echo &apos;D</text></symbol><symbol id="8"><text x="16" y="57.1" class="c">❯ </text><text x="32.8" y="57.1" class="d">echo &apos;DV</text></symbol><symbol id="9"><text x="16" y="57.1" class="c">❯ </text><text x="32.8" y="57.1" class="d">echo &apos;DVD</text></symbol><symbol id="10"><text x="16" y="57.1" class="c">❯ </text><text x="32.8" y="57.1" class="d">echo &apos;DVD r</text></symbol><symbol id="11"><text x="16" y="57.1" class="c">❯ </text><text x="32.8" y="57.1" class="d">echo &apos;DVD re</text></symbol><symbol id="12"><text x="16" y="57.1" class="c">❯ </text><text x="32.8" y="57.1" class="d">echo &apos;DVD ren</text></symbol><symbol id="13"><text x="16" y="57.1" class="c">❯ </text><text x="32.8" y="57.1" class="d">echo &apos;DVD rend</text></symbol><symbol id="14"><text x="16" y="57.1" class="c">❯ </text><text x="32.8" y="57.1" class="d">echo &apos;DVD rende</text></symbol><symbol id="15"><text x="16" y="57.1" class="c">❯ </text><text x="32.8" y="57.1" class="d">echo &apos;DVD render</text></symbol><symbol id="16"><text x="16" y="57.1" class="c">❯ </text><text x="32.8" y="57.1" class="d">echo &apos;DVD renders</text></symbol><symbol id="17"><text x="16" y="57.1" class="c">❯ </text><text x="32.8" y="57.1" class="d">echo &apos;DVD renders b</text></symbol><symbol id="18"><text x="16" y="57.1" class="c">❯ </text><text x="32.8" y="57.1" class="d">echo &apos;DVD renders be</text></symbol><symbol id="19"><text x="16" y="57.1" class="c">❯ </text><text x="32.8" y="57.1" class="d">echo &apos;DVD renders bea</text></symbol><symbol id="20"><text x="16" y="57.1" class="c">❯ </text><text x="32.8" y="57.1" class="d">echo &apos;DVD renders beau</text></symbol><symbol id="21"><text x="16" y="57.1" class="c">❯ </text><text x="32.8" y="57.1" class="d">echo &apos;DVD renders beaut</text></symbol><symbol id="22"><text x="16" y="57.1" class="c">❯ </text><text x="32.8" y="57.1" class="d">echo &apos;DVD renders beauti</text></symbol><symbol id="23"><text x="16" y="57.1" class="c">❯ </text><text x="32.8" y="57.1" class="d">echo &apos;DVD renders beautif</text></symbol><symbol id="24"><text x="16" y="57.1" class="c">❯ </text><text x="32.8" y="57.1" class="d">echo &apos;DVD renders beautifu</text></symbol><symbol id="25"><text x="16" y="57.1" class="c">❯ </text><text x="32.8" y="57.1" class="d">echo &apos;DVD renders beautiful</text></symbol><symbol id="26"><text x="16" y="57.1" class="c">❯ </text><text x="32.8" y="57.1" class="d">echo &apos;DVD renders beautiful t</text></symbol><symbol id="27"><text x="16" y="57.1" class="c">❯ </text><text x="32.8" y="57.1" class="d">echo &apos;DVD renders beautiful te</text></symbol><symbol id="28"><text x="16" y="57.1" class="c">❯ </text><text x="32.8" y="57.1" class="d">echo &apos;DVD renders beautiful ter</text></symbol><symbol id="29"><text x="16" y="57.1" class="c">❯ </text><text x="32.8" y="57.1" class="d">echo &apos;DVD renders beautiful term</text></symbol><symbol id="30"><text x="16" y="57.1" class="c">❯ </text><text x="32.8" y="57.1" class="d">echo &apos;DVD renders beautiful termi</text></symbol><symbol id="31"><text x="16" y="57.1" class="c">❯ </text><text x="32.8" y="57.1" class="d">echo &apos;DVD renders beautiful termin</text></symbol><symbol id="32"><text x="16" y="57.1" class="c">❯ </text><text x="32.8" y="57.1" class="d">echo &apos;DVD renders beautiful termina</text></symbol><symbol id="33"><text x="16" y="57.1" class="c">❯ </text><text x="32.8" y="57.1" class="d">echo &apos;DVD renders beautiful terminal</text></symbol><symbol id="34"><text x="16" y="57.1" class="c">❯ </text><text x="32.8" y="57.1" class="d">echo &apos;DVD renders beautiful terminal a</text></symbol><symbol id="35"><text x="16" y="57.1" class="c">❯ </text><text x="32.8" y="57.1" class="d">echo &apos;DVD renders beautiful terminal an</text></symbol><symbol id="36"><text x="16" y="57.1" class="c">❯ </text><text x="32.8" y="57.1" class="d">echo &apos;DVD renders beautiful terminal ani</text></symbol><symbol id="37"><text x="16" y="57.1" class="c">❯ </text><text x="32.8" y="57.1" class="d">echo &apos;DVD renders beautiful terminal anim</text></symbol><symbol id="38"><text x="16" y="57.1" class="c">❯ </text><text x="32.8" y="57.1" class="d">echo &apos;DVD renders beautiful terminal anima</text></symbol><symbol id="39"><text x="16" y="57.1" class="c">❯ </text><text x="32.8" y="57.1" class="d">echo &apos;DVD renders beautiful terminal animat</text></symbol><symbol id="40"><text x="16" y="57.1" class="c">❯ </text><text x="32.8" y="57.1" class="d">echo &apos;DVD renders beautiful terminal animati</text></symbol><symbol id="41"><text x="16" y="57.1" class="c">❯ </text><text x="32.8" y="57.1" class="d">echo &apos;DVD renders beautiful terminal animatio</text></symbol><symbol id="42"><text x="16" y="57.1" class="c">❯ </text><text x="32.8" y="57.1" class="d">echo &apos;DVD renders beautiful terminal animation</text></symbol><symbol id="43"><text x="16" y="57.1" class="c">❯ </text><text x="32.8" y="57.1" class="d">echo &apos;DVD renders beautiful terminal animations</text></symbol><symbol id="44"><text x="16" y="57.1" class="c">❯ </text><text x="32.8" y="57.1" class="d">echo &apos;DVD renders beautiful terminal animations!</text></symbol><symbol id="45"><text x="16" y="57.1" class="c">❯ </text><text x="32.8" y="57.1" class="d">echo &apos;DVD renders beautiful terminal animations!&apos;</text></symbol><symbol id="46"><text x="16" y="57.1" class="c">❯ </text><text x="32.8" y="57.1" class="d">echo &apos;DVD renders beautiful terminal animations!&apos; |</text></symbol><symbol id="47"><text x="16" y="57.1" class="c">❯ </text><text x="32.8" y="57.1" class="d">echo &apos;DVD renders beautiful terminal animations!&apos; | l</text></symbol><symbol id="48"><text x="16" y="57.1" class="c">❯ </text><text x="32.8" y="57.1" class="d">echo &apos;DVD renders beautiful terminal animations!&apos; | lo</text></symbol><symbol id="49"><text x="16" y="57.1" class="c">❯ </text><text x="32.8" y="57.1" class="d">echo &apos;DVD renders beautiful terminal animations!&apos; | lol</text></symbol><symbol id="50"><text x="16" y="57.1" class="c">❯ </text><text x="32.8" y="57.1" class="d">echo &apos;DVD renders beautiful terminal animations!&apos; | lolc</text></symbol><symbol id="51"><text x="16" y="57.1" class="c">❯ </text><text x="32.8" y="57.1" class="d">echo &apos;DVD renders beautiful terminal animations!&apos; | lolca</text></symbol><symbol id="52"><text x="16" y="57.1" class="c">❯ </text><text x="32.8" y="57.1" class="d">echo &apos;DVD renders beautiful terminal animations!&apos; | lolcat</text></symbol><symbol id="53"><text x="16" y="57.1" class="c">❯ </text><text x="32.8" y="57.1" class="d">echo &apos;DVD renders beautiful terminal animations!&apos; | lolcat -</text></symbol><symbol id="54"><text x="16" y="57.1" class="c">❯ </text><text x="32.8" y="57.1" class="d">echo &apos;DVD renders beautiful terminal animations!&apos; | lolcat -f</text></symbol><symbol id="55"><text x="16" y="57.1" class="c">❯ </text><text x="32.8" y="57.1" class="d">echo &apos;DVD renders beautiful terminal animations!&apos; | lolcat -fa</text></symbol><symbol id="56"><text x="16" y="76.7" class="e">DVD rend</text><text x="83.2" y="76.7" class="f">e</text><text x="91.6" y="76.7" class="g">rs beautifu</text><text x="184" y="76.7" class="h">l</text><text x="192.4" y="76.7" class="i"> terminal</text><text x="268" y="76.7" class="j"> animatio</text><text x="343.6" y="76.7" class="k">n</text><text x="352" y="76.7" class="l">s!</text></symbol><symbol id="57"><text x="16" y="76.7" class="g">DVD renders</text><text x="108.4" y="76.7" class="h"> </text><text x="116.8" y="76.7" class="i">beautiful</text><text x="192.4" y="76.7" class="j"> terminal</text><text x="268" y="76.7" class="k"> </text><text x="276.4" y="76.7" class="l">animations!</text></symbol><symbol id="58"><text x="16" y="76.7" class="g">DV</text><text x="32.8" y="76.7" class="h">D</text><text x="41.2" y="76.7" class="i"> renders </text><text x="116.8" y="76.7" class="j">beautiful</text><text x="192.4" y="76.7" class="k"> </text><text x="200.8" y="76.7" class="l">terminal an</text><text x="293.2" y="76.7" class="m">i</text><text x="301.6" y="76.7" class="n">mations!</text></symbol><symbol id="59"><text x="16" y="76.7" class="i">DVD</text><text x="41.2" y="76.7" class="j"> renders </text><text x="116.8" y="76.7" class="k">b</text><text x="125.2" y="76.7" class="l">eautiful te</text><text x="217.6" y="76.7" class="m">r</text><text x="226" y="76.7" class="n">minal ani</text><text x="301.6" y="76.7" class="o">mations!</text></symbol><symbol id="60"><text x="16" y="76.7" class="j">DVD</text><text x="41.2" y="76.7" class="k"> </text><text x="49.6" y="76.7" class="l">renders bea</text><text x="142" y="76.7" class="m">u</text><text x="150.4" y="76.7" class="n">tiful ter</text><text x="226" y="76.7" class="o">minal anim</text><text x="310" y="76.7" class="p">a</text><text x="318.4" y="76.7" class="q">tions!</text></symbol><symbol id="61"><text x="16" y="76.7" class="l">DVD re</text><text x="66.4" y="76.7" class="m">n</text><text x="74.8" y="76.7" class="n">ders beau</text><text x="150.4" y="76.7" class="o">tiful term</text><text x="234.4" y="76.7" class="p">i</text><text x="242.8" y="76.7" class="q">nal animati</text><text x="335.2" y="76.7" class="r">o</text><text x="343.6" y="76.7" class="s">ns!</text></symbol><symbol id="62"><text x="16" y="76.7" class="n">DVD ren</text><text x="74.8" y="76.7" class="o">ders beaut</text><text x="158.8" y="76.7" class="p">i</text><text x="167.2" y="76.7" class="q">ful termina</text><text x="259.6" y="76.7" class="r">l</text><text x="268" y="76.7" class="s"> animatio</text><text x="343.6" y="76.7" class="t">ns!</text></symbol><symbol id="63"><text x="16" y="76.7" class="o">DVD rend</text><text x="83.2" y="76.7" class="p">e</text><text x="91.6" y="76.7" class="q">rs beautifu</text><text x="184" y="76.7" class="r">l</text><text x="192.4" y="76.7" class="s"> terminal</text><text x="268" y="76.7" class="t"> animatio</text><text x="343.6" y="76.7" class="u">n</text><text x="352" y="76.7" class="v">s!</text></symbol><symbol id="64"><text x="16" y="76.7" class="q">DVD renders</text><text x="108.4" y="76.7" class="r"> </text><text x="116.8" y="76.7" class="s">beautiful</text><text x="192.4" y="76.7" class="t"> terminal</text><text x="268" y="76.7" class="u"> </text><text x="276.4" y="76.7" class="v">animations!</text></symbol><symbol id="65"><text x="16" y="76.7" class="q">DV</text><text x="32.8" y="76.7" class="r">D</text><text x="41.2" y="76.7" class="s"> renders </text><text x="116.8" y="76.7" class="t">beautiful</text><text x="192.4" y="76.7" class="u"> </text><text x="200.8" y="76.7" class="v">terminal an</text><text x="293.2" y="76.7" class="w">i</text><text x="301.6" y="76.7" class="x">mations!</text></symbol><symbol id="66"><text x="16" y="76.7" class="s">DVD</text><text x="41.2" y="76.7" class="t"> renders </text><text x="116.8" y="76.7" class="u">b</text><text x="125.2" y="76.7" class="v">eautiful te</text><text x="217.6" y="76.7" class="w">r</text><text x="226" y="76.7" class="x">minal ani</text><text x="301.6" y="76.7" class="y">mations!</text></symbol><symbol id="67"><text x="16" y="76.7" class="t">DVD</text><text x="41.2" y="76.7" class="u"> </text><text x="49.6" y="76.7" class="v">renders bea</text><text x="142" y="76.7" class="w">u</text><text x="150.4" y="76.7" class="x">tiful ter</text><text x="226" y="76.7" class="y">minal ani</text><text x="301.6" y="76.7" class="z">ma</text><text x="318.4" y="76.7" class="A">tions!</text></symbol><symbol id="68"><text x="16" y="96.3" class="c">❯</text></symbol><symbol id="69"><text x="16" y="96.3" class="c">❯ </text><text x="32.8" y="96.3" class="d">e</text></symbol><symbol id="70"><text x="16" y="96.3" class="c">❯ </text><text x="32.8" y="96.3" class="d">ec</text></symbol><symbol id="71"><text x="16" y="96.3" class="c">❯ </text><text x="32.8" y="96.3" class="d">ech</text></symbol><symbol id="72"><text x="16" y="96.3" class="c">❯ </text><text x="32.8" y="96.3" class="d">echo</text></symbol><symbol id="73"><text x="16" y="96.3" class="c">❯ </text><text x="32.8" y="96.3" class="d">echo -</text></symbol><symbol id="74"><text x="16" y="96.3" class="c">❯ </text><text x="32.8" y="96.3" class="d">echo -e</text></symbol><symbol id="75"><text x="16" y="96.3" class="c">❯ </text><text x="32.8" y="96.3" class="d">echo -e &apos;</text></symbol><symbol id="76"><text x="16" y="96.3" class="c">❯ </text><text x="32.8" y="96.3" class="d">echo -e &apos;L</text></symbol><symbol id="77"><text x="16" y="96.3" class="c">❯ </text><text x="32.8" y="96.3" class="d">echo -e &apos;Li</text></symbol><symbol id="78"><text x="16" y="96.3" class="c">❯ </text><text x="32.8" y="96.3" class="d">echo -e &apos;Lin</text></symbol><symbol id="79"><text x="16" y="96.3" class="c">❯ </text><text x="32.8" y="96.3" class="d">echo -e &apos;Line</text></symbol><symbol id="80"><text x="16" y="96.3" class="c">❯ </text><text x="32.8" y="96.3" class="d">echo -e &apos;Line 1</text></symbol><symbol id="81"><text x="16" y="96.3" class="c">❯ </text><text x="32.8" y="96.3" class="d">echo -e &apos;Line 1\</text></symbol><symbol id="82"><text x="16" y="96.3" class="c">❯ </text><text x="32.8" y="96.3" class="d">echo -e &apos;Line 1\n</text></symbol><symbol id="83"><text x="16" y="96.3" class="c">❯ </text><text x="32.8" y="96.3" class="d">echo -e &apos;Line 1\nL</text></symbol><symbol id="84"><text x="16" y="96.3" class="c">❯ </text><text x="32.8" y="96.3" class="d">echo -e &apos;Line 1\nLi</text></symbol><symbol id="85"><text x="16" y="96.3" class="c">❯ </text><text x="32.8" y="96.3" class="d">echo -e &apos;Line 1\nLin</text></symbol><symbol id="86"><text x="16" y="96.3" class="c">❯ </text><text x="32.8" y="96.3" class="d">echo -e &apos;Line 1\nLine</text></symbol><symbol id="87"><text x="16" y="96.3" class="c">❯ </text><text x="32.8" y="96.3" class="d">echo -e &apos;Line 1\nLine 2</text></symbol><symbol id="88"><text x="16" y="96.3" class="c">❯ </text><text x="32.8" y="96.3" class="d">echo -e &apos;Line 1\nLine 2\</text></symbol><symbol id="89"><text x="16" y="96.3" class="c">❯ </text><text x="32.8" y="96.3" class="d">echo -e &apos;Line 1\nLine 2\n</text></symbol><symbol id="90"><text x="16" y="96.3" class="c">❯ </text><text x="32.8" y="96.3" class="d">echo -e &apos;Line 1\nLine 2\nL</text></symbol><symbol id="91"><text x="16" y="96.3" class="c">❯ </text><text x="32.8" y="96.3" class="d">echo -e &apos;Line 1\nLine 2\nLi</text></symbol><symbol id="92"><text x="16" y="96.3" class="c">❯ </text><text x="32.8" y="96.3" class="d">echo -e &apos;Line 1\nLine 2\nLin</text></symbol><symbol id="93"><text x="16" y="96.3" class="c">❯ </text><text x="32.8" y="96.3" class="d">echo -e &apos;Line 1\nLine 2\nLine</text></symbol><symbol id="94"><text x="16" y="96.3" class="c">❯ </text><text x="32.8" y="96.3" class="d">echo -e &apos;Line 1\nLine 2\nLine 3</text></symbol><symbol id="95"><text x="16" y="96.3" class="c">❯ </text><text x="32.8" y="96.3" class="d">echo -e &apos;Line 1\nLine 2\nLine 3\</text></symbol><symbol id="96"><text x="16" y="96.3" class="c">❯ </text><text x="32.8" y="96.3" class="d">echo -e &apos;Line 1\nLine 2\nLine 3\n</text></symbol><symbol id="97"><text x="16" y="96.3" class="c">❯ </text><text x="32.8" y="96.3" class="d">echo -e &apos;Line 1\nLine 2\nLine 3\nL</text></symbol><symbol id="98"><text x="16" y="96.3" class="c">❯ </text><text x="32.8" y="96.3" class="d">echo -e &apos;Line 1\nLine 2\nLine 3\nLi</text></symbol><symbol id="99"><text x="16" y="96.3" class="c">❯ </text><text x="32.8" y="96.3" class="d">echo -e &apos;Line 1\nLine 2\nLine 3\nLin</text></symbol><symbol id="100"><text x="16" y="96.3" class="c">❯ </text><text x="32.8" y="96.3" class="d">echo -e &apos;Line 1\nLine 2\nLine 3\nLine</text></symbol><symbol id="101"><text x="16" y="96.3" class="c">❯ </text><text x="32.8" y="96.3" class="d">echo -e &apos;Line 1\nLine 2\nLine 3\nLine 4</text></symbol><symbol id="102"><text x="16" y="96.3" class="c">❯ </text><text x="32.8" y="96.3" class="d">echo -e &apos;Line 1\nLine 2\nLine 3\nLine 4\</text></symbol><symbol id="103"><text x="16" y="96.3" class="c">❯ </text><text x="32.8" y="96.3" class="d">echo -e &apos;Line 1\nLine 2\nLine 3\nLine 4\n</text></symbol><symbol id="104"><text x="16" y="96.3" class="c">❯ </text><text x="32.8" y="96.3" class="d">echo -e &apos;Line 1\nLine 2\nLine 3\nLine 4\nL</text></symbol><symbol id="105"><text x="16" y="96.3" class="c">❯ </text><text x="32.8" y="96.3" class="d">echo -e &apos;Line 1\nLine 2\nLine 3\nLine 4\nLi</text></symbol><symbol id="106"><text x="16" y="96.3" class="c">❯ </text><text x="32.8" y="96.3" class="d">echo -e &apos;Line 1\nLine 2\nLine 3\nLine 4\nLin</text></symbol><symbol id="107"><text x="16" y="96.3" class="c">❯ </text><text x="32.8" y="96.3" class="d">echo -e &apos;Line 1\nLine 2\nLine 3\nLine 4\nLine</text></symbol><symbol id="108"><text x="16" y="96.3" class="c">❯ </text><text x="32.8" y="96.3" class="d">echo -e &apos;Line 1\nLine 2\nLine 3\nLine 4\nLine 5</text></symbol><symbol id="109"><text x="16" y="96.3" class="c">❯ </text><text x="32.8" y="96.3" class="d">echo -e &apos;Line 1\nLine 2\nLine 3\nLine 4\nLine 5&apos;</text></symbol><symbol id="110"><text x="16" y="96.3" class="c">❯ </text><text x="32.8" y="96.3" class="d">echo -e &apos;Line 1\nLine 2\nLine 3\nLine 4\nLine 5&apos; |</text></symbol><symbol id="111"><text x="16" y="96.3" class="c">❯ </text><text x="32.8" y="96.3" class="d">echo -e &apos;Line 1\nLine 2\nLine 3\nLine 4\nLine 5&apos; | l</text></symbol><symbol id="112"><text x="16" y="96.3" class="c">❯ </text><text x="32.8" y="96.3" class="d">echo -e &apos;Line 1\nLine 2\nLine 3\nLine 4\nLine 5&apos; | lo</text></symbol><symbol id="113"><text x="16" y="96.3" class="c">❯ </text><text x="32.8" y="96.3" class="d">echo -e &apos;Line 1\nLine 2\nLine 3\nLine 4\nLine 5&apos; | lol</text></symbol><symbol id="114"><text x="16" y="96.3" class="c">❯ </text><text x="32.8" y="96.3" class="d">echo -e &apos;Line 1\nLine 2\nLine 3\nLine 4\nLine 5&apos; | lolc</text></symbol><symbol id="115"><text x="16" y="96.3" class="c">❯ </text><text x="32.8" y="96.3" class="d">echo -e &apos;Line 1\nLine 2\nLine 3\nLine 4\nLine 5&apos; | lolca</text></symbol><symbol id="116"><text x="16" y="96.3" class="c">❯ </text><text x="32.8" y="96.3" class="d">echo -e &apos;Line 1\nLine 2\nLine 3\nLine 4\nLine 5&apos; | lolcat</text></symbol><symbol id="117"><text x="16" y="96.3" class="c">❯ </text><text x="32.8" y="96.3" class="d">echo -e &apos;Line 1\nLine 2\nLine 3\nLine 4\nLine 5&apos; | lolcat -</text></symbol><symbol id="118"><text x="16" y="96.3" class="c">❯ </text><text x="32.8" y="96.3" class="d">echo -e &apos;Line 1\nLine 2\nLine 3\nLine 4\nLine 5&apos; | lolcat -f</text></symbol><symbol id="119"><text x="16" y="115.9" class="B">Line 1</text></symbol><symbol id="120"><text x="16" y="135.5" class="B">Line</text><text x="49.6" y="135.5" class="C"> 2</text></symbol><symbol id="121"><text x="16" y="155.1" class="B">L</text><text x="24.4" y="155.1" class="C">ine 3</text></symbol><symbol id="122"><text x="16" y="174.7" class="C">Line 4</text></symbol><symbol id="123"><text x="16" y="194.3" class="C">Line 5</text></symbol><symbol id="124"><text x="16" y="213.9" class="c">❯</text></symbol></defs><style>@keyframes f{0.06%{transform:translateX(0px)}0.42%{transform:translateX(-578px)}0.79%{transform:translateX(-1156px)}1.15%{transform:translateX(-1734px)}1.51%{transform:translateX(-2312px)}1.88%{transform:translateX(-2890px)}2.25%{transform:translateX(-3468px)}2.62%{transform:translateX(-4046px)}2.96%{transform:translateX(-4624px)}3.32%{transform:translateX(-5202px)}3.68%{transform:translateX(-5780px)}4.04%{transform:translateX(-6358px)}4.40%{transform:translateX(-6936px)}4.77%{transform:translateX(-7514px)}5.12%{transform:translateX(-8092px)}5.47%{transform:translateX(-8670px)}5.83%{transform:translateX(-9248px)}6.18%{transform:translateX(-9826px)}6.56%{transform:translateX(-10404px)}6.91%{transform:translateX(-10982px)}7.28%{transform:translateX(-11560px)}7.62%{transform:translateX(-12138px)}7.98%{transform:translateX(-12716px)}8.35%{transform:translateX(-13294px)}8.76%{transform:translateX(-13872px)}9.13%{transform:translateX(-14450px)}9.48%{transform:translateX(-15028px)}9.84%{transform:translateX(-15606px)}10.20%{transform:translateX(-16184px)}10.57%{transform:translateX(-16762px)}10.95%{transform:translateX(-17340px)}11.29%{transform:translateX(-17918px)}11.67%{transform:translateX(-18496px)}12.03%{transform:translateX(-19074px)}12.40%{transform:translateX(-19652px)}12.76%{transform:translateX(-20230px)}13.10%{transform:translateX(-20808px)}13.45%{transform:translateX(-21386px)}13.80%{transform:translateX(-21964px)}14.17%{transform:translateX(-22542px)}14.52%{transform:translateX(-23120px)}14.88%{transform:translateX(-23698px)}15.23%{transform:translateX(-24276px)}15.59%{transform:translateX(-24854px)}15.96%{transform:translateX(-25432px)}16.31%{transform:translateX(-26010px)}16.67%{transform:translateX(-26588px)}17.04%{transform:translateX(-27166px)}17.39%{transform:translateX(-27744px)}17.76%{transform:translateX(-28322px)}18.11%{transform:translateX(-28900px)}18.46%{transform:translateX(-29478px)}18.83%{transform:translateX(-30056px)}19.18%{transform:translateX(-30634px)}19.54%{transform:translateX(-31212px)}19.89%{transform:translateX(-31790px)}20.25%{transform:translateX(-32368px)}20.61%{transform:translateX(-32946px)}20.98%{transform:translateX(-33524px)}21.34%{transform:translateX(-34102px)}21.71%{transform:translateX(-34680px)}22.08%{transform:translateX(-35258px)}22.45%{transform:translateX(-35836px)}22.46%{transform:translateX(-36414px)}26.71%{transform:translateX(-36992px)}31.35%{transform:translateX(-37570px)}31.70%{transform:translateX(-38148px)}32.06%{transform:translateX(-38726px)}32.41%{transform:translateX(-39304px)}32.76%{transform:translateX(-39882px)}33.11%{transform:translateX(-40460px)}33.46%{transform:translateX(-41038px)}33.81%{transform:translateX(-41616px)}34.17%{transform:translateX(-42194px)}34.52%{transform:translateX(-42772px)}34.87%{transform:translateX(-43350px)}35.22%{transform:translateX(-43928px)}32.95%{transform:translateX(-44506px)}44.13%{transform:translateX(-45084px)}44.49%{transform:translateX(-45662px)}44.84%{transform:translateX(-46240px)}45.20%{transform:translateX(-46818px)}45.55%{transform:translateX(-47396px)}45.90%{transform:translateX(-47974px)}46.26%{transform:translateX(-48552px)}46.62%{transform:translateX(-49130px)}46.97%{transform:translateX(-49708px)}47.34%{transform:translateX(-50286px)}47.69%{transform:translateX(-50864px)}48.05%{transform:translateX(-51442px)}48.41%{transform:translateX(-52020px)}48.77%{transform:translateX(-52598px)}49.14%{transform:translateX(-53176px)}49.50%{transform:translateX(-53754px)}49.85%{transform:translateX(-54332px)}50.21%{transform:translateX(-54910px)}50.57%{transform:translateX(-55488px)}50.94%{transform:translateX(-56066px)}51.28%{transform:translateX(-56644px)}51.65%{transform:translateX(-57222px)}51.99%{transform:translateX(-57800px)}52.34%{transform:translateX(-58378px)}52.71%{transform:translateX(-58956px)}53.06%{transform:translateX(-59534px)}53.44%{transform:translateX(-60112px)}53.79%{transform:translateX(-60690px)}54.15%{transform:translateX(-61268px)}54.50%{transform:translateX(-61846px)}54.85%{transform:translateX(-62424px)}55.22%{transform:translateX(-63002px)}55.58%{transform:translateX(-63580px)}55.94%{transform:translateX(-64158px)}56.30%{transform:translateX(-64736px)}56.61%{transform:translateX(-65314px)}56.97%{transform:translateX(-65892px)}57.34%{transform:translateX(-66470px)}57.70%{transform:translateX(-67048px)}58.06%{transform:translateX(-67626px)}58.42%{transform:translateX(-68204px)}58.77%{transform:translateX(-68782px)}59.14%{transform:translateX(-69360px)}59.50%{transform:translateX(-69938px)}59.86%{transform:translateX(-70516px)}60.22%{transform:translateX(-71094px)}60.57%{transform:translateX(-71672px)}60.93%{transform:translateX(-72250px)}61.29%{transform:translateX(-72828px)}61.64%{transform:translateX(-73406px)}62.01%{transform:translateX(-73984px)}62.37%{transform:translateX(-74562px)}62.73%{transform:translateX(-75140px)}63.09%{transform:translateX(-75718px)}63.45%{transform:translateX(-76296px)}63.80%{transform:translateX(-76874px)}64.16%{transform:translateX(-77452px)}64.51%{transform:translateX(-78030px)}64.86%{transform:translateX(-78608px)}65.24%{transform:translateX(-79186px)}65.24%{transform:translateX(-79764px)}69.60%{transform:translateX(-80342px)}70.05%{transform:translateX(-80920px)}71.09%{transform:translateX(-81498px)}}.a{fill:#1e1e1e}.c{fill:#d2a8ff;stroke:#d2a8ff}.d{fill:#c9d1d9;stroke:#c9d1d9}.e{fill:#00afff;stroke:#00afff}.f{fill:#00afd7;stroke:#00afd7}.g{fill:#00d7d7;stroke:#00d7d7}.h{fill:#00d7af;stroke:#00d7af}.i{fill:#00ffaf;stroke:#00ffaf}.j{fill:#00ff87;stroke:#00ff87}.k{fill:#5fff87;stroke:#5fff87}.l{fill:#5fff5f;stroke:#5fff5f}.m{fill:#87ff5f;stroke:#87ff5f}.n{fill:#87ff00;stroke:#87ff00}.o{fill:#afff00;stroke:#afff00}.p{fill:#afd700;stroke:#afd700}.q{fill:#d7d700;stroke:#d7d700}.r{fill:#d7af00;stroke:#d7af00}.s{fill:#ffaf00;stroke:#ffaf00}.t{fill:#ff8700;stroke:#ff8700}.u{fill:#ff875f;stroke:#ff875f}.v{fill:#ff5f5f;stroke:#ff5f5f}.w{fill:#ff5f87;stroke:#ff5f87}.x{fill:#ff0087;stroke:#ff0087}.y{fill:#ff00af;stroke:#ff00af}.z{fill:#d700af;stroke:#d700af}.A{fill:#d700d7;stroke:#d700d7}.B{fill:#8700ff;stroke:#8700ff}.C{fill:#5f5fff;stroke:#5f5fff}path[fill="none"]{fill:none}path[shape-rendering="crispEdges"]{stroke:none}text{font-family:'SF Mono',Monaco,Consolas,Menlo,monospace;font-size:14px;dominant-baseline:text-before-edge;white-space:pre}text[class]{stroke:none}.bold{font-weight:700}.italic{font-style:italic}.uline{text-decoration:underline}.strike{text-decoration:line-through}.dim{opacity:0.5}@keyframes blink{0%,50%{opacity:1}50.01%,100%{opacity:0}}.cursor{animation:blink 1s step-end infinite;mix-blend-mode:difference}.cursor-active{opacity:1;mix-blend-mode:difference}</style><g transform="translate(0,0)"><rect width="578" height="257" rx="8" fill="#1e1e1e"/><rect width="578" height="40" rx="8" fill="#1e1e1e"/><path d="M0 32h578v8H0z" fill="#1e1e1e"/><circle cx="16" cy="20" r="6" fill="#ff5f56"/><circle cx="36" cy="20" r="6" fill="#ffbd2e"/><circle cx="56" cy="20" r="6" fill="#27c93f"/><text x="289" y="20" text-anchor="middle" dominant-baseline="middle" fill="#c9d1d9" font-size="14">Rainbow Colors</text><clipPath id="content-clip"><path d="M0 40h578v217H0z" /></clipPath><g clip-path="url(#content-clip)"><g style="animation:f 14.225s steps(1,end) infinite"><g transform="translate(0,0)"><use xlink:href="#1"/><path d="M32.8 56h8.4v19.6H32.8z" fill="#fff" class="cursor"/></g><g transform="translate(578,0)"><use xlink:href="#2"/><path d="M41.2 56h8.4v19.6H41.2z" fill="#fff" class="cursor-active"/></g><g transform="translate(1156,0)"><use xlink:href="#3"/><path d="M49.6 56h8.4v19.6H49.6z" fill="#fff" class="cursor-active"/></g><g transform="translate(1734,0)"><use xlink:href="#4"/><path d="M58 56h8.4v19.6H58z" fill="#fff" class="cursor-active"/></g><g transform="translate(2312,0)"><use xlink:href="#5"/><path d="M66.4 56h8.4v19.6H66.4z" fill="#fff" class="cursor-active"/></g><g transform="translate(2890,0)"><use xlink:href="#5"/><path d="M74.8 56h8.4v19.6H74.8z" fill="#fff" class="cursor-active"/></g><g transform="translate(3468,0)"><use xlink:href="#6"/><path d="M83.2 56h8.4v19.6H83.2z" fill="#fff" class="cursor-active"/></g><g transform="translate(4046,0)"><use xlink:href="#7"/><path d="M91.6 56h8.4v19.6H91.6z" fill="#fff" class="cursor-active"/></g><g transform="translate(4624,0)"><use xlink:href="#8"/><path d="M100 56h8.4v19.6H100z" fill="#fff" class="cursor-active"/></g><g transform="translate(5202,0)"><use xlink:href="#9"/><path d="M108.4 56h8.4v19.6H108.4z" fill="#fff" class="cursor-active"/></g><g transform="translate(5780,0)"><use xlink:href="#9"/><path d="M116.8 56h8.4v19.6H116.8z" fill="#fff" class="cursor-active"/></g><g transform="translate(6358,0)"><use xlink:href="#10"/><path d="M125.2 56h8.4v19.6H125.2z" fill="#fff" class="cursor-active"/></g><g transform="translate(6936,0)"><use xlink:href="#11"/><path d="M133.6 56h8.4v19.6H133.6z" fill="#fff" class="cursor-active"/></g><g transform="translate(7514,0)"><use xlink:href="#12"/><path d="M142 56h8.4v19.6H142z" fill="#fff" class="cursor-active"/></g><g transform="translate(8092,0)"><use xlink:href="#13"/><path d="M150.4 56h8.4v19.6H150.4z" fill="#fff" class="cursor-active"/></g><g transform="translate(8670,0)"><use xlink:href="#14"/><path d="M158.8 56h8.4v19.6H158.8z" fill="#fff" class="cursor-active"/></g><g transform="translate(9248,0)"><use xlink:href="#15"/><path d="M167.2 56h8.4v19.6H167.2z" fill="#fff" class="cursor-active"/></g><g transform="translate(9826,0)"><use xlink:href="#16"/><path d="M175.6 56h8.4v19.6H175.6z" fill="#fff" class="cursor-active"/></g><g transform="translate(10404,0)"><use xlink:href="#16"/><path d="M184 56h8.4v19.6H184z" fill="#fff" class="cursor-active"/></g><g transform="translate(10982,0)"><use xlink:href="#17"/><path d="M192.4 56h8.4v19.6H192.4z" fill="#fff" class="cursor-active"/></g><g transform="translate(11560,0)"><use xlink:href="#18"/><path d="M200.8 56h8.4v19.6H200.8z" fill="#fff" class="cursor-active"/></g><g transform="translate(12138,0)"><use xlink:href="#19"/><path d="M209.2 56h8.4v19.6H209.2z" fill="#fff" class="cursor-active"/></g><g transform="translate(12716,0)"><use xlink:href="#20"/><path d="M217.6 56h8.4v19.6H217.6z" fill="#fff" class="cursor-active"/></g><g transform="translate(13294,0)"><use xlink:href="#21"/><path d="M226 56h8.4v19.6H226z" fill="#fff" class="cursor-active"/></g><g transform="translate(13872,0)"><use xlink:href="#22"/><path d="M234.4 56h8.4v19.6H234.4z" fill="#fff" class="cursor-active"/></g><g transform="translate(14450,0)"><use xlink:href="#23"/><path d="M242.8 56h8.4v19.6H242.8z" fill="#fff" class="cursor-active"/></g><g transform="translate(15028,0)"><use xlink:href="#24"/><path d="M251.2 56h8.4v19.6H251.2z" fill="#fff" class="cursor-active"/></g><g transform="translate(15606,0)"><use xlink:href="#25"/><path d="M259.6 56h8.4v19.6H259.6z" fill="#fff" class="cursor-active"/></g><g transform="translate(16184,0)"><use xlink:href="#25"/><path d="M268 56h8.4v19.6H268z" fill="#fff" class="cursor-active"/></g><g transform="translate(16762,0)"><use xlink:href="#26"/><path d="M276.4 56h8.4v19.6H276.4z" fill="#fff" class="cursor-active"/></g><g transform="translate(17340,0)"><use xlink:href="#27"/><path d="M284.8 56h8.4v19.6H284.8z" fill="#fff" class="cursor-active"/></g><g transform="translate(17918,0)"><use xlink:href="#28"/><path d="M293.2 56h8.4v19.6H293.2z" fill="#fff" class="cursor-active"/></g><g transform="translate(18496,0)"><use xlink:href="#29"/><path d="M301.6 56h8.4v19.6H301.6z" fill="#fff" class="cursor-active"/></g><g transform="translate(19074,0)"><use xlink:href="#30"/><path d="M310 56h8.4v19.6H310z" fill="#fff" class="cursor-active"/></g><g transform="translate(19652,0)"><use xlink:href="#31"/><path d="M318.4 56h8.4v19.6H318.4z" fill="#fff" class="cursor-active"/></g><g transform="translate(20230,0)"><use xlink:href="#32"/><path d="M326.8 56h8.4v19.6H326.8z" fill="#fff" class="cursor-active"/></g><g transform="translate(20808,0)"><use xlink:href="#33"/><path d="M335.2 56h8.4v19.6H335.2z" fill="#fff" class="cursor-active"/></g><g transform="translate(21386,0)"><use xlink:href="#33"/><path d="M343.6 56h8.4v19.6H343.6z" fill="#fff" class="cursor-active"/></g><g transform="translate(21964,0)"><use xlink:href="#34"/><path d="M352 56h8.4v19.6H352z" fill="#fff" class="cursor-active"/></g><g transform="translate(22542,0)"><use xlink:href="#35"/><path d="M360.4 56h8.4v19.6H360.4z" fill="#fff" class="cursor-active"/></g><g transform="translate(23120,0)"><use xlink:href="#36"/><path d="M368.8 56h8.4v19.6H368.8z" fill="#fff" class="cursor-active"/></g><g transform="translate(23698,0)"><use xlink:href="#37"/><path d="M377.2 56h8.4v19.6H377.2z" fill="#fff" class="cursor-active"/></g><g transform="translate(24276,0)"><use xlink:href="#38"/><path d="M385.6 56h8.4v19.6H385.6z" fill="#fff" class="cursor-active"/></g><g transform="translate(24854,0)"><use xlink:href="#39"/><path d="M394 56h8.4v19.6H394z" fill="#fff" class="cursor-active"/></g><g transform="translate(25432,0)"><use xlink:href="#40"/><path d="M402.4 56h8.4v19.6H402.4z" fill="#fff" class="cursor-active"/></g><g transform="translate(26010,0)"><use xlink:href="#41"/><path d="M410.8 56h8.4v19.6H410.8z" fill="#fff" class="cursor-active"/></g><g transform="translate(26588,0)"><use xlink:href="#42"/><path d="M419.2 56h8.4v19.6H419.2z" fill="#fff" class="cursor-active"/></g><g transform="translate(27166,0)"><use xlink:href="#43"/><path d="M427.6 56h8.4v19.6H427.6z" fill="#fff" class="cursor-active"/></g><g transform="translate(27744,0)"><use xlink:href="#44"/><path d="M436 56h8.4v19.6H436z" fill="#fff" class="cursor-active"/></g><g transform="translate(28322,0)"><use xlink:href="#45"/><path d="M444.4 56h8.4v19.6H444.4z" fill="#fff" class="cursor-active"/></g><g transform="translate(28900,0)"><use xlink:href="#45"/><path d="M452.8 56h8.4v19.6H452.8z" fill="#fff" class="cursor-active"/></g><g transform="translate(29478,0)"><use xlink:href="#46"/><path d="M461.2 56h8.4v19.6H461.2z" fill="#fff" class="cursor-active"/></g><g transform="translate(30056,0)"><use xlink:href="#46"/><path d="M469.6 56h8.4v19.6H469.6z" fill="#fff" class="cursor-active"/></g><g transform="translate(30634,0)"><use xlink:href="#47"/><path d="M478 56h8.4v19.6H478z" fill="#fff" class="cursor-active"/></g><g transform="translate(31212,0)"><use xlink:href="#48"/><path d="M486.4 56h8.4v19.6H486.4z" fill="#fff" class="cursor-active"/></g><g transform="translate(31790,0)"><use xlink:href="#49"/><path d="M494.8 56h8.4v19.6H494.8z" fill="#fff" class="cursor-active"/></g><g transform="translate(32368,0)"><use xlink:href="#50"/><path d="M503.2 56h8.4v19.6H503.2z" fill="#fff" class="cursor-active"/></g><g transform="translate(32946,0)"><use xlink:href="#51"/><path d="M511.6 56h8.4v19.6H511.6z" fill="#fff" class="cursor-active"/></g><g transform="translate(33524,0)"><use xlink:href="#52"/><path d="M520 56h8.4v19.6H520z" fill="#fff" class="cursor-active"/></g><g transform="translate(34102,0)"><use xlink:href="#52"/><path d="M528.4 56h8.4v19.6H528.4z" fill="#fff" class="cursor-active"/></g><g transform="translate(34680,0)"><use xlink:href="#53"/><path d="M536.8 56h8.4v19.6H536.8z" fill="#fff" class="cursor-active"/></g><g transform="translate(35258,0)"><use xlink:href="#54"/><path d="M545.2 56h8.4v19.6H545.2z" fill="#fff" class="cursor-active"/></g><g transform="translate(35836,0)"><use xlink:href="#55"/><path d="M553.6 56h8.4v19.6H553.6z" fill="#fff" class="cursor-active"/></g><g transform="translate(36414,0)"><use xlink:href="#55"/><path d="M553.6 56h8.4v19.6H553.6z" fill="#fff" class="cursor"/></g><g transform="translate(36992,0)"><use xlink:href="#55"/></g><g transform="translate(37570,0)"><use xlink:href="#55"/><use xlink:href="#56"/></g><g transform="translate(38148,0)"><use xlink:href="#55"/><use xlink:href="#57"/></g><g transform="translate(38726,0)"><use xlink:href="#55"/><use xlink:href="#58"/></g><g transform="translate(39304,0)"><use xlink:href="#55"/><use xlink:href="#59"/></g><g transform="translate(39882,0)"><use xlink:href="#55"/><use xlink:href="#60"/></g><g transform="translate(40460,0)"><use xlink:href="#55"/><use xlink:href="#61"/></g><g transform="translate(41038,0)"><use xlink:href="#55"/><use xlink:href="#62"/></g><g transform="translate(41616,0)"><use xlink:href="#55"/><use xlink:href="#63"/></g><g transform="translate(42194,0)"><use xlink:href="#55"/><use xlink:href="#64"/></g><g transform="translate(42772,0)"><use xlink:href="#55"/><use xlink:href="#65"/></g><g transform="translate(43350,0)"><use xlink:href="#55"/><use xlink:href="#66"/></g><g transform="translate(43928,0)"><use xlink:href="#55"/><use xlink:href="#67"/></g><g transform="translate(44506,0)"><use xlink:href="#55"/><use xlink:href="#67"/><use xlink:href="#68"/><path d="M32.8 95.2h8.4v19.6H32.8z" fill="#fff" class="cursor"/></g><g transform="translate(45084,0)"><use xlink:href="#55"/><use xlink:href="#67"/><use xlink:href="#69"/><path d="M41.2 95.2h8.4v19.6H41.2z" fill="#fff" class="cursor-active"/></g><g transform="translate(45662,0)"><use xlink:href="#55"/><use xlink:href="#67"/><use xlink:href="#70"/><path d="M49.6 95.2h8.4v19.6H49.6z" fill="#fff" class="cursor-active"/></g><g transform="translate(46240,0)"><use xlink:href="#55"/><use xlink:href="#67"/><use xlink:href="#71"/><path d="M58 95.2h8.4v19.6H58z" fill="#fff" class="cursor-active"/></g><g transform="translate(46818,0)"><use xlink:href="#55"/><use xlink:href="#67"/><use xlink:href="#72"/><path d="M66.4 95.2h8.4v19.6H66.4z" fill="#fff" class="cursor-active"/></g><g transform="translate(47396,0)"><use xlink:href="#55"/><use xlink:href="#67"/><use xlink:href="#72"/><path d="M74.8 95.2h8.4v19.6H74.8z" fill="#fff" class="cursor-active"/></g><g transform="translate(47974,0)"><use xlink:href="#55"/><use xlink:href="#67"/><use xlink:href="#73"/><path d="M83.2 95.2h8.4v19.6H83.2z" fill="#fff" class="cursor-active"/></g><g transform="translate(48552,0)"><use xlink:href="#55"/><use xlink:href="#67"/><use xlink:href="#74"/><path d="M91.6 95.2h8.4v19.6H91.6z" fill="#fff" class="cursor-active"/></g><g transform="translate(49130,0)"><use xlink:href="#55"/><use xlink:href="#67"/><use xlink:href="#74"/><path d="M100 95.2h8.4v19.6H100z" fill="#fff" class="cursor-active"/></g><g transform="translate(49708,0)"><use xlink:href="#55"/><use xlink:href="#67"/><use xlink:href="#75"/><path d="M108.4 95.2h8.4v19.6H108.4z" fill="#fff" class="cursor-active"/></g><g transform="translate(50286,0)"><use xlink:href="#55"/><use xlink:href="#67"/><use xlink:href="#76"/><path d="M116.8 95.2h8.4v19.6H116.8z" fill="#fff" class="cursor-active"/></g><g transform="translate(50864,0)"><use xlink:href="#55"/><use xlink:href="#67"/><use xlink:href="#77"/><path d="M125.2 95.2h8.4v19.6H125.2z" fill="#fff" class="cursor-active"/></g><g transform="translate(51442,0)"><use xlink:href="#55"/><use xlink:href="#67"/><use xlink:href="#78"/><path d="M133.6 95.2h8.4v19.6H133.6z" fill="#fff" class="cursor-active"/></g><g transform="translate(52020,0)"><use xlink:href="#55"/><use xlink:href="#67"/><use xlink:href="#79"/><path d="M142 95.2h8.4v19.6H142z" fill="#fff" class="cursor-active"/></g><g transform="translate(52598,0)"><use xlink:href="#55"/><use xlink:href="#67"/><use xlink:href="#79"/><path d="M150.4 95.2h8.4v19.6H150.4z" fill="#fff" class="cursor-active"/></g><g transform="translate(53176,0)"><use xlink:href="#55"/><use xlink:href="#67"/><use xlink:href="#80"/><path d="M158.8 95.2h8.4v19.6H158.8z" fill="#fff" class="cursor-active"/></g><g transform="translate(53754,0)"><use xlink:href="#55"/><use xlink:href="#67"/><use xlink:href="#81"/><path d="M167.2 95.2h8.4v19.6H167.2z" fill="#fff" class="cursor-active"/></g><g transform="translate(54332,0)"><use xlink:href="#55"/><use xlink:href="#67"/><use xlink:href="#82"/><path d="M175.6 95.2h8.4v19.6H175.6z" fill="#fff" class="cursor-active"/></g><g transform="translate(54910,0)"><use xlink:href="#55"/><use xlink:href="#67"/><use xlink:href="#83"/><path d="M184 95.2h8.4v19.6H184z" fill="#fff" class="cursor-active"/></g><g transform="translate(55488,0)"><use xlink:href="#55"/><use xlink:href="#67"/><use xlink:href="#84"/><path d="M192.4 95.2h8.4v19.6H192.4z" fill="#fff" class="cursor-active"/></g><g transform="translate(56066,0)"><use xlink:href="#55"/><use xlink:href="#67"/><use xlink:href="#85"/><path d="M200.8 95.2h8.4v19.6H200.8z" fill="#fff" class="cursor-active"/></g><g transform="translate(56644,0)"><use xlink:href="#55"/><use xlink:href="#67"/><use xlink:href="#86"/><path d="M209.2 95.2h8.4v19.6H209.2z" fill="#fff" class="cursor-active"/></g><g transform="translate(57222,0)"><use xlink:href="#55"/><use xlink:href="#67"/><use xlink:href="#86"/><path d="M217.6 95.2h8.4v19.6H217.6z" fill="#fff" class="cursor-active"/></g><g transform="translate(57800,0)"><use xlink:href="#55"/><use xlink:href="#67"/><use xlink:href="#87"/><path d="M226 95.2h8.4v19.6H226z" fill="#fff" class="cursor-active"/></g><g transform="translate(58378,0)"><use xlink:href="#55"/><use xlink:href="#67"/><use xlink:href="#88"/><path d="M234.4 95.2h8.4v19.6H234.4z" fill="#fff" class="cursor-active"/></g><g transform="translate(58956,0)"><use xlink:href="#55"/><use xlink:href="#67"/><use xlink:href="#89"/><path d="M242.8 95.2h8.4v19.6H242.8z" fill="#fff" class="cursor-active"/></g><g transform="translate(59534,0)"><use xlink:href="#55"/><use xlink:href="#67"/><use xlink:href="#90"/><path d="M251.2 95.2h8.4v19.6H251.2z" fill="#fff" class="cursor-active"/></g><g transform="translate(60112,0)"><use xlink:href="#55"/><use xlink:href="#67"/><use xlink:href="#91"/><path d="M259.6 95.2h8.4v19.6H259.6z" fill="#fff" class="cursor-active"/></g><g transform="translate(60690,0)"><use xlink:href="#55"/><use xlink:href="#67"/><use xlink:href="#92"/><path d="M268 95.2h8.4v19.6H268z" fill="#fff" class="cursor-active"/></g><g transform="translate(61268,0)"><use xlink:href="#55"/><use xlink:href="#67"/><use xlink:href="#93"/><path d="M276.4 95.2h8.4v19.6H276.4z" fill="#fff" class="cursor-active"/></g><g transform="translate(61846,0)"><use xlink:href="#55"/><use xlink:href="#67"/><use xlink:href="#93"/><path d="M284.8 95.2h8.4v19.6H284.8z" fill="#fff" class="cursor-active"/></g><g transform="translate(62424,0)"><use xlink:href="#55"/><use xlink:href="#67"/><use xlink:href="#94"/><path d="M293.2 95.2h8.4v19.6H293.2z" fill="#fff" class="cursor-active"/></g><g transform="translate(63002,0)"><use xlink:href="#55"/><use xlink:href="#67"/><use xlink:href="#95"/><path d="M301.6 95.2h8.4v19.6H301.6z" fill="#fff" class="cursor-active"/></g><g transform="translate(63580,0)"><use xlink:href="#55"/><use xlink:href="#67"/><use xlink:href="#96"/><path d="M310 95.2h8.4v19.6H310z" fill="#fff" class="cursor-active"/></g><g transform="translate(64158,0)"><use xlink:href="#55"/><use xlink:href="#67"/><use xlink:href="#97"/><path d="M318.4 95.2h8.4v19.6H318.4z" fill="#fff" class="cursor-active"/></g><g transform="translate(64736,0)"><use xlink:href="#55"/><use xlink:href="#67"/><use xlink:href="#98"/><path d="M326.8 95.2h8.4v19.6H326.8z" fill="#fff" class="cursor-active"/></g><g transform="translate(65314,0)"><use xlink:href="#55"/><use xlink:href="#67"/><use xlink:href="#99"/><path d="M335.2 95.2h8.4v19.6H335.2z" fill="#fff" class="cursor-active"/></g><g transform="translate(65892,0)"><use xlink:href="#55"/><use xlink:href="#67"/><use xlink:href="#100"/><path d="M343.6 95.2h8.4v19.6H343.6z" fill="#fff" class="cursor-active"/></g><g transform="translate(66470,0)"><use xlink:href="#55"/><use xlink:href="#67"/><use xlink:href="#100"/><path d="M352 95.2h8.4v19.6H352z" fill="#fff" class="cursor-active"/></g><g transform="translate(67048,0)"><use xlink:href="#55"/><use xlink:href="#67"/><use xlink:href="#101"/><path d="M360.4 95.2h8.4v19.6H360.4z" fill="#fff" class="cursor-active"/></g><g transform="translate(67626,0)"><use xlink:href="#55"/><use xlink:href="#67"/><use xlink:href="#102"/><path d="M368.8 95.2h8.4v19.6H368.8z" fill="#fff" class="cursor-active"/></g><g transform="translate(68204,0)"><use xlink:href="#55"/><use xlink:href="#67"/><use xlink:href="#103"/><path d="M377.2 95.2h8.4v19.6H377.2z" fill="#fff" class="cursor-active"/></g><g transform="translate(68782,0)"><use xlink:href="#55"/><use xlink:href="#67"/><use xlink:href="#104"/><path d="M385.6 95.2h8.4v19.6H385.6z" fill="#fff" class="cursor-active"/></g><g transform="translate(69360,0)"><use xlink:href="#55"/><use xlink:href="#67"/><use xlink:href="#105"/><path d="M394 95.2h8.4v19.6H394z" fill="#fff" class="cursor-active"/></g><g transform="translate(69938,0)"><use xlink:href="#55"/><use xlink:href="#67"/><use xlink:href="#106"/><path d="M402.4 95.2h8.4v19.6H402.4z" fill="#fff" class="cursor-active"/></g><g transform="translate(70516,0)"><use xlink:href="#55"/><use xlink:href="#67"/><use xlink:href="#107"/><path d="M410.8 95.2h8.4v19.6H410.8z" fill="#fff" class="cursor-active"/></g><g transform="translate(71094,0)"><use xlink:href="#55"/><use xlink:href="#67"/><use xlink:href="#107"/><path d="M419.2 95.2h8.4v19.6H419.2z" fill="#fff" class="cursor-active"/></g><g transform="translate(71672,0)"><use xlink:href="#55"/><use xlink:href="#67"/><use xlink:href="#108"/><path d="M427.6 95.2h8.4v19.6H427.6z" fill="#fff" class="cursor-active"/></g><g transform="translate(72250,0)"><use xlink:href="#55"/><use xlink:href="#67"/><use xlink:href="#109"/><path d="M436 95.2h8.4v19.6H436z" fill="#fff" class="cursor-active"/></g><g transform="translate(72828,0)"><use xlink:href="#55"/><use xlink:href="#67"/><use xlink:href="#109"/><path d="M444.4 95.2h8.4v19.6H444.4z" fill="#fff" class="cursor-active"/></g><g transform="translate(73406,0)"><use xlink:href="#55"/><use xlink:href="#67"/><use xlink:href="#110"/><path d="M452.8 95.2h8.4v19.6H452.8z" fill="#fff" class="cursor-active"/></g><g transform="translate(73984,0)"><use xlink:href="#55"/><use xlink:href="#67"/><use xlink:href="#110"/><path d="M461.2 95.2h8.4v19.6H461.2z" fill="#fff" class="cursor-active"/></g><g transform="translate(74562,0)"><use xlink:href="#55"/><use xlink:href="#67"/><use xlink:href="#111"/><path d="M469.6 95.2h8.4v19.6H469.6z" fill="#fff" class="cursor-active"/></g><g transform="translate(75140,0)"><use xlink:href="#55"/><use xlink:href="#67"/><use xlink:href="#112"/><path d="M478 95.2h8.4v19.6H478z" fill="#fff" class="cursor-active"/></g><g transform="translate(75718,0)"><use xlink:href="#55"/><use xlink:href="#67"/><use xlink:href="#113"/><path d="M486.4 95.2h8.4v19.6H486.4z" fill="#fff" class="cursor-active"/></g><g transform="translate(76296,0)"><use xlink:href="#55"/><use xlink:href="#67"/><use xlink:href="#114"/><path d="M494.8 95.2h8.4v19.6H494.8z" fill="#fff" class="cursor-active"/></g><g transform="translate(76874,0)"><use xlink:href="#55"/><use xlink:href="#67"/><use xlink:href="#115"/><path d="M503.2 95.2h8.4v19.6H503.2z" fill="#fff" class="cursor-active"/></g><g transform="translate(77452,0)"><use xlink:href="#55"/><use xlink:href="#67"/><use xlink:href="#116"/><path d="M511.6 95.2h8.4v19.6H511.6z" fill="#fff" class="cursor-active"/></g><g transform="translate(78030,0)"><use xlink:href="#55"/><use xlink:href="#67"/><use xlink:href="#116"/><path d="M520 95.2h8.4v19.6H520z" fill="#fff" class="cursor-active"/></g><g transform="translate(78608,0)"><use xlink:href="#55"/><use xlink:href="#67"/><use xlink:href="#117"/><path d="M528.4 95.2h8.4v19.6H528.4z" fill="#fff" class="cursor-active"/></g><g transform="translate(79186,0)"><use xlink:href="#55"/><use xlink:href="#67"/><use xlink:href="#118"/><path d="M536.8 95.2h8.4v19.6H536.8z" fill="#fff" class="cursor-active"/></g><g transform="translate(79764,0)"><use xlink:href="#55"/><use xlink:href="#67"/><use xlink:href="#118"/><path d="M536.8 95.2h8.4v19.6H536.8z" fill="#fff" class="cursor"/></g><g transform="translate(80342,0)"><use xlink:href="#55"/><use xlink:href="#67"/><use xlink:href="#118"/></g><g transform="translate(80920,0)"><use xlink:href="#55"/><use xlink:href="#67"/><use xlink:href="#118"/><use xlink:href="#119"/><use xlink:href="#120"/><use xlink:href="#121"/><use xlink:href="#122"/><use xlink:href="#123"/></g><g transform="translate(81498,0)"><use xlink:href="#55"/><use xlink:href="#67"/><use xlink:href="#118"/><use xlink:href="#119"/><use xlink:href="#120"/><use xlink:href="#121"/><use xlink:href="#122"/><use xlink:href="#123"/><use xlink:href="#124"/><path d="M32.8 212.8h8.4v19.6H32.8z" fill="#fff" class="cursor"/></g></g></g></g></svg>