<svg xmlns="http://www.w3.org/2000/svg" xmlns:xlink="http://www.w3.org/1999/xlink" width="1790" height="1367.73"><rect width="1790" height="1367.73" rx="0" ry="0" class="a"/><svg height="1367.73" viewBox="0 0 179 136.773" width="1790" xmlns="http://www.w3.org/2000/svg" xmlns:xlink="http://www.w3.org/1999/xlink"><style>@keyframes k{0%{transform:translateX(0)}6.7%{transform:translateX(-537px)}6.8%{transform:translateX(-1253px)}7.2%{transform:translateX(-1432px)}12%{transform:translateX(-1611px)}13.3%{transform:translateX(-1790px)}14.3%{transform:translateX(-1969px)}15%{transform:translateX(-2148px)}16.5%{transform:translateX(-2327px)}18.2%{transform:translateX(-2506px)}19%{transform:translateX(-2685px)}20.8%{transform:translateX(-2864px)}21.6%{transform:translateX(-3043px)}25%{transform:translateX(-3222px)}28.1%{transform:translateX(-3401px)}32.4%{transform:translateX(-3580px)}34.7%{transform:translateX(-3759px)}35.5%{transform:translateX(-3938px)}36.5%{transform:translateX(-4117px)}37.2%{transform:translateX(-4296px)}42.1%{transform:translateX(-4475px)}47.6%{transform:translateX(-5012px)}47.7%{transform:translateX(-5549px)}47.8%{transform:translateX(-6265px)}60.9%{transform:translateX(-6444px)}61.7%{transform:translateX(-6623px)}62.3%{transform:translateX(-6802px)}63.3%{transform:translateX(-6981px)}64.8%{transform:translateX(-7160px)}66.6%{transform:translateX(-7339px)}73.9%{transform:translateX(-7518px)}74.6%{transform:translateX(-7697px)}76.7%{transform:translateX(-7876px)}79.1%{transform:translateX(-8055px)}81.2%{transform:translateX(-8234px)}86.1%{transform:translateX(-9308px)}86.2%{transform:translateX(-10024px)}99.7%{transform:translateX(-10203px)}}.a{fill:#282d35}.c{fill:#66c2cd;white-space:pre}.c,.d,.e{font-weight:700}.d{fill:#e88388;white-space:pre}.e{fill:#71bef2}.e,.f,.g{white-space:pre}.f{fill:#dbab79;font-weight:700}.g{fill:#b9c0cb}</style><g font-family="Monaco,Consolas,Menlo,'Bitstream Vera Sans Mono','Powerline Symbols',monospace" font-size="1.67"><defs><symbol id="1"><text y="1.67" class="c">dvd</text><text x="4.008" y="1.67" class="d">➜</text></symbol><symbol id="2"><text y="1.67" class="c">dvd</text><text x="4.008" y="1.67" class="e">(</text><text x="5.01" y="1.67" class="d">feat/rec</text><text x="13.026" y="1.67" class="e">)</text><text x="15.03" y="1.67" class="f">✗</text><text x="17.034" y="1.67" class="d">➜</text></symbol><symbol id="3"><text y="1.67" class="c">dvd</text><text x="4.008" y="1.67" class="e">(</text><text x="5.01" y="1.67" class="d">feat/rec</text><text x="13.026" y="1.67" class="e">)</text><text x="15.03" y="1.67" class="f">✗</text><text x="17.034" y="1.67" class="d">➜</text><text x="20.04" y="1.67" class="g">this</text></symbol><symbol id="4"><text y="1.67" class="c">dvd</text><text x="4.008" y="1.67" class="e">(</text><text x="5.01" y="1.67" class="d">feat/rec</text><text x="13.026" y="1.67" class="e">)</text><text x="15.03" y="1.67" class="f">✗</text><text x="17.034" y="1.67" class="d">➜</text><text x="20.04" y="1.67" class="g">this</text><text x="25.05" y="1.67" class="g">is</text></symbol><symbol id="5"><text y="1.67" class="c">dvd</text><text x="4.008" y="1.67" class="e">(</text><text x="5.01" y="1.67" class="d">feat/rec</text><text x="13.026" y="1.67" class="e">)</text><text x="15.03" y="1.67" class="f">✗</text><text x="17.034" y="1.67" class="d">➜</text><text x="20.04" y="1.67" class="g">this</text><text x="25.05" y="1.67" class="g">is</text><text x="28.056" y="1.67" class="g">w</text></symbol><symbol id="6"><text y="1.67" class="c">dvd</text><text x="4.008" y="1.67" class="e">(</text><text x="5.01" y="1.67" class="d">feat/rec</text><text x="13.026" y="1.67" class="e">)</text><text x="15.03" y="1.67" class="f">✗</text><text x="17.034" y="1.67" class="d">➜</text><text x="20.04" y="1.67" class="g">this</text><text x="25.05" y="1.67" class="g">is</text><text x="28.056" y="1.67" class="g">wa</text></symbol><symbol id="7"><text y="1.67" class="c">dvd</text><text x="4.008" y="1.67" class="e">(</text><text x="5.01" y="1.67" class="d">feat/rec</text><text x="13.026" y="1.67" class="e">)</text><text x="15.03" y="1.67" class="f">✗</text><text x="17.034" y="1.67" class="d">➜</text><text x="20.04" y="1.67" class="g">this</text><text x="25.05" y="1.67" class="g">is</text><text x="28.056" y="1.67" class="g">wrap!</text></symbol><symbol id="8"><text y="1.67" class="g">zsh:</text><text x="5.01" y="1.67" class="g">command</text><text x="13.026" y="1.67" class="g">not</text><text x="17.034" y="1.67" class="g">found:</text><text x="24.048" y="1.67" class="g">this</text></symbol><symbol id="9"><text y="1.67" class="c">dvd</text><text x="4.008" y="1.67" class="e">(</text><text x="5.01" y="1.67" class="d">feat/rec</text><text x="13.026" y="1.67" class="e">)</text><text x="15.03" y="1.67" class="f">✗</text><text x="17.034" y="1.67" class="d">➜</text><text x="20.04" y="1.67" class="g">echo</text></symbol><symbol id="10"><text y="1.67" class="c">dvd</text><text x="4.008" y="1.67" class="e">(</text><text x="5.01" y="1.67" class="d">feat/rec</text><text x="13.026" y="1.67" class="e">)</text><text x="15.03" y="1.67" class="f">✗</text><text x="17.034" y="1.67" class="d">➜</text><text x="20.04" y="1.67" class="g">echo</text><text x="25.05" y="1.67" class="g">&apos;cool&apos;</text></symbol><symbol id="11"><text y="1.67" class="g">cool</text></symbol><symbol id="12"><text y="1.67" class="c">dvd</text><text x="4.008" y="1.67" class="e">(</text><text x="5.01" y="1.67" class="d">feat/rec</text><text x="13.026" y="1.67" class="e">)</text><text x="15.03" y="1.67" class="f">✗</text><text x="17.034" y="1.67" style="white-space:pre" fill="#a8cc8c" font-weight="700">➜</text></symbol><symbol id="a"><path fill="transparent" d="M0 0h179v63H0z"/></symbol><symbol id="b"><path fill="#6f7683" d="M0 0h1.102v2.171H0z"/></symbol></defs><path class="a" d="M0 0h179v136.773H0z"/><g style="animation-duration:6.492789s;animation-iteration-count:infinite;animation-name:k;animation-timing-function:steps(1,end)"><svg width="10382"><svg><use xlink:href="#a"/><use xlink:href="#b" x="-.004"/></svg><svg x="179"><use xlink:href="#a"/><use xlink:href="#b" x="-.004"/></svg><svg x="358"><use xlink:href="#a"/><use xlink:href="#b" x="-.004"/></svg><svg x="537"><use xlink:href="#a"/><use xlink:href="#b" x="-.004"/></svg><svg x="716"><use xlink:href="#a"/><use xlink:href="#b" x="-.004"/></svg><svg x="895"><use xlink:href="#a"/><use xlink:href="#b" x="6.996"/><use xlink:href="#1"/></svg><svg x="1074"><use xlink:href="#a"/><use xlink:href="#b" x="6.996"/><use xlink:href="#1"/></svg><svg x="1253"><use xlink:href="#a"/><use xlink:href="#b" x="6.996"/><use xlink:href="#1"/></svg><svg x="1432"><use xlink:href="#a"/><use xlink:href="#b" x="19.996"/><use xlink:href="#2"/></svg><svg x="1611"><use xlink:href="#a"/><use xlink:href="#b" x="20.996"/><text y="1.67" class="c">dvd</text><text x="4.008" y="1.67" class="e">(</text><text x="5.01" y="1.67" class="d">feat/rec</text><text x="13.026" y="1.67" class="e">)</text><text x="15.03" y="1.67" class="f">✗</text><text x="17.034" y="1.67" class="d">➜</text><text x="20.04" y="1.67" class="g">t</text></svg><svg x="1790"><use xlink:href="#a"/><use xlink:href="#b" x="21.996"/><text y="1.67" class="c">dvd</text><text x="4.008" y="1.67" class="e">(</text><text x="5.01" y="1.67" class="d">feat/rec</text><text x="13.026" y="1.67" class="e">)</text><text x="15.03" y="1.67" class="f">✗</text><text x="17.034" y="1.67" class="d">➜</text><text x="20.04" y="1.67" class="g">th</text></svg><svg x="1969"><use xlink:href="#a"/><use xlink:href="#b" x="22.996"/><text y="1.67" class="c">dvd</text><text x="4.008" y="1.67" class="e">(</text><text x="5.01" y="1.67" class="d">feat/rec</text><text x="13.026" y="1.67" class="e">)</text><text x="15.03" y="1.67" class="f">✗</text><text x="17.034" y="1.67" class="d">➜</text><text x="20.04" y="1.67" class="g">thi</text></svg><svg x="2148"><use xlink:href="#a"/><use xlink:href="#b" x="23.996"/><use xlink:href="#3"/></svg><svg x="2327"><use xlink:href="#a"/><use xlink:href="#b" x="24.996"/><use xlink:href="#3"/></svg><svg x="2506"><use xlink:href="#a"/><use xlink:href="#b" x="25.996"/><text y="1.67" class="c">dvd</text><text x="4.008" y="1.67" class="e">(</text><text x="5.01" y="1.67" class="d">feat/rec</text><text x="13.026" y="1.67" class="e">)</text><text x="15.03" y="1.67" class="f">✗</text><text x="17.034" y="1.67" class="d">➜</text><text x="20.04" y="1.67" class="g">this</text><text x="25.05" y="1.67" class="g">i</text></svg><svg x="2685"><use xlink:href="#a"/><use xlink:href="#b" x="26.996"/><use xlink:href="#4"/></svg><svg x="2864"><use xlink:href="#a"/><use xlink:href="#b" x="27.996"/><use xlink:href="#4"/></svg><svg x="3043"><use xlink:href="#a"/><use xlink:href="#b" x="28.996"/><use xlink:href="#5"/></svg><svg x="3222"><use xlink:href="#a"/><use xlink:href="#b" x="29.996"/><use xlink:href="#6"/></svg><svg x="3401"><use xlink:href="#a"/><use xlink:href="#b" x="30.996"/><text y="1.67" class="c">dvd</text><text x="4.008" y="1.67" class="e">(</text><text x="5.01" y="1.67" class="d">feat/rec</text><text x="13.026" y="1.67" class="e">)</text><text x="15.03" y="1.67" class="f">✗</text><text x="17.034" y="1.67" class="d">➜</text><text x="20.04" y="1.67" class="g">this</text><text x="25.05" y="1.67" class="g">is</text><text x="28.056" y="1.67" class="g">wap</text></svg><svg x="3580"><use xlink:href="#a"/><use xlink:href="#b" x="29.996"/><use xlink:href="#6"/></svg><svg x="3759"><use xlink:href="#a"/><use xlink:href="#b" x="28.996"/><use xlink:href="#5"/></svg><svg x="3938"><use xlink:href="#a"/><use xlink:href="#b" x="29.996"/><text y="1.67" class="c">dvd</text><text x="4.008" y="1.67" class="e">(</text><text x="5.01" y="1.67" class="d">feat/rec</text><text x="13.026" y="1.67" class="e">)</text><text x="15.03" y="1.67" class="f">✗</text><text x="17.034" y="1.67" class="d">➜</text><text x="20.04" y="1.67" class="g">this</text><text x="25.05" y="1.67" class="g">is</text><text x="28.056" y="1.67" class="g">wr</text></svg><svg x="4117"><use xlink:href="#a"/><use xlink:href="#b" x="30.996"/><text y="1.67" class="c">dvd</text><text x="4.008" y="1.67" class="e">(</text><text x="5.01" y="1.67" class="d">feat/rec</text><text x="13.026" y="1.67" class="e">)</text><text x="15.03" y="1.67" class="f">✗</text><text x="17.034" y="1.67" class="d">➜</text><text x="20.04" y="1.67" class="g">this</text><text x="25.05" y="1.67" class="g">is</text><text x="28.056" y="1.67" class="g">wra</text></svg><svg x="4296"><use xlink:href="#a"/><use xlink:href="#b" x="31.996"/><text y="1.67" class="c">dvd</text><text x="4.008" y="1.67" class="e">(</text><text x="5.01" y="1.67" class="d">feat/rec</text><text x="13.026" y="1.67" class="e">)</text><text x="15.03" y="1.67" class="f">✗</text><text x="17.034" y="1.67" class="d">➜</text><text x="20.04" y="1.67" class="g">this</text><text x="25.05" y="1.67" class="g">is</text><text x="28.056" y="1.67" class="g">wrap</text></svg><svg x="4475"><use xlink:href="#a"/><use xlink:href="#b" x="32.996"/><use xlink:href="#7"/></svg><svg x="4654"><use xlink:href="#a"/><use xlink:href="#b" x="32.996"/><use xlink:href="#7"/></svg><svg x="4833"><use xlink:href="#a"/><use xlink:href="#b" x="-.004" y="2.146"/><use xlink:href="#7"/></svg><svg x="5012"><use xlink:href="#a"/><use xlink:href="#b" x="-.004" y="2.146"/><use xlink:href="#7"/></svg><svg x="5191"><use xlink:href="#a"/><use xlink:href="#b" x="-.004" y="4.317"/><use xlink:href="#7"/><use xlink:href="#8" y="2.171"/></svg><svg x="5370"><use xlink:href="#a"/><use xlink:href="#b" x="-.004" y="4.317"/><use xlink:href="#7"/><use xlink:href="#8" y="2.171"/></svg><svg x="5549"><use xlink:href="#a"/><use xlink:href="#b" x="-.004" y="4.317"/><use xlink:href="#7"/><use xlink:href="#8" y="2.171"/></svg><svg x="5728"><use xlink:href="#a"/><use xlink:href="#b" x="-.004" y="4.317"/><use xlink:href="#7"/><use xlink:href="#8" y="2.171"/></svg><svg x="5907"><use xlink:href="#a"/><use xlink:href="#b" x="19.996" y="4.317"/><use xlink:href="#7"/><use xlink:href="#8" y="2.171"/><use xlink:href="#2" y="4.342"/></svg><svg x="6086"><use xlink:href="#a"/><use xlink:href="#b" x="19.996" y="4.317"/><use xlink:href="#7"/><use xlink:href="#8" y="2.171"/><use xlink:href="#2" y="4.342"/></svg><svg x="6265"><use xlink:href="#a"/><use xlink:href="#b" x="19.996" y="4.317"/><use xlink:href="#7"/><use xlink:href="#8" y="2.171"/><use xlink:href="#2" y="4.342"/></svg><svg x="6444"><use xlink:href="#a"/><use xlink:href="#b" x="20.996" y="4.317"/><use xlink:href="#7"/><use xlink:href="#8" y="2.171"/><text y="6.012" class="c">dvd</text><text x="4.008" y="6.012" class="e">(</text><text x="5.01" y="6.012" class="d">feat/rec</text><text x="13.026" y="6.012" class="e">)</text><text x="15.03" y="6.012" class="f">✗</text><text x="17.034" y="6.012" class="d">➜</text><text x="20.04" y="6.012" class="g">e</text></svg><svg x="6623"><use xlink:href="#a"/><use xlink:href="#b" x="21.996" y="4.317"/><use xlink:href="#7"/><use xlink:href="#8" y="2.171"/><text y="6.012" class="c">dvd</text><text x="4.008" y="6.012" class="e">(</text><text x="5.01" y="6.012" class="d">feat/rec</text><text x="13.026" y="6.012" class="e">)</text><text x="15.03" y="6.012" class="f">✗</text><text x="17.034" y="6.012" class="d">➜</text><text x="20.04" y="6.012" class="g">ec</text></svg><svg x="6802"><use xlink:href="#a"/><use xlink:href="#b" x="22.996" y="4.317"/><use xlink:href="#7"/><use xlink:href="#8" y="2.171"/><text y="6.012" class="c">dvd</text><text x="4.008" y="6.012" class="e">(</text><text x="5.01" y="6.012" class="d">feat/rec</text><text x="13.026" y="6.012" class="e">)</text><text x="15.03" y="6.012" class="f">✗</text><text x="17.034" y="6.012" class="d">➜</text><text x="20.04" y="6.012" class="g">ech</text></svg><svg x="6981"><use xlink:href="#a"/><use xlink:href="#b" x="23.996" y="4.317"/><use xlink:href="#7"/><use xlink:href="#8" y="2.171"/><use xlink:href="#9" y="4.342"/></svg><svg x="7160"><use xlink:href="#a"/><use xlink:href="#b" x="24.996" y="4.317"/><use xlink:href="#7"/><use xlink:href="#8" y="2.171"/><use xlink:href="#9" y="4.342"/></svg><svg x="7339"><use xlink:href="#a"/><use xlink:href="#b" x="25.996" y="4.317"/><use xlink:href="#7"/><use xlink:href="#8" y="2.171"/><text y="6.012" class="c">dvd</text><text x="4.008" y="6.012" class="e">(</text><text x="5.01" y="6.012" class="d">feat/rec</text><text x="13.026" y="6.012" class="e">)</text><text x="15.03" y="6.012" class="f">✗</text><text x="17.034" y="6.012" class="d">➜</text><text x="20.04" y="6.012" class="g">echo</text><text x="25.05" y="6.012" class="g">&apos;</text></svg><svg x="7518"><use xlink:href="#a"/><use xlink:href="#b" x="26.996" y="4.317"/><use xlink:href="#7"/><use xlink:href="#8" y="2.171"/><text y="6.012" class="c">dvd</text><text x="4.008" y="6.012" class="e">(</text><text x="5.01" y="6.012" class="d">feat/rec</text><text x="13.026" y="6.012" class="e">)</text><text x="15.03" y="6.012" class="f">✗</text><text x="17.034" y="6.012" class="d">➜</text><text x="20.04" y="6.012" class="g">echo</text><text x="25.05" y="6.012" class="g">&apos;c</text></svg><svg x="7697"><use xlink:href="#a"/><use xlink:href="#b" x="27.996" y="4.317"/><use xlink:href="#7"/><use xlink:href="#8" y="2.171"/><text y="6.012" class="c">dvd</text><text x="4.008" y="6.012" class="e">(</text><text x="5.01" y="6.012" class="d">feat/rec</text><text x="13.026" y="6.012" class="e">)</text><text x="15.03" y="6.012" class="f">✗</text><text x="17.034" y="6.012" class="d">➜</text><text x="20.04" y="6.012" class="g">echo</text><text x="25.05" y="6.012" class="g">&apos;co</text></svg><svg x="7876"><use xlink:href="#a"/><use xlink:href="#b" x="28.996" y="4.317"/><use xlink:href="#7"/><use xlink:href="#8" y="2.171"/><text y="6.012" class="c">dvd</text><text x="4.008" y="6.012" class="e">(</text><text x="5.01" y="6.012" class="d">feat/rec</text><text x="13.026" y="6.012" class="e">)</text><text x="15.03" y="6.012" class="f">✗</text><text x="17.034" y="6.012" class="d">➜</text><text x="20.04" y="6.012" class="g">echo</text><text x="25.05" y="6.012" class="g">&apos;coo</text></svg><svg x="8055"><use xlink:href="#a"/><use xlink:href="#b" x="29.996" y="4.317"/><use xlink:href="#7"/><use xlink:href="#8" y="2.171"/><text y="6.012" class="c">dvd</text><text x="4.008" y="6.012" class="e">(</text><text x="5.01" y="6.012" class="d">feat/rec</text><text x="13.026" y="6.012" class="e">)</text><text x="15.03" y="6.012" class="f">✗</text><text x="17.034" y="6.012" class="d">➜</text><text x="20.04" y="6.012" class="g">echo</text><text x="25.05" y="6.012" class="g">&apos;cool</text></svg><svg x="8234"><use xlink:href="#a"/><use xlink:href="#b" x="30.996" y="4.317"/><use xlink:href="#7"/><use xlink:href="#8" y="2.171"/><use xlink:href="#10" y="4.342"/></svg><svg x="8413"><use xlink:href="#a"/><use xlink:href="#b" x="30.996" y="4.317"/><use xlink:href="#7"/><use xlink:href="#8" y="2.171"/><use xlink:href="#10" y="4.342"/></svg><svg x="8592"><use xlink:href="#a"/><use xlink:href="#b" x="-.004" y="6.488"/><use xlink:href="#7"/><use xlink:href="#8" y="2.171"/><use xlink:href="#10" y="4.342"/></svg><svg x="8771"><use xlink:href="#a"/><use xlink:href="#b" x="-.004" y="8.659"/><use xlink:href="#7"/><use xlink:href="#8" y="2.171"/><use xlink:href="#10" y="4.342"/><use xlink:href="#11" y="6.513"/></svg><svg x="8950"><use xlink:href="#a"/><use xlink:href="#b" x="-.004" y="8.659"/><use xlink:href="#7"/><use xlink:href="#8" y="2.171"/><use xlink:href="#10" y="4.342"/><use xlink:href="#11" y="6.513"/></svg><svg x="9129"><use xlink:href="#a"/><use xlink:href="#b" x="-.004" y="8.659"/><use xlink:href="#7"/><use xlink:href="#8" y="2.171"/><use xlink:href="#10" y="4.342"/><use xlink:href="#11" y="6.513"/></svg><svg x="9308"><use xlink:href="#a"/><use xlink:href="#b" x="-.004" y="8.659"/><use xlink:href="#7"/><use xlink:href="#8" y="2.171"/><use xlink:href="#10" y="4.342"/><use xlink:href="#11" y="6.513"/></svg><svg x="9487"><use xlink:href="#a"/><use xlink:href="#b" x="-.004" y="8.659"/><use xlink:href="#7"/><use xlink:href="#8" y="2.171"/><use xlink:href="#10" y="4.342"/><use xlink:href="#11" y="6.513"/></svg><svg x="9666"><use xlink:href="#a"/><use xlink:href="#b" x="19.996" y="8.659"/><use xlink:href="#7"/><use xlink:href="#8" y="2.171"/><use xlink:href="#10" y="4.342"/><use xlink:href="#11" y="6.513"/><use xlink:href="#12" y="8.684"/></svg><svg x="9845"><use xlink:href="#a"/><use xlink:href="#b" x="19.996" y="8.659"/><use xlink:href="#7"/><use xlink:href="#8" y="2.171"/><use xlink:href="#10" y="4.342"/><use xlink:href="#11" y="6.513"/><use xlink:href="#12" y="8.684"/></svg><svg x="10024"><use xlink:href="#a"/><use xlink:href="#b" x="19.996" y="8.659"/><use xlink:href="#7"/><use xlink:href="#8" y="2.171"/><use xlink:href="#10" y="4.342"/><use xlink:href="#11" y="6.513"/><use xlink:href="#12" y="8.684"/></svg><svg x="10203"><use xlink:href="#a"/><use xlink:href="#b" x="-.004" y="10.83"/><use xlink:href="#7"/><use xlink:href="#8" y="2.171"/><use xlink:href="#10" y="4.342"/><use xlink:href="#11" y="6.513"/><use xlink:href="#12" y="8.684"/></svg></svg></g></g></svg></svg>