<svg xmlns="http://www.w3.org/2000/svg" xmlns:xlink="http://www.w3.org/1999/xlink" width="1535.6" height="1306.8" viewBox="0 0 1535.6000000000001 1306.8"><defs><symbol id="1"><text x="16" y="56" class="c bold">dvd </text><text x="49.6" y="56" class="d bold">➜ </text></symbol><symbol id="2"><text x="16" y="56" class="c bold">dvd </text><text x="49.6" y="56" class="e bold">(</text><text x="58" y="56" class="d bold">feat/rec</text><text x="125.2" y="56" class="e bold">) </text><text x="142" y="56" class="f bold">✗</text><text x="150.4" y="56" class="g"> </text><text x="158.8" y="56" class="d bold">➜ </text></symbol><symbol id="3"><text x="16" y="56" class="c bold">dvd </text><text x="49.6" y="56" class="e bold">(</text><text x="58" y="56" class="d bold">feat/rec</text><text x="125.2" y="56" class="e bold">) </text><text x="142" y="56" class="f bold">✗</text><text x="150.4" y="56" class="g"> </text><text x="158.8" y="56" class="d bold">➜ </text><text x="175.6" y="56" class="g"> t                                                                                                                                                              </text></symbol><symbol id="4"><text x="16" y="56" class="c bold">dvd </text><text x="49.6" y="56" class="e bold">(</text><text x="58" y="56" class="d bold">feat/rec</text><text x="125.2" y="56" class="e bold">) </text><text x="142" y="56" class="f bold">✗</text><text x="150.4" y="56" class="g"> </text><text x="158.8" y="56" class="d bold">➜ </text><text x="175.6" y="56" class="g"> th                                                                                                                                                             </text></symbol><symbol id="5"><text x="16" y="56" class="c bold">dvd </text><text x="49.6" y="56" class="e bold">(</text><text x="58" y="56" class="d bold">feat/rec</text><text x="125.2" y="56" class="e bold">) </text><text x="142" y="56" class="f bold">✗</text><text x="150.4" y="56" class="g"> </text><text x="158.8" y="56" class="d bold">➜ </text><text x="175.6" y="56" class="g"> thi                                                                                                                                                            </text></symbol><symbol id="6"><text x="16" y="56" class="c bold">dvd </text><text x="49.6" y="56" class="e bold">(</text><text x="58" y="56" class="d bold">feat/rec</text><text x="125.2" y="56" class="e bold">) </text><text x="142" y="56" class="f bold">✗</text><text x="150.4" y="56" class="g"> </text><text x="158.8" y="56" class="d bold">➜ </text><text x="175.6" y="56" class="g"> this                                                                                                                                                           </text></symbol><symbol id="7"><text x="16" y="56" class="c bold">dvd </text><text x="49.6" y="56" class="e bold">(</text><text x="58" y="56" class="d bold">feat/rec</text><text x="125.2" y="56" class="e bold">) </text><text x="142" y="56" class="f bold">✗</text><text x="150.4" y="56" class="g"> </text><text x="158.8" y="56" class="d bold">➜ </text><text x="175.6" y="56" class="g"> this i                                                                                                                                                         </text></symbol><symbol id="8"><text x="16" y="56" class="c bold">dvd </text><text x="49.6" y="56" class="e bold">(</text><text x="58" y="56" class="d bold">feat/rec</text><text x="125.2" y="56" class="e bold">) </text><text x="142" y="56" class="f bold">✗</text><text x="150.4" y="56" class="g"> </text><text x="158.8" y="56" class="d bold">➜ </text><text x="175.6" y="56" class="g"> this is                                                                                                                                                        </text></symbol><symbol id="9"><text x="16" y="56" class="c bold">dvd </text><text x="49.6" y="56" class="e bold">(</text><text x="58" y="56" class="d bold">feat/rec</text><text x="125.2" y="56" class="e bold">) </text><text x="142" y="56" class="f bold">✗</text><text x="150.4" y="56" class="g"> </text><text x="158.8" y="56" class="d bold">➜ </text><text x="175.6" y="56" class="g"> this is w                                                                                                                                                      </text></symbol><symbol id="10"><text x="16" y="56" class="c bold">dvd </text><text x="49.6" y="56" class="e bold">(</text><text x="58" y="56" class="d bold">feat/rec</text><text x="125.2" y="56" class="e bold">) </text><text x="142" y="56" class="f bold">✗</text><text x="150.4" y="56" class="g"> </text><text x="158.8" y="56" class="d bold">➜ </text><text x="175.6" y="56" class="g"> this is wa                                                                                                                                                     </text></symbol><symbol id="11"><text x="16" y="56" class="c bold">dvd </text><text x="49.6" y="56" class="e bold">(</text><text x="58" y="56" class="d bold">feat/rec</text><text x="125.2" y="56" class="e bold">) </text><text x="142" y="56" class="f bold">✗</text><text x="150.4" y="56" class="g"> </text><text x="158.8" y="56" class="d bold">➜ </text><text x="175.6" y="56" class="g"> this is wap                                                                                                                                                    </text></symbol><symbol id="12"><text x="16" y="56" class="c bold">dvd </text><text x="49.6" y="56" class="e bold">(</text><text x="58" y="56" class="d bold">feat/rec</text><text x="125.2" y="56" class="e bold">) </text><text x="142" y="56" class="f bold">✗</text><text x="150.4" y="56" class="g"> </text><text x="158.8" y="56" class="d bold">➜ </text><text x="175.6" y="56" class="g"> this is wr                                                                                                                                                     </text></symbol><symbol id="13"><text x="16" y="56" class="c bold">dvd </text><text x="49.6" y="56" class="e bold">(</text><text x="58" y="56" class="d bold">feat/rec</text><text x="125.2" y="56" class="e bold">) </text><text x="142" y="56" class="f bold">✗</text><text x="150.4" y="56" class="g"> </text><text x="158.8" y="56" class="d bold">➜ </text><text x="175.6" y="56" class="g"> this is wra                                                                                                                                                    </text></symbol><symbol id="14"><text x="16" y="56" class="c bold">dvd </text><text x="49.6" y="56" class="e bold">(</text><text x="58" y="56" class="d bold">feat/rec</text><text x="125.2" y="56" class="e bold">) </text><text x="142" y="56" class="f bold">✗</text><text x="150.4" y="56" class="g"> </text><text x="158.8" y="56" class="d bold">➜ </text><text x="175.6" y="56" class="g"> this is wrap                                                                                                                                                   </text></symbol><symbol id="15"><text x="16" y="56" class="c bold">dvd </text><text x="49.6" y="56" class="e bold">(</text><text x="58" y="56" class="d bold">feat/rec</text><text x="125.2" y="56" class="e bold">) </text><text x="142" y="56" class="f bold">✗</text><text x="150.4" y="56" class="g"> </text><text x="158.8" y="56" class="d bold">➜ </text><text x="175.6" y="56" class="g"> this is wrap!                                                                                                                                                  </text></symbol><symbol id="16"><text x="16" y="75.6" class="g">zsh: command not found: this                                                                                                                                                       </text></symbol><symbol id="17"><text x="16" y="95.2" class="c bold">dvd </text><text x="49.6" y="95.2" class="e bold">(</text><text x="58" y="95.2" class="d bold">feat/rec</text><text x="125.2" y="95.2" class="e bold">) </text><text x="142" y="95.2" class="f bold">✗</text><text x="150.4" y="95.2" class="g"> </text><text x="158.8" y="95.2" class="d bold">➜ </text></symbol><symbol id="18"><text x="16" y="95.2" class="c bold">dvd </text><text x="49.6" y="95.2" class="e bold">(</text><text x="58" y="95.2" class="d bold">feat/rec</text><text x="125.2" y="95.2" class="e bold">) </text><text x="142" y="95.2" class="f bold">✗</text><text x="150.4" y="95.2" class="g"> </text><text x="158.8" y="95.2" class="d bold">➜ </text><text x="175.6" y="95.2" class="g"> e                                                                                                                                                              </text></symbol><symbol id="19"><text x="16" y="95.2" class="c bold">dvd </text><text x="49.6" y="95.2" class="e bold">(</text><text x="58" y="95.2" class="d bold">feat/rec</text><text x="125.2" y="95.2" class="e bold">) </text><text x="142" y="95.2" class="f bold">✗</text><text x="150.4" y="95.2" class="g"> </text><text x="158.8" y="95.2" class="d bold">➜ </text><text x="175.6" y="95.2" class="g"> ec                                                                                                                                                             </text></symbol><symbol id="20"><text x="16" y="95.2" class="c bold">dvd </text><text x="49.6" y="95.2" class="e bold">(</text><text x="58" y="95.2" class="d bold">feat/rec</text><text x="125.2" y="95.2" class="e bold">) </text><text x="142" y="95.2" class="f bold">✗</text><text x="150.4" y="95.2" class="g"> </text><text x="158.8" y="95.2" class="d bold">➜ </text><text x="175.6" y="95.2" class="g"> ech                                                                                                                                                            </text></symbol><symbol id="21"><text x="16" y="95.2" class="c bold">dvd </text><text x="49.6" y="95.2" class="e bold">(</text><text x="58" y="95.2" class="d bold">feat/rec</text><text x="125.2" y="95.2" class="e bold">) </text><text x="142" y="95.2" class="f bold">✗</text><text x="150.4" y="95.2" class="g"> </text><text x="158.8" y="95.2" class="d bold">➜ </text><text x="175.6" y="95.2" class="g"> echo                                                                                                                                                           </text></symbol><symbol id="22"><text x="16" y="95.2" class="c bold">dvd </text><text x="49.6" y="95.2" class="e bold">(</text><text x="58" y="95.2" class="d bold">feat/rec</text><text x="125.2" y="95.2" class="e bold">) </text><text x="142" y="95.2" class="f bold">✗</text><text x="150.4" y="95.2" class="g"> </text><text x="158.8" y="95.2" class="d bold">➜ </text><text x="175.6" y="95.2" class="g"> echo &apos;                                                                                                                                                         </text></symbol><symbol id="23"><text x="16" y="95.2" class="c bold">dvd </text><text x="49.6" y="95.2" class="e bold">(</text><text x="58" y="95.2" class="d bold">feat/rec</text><text x="125.2" y="95.2" class="e bold">) </text><text x="142" y="95.2" class="f bold">✗</text><text x="150.4" y="95.2" class="g"> </text><text x="158.8" y="95.2" class="d bold">➜ </text><text x="175.6" y="95.2" class="g"> echo &apos;c                                                                                                                                                        </text></symbol><symbol id="24"><text x="16" y="95.2" class="c bold">dvd </text><text x="49.6" y="95.2" class="e bold">(</text><text x="58" y="95.2" class="d bold">feat/rec</text><text x="125.2" y="95.2" class="e bold">) </text><text x="142" y="95.2" class="f bold">✗</text><text x="150.4" y="95.2" class="g"> </text><text x="158.8" y="95.2" class="d bold">➜ </text><text x="175.6" y="95.2" class="g"> echo &apos;co                                                                                                                                                       </text></symbol><symbol id="25"><text x="16" y="95.2" class="c bold">dvd </text><text x="49.6" y="95.2" class="e bold">(</text><text x="58" y="95.2" class="d bold">feat/rec</text><text x="125.2" y="95.2" class="e bold">) </text><text x="142" y="95.2" class="f bold">✗</text><text x="150.4" y="95.2" class="g"> </text><text x="158.8" y="95.2" class="d bold">➜ </text><text x="175.6" y="95.2" class="g"> echo &apos;coo                                                                                                                                                      </text></symbol><symbol id="26"><text x="16" y="95.2" class="c bold">dvd </text><text x="49.6" y="95.2" class="e bold">(</text><text x="58" y="95.2" class="d bold">feat/rec</text><text x="125.2" y="95.2" class="e bold">) </text><text x="142" y="95.2" class="f bold">✗</text><text x="150.4" y="95.2" class="g"> </text><text x="158.8" y="95.2" class="d bold">➜ </text><text x="175.6" y="95.2" class="g"> echo &apos;cool                                                                                                                                                     </text></symbol><symbol id="27"><text x="16" y="95.2" class="c bold">dvd </text><text x="49.6" y="95.2" class="e bold">(</text><text x="58" y="95.2" class="d bold">feat/rec</text><text x="125.2" y="95.2" class="e bold">) </text><text x="142" y="95.2" class="f bold">✗</text><text x="150.4" y="95.2" class="g"> </text><text x="158.8" y="95.2" class="d bold">➜ </text><text x="175.6" y="95.2" class="g"> echo &apos;cool&apos;                                                                                                                                                    </text></symbol><symbol id="28"><text x="16" y="114.8" class="g">cool                                                                                                                                                                               </text></symbol><symbol id="29"><text x="16" y="134.4" class="c bold">dvd </text><text x="49.6" y="134.4" class="e bold">(</text><text x="58" y="134.4" class="d bold">feat/rec</text><text x="125.2" y="134.4" class="e bold">) </text><text x="142" y="134.4" class="f bold">✗</text><text x="150.4" y="134.4" class="g"> </text><text x="158.8" y="134.4" class="h bold">➜ </text></symbol></defs><style>@keyframes f{0.00%{transform:translateX(0px)}5.20%{transform:translateX(-1535.6000000000001px)}5.55%{transform:translateX(-3071.2000000000003px)}9.21%{transform:translateX(-4606.8px)}10.18%{transform:translateX(-6142.400000000001px)}10.94%{transform:translateX(-7678.000000000001px)}11.47%{transform:translateX(-9213.6px)}12.64%{transform:translateX(-10749.2px)}13.96%{transform:translateX(-12284.800000000001px)}14.57%{transform:translateX(-13820.400000000001px)}15.94%{transform:translateX(-15356.000000000002px)}16.59%{transform:translateX(-16891.600000000002px)}19.17%{transform:translateX(-18427.2px)}21.57%{transform:translateX(-19962.800000000003px)}24.87%{transform:translateX(-21498.4px)}26.57%{transform:translateX(-23034.000000000004px)}27.24%{transform:translateX(-24569.600000000002px)}27.94%{transform:translateX(-26105.2px)}28.50%{transform:translateX(-27640.800000000003px)}32.27%{transform:translateX(-29176.4px)}36.64%{transform:translateX(-30712.000000000004px)}46.66%{transform:translateX(-32247.600000000002px)}47.29%{transform:translateX(-33783.200000000004px)}47.76%{transform:translateX(-35318.8px)}48.50%{transform:translateX(-36854.4px)}49.63%{transform:translateX(-38390px)}51.04%{transform:translateX(-39925.600000000006px)}56.62%{transform:translateX(-41461.200000000004px)}57.14%{transform:translateX(-42996.8px)}58.79%{transform:translateX(-44532.4px)}60.64%{transform:translateX(-46068.00000000001px)}62.23%{transform:translateX(-47603.600000000006px)}66.07%{transform:translateX(-49139.200000000004px)}88.20%{transform:translateX(-50674.8px)}}.a{fill:#282a36}.c{fill:#8be9fd;stroke:#8be9fd}.d{fill:#ff5555;stroke:#ff5555}.e{fill:#bd93f9;stroke:#bd93f9}.f{fill:#f1fa8c;stroke:#f1fa8c}.g{fill:#f8f8f2;stroke:#f8f8f2}.h{fill:#50fa7b;stroke:#50fa7b}text{font-family:'SF Mono',Monaco,Consolas,Menlo,monospace;font-size:14px;dominant-baseline:text-before-edge;white-space:pre}text[class]{stroke:none}.bold{font-weight:700}.italic{font-style:italic}.uline{text-decoration:underline}.strike{text-decoration:line-through}.dim{opacity:0.5}@keyframes blink{0%,50%{opacity:1}50.01%,100%{opacity:0}}.cursor{animation:blink 1s step-end infinite}.cursor-active{opacity:1}</style><g transform="translate(0,0)"><rect width="1535.6" height="1306.8" rx="8" fill="#282a36"/><rect width="1535.6" height="40" rx="8" fill="#282a36"/><path d="M0 32h1535.6v8H0z" fill="#282a36"/><circle cx="16" cy="20" r="6" fill="#ff5f56"/><circle cx="36" cy="20" r="6" fill="#ffbd2e"/><circle cx="56" cy="20" r="6" fill="#27c93f"/><clipPath id="content-clip"><path d="M0 40h1535.6v1266.8H0z" /></clipPath><g clip-path="url(#content-clip)"><g style="animation:f 8.472s steps(1,end) infinite"><g transform="translate(0,0)"><path d="M16 56h8.4v19.6H16z" fill="#f8f8f2" class="cursor"/></g><g transform="translate(1535.6000000000001,0)"><use xlink:href="#1"/><path d="M74.8 56h8.4v19.6H74.8z" fill="#f8f8f2" class="cursor"/></g><g transform="translate(3071.2000000000003,0)"><use xlink:href="#2"/><path d="M184 56h8.4v19.6H184z" fill="#f8f8f2" class="cursor"/></g><g transform="translate(4606.8,0)"><use xlink:href="#3"/><path d="M192.4 56h8.4v19.6H192.4z" fill="#f8f8f2" class="cursor-active"/></g><g transform="translate(6142.400000000001,0)"><use xlink:href="#4"/><path d="M200.8 56h8.4v19.6H200.8z" fill="#f8f8f2" class="cursor-active"/></g><g transform="translate(7678.000000000001,0)"><use xlink:href="#5"/><path d="M209.2 56h8.4v19.6H209.2z" fill="#f8f8f2" class="cursor-active"/></g><g transform="translate(9213.6,0)"><use xlink:href="#6"/><path d="M217.6 56h8.4v19.6H217.6z" fill="#f8f8f2" class="cursor"/></g><g transform="translate(10749.2,0)"><use xlink:href="#6"/><path d="M226 56h8.4v19.6H226z" fill="#f8f8f2" class="cursor-active"/></g><g transform="translate(12284.800000000001,0)"><use xlink:href="#7"/><path d="M234.4 56h8.4v19.6H234.4z" fill="#f8f8f2" class="cursor-active"/></g><g transform="translate(13820.400000000001,0)"><use xlink:href="#8"/><path d="M242.8 56h8.4v19.6H242.8z" fill="#f8f8f2" class="cursor-active"/></g><g transform="translate(15356.000000000002,0)"><use xlink:href="#8"/><path d="M251.2 56h8.4v19.6H251.2z" fill="#f8f8f2" class="cursor-active"/></g><g transform="translate(16891.600000000002,0)"><use xlink:href="#9"/><path d="M259.6 56h8.4v19.6H259.6z" fill="#f8f8f2" class="cursor-active"/></g><g transform="translate(18427.2,0)"><use xlink:href="#10"/><path d="M268 56h8.4v19.6H268z" fill="#f8f8f2" class="cursor-active"/></g><g transform="translate(19962.800000000003,0)"><use xlink:href="#11"/><path d="M276.4 56h8.4v19.6H276.4z" fill="#f8f8f2" class="cursor-active"/></g><g transform="translate(21498.4,0)"><use xlink:href="#10"/><path d="M268 56h8.4v19.6H268z" fill="#f8f8f2" class="cursor-active"/></g><g transform="translate(23034.000000000004,0)"><use xlink:href="#9"/><path d="M259.6 56h8.4v19.6H259.6z" fill="#f8f8f2" class="cursor-active"/></g><g transform="translate(24569.600000000002,0)"><use xlink:href="#12"/><path d="M268 56h8.4v19.6H268z" fill="#f8f8f2" class="cursor-active"/></g><g transform="translate(26105.2,0)"><use xlink:href="#13"/><path d="M276.4 56h8.4v19.6H276.4z" fill="#f8f8f2" class="cursor-active"/></g><g transform="translate(27640.800000000003,0)"><use xlink:href="#14"/><path d="M284.8 56h8.4v19.6H284.8z" fill="#f8f8f2" class="cursor"/></g><g transform="translate(29176.4,0)"><use xlink:href="#15"/><path d="M293.2 56h8.4v19.6H293.2z" fill="#f8f8f2" class="cursor-active"/></g><g transform="translate(30712.000000000004,0)"><use xlink:href="#15"/><use xlink:href="#16"/><use xlink:href="#17"/><path d="M184 95.2h8.4v19.6H184z" fill="#f8f8f2" class="cursor"/></g><g transform="translate(32247.600000000002,0)"><use xlink:href="#15"/><use xlink:href="#16"/><use xlink:href="#18"/><path d="M192.4 95.2h8.4v19.6H192.4z" fill="#f8f8f2" class="cursor-active"/></g><g transform="translate(33783.200000000004,0)"><use xlink:href="#15"/><use xlink:href="#16"/><use xlink:href="#19"/><path d="M200.8 95.2h8.4v19.6H200.8z" fill="#f8f8f2" class="cursor-active"/></g><g transform="translate(35318.8,0)"><use xlink:href="#15"/><use xlink:href="#16"/><use xlink:href="#20"/><path d="M209.2 95.2h8.4v19.6H209.2z" fill="#f8f8f2" class="cursor"/></g><g transform="translate(36854.4,0)"><use xlink:href="#15"/><use xlink:href="#16"/><use xlink:href="#21"/><path d="M217.6 95.2h8.4v19.6H217.6z" fill="#f8f8f2" class="cursor-active"/></g><g transform="translate(38390,0)"><use xlink:href="#15"/><use xlink:href="#16"/><use xlink:href="#21"/><path d="M226 95.2h8.4v19.6H226z" fill="#f8f8f2" class="cursor-active"/></g><g transform="translate(39925.600000000006,0)"><use xlink:href="#15"/><use xlink:href="#16"/><use xlink:href="#22"/><path d="M234.4 95.2h8.4v19.6H234.4z" fill="#f8f8f2" class="cursor-active"/></g><g transform="translate(41461.200000000004,0)"><use xlink:href="#15"/><use xlink:href="#16"/><use xlink:href="#23"/><path d="M242.8 95.2h8.4v19.6H242.8z" fill="#f8f8f2" class="cursor-active"/></g><g transform="translate(42996.8,0)"><use xlink:href="#15"/><use xlink:href="#16"/><use xlink:href="#24"/><path d="M251.2 95.2h8.4v19.6H251.2z" fill="#f8f8f2" class="cursor"/></g><g transform="translate(44532.4,0)"><use xlink:href="#15"/><use xlink:href="#16"/><use xlink:href="#25"/><path d="M259.6 95.2h8.4v19.6H259.6z" fill="#f8f8f2" class="cursor-active"/></g><g transform="translate(46068.00000000001,0)"><use xlink:href="#15"/><use xlink:href="#16"/><use xlink:href="#26"/><path d="M268 95.2h8.4v19.6H268z" fill="#f8f8f2" class="cursor-active"/></g><g transform="translate(47603.600000000006,0)"><use xlink:href="#15"/><use xlink:href="#16"/><use xlink:href="#27"/><path d="M276.4 95.2h8.4v19.6H276.4z" fill="#f8f8f2" class="cursor-active"/></g><g transform="translate(49139.200000000004,0)"><use xlink:href="#15"/><use xlink:href="#16"/><use xlink:href="#27"/><use xlink:href="#28"/><use xlink:href="#29"/><path d="M184 134.4h8.4v19.6H184z" fill="#f8f8f2" class="cursor"/></g><g transform="translate(50674.8,0)"><use xlink:href="#15"/><use xlink:href="#16"/><use xlink:href="#27"/><use xlink:href="#28"/><use xlink:href="#29"/><path d="M16 154h8.4v19.6H16z" fill="#f8f8f2" class="cursor"/></g></g></g></g></svg>