<svg xmlns="http://www.w3.org/2000/svg" xmlns:xlink="http://www.w3.org/1999/xlink" width="326" height="95" viewBox="0 0 326 95"><defs><symbol id="1"><text x="16" y="17.1" fill="#bcaafe">❯</text></symbol><symbol id="2"><text x="16" y="17.1" fill="#bcaafe">❯ </text><text x="32.8" y="17.1" fill="#e6e6e6">e</text></symbol><symbol id="3"><text x="16" y="17.1" fill="#bcaafe">❯ </text><text x="32.8" y="17.1" fill="#e6e6e6">ec</text></symbol><symbol id="4"><text x="16" y="17.1" fill="#bcaafe">❯ </text><text x="32.8" y="17.1" fill="#e6e6e6">ech</text></symbol><symbol id="5"><text x="16" y="17.1" fill="#bcaafe">❯ </text><text x="32.8" y="17.1" fill="#e6e6e6">echo</text></symbol><symbol id="6"><text x="16" y="17.1" fill="#bcaafe">❯ </text><text x="32.8" y="17.1" fill="#e6e6e6">echo &apos;</text></symbol><symbol id="7"><text x="16" y="17.1" fill="#bcaafe">❯ </text><text x="32.8" y="17.1" fill="#e6e6e6">echo &apos;H</text></symbol><symbol id="8"><text x="16" y="17.1" fill="#bcaafe">❯ </text><text x="32.8" y="17.1" fill="#e6e6e6">echo &apos;He</text></symbol><symbol id="9"><text x="16" y="17.1" fill="#bcaafe">❯ </text><text x="32.8" y="17.1" fill="#e6e6e6">echo &apos;Hel</text></symbol><symbol id="10"><text x="16" y="17.1" fill="#bcaafe">❯ </text><text x="32.8" y="17.1" fill="#e6e6e6">echo &apos;Hell</text></symbol><symbol id="11"><text x="16" y="17.1" fill="#bcaafe">❯ </text><text x="32.8" y="17.1" fill="#e6e6e6">echo &apos;Hello</text></symbol><symbol id="12"><text x="16" y="17.1" fill="#bcaafe">❯ </text><text x="32.8" y="17.1" fill="#e6e6e6">echo &apos;Hello w</text></symbol><symbol id="13"><text x="16" y="17.1" fill="#bcaafe">❯ </text><text x="32.8" y="17.1" fill="#e6e6e6">echo &apos;Hello wo</text></symbol><symbol id="14"><text x="16" y="17.1" fill="#bcaafe">❯ </text><text x="32.8" y="17.1" fill="#e6e6e6">echo &apos;Hello wor</text></symbol><symbol id="15"><text x="16" y="17.1" fill="#bcaafe">❯ </text><text x="32.8" y="17.1" fill="#e6e6e6">echo &apos;Hello worl</text></symbol><symbol id="16"><text x="16" y="17.1" fill="#bcaafe">❯ </text><text x="32.8" y="17.1" fill="#e6e6e6">echo &apos;Hello world</text></symbol><symbol id="17"><text x="16" y="17.1" fill="#bcaafe">❯ </text><text x="32.8" y="17.1" fill="#e6e6e6">echo &apos;Hello world&apos;</text></symbol><symbol id="18"><text x="16" y="36.7" fill="#e6e6e6">Hello world</text></symbol><symbol id="19"><text x="16" y="56.3" fill="#bcaafe">❯</text></symbol><symbol id="20"><text x="16" y="56.3" fill="#bcaafe">❯ </text><text x="32.8" y="56.3" fill="#e6e6e6">e</text></symbol><symbol id="21"><text x="16" y="56.3" fill="#bcaafe">❯ </text><text x="32.8" y="56.3" fill="#e6e6e6">ec</text></symbol><symbol id="22"><text x="16" y="56.3" fill="#bcaafe">❯ </text><text x="32.8" y="56.3" fill="#e6e6e6">ech</text></symbol><symbol id="23"><text x="16" y="56.3" fill="#bcaafe">❯ </text><text x="32.8" y="56.3" fill="#e6e6e6">echo</text></symbol><symbol id="24"><text x="16" y="56.3" fill="#bcaafe">❯ </text><text x="32.8" y="56.3" fill="#e6e6e6">echo &apos;</text></symbol><symbol id="25"><text x="16" y="56.3" fill="#bcaafe">❯ </text><text x="32.8" y="56.3" fill="#e6e6e6">echo &apos;F</text></symbol><symbol id="26"><text x="16" y="56.3" fill="#bcaafe">❯ </text><text x="32.8" y="56.3" fill="#e6e6e6">echo &apos;Fa</text></symbol><symbol id="27"><text x="16" y="56.3" fill="#bcaafe">❯ </text><text x="32.8" y="56.3" fill="#e6e6e6">echo &apos;Fas</text></symbol><symbol id="28"><text x="16" y="56.3" fill="#bcaafe">❯ </text><text x="32.8" y="56.3" fill="#e6e6e6">echo &apos;Fast</text></symbol><symbol id="29"><text x="16" y="56.3" fill="#bcaafe">❯ </text><text x="32.8" y="56.3" fill="#e6e6e6">echo &apos;Fast r</text></symbol><symbol id="30"><text x="16" y="56.3" fill="#bcaafe">❯ </text><text x="32.8" y="56.3" fill="#e6e6e6">echo &apos;Fast re</text></symbol><symbol id="31"><text x="16" y="56.3" fill="#bcaafe">❯ </text><text x="32.8" y="56.3" fill="#e6e6e6">echo &apos;Fast rew</text></symbol><symbol id="32"><text x="16" y="56.3" fill="#bcaafe">❯ </text><text x="32.8" y="56.3" fill="#e6e6e6">echo &apos;Fast rewi</text></symbol><symbol id="33"><text x="16" y="56.3" fill="#bcaafe">❯ </text><text x="32.8" y="56.3" fill="#e6e6e6">echo &apos;Fast rewin</text></symbol><symbol id="34"><text x="16" y="56.3" fill="#bcaafe">❯ </text><text x="32.8" y="56.3" fill="#e6e6e6">echo &apos;Fast rewind</text></symbol><symbol id="35"><text x="16" y="56.3" fill="#bcaafe">❯ </text><text x="32.8" y="56.3" fill="#e6e6e6">echo &apos;Fast rewind t</text></symbol><symbol id="36"><text x="16" y="56.3" fill="#bcaafe">❯ </text><text x="32.8" y="56.3" fill="#e6e6e6">echo &apos;Fast rewind th</text></symbol><symbol id="37"><text x="16" y="56.3" fill="#bcaafe">❯ </text><text x="32.8" y="56.3" fill="#e6e6e6">echo &apos;Fast rewind the</text></symbol><symbol id="38"><text x="16" y="56.3" fill="#bcaafe">❯ </text><text x="32.8" y="56.3" fill="#e6e6e6">echo &apos;Fast rewind then</text></symbol><symbol id="39"><text x="16" y="56.3" fill="#bcaafe">❯ </text><text x="32.8" y="56.3" fill="#e6e6e6">echo &apos;Fast rewind then p</text></symbol><symbol id="40"><text x="16" y="56.3" fill="#bcaafe">❯ </text><text x="32.8" y="56.3" fill="#e6e6e6">echo &apos;Fast rewind then pa</text></symbol><symbol id="41"><text x="16" y="56.3" fill="#bcaafe">❯ </text><text x="32.8" y="56.3" fill="#e6e6e6">echo &apos;Fast rewind then pau</text></symbol><symbol id="42"><text x="16" y="56.3" fill="#bcaafe">❯ </text><text x="32.8" y="56.3" fill="#e6e6e6">echo &apos;Fast rewind then paus</text></symbol><symbol id="43"><text x="16" y="56.3" fill="#bcaafe">❯ </text><text x="32.8" y="56.3" fill="#e6e6e6">echo &apos;Fast rewind then pause</text></symbol><symbol id="44"><text x="16" y="56.3" fill="#bcaafe">❯ </text><text x="32.8" y="56.3" fill="#e6e6e6">echo &apos;Fast rewind then pause.</text></symbol><symbol id="45"><text x="16" y="56.3" fill="#bcaafe">❯ </text><text x="32.8" y="56.3" fill="#e6e6e6">echo &apos;Fast rewind then pause..</text></symbol><symbol id="46"><text x="16" y="56.3" fill="#bcaafe">❯ </text><text x="32.8" y="56.3" fill="#e6e6e6">echo &apos;Fast rewind then pause...</text></symbol><symbol id="47"><text x="16" y="56.3" fill="#bcaafe">❯ </text><text x="32.8" y="56.3" fill="#e6e6e6">echo &apos;Fast rewind then pause...&apos;</text></symbol></defs><style>text{font-family:'SF Mono',Monaco,Consolas,Menlo,monospace;font-size:14px;dominant-baseline:text-before-edge;white-space:pre;}.bold{font-weight:700}.italic{font-style:italic}.uline{text-decoration:underline}.strike{text-decoration:line-through}.dim{opacity:0.5}@keyframes blink{0%,50%{opacity:1}50.01%,100%{opacity:0}}.cursor{animation:blink 1s step-end infinite;mix-blend-mode:difference}.cursor-active{opacity:1;mix-blend-mode:difference}</style><g transform="translate(0,0)"><rect width="326" height="95" rx="8" fill="#292a2b"/><clipPath id="content-clip"><path d="M0 0h326v95H0z" /></clipPath><g clip-path="url(#content-clip)"><g><g transform="translate(0,0)"><use xlink:href="#1"/><path d="M32.8 16h8.4v19.6H32.8z" fill="#ff75b5" class="cursor"/></g><g transform="translate(0,95)"><use xlink:href="#2"/><path d="M41.2 16h8.4v19.6H41.2z" fill="#ff75b5" class="cursor-active"/></g><g transform="translate(0,190)"><use xlink:href="#3"/><path d="M49.6 16h8.4v19.6H49.6z" fill="#ff75b5" class="cursor-active"/></g><g transform="translate(0,285)"><use xlink:href="#4"/><path d="M58 16h8.4v19.6H58z" fill="#ff75b5" class="cursor-active"/></g><g transform="translate(0,380)"><use xlink:href="#5"/><path d="M66.4 16h8.4v19.6H66.4z" fill="#ff75b5" class="cursor-active"/></g><g transform="translate(0,475)"><use xlink:href="#5"/><path d="M74.8 16h8.4v19.6H74.8z" fill="#ff75b5" class="cursor-active"/></g><g transform="translate(0,570)"><use xlink:href="#6"/><path d="M83.2 16h8.4v19.6H83.2z" fill="#ff75b5" class="cursor-active"/></g><g transform="translate(0,665)"><use xlink:href="#7"/><path d="M91.6 16h8.4v19.6H91.6z" fill="#ff75b5" class="cursor-active"/></g><g transform="translate(0,760)"><use xlink:href="#8"/><path d="M100 16h8.4v19.6H100z" fill="#ff75b5" class="cursor-active"/></g><g transform="translate(0,855)"><use xlink:href="#9"/><path d="M108.4 16h8.4v19.6H108.4z" fill="#ff75b5" class="cursor-active"/></g><g transform="translate(0,950)"><use xlink:href="#10"/><path d="M116.8 16h8.4v19.6H116.8z" fill="#ff75b5" class="cursor-active"/></g><g transform="translate(0,1045)"><use xlink:href="#11"/><path d="M125.2 16h8.4v19.6H125.2z" fill="#ff75b5" class="cursor-active"/></g><g transform="translate(0,1140)"><use xlink:href="#11"/><path d="M133.6 16h8.4v19.6H133.6z" fill="#ff75b5" class="cursor-active"/></g><g transform="translate(0,1235)"><use xlink:href="#12"/><path d="M142 16h8.4v19.6H142z" fill="#ff75b5" class="cursor-active"/></g><g transform="translate(0,1330)"><use xlink:href="#13"/><path d="M150.4 16h8.4v19.6H150.4z" fill="#ff75b5" class="cursor-active"/></g><g transform="translate(0,1425)"><use xlink:href="#14"/><path d="M158.8 16h8.4v19.6H158.8z" fill="#ff75b5" class="cursor-active"/></g><g transform="translate(0,1520)"><use xlink:href="#15"/><path d="M167.2 16h8.4v19.6H167.2z" fill="#ff75b5" class="cursor-active"/></g><g transform="translate(0,1615)"><use xlink:href="#16"/><path d="M175.6 16h8.4v19.6H175.6z" fill="#ff75b5" class="cursor-active"/></g><g transform="translate(0,1710)"><use xlink:href="#17"/><path d="M184 16h8.4v19.6H184z" fill="#ff75b5" class="cursor-active"/></g><g transform="translate(0,1805)"><use xlink:href="#17"/><path d="M184 16h8.4v19.6H184z" fill="#ff75b5" class="cursor"/></g><g transform="translate(0,1900)"><use xlink:href="#17"/></g><g transform="translate(0,1995)"><use xlink:href="#17"/><use xlink:href="#18"/></g><g transform="translate(0,2090)"><use xlink:href="#17"/><use xlink:href="#18"/><use xlink:href="#19"/><path d="M32.8 55.2h8.4v19.6H32.8z" fill="#ff75b5" class="cursor"/></g><g transform="translate(0,2185)"><use xlink:href="#17"/><use xlink:href="#18"/><use xlink:href="#20"/><path d="M41.2 55.2h8.4v19.6H41.2z" fill="#ff75b5" class="cursor-active"/></g><g transform="translate(0,2280)"><use xlink:href="#17"/><use xlink:href="#18"/><use xlink:href="#21"/><path d="M49.6 55.2h8.4v19.6H49.6z" fill="#ff75b5" class="cursor-active"/></g><g transform="translate(0,2375)"><use xlink:href="#17"/><use xlink:href="#18"/><use xlink:href="#22"/><path d="M58 55.2h8.4v19.6H58z" fill="#ff75b5" class="cursor-active"/></g><g transform="translate(0,2470)"><use xlink:href="#17"/><use xlink:href="#18"/><use xlink:href="#23"/><path d="M66.4 55.2h8.4v19.6H66.4z" fill="#ff75b5" class="cursor-active"/></g><g transform="translate(0,2565)"><use xlink:href="#17"/><use xlink:href="#18"/><use xlink:href="#23"/><path d="M74.8 55.2h8.4v19.6H74.8z" fill="#ff75b5" class="cursor-active"/></g><g transform="translate(0,2660)"><use xlink:href="#17"/><use xlink:href="#18"/><use xlink:href="#24"/><path d="M83.2 55.2h8.4v19.6H83.2z" fill="#ff75b5" class="cursor-active"/></g><g transform="translate(0,2755)"><use xlink:href="#17"/><use xlink:href="#18"/><use xlink:href="#25"/><path d="M91.6 55.2h8.4v19.6H91.6z" fill="#ff75b5" class="cursor-active"/></g><g transform="translate(0,2850)"><use xlink:href="#17"/><use xlink:href="#18"/><use xlink:href="#26"/><path d="M100 55.2h8.4v19.6H100z" fill="#ff75b5" class="cursor-active"/></g><g transform="translate(0,2945)"><use xlink:href="#17"/><use xlink:href="#18"/><use xlink:href="#27"/><path d="M108.4 55.2h8.4v19.6H108.4z" fill="#ff75b5" class="cursor-active"/></g><g transform="translate(0,3040)"><use xlink:href="#17"/><use xlink:href="#18"/><use xlink:href="#28"/><path d="M116.8 55.2h8.4v19.6H116.8z" fill="#ff75b5" class="cursor-active"/></g><g transform="translate(0,3135)"><use xlink:href="#17"/><use xlink:href="#18"/><use xlink:href="#28"/><path d="M125.2 55.2h8.4v19.6H125.2z" fill="#ff75b5" class="cursor-active"/></g><g transform="translate(0,3230)"><use xlink:href="#17"/><use xlink:href="#18"/><use xlink:href="#29"/><path d="M133.6 55.2h8.4v19.6H133.6z" fill="#ff75b5" class="cursor-active"/></g><g transform="translate(0,3325)"><use xlink:href="#17"/><use xlink:href="#18"/><use xlink:href="#30"/><path d="M142 55.2h8.4v19.6H142z" fill="#ff75b5" class="cursor-active"/></g><g transform="translate(0,3420)"><use xlink:href="#17"/><use xlink:href="#18"/><use xlink:href="#31"/><path d="M150.4 55.2h8.4v19.6H150.4z" fill="#ff75b5" class="cursor-active"/></g><g transform="translate(0,3515)"><use xlink:href="#17"/><use xlink:href="#18"/><use xlink:href="#32"/><path d="M158.8 55.2h8.4v19.6H158.8z" fill="#ff75b5" class="cursor-active"/></g><g transform="translate(0,3610)"><use xlink:href="#17"/><use xlink:href="#18"/><use xlink:href="#33"/><path d="M167.2 55.2h8.4v19.6H167.2z" fill="#ff75b5" class="cursor-active"/></g><g transform="translate(0,3705)"><use xlink:href="#17"/><use xlink:href="#18"/><use xlink:href="#34"/><path d="M175.6 55.2h8.4v19.6H175.6z" fill="#ff75b5" class="cursor-active"/></g><g transform="translate(0,3800)"><use xlink:href="#17"/><use xlink:href="#18"/><use xlink:href="#34"/><path d="M184 55.2h8.4v19.6H184z" fill="#ff75b5" class="cursor-active"/></g><g transform="translate(0,3895)"><use xlink:href="#17"/><use xlink:href="#18"/><use xlink:href="#35"/><path d="M192.4 55.2h8.4v19.6H192.4z" fill="#ff75b5" class="cursor-active"/></g><g transform="translate(0,3990)"><use xlink:href="#17"/><use xlink:href="#18"/><use xlink:href="#36"/><path d="M200.8 55.2h8.4v19.6H200.8z" fill="#ff75b5" class="cursor-active"/></g><g transform="translate(0,4085)"><use xlink:href="#17"/><use xlink:href="#18"/><use xlink:href="#37"/><path d="M209.2 55.2h8.4v19.6H209.2z" fill="#ff75b5" class="cursor-active"/></g><g transform="translate(0,4180)"><use xlink:href="#17"/><use xlink:href="#18"/><use xlink:href="#38"/><path d="M217.6 55.2h8.4v19.6H217.6z" fill="#ff75b5" class="cursor-active"/></g><g transform="translate(0,4275)"><use xlink:href="#17"/><use xlink:href="#18"/><use xlink:href="#38"/><path d="M226 55.2h8.4v19.6H226z" fill="#ff75b5" class="cursor-active"/></g><g transform="translate(0,4370)"><use xlink:href="#17"/><use xlink:href="#18"/><use xlink:href="#39"/><path d="M234.4 55.2h8.4v19.6H234.4z" fill="#ff75b5" class="cursor-active"/></g><g transform="translate(0,4465)"><use xlink:href="#17"/><use xlink:href="#18"/><use xlink:href="#40"/><path d="M242.8 55.2h8.4v19.6H242.8z" fill="#ff75b5" class="cursor-active"/></g><g transform="translate(0,4560)"><use xlink:href="#17"/><use xlink:href="#18"/><use xlink:href="#41"/><path d="M251.2 55.2h8.4v19.6H251.2z" fill="#ff75b5" class="cursor-active"/></g><g transform="translate(0,4655)"><use xlink:href="#17"/><use xlink:href="#18"/><use xlink:href="#42"/><path d="M259.6 55.2h8.4v19.6H259.6z" fill="#ff75b5" class="cursor-active"/></g><g transform="translate(0,4750)"><use xlink:href="#17"/><use xlink:href="#18"/><use xlink:href="#43"/><path d="M268 55.2h8.4v19.6H268z" fill="#ff75b5" class="cursor-active"/></g><g transform="translate(0,4845)"><use xlink:href="#17"/><use xlink:href="#18"/><use xlink:href="#44"/><path d="M276.4 55.2h8.4v19.6H276.4z" fill="#ff75b5" class="cursor-active"/></g><g transform="translate(0,4940)"><use xlink:href="#17"/><use xlink:href="#18"/><use xlink:href="#45"/><path d="M284.8 55.2h8.4v19.6H284.8z" fill="#ff75b5" class="cursor-active"/></g><g transform="translate(0,5035)"><use xlink:href="#17"/><use xlink:href="#18"/><use xlink:href="#46"/><path d="M293.2 55.2h8.4v19.6H293.2z" fill="#ff75b5" class="cursor-active"/></g><g transform="translate(0,5130)"><use xlink:href="#17"/><use xlink:href="#18"/><use xlink:href="#47"/><path d="M301.6 55.2h8.4v19.6H301.6z" fill="#ff75b5" class="cursor-active"/></g><g transform="translate(0,5225)"><use xlink:href="#17"/><use xlink:href="#18"/><use xlink:href="#47"/><path d="M301.6 55.2h8.4v19.6H301.6z" fill="#ff75b5" class="cursor"/></g><animateTransform attributeName="transform" type="translate" values="0 0;0 -95;0 -190;0 -285;0 -380;0 -475;0 -570;0 -665;0 -760;0 -855;0 -950;0 -1045;0 -1140;0 -1235;0 -1330;0 -1425;0 -1520;0 -1615;0 -1710;0 -1805;0 -1900;0 -1995;0 -2090;0 -2185;0 -2280;0 -2375;0 -2470;0 -2565;0 -2660;0 -2755;0 -2850;0 -2945;0 -3040;0 -3135;0 -3230;0 -3325;0 -3420;0 -3515;0 -3610;0 -3705;0 -3800;0 -3895;0 -3990;0 -4085;0 -4180;0 -4275;0 -4370;0 -4465;0 -4560;0 -4655;0 -4750;0 -4845;0 -4940;0 -5035;0 -5130;0 -5225;0 -5130;0 -5035;0 -4940;0 -4845;0 -4750;0 -4655;0 -4560;0 -4465;0 -4370;0 -4275;0 -4180;0 -4085;0 -3990;0 -3895;0 -3800;0 -3705;0 -3610;0 -3515;0 -3420;0 -3325;0 -3230;0 -3135;0 -3040;0 -2945;0 -2850;0 -2755;0 -2660;0 -2565;0 -2470;0 -2375;0 -2280;0 -2185;0 -2090;0 -1995;0 -1900;0 -1805;0 -1710;0 -1615;0 -1520;0 -1425;0 -1330;0 -1235;0 -1140;0 -1045;0 -950;0 -855;0 -760;0 -665;0 -570;0 -475;0 -380;0 -285;0 -190;0 -95;0 0;0 0" keyTimes="0;0.0072;0.0134;0.0194;0.0255;0.0317;0.0379;0.0444;0.0505;0.0566;0.0627;0.0691;0.0754;0.0814;0.0874;0.0937;0.0999;0.106;0.112;0.1121;0.1847;0.1857;0.1995;0.2058;0.2116;0.2177;0.2237;0.2299;0.2362;0.2422;0.248;0.2541;0.2604;0.2664;0.2727;0.2787;0.2849;0.2906;0.2967;0.303;0.3094;0.3158;0.3218;0.3278;0.334;0.3399;0.3461;0.3523;0.3589;0.365;0.3711;0.377;0.383;0.389;0.3951;0.3952;0.7564;0.7565;0.7571;0.7577;0.7583;0.7589;0.7595;0.7601;0.7607;0.7613;0.762;0.7626;0.7632;0.7638;0.7644;0.765;0.7657;0.7663;0.7669;0.7675;0.7681;0.7687;0.7693;0.7699;0.7705;0.7712;0.7717;0.7723;0.773;0.7736;0.7742;0.7748;0.7754;0.776;0.7774;0.7775;0.7847;0.7848;0.7854;0.786;0.7866;0.7872;0.7878;0.7884;0.7891;0.7897;0.7903;0.7909;0.7915;0.7922;0.7928;0.7934;0.794;0.7946;0.7952;1" dur="8.34s" repeatCount="indefinite" calcMode="discrete" fill="freeze"/></g></g></g></svg>