<svg xmlns="http://www.w3.org/2000/svg" xmlns:xlink="http://www.w3.org/1999/xlink" width="293" height="99" viewBox="0 0 293 99"><defs><symbol id="1"><text x="16" y="17.1" class="c">❯</text></symbol><symbol id="2"><text x="16" y="17.1" class="c">❯ </text><text x="32.8" y="17.1" class="d">e</text></symbol><symbol id="3"><text x="16" y="17.1" class="c">❯ </text><text x="32.8" y="17.1" class="d">ec</text></symbol><symbol id="4"><text x="16" y="17.1" class="c">❯ </text><text x="32.8" y="17.1" class="d">ech</text></symbol><symbol id="5"><text x="16" y="17.1" class="c">❯ </text><text x="32.8" y="17.1" class="d">echo</text></symbol><symbol id="6"><text x="16" y="17.1" class="c">❯ </text><text x="32.8" y="17.1" class="d">echo &apos;</text></symbol><symbol id="7"><text x="16" y="17.1" class="c">❯ </text><text x="32.8" y="17.1" class="d">echo &apos;H</text></symbol><symbol id="8"><text x="16" y="17.1" class="c">❯ </text><text x="32.8" y="17.1" class="d">echo &apos;He</text></symbol><symbol id="9"><text x="16" y="17.1" class="c">❯ </text><text x="32.8" y="17.1" class="d">echo &apos;Hel</text></symbol><symbol id="10"><text x="16" y="17.1" class="c">❯ </text><text x="32.8" y="17.1" class="d">echo &apos;Hell</text></symbol><symbol id="11"><text x="16" y="17.1" class="c">❯ </text><text x="32.8" y="17.1" class="d">echo &apos;Hello</text></symbol><symbol id="12"><text x="16" y="17.1" class="c">❯ </text><text x="32.8" y="17.1" class="d">echo &apos;Hello w</text></symbol><symbol id="13"><text x="16" y="17.1" class="c">❯ </text><text x="32.8" y="17.1" class="d">echo &apos;Hello wo</text></symbol><symbol id="14"><text x="16" y="17.1" class="c">❯ </text><text x="32.8" y="17.1" class="d">echo &apos;Hello wor</text></symbol><symbol id="15"><text x="16" y="17.1" class="c">❯ </text><text x="32.8" y="17.1" class="d">echo &apos;Hello worl</text></symbol><symbol id="16"><text x="16" y="17.1" class="c">❯ </text><text x="32.8" y="17.1" class="d">echo &apos;Hello world</text></symbol><symbol id="17"><text x="16" y="17.1" class="c">❯ </text><text x="32.8" y="17.1" class="d">echo &apos;Hello world&apos;</text></symbol><symbol id="18"><text x="16" y="36.7" class="d">Hello world</text></symbol><symbol id="19"><text x="16" y="56.3" class="c">❯</text></symbol><symbol id="20"><text x="16" y="56.3" class="c">❯ </text><text x="32.8" y="56.3" class="d">e</text></symbol><symbol id="21"><text x="16" y="56.3" class="c">❯ </text><text x="32.8" y="56.3" class="d">ec</text></symbol><symbol id="22"><text x="16" y="56.3" class="c">❯ </text><text x="32.8" y="56.3" class="d">ech</text></symbol><symbol id="23"><text x="16" y="56.3" class="c">❯ </text><text x="32.8" y="56.3" class="d">echo</text></symbol><symbol id="24"><text x="16" y="56.3" class="c">❯ </text><text x="32.8" y="56.3" class="d">echo &apos;</text></symbol><symbol id="25"><text x="16" y="56.3" class="c">❯ </text><text x="32.8" y="56.3" class="d">echo &apos;R</text></symbol><symbol id="26"><text x="16" y="56.3" class="c">❯ </text><text x="32.8" y="56.3" class="d">echo &apos;Re</text></symbol><symbol id="27"><text x="16" y="56.3" class="c">❯ </text><text x="32.8" y="56.3" class="d">echo &apos;Rev</text></symbol><symbol id="28"><text x="16" y="56.3" class="c">❯ </text><text x="32.8" y="56.3" class="d">echo &apos;Reve</text></symbol><symbol id="29"><text x="16" y="56.3" class="c">❯ </text><text x="32.8" y="56.3" class="d">echo &apos;Rever</text></symbol><symbol id="30"><text x="16" y="56.3" class="c">❯ </text><text x="32.8" y="56.3" class="d">echo &apos;Revers</text></symbol><symbol id="31"><text x="16" y="56.3" class="c">❯ </text><text x="32.8" y="56.3" class="d">echo &apos;Reverse</text></symbol><symbol id="32"><text x="16" y="56.3" class="c">❯ </text><text x="32.8" y="56.3" class="d">echo &apos;Reverse t</text></symbol><symbol id="33"><text x="16" y="56.3" class="c">❯ </text><text x="32.8" y="56.3" class="d">echo &apos;Reverse th</text></symbol><symbol id="34"><text x="16" y="56.3" class="c">❯ </text><text x="32.8" y="56.3" class="d">echo &apos;Reverse the</text></symbol><symbol id="35"><text x="16" y="56.3" class="c">❯ </text><text x="32.8" y="56.3" class="d">echo &apos;Reverse then</text></symbol><symbol id="36"><text x="16" y="56.3" class="c">❯ </text><text x="32.8" y="56.3" class="d">echo &apos;Reverse then p</text></symbol><symbol id="37"><text x="16" y="56.3" class="c">❯ </text><text x="32.8" y="56.3" class="d">echo &apos;Reverse then pa</text></symbol><symbol id="38"><text x="16" y="56.3" class="c">❯ </text><text x="32.8" y="56.3" class="d">echo &apos;Reverse then pau</text></symbol><symbol id="39"><text x="16" y="56.3" class="c">❯ </text><text x="32.8" y="56.3" class="d">echo &apos;Reverse then paus</text></symbol><symbol id="40"><text x="16" y="56.3" class="c">❯ </text><text x="32.8" y="56.3" class="d">echo &apos;Reverse then pause</text></symbol><symbol id="41"><text x="16" y="56.3" class="c">❯ </text><text x="32.8" y="56.3" class="d">echo &apos;Reverse then pause.</text></symbol><symbol id="42"><text x="16" y="56.3" class="c">❯ </text><text x="32.8" y="56.3" class="d">echo &apos;Reverse then pause..</text></symbol><symbol id="43"><text x="16" y="56.3" class="c">❯ </text><text x="32.8" y="56.3" class="d">echo &apos;Reverse then pause...</text></symbol><symbol id="44"><text x="16" y="56.3" class="c">❯ </text><text x="32.8" y="56.3" class="d">echo &apos;Reverse then pause...&apos;</text></symbol></defs><style>@keyframes f{0.06%{transform:translateX(0px)}0.47%{transform:translateX(-293px)}0.85%{transform:translateX(-586px)}1.23%{transform:translateX(-879px)}1.63%{transform:translateX(-1172px)}2.02%{transform:translateX(-1465px)}2.53%{transform:translateX(-1758px)}2.85%{transform:translateX(-2051px)}3.23%{transform:translateX(-2344px)}3.64%{transform:translateX(-2637px)}4.02%{transform:translateX(-2930px)}4.41%{transform:translateX(-3223px)}4.80%{transform:translateX(-3516px)}5.20%{transform:translateX(-3809px)}5.58%{transform:translateX(-4102px)}5.98%{transform:translateX(-4395px)}6.37%{transform:translateX(-4688px)}6.75%{transform:translateX(-4981px)}7.15%{transform:translateX(-5274px)}7.16%{transform:translateX(-5567px)}11.74%{transform:translateX(-5860px)}11.82%{transform:translateX(-6153px)}12.65%{transform:translateX(-6446px)}13.03%{transform:translateX(-6739px)}13.41%{transform:translateX(-7032px)}13.80%{transform:translateX(-7325px)}14.20%{transform:translateX(-7618px)}14.59%{transform:translateX(-7911px)}14.97%{transform:translateX(-8204px)}15.34%{transform:translateX(-8497px)}15.73%{transform:translateX(-8790px)}16.12%{transform:translateX(-9083px)}16.50%{transform:translateX(-9376px)}16.90%{transform:translateX(-9669px)}17.30%{transform:translateX(-9962px)}17.70%{transform:translateX(-10255px)}18.09%{transform:translateX(-10548px)}18.47%{transform:translateX(-10841px)}18.87%{transform:translateX(-11134px)}19.25%{transform:translateX(-11427px)}19.64%{transform:translateX(-11720px)}20.02%{transform:translateX(-12013px)}20.40%{transform:translateX(-12306px)}20.80%{transform:translateX(-12599px)}21.20%{transform:translateX(-12892px)}21.60%{transform:translateX(-13185px)}21.98%{transform:translateX(-13478px)}22.37%{transform:translateX(-13771px)}22.78%{transform:translateX(-14064px)}23.17%{transform:translateX(-14357px)}23.57%{transform:translateX(-14650px)}23.58%{transform:translateX(-14943px)}46.23%{transform:translateX(-14650px)}46.24%{transform:translateX(-14357px)}46.64%{transform:translateX(-14064px)}47.03%{transform:translateX(-13771px)}47.44%{transform:translateX(-13478px)}47.83%{transform:translateX(-13185px)}48.22%{transform:translateX(-12892px)}48.61%{transform:translateX(-12599px)}49.01%{transform:translateX(-12306px)}49.41%{transform:translateX(-12013px)}49.79%{transform:translateX(-11720px)}50.17%{transform:translateX(-11427px)}50.56%{transform:translateX(-11134px)}50.94%{transform:translateX(-10841px)}51.34%{transform:translateX(-10548px)}51.72%{transform:translateX(-10255px)}52.11%{transform:translateX(-9962px)}52.52%{transform:translateX(-9669px)}52.91%{transform:translateX(-9376px)}53.31%{transform:translateX(-9083px)}53.69%{transform:translateX(-8790px)}54.08%{transform:translateX(-8497px)}54.47%{transform:translateX(-8204px)}54.84%{transform:translateX(-7911px)}55.23%{transform:translateX(-7618px)}55.61%{transform:translateX(-7325px)}56.02%{transform:translateX(-7032px)}56.40%{transform:translateX(-6739px)}56.78%{transform:translateX(-6446px)}57.16%{transform:translateX(-6153px)}57.99%{transform:translateX(-5860px)}58.07%{transform:translateX(-5567px)}62.65%{transform:translateX(-5274px)}62.66%{transform:translateX(-4981px)}63.06%{transform:translateX(-4688px)}63.44%{transform:translateX(-4395px)}63.83%{transform:translateX(-4102px)}64.23%{transform:translateX(-3809px)}64.62%{transform:translateX(-3516px)}65.01%{transform:translateX(-3223px)}65.40%{transform:translateX(-2930px)}65.79%{transform:translateX(-2637px)}66.17%{transform:translateX(-2344px)}66.58%{transform:translateX(-2051px)}66.96%{transform:translateX(-1758px)}67.28%{transform:translateX(-1465px)}67.79%{transform:translateX(-1172px)}68.19%{transform:translateX(-879px)}68.58%{transform:translateX(-586px)}68.96%{transform:translateX(-293px)}69.34%{transform:translateX(0px)}100%{transform:translateX(0px)}}.a{fill:#292a2b}.c{fill:#bcaafe;stroke:#bcaafe}.d{fill:#e6e6e6;stroke:#e6e6e6}path[fill="none"]{fill:none}path[shape-rendering="crispEdges"]{stroke:none}text{font-family:'SF Mono',Monaco,Consolas,Menlo,monospace;font-size:14px;dominant-baseline:text-before-edge;white-space:pre}text[class]{stroke:none}.bold{font-weight:700}.italic{font-style:italic}.uline{text-decoration:underline}.strike{text-decoration:line-through}.dim{opacity:0.5}@keyframes blink{0%,50%{opacity:1}50.01%,100%{opacity:0}}.cursor{animation:blink 1s step-end infinite;mix-blend-mode:difference}.cursor-active{opacity:1;mix-blend-mode:difference}</style><g transform="translate(0,0)"><rect width="293" height="99" rx="8" fill="#292a2b"/><clipPath id="content-clip"><path d="M0 0h293v99H0z" /></clipPath><g clip-path="url(#content-clip)"><g style="animation:f 13.280s steps(1,end) infinite"><g transform="translate(0,0)"><use xlink:href="#1"/><path d="M32.8 16h8.4v19.6H32.8z" fill="#fff" class="cursor"/></g><g transform="translate(293,0)"><use xlink:href="#2"/><path d="M41.2 16h8.4v19.6H41.2z" fill="#fff" class="cursor-active"/></g><g transform="translate(586,0)"><use xlink:href="#3"/><path d="M49.6 16h8.4v19.6H49.6z" fill="#fff" class="cursor-active"/></g><g transform="translate(879,0)"><use xlink:href="#4"/><path d="M58 16h8.4v19.6H58z" fill="#fff" class="cursor-active"/></g><g transform="translate(1172,0)"><use xlink:href="#5"/><path d="M66.4 16h8.4v19.6H66.4z" fill="#fff" class="cursor-active"/></g><g transform="translate(1465,0)"><use xlink:href="#5"/><path d="M74.8 16h8.4v19.6H74.8z" fill="#fff" class="cursor-active"/></g><g transform="translate(1758,0)"><use xlink:href="#6"/><path d="M83.2 16h8.4v19.6H83.2z" fill="#fff" class="cursor-active"/></g><g transform="translate(2051,0)"><use xlink:href="#7"/><path d="M91.6 16h8.4v19.6H91.6z" fill="#fff" class="cursor-active"/></g><g transform="translate(2344,0)"><use xlink:href="#8"/><path d="M100 16h8.4v19.6H100z" fill="#fff" class="cursor-active"/></g><g transform="translate(2637,0)"><use xlink:href="#9"/><path d="M108.4 16h8.4v19.6H108.4z" fill="#fff" class="cursor-active"/></g><g transform="translate(2930,0)"><use xlink:href="#10"/><path d="M116.8 16h8.4v19.6H116.8z" fill="#fff" class="cursor-active"/></g><g transform="translate(3223,0)"><use xlink:href="#11"/><path d="M125.2 16h8.4v19.6H125.2z" fill="#fff" class="cursor-active"/></g><g transform="translate(3516,0)"><use xlink:href="#11"/><path d="M133.6 16h8.4v19.6H133.6z" fill="#fff" class="cursor-active"/></g><g transform="translate(3809,0)"><use xlink:href="#12"/><path d="M142 16h8.4v19.6H142z" fill="#fff" class="cursor-active"/></g><g transform="translate(4102,0)"><use xlink:href="#13"/><path d="M150.4 16h8.4v19.6H150.4z" fill="#fff" class="cursor-active"/></g><g transform="translate(4395,0)"><use xlink:href="#14"/><path d="M158.8 16h8.4v19.6H158.8z" fill="#fff" class="cursor-active"/></g><g transform="translate(4688,0)"><use xlink:href="#15"/><path d="M167.2 16h8.4v19.6H167.2z" fill="#fff" class="cursor-active"/></g><g transform="translate(4981,0)"><use xlink:href="#16"/><path d="M175.6 16h8.4v19.6H175.6z" fill="#fff" class="cursor-active"/></g><g transform="translate(5274,0)"><use xlink:href="#17"/><path d="M184 16h8.4v19.6H184z" fill="#fff" class="cursor-active"/></g><g transform="translate(5567,0)"><use xlink:href="#17"/><path d="M184 16h8.4v19.6H184z" fill="#fff" class="cursor"/></g><g transform="translate(5860,0)"><use xlink:href="#17"/></g><g transform="translate(6153,0)"><use xlink:href="#17"/><use xlink:href="#18"/></g><g transform="translate(6446,0)"><use xlink:href="#17"/><use xlink:href="#18"/><use xlink:href="#19"/><path d="M32.8 55.2h8.4v19.6H32.8z" fill="#fff" class="cursor"/></g><g transform="translate(6739,0)"><use xlink:href="#17"/><use xlink:href="#18"/><use xlink:href="#20"/><path d="M41.2 55.2h8.4v19.6H41.2z" fill="#fff" class="cursor-active"/></g><g transform="translate(7032,0)"><use xlink:href="#17"/><use xlink:href="#18"/><use xlink:href="#21"/><path d="M49.6 55.2h8.4v19.6H49.6z" fill="#fff" class="cursor-active"/></g><g transform="translate(7325,0)"><use xlink:href="#17"/><use xlink:href="#18"/><use xlink:href="#22"/><path d="M58 55.2h8.4v19.6H58z" fill="#fff" class="cursor-active"/></g><g transform="translate(7618,0)"><use xlink:href="#17"/><use xlink:href="#18"/><use xlink:href="#23"/><path d="M66.4 55.2h8.4v19.6H66.4z" fill="#fff" class="cursor-active"/></g><g transform="translate(7911,0)"><use xlink:href="#17"/><use xlink:href="#18"/><use xlink:href="#23"/><path d="M74.8 55.2h8.4v19.6H74.8z" fill="#fff" class="cursor-active"/></g><g transform="translate(8204,0)"><use xlink:href="#17"/><use xlink:href="#18"/><use xlink:href="#24"/><path d="M83.2 55.2h8.4v19.6H83.2z" fill="#fff" class="cursor-active"/></g><g transform="translate(8497,0)"><use xlink:href="#17"/><use xlink:href="#18"/><use xlink:href="#25"/><path d="M91.6 55.2h8.4v19.6H91.6z" fill="#fff" class="cursor-active"/></g><g transform="translate(8790,0)"><use xlink:href="#17"/><use xlink:href="#18"/><use xlink:href="#26"/><path d="M100 55.2h8.4v19.6H100z" fill="#fff" class="cursor-active"/></g><g transform="translate(9083,0)"><use xlink:href="#17"/><use xlink:href="#18"/><use xlink:href="#27"/><path d="M108.4 55.2h8.4v19.6H108.4z" fill="#fff" class="cursor-active"/></g><g transform="translate(9376,0)"><use xlink:href="#17"/><use xlink:href="#18"/><use xlink:href="#28"/><path d="M116.8 55.2h8.4v19.6H116.8z" fill="#fff" class="cursor-active"/></g><g transform="translate(9669,0)"><use xlink:href="#17"/><use xlink:href="#18"/><use xlink:href="#29"/><path d="M125.2 55.2h8.4v19.6H125.2z" fill="#fff" class="cursor-active"/></g><g transform="translate(9962,0)"><use xlink:href="#17"/><use xlink:href="#18"/><use xlink:href="#30"/><path d="M133.6 55.2h8.4v19.6H133.6z" fill="#fff" class="cursor-active"/></g><g transform="translate(10255,0)"><use xlink:href="#17"/><use xlink:href="#18"/><use xlink:href="#31"/><path d="M142 55.2h8.4v19.6H142z" fill="#fff" class="cursor-active"/></g><g transform="translate(10548,0)"><use xlink:href="#17"/><use xlink:href="#18"/><use xlink:href="#31"/><path d="M150.4 55.2h8.4v19.6H150.4z" fill="#fff" class="cursor-active"/></g><g transform="translate(10841,0)"><use xlink:href="#17"/><use xlink:href="#18"/><use xlink:href="#32"/><path d="M158.8 55.2h8.4v19.6H158.8z" fill="#fff" class="cursor-active"/></g><g transform="translate(11134,0)"><use xlink:href="#17"/><use xlink:href="#18"/><use xlink:href="#33"/><path d="M167.2 55.2h8.4v19.6H167.2z" fill="#fff" class="cursor-active"/></g><g transform="translate(11427,0)"><use xlink:href="#17"/><use xlink:href="#18"/><use xlink:href="#34"/><path d="M175.6 55.2h8.4v19.6H175.6z" fill="#fff" class="cursor-active"/></g><g transform="translate(11720,0)"><use xlink:href="#17"/><use xlink:href="#18"/><use xlink:href="#35"/><path d="M184 55.2h8.4v19.6H184z" fill="#fff" class="cursor-active"/></g><g transform="translate(12013,0)"><use xlink:href="#17"/><use xlink:href="#18"/><use xlink:href="#35"/><path d="M192.4 55.2h8.4v19.6H192.4z" fill="#fff" class="cursor-active"/></g><g transform="translate(12306,0)"><use xlink:href="#17"/><use xlink:href="#18"/><use xlink:href="#36"/><path d="M200.8 55.2h8.4v19.6H200.8z" fill="#fff" class="cursor-active"/></g><g transform="translate(12599,0)"><use xlink:href="#17"/><use xlink:href="#18"/><use xlink:href="#37"/><path d="M209.2 55.2h8.4v19.6H209.2z" fill="#fff" class="cursor-active"/></g><g transform="translate(12892,0)"><use xlink:href="#17"/><use xlink:href="#18"/><use xlink:href="#38"/><path d="M217.6 55.2h8.4v19.6H217.6z" fill="#fff" class="cursor-active"/></g><g transform="translate(13185,0)"><use xlink:href="#17"/><use xlink:href="#18"/><use xlink:href="#39"/><path d="M226 55.2h8.4v19.6H226z" fill="#fff" class="cursor-active"/></g><g transform="translate(13478,0)"><use xlink:href="#17"/><use xlink:href="#18"/><use xlink:href="#40"/><path d="M234.4 55.2h8.4v19.6H234.4z" fill="#fff" class="cursor-active"/></g><g transform="translate(13771,0)"><use xlink:href="#17"/><use xlink:href="#18"/><use xlink:href="#41"/><path d="M242.8 55.2h8.4v19.6H242.8z" fill="#fff" class="cursor-active"/></g><g transform="translate(14064,0)"><use xlink:href="#17"/><use xlink:href="#18"/><use xlink:href="#42"/><path d="M251.2 55.2h8.4v19.6H251.2z" fill="#fff" class="cursor-active"/></g><g transform="translate(14357,0)"><use xlink:href="#17"/><use xlink:href="#18"/><use xlink:href="#43"/><path d="M259.6 55.2h8.4v19.6H259.6z" fill="#fff" class="cursor-active"/></g><g transform="translate(14650,0)"><use xlink:href="#17"/><use xlink:href="#18"/><use xlink:href="#44"/><path d="M268 55.2h8.4v19.6H268z" fill="#fff" class="cursor-active"/></g><g transform="translate(14943,0)"><use xlink:href="#17"/><use xlink:href="#18"/><use xlink:href="#44"/><path d="M268 55.2h8.4v19.6H268z" fill="#fff" class="cursor"/></g></g></g></g></svg>