<svg xmlns="http://www.w3.org/2000/svg" xmlns:xlink="http://www.w3.org/1999/xlink" width="217" height="138" viewBox="0 0 217 138"><defs><symbol id="1"><text x="16" y="17.1" class="c">❯</text></symbol><symbol id="2"><text x="16" y="17.1" class="c">❯ </text><text x="32.8" y="17.1" class="d">e</text></symbol><symbol id="3"><text x="16" y="17.1" class="c">❯ </text><text x="32.8" y="17.1" class="d">ec</text></symbol><symbol id="4"><text x="16" y="17.1" class="c">❯ </text><text x="32.8" y="17.1" class="d">ech</text></symbol><symbol id="5"><text x="16" y="17.1" class="c">❯ </text><text x="32.8" y="17.1" class="d">echo</text></symbol><symbol id="6"><text x="16" y="17.1" class="c">❯ </text><text x="32.8" y="17.1" class="d">echo &apos;</text></symbol><symbol id="7"><text x="16" y="17.1" class="c">❯ </text><text x="32.8" y="17.1" class="d">echo &apos;A</text></symbol><symbol id="8"><text x="16" y="17.1" class="c">❯ </text><text x="32.8" y="17.1" class="d">echo &apos;As</text></symbol><symbol id="9"><text x="16" y="17.1" class="c">❯ </text><text x="32.8" y="17.1" class="d">echo &apos;Ash</text></symbol><symbol id="10"><text x="16" y="17.1" class="c">❯ </text><text x="32.8" y="17.1" class="d">echo &apos;Ash t</text></symbol><symbol id="11"><text x="16" y="17.1" class="c">❯ </text><text x="32.8" y="17.1" class="d">echo &apos;Ash to</text></symbol><symbol id="12"><text x="16" y="17.1" class="c">❯ </text><text x="32.8" y="17.1" class="d">echo &apos;Ash to a</text></symbol><symbol id="13"><text x="16" y="17.1" class="c">❯ </text><text x="32.8" y="17.1" class="d">echo &apos;Ash to as</text></symbol><symbol id="14"><text x="16" y="17.1" class="c">❯ </text><text x="32.8" y="17.1" class="d">echo &apos;Ash to ash</text></symbol><symbol id="15"><text x="16" y="17.1" class="c">❯ </text><text x="32.8" y="17.1" class="d">echo &apos;Ash to ash&apos;</text></symbol><symbol id="16"><text x="16" y="36.7" class="d">Ash to ash</text></symbol><symbol id="17"><text x="16" y="56.3" class="c">❯</text></symbol><symbol id="18"><text x="16" y="56.3" class="c">❯ </text><text x="32.8" y="56.3" class="d">e</text></symbol><symbol id="19"><text x="16" y="56.3" class="c">❯ </text><text x="32.8" y="56.3" class="d">ec</text></symbol><symbol id="20"><text x="16" y="56.3" class="c">❯ </text><text x="32.8" y="56.3" class="d">ech</text></symbol><symbol id="21"><text x="16" y="56.3" class="c">❯ </text><text x="32.8" y="56.3" class="d">echo</text></symbol><symbol id="22"><text x="16" y="56.3" class="c">❯ </text><text x="32.8" y="56.3" class="d">echo &apos;</text></symbol><symbol id="23"><text x="16" y="56.3" class="c">❯ </text><text x="32.8" y="56.3" class="d">echo &apos;D</text></symbol><symbol id="24"><text x="16" y="56.3" class="c">❯ </text><text x="32.8" y="56.3" class="d">echo &apos;Du</text></symbol><symbol id="25"><text x="16" y="56.3" class="c">❯ </text><text x="32.8" y="56.3" class="d">echo &apos;Dus</text></symbol><symbol id="26"><text x="16" y="56.3" class="c">❯ </text><text x="32.8" y="56.3" class="d">echo &apos;Dust</text></symbol><symbol id="27"><text x="16" y="56.3" class="c">❯ </text><text x="32.8" y="56.3" class="d">echo &apos;Dust t</text></symbol><symbol id="28"><text x="16" y="56.3" class="c">❯ </text><text x="32.8" y="56.3" class="d">echo &apos;Dust to</text></symbol><symbol id="29"><text x="16" y="56.3" class="c">❯ </text><text x="32.8" y="56.3" class="d">echo &apos;Dust to d</text></symbol><symbol id="30"><text x="16" y="56.3" class="c">❯ </text><text x="32.8" y="56.3" class="d">echo &apos;Dust to du</text></symbol><symbol id="31"><text x="16" y="56.3" class="c">❯ </text><text x="32.8" y="56.3" class="d">echo &apos;Dust to dus</text></symbol><symbol id="32"><text x="16" y="56.3" class="c">❯ </text><text x="32.8" y="56.3" class="d">echo &apos;Dust to dust</text></symbol><symbol id="33"><text x="16" y="56.3" class="c">❯ </text><text x="32.8" y="56.3" class="d">echo &apos;Dust to dust&apos;</text></symbol><symbol id="34"><text x="16" y="75.9" class="d">Dust to dust</text></symbol><symbol id="35"><text x="16" y="95.5" class="c">❯</text></symbol></defs><style>@keyframes f{0.12%{transform:translateX(0px)}0.78%{transform:translateX(-217px)}1.44%{transform:translateX(-434px)}2.09%{transform:translateX(-651px)}2.76%{transform:translateX(-868px)}3.44%{transform:translateX(-1085px)}4.09%{transform:translateX(-1302px)}4.79%{transform:translateX(-1519px)}5.44%{transform:translateX(-1736px)}6.07%{transform:translateX(-1953px)}6.70%{transform:translateX(-2170px)}7.35%{transform:translateX(-2387px)}8.02%{transform:translateX(-2604px)}8.69%{transform:translateX(-2821px)}9.34%{transform:translateX(-3038px)}10.00%{transform:translateX(-3255px)}10.65%{transform:translateX(-3472px)}11.31%{transform:translateX(-3689px)}11.32%{transform:translateX(-3906px)}19.07%{transform:translateX(-4123px)}19.11%{transform:translateX(-4340px)}20.52%{transform:translateX(-4557px)}21.18%{transform:translateX(-4774px)}21.84%{transform:translateX(-4991px)}22.50%{transform:translateX(-5208px)}23.15%{transform:translateX(-5425px)}23.81%{transform:translateX(-5642px)}24.46%{transform:translateX(-5859px)}25.10%{transform:translateX(-6076px)}25.77%{transform:translateX(-6293px)}26.46%{transform:translateX(-6510px)}27.08%{transform:translateX(-6727px)}27.73%{transform:translateX(-6944px)}28.39%{transform:translateX(-7161px)}29.03%{transform:translateX(-7378px)}29.67%{transform:translateX(-7595px)}30.34%{transform:translateX(-7812px)}31.01%{transform:translateX(-8029px)}31.66%{transform:translateX(-8246px)}32.30%{transform:translateX(-8463px)}32.98%{transform:translateX(-8680px)}33.00%{transform:translateX(-8897px)}40.73%{transform:translateX(-9114px)}40.75%{transform:translateX(-9331px)}42.15%{transform:translateX(-9548px)}80.75%{transform:translateX(-9548px)}100%{transform:translateX(-9548px)}}@keyframes fade{0%{opacity:1}80.75%{opacity:1}100.00%{opacity:0}100%{opacity:0}}.a{fill:#292a2b}.c{fill:#bcaafe;stroke:#bcaafe}.d{fill:#e6e6e6;stroke:#e6e6e6}path[fill="none"]{fill:none}path[shape-rendering="crispEdges"]{stroke:none}text{font-family:'SF Mono',Monaco,Consolas,Menlo,monospace;font-size:14px;dominant-baseline:text-before-edge;white-space:pre;}text[class]{stroke:none}.bold{font-weight:700}.italic{font-style:italic}.uline{text-decoration:underline}.strike{text-decoration:line-through}.dim{opacity:0.5}@keyframes blink{0%,50%{opacity:1}50.01%,100%{opacity:0}}.cursor{animation:blink 1s step-end infinite;mix-blend-mode:difference}.cursor-active{opacity:1;mix-blend-mode:difference}</style><g transform="translate(0,0)"><rect width="217" height="138" rx="8" fill="#292a2b"/><clipPath id="content-clip"><path d="M0 0h217v138H0z" /></clipPath><g clip-path="url(#content-clip)"><g style="animation:f 7.792s steps(1,end) infinite,fade 7.792s ease infinite"><g transform="translate(0,0)"><use xlink:href="#1"/><path d="M32.8 16h8.4v19.6H32.8z" fill="#ff75b5" class="cursor"/></g><g transform="translate(217,0)"><use xlink:href="#2"/><path d="M41.2 16h8.4v19.6H41.2z" fill="#ff75b5" class="cursor-active"/></g><g transform="translate(434,0)"><use xlink:href="#3"/><path d="M49.6 16h8.4v19.6H49.6z" fill="#ff75b5" class="cursor-active"/></g><g transform="translate(651,0)"><use xlink:href="#4"/><path d="M58 16h8.4v19.6H58z" fill="#ff75b5" class="cursor-active"/></g><g transform="translate(868,0)"><use xlink:href="#5"/><path d="M66.4 16h8.4v19.6H66.4z" fill="#ff75b5" class="cursor-active"/></g><g transform="translate(1085,0)"><use xlink:href="#5"/><path d="M74.8 16h8.4v19.6H74.8z" fill="#ff75b5" class="cursor-active"/></g><g transform="translate(1302,0)"><use xlink:href="#6"/><path d="M83.2 16h8.4v19.6H83.2z" fill="#ff75b5" class="cursor-active"/></g><g transform="translate(1519,0)"><use xlink:href="#7"/><path d="M91.6 16h8.4v19.6H91.6z" fill="#ff75b5" class="cursor-active"/></g><g transform="translate(1736,0)"><use xlink:href="#8"/><path d="M100 16h8.4v19.6H100z" fill="#ff75b5" class="cursor-active"/></g><g transform="translate(1953,0)"><use xlink:href="#9"/><path d="M108.4 16h8.4v19.6H108.4z" fill="#ff75b5" class="cursor-active"/></g><g transform="translate(2170,0)"><use xlink:href="#9"/><path d="M116.8 16h8.4v19.6H116.8z" fill="#ff75b5" class="cursor-active"/></g><g transform="translate(2387,0)"><use xlink:href="#10"/><path d="M125.2 16h8.4v19.6H125.2z" fill="#ff75b5" class="cursor-active"/></g><g transform="translate(2604,0)"><use xlink:href="#11"/><path d="M133.6 16h8.4v19.6H133.6z" fill="#ff75b5" class="cursor-active"/></g><g transform="translate(2821,0)"><use xlink:href="#11"/><path d="M142 16h8.4v19.6H142z" fill="#ff75b5" class="cursor-active"/></g><g transform="translate(3038,0)"><use xlink:href="#12"/><path d="M150.4 16h8.4v19.6H150.4z" fill="#ff75b5" class="cursor-active"/></g><g transform="translate(3255,0)"><use xlink:href="#13"/><path d="M158.8 16h8.4v19.6H158.8z" fill="#ff75b5" class="cursor-active"/></g><g transform="translate(3472,0)"><use xlink:href="#14"/><path d="M167.2 16h8.4v19.6H167.2z" fill="#ff75b5" class="cursor-active"/></g><g transform="translate(3689,0)"><use xlink:href="#15"/><path d="M175.6 16h8.4v19.6H175.6z" fill="#ff75b5" class="cursor-active"/></g><g transform="translate(3906,0)"><use xlink:href="#15"/><path d="M175.6 16h8.4v19.6H175.6z" fill="#ff75b5" class="cursor"/></g><g transform="translate(4123,0)"><use xlink:href="#15"/></g><g transform="translate(4340,0)"><use xlink:href="#15"/><use xlink:href="#16"/></g><g transform="translate(4557,0)"><use xlink:href="#15"/><use xlink:href="#16"/><use xlink:href="#17"/><path d="M32.8 55.2h8.4v19.6H32.8z" fill="#ff75b5" class="cursor"/></g><g transform="translate(4774,0)"><use xlink:href="#15"/><use xlink:href="#16"/><use xlink:href="#18"/><path d="M41.2 55.2h8.4v19.6H41.2z" fill="#ff75b5" class="cursor-active"/></g><g transform="translate(4991,0)"><use xlink:href="#15"/><use xlink:href="#16"/><use xlink:href="#19"/><path d="M49.6 55.2h8.4v19.6H49.6z" fill="#ff75b5" class="cursor-active"/></g><g transform="translate(5208,0)"><use xlink:href="#15"/><use xlink:href="#16"/><use xlink:href="#20"/><path d="M58 55.2h8.4v19.6H58z" fill="#ff75b5" class="cursor-active"/></g><g transform="translate(5425,0)"><use xlink:href="#15"/><use xlink:href="#16"/><use xlink:href="#21"/><path d="M66.4 55.2h8.4v19.6H66.4z" fill="#ff75b5" class="cursor-active"/></g><g transform="translate(5642,0)"><use xlink:href="#15"/><use xlink:href="#16"/><use xlink:href="#21"/><path d="M74.8 55.2h8.4v19.6H74.8z" fill="#ff75b5" class="cursor-active"/></g><g transform="translate(5859,0)"><use xlink:href="#15"/><use xlink:href="#16"/><use xlink:href="#22"/><path d="M83.2 55.2h8.4v19.6H83.2z" fill="#ff75b5" class="cursor-active"/></g><g transform="translate(6076,0)"><use xlink:href="#15"/><use xlink:href="#16"/><use xlink:href="#23"/><path d="M91.6 55.2h8.4v19.6H91.6z" fill="#ff75b5" class="cursor-active"/></g><g transform="translate(6293,0)"><use xlink:href="#15"/><use xlink:href="#16"/><use xlink:href="#24"/><path d="M100 55.2h8.4v19.6H100z" fill="#ff75b5" class="cursor-active"/></g><g transform="translate(6510,0)"><use xlink:href="#15"/><use xlink:href="#16"/><use xlink:href="#25"/><path d="M108.4 55.2h8.4v19.6H108.4z" fill="#ff75b5" class="cursor-active"/></g><g transform="translate(6727,0)"><use xlink:href="#15"/><use xlink:href="#16"/><use xlink:href="#26"/><path d="M116.8 55.2h8.4v19.6H116.8z" fill="#ff75b5" class="cursor-active"/></g><g transform="translate(6944,0)"><use xlink:href="#15"/><use xlink:href="#16"/><use xlink:href="#26"/><path d="M125.2 55.2h8.4v19.6H125.2z" fill="#ff75b5" class="cursor-active"/></g><g transform="translate(7161,0)"><use xlink:href="#15"/><use xlink:href="#16"/><use xlink:href="#27"/><path d="M133.6 55.2h8.4v19.6H133.6z" fill="#ff75b5" class="cursor-active"/></g><g transform="translate(7378,0)"><use xlink:href="#15"/><use xlink:href="#16"/><use xlink:href="#28"/><path d="M142 55.2h8.4v19.6H142z" fill="#ff75b5" class="cursor-active"/></g><g transform="translate(7595,0)"><use xlink:href="#15"/><use xlink:href="#16"/><use xlink:href="#28"/><path d="M150.4 55.2h8.4v19.6H150.4z" fill="#ff75b5" class="cursor-active"/></g><g transform="translate(7812,0)"><use xlink:href="#15"/><use xlink:href="#16"/><use xlink:href="#29"/><path d="M158.8 55.2h8.4v19.6H158.8z" fill="#ff75b5" class="cursor-active"/></g><g transform="translate(8029,0)"><use xlink:href="#15"/><use xlink:href="#16"/><use xlink:href="#30"/><path d="M167.2 55.2h8.4v19.6H167.2z" fill="#ff75b5" class="cursor-active"/></g><g transform="translate(8246,0)"><use xlink:href="#15"/><use xlink:href="#16"/><use xlink:href="#31"/><path d="M175.6 55.2h8.4v19.6H175.6z" fill="#ff75b5" class="cursor-active"/></g><g transform="translate(8463,0)"><use xlink:href="#15"/><use xlink:href="#16"/><use xlink:href="#32"/><path d="M184 55.2h8.4v19.6H184z" fill="#ff75b5" class="cursor-active"/></g><g transform="translate(8680,0)"><use xlink:href="#15"/><use xlink:href="#16"/><use xlink:href="#33"/><path d="M192.4 55.2h8.4v19.6H192.4z" fill="#ff75b5" class="cursor-active"/></g><g transform="translate(8897,0)"><use xlink:href="#15"/><use xlink:href="#16"/><use xlink:href="#33"/><path d="M192.4 55.2h8.4v19.6H192.4z" fill="#ff75b5" class="cursor"/></g><g transform="translate(9114,0)"><use xlink:href="#15"/><use xlink:href="#16"/><use xlink:href="#33"/></g><g transform="translate(9331,0)"><use xlink:href="#15"/><use xlink:href="#16"/><use xlink:href="#33"/><use xlink:href="#34"/></g><g transform="translate(9548,0)"><use xlink:href="#15"/><use xlink:href="#16"/><use xlink:href="#33"/><use xlink:href="#34"/><use xlink:href="#35"/><path d="M32.8 94.4h8.4v19.6H32.8z" fill="#ff75b5" class="cursor"/></g></g></g></g></svg>