<svg xmlns="http://www.w3.org/2000/svg" xmlns:xlink="http://www.w3.org/1999/xlink" width="310" height="99" viewBox="0 0 310 99"><defs><symbol id="1"><text x="16" y="17.1" class="c">❯</text></symbol><symbol id="2"><text x="16" y="17.1" class="c">❯ </text><text x="32.8" y="17.1" class="d">e</text></symbol><symbol id="3"><text x="16" y="17.1" class="c">❯ </text><text x="32.8" y="17.1" class="d">ec</text></symbol><symbol id="4"><text x="16" y="17.1" class="c">❯ </text><text x="32.8" y="17.1" class="d">ech</text></symbol><symbol id="5"><text x="16" y="17.1" class="c">❯ </text><text x="32.8" y="17.1" class="d">echo</text></symbol><symbol id="6"><text x="16" y="17.1" class="c">❯ </text><text x="32.8" y="17.1" class="d">echo &apos;</text></symbol><symbol id="7"><text x="16" y="17.1" class="c">❯ </text><text x="32.8" y="17.1" class="d">echo &apos;H</text></symbol><symbol id="8"><text x="16" y="17.1" class="c">❯ </text><text x="32.8" y="17.1" class="d">echo &apos;He</text></symbol><symbol id="9"><text x="16" y="17.1" class="c">❯ </text><text x="32.8" y="17.1" class="d">echo &apos;Hel</text></symbol><symbol id="10"><text x="16" y="17.1" class="c">❯ </text><text x="32.8" y="17.1" class="d">echo &apos;Hell</text></symbol><symbol id="11"><text x="16" y="17.1" class="c">❯ </text><text x="32.8" y="17.1" class="d">echo &apos;Hello</text></symbol><symbol id="12"><text x="16" y="17.1" class="c">❯ </text><text x="32.8" y="17.1" class="d">echo &apos;Hello w</text></symbol><symbol id="13"><text x="16" y="17.1" class="c">❯ </text><text x="32.8" y="17.1" class="d">echo &apos;Hello wo</text></symbol><symbol id="14"><text x="16" y="17.1" class="c">❯ </text><text x="32.8" y="17.1" class="d">echo &apos;Hello wor</text></symbol><symbol id="15"><text x="16" y="17.1" class="c">❯ </text><text x="32.8" y="17.1" class="d">echo &apos;Hello worl</text></symbol><symbol id="16"><text x="16" y="17.1" class="c">❯ </text><text x="32.8" y="17.1" class="d">echo &apos;Hello world</text></symbol><symbol id="17"><text x="16" y="17.1" class="c">❯ </text><text x="32.8" y="17.1" class="d">echo &apos;Hello world&apos;</text></symbol><symbol id="18"><text x="16" y="36.7" class="d">Hello world</text></symbol><symbol id="19"><text x="16" y="56.3" class="c">❯</text></symbol><symbol id="20"><text x="16" y="56.3" class="c">❯ </text><text x="32.8" y="56.3" class="d">e</text></symbol><symbol id="21"><text x="16" y="56.3" class="c">❯ </text><text x="32.8" y="56.3" class="d">ec</text></symbol><symbol id="22"><text x="16" y="56.3" class="c">❯ </text><text x="32.8" y="56.3" class="d">ech</text></symbol><symbol id="23"><text x="16" y="56.3" class="c">❯ </text><text x="32.8" y="56.3" class="d">echo</text></symbol><symbol id="24"><text x="16" y="56.3" class="c">❯ </text><text x="32.8" y="56.3" class="d">echo &apos;</text></symbol><symbol id="25"><text x="16" y="56.3" class="c">❯ </text><text x="32.8" y="56.3" class="d">echo &apos;S</text></symbol><symbol id="26"><text x="16" y="56.3" class="c">❯ </text><text x="32.8" y="56.3" class="d">echo &apos;Sl</text></symbol><symbol id="27"><text x="16" y="56.3" class="c">❯ </text><text x="32.8" y="56.3" class="d">echo &apos;Slo</text></symbol><symbol id="28"><text x="16" y="56.3" class="c">❯ </text><text x="32.8" y="56.3" class="d">echo &apos;Slow</text></symbol><symbol id="29"><text x="16" y="56.3" class="c">❯ </text><text x="32.8" y="56.3" class="d">echo &apos;Slow f</text></symbol><symbol id="30"><text x="16" y="56.3" class="c">❯ </text><text x="32.8" y="56.3" class="d">echo &apos;Slow fa</text></symbol><symbol id="31"><text x="16" y="56.3" class="c">❯ </text><text x="32.8" y="56.3" class="d">echo &apos;Slow fad</text></symbol><symbol id="32"><text x="16" y="56.3" class="c">❯ </text><text x="32.8" y="56.3" class="d">echo &apos;Slow fade</text></symbol><symbol id="33"><text x="16" y="56.3" class="c">❯ </text><text x="32.8" y="56.3" class="d">echo &apos;Slow fade w</text></symbol><symbol id="34"><text x="16" y="56.3" class="c">❯ </text><text x="32.8" y="56.3" class="d">echo &apos;Slow fade wi</text></symbol><symbol id="35"><text x="16" y="56.3" class="c">❯ </text><text x="32.8" y="56.3" class="d">echo &apos;Slow fade wit</text></symbol><symbol id="36"><text x="16" y="56.3" class="c">❯ </text><text x="32.8" y="56.3" class="d">echo &apos;Slow fade with</text></symbol><symbol id="37"><text x="16" y="56.3" class="c">❯ </text><text x="32.8" y="56.3" class="d">echo &apos;Slow fade with p</text></symbol><symbol id="38"><text x="16" y="56.3" class="c">❯ </text><text x="32.8" y="56.3" class="d">echo &apos;Slow fade with pa</text></symbol><symbol id="39"><text x="16" y="56.3" class="c">❯ </text><text x="32.8" y="56.3" class="d">echo &apos;Slow fade with pau</text></symbol><symbol id="40"><text x="16" y="56.3" class="c">❯ </text><text x="32.8" y="56.3" class="d">echo &apos;Slow fade with paus</text></symbol><symbol id="41"><text x="16" y="56.3" class="c">❯ </text><text x="32.8" y="56.3" class="d">echo &apos;Slow fade with pause</text></symbol><symbol id="42"><text x="16" y="56.3" class="c">❯ </text><text x="32.8" y="56.3" class="d">echo &apos;Slow fade with pause.</text></symbol><symbol id="43"><text x="16" y="56.3" class="c">❯ </text><text x="32.8" y="56.3" class="d">echo &apos;Slow fade with pause..</text></symbol><symbol id="44"><text x="16" y="56.3" class="c">❯ </text><text x="32.8" y="56.3" class="d">echo &apos;Slow fade with pause...</text></symbol><symbol id="45"><text x="16" y="56.3" class="c">❯ </text><text x="32.8" y="56.3" class="d">echo &apos;Slow fade with pause...&apos;</text></symbol></defs><style>@keyframes f{0.08%{transform:translateX(0px)}0.58%{transform:translateX(-310px)}1.09%{transform:translateX(-620px)}1.59%{transform:translateX(-930px)}2.10%{transform:translateX(-1240px)}2.60%{transform:translateX(-1550px)}3.11%{transform:translateX(-1860px)}3.62%{transform:translateX(-2170px)}4.12%{transform:translateX(-2480px)}4.61%{transform:translateX(-2790px)}5.10%{transform:translateX(-3100px)}5.60%{transform:translateX(-3410px)}6.11%{transform:translateX(-3720px)}6.62%{transform:translateX(-4030px)}7.12%{transform:translateX(-4340px)}7.62%{transform:translateX(-4650px)}8.11%{transform:translateX(-4960px)}8.62%{transform:translateX(-5270px)}9.13%{transform:translateX(-5580px)}9.14%{transform:translateX(-5890px)}15.08%{transform:translateX(-6200px)}15.17%{transform:translateX(-6510px)}16.22%{transform:translateX(-6820px)}16.72%{transform:translateX(-7130px)}17.23%{transform:translateX(-7440px)}17.72%{transform:translateX(-7750px)}18.20%{transform:translateX(-8060px)}18.71%{transform:translateX(-8370px)}19.23%{transform:translateX(-8680px)}19.72%{transform:translateX(-8990px)}20.23%{transform:translateX(-9300px)}20.75%{transform:translateX(-9610px)}21.23%{transform:translateX(-9920px)}21.75%{transform:translateX(-10230px)}22.25%{transform:translateX(-10540px)}22.75%{transform:translateX(-10850px)}23.28%{transform:translateX(-11160px)}23.76%{transform:translateX(-11470px)}24.29%{transform:translateX(-11780px)}24.77%{transform:translateX(-12090px)}25.28%{transform:translateX(-12400px)}25.79%{transform:translateX(-12710px)}26.28%{transform:translateX(-13020px)}26.82%{transform:translateX(-13330px)}27.31%{transform:translateX(-13640px)}27.80%{transform:translateX(-13950px)}28.31%{transform:translateX(-14260px)}28.82%{transform:translateX(-14570px)}29.31%{transform:translateX(-14880px)}29.83%{transform:translateX(-15190px)}30.33%{transform:translateX(-15500px)}30.83%{transform:translateX(-15810px)}31.32%{transform:translateX(-16120px)}31.33%{transform:translateX(-16430px)}60.81%{transform:translateX(-16430px)}100%{transform:translateX(-16430px)}}@keyframes fade{0%{opacity:1}60.81%{opacity:1}90.20%{opacity:0}90.20%{opacity:0}100%{opacity:0}}.a{fill:#292a2b}.c{fill:#bcaafe;stroke:#bcaafe}.d{fill:#e6e6e6;stroke:#e6e6e6}path[fill="none"]{fill:none}path[shape-rendering="crispEdges"]{stroke:none}text{font-family:'SF Mono',Monaco,Consolas,Menlo,monospace;font-size:14px;dominant-baseline:text-before-edge;white-space:pre}text[class]{stroke:none}.bold{font-weight:700}.italic{font-style:italic}.uline{text-decoration:underline}.strike{text-decoration:line-through}.dim{opacity:0.5}@keyframes blink{0%,50%{opacity:1}50.01%,100%{opacity:0}}.cursor{animation:blink 1s step-end infinite;mix-blend-mode:difference}.cursor-active{opacity:1;mix-blend-mode:difference}</style><g transform="translate(0,0)"><rect width="310" height="99" rx="8" fill="#292a2b"/><clipPath id="content-clip"><path d="M0 0h310v99H0z" /></clipPath><g clip-path="url(#content-clip)"><g style="animation:f 10.206s steps(1,end) infinite,fade 10.206s ease infinite"><g transform="translate(0,0)"><use xlink:href="#1"/><path d="M32.8 16h8.4v19.6H32.8z" fill="#fff" class="cursor"/></g><g transform="translate(310,0)"><use xlink:href="#2"/><path d="M41.2 16h8.4v19.6H41.2z" fill="#fff" class="cursor-active"/></g><g transform="translate(620,0)"><use xlink:href="#3"/><path d="M49.6 16h8.4v19.6H49.6z" fill="#fff" class="cursor-active"/></g><g transform="translate(930,0)"><use xlink:href="#4"/><path d="M58 16h8.4v19.6H58z" fill="#fff" class="cursor-active"/></g><g transform="translate(1240,0)"><use xlink:href="#5"/><path d="M66.4 16h8.4v19.6H66.4z" fill="#fff" class="cursor-active"/></g><g transform="translate(1550,0)"><use xlink:href="#5"/><path d="M74.8 16h8.4v19.6H74.8z" fill="#fff" class="cursor-active"/></g><g transform="translate(1860,0)"><use xlink:href="#6"/><path d="M83.2 16h8.4v19.6H83.2z" fill="#fff" class="cursor-active"/></g><g transform="translate(2170,0)"><use xlink:href="#7"/><path d="M91.6 16h8.4v19.6H91.6z" fill="#fff" class="cursor-active"/></g><g transform="translate(2480,0)"><use xlink:href="#8"/><path d="M100 16h8.4v19.6H100z" fill="#fff" class="cursor-active"/></g><g transform="translate(2790,0)"><use xlink:href="#9"/><path d="M108.4 16h8.4v19.6H108.4z" fill="#fff" class="cursor-active"/></g><g transform="translate(3100,0)"><use xlink:href="#10"/><path d="M116.8 16h8.4v19.6H116.8z" fill="#fff" class="cursor-active"/></g><g transform="translate(3410,0)"><use xlink:href="#11"/><path d="M125.2 16h8.4v19.6H125.2z" fill="#fff" class="cursor-active"/></g><g transform="translate(3720,0)"><use xlink:href="#11"/><path d="M133.6 16h8.4v19.6H133.6z" fill="#fff" class="cursor-active"/></g><g transform="translate(4030,0)"><use xlink:href="#12"/><path d="M142 16h8.4v19.6H142z" fill="#fff" class="cursor-active"/></g><g transform="translate(4340,0)"><use xlink:href="#13"/><path d="M150.4 16h8.4v19.6H150.4z" fill="#fff" class="cursor-active"/></g><g transform="translate(4650,0)"><use xlink:href="#14"/><path d="M158.8 16h8.4v19.6H158.8z" fill="#fff" class="cursor-active"/></g><g transform="translate(4960,0)"><use xlink:href="#15"/><path d="M167.2 16h8.4v19.6H167.2z" fill="#fff" class="cursor-active"/></g><g transform="translate(5270,0)"><use xlink:href="#16"/><path d="M175.6 16h8.4v19.6H175.6z" fill="#fff" class="cursor-active"/></g><g transform="translate(5580,0)"><use xlink:href="#17"/><path d="M184 16h8.4v19.6H184z" fill="#fff" class="cursor-active"/></g><g transform="translate(5890,0)"><use xlink:href="#17"/><path d="M184 16h8.4v19.6H184z" fill="#fff" class="cursor"/></g><g transform="translate(6200,0)"><use xlink:href="#17"/></g><g transform="translate(6510,0)"><use xlink:href="#17"/><use xlink:href="#18"/></g><g transform="translate(6820,0)"><use xlink:href="#17"/><use xlink:href="#18"/><use xlink:href="#19"/><path d="M32.8 55.2h8.4v19.6H32.8z" fill="#fff" class="cursor"/></g><g transform="translate(7130,0)"><use xlink:href="#17"/><use xlink:href="#18"/><use xlink:href="#20"/><path d="M41.2 55.2h8.4v19.6H41.2z" fill="#fff" class="cursor-active"/></g><g transform="translate(7440,0)"><use xlink:href="#17"/><use xlink:href="#18"/><use xlink:href="#21"/><path d="M49.6 55.2h8.4v19.6H49.6z" fill="#fff" class="cursor-active"/></g><g transform="translate(7750,0)"><use xlink:href="#17"/><use xlink:href="#18"/><use xlink:href="#22"/><path d="M58 55.2h8.4v19.6H58z" fill="#fff" class="cursor-active"/></g><g transform="translate(8060,0)"><use xlink:href="#17"/><use xlink:href="#18"/><use xlink:href="#23"/><path d="M66.4 55.2h8.4v19.6H66.4z" fill="#fff" class="cursor-active"/></g><g transform="translate(8370,0)"><use xlink:href="#17"/><use xlink:href="#18"/><use xlink:href="#23"/><path d="M74.8 55.2h8.4v19.6H74.8z" fill="#fff" class="cursor-active"/></g><g transform="translate(8680,0)"><use xlink:href="#17"/><use xlink:href="#18"/><use xlink:href="#24"/><path d="M83.2 55.2h8.4v19.6H83.2z" fill="#fff" class="cursor-active"/></g><g transform="translate(8990,0)"><use xlink:href="#17"/><use xlink:href="#18"/><use xlink:href="#25"/><path d="M91.6 55.2h8.4v19.6H91.6z" fill="#fff" class="cursor-active"/></g><g transform="translate(9300,0)"><use xlink:href="#17"/><use xlink:href="#18"/><use xlink:href="#26"/><path d="M100 55.2h8.4v19.6H100z" fill="#fff" class="cursor-active"/></g><g transform="translate(9610,0)"><use xlink:href="#17"/><use xlink:href="#18"/><use xlink:href="#27"/><path d="M108.4 55.2h8.4v19.6H108.4z" fill="#fff" class="cursor-active"/></g><g transform="translate(9920,0)"><use xlink:href="#17"/><use xlink:href="#18"/><use xlink:href="#28"/><path d="M116.8 55.2h8.4v19.6H116.8z" fill="#fff" class="cursor-active"/></g><g transform="translate(10230,0)"><use xlink:href="#17"/><use xlink:href="#18"/><use xlink:href="#28"/><path d="M125.2 55.2h8.4v19.6H125.2z" fill="#fff" class="cursor-active"/></g><g transform="translate(10540,0)"><use xlink:href="#17"/><use xlink:href="#18"/><use xlink:href="#29"/><path d="M133.6 55.2h8.4v19.6H133.6z" fill="#fff" class="cursor-active"/></g><g transform="translate(10850,0)"><use xlink:href="#17"/><use xlink:href="#18"/><use xlink:href="#30"/><path d="M142 55.2h8.4v19.6H142z" fill="#fff" class="cursor-active"/></g><g transform="translate(11160,0)"><use xlink:href="#17"/><use xlink:href="#18"/><use xlink:href="#31"/><path d="M150.4 55.2h8.4v19.6H150.4z" fill="#fff" class="cursor-active"/></g><g transform="translate(11470,0)"><use xlink:href="#17"/><use xlink:href="#18"/><use xlink:href="#32"/><path d="M158.8 55.2h8.4v19.6H158.8z" fill="#fff" class="cursor-active"/></g><g transform="translate(11780,0)"><use xlink:href="#17"/><use xlink:href="#18"/><use xlink:href="#32"/><path d="M167.2 55.2h8.4v19.6H167.2z" fill="#fff" class="cursor-active"/></g><g transform="translate(12090,0)"><use xlink:href="#17"/><use xlink:href="#18"/><use xlink:href="#33"/><path d="M175.6 55.2h8.4v19.6H175.6z" fill="#fff" class="cursor-active"/></g><g transform="translate(12400,0)"><use xlink:href="#17"/><use xlink:href="#18"/><use xlink:href="#34"/><path d="M184 55.2h8.4v19.6H184z" fill="#fff" class="cursor-active"/></g><g transform="translate(12710,0)"><use xlink:href="#17"/><use xlink:href="#18"/><use xlink:href="#35"/><path d="M192.4 55.2h8.4v19.6H192.4z" fill="#fff" class="cursor-active"/></g><g transform="translate(13020,0)"><use xlink:href="#17"/><use xlink:href="#18"/><use xlink:href="#36"/><path d="M200.8 55.2h8.4v19.6H200.8z" fill="#fff" class="cursor-active"/></g><g transform="translate(13330,0)"><use xlink:href="#17"/><use xlink:href="#18"/><use xlink:href="#36"/><path d="M209.2 55.2h8.4v19.6H209.2z" fill="#fff" class="cursor-active"/></g><g transform="translate(13640,0)"><use xlink:href="#17"/><use xlink:href="#18"/><use xlink:href="#37"/><path d="M217.6 55.2h8.4v19.6H217.6z" fill="#fff" class="cursor-active"/></g><g transform="translate(13950,0)"><use xlink:href="#17"/><use xlink:href="#18"/><use xlink:href="#38"/><path d="M226 55.2h8.4v19.6H226z" fill="#fff" class="cursor-active"/></g><g transform="translate(14260,0)"><use xlink:href="#17"/><use xlink:href="#18"/><use xlink:href="#39"/><path d="M234.4 55.2h8.4v19.6H234.4z" fill="#fff" class="cursor-active"/></g><g transform="translate(14570,0)"><use xlink:href="#17"/><use xlink:href="#18"/><use xlink:href="#40"/><path d="M242.8 55.2h8.4v19.6H242.8z" fill="#fff" class="cursor-active"/></g><g transform="translate(14880,0)"><use xlink:href="#17"/><use xlink:href="#18"/><use xlink:href="#41"/><path d="M251.2 55.2h8.4v19.6H251.2z" fill="#fff" class="cursor-active"/></g><g transform="translate(15190,0)"><use xlink:href="#17"/><use xlink:href="#18"/><use xlink:href="#42"/><path d="M259.6 55.2h8.4v19.6H259.6z" fill="#fff" class="cursor-active"/></g><g transform="translate(15500,0)"><use xlink:href="#17"/><use xlink:href="#18"/><use xlink:href="#43"/><path d="M268 55.2h8.4v19.6H268z" fill="#fff" class="cursor-active"/></g><g transform="translate(15810,0)"><use xlink:href="#17"/><use xlink:href="#18"/><use xlink:href="#44"/><path d="M276.4 55.2h8.4v19.6H276.4z" fill="#fff" class="cursor-active"/></g><g transform="translate(16120,0)"><use xlink:href="#17"/><use xlink:href="#18"/><use xlink:href="#45"/><path d="M284.8 55.2h8.4v19.6H284.8z" fill="#fff" class="cursor-active"/></g><g transform="translate(16430,0)"><use xlink:href="#17"/><use xlink:href="#18"/><use xlink:href="#45"/><path d="M284.8 55.2h8.4v19.6H284.8z" fill="#fff" class="cursor"/></g></g></g></g></svg>