<svg xmlns="http://www.w3.org/2000/svg" xmlns:xlink="http://www.w3.org/1999/xlink" width="326" height="99" viewBox="0 0 326 99"><defs><symbol id="1"><text x="16" y="17.1" class="c">❯</text></symbol><symbol id="2"><text x="16" y="17.1" class="c">❯ </text><text x="32.8" y="17.1" class="d">e</text></symbol><symbol id="3"><text x="16" y="17.1" class="c">❯ </text><text x="32.8" y="17.1" class="d">ec</text></symbol><symbol id="4"><text x="16" y="17.1" class="c">❯ </text><text x="32.8" y="17.1" class="d">ech</text></symbol><symbol id="5"><text x="16" y="17.1" class="c">❯ </text><text x="32.8" y="17.1" class="d">echo</text></symbol><symbol id="6"><text x="16" y="17.1" class="c">❯ </text><text x="32.8" y="17.1" class="d">echo &apos;</text></symbol><symbol id="7"><text x="16" y="17.1" class="c">❯ </text><text x="32.8" y="17.1" class="d">echo &apos;H</text></symbol><symbol id="8"><text x="16" y="17.1" class="c">❯ </text><text x="32.8" y="17.1" class="d">echo &apos;He</text></symbol><symbol id="9"><text x="16" y="17.1" class="c">❯ </text><text x="32.8" y="17.1" class="d">echo &apos;Hel</text></symbol><symbol id="10"><text x="16" y="17.1" class="c">❯ </text><text x="32.8" y="17.1" class="d">echo &apos;Hell</text></symbol><symbol id="11"><text x="16" y="17.1" class="c">❯ </text><text x="32.8" y="17.1" class="d">echo &apos;Hello</text></symbol><symbol id="12"><text x="16" y="17.1" class="c">❯ </text><text x="32.8" y="17.1" class="d">echo &apos;Hello w</text></symbol><symbol id="13"><text x="16" y="17.1" class="c">❯ </text><text x="32.8" y="17.1" class="d">echo &apos;Hello wo</text></symbol><symbol id="14"><text x="16" y="17.1" class="c">❯ </text><text x="32.8" y="17.1" class="d">echo &apos;Hello wor</text></symbol><symbol id="15"><text x="16" y="17.1" class="c">❯ </text><text x="32.8" y="17.1" class="d">echo &apos;Hello worl</text></symbol><symbol id="16"><text x="16" y="17.1" class="c">❯ </text><text x="32.8" y="17.1" class="d">echo &apos;Hello world</text></symbol><symbol id="17"><text x="16" y="17.1" class="c">❯ </text><text x="32.8" y="17.1" class="d">echo &apos;Hello world&apos;</text></symbol><symbol id="18"><text x="16" y="36.7" class="d">Hello world</text></symbol><symbol id="19"><text x="16" y="56.3" class="c">❯</text></symbol><symbol id="20"><text x="16" y="56.3" class="c">❯ </text><text x="32.8" y="56.3" class="d">e</text></symbol><symbol id="21"><text x="16" y="56.3" class="c">❯ </text><text x="32.8" y="56.3" class="d">ec</text></symbol><symbol id="22"><text x="16" y="56.3" class="c">❯ </text><text x="32.8" y="56.3" class="d">ech</text></symbol><symbol id="23"><text x="16" y="56.3" class="c">❯ </text><text x="32.8" y="56.3" class="d">echo</text></symbol><symbol id="24"><text x="16" y="56.3" class="c">❯ </text><text x="32.8" y="56.3" class="d">echo &apos;</text></symbol><symbol id="25"><text x="16" y="56.3" class="c">❯ </text><text x="32.8" y="56.3" class="d">echo &apos;F</text></symbol><symbol id="26"><text x="16" y="56.3" class="c">❯ </text><text x="32.8" y="56.3" class="d">echo &apos;Fa</text></symbol><symbol id="27"><text x="16" y="56.3" class="c">❯ </text><text x="32.8" y="56.3" class="d">echo &apos;Fas</text></symbol><symbol id="28"><text x="16" y="56.3" class="c">❯ </text><text x="32.8" y="56.3" class="d">echo &apos;Fast</text></symbol><symbol id="29"><text x="16" y="56.3" class="c">❯ </text><text x="32.8" y="56.3" class="d">echo &apos;Fast r</text></symbol><symbol id="30"><text x="16" y="56.3" class="c">❯ </text><text x="32.8" y="56.3" class="d">echo &apos;Fast re</text></symbol><symbol id="31"><text x="16" y="56.3" class="c">❯ </text><text x="32.8" y="56.3" class="d">echo &apos;Fast rew</text></symbol><symbol id="32"><text x="16" y="56.3" class="c">❯ </text><text x="32.8" y="56.3" class="d">echo &apos;Fast rewi</text></symbol><symbol id="33"><text x="16" y="56.3" class="c">❯ </text><text x="32.8" y="56.3" class="d">echo &apos;Fast rewin</text></symbol><symbol id="34"><text x="16" y="56.3" class="c">❯ </text><text x="32.8" y="56.3" class="d">echo &apos;Fast rewind</text></symbol><symbol id="35"><text x="16" y="56.3" class="c">❯ </text><text x="32.8" y="56.3" class="d">echo &apos;Fast rewind t</text></symbol><symbol id="36"><text x="16" y="56.3" class="c">❯ </text><text x="32.8" y="56.3" class="d">echo &apos;Fast rewind th</text></symbol><symbol id="37"><text x="16" y="56.3" class="c">❯ </text><text x="32.8" y="56.3" class="d">echo &apos;Fast rewind the</text></symbol><symbol id="38"><text x="16" y="56.3" class="c">❯ </text><text x="32.8" y="56.3" class="d">echo &apos;Fast rewind then</text></symbol><symbol id="39"><text x="16" y="56.3" class="c">❯ </text><text x="32.8" y="56.3" class="d">echo &apos;Fast rewind then p</text></symbol><symbol id="40"><text x="16" y="56.3" class="c">❯ </text><text x="32.8" y="56.3" class="d">echo &apos;Fast rewind then pa</text></symbol><symbol id="41"><text x="16" y="56.3" class="c">❯ </text><text x="32.8" y="56.3" class="d">echo &apos;Fast rewind then pau</text></symbol><symbol id="42"><text x="16" y="56.3" class="c">❯ </text><text x="32.8" y="56.3" class="d">echo &apos;Fast rewind then paus</text></symbol><symbol id="43"><text x="16" y="56.3" class="c">❯ </text><text x="32.8" y="56.3" class="d">echo &apos;Fast rewind then pause</text></symbol><symbol id="44"><text x="16" y="56.3" class="c">❯ </text><text x="32.8" y="56.3" class="d">echo &apos;Fast rewind then pause.</text></symbol><symbol id="45"><text x="16" y="56.3" class="c">❯ </text><text x="32.8" y="56.3" class="d">echo &apos;Fast rewind then pause..</text></symbol><symbol id="46"><text x="16" y="56.3" class="c">❯ </text><text x="32.8" y="56.3" class="d">echo &apos;Fast rewind then pause...</text></symbol><symbol id="47"><text x="16" y="56.3" class="c">❯ </text><text x="32.8" y="56.3" class="d">echo &apos;Fast rewind then pause...&apos;</text></symbol></defs><style>@keyframes f{0.10%{transform:translateX(0px)}0.72%{transform:translateX(-326px)}1.32%{transform:translateX(-652px)}1.91%{transform:translateX(-978px)}2.54%{transform:translateX(-1304px)}3.14%{transform:translateX(-1630px)}3.77%{transform:translateX(-1956px)}4.39%{transform:translateX(-2282px)}5.01%{transform:translateX(-2608px)}5.61%{transform:translateX(-2934px)}6.23%{transform:translateX(-3260px)}6.86%{transform:translateX(-3586px)}7.49%{transform:translateX(-3912px)}8.09%{transform:translateX(-4238px)}8.69%{transform:translateX(-4564px)}9.32%{transform:translateX(-4890px)}9.94%{transform:translateX(-5216px)}10.55%{transform:translateX(-5542px)}11.16%{transform:translateX(-5868px)}11.17%{transform:translateX(-6194px)}18.44%{transform:translateX(-6520px)}18.50%{transform:translateX(-6846px)}19.77%{transform:translateX(-7172px)}20.36%{transform:translateX(-7498px)}20.99%{transform:translateX(-7824px)}21.59%{transform:translateX(-8150px)}22.20%{transform:translateX(-8476px)}22.82%{transform:translateX(-8802px)}23.43%{transform:translateX(-9128px)}24.06%{transform:translateX(-9454px)}24.66%{transform:translateX(-9780px)}25.29%{transform:translateX(-10106px)}25.89%{transform:translateX(-10432px)}26.49%{transform:translateX(-10758px)}27.11%{transform:translateX(-11084px)}27.74%{transform:translateX(-11410px)}28.35%{transform:translateX(-11736px)}28.96%{transform:translateX(-12062px)}29.58%{transform:translateX(-12388px)}30.18%{transform:translateX(-12714px)}30.80%{transform:translateX(-13040px)}31.41%{transform:translateX(-13366px)}32.03%{transform:translateX(-13692px)}32.63%{transform:translateX(-14018px)}33.26%{transform:translateX(-14344px)}33.87%{transform:translateX(-14670px)}34.48%{transform:translateX(-14996px)}35.11%{transform:translateX(-15322px)}35.71%{transform:translateX(-15648px)}36.32%{transform:translateX(-15974px)}36.96%{transform:translateX(-16300px)}37.57%{transform:translateX(-16626px)}38.18%{transform:translateX(-16952px)}38.80%{transform:translateX(-17278px)}39.43%{transform:translateX(-17604px)}39.44%{transform:translateX(-17930px)}75.59%{transform:translateX(-17604px)}75.59%{transform:translateX(-17278px)}75.66%{transform:translateX(-16952px)}75.72%{transform:translateX(-16626px)}75.78%{transform:translateX(-16300px)}75.84%{transform:translateX(-15974px)}75.90%{transform:translateX(-15648px)}75.96%{transform:translateX(-15322px)}76.03%{transform:translateX(-14996px)}76.09%{transform:translateX(-14670px)}76.15%{transform:translateX(-14344px)}76.21%{transform:translateX(-14018px)}76.27%{transform:translateX(-13692px)}76.33%{transform:translateX(-13366px)}76.39%{transform:translateX(-13040px)}76.46%{transform:translateX(-12714px)}76.52%{transform:translateX(-12388px)}76.58%{transform:translateX(-12062px)}76.64%{transform:translateX(-11736px)}76.70%{transform:translateX(-11410px)}76.76%{transform:translateX(-11084px)}76.82%{transform:translateX(-10758px)}76.89%{transform:translateX(-10432px)}76.95%{transform:translateX(-10106px)}77.01%{transform:translateX(-9780px)}77.07%{transform:translateX(-9454px)}77.13%{transform:translateX(-9128px)}77.19%{transform:translateX(-8802px)}77.25%{transform:translateX(-8476px)}77.32%{transform:translateX(-8150px)}77.38%{transform:translateX(-7824px)}77.44%{transform:translateX(-7498px)}77.50%{transform:translateX(-7172px)}77.56%{transform:translateX(-6846px)}77.69%{transform:translateX(-6520px)}77.69%{transform:translateX(-6194px)}78.42%{transform:translateX(-5868px)}78.42%{transform:translateX(-5542px)}78.48%{transform:translateX(-5216px)}78.54%{transform:translateX(-4890px)}78.60%{transform:translateX(-4564px)}78.67%{transform:translateX(-4238px)}78.73%{transform:translateX(-3912px)}78.79%{transform:translateX(-3586px)}78.85%{transform:translateX(-3260px)}78.91%{transform:translateX(-2934px)}78.97%{transform:translateX(-2608px)}79.04%{transform:translateX(-2282px)}79.10%{transform:translateX(-1956px)}79.16%{transform:translateX(-1630px)}79.22%{transform:translateX(-1304px)}79.28%{transform:translateX(-978px)}79.34%{transform:translateX(-652px)}79.40%{transform:translateX(-326px)}79.46%{transform:translateX(0px)}100%{transform:translateX(0px)}}.a{fill:#1e1e1e}.c{fill:#d2a8ff;stroke:#d2a8ff}.d{fill:#c9d1d9;stroke:#c9d1d9}path[fill="none"]{fill:none}path[shape-rendering="crispEdges"]{stroke:none}text{font-family:'SF Mono',Monaco,Consolas,Menlo,monospace;font-size:14px;dominant-baseline:text-before-edge;white-space:pre}text[class]{stroke:none}.bold{font-weight:700}.italic{font-style:italic}.uline{text-decoration:underline}.strike{text-decoration:line-through}.dim{opacity:0.5}@keyframes blink{0%,50%{opacity:1}50.01%,100%{opacity:0}}.cursor{animation:blink 1s step-end infinite;mix-blend-mode:difference}.cursor-active{opacity:1;mix-blend-mode:difference}</style><g transform="translate(0,0)"><rect width="326" height="99" rx="8" fill="#1e1e1e"/><clipPath id="content-clip"><path d="M0 0h326v99H0z" /></clipPath><g clip-path="url(#content-clip)"><g style="animation:f 8.309s steps(1,end) infinite"><g transform="translate(0,0)"><use xlink:href="#1"/><path d="M32.8 16h8.4v19.6H32.8z" fill="#fff" class="cursor"/></g><g transform="translate(326,0)"><use xlink:href="#2"/><path d="M41.2 16h8.4v19.6H41.2z" fill="#fff" class="cursor-active"/></g><g transform="translate(652,0)"><use xlink:href="#3"/><path d="M49.6 16h8.4v19.6H49.6z" fill="#fff" class="cursor-active"/></g><g transform="translate(978,0)"><use xlink:href="#4"/><path d="M58 16h8.4v19.6H58z" fill="#fff" class="cursor-active"/></g><g transform="translate(1304,0)"><use xlink:href="#5"/><path d="M66.4 16h8.4v19.6H66.4z" fill="#fff" class="cursor-active"/></g><g transform="translate(1630,0)"><use xlink:href="#5"/><path d="M74.8 16h8.4v19.6H74.8z" fill="#fff" class="cursor-active"/></g><g transform="translate(1956,0)"><use xlink:href="#6"/><path d="M83.2 16h8.4v19.6H83.2z" fill="#fff" class="cursor-active"/></g><g transform="translate(2282,0)"><use xlink:href="#7"/><path d="M91.6 16h8.4v19.6H91.6z" fill="#fff" class="cursor-active"/></g><g transform="translate(2608,0)"><use xlink:href="#8"/><path d="M100 16h8.4v19.6H100z" fill="#fff" class="cursor-active"/></g><g transform="translate(2934,0)"><use xlink:href="#9"/><path d="M108.4 16h8.4v19.6H108.4z" fill="#fff" class="cursor-active"/></g><g transform="translate(3260,0)"><use xlink:href="#10"/><path d="M116.8 16h8.4v19.6H116.8z" fill="#fff" class="cursor-active"/></g><g transform="translate(3586,0)"><use xlink:href="#11"/><path d="M125.2 16h8.4v19.6H125.2z" fill="#fff" class="cursor-active"/></g><g transform="translate(3912,0)"><use xlink:href="#11"/><path d="M133.6 16h8.4v19.6H133.6z" fill="#fff" class="cursor-active"/></g><g transform="translate(4238,0)"><use xlink:href="#12"/><path d="M142 16h8.4v19.6H142z" fill="#fff" class="cursor-active"/></g><g transform="translate(4564,0)"><use xlink:href="#13"/><path d="M150.4 16h8.4v19.6H150.4z" fill="#fff" class="cursor-active"/></g><g transform="translate(4890,0)"><use xlink:href="#14"/><path d="M158.8 16h8.4v19.6H158.8z" fill="#fff" class="cursor-active"/></g><g transform="translate(5216,0)"><use xlink:href="#15"/><path d="M167.2 16h8.4v19.6H167.2z" fill="#fff" class="cursor-active"/></g><g transform="translate(5542,0)"><use xlink:href="#16"/><path d="M175.6 16h8.4v19.6H175.6z" fill="#fff" class="cursor-active"/></g><g transform="translate(5868,0)"><use xlink:href="#17"/><path d="M184 16h8.4v19.6H184z" fill="#fff" class="cursor-active"/></g><g transform="translate(6194,0)"><use xlink:href="#17"/><path d="M184 16h8.4v19.6H184z" fill="#fff" class="cursor"/></g><g transform="translate(6520,0)"><use xlink:href="#17"/></g><g transform="translate(6846,0)"><use xlink:href="#17"/><use xlink:href="#18"/></g><g transform="translate(7172,0)"><use xlink:href="#17"/><use xlink:href="#18"/><use xlink:href="#19"/><path d="M32.8 55.2h8.4v19.6H32.8z" fill="#fff" class="cursor"/></g><g transform="translate(7498,0)"><use xlink:href="#17"/><use xlink:href="#18"/><use xlink:href="#20"/><path d="M41.2 55.2h8.4v19.6H41.2z" fill="#fff" class="cursor-active"/></g><g transform="translate(7824,0)"><use xlink:href="#17"/><use xlink:href="#18"/><use xlink:href="#21"/><path d="M49.6 55.2h8.4v19.6H49.6z" fill="#fff" class="cursor-active"/></g><g transform="translate(8150,0)"><use xlink:href="#17"/><use xlink:href="#18"/><use xlink:href="#22"/><path d="M58 55.2h8.4v19.6H58z" fill="#fff" class="cursor-active"/></g><g transform="translate(8476,0)"><use xlink:href="#17"/><use xlink:href="#18"/><use xlink:href="#23"/><path d="M66.4 55.2h8.4v19.6H66.4z" fill="#fff" class="cursor-active"/></g><g transform="translate(8802,0)"><use xlink:href="#17"/><use xlink:href="#18"/><use xlink:href="#23"/><path d="M74.8 55.2h8.4v19.6H74.8z" fill="#fff" class="cursor-active"/></g><g transform="translate(9128,0)"><use xlink:href="#17"/><use xlink:href="#18"/><use xlink:href="#24"/><path d="M83.2 55.2h8.4v19.6H83.2z" fill="#fff" class="cursor-active"/></g><g transform="translate(9454,0)"><use xlink:href="#17"/><use xlink:href="#18"/><use xlink:href="#25"/><path d="M91.6 55.2h8.4v19.6H91.6z" fill="#fff" class="cursor-active"/></g><g transform="translate(9780,0)"><use xlink:href="#17"/><use xlink:href="#18"/><use xlink:href="#26"/><path d="M100 55.2h8.4v19.6H100z" fill="#fff" class="cursor-active"/></g><g transform="translate(10106,0)"><use xlink:href="#17"/><use xlink:href="#18"/><use xlink:href="#27"/><path d="M108.4 55.2h8.4v19.6H108.4z" fill="#fff" class="cursor-active"/></g><g transform="translate(10432,0)"><use xlink:href="#17"/><use xlink:href="#18"/><use xlink:href="#28"/><path d="M116.8 55.2h8.4v19.6H116.8z" fill="#fff" class="cursor-active"/></g><g transform="translate(10758,0)"><use xlink:href="#17"/><use xlink:href="#18"/><use xlink:href="#28"/><path d="M125.2 55.2h8.4v19.6H125.2z" fill="#fff" class="cursor-active"/></g><g transform="translate(11084,0)"><use xlink:href="#17"/><use xlink:href="#18"/><use xlink:href="#29"/><path d="M133.6 55.2h8.4v19.6H133.6z" fill="#fff" class="cursor-active"/></g><g transform="translate(11410,0)"><use xlink:href="#17"/><use xlink:href="#18"/><use xlink:href="#30"/><path d="M142 55.2h8.4v19.6H142z" fill="#fff" class="cursor-active"/></g><g transform="translate(11736,0)"><use xlink:href="#17"/><use xlink:href="#18"/><use xlink:href="#31"/><path d="M150.4 55.2h8.4v19.6H150.4z" fill="#fff" class="cursor-active"/></g><g transform="translate(12062,0)"><use xlink:href="#17"/><use xlink:href="#18"/><use xlink:href="#32"/><path d="M158.8 55.2h8.4v19.6H158.8z" fill="#fff" class="cursor-active"/></g><g transform="translate(12388,0)"><use xlink:href="#17"/><use xlink:href="#18"/><use xlink:href="#33"/><path d="M167.2 55.2h8.4v19.6H167.2z" fill="#fff" class="cursor-active"/></g><g transform="translate(12714,0)"><use xlink:href="#17"/><use xlink:href="#18"/><use xlink:href="#34"/><path d="M175.6 55.2h8.4v19.6H175.6z" fill="#fff" class="cursor-active"/></g><g transform="translate(13040,0)"><use xlink:href="#17"/><use xlink:href="#18"/><use xlink:href="#34"/><path d="M184 55.2h8.4v19.6H184z" fill="#fff" class="cursor-active"/></g><g transform="translate(13366,0)"><use xlink:href="#17"/><use xlink:href="#18"/><use xlink:href="#35"/><path d="M192.4 55.2h8.4v19.6H192.4z" fill="#fff" class="cursor-active"/></g><g transform="translate(13692,0)"><use xlink:href="#17"/><use xlink:href="#18"/><use xlink:href="#36"/><path d="M200.8 55.2h8.4v19.6H200.8z" fill="#fff" class="cursor-active"/></g><g transform="translate(14018,0)"><use xlink:href="#17"/><use xlink:href="#18"/><use xlink:href="#37"/><path d="M209.2 55.2h8.4v19.6H209.2z" fill="#fff" class="cursor-active"/></g><g transform="translate(14344,0)"><use xlink:href="#17"/><use xlink:href="#18"/><use xlink:href="#38"/><path d="M217.6 55.2h8.4v19.6H217.6z" fill="#fff" class="cursor-active"/></g><g transform="translate(14670,0)"><use xlink:href="#17"/><use xlink:href="#18"/><use xlink:href="#38"/><path d="M226 55.2h8.4v19.6H226z" fill="#fff" class="cursor-active"/></g><g transform="translate(14996,0)"><use xlink:href="#17"/><use xlink:href="#18"/><use xlink:href="#39"/><path d="M234.4 55.2h8.4v19.6H234.4z" fill="#fff" class="cursor-active"/></g><g transform="translate(15322,0)"><use xlink:href="#17"/><use xlink:href="#18"/><use xlink:href="#40"/><path d="M242.8 55.2h8.4v19.6H242.8z" fill="#fff" class="cursor-active"/></g><g transform="translate(15648,0)"><use xlink:href="#17"/><use xlink:href="#18"/><use xlink:href="#41"/><path d="M251.2 55.2h8.4v19.6H251.2z" fill="#fff" class="cursor-active"/></g><g transform="translate(15974,0)"><use xlink:href="#17"/><use xlink:href="#18"/><use xlink:href="#42"/><path d="M259.6 55.2h8.4v19.6H259.6z" fill="#fff" class="cursor-active"/></g><g transform="translate(16300,0)"><use xlink:href="#17"/><use xlink:href="#18"/><use xlink:href="#43"/><path d="M268 55.2h8.4v19.6H268z" fill="#fff" class="cursor-active"/></g><g transform="translate(16626,0)"><use xlink:href="#17"/><use xlink:href="#18"/><use xlink:href="#44"/><path d="M276.4 55.2h8.4v19.6H276.4z" fill="#fff" class="cursor-active"/></g><g transform="translate(16952,0)"><use xlink:href="#17"/><use xlink:href="#18"/><use xlink:href="#45"/><path d="M284.8 55.2h8.4v19.6H284.8z" fill="#fff" class="cursor-active"/></g><g transform="translate(17278,0)"><use xlink:href="#17"/><use xlink:href="#18"/><use xlink:href="#46"/><path d="M293.2 55.2h8.4v19.6H293.2z" fill="#fff" class="cursor-active"/></g><g transform="translate(17604,0)"><use xlink:href="#17"/><use xlink:href="#18"/><use xlink:href="#47"/><path d="M301.6 55.2h8.4v19.6H301.6z" fill="#fff" class="cursor-active"/></g><g transform="translate(17930,0)"><use xlink:href="#17"/><use xlink:href="#18"/><use xlink:href="#47"/><path d="M301.6 55.2h8.4v19.6H301.6z" fill="#fff" class="cursor"/></g></g></g></g></svg>