<svg xmlns="http://www.w3.org/2000/svg" xmlns:xlink="http://www.w3.org/1999/xlink" width="400" height="220" viewBox="0 0 400 220"><defs><symbol id="1"><text x="16" y="54.3" class="c">❯</text></symbol><symbol id="2"><text x="16" y="54.3" class="c">❯ </text><text x="32.8" y="54.3" class="d">e</text></symbol><symbol id="3"><text x="16" y="54.3" class="c">❯ </text><text x="32.8" y="54.3" class="d">ec</text></symbol><symbol id="4"><text x="16" y="54.3" class="c">❯ </text><text x="32.8" y="54.3" class="d">ech</text></symbol><symbol id="5"><text x="16" y="54.3" class="c">❯ </text><text x="32.8" y="54.3" class="d">echo</text></symbol><symbol id="6"><text x="16" y="54.3" class="c">❯ </text><text x="32.8" y="54.3" class="d">echo -</text></symbol><symbol id="7"><text x="16" y="54.3" class="c">❯ </text><text x="32.8" y="54.3" class="d">echo -e</text></symbol><symbol id="8"><text x="16" y="54.3" class="c">❯ </text><text x="32.8" y="54.3" class="d">echo -e &apos;</text></symbol><symbol id="9"><text x="16" y="54.3" class="c">❯ </text><text x="32.8" y="54.3" class="d">echo -e &apos;    _</text></symbol><symbol id="10"><text x="16" y="54.3" class="c">❯ </text><text x="32.8" y="54.3" class="d">echo -e &apos;    __</text></symbol><symbol id="11"><text x="16" y="54.3" class="c">❯ </text><text x="32.8" y="54.3" class="d">echo -e &apos;    ___</text></symbol><symbol id="12"><text x="16" y="54.3" class="c">❯ </text><text x="32.8" y="54.3" class="d">echo -e &apos;    ____</text></symbol><symbol id="13"><text x="16" y="54.3" class="c">❯ </text><text x="32.8" y="54.3" class="d">echo -e &apos;    ____  _</text></symbol><symbol id="14"><text x="16" y="54.3" class="c">❯ </text><text x="32.8" y="54.3" class="d">echo -e &apos;    ____  __</text></symbol><symbol id="15"><text x="16" y="54.3" class="c">❯ </text><text x="32.8" y="54.3" class="d">echo -e &apos;    ____  __     _</text></symbol><symbol id="16"><text x="16" y="54.3" class="c">❯ </text><text x="32.8" y="54.3" class="d">echo -e &apos;    ____  __     __</text></symbol><symbol id="17"><text x="16" y="54.3" class="c">❯ </text><text x="32.8" y="54.3" class="d">echo -e &apos;    ____  __     __ _</text></symbol><symbol id="18"><text x="16" y="54.3" class="c">❯ </text><text x="32.8" y="54.3" class="d">echo -e &apos;    ____  __     __ __</text></symbol><symbol id="19"><text x="16" y="54.3" class="c">❯ </text><text x="32.8" y="54.3" class="d">echo -e &apos;    ____  __     __ ___</text></symbol><symbol id="20"><text x="16" y="54.3" class="c">❯ </text><text x="32.8" y="54.3" class="d">echo -e &apos;    ____  __     __ ____</text></symbol><symbol id="21"><text x="16" y="54.3" class="c">❯ </text><text x="32.8" y="54.3" class="d">echo -e &apos;    ____  __     __ ____  \</text></symbol><symbol id="22"><text x="16" y="54.3" class="c">❯ </text><text x="32.8" y="54.3" class="d">echo -e &apos;    ____  __     __ ____  \n</text></symbol><symbol id="23"><text x="16" y="54.3" class="c">❯ </text><text x="32.8" y="54.3" class="d">echo -e &apos;    ____  __     __ ____  \n   |</text></symbol><symbol id="24"><text x="16" y="68.3" class="d">  _</text></symbol><symbol id="25"><text x="16" y="68.3" class="d">  _ \</text></symbol><symbol id="26"><text x="16" y="68.3" class="d">  _ \\</text></symbol><symbol id="27"><text x="16" y="68.3" class="d">  _ \\ \</text></symbol><symbol id="28"><text x="16" y="68.3" class="d">  _ \\ \\</text></symbol><symbol id="29"><text x="16" y="68.3" class="d">  _ \\ \\ \</text></symbol><symbol id="30"><text x="16" y="68.3" class="d">  _ \\ \\ \\</text></symbol><symbol id="31"><text x="16" y="68.3" class="d">  _ \\ \\ \\   /</text></symbol><symbol id="32"><text x="16" y="68.3" class="d">  _ \\ \\ \\   / /</text></symbol><symbol id="33"><text x="16" y="68.3" class="d">  _ \\ \\ \\   / /|</text></symbol><symbol id="34"><text x="16" y="68.3" class="d">  _ \\ \\ \\   / /|  _</text></symbol><symbol id="35"><text x="16" y="68.3" class="d">  _ \\ \\ \\   / /|  _ \</text></symbol><symbol id="36"><text x="16" y="68.3" class="d">  _ \\ \\ \\   / /|  _ \\</text></symbol><symbol id="37"><text x="16" y="68.3" class="d">  _ \\ \\ \\   / /|  _ \\ \</text></symbol><symbol id="38"><text x="16" y="68.3" class="d">  _ \\ \\ \\   / /|  _ \\ \n</text></symbol><symbol id="39"><text x="16" y="68.3" class="d">  _ \\ \\ \\   / /|  _ \\ \n   |</text></symbol><symbol id="40"><text x="16" y="68.3" class="d">  _ \\ \\ \\   / /|  _ \\ \n   | |</text></symbol><symbol id="41"><text x="16" y="68.3" class="d">  _ \\ \\ \\   / /|  _ \\ \n   | | |</text></symbol><symbol id="42"><text x="16" y="68.3" class="d">  _ \\ \\ \\   / /|  _ \\ \n   | | | |</text></symbol><symbol id="43"><text x="16" y="68.3" class="d">  _ \\ \\ \\   / /|  _ \\ \n   | | | | \</text></symbol><symbol id="44"><text x="16" y="68.3" class="d">  _ \\ \\ \\   / /|  _ \\ \n   | | | | \\</text></symbol><symbol id="45"><text x="16" y="68.3" class="d">  _ \\ \\ \\   / /|  _ \\ \n   | | | | \\ \</text></symbol><symbol id="46"><text x="16" y="82.3" class="d">\</text></symbol><symbol id="47"><text x="16" y="82.3" class="d">\ /</text></symbol><symbol id="48"><text x="16" y="82.3" class="d">\ / /</text></symbol><symbol id="49"><text x="16" y="82.3" class="d">\ / / |</text></symbol><symbol id="50"><text x="16" y="82.3" class="d">\ / / | |</text></symbol><symbol id="51"><text x="16" y="82.3" class="d">\ / / | | |</text></symbol><symbol id="52"><text x="16" y="82.3" class="d">\ / / | | | |</text></symbol><symbol id="53"><text x="16" y="82.3" class="d">\ / / | | | |\</text></symbol><symbol id="54"><text x="16" y="82.3" class="d">\ / / | | | |\n</text></symbol><symbol id="55"><text x="16" y="82.3" class="d">\ / / | | | |\n   |</text></symbol><symbol id="56"><text x="16" y="82.3" class="d">\ / / | | | |\n   | |</text></symbol><symbol id="57"><text x="16" y="82.3" class="d">\ / / | | | |\n   | |_</text></symbol><symbol id="58"><text x="16" y="82.3" class="d">\ / / | | | |\n   | |_|</text></symbol><symbol id="59"><text x="16" y="82.3" class="d">\ / / | | | |\n   | |_| |</text></symbol><symbol id="60"><text x="16" y="82.3" class="d">\ / / | | | |\n   | |_| |  \</text></symbol><symbol id="61"><text x="16" y="82.3" class="d">\ / / | | | |\n   | |_| |  \\</text></symbol><symbol id="62"><text x="16" y="82.3" class="d">\ / / | | | |\n   | |_| |  \\ V</text></symbol><symbol id="63"><text x="16" y="82.3" class="d">\ / / | | | |\n   | |_| |  \\ V /</text></symbol><symbol id="64"><text x="16" y="82.3" class="d">\ / / | | | |\n   | |_| |  \\ V /  |</text></symbol><symbol id="65"><text x="16" y="82.3" class="d">\ / / | | | |\n   | |_| |  \\ V /  | |</text></symbol><symbol id="66"><text x="16" y="82.3" class="d">\ / / | | | |\n   | |_| |  \\ V /  | |_</text></symbol><symbol id="67"><text x="16" y="82.3" class="d">\ / / | | | |\n   | |_| |  \\ V /  | |_|</text></symbol><symbol id="68"><text x="16" y="82.3" class="d">\ / / | | | |\n   | |_| |  \\ V /  | |_| |</text></symbol><symbol id="69"><text x="16" y="82.3" class="d">\ / / | | | |\n   | |_| |  \\ V /  | |_| |\</text></symbol><symbol id="70"><text x="16" y="96.3" class="d">n</text></symbol><symbol id="71"><text x="16" y="96.3" class="d">n   |</text></symbol><symbol id="72"><text x="16" y="96.3" class="d">n   |_</text></symbol><symbol id="73"><text x="16" y="96.3" class="d">n   |__</text></symbol><symbol id="74"><text x="16" y="96.3" class="d">n   |___</text></symbol><symbol id="75"><text x="16" y="96.3" class="d">n   |____</text></symbol><symbol id="76"><text x="16" y="96.3" class="d">n   |____/</text></symbol><symbol id="77"><text x="16" y="96.3" class="d">n   |____/    \</text></symbol><symbol id="78"><text x="16" y="96.3" class="d">n   |____/    \\</text></symbol><symbol id="79"><text x="16" y="96.3" class="d">n   |____/    \\_</text></symbol><symbol id="80"><text x="16" y="96.3" class="d">n   |____/    \\_/</text></symbol><symbol id="81"><text x="16" y="96.3" class="d">n   |____/    \\_/   |</text></symbol><symbol id="82"><text x="16" y="96.3" class="d">n   |____/    \\_/   |_</text></symbol><symbol id="83"><text x="16" y="96.3" class="d">n   |____/    \\_/   |__</text></symbol><symbol id="84"><text x="16" y="96.3" class="d">n   |____/    \\_/   |___</text></symbol><symbol id="85"><text x="16" y="96.3" class="d">n   |____/    \\_/   |____</text></symbol><symbol id="86"><text x="16" y="96.3" class="d">n   |____/    \\_/   |____/</text></symbol><symbol id="87"><text x="16" y="96.3" class="d">n   |____/    \\_/   |____/ &apos;</text></symbol><symbol id="88"><text x="16" y="68.3" class="d">    ____  __     __ ____</text></symbol><symbol id="89"><text x="16" y="82.3" class="d">   |  _ \ \ \   / /|  _ \</text></symbol><symbol id="90"><text x="16" y="96.3" class="d">   | | | | \ \ / / | | | |</text></symbol><symbol id="91"><text x="16" y="110.3" class="d">   | |_| |  \ V /  | |_| |</text></symbol><symbol id="92"><text x="16" y="124.3" class="d">   |____/    \_/   |____/</text></symbol><symbol id="93"><text x="16" y="110.3" class="d">    ____  __     __ ____</text></symbol><symbol id="94"><text x="16" y="124.3" class="d">   |  _ \ \ \   / /|  _ \</text></symbol><symbol id="95"><text x="16" y="138.3" class="d">   | | | | \ \ / / | | | |</text></symbol><symbol id="96"><text x="16" y="152.3" class="d">   | |_| |  \ V /  | |_| |</text></symbol><symbol id="97"><text x="16" y="166.3" class="d">   |____/    \_/   |____/</text></symbol><symbol id="98"><text x="16" y="180.3" class="c">❯</text></symbol></defs><style>@keyframes f{0.15%{transform:translateX(0px)}0.35%{transform:translateX(-400px)}0.52%{transform:translateX(-800px)}0.68%{transform:translateX(-1200px)}0.84%{transform:translateX(-1600px)}1.01%{transform:translateX(-2000px)}1.18%{transform:translateX(-2400px)}1.35%{transform:translateX(-2800px)}1.54%{transform:translateX(-3200px)}1.69%{transform:translateX(-3600px)}1.87%{transform:translateX(-4000px)}2.06%{transform:translateX(-4400px)}2.21%{transform:translateX(-4800px)}2.38%{transform:translateX(-5200px)}2.55%{transform:translateX(-5600px)}2.73%{transform:translateX(-6000px)}2.89%{transform:translateX(-6400px)}3.07%{transform:translateX(-6800px)}3.24%{transform:translateX(-7200px)}3.43%{transform:translateX(-7600px)}3.58%{transform:translateX(-8000px)}3.76%{transform:translateX(-8400px)}3.92%{transform:translateX(-8800px)}4.10%{transform:translateX(-9200px)}4.29%{transform:translateX(-9600px)}4.45%{transform:translateX(-10000px)}4.62%{transform:translateX(-10400px)}4.81%{transform:translateX(-10800px)}4.99%{transform:translateX(-11200px)}5.16%{transform:translateX(-11600px)}5.30%{transform:translateX(-12000px)}5.47%{transform:translateX(-12400px)}5.64%{transform:translateX(-12800px)}5.82%{transform:translateX(-13200px)}5.98%{transform:translateX(-13600px)}6.16%{transform:translateX(-14000px)}6.30%{transform:translateX(-14400px)}6.47%{transform:translateX(-14800px)}6.65%{transform:translateX(-15200px)}6.80%{transform:translateX(-15600px)}6.97%{transform:translateX(-16000px)}7.14%{transform:translateX(-16400px)}7.28%{transform:translateX(-16800px)}7.47%{transform:translateX(-17200px)}7.63%{transform:translateX(-17600px)}7.79%{transform:translateX(-18000px)}7.96%{transform:translateX(-18400px)}8.14%{transform:translateX(-18800px)}8.33%{transform:translateX(-19200px)}8.45%{transform:translateX(-19600px)}8.63%{transform:translateX(-20000px)}8.79%{transform:translateX(-20400px)}8.96%{transform:translateX(-20800px)}9.12%{transform:translateX(-21200px)}9.31%{transform:translateX(-21600px)}9.46%{transform:translateX(-22000px)}9.63%{transform:translateX(-22400px)}9.80%{transform:translateX(-22800px)}9.97%{transform:translateX(-23200px)}10.15%{transform:translateX(-23600px)}10.34%{transform:translateX(-24000px)}10.51%{transform:translateX(-24400px)}10.69%{transform:translateX(-24800px)}10.84%{transform:translateX(-25200px)}11.01%{transform:translateX(-25600px)}11.18%{transform:translateX(-26000px)}11.35%{transform:translateX(-26400px)}11.52%{transform:translateX(-26800px)}11.69%{transform:translateX(-27200px)}11.86%{transform:translateX(-27600px)}12.01%{transform:translateX(-28000px)}12.20%{transform:translateX(-28400px)}12.40%{transform:translateX(-28800px)}12.55%{transform:translateX(-29200px)}12.73%{transform:translateX(-29600px)}12.89%{transform:translateX(-30000px)}13.03%{transform:translateX(-30400px)}13.20%{transform:translateX(-30800px)}13.35%{transform:translateX(-31200px)}13.52%{transform:translateX(-31600px)}13.69%{transform:translateX(-32000px)}13.86%{transform:translateX(-32400px)}14.02%{transform:translateX(-32800px)}14.19%{transform:translateX(-33200px)}14.36%{transform:translateX(-33600px)}14.53%{transform:translateX(-34000px)}14.70%{transform:translateX(-34400px)}14.85%{transform:translateX(-34800px)}15.01%{transform:translateX(-35200px)}15.18%{transform:translateX(-35600px)}15.36%{transform:translateX(-36000px)}15.53%{transform:translateX(-36400px)}15.71%{transform:translateX(-36800px)}15.85%{transform:translateX(-37200px)}16.04%{transform:translateX(-37600px)}16.18%{transform:translateX(-38000px)}16.34%{transform:translateX(-38400px)}16.53%{transform:translateX(-38800px)}16.71%{transform:translateX(-39200px)}16.87%{transform:translateX(-39600px)}17.05%{transform:translateX(-40000px)}17.22%{transform:translateX(-40400px)}17.40%{transform:translateX(-40800px)}17.57%{transform:translateX(-41200px)}17.71%{transform:translateX(-41600px)}17.86%{transform:translateX(-42000px)}18.03%{transform:translateX(-42400px)}18.17%{transform:translateX(-42800px)}18.34%{transform:translateX(-43200px)}18.49%{transform:translateX(-43600px)}18.68%{transform:translateX(-44000px)}18.83%{transform:translateX(-44400px)}19.02%{transform:translateX(-44800px)}19.20%{transform:translateX(-45200px)}19.37%{transform:translateX(-45600px)}19.54%{transform:translateX(-46000px)}19.72%{transform:translateX(-46400px)}19.88%{transform:translateX(-46800px)}20.06%{transform:translateX(-47200px)}20.25%{transform:translateX(-47600px)}20.41%{transform:translateX(-48000px)}20.58%{transform:translateX(-48400px)}20.74%{transform:translateX(-48800px)}20.92%{transform:translateX(-49200px)}21.08%{transform:translateX(-49600px)}21.24%{transform:translateX(-50000px)}21.41%{transform:translateX(-50400px)}21.58%{transform:translateX(-50800px)}21.75%{transform:translateX(-51200px)}21.92%{transform:translateX(-51600px)}22.09%{transform:translateX(-52000px)}22.24%{transform:translateX(-52400px)}22.41%{transform:translateX(-52800px)}22.58%{transform:translateX(-53200px)}22.75%{transform:translateX(-53600px)}22.90%{transform:translateX(-54000px)}23.09%{transform:translateX(-54400px)}23.23%{transform:translateX(-54800px)}23.41%{transform:translateX(-55200px)}23.59%{transform:translateX(-55600px)}23.76%{transform:translateX(-56000px)}23.93%{transform:translateX(-56400px)}24.10%{transform:translateX(-56800px)}24.25%{transform:translateX(-57200px)}24.44%{transform:translateX(-57600px)}24.58%{transform:translateX(-58000px)}24.76%{transform:translateX(-58400px)}24.92%{transform:translateX(-58800px)}25.10%{transform:translateX(-59200px)}25.28%{transform:translateX(-59600px)}25.48%{transform:translateX(-60000px)}25.64%{transform:translateX(-60400px)}25.81%{transform:translateX(-60800px)}25.99%{transform:translateX(-61200px)}26.13%{transform:translateX(-61600px)}26.30%{transform:translateX(-62000px)}26.47%{transform:translateX(-62400px)}26.48%{transform:translateX(-62800px)}36.21%{transform:translateX(-63200px)}36.18%{transform:translateX(-63600px)}38.29%{transform:translateX(-64000px)}}.a{fill:#0d1117}.c{fill:#d2a8ff;stroke:#d2a8ff}.d{fill:#c9d1d9;stroke:#c9d1d9}path[fill="none"]{fill:none}path[shape-rendering="crispEdges"]{stroke:none}text{font-family:'SF Mono',Monaco,Consolas,Menlo,monospace;font-size:14px;dominant-baseline:text-before-edge;white-space:pre}text[class]{stroke:none}.bold{font-weight:700}.italic{font-style:italic}.uline{text-decoration:underline}.strike{text-decoration:line-through}.dim{opacity:0.5}@keyframes blink{0%,50%{opacity:1}50.01%,100%{opacity:0}}.cursor{animation:blink 1s step-end infinite;mix-blend-mode:difference}.cursor-active{opacity:1;mix-blend-mode:difference}</style><g transform="translate(0,0)"><rect width="400" height="220" rx="8" fill="#0d1117"/><rect width="400" height="40" rx="8" fill="#0d1117"/><path d="M0 32h400v8H0z" fill="#0d1117"/><circle cx="16" cy="20" r="6" fill="#ff5f56"/><circle cx="36" cy="20" r="6" fill="#ffbd2e"/><circle cx="56" cy="20" r="6" fill="#27c93f"/><text x="200" y="20" text-anchor="middle" dominant-baseline="middle" fill="#c9d1d9" font-size="14">ASCII Art Demo</text><clipPath id="content-clip"><path d="M0 40h400v180H0z" /></clipPath><g clip-path="url(#content-clip)"><g style="animation:f 6.510s steps(1,end) infinite"><g transform="translate(0,0)"><use xlink:href="#1"/><path d="M32.8 54.6h8.4v16.8H32.8z" fill="#fff" class="cursor"/></g><g transform="translate(400,0)"><use xlink:href="#2"/><path d="M41.2 54.6h8.4v16.8H41.2z" fill="#fff" class="cursor-active"/></g><g transform="translate(800,0)"><use xlink:href="#3"/><path d="M49.6 54.6h8.4v16.8H49.6z" fill="#fff" class="cursor-active"/></g><g transform="translate(1200,0)"><use xlink:href="#4"/><path d="M58 54.6h8.4v16.8H58z" fill="#fff" class="cursor-active"/></g><g transform="translate(1600,0)"><use xlink:href="#5"/><path d="M66.4 54.6h8.4v16.8H66.4z" fill="#fff" class="cursor-active"/></g><g transform="translate(2000,0)"><use xlink:href="#5"/><path d="M74.8 54.6h8.4v16.8H74.8z" fill="#fff" class="cursor-active"/></g><g transform="translate(2400,0)"><use xlink:href="#6"/><path d="M83.2 54.6h8.4v16.8H83.2z" fill="#fff" class="cursor-active"/></g><g transform="translate(2800,0)"><use xlink:href="#7"/><path d="M91.6 54.6h8.4v16.8H91.6z" fill="#fff" class="cursor-active"/></g><g transform="translate(3200,0)"><use xlink:href="#7"/><path d="M100 54.6h8.4v16.8H100z" fill="#fff" class="cursor-active"/></g><g transform="translate(3600,0)"><use xlink:href="#8"/><path d="M108.4 54.6h8.4v16.8H108.4z" fill="#fff" class="cursor-active"/></g><g transform="translate(4000,0)"><use xlink:href="#8"/><path d="M116.8 54.6h8.4v16.8H116.8z" fill="#fff" class="cursor-active"/></g><g transform="translate(4400,0)"><use xlink:href="#8"/><path d="M125.2 54.6h8.4v16.8H125.2z" fill="#fff" class="cursor-active"/></g><g transform="translate(4800,0)"><use xlink:href="#8"/><path d="M133.6 54.6h8.4v16.8H133.6z" fill="#fff" class="cursor-active"/></g><g transform="translate(5200,0)"><use xlink:href="#8"/><path d="M142 54.6h8.4v16.8H142z" fill="#fff" class="cursor-active"/></g><g transform="translate(5600,0)"><use xlink:href="#9"/><path d="M150.4 54.6h8.4v16.8H150.4z" fill="#fff" class="cursor-active"/></g><g transform="translate(6000,0)"><use xlink:href="#10"/><path d="M158.8 54.6h8.4v16.8H158.8z" fill="#fff" class="cursor-active"/></g><g transform="translate(6400,0)"><use xlink:href="#11"/><path d="M167.2 54.6h8.4v16.8H167.2z" fill="#fff" class="cursor-active"/></g><g transform="translate(6800,0)"><use xlink:href="#12"/><path d="M175.6 54.6h8.4v16.8H175.6z" fill="#fff" class="cursor-active"/></g><g transform="translate(7200,0)"><use xlink:href="#12"/><path d="M184 54.6h8.4v16.8H184z" fill="#fff" class="cursor-active"/></g><g transform="translate(7600,0)"><use xlink:href="#12"/><path d="M192.4 54.6h8.4v16.8H192.4z" fill="#fff" class="cursor-active"/></g><g transform="translate(8000,0)"><use xlink:href="#13"/><path d="M200.8 54.6h8.4v16.8H200.8z" fill="#fff" class="cursor-active"/></g><g transform="translate(8400,0)"><use xlink:href="#14"/><path d="M209.2 54.6h8.4v16.8H209.2z" fill="#fff" class="cursor-active"/></g><g transform="translate(8800,0)"><use xlink:href="#14"/><path d="M217.6 54.6h8.4v16.8H217.6z" fill="#fff" class="cursor-active"/></g><g transform="translate(9200,0)"><use xlink:href="#14"/><path d="M226 54.6h8.4v16.8H226z" fill="#fff" class="cursor-active"/></g><g transform="translate(9600,0)"><use xlink:href="#14"/><path d="M234.4 54.6h8.4v16.8H234.4z" fill="#fff" class="cursor-active"/></g><g transform="translate(10000,0)"><use xlink:href="#14"/><path d="M242.8 54.6h8.4v16.8H242.8z" fill="#fff" class="cursor-active"/></g><g transform="translate(10400,0)"><use xlink:href="#14"/><path d="M251.2 54.6h8.4v16.8H251.2z" fill="#fff" class="cursor-active"/></g><g transform="translate(10800,0)"><use xlink:href="#15"/><path d="M259.6 54.6h8.4v16.8H259.6z" fill="#fff" class="cursor-active"/></g><g transform="translate(11200,0)"><use xlink:href="#16"/><path d="M268 54.6h8.4v16.8H268z" fill="#fff" class="cursor-active"/></g><g transform="translate(11600,0)"><use xlink:href="#16"/><path d="M276.4 54.6h8.4v16.8H276.4z" fill="#fff" class="cursor-active"/></g><g transform="translate(12000,0)"><use xlink:href="#17"/><path d="M284.8 54.6h8.4v16.8H284.8z" fill="#fff" class="cursor-active"/></g><g transform="translate(12400,0)"><use xlink:href="#18"/><path d="M293.2 54.6h8.4v16.8H293.2z" fill="#fff" class="cursor-active"/></g><g transform="translate(12800,0)"><use xlink:href="#19"/><path d="M301.6 54.6h8.4v16.8H301.6z" fill="#fff" class="cursor-active"/></g><g transform="translate(13200,0)"><use xlink:href="#20"/><path d="M310 54.6h8.4v16.8H310z" fill="#fff" class="cursor-active"/></g><g transform="translate(13600,0)"><use xlink:href="#20"/><path d="M318.4 54.6h8.4v16.8H318.4z" fill="#fff" class="cursor-active"/></g><g transform="translate(14000,0)"><use xlink:href="#20"/><path d="M326.8 54.6h8.4v16.8H326.8z" fill="#fff" class="cursor-active"/></g><g transform="translate(14400,0)"><use xlink:href="#21"/><path d="M335.2 54.6h8.4v16.8H335.2z" fill="#fff" class="cursor-active"/></g><g transform="translate(14800,0)"><use xlink:href="#22"/><path d="M343.6 54.6h8.4v16.8H343.6z" fill="#fff" class="cursor-active"/></g><g transform="translate(15200,0)"><use xlink:href="#22"/><path d="M352 54.6h8.4v16.8H352z" fill="#fff" class="cursor-active"/></g><g transform="translate(15600,0)"><use xlink:href="#22"/><path d="M360.4 54.6h8.4v16.8H360.4z" fill="#fff" class="cursor-active"/></g><g transform="translate(16000,0)"><use xlink:href="#22"/><path d="M368.8 54.6h8.4v16.8H368.8z" fill="#fff" class="cursor-active"/></g><g transform="translate(16400,0)"><use xlink:href="#23"/><path d="M368.8 54.6h8.4v16.8H368.8z" fill="#fff" class="cursor-active"/></g><g transform="translate(16800,0)"><use xlink:href="#23"/><path d="M24.4 68.6h8.4v16.8H24.4z" fill="#fff" class="cursor-active"/></g><g transform="translate(17200,0)"><use xlink:href="#23"/><path d="M32.8 68.6h8.4v16.8H32.8z" fill="#fff" class="cursor-active"/></g><g transform="translate(17600,0)"><use xlink:href="#23"/><use xlink:href="#24"/><path d="M41.2 68.6h8.4v16.8H41.2z" fill="#fff" class="cursor-active"/></g><g transform="translate(18000,0)"><use xlink:href="#23"/><use xlink:href="#24"/><path d="M49.6 68.6h8.4v16.8H49.6z" fill="#fff" class="cursor-active"/></g><g transform="translate(18400,0)"><use xlink:href="#23"/><use xlink:href="#25"/><path d="M58 68.6h8.4v16.8H58z" fill="#fff" class="cursor-active"/></g><g transform="translate(18800,0)"><use xlink:href="#23"/><use xlink:href="#26"/><path d="M66.4 68.6h8.4v16.8H66.4z" fill="#fff" class="cursor-active"/></g><g transform="translate(19200,0)"><use xlink:href="#23"/><use xlink:href="#26"/><path d="M74.8 68.6h8.4v16.8H74.8z" fill="#fff" class="cursor-active"/></g><g transform="translate(19600,0)"><use xlink:href="#23"/><use xlink:href="#27"/><path d="M83.2 68.6h8.4v16.8H83.2z" fill="#fff" class="cursor-active"/></g><g transform="translate(20000,0)"><use xlink:href="#23"/><use xlink:href="#28"/><path d="M91.6 68.6h8.4v16.8H91.6z" fill="#fff" class="cursor-active"/></g><g transform="translate(20400,0)"><use xlink:href="#23"/><use xlink:href="#28"/><path d="M100 68.6h8.4v16.8H100z" fill="#fff" class="cursor-active"/></g><g transform="translate(20800,0)"><use xlink:href="#23"/><use xlink:href="#29"/><path d="M108.4 68.6h8.4v16.8H108.4z" fill="#fff" class="cursor-active"/></g><g transform="translate(21200,0)"><use xlink:href="#23"/><use xlink:href="#30"/><path d="M116.8 68.6h8.4v16.8H116.8z" fill="#fff" class="cursor-active"/></g><g transform="translate(21600,0)"><use xlink:href="#23"/><use xlink:href="#30"/><path d="M125.2 68.6h8.4v16.8H125.2z" fill="#fff" class="cursor-active"/></g><g transform="translate(22000,0)"><use xlink:href="#23"/><use xlink:href="#30"/><path d="M133.6 68.6h8.4v16.8H133.6z" fill="#fff" class="cursor-active"/></g><g transform="translate(22400,0)"><use xlink:href="#23"/><use xlink:href="#30"/><path d="M142 68.6h8.4v16.8H142z" fill="#fff" class="cursor-active"/></g><g transform="translate(22800,0)"><use xlink:href="#23"/><use xlink:href="#31"/><path d="M150.4 68.6h8.4v16.8H150.4z" fill="#fff" class="cursor-active"/></g><g transform="translate(23200,0)"><use xlink:href="#23"/><use xlink:href="#31"/><path d="M158.8 68.6h8.4v16.8H158.8z" fill="#fff" class="cursor-active"/></g><g transform="translate(23600,0)"><use xlink:href="#23"/><use xlink:href="#32"/><path d="M167.2 68.6h8.4v16.8H167.2z" fill="#fff" class="cursor-active"/></g><g transform="translate(24000,0)"><use xlink:href="#23"/><use xlink:href="#33"/><path d="M175.6 68.6h8.4v16.8H175.6z" fill="#fff" class="cursor-active"/></g><g transform="translate(24400,0)"><use xlink:href="#23"/><use xlink:href="#33"/><path d="M184 68.6h8.4v16.8H184z" fill="#fff" class="cursor-active"/></g><g transform="translate(24800,0)"><use xlink:href="#23"/><use xlink:href="#33"/><path d="M192.4 68.6h8.4v16.8H192.4z" fill="#fff" class="cursor-active"/></g><g transform="translate(25200,0)"><use xlink:href="#23"/><use xlink:href="#34"/><path d="M200.8 68.6h8.4v16.8H200.8z" fill="#fff" class="cursor-active"/></g><g transform="translate(25600,0)"><use xlink:href="#23"/><use xlink:href="#34"/><path d="M209.2 68.6h8.4v16.8H209.2z" fill="#fff" class="cursor-active"/></g><g transform="translate(26000,0)"><use xlink:href="#23"/><use xlink:href="#35"/><path d="M217.6 68.6h8.4v16.8H217.6z" fill="#fff" class="cursor-active"/></g><g transform="translate(26400,0)"><use xlink:href="#23"/><use xlink:href="#36"/><path d="M226 68.6h8.4v16.8H226z" fill="#fff" class="cursor-active"/></g><g transform="translate(26800,0)"><use xlink:href="#23"/><use xlink:href="#36"/><path d="M234.4 68.6h8.4v16.8H234.4z" fill="#fff" class="cursor-active"/></g><g transform="translate(27200,0)"><use xlink:href="#23"/><use xlink:href="#37"/><path d="M242.8 68.6h8.4v16.8H242.8z" fill="#fff" class="cursor-active"/></g><g transform="translate(27600,0)"><use xlink:href="#23"/><use xlink:href="#38"/><path d="M251.2 68.6h8.4v16.8H251.2z" fill="#fff" class="cursor-active"/></g><g transform="translate(28000,0)"><use xlink:href="#23"/><use xlink:href="#38"/><path d="M259.6 68.6h8.4v16.8H259.6z" fill="#fff" class="cursor-active"/></g><g transform="translate(28400,0)"><use xlink:href="#23"/><use xlink:href="#38"/><path d="M268 68.6h8.4v16.8H268z" fill="#fff" class="cursor-active"/></g><g transform="translate(28800,0)"><use xlink:href="#23"/><use xlink:href="#38"/><path d="M276.4 68.6h8.4v16.8H276.4z" fill="#fff" class="cursor-active"/></g><g transform="translate(29200,0)"><use xlink:href="#23"/><use xlink:href="#39"/><path d="M284.8 68.6h8.4v16.8H284.8z" fill="#fff" class="cursor-active"/></g><g transform="translate(29600,0)"><use xlink:href="#23"/><use xlink:href="#39"/><path d="M293.2 68.6h8.4v16.8H293.2z" fill="#fff" class="cursor-active"/></g><g transform="translate(30000,0)"><use xlink:href="#23"/><use xlink:href="#40"/><path d="M301.6 68.6h8.4v16.8H301.6z" fill="#fff" class="cursor-active"/></g><g transform="translate(30400,0)"><use xlink:href="#23"/><use xlink:href="#40"/><path d="M310 68.6h8.4v16.8H310z" fill="#fff" class="cursor-active"/></g><g transform="translate(30800,0)"><use xlink:href="#23"/><use xlink:href="#41"/><path d="M318.4 68.6h8.4v16.8H318.4z" fill="#fff" class="cursor-active"/></g><g transform="translate(31200,0)"><use xlink:href="#23"/><use xlink:href="#41"/><path d="M326.8 68.6h8.4v16.8H326.8z" fill="#fff" class="cursor-active"/></g><g transform="translate(31600,0)"><use xlink:href="#23"/><use xlink:href="#42"/><path d="M335.2 68.6h8.4v16.8H335.2z" fill="#fff" class="cursor-active"/></g><g transform="translate(32000,0)"><use xlink:href="#23"/><use xlink:href="#42"/><path d="M343.6 68.6h8.4v16.8H343.6z" fill="#fff" class="cursor-active"/></g><g transform="translate(32400,0)"><use xlink:href="#23"/><use xlink:href="#43"/><path d="M352 68.6h8.4v16.8H352z" fill="#fff" class="cursor-active"/></g><g transform="translate(32800,0)"><use xlink:href="#23"/><use xlink:href="#44"/><path d="M360.4 68.6h8.4v16.8H360.4z" fill="#fff" class="cursor-active"/></g><g transform="translate(33200,0)"><use xlink:href="#23"/><use xlink:href="#44"/><path d="M368.8 68.6h8.4v16.8H368.8z" fill="#fff" class="cursor-active"/></g><g transform="translate(33600,0)"><use xlink:href="#23"/><use xlink:href="#45"/><path d="M368.8 68.6h8.4v16.8H368.8z" fill="#fff" class="cursor-active"/></g><g transform="translate(34000,0)"><use xlink:href="#23"/><use xlink:href="#45"/><use xlink:href="#46"/><path d="M24.4 82.6h8.4v16.8H24.4z" fill="#fff" class="cursor-active"/></g><g transform="translate(34400,0)"><use xlink:href="#23"/><use xlink:href="#45"/><use xlink:href="#46"/><path d="M32.8 82.6h8.4v16.8H32.8z" fill="#fff" class="cursor-active"/></g><g transform="translate(34800,0)"><use xlink:href="#23"/><use xlink:href="#45"/><use xlink:href="#47"/><path d="M41.2 82.6h8.4v16.8H41.2z" fill="#fff" class="cursor-active"/></g><g transform="translate(35200,0)"><use xlink:href="#23"/><use xlink:href="#45"/><use xlink:href="#47"/><path d="M49.6 82.6h8.4v16.8H49.6z" fill="#fff" class="cursor-active"/></g><g transform="translate(35600,0)"><use xlink:href="#23"/><use xlink:href="#45"/><use xlink:href="#48"/><path d="M58 82.6h8.4v16.8H58z" fill="#fff" class="cursor-active"/></g><g transform="translate(36000,0)"><use xlink:href="#23"/><use xlink:href="#45"/><use xlink:href="#48"/><path d="M66.4 82.6h8.4v16.8H66.4z" fill="#fff" class="cursor-active"/></g><g transform="translate(36400,0)"><use xlink:href="#23"/><use xlink:href="#45"/><use xlink:href="#49"/><path d="M74.8 82.6h8.4v16.8H74.8z" fill="#fff" class="cursor-active"/></g><g transform="translate(36800,0)"><use xlink:href="#23"/><use xlink:href="#45"/><use xlink:href="#49"/><path d="M83.2 82.6h8.4v16.8H83.2z" fill="#fff" class="cursor-active"/></g><g transform="translate(37200,0)"><use xlink:href="#23"/><use xlink:href="#45"/><use xlink:href="#50"/><path d="M91.6 82.6h8.4v16.8H91.6z" fill="#fff" class="cursor-active"/></g><g transform="translate(37600,0)"><use xlink:href="#23"/><use xlink:href="#45"/><use xlink:href="#50"/><path d="M100 82.6h8.4v16.8H100z" fill="#fff" class="cursor-active"/></g><g transform="translate(38000,0)"><use xlink:href="#23"/><use xlink:href="#45"/><use xlink:href="#51"/><path d="M108.4 82.6h8.4v16.8H108.4z" fill="#fff" class="cursor-active"/></g><g transform="translate(38400,0)"><use xlink:href="#23"/><use xlink:href="#45"/><use xlink:href="#51"/><path d="M116.8 82.6h8.4v16.8H116.8z" fill="#fff" class="cursor-active"/></g><g transform="translate(38800,0)"><use xlink:href="#23"/><use xlink:href="#45"/><use xlink:href="#52"/><path d="M125.2 82.6h8.4v16.8H125.2z" fill="#fff" class="cursor-active"/></g><g transform="translate(39200,0)"><use xlink:href="#23"/><use xlink:href="#45"/><use xlink:href="#53"/><path d="M133.6 82.6h8.4v16.8H133.6z" fill="#fff" class="cursor-active"/></g><g transform="translate(39600,0)"><use xlink:href="#23"/><use xlink:href="#45"/><use xlink:href="#54"/><path d="M142 82.6h8.4v16.8H142z" fill="#fff" class="cursor-active"/></g><g transform="translate(40000,0)"><use xlink:href="#23"/><use xlink:href="#45"/><use xlink:href="#54"/><path d="M150.4 82.6h8.4v16.8H150.4z" fill="#fff" class="cursor-active"/></g><g transform="translate(40400,0)"><use xlink:href="#23"/><use xlink:href="#45"/><use xlink:href="#54"/><path d="M158.8 82.6h8.4v16.8H158.8z" fill="#fff" class="cursor-active"/></g><g transform="translate(40800,0)"><use xlink:href="#23"/><use xlink:href="#45"/><use xlink:href="#54"/><path d="M167.2 82.6h8.4v16.8H167.2z" fill="#fff" class="cursor-active"/></g><g transform="translate(41200,0)"><use xlink:href="#23"/><use xlink:href="#45"/><use xlink:href="#55"/><path d="M175.6 82.6h8.4v16.8H175.6z" fill="#fff" class="cursor-active"/></g><g transform="translate(41600,0)"><use xlink:href="#23"/><use xlink:href="#45"/><use xlink:href="#55"/><path d="M184 82.6h8.4v16.8H184z" fill="#fff" class="cursor-active"/></g><g transform="translate(42000,0)"><use xlink:href="#23"/><use xlink:href="#45"/><use xlink:href="#56"/><path d="M192.4 82.6h8.4v16.8H192.4z" fill="#fff" class="cursor-active"/></g><g transform="translate(42400,0)"><use xlink:href="#23"/><use xlink:href="#45"/><use xlink:href="#57"/><path d="M200.8 82.6h8.4v16.8H200.8z" fill="#fff" class="cursor-active"/></g><g transform="translate(42800,0)"><use xlink:href="#23"/><use xlink:href="#45"/><use xlink:href="#58"/><path d="M209.2 82.6h8.4v16.8H209.2z" fill="#fff" class="cursor-active"/></g><g transform="translate(43200,0)"><use xlink:href="#23"/><use xlink:href="#45"/><use xlink:href="#58"/><path d="M217.6 82.6h8.4v16.8H217.6z" fill="#fff" class="cursor-active"/></g><g transform="translate(43600,0)"><use xlink:href="#23"/><use xlink:href="#45"/><use xlink:href="#59"/><path d="M226 82.6h8.4v16.8H226z" fill="#fff" class="cursor-active"/></g><g transform="translate(44000,0)"><use xlink:href="#23"/><use xlink:href="#45"/><use xlink:href="#59"/><path d="M234.4 82.6h8.4v16.8H234.4z" fill="#fff" class="cursor-active"/></g><g transform="translate(44400,0)"><use xlink:href="#23"/><use xlink:href="#45"/><use xlink:href="#59"/><path d="M242.8 82.6h8.4v16.8H242.8z" fill="#fff" class="cursor-active"/></g><g transform="translate(44800,0)"><use xlink:href="#23"/><use xlink:href="#45"/><use xlink:href="#60"/><path d="M251.2 82.6h8.4v16.8H251.2z" fill="#fff" class="cursor-active"/></g><g transform="translate(45200,0)"><use xlink:href="#23"/><use xlink:href="#45"/><use xlink:href="#61"/><path d="M259.6 82.6h8.4v16.8H259.6z" fill="#fff" class="cursor-active"/></g><g transform="translate(45600,0)"><use xlink:href="#23"/><use xlink:href="#45"/><use xlink:href="#61"/><path d="M268 82.6h8.4v16.8H268z" fill="#fff" class="cursor-active"/></g><g transform="translate(46000,0)"><use xlink:href="#23"/><use xlink:href="#45"/><use xlink:href="#62"/><path d="M276.4 82.6h8.4v16.8H276.4z" fill="#fff" class="cursor-active"/></g><g transform="translate(46400,0)"><use xlink:href="#23"/><use xlink:href="#45"/><use xlink:href="#62"/><path d="M284.8 82.6h8.4v16.8H284.8z" fill="#fff" class="cursor-active"/></g><g transform="translate(46800,0)"><use xlink:href="#23"/><use xlink:href="#45"/><use xlink:href="#63"/><path d="M293.2 82.6h8.4v16.8H293.2z" fill="#fff" class="cursor-active"/></g><g transform="translate(47200,0)"><use xlink:href="#23"/><use xlink:href="#45"/><use xlink:href="#63"/><path d="M301.6 82.6h8.4v16.8H301.6z" fill="#fff" class="cursor-active"/></g><g transform="translate(47600,0)"><use xlink:href="#23"/><use xlink:href="#45"/><use xlink:href="#63"/><path d="M310 82.6h8.4v16.8H310z" fill="#fff" class="cursor-active"/></g><g transform="translate(48000,0)"><use xlink:href="#23"/><use xlink:href="#45"/><use xlink:href="#64"/><path d="M318.4 82.6h8.4v16.8H318.4z" fill="#fff" class="cursor-active"/></g><g transform="translate(48400,0)"><use xlink:href="#23"/><use xlink:href="#45"/><use xlink:href="#64"/><path d="M326.8 82.6h8.4v16.8H326.8z" fill="#fff" class="cursor-active"/></g><g transform="translate(48800,0)"><use xlink:href="#23"/><use xlink:href="#45"/><use xlink:href="#65"/><path d="M335.2 82.6h8.4v16.8H335.2z" fill="#fff" class="cursor-active"/></g><g transform="translate(49200,0)"><use xlink:href="#23"/><use xlink:href="#45"/><use xlink:href="#66"/><path d="M343.6 82.6h8.4v16.8H343.6z" fill="#fff" class="cursor-active"/></g><g transform="translate(49600,0)"><use xlink:href="#23"/><use xlink:href="#45"/><use xlink:href="#67"/><path d="M352 82.6h8.4v16.8H352z" fill="#fff" class="cursor-active"/></g><g transform="translate(50000,0)"><use xlink:href="#23"/><use xlink:href="#45"/><use xlink:href="#67"/><path d="M360.4 82.6h8.4v16.8H360.4z" fill="#fff" class="cursor-active"/></g><g transform="translate(50400,0)"><use xlink:href="#23"/><use xlink:href="#45"/><use xlink:href="#68"/><path d="M368.8 82.6h8.4v16.8H368.8z" fill="#fff" class="cursor-active"/></g><g transform="translate(50800,0)"><use xlink:href="#23"/><use xlink:href="#45"/><use xlink:href="#69"/><path d="M368.8 82.6h8.4v16.8H368.8z" fill="#fff" class="cursor-active"/></g><g transform="translate(51200,0)"><use xlink:href="#23"/><use xlink:href="#45"/><use xlink:href="#69"/><use xlink:href="#70"/><path d="M24.4 96.6h8.4v16.8H24.4z" fill="#fff" class="cursor-active"/></g><g transform="translate(51600,0)"><use xlink:href="#23"/><use xlink:href="#45"/><use xlink:href="#69"/><use xlink:href="#70"/><path d="M32.8 96.6h8.4v16.8H32.8z" fill="#fff" class="cursor-active"/></g><g transform="translate(52000,0)"><use xlink:href="#23"/><use xlink:href="#45"/><use xlink:href="#69"/><use xlink:href="#70"/><path d="M41.2 96.6h8.4v16.8H41.2z" fill="#fff" class="cursor-active"/></g><g transform="translate(52400,0)"><use xlink:href="#23"/><use xlink:href="#45"/><use xlink:href="#69"/><use xlink:href="#70"/><path d="M49.6 96.6h8.4v16.8H49.6z" fill="#fff" class="cursor-active"/></g><g transform="translate(52800,0)"><use xlink:href="#23"/><use xlink:href="#45"/><use xlink:href="#69"/><use xlink:href="#71"/><path d="M58 96.6h8.4v16.8H58z" fill="#fff" class="cursor-active"/></g><g transform="translate(53200,0)"><use xlink:href="#23"/><use xlink:href="#45"/><use xlink:href="#69"/><use xlink:href="#72"/><path d="M66.4 96.6h8.4v16.8H66.4z" fill="#fff" class="cursor-active"/></g><g transform="translate(53600,0)"><use xlink:href="#23"/><use xlink:href="#45"/><use xlink:href="#69"/><use xlink:href="#73"/><path d="M74.8 96.6h8.4v16.8H74.8z" fill="#fff" class="cursor-active"/></g><g transform="translate(54000,0)"><use xlink:href="#23"/><use xlink:href="#45"/><use xlink:href="#69"/><use xlink:href="#74"/><path d="M83.2 96.6h8.4v16.8H83.2z" fill="#fff" class="cursor-active"/></g><g transform="translate(54400,0)"><use xlink:href="#23"/><use xlink:href="#45"/><use xlink:href="#69"/><use xlink:href="#75"/><path d="M91.6 96.6h8.4v16.8H91.6z" fill="#fff" class="cursor-active"/></g><g transform="translate(54800,0)"><use xlink:href="#23"/><use xlink:href="#45"/><use xlink:href="#69"/><use xlink:href="#76"/><path d="M100 96.6h8.4v16.8H100z" fill="#fff" class="cursor-active"/></g><g transform="translate(55200,0)"><use xlink:href="#23"/><use xlink:href="#45"/><use xlink:href="#69"/><use xlink:href="#76"/><path d="M108.4 96.6h8.4v16.8H108.4z" fill="#fff" class="cursor-active"/></g><g transform="translate(55600,0)"><use xlink:href="#23"/><use xlink:href="#45"/><use xlink:href="#69"/><use xlink:href="#76"/><path d="M116.8 96.6h8.4v16.8H116.8z" fill="#fff" class="cursor-active"/></g><g transform="translate(56000,0)"><use xlink:href="#23"/><use xlink:href="#45"/><use xlink:href="#69"/><use xlink:href="#76"/><path d="M125.2 96.6h8.4v16.8H125.2z" fill="#fff" class="cursor-active"/></g><g transform="translate(56400,0)"><use xlink:href="#23"/><use xlink:href="#45"/><use xlink:href="#69"/><use xlink:href="#76"/><path d="M133.6 96.6h8.4v16.8H133.6z" fill="#fff" class="cursor-active"/></g><g transform="translate(56800,0)"><use xlink:href="#23"/><use xlink:href="#45"/><use xlink:href="#69"/><use xlink:href="#77"/><path d="M142 96.6h8.4v16.8H142z" fill="#fff" class="cursor-active"/></g><g transform="translate(57200,0)"><use xlink:href="#23"/><use xlink:href="#45"/><use xlink:href="#69"/><use xlink:href="#78"/><path d="M150.4 96.6h8.4v16.8H150.4z" fill="#fff" class="cursor-active"/></g><g transform="translate(57600,0)"><use xlink:href="#23"/><use xlink:href="#45"/><use xlink:href="#69"/><use xlink:href="#79"/><path d="M158.8 96.6h8.4v16.8H158.8z" fill="#fff" class="cursor-active"/></g><g transform="translate(58000,0)"><use xlink:href="#23"/><use xlink:href="#45"/><use xlink:href="#69"/><use xlink:href="#80"/><path d="M167.2 96.6h8.4v16.8H167.2z" fill="#fff" class="cursor-active"/></g><g transform="translate(58400,0)"><use xlink:href="#23"/><use xlink:href="#45"/><use xlink:href="#69"/><use xlink:href="#80"/><path d="M175.6 96.6h8.4v16.8H175.6z" fill="#fff" class="cursor-active"/></g><g transform="translate(58800,0)"><use xlink:href="#23"/><use xlink:href="#45"/><use xlink:href="#69"/><use xlink:href="#80"/><path d="M184 96.6h8.4v16.8H184z" fill="#fff" class="cursor-active"/></g><g transform="translate(59200,0)"><use xlink:href="#23"/><use xlink:href="#45"/><use xlink:href="#69"/><use xlink:href="#80"/><path d="M192.4 96.6h8.4v16.8H192.4z" fill="#fff" class="cursor-active"/></g><g transform="translate(59600,0)"><use xlink:href="#23"/><use xlink:href="#45"/><use xlink:href="#69"/><use xlink:href="#81"/><path d="M200.8 96.6h8.4v16.8H200.8z" fill="#fff" class="cursor-active"/></g><g transform="translate(60000,0)"><use xlink:href="#23"/><use xlink:href="#45"/><use xlink:href="#69"/><use xlink:href="#82"/><path d="M209.2 96.6h8.4v16.8H209.2z" fill="#fff" class="cursor-active"/></g><g transform="translate(60400,0)"><use xlink:href="#23"/><use xlink:href="#45"/><use xlink:href="#69"/><use xlink:href="#83"/><path d="M217.6 96.6h8.4v16.8H217.6z" fill="#fff" class="cursor-active"/></g><g transform="translate(60800,0)"><use xlink:href="#23"/><use xlink:href="#45"/><use xlink:href="#69"/><use xlink:href="#84"/><path d="M226 96.6h8.4v16.8H226z" fill="#fff" class="cursor-active"/></g><g transform="translate(61200,0)"><use xlink:href="#23"/><use xlink:href="#45"/><use xlink:href="#69"/><use xlink:href="#85"/><path d="M234.4 96.6h8.4v16.8H234.4z" fill="#fff" class="cursor-active"/></g><g transform="translate(61600,0)"><use xlink:href="#23"/><use xlink:href="#45"/><use xlink:href="#69"/><use xlink:href="#86"/><path d="M242.8 96.6h8.4v16.8H242.8z" fill="#fff" class="cursor-active"/></g><g transform="translate(62000,0)"><use xlink:href="#23"/><use xlink:href="#45"/><use xlink:href="#69"/><use xlink:href="#86"/><path d="M251.2 96.6h8.4v16.8H251.2z" fill="#fff" class="cursor-active"/></g><g transform="translate(62400,0)"><use xlink:href="#23"/><use xlink:href="#45"/><use xlink:href="#69"/><use xlink:href="#87"/><path d="M259.6 96.6h8.4v16.8H259.6z" fill="#fff" class="cursor-active"/></g><g transform="translate(62800,0)"><use xlink:href="#23"/><use xlink:href="#45"/><use xlink:href="#69"/><use xlink:href="#87"/><path d="M259.6 96.6h8.4v16.8H259.6z" fill="#fff" class="cursor"/></g><g transform="translate(63200,0)"><use xlink:href="#23"/><use xlink:href="#45"/><use xlink:href="#69"/><use xlink:href="#87"/></g><g transform="translate(63600,0)"><use xlink:href="#23"/><use xlink:href="#88"/><use xlink:href="#89"/><use xlink:href="#90"/><use xlink:href="#91"/><use xlink:href="#92"/></g><g transform="translate(64000,0)"><use xlink:href="#23"/><use xlink:href="#45"/><use xlink:href="#69"/><use xlink:href="#87"/><use xlink:href="#93"/><use xlink:href="#94"/><use xlink:href="#95"/><use xlink:href="#96"/><use xlink:href="#97"/><use xlink:href="#98"/><path d="M32.8 180.6h8.4v16.8H32.8z" fill="#fff" class="cursor"/></g></g></g></g></svg>