<svg xmlns="http://www.w3.org/2000/svg" xmlns:xlink="http://www.w3.org/1999/xlink" width="385" height="335" viewBox="0 0 385 335"><defs><symbol id="1"><text x="16" y="57.1" class="c">❯</text></symbol><symbol id="2"><text x="16" y="57.1" class="c">❯ </text><text x="32.8" y="57.1" class="d">f</text></symbol><symbol id="3"><text x="16" y="57.1" class="c">❯ </text><text x="32.8" y="57.1" class="d">fi</text></symbol><symbol id="4"><text x="16" y="57.1" class="c">❯ </text><text x="32.8" y="57.1" class="d">fig</text></symbol><symbol id="5"><text x="16" y="57.1" class="c">❯ </text><text x="32.8" y="57.1" class="d">figl</text></symbol><symbol id="6"><text x="16" y="57.1" class="c">❯ </text><text x="32.8" y="57.1" class="d">figle</text></symbol><symbol id="7"><text x="16" y="57.1" class="c">❯ </text><text x="32.8" y="57.1" class="d">figlet</text></symbol><symbol id="8"><text x="16" y="57.1" class="c">❯ </text><text x="32.8" y="57.1" class="d">figlet -</text></symbol><symbol id="9"><text x="16" y="57.1" class="c">❯ </text><text x="32.8" y="57.1" class="d">figlet -f</text></symbol><symbol id="10"><text x="16" y="57.1" class="c">❯ </text><text x="32.8" y="57.1" class="d">figlet -f i</text></symbol><symbol id="11"><text x="16" y="57.1" class="c">❯ </text><text x="32.8" y="57.1" class="d">figlet -f is</text></symbol><symbol id="12"><text x="16" y="57.1" class="c">❯ </text><text x="32.8" y="57.1" class="d">figlet -f iso</text></symbol><symbol id="13"><text x="16" y="57.1" class="c">❯ </text><text x="32.8" y="57.1" class="d">figlet -f isom</text></symbol><symbol id="14"><text x="16" y="57.1" class="c">❯ </text><text x="32.8" y="57.1" class="d">figlet -f isome</text></symbol><symbol id="15"><text x="16" y="57.1" class="c">❯ </text><text x="32.8" y="57.1" class="d">figlet -f isomet</text></symbol><symbol id="16"><text x="16" y="57.1" class="c">❯ </text><text x="32.8" y="57.1" class="d">figlet -f isometr</text></symbol><symbol id="17"><text x="16" y="57.1" class="c">❯ </text><text x="32.8" y="57.1" class="d">figlet -f isometri</text></symbol><symbol id="18"><text x="16" y="57.1" class="c">❯ </text><text x="32.8" y="57.1" class="d">figlet -f isometric</text></symbol><symbol id="19"><text x="16" y="57.1" class="c">❯ </text><text x="32.8" y="57.1" class="d">figlet -f isometric3</text></symbol><symbol id="20"><text x="16" y="57.1" class="c">❯ </text><text x="32.8" y="57.1" class="d">figlet -f isometric3 d</text></symbol><symbol id="21"><text x="16" y="57.1" class="c">❯ </text><text x="32.8" y="57.1" class="d">figlet -f isometric3 dv</text></symbol><symbol id="22"><text x="16" y="57.1" class="c">❯ </text><text x="32.8" y="57.1" class="d">figlet -f isometric3 dvd</text></symbol><symbol id="23"><text x="16" y="57.1" class="c">❯ </text><text x="32.8" y="57.1" class="d">figlet -f isometric3 dvd |</text></symbol><symbol id="24"><text x="16" y="57.1" class="c">❯ </text><text x="32.8" y="57.1" class="d">figlet -f isometric3 dvd | l</text></symbol><symbol id="25"><text x="16" y="57.1" class="c">❯ </text><text x="32.8" y="57.1" class="d">figlet -f isometric3 dvd | lo</text></symbol><symbol id="26"><text x="16" y="57.1" class="c">❯ </text><text x="32.8" y="57.1" class="d">figlet -f isometric3 dvd | lol</text></symbol><symbol id="27"><text x="16" y="57.1" class="c">❯ </text><text x="32.8" y="57.1" class="d">figlet -f isometric3 dvd | lolc</text></symbol><symbol id="28"><text x="16" y="57.1" class="c">❯ </text><text x="32.8" y="57.1" class="d">figlet -f isometric3 dvd | lolca</text></symbol><symbol id="29"><text x="16" y="57.1" class="c">❯ </text><text x="32.8" y="57.1" class="d">figlet -f isometric3 dvd | lolcat</text></symbol><symbol id="30"><text x="16" y="57.1" class="c">❯ </text><text x="32.8" y="57.1" class="d">figlet -f isometric3 dvd | lolcat -</text></symbol><symbol id="31"><text x="16" y="57.1" class="c">❯ </text><text x="32.8" y="57.1" class="d">figlet -f isometric3 dvd | lolcat -f</text></symbol><symbol id="32"><text x="16" y="76.7" class="e"> </text><text x="24.4" y="76.7" class="f"> </text><text x="32.8" y="76.7" class="g"> </text><text x="41.2" y="76.7" class="h"> </text><text x="49.6" y="76.7" class="i"> </text><text x="58" y="76.7" class="j">_</text><text x="66.4" y="76.7" class="k">_</text><text x="74.8" y="76.7" class="l">_</text><text x="83.2" y="76.7" class="m">_</text><text x="91.6" y="76.7" class="n">_</text><text x="100" y="76.7" class="o"> </text><text x="108.4" y="76.7" class="p"> </text><text x="116.8" y="76.7" class="q"> </text><text x="125.2" y="76.7" class="r"> </text><text x="133.6" y="76.7" class="s"> </text><text x="142" y="76.7" class="t"> </text><text x="150.4" y="76.7" class="u"> </text><text x="158.8" y="76.7" class="v"> </text><text x="167.2" y="76.7" class="w"> </text><text x="175.6" y="76.7" class="x"> </text><text x="184" y="76.7" class="y"> </text><text x="192.4" y="76.7" class="z"> </text><text x="200.8" y="76.7" class="A"> </text><text x="209.2" y="76.7" class="B"> </text><text x="217.6" y="76.7" class="C"> </text><text x="226" y="76.7" class="D"> </text><text x="234.4" y="76.7" class="E"> </text><text x="242.8" y="76.7" class="F"> </text><text x="251.2" y="76.7" class="G"> </text><text x="259.6" y="76.7" class="H"> </text><text x="268" y="76.7" class="I"> </text><text x="276.4" y="76.7" class="J"> </text><text x="284.8" y="76.7" class="K">_</text><text x="293.2" y="76.7" class="L">_</text><text x="301.6" y="76.7" class="M">_</text><text x="310" y="76.7" class="N">_</text><text x="318.4" y="76.7" class="O">_</text></symbol><symbol id="33"><text x="16" y="96.3" class="h"> </text><text x="24.4" y="96.3" class="i"> </text><text x="32.8" y="96.3" class="j"> </text><text x="41.2" y="96.3" class="k"> </text><text x="49.6" y="96.3" class="l">/</text><text x="58" y="96.3" class="m"> </text><text x="66.4" y="96.3" class="n"> </text><text x="74.8" y="96.3" class="o">/</text><text x="83.2" y="96.3" class="p">:</text><text x="91.6" y="96.3" class="q">:</text><text x="100" y="96.3" class="r">\</text><text x="108.4" y="96.3" class="s"> </text><text x="116.8" y="96.3" class="t"> </text><text x="125.2" y="96.3" class="u"> </text><text x="133.6" y="96.3" class="v"> </text><text x="142" y="96.3" class="w"> </text><text x="150.4" y="96.3" class="x"> </text><text x="158.8" y="96.3" class="y"> </text><text x="167.2" y="96.3" class="z"> </text><text x="175.6" y="96.3" class="A"> </text><text x="184" y="96.3" class="B">_</text><text x="192.4" y="96.3" class="C">_</text><text x="200.8" y="96.3" class="D">_</text><text x="209.2" y="96.3" class="E"> </text><text x="217.6" y="96.3" class="F"> </text><text x="226" y="96.3" class="G"> </text><text x="234.4" y="96.3" class="H"> </text><text x="242.8" y="96.3" class="I"> </text><text x="251.2" y="96.3" class="J"> </text><text x="259.6" y="96.3" class="K"> </text><text x="268" y="96.3" class="L"> </text><text x="276.4" y="96.3" class="M">/</text><text x="284.8" y="96.3" class="N"> </text><text x="293.2" y="96.3" class="O"> </text><text x="301.6" y="96.3" class="P">/</text><text x="310" y="96.3" class="Q">:</text><text x="318.4" y="96.3" class="R">:</text><text x="326.8" y="96.3" class="S">\</text></symbol><symbol id="34"><text x="16" y="115.9" class="k"> </text><text x="24.4" y="115.9" class="l"> </text><text x="32.8" y="115.9" class="m"> </text><text x="41.2" y="115.9" class="n">/</text><text x="49.6" y="115.9" class="o"> </text><text x="58" y="115.9" class="p"> </text><text x="66.4" y="115.9" class="q">/</text><text x="74.8" y="115.9" class="r">:</text><text x="83.2" y="115.9" class="s">/</text><text x="91.6" y="115.9" class="t">\</text><text x="100" y="115.9" class="u">:</text><text x="108.4" y="115.9" class="v">\</text><text x="116.8" y="115.9" class="w"> </text><text x="125.2" y="115.9" class="x"> </text><text x="133.6" y="115.9" class="y"> </text><text x="142" y="115.9" class="z"> </text><text x="150.4" y="115.9" class="A"> </text><text x="158.8" y="115.9" class="B"> </text><text x="167.2" y="115.9" class="C"> </text><text x="175.6" y="115.9" class="D">/</text><text x="184" y="115.9" class="E">_</text><text x="192.4" y="115.9" class="F">_</text><text x="200.8" y="115.9" class="G">/</text><text x="209.2" y="115.9" class="H">\</text><text x="217.6" y="115.9" class="I"> </text><text x="226" y="115.9" class="J"> </text><text x="234.4" y="115.9" class="K"> </text><text x="242.8" y="115.9" class="L"> </text><text x="251.2" y="115.9" class="M"> </text><text x="259.6" y="115.9" class="N"> </text><text x="268" y="115.9" class="O">/</text><text x="276.4" y="115.9" class="P"> </text><text x="284.8" y="115.9" class="Q"> </text><text x="293.2" y="115.9" class="R">/</text><text x="301.6" y="115.9" class="S">:</text><text x="310" y="115.9" class="T">/</text><text x="318.4" y="115.9" class="U">\</text><text x="326.8" y="115.9" class="V">:</text><text x="335.2" y="115.9" class="W">\</text></symbol><symbol id="35"><text x="16" y="135.5" class="n"> </text><text x="24.4" y="135.5" class="o"> </text><text x="32.8" y="135.5" class="p">/</text><text x="41.2" y="135.5" class="q"> </text><text x="49.6" y="135.5" class="r"> </text><text x="58" y="135.5" class="s">/</text><text x="66.4" y="135.5" class="t">:</text><text x="74.8" y="135.5" class="u">/</text><text x="83.2" y="135.5" class="v"> </text><text x="91.6" y="135.5" class="w"> </text><text x="100" y="135.5" class="x">\</text><text x="108.4" y="135.5" class="y">:</text><text x="116.8" y="135.5" class="z">\</text><text x="125.2" y="135.5" class="A"> </text><text x="133.6" y="135.5" class="B"> </text><text x="142" y="135.5" class="C"> </text><text x="150.4" y="135.5" class="D"> </text><text x="158.8" y="135.5" class="E"> </text><text x="167.2" y="135.5" class="F"> </text><text x="175.6" y="135.5" class="G">\</text><text x="184" y="135.5" class="H"> </text><text x="192.4" y="135.5" class="I"> </text><text x="200.8" y="135.5" class="J">\</text><text x="209.2" y="135.5" class="K">:</text><text x="217.6" y="135.5" class="L">\</text><text x="226" y="135.5" class="M"> </text><text x="234.4" y="135.5" class="N"> </text><text x="242.8" y="135.5" class="O"> </text><text x="251.2" y="135.5" class="P"> </text><text x="259.6" y="135.5" class="Q">/</text><text x="268" y="135.5" class="R"> </text><text x="276.4" y="135.5" class="S"> </text><text x="284.8" y="135.5" class="T">/</text><text x="293.2" y="135.5" class="U">:</text><text x="301.6" y="135.5" class="V">/</text><text x="310" y="135.5" class="W"> </text><text x="318.4" y="135.5" class="X"> </text><text x="326.8" y="135.5" class="Y">\</text><text x="335.2" y="135.5" class="Z">:</text><text x="343.6" y="135.5" class="c50">\</text></symbol><symbol id="36"><text x="16" y="155.1" class="q"> </text><text x="24.4" y="155.1" class="r">/</text><text x="32.8" y="155.1" class="s">_</text><text x="41.2" y="155.1" class="t">_</text><text x="49.6" y="155.1" class="u">/</text><text x="58" y="155.1" class="v">:</text><text x="66.4" y="155.1" class="w">/</text><text x="74.8" y="155.1" class="x"> </text><text x="83.2" y="155.1" class="y">\</text><text x="91.6" y="155.1" class="z">_</text><text x="100" y="155.1" class="A">_</text><text x="108.4" y="155.1" class="B">\</text><text x="116.8" y="155.1" class="C">:</text><text x="125.2" y="155.1" class="D">|</text><text x="133.6" y="155.1" class="E"> </text><text x="142" y="155.1" class="F"> </text><text x="150.4" y="155.1" class="G"> </text><text x="158.8" y="155.1" class="H"> </text><text x="167.2" y="155.1" class="I"> </text><text x="175.6" y="155.1" class="J"> </text><text x="184" y="155.1" class="K">\</text><text x="192.4" y="155.1" class="L"> </text><text x="200.8" y="155.1" class="M"> </text><text x="209.2" y="155.1" class="N">\</text><text x="217.6" y="155.1" class="O">:</text><text x="226" y="155.1" class="P">\</text><text x="234.4" y="155.1" class="Q"> </text><text x="242.8" y="155.1" class="R"> </text><text x="251.2" y="155.1" class="S">/</text><text x="259.6" y="155.1" class="T">_</text><text x="268" y="155.1" class="U">_</text><text x="276.4" y="155.1" class="V">/</text><text x="284.8" y="155.1" class="W">:</text><text x="293.2" y="155.1" class="X">/</text><text x="301.6" y="155.1" class="Y"> </text><text x="310" y="155.1" class="Z">\</text><text x="318.4" y="155.1" class="c50">_</text><text x="326.8" y="155.1" class="c51">_</text><text x="335.2" y="155.1" class="c52">\</text><text x="343.6" y="155.1" class="c53">:</text><text x="352" y="155.1" class="c54">|</text></symbol><symbol id="37"><text x="16" y="174.7" class="t"> </text><text x="24.4" y="174.7" class="u">\</text><text x="32.8" y="174.7" class="v"> </text><text x="41.2" y="174.7" class="w"> </text><text x="49.6" y="174.7" class="x">\</text><text x="58" y="174.7" class="y">:</text><text x="66.4" y="174.7" class="z">\</text><text x="74.8" y="174.7" class="A"> </text><text x="83.2" y="174.7" class="B">/</text><text x="91.6" y="174.7" class="C"> </text><text x="100" y="174.7" class="D"> </text><text x="108.4" y="174.7" class="E">/</text><text x="116.8" y="174.7" class="F">:</text><text x="125.2" y="174.7" class="G">/</text><text x="133.6" y="174.7" class="H"> </text><text x="142" y="174.7" class="I"> </text><text x="150.4" y="174.7" class="J">_</text><text x="158.8" y="174.7" class="K">_</text><text x="167.2" y="174.7" class="L">_</text><text x="175.6" y="174.7" class="M"> </text><text x="184" y="174.7" class="N"> </text><text x="192.4" y="174.7" class="O">\</text><text x="200.8" y="174.7" class="P">_</text><text x="209.2" y="174.7" class="Q">_</text><text x="217.6" y="174.7" class="R">\</text><text x="226" y="174.7" class="S">:</text><text x="234.4" y="174.7" class="T">\</text><text x="242.8" y="174.7" class="U"> </text><text x="251.2" y="174.7" class="V">\</text><text x="259.6" y="174.7" class="W"> </text><text x="268" y="174.7" class="X"> </text><text x="276.4" y="174.7" class="Y">\</text><text x="284.8" y="174.7" class="Z">:</text><text x="293.2" y="174.7" class="c50">\</text><text x="301.6" y="174.7" class="c51"> </text><text x="310" y="174.7" class="c52">/</text><text x="318.4" y="174.7" class="c53"> </text><text x="326.8" y="174.7" class="c54"> </text><text x="335.2" y="174.7" class="c55">/</text><text x="343.6" y="174.7" class="c56">:</text><text x="352" y="174.7" class="c57">/</text></symbol><symbol id="38"><text x="16" y="194.3" class="w"> </text><text x="24.4" y="194.3" class="x"> </text><text x="32.8" y="194.3" class="y">\</text><text x="41.2" y="194.3" class="z"> </text><text x="49.6" y="194.3" class="A"> </text><text x="58" y="194.3" class="B">\</text><text x="66.4" y="194.3" class="C">:</text><text x="74.8" y="194.3" class="D">\</text><text x="83.2" y="194.3" class="E"> </text><text x="91.6" y="194.3" class="F"> </text><text x="100" y="194.3" class="G">/</text><text x="108.4" y="194.3" class="H">:</text><text x="116.8" y="194.3" class="I">/</text><text x="125.2" y="194.3" class="J"> </text><text x="133.6" y="194.3" class="K"> </text><text x="142" y="194.3" class="L">/</text><text x="150.4" y="194.3" class="M">_</text><text x="158.8" y="194.3" class="N">_</text><text x="167.2" y="194.3" class="O">/</text><text x="175.6" y="194.3" class="P">\</text><text x="184" y="194.3" class="Q"> </text><text x="192.4" y="194.3" class="R">|</text><text x="200.8" y="194.3" class="S"> </text><text x="209.2" y="194.3" class="T"> </text><text x="217.6" y="194.3" class="U">|</text><text x="226" y="194.3" class="V">:</text><text x="234.4" y="194.3" class="W">|</text><text x="242.8" y="194.3" class="X"> </text><text x="251.2" y="194.3" class="Y"> </text><text x="259.6" y="194.3" class="Z">\</text><text x="268" y="194.3" class="c50"> </text><text x="276.4" y="194.3" class="c51"> </text><text x="284.8" y="194.3" class="c52">\</text><text x="293.2" y="194.3" class="c53">:</text><text x="301.6" y="194.3" class="c54">\</text><text x="310" y="194.3" class="c55"> </text><text x="318.4" y="194.3" class="c56"> </text><text x="326.8" y="194.3" class="c57">/</text><text x="335.2" y="194.3" class="c58">:</text><text x="343.6" y="194.3" class="c59">/</text></symbol><symbol id="39"><text x="16" y="213.9" class="z"> </text><text x="24.4" y="213.9" class="A"> </text><text x="32.8" y="213.9" class="B"> </text><text x="41.2" y="213.9" class="C">\</text><text x="49.6" y="213.9" class="D"> </text><text x="58" y="213.9" class="E"> </text><text x="66.4" y="213.9" class="F">\</text><text x="74.8" y="213.9" class="G">:</text><text x="83.2" y="213.9" class="H">\</text><text x="91.6" y="213.9" class="I">/</text><text x="100" y="213.9" class="J">:</text><text x="108.4" y="213.9" class="K">/</text><text x="116.8" y="213.9" class="L"> </text><text x="125.2" y="213.9" class="M"> </text><text x="133.6" y="213.9" class="N"> </text><text x="142" y="213.9" class="O">\</text><text x="150.4" y="213.9" class="P"> </text><text x="158.8" y="213.9" class="Q"> </text><text x="167.2" y="213.9" class="R">\</text><text x="175.6" y="213.9" class="S">:</text><text x="184" y="213.9" class="T">\</text><text x="192.4" y="213.9" class="U">|</text><text x="200.8" y="213.9" class="V"> </text><text x="209.2" y="213.9" class="W"> </text><text x="217.6" y="213.9" class="X">|</text><text x="226" y="213.9" class="Y">:</text><text x="234.4" y="213.9" class="Z">|</text><text x="242.8" y="213.9" class="c50"> </text><text x="251.2" y="213.9" class="c51"> </text><text x="259.6" y="213.9" class="c52"> </text><text x="268" y="213.9" class="c53">\</text><text x="276.4" y="213.9" class="c54"> </text><text x="284.8" y="213.9" class="c55"> </text><text x="293.2" y="213.9" class="c56">\</text><text x="301.6" y="213.9" class="c57">:</text><text x="310" y="213.9" class="c58">\</text><text x="318.4" y="213.9" class="c59">/</text><text x="326.8" y="213.9" class="c60">:</text><text x="335.2" y="213.9" class="c61">/</text></symbol><symbol id="40"><text x="16" y="233.5" class="C"> </text><text x="24.4" y="233.5" class="D"> </text><text x="32.8" y="233.5" class="E"> </text><text x="41.2" y="233.5" class="F"> </text><text x="49.6" y="233.5" class="G">\</text><text x="58" y="233.5" class="H"> </text><text x="66.4" y="233.5" class="I"> </text><text x="74.8" y="233.5" class="J">\</text><text x="83.2" y="233.5" class="K">:</text><text x="91.6" y="233.5" class="L">:</text><text x="100" y="233.5" class="M">/</text><text x="108.4" y="233.5" class="N"> </text><text x="116.8" y="233.5" class="O"> </text><text x="125.2" y="233.5" class="P"> </text><text x="133.6" y="233.5" class="Q"> </text><text x="142" y="233.5" class="R"> </text><text x="150.4" y="233.5" class="S">\</text><text x="158.8" y="233.5" class="T"> </text><text x="167.2" y="233.5" class="U"> </text><text x="175.6" y="233.5" class="V">\</text><text x="184" y="233.5" class="W">:</text><text x="192.4" y="233.5" class="X">\</text><text x="200.8" y="233.5" class="Y">_</text><text x="209.2" y="233.5" class="Z">_</text><text x="217.6" y="233.5" class="c50">|</text><text x="226" y="233.5" class="c51">:</text><text x="234.4" y="233.5" class="c52">|</text><text x="242.8" y="233.5" class="c53"> </text><text x="251.2" y="233.5" class="c54"> </text><text x="259.6" y="233.5" class="c55"> </text><text x="268" y="233.5" class="c56"> </text><text x="276.4" y="233.5" class="c57">\</text><text x="284.8" y="233.5" class="c58"> </text><text x="293.2" y="233.5" class="c59"> </text><text x="301.6" y="233.5" class="c60">\</text><text x="310" y="233.5" class="c61">:</text><text x="318.4" y="233.5" class="c62">:</text><text x="326.8" y="233.5" class="c63">/</text></symbol><symbol id="41"><text x="16" y="253.1" class="F"> </text><text x="24.4" y="253.1" class="G"> </text><text x="32.8" y="253.1" class="H"> </text><text x="41.2" y="253.1" class="I"> </text><text x="49.6" y="253.1" class="J"> </text><text x="58" y="253.1" class="K">\</text><text x="66.4" y="253.1" class="L">_</text><text x="74.8" y="253.1" class="M">_</text><text x="83.2" y="253.1" class="N">\</text><text x="91.6" y="253.1" class="O">/</text><text x="100" y="253.1" class="P"> </text><text x="108.4" y="253.1" class="Q"> </text><text x="116.8" y="253.1" class="R"> </text><text x="125.2" y="253.1" class="S"> </text><text x="133.6" y="253.1" class="T"> </text><text x="142" y="253.1" class="U"> </text><text x="150.4" y="253.1" class="V"> </text><text x="158.8" y="253.1" class="W">\</text><text x="167.2" y="253.1" class="X">_</text><text x="175.6" y="253.1" class="Y">_</text><text x="184" y="253.1" class="Z">\</text><text x="192.4" y="253.1" class="c50">:</text><text x="200.8" y="253.1" class="c51">:</text><text x="209.2" y="253.1" class="c52">:</text><text x="217.6" y="253.1" class="c53">:</text><text x="226" y="253.1" class="c54">/</text><text x="234.4" y="253.1" class="c55"> </text><text x="242.8" y="253.1" class="c56"> </text><text x="251.2" y="253.1" class="c57"> </text><text x="259.6" y="253.1" class="c58"> </text><text x="268" y="253.1" class="c59"> </text><text x="276.4" y="253.1" class="c60"> </text><text x="284.8" y="253.1" class="c61">\</text><text x="293.2" y="253.1" class="c62">_</text><text x="301.6" y="253.1" class="c63">_</text><text x="310" y="253.1" class="c64">\</text><text x="318.4" y="253.1" class="c65">/</text></symbol><symbol id="42"><text x="16" y="272.7" class="I"> </text><text x="24.4" y="272.7" class="J"> </text><text x="32.8" y="272.7" class="K"> </text><text x="41.2" y="272.7" class="L"> </text><text x="49.6" y="272.7" class="M"> </text><text x="58" y="272.7" class="N"> </text><text x="66.4" y="272.7" class="O"> </text><text x="74.8" y="272.7" class="P"> </text><text x="83.2" y="272.7" class="Q"> </text><text x="91.6" y="272.7" class="R"> </text><text x="100" y="272.7" class="S"> </text><text x="108.4" y="272.7" class="T"> </text><text x="116.8" y="272.7" class="U"> </text><text x="125.2" y="272.7" class="V"> </text><text x="133.6" y="272.7" class="W"> </text><text x="142" y="272.7" class="X"> </text><text x="150.4" y="272.7" class="Y"> </text><text x="158.8" y="272.7" class="Z"> </text><text x="167.2" y="272.7" class="c50"> </text><text x="175.6" y="272.7" class="c51"> </text><text x="184" y="272.7" class="c52"> </text><text x="192.4" y="272.7" class="c53">~</text><text x="200.8" y="272.7" class="c54">~</text><text x="209.2" y="272.7" class="c55">~</text><text x="217.6" y="272.7" class="c56">~</text></symbol><symbol id="43"><text x="16" y="292.3" class="c">❯</text></symbol><symbol id="44"><text x="16" y="292.3" class="c">❯ </text><text x="32.8" y="292.3" class="d">W</text></symbol><symbol id="45"><text x="16" y="292.3" class="c">❯ </text><text x="32.8" y="292.3" class="d">We</text></symbol><symbol id="46"><text x="16" y="292.3" class="c">❯ </text><text x="32.8" y="292.3" class="d">Wel</text></symbol><symbol id="47"><text x="16" y="292.3" class="c">❯ </text><text x="32.8" y="292.3" class="d">Welc</text></symbol><symbol id="48"><text x="16" y="292.3" class="c">❯ </text><text x="32.8" y="292.3" class="d">Welco</text></symbol><symbol id="49"><text x="16" y="292.3" class="c">❯ </text><text x="32.8" y="292.3" class="d">Welcom</text></symbol><symbol id="50"><text x="16" y="292.3" class="c">❯ </text><text x="32.8" y="292.3" class="d">Welcome</text></symbol><symbol id="51"><text x="16" y="292.3" class="c">❯ </text><text x="32.8" y="292.3" class="d">Welcome t</text></symbol><symbol id="52"><text x="16" y="292.3" class="c">❯ </text><text x="32.8" y="292.3" class="d">Welcome to</text></symbol><symbol id="53"><text x="16" y="292.3" class="c">❯ </text><text x="32.8" y="292.3" class="d">Welcome to D</text></symbol><symbol id="54"><text x="16" y="292.3" class="c">❯ </text><text x="32.8" y="292.3" class="d">Welcome to DV</text></symbol><symbol id="55"><text x="16" y="292.3" class="c">❯ </text><text x="32.8" y="292.3" class="d">Welcome to DVD</text></symbol><symbol id="56"><text x="16" y="292.3" class="c">❯ </text><text x="32.8" y="292.3" class="d">Welcome to DVD!</text></symbol></defs><style>@keyframes f{0.12%{transform:translateX(0px)}0.78%{transform:translateX(-385px)}1.44%{transform:translateX(-770px)}2.09%{transform:translateX(-1155px)}2.75%{transform:translateX(-1540px)}3.41%{transform:translateX(-1925px)}4.07%{transform:translateX(-2310px)}4.76%{transform:translateX(-2695px)}5.43%{transform:translateX(-3080px)}6.11%{transform:translateX(-3465px)}6.79%{transform:translateX(-3850px)}7.45%{transform:translateX(-4235px)}8.12%{transform:translateX(-4620px)}8.80%{transform:translateX(-5005px)}9.48%{transform:translateX(-5390px)}10.14%{transform:translateX(-5775px)}10.81%{transform:translateX(-6160px)}11.47%{transform:translateX(-6545px)}12.14%{transform:translateX(-6930px)}12.79%{transform:translateX(-7315px)}13.46%{transform:translateX(-7700px)}14.15%{transform:translateX(-8085px)}14.83%{transform:translateX(-8470px)}15.51%{transform:translateX(-8855px)}16.13%{transform:translateX(-9240px)}16.81%{transform:translateX(-9625px)}17.45%{transform:translateX(-10010px)}18.10%{transform:translateX(-10395px)}18.77%{transform:translateX(-10780px)}19.45%{transform:translateX(-11165px)}20.18%{transform:translateX(-11550px)}20.81%{transform:translateX(-11935px)}21.49%{transform:translateX(-12320px)}22.11%{transform:translateX(-12705px)}22.79%{transform:translateX(-13090px)}23.47%{transform:translateX(-13475px)}24.15%{transform:translateX(-13860px)}24.16%{transform:translateX(-14245px)}32.12%{transform:translateX(-14630px)}33.26%{transform:translateX(-15015px)}35.97%{transform:translateX(-15400px)}36.63%{transform:translateX(-15785px)}37.25%{transform:translateX(-16170px)}37.93%{transform:translateX(-16555px)}38.62%{transform:translateX(-16940px)}39.32%{transform:translateX(-17325px)}39.92%{transform:translateX(-17710px)}40.61%{transform:translateX(-18095px)}41.30%{transform:translateX(-18480px)}41.94%{transform:translateX(-18865px)}42.63%{transform:translateX(-19250px)}43.30%{transform:translateX(-19635px)}43.90%{transform:translateX(-20020px)}44.51%{transform:translateX(-20405px)}45.19%{transform:translateX(-20790px)}45.88%{transform:translateX(-21175px)}45.89%{transform:translateX(-21560px)}}.a{fill:#1e1e1e}.c{fill:#d2a8ff;stroke:#d2a8ff}.d{fill:#c9d1d9;stroke:#c9d1d9}.e{fill:rgb(218,5,160);stroke:rgb(218,5,160)}.f{fill:rgb(215,4,164);stroke:rgb(215,4,164)}.g{fill:rgb(212,3,168);stroke:rgb(212,3,168)}.h{fill:rgb(208,2,172);stroke:rgb(208,2,172)}.i{fill:rgb(205,2,176);stroke:rgb(205,2,176)}.j{fill:rgb(202,1,180);stroke:rgb(202,1,180)}.k{fill:rgb(198,1,183);stroke:rgb(198,1,183)}.l{fill:rgb(195,1,187);stroke:rgb(195,1,187)}.m{fill:rgb(191,1,191);stroke:rgb(191,1,191)}.n{fill:rgb(187,1,195);stroke:rgb(187,1,195)}.o{fill:rgb(184,1,198);stroke:rgb(184,1,198)}.p{fill:rgb(180,1,202);stroke:rgb(180,1,202)}.q{fill:rgb(176,2,205);stroke:rgb(176,2,205)}.r{fill:rgb(172,2,208);stroke:rgb(172,2,208)}.s{fill:rgb(168,3,212);stroke:rgb(168,3,212)}.t{fill:rgb(164,4,215);stroke:rgb(164,4,215)}.u{fill:rgb(160,5,218);stroke:rgb(160,5,218)}.v{fill:rgb(156,6,221);stroke:rgb(156,6,221)}.w{fill:rgb(152,7,223);stroke:rgb(152,7,223)}.x{fill:rgb(147,9,226);stroke:rgb(147,9,226)}.y{fill:rgb(143,10,229);stroke:rgb(143,10,229)}.z{fill:rgb(139,12,231);stroke:rgb(139,12,231)}.A{fill:rgb(135,14,234);stroke:rgb(135,14,234)}.B{fill:rgb(131,16,236);stroke:rgb(131,16,236)}.C{fill:rgb(126,18,238);stroke:rgb(126,18,238)}.D{fill:rgb(122,20,240);stroke:rgb(122,20,240)}.E{fill:rgb(118,23,242);stroke:rgb(118,23,242)}.F{fill:rgb(114,25,244);stroke:rgb(114,25,244)}.G{fill:rgb(110,28,245);stroke:rgb(110,28,245)}.H{fill:rgb(105,30,247);stroke:rgb(105,30,247)}.I{fill:rgb(101,33,248);stroke:rgb(101,33,248)}.J{fill:rgb(97,36,250);stroke:rgb(97,36,250)}.K{fill:rgb(93,39,251);stroke:rgb(93,39,251)}.L{fill:rgb(89,42,252);stroke:rgb(89,42,252)}.M{fill:rgb(85,45,252);stroke:rgb(85,45,252)}.N{fill:rgb(81,48,253);stroke:rgb(81,48,253)}.O{fill:rgb(77,52,254);stroke:rgb(77,52,254)}.P{fill:rgb(73,55,254);stroke:rgb(73,55,254)}.Q{fill:rgb(69,59,254);stroke:rgb(69,59,254)}.R{fill:rgb(66,62,254);stroke:rgb(66,62,254)}.S{fill:rgb(62,66,254);stroke:rgb(62,66,254)}.T{fill:rgb(58,70,254);stroke:rgb(58,70,254)}.U{fill:rgb(55,74,254);stroke:rgb(55,74,254)}.V{fill:rgb(51,77,254);stroke:rgb(51,77,254)}.W{fill:rgb(48,81,253);stroke:rgb(48,81,253)}.X{fill:rgb(45,85,252);stroke:rgb(45,85,252)}.Y{fill:rgb(42,89,251);stroke:rgb(42,89,251)}.Z{fill:rgb(39,93,250);stroke:rgb(39,93,250)}.c50{fill:rgb(36,98,249);stroke:rgb(36,98,249)}.c51{fill:rgb(33,102,248);stroke:rgb(33,102,248)}.c52{fill:rgb(30,106,247);stroke:rgb(30,106,247)}.c53{fill:rgb(27,110,245);stroke:rgb(27,110,245)}.c54{fill:rgb(25,114,244);stroke:rgb(25,114,244)}.c55{fill:rgb(22,118,242);stroke:rgb(22,118,242)}.c56{fill:rgb(20,123,240);stroke:rgb(20,123,240)}.c57{fill:rgb(18,127,238);stroke:rgb(18,127,238)}.c58{fill:rgb(16,131,236);stroke:rgb(16,131,236)}.c59{fill:rgb(14,135,233);stroke:rgb(14,135,233)}.c60{fill:rgb(12,140,231);stroke:rgb(12,140,231)}.c61{fill:rgb(10,144,228);stroke:rgb(10,144,228)}.c62{fill:rgb(9,148,226);stroke:rgb(9,148,226)}.c63{fill:rgb(7,152,223);stroke:rgb(7,152,223)}.c64{fill:rgb(6,156,220);stroke:rgb(6,156,220)}.c65{fill:rgb(5,160,217);stroke:rgb(5,160,217)}path[fill="none"]{fill:none}path[shape-rendering="crispEdges"]{stroke:none}text{font-family:'SF Mono',Monaco,Consolas,Menlo,monospace;font-size:14px;dominant-baseline:text-before-edge;white-space:pre}text[class]{stroke:none}.bold{font-weight:700}.italic{font-style:italic}.uline{text-decoration:underline}.strike{text-decoration:line-through}.dim{opacity:0.5}@keyframes blink{0%,50%{opacity:1}50.01%,100%{opacity:0}}.cursor{animation:blink 1s step-end infinite;mix-blend-mode:difference}.cursor-active{opacity:1;mix-blend-mode:difference}</style><g transform="translate(0,0)"><rect width="385" height="335" rx="8" fill="#1e1e1e"/><rect width="385" height="40" rx="8" fill="#1e1e1e"/><path d="M0 32h385v8H0z" fill="#1e1e1e"/><circle cx="16" cy="20" r="6" fill="#ff5f56"/><circle cx="36" cy="20" r="6" fill="#ffbd2e"/><circle cx="56" cy="20" r="6" fill="#27c93f"/><text x="192.5" y="20" text-anchor="middle" dominant-baseline="middle" fill="#c9d1d9" font-size="14">FIGLET Art Demo</text><clipPath id="content-clip"><path d="M0 40h385v295H0z" /></clipPath><g clip-path="url(#content-clip)"><g style="animation:f 7.661s steps(1,end) infinite"><g transform="translate(0,0)"><use xlink:href="#1"/><path d="M32.8 56h8.4v19.6H32.8z" fill="#fff" class="cursor"/></g><g transform="translate(385,0)"><use xlink:href="#2"/><path d="M41.2 56h8.4v19.6H41.2z" fill="#fff" class="cursor-active"/></g><g transform="translate(770,0)"><use xlink:href="#3"/><path d="M49.6 56h8.4v19.6H49.6z" fill="#fff" class="cursor-active"/></g><g transform="translate(1155,0)"><use xlink:href="#4"/><path d="M58 56h8.4v19.6H58z" fill="#fff" class="cursor-active"/></g><g transform="translate(1540,0)"><use xlink:href="#5"/><path d="M66.4 56h8.4v19.6H66.4z" fill="#fff" class="cursor-active"/></g><g transform="translate(1925,0)"><use xlink:href="#6"/><path d="M74.8 56h8.4v19.6H74.8z" fill="#fff" class="cursor-active"/></g><g transform="translate(2310,0)"><use xlink:href="#7"/><path d="M83.2 56h8.4v19.6H83.2z" fill="#fff" class="cursor-active"/></g><g transform="translate(2695,0)"><use xlink:href="#7"/><path d="M91.6 56h8.4v19.6H91.6z" fill="#fff" class="cursor-active"/></g><g transform="translate(3080,0)"><use xlink:href="#8"/><path d="M100 56h8.4v19.6H100z" fill="#fff" class="cursor-active"/></g><g transform="translate(3465,0)"><use xlink:href="#9"/><path d="M108.4 56h8.4v19.6H108.4z" fill="#fff" class="cursor-active"/></g><g transform="translate(3850,0)"><use xlink:href="#9"/><path d="M116.8 56h8.4v19.6H116.8z" fill="#fff" class="cursor-active"/></g><g transform="translate(4235,0)"><use xlink:href="#10"/><path d="M125.2 56h8.4v19.6H125.2z" fill="#fff" class="cursor-active"/></g><g transform="translate(4620,0)"><use xlink:href="#11"/><path d="M133.6 56h8.4v19.6H133.6z" fill="#fff" class="cursor-active"/></g><g transform="translate(5005,0)"><use xlink:href="#12"/><path d="M142 56h8.4v19.6H142z" fill="#fff" class="cursor-active"/></g><g transform="translate(5390,0)"><use xlink:href="#13"/><path d="M150.4 56h8.4v19.6H150.4z" fill="#fff" class="cursor-active"/></g><g transform="translate(5775,0)"><use xlink:href="#14"/><path d="M158.8 56h8.4v19.6H158.8z" fill="#fff" class="cursor-active"/></g><g transform="translate(6160,0)"><use xlink:href="#15"/><path d="M167.2 56h8.4v19.6H167.2z" fill="#fff" class="cursor-active"/></g><g transform="translate(6545,0)"><use xlink:href="#16"/><path d="M175.6 56h8.4v19.6H175.6z" fill="#fff" class="cursor-active"/></g><g transform="translate(6930,0)"><use xlink:href="#17"/><path d="M184 56h8.4v19.6H184z" fill="#fff" class="cursor-active"/></g><g transform="translate(7315,0)"><use xlink:href="#18"/><path d="M192.4 56h8.4v19.6H192.4z" fill="#fff" class="cursor-active"/></g><g transform="translate(7700,0)"><use xlink:href="#19"/><path d="M200.8 56h8.4v19.6H200.8z" fill="#fff" class="cursor-active"/></g><g transform="translate(8085,0)"><use xlink:href="#19"/><path d="M209.2 56h8.4v19.6H209.2z" fill="#fff" class="cursor-active"/></g><g transform="translate(8470,0)"><use xlink:href="#20"/><path d="M217.6 56h8.4v19.6H217.6z" fill="#fff" class="cursor-active"/></g><g transform="translate(8855,0)"><use xlink:href="#21"/><path d="M226 56h8.4v19.6H226z" fill="#fff" class="cursor-active"/></g><g transform="translate(9240,0)"><use xlink:href="#22"/><path d="M234.4 56h8.4v19.6H234.4z" fill="#fff" class="cursor-active"/></g><g transform="translate(9625,0)"><use xlink:href="#22"/><path d="M242.8 56h8.4v19.6H242.8z" fill="#fff" class="cursor-active"/></g><g transform="translate(10010,0)"><use xlink:href="#23"/><path d="M251.2 56h8.4v19.6H251.2z" fill="#fff" class="cursor-active"/></g><g transform="translate(10395,0)"><use xlink:href="#23"/><path d="M259.6 56h8.4v19.6H259.6z" fill="#fff" class="cursor-active"/></g><g transform="translate(10780,0)"><use xlink:href="#24"/><path d="M268 56h8.4v19.6H268z" fill="#fff" class="cursor-active"/></g><g transform="translate(11165,0)"><use xlink:href="#25"/><path d="M276.4 56h8.4v19.6H276.4z" fill="#fff" class="cursor-active"/></g><g transform="translate(11550,0)"><use xlink:href="#26"/><path d="M284.8 56h8.4v19.6H284.8z" fill="#fff" class="cursor-active"/></g><g transform="translate(11935,0)"><use xlink:href="#27"/><path d="M293.2 56h8.4v19.6H293.2z" fill="#fff" class="cursor-active"/></g><g transform="translate(12320,0)"><use xlink:href="#28"/><path d="M301.6 56h8.4v19.6H301.6z" fill="#fff" class="cursor-active"/></g><g transform="translate(12705,0)"><use xlink:href="#29"/><path d="M310 56h8.4v19.6H310z" fill="#fff" class="cursor-active"/></g><g transform="translate(13090,0)"><use xlink:href="#29"/><path d="M318.4 56h8.4v19.6H318.4z" fill="#fff" class="cursor-active"/></g><g transform="translate(13475,0)"><use xlink:href="#30"/><path d="M326.8 56h8.4v19.6H326.8z" fill="#fff" class="cursor-active"/></g><g transform="translate(13860,0)"><use xlink:href="#31"/><path d="M335.2 56h8.4v19.6H335.2z" fill="#fff" class="cursor-active"/></g><g transform="translate(14245,0)"><use xlink:href="#31"/><path d="M335.2 56h8.4v19.6H335.2z" fill="#fff" class="cursor"/></g><g transform="translate(14630,0)"><use xlink:href="#31"/></g><g transform="translate(15015,0)"><use xlink:href="#31"/><use xlink:href="#32"/><use xlink:href="#33"/><use xlink:href="#34"/><use xlink:href="#35"/><use xlink:href="#36"/><use xlink:href="#37"/><use xlink:href="#38"/><use xlink:href="#39"/><use xlink:href="#40"/><use xlink:href="#41"/><use xlink:href="#42"/></g><g transform="translate(15400,0)"><use xlink:href="#31"/><use xlink:href="#32"/><use xlink:href="#33"/><use xlink:href="#34"/><use xlink:href="#35"/><use xlink:href="#36"/><use xlink:href="#37"/><use xlink:href="#38"/><use xlink:href="#39"/><use xlink:href="#40"/><use xlink:href="#41"/><use xlink:href="#42"/><use xlink:href="#43"/><path d="M32.8 291.2h8.4v19.6H32.8z" fill="#fff" class="cursor"/></g><g transform="translate(15785,0)"><use xlink:href="#31"/><use xlink:href="#32"/><use xlink:href="#33"/><use xlink:href="#34"/><use xlink:href="#35"/><use xlink:href="#36"/><use xlink:href="#37"/><use xlink:href="#38"/><use xlink:href="#39"/><use xlink:href="#40"/><use xlink:href="#41"/><use xlink:href="#42"/><use xlink:href="#44"/><path d="M41.2 291.2h8.4v19.6H41.2z" fill="#fff" class="cursor-active"/></g><g transform="translate(16170,0)"><use xlink:href="#31"/><use xlink:href="#32"/><use xlink:href="#33"/><use xlink:href="#34"/><use xlink:href="#35"/><use xlink:href="#36"/><use xlink:href="#37"/><use xlink:href="#38"/><use xlink:href="#39"/><use xlink:href="#40"/><use xlink:href="#41"/><use xlink:href="#42"/><use xlink:href="#45"/><path d="M49.6 291.2h8.4v19.6H49.6z" fill="#fff" class="cursor-active"/></g><g transform="translate(16555,0)"><use xlink:href="#31"/><use xlink:href="#32"/><use xlink:href="#33"/><use xlink:href="#34"/><use xlink:href="#35"/><use xlink:href="#36"/><use xlink:href="#37"/><use xlink:href="#38"/><use xlink:href="#39"/><use xlink:href="#40"/><use xlink:href="#41"/><use xlink:href="#42"/><use xlink:href="#46"/><path d="M58 291.2h8.4v19.6H58z" fill="#fff" class="cursor-active"/></g><g transform="translate(16940,0)"><use xlink:href="#31"/><use xlink:href="#32"/><use xlink:href="#33"/><use xlink:href="#34"/><use xlink:href="#35"/><use xlink:href="#36"/><use xlink:href="#37"/><use xlink:href="#38"/><use xlink:href="#39"/><use xlink:href="#40"/><use xlink:href="#41"/><use xlink:href="#42"/><use xlink:href="#47"/><path d="M66.4 291.2h8.4v19.6H66.4z" fill="#fff" class="cursor-active"/></g><g transform="translate(17325,0)"><use xlink:href="#31"/><use xlink:href="#32"/><use xlink:href="#33"/><use xlink:href="#34"/><use xlink:href="#35"/><use xlink:href="#36"/><use xlink:href="#37"/><use xlink:href="#38"/><use xlink:href="#39"/><use xlink:href="#40"/><use xlink:href="#41"/><use xlink:href="#42"/><use xlink:href="#48"/><path d="M74.8 291.2h8.4v19.6H74.8z" fill="#fff" class="cursor-active"/></g><g transform="translate(17710,0)"><use xlink:href="#31"/><use xlink:href="#32"/><use xlink:href="#33"/><use xlink:href="#34"/><use xlink:href="#35"/><use xlink:href="#36"/><use xlink:href="#37"/><use xlink:href="#38"/><use xlink:href="#39"/><use xlink:href="#40"/><use xlink:href="#41"/><use xlink:href="#42"/><use xlink:href="#49"/><path d="M83.2 291.2h8.4v19.6H83.2z" fill="#fff" class="cursor-active"/></g><g transform="translate(18095,0)"><use xlink:href="#31"/><use xlink:href="#32"/><use xlink:href="#33"/><use xlink:href="#34"/><use xlink:href="#35"/><use xlink:href="#36"/><use xlink:href="#37"/><use xlink:href="#38"/><use xlink:href="#39"/><use xlink:href="#40"/><use xlink:href="#41"/><use xlink:href="#42"/><use xlink:href="#50"/><path d="M91.6 291.2h8.4v19.6H91.6z" fill="#fff" class="cursor-active"/></g><g transform="translate(18480,0)"><use xlink:href="#31"/><use xlink:href="#32"/><use xlink:href="#33"/><use xlink:href="#34"/><use xlink:href="#35"/><use xlink:href="#36"/><use xlink:href="#37"/><use xlink:href="#38"/><use xlink:href="#39"/><use xlink:href="#40"/><use xlink:href="#41"/><use xlink:href="#42"/><use xlink:href="#50"/><path d="M100 291.2h8.4v19.6H100z" fill="#fff" class="cursor-active"/></g><g transform="translate(18865,0)"><use xlink:href="#31"/><use xlink:href="#32"/><use xlink:href="#33"/><use xlink:href="#34"/><use xlink:href="#35"/><use xlink:href="#36"/><use xlink:href="#37"/><use xlink:href="#38"/><use xlink:href="#39"/><use xlink:href="#40"/><use xlink:href="#41"/><use xlink:href="#42"/><use xlink:href="#51"/><path d="M108.4 291.2h8.4v19.6H108.4z" fill="#fff" class="cursor-active"/></g><g transform="translate(19250,0)"><use xlink:href="#31"/><use xlink:href="#32"/><use xlink:href="#33"/><use xlink:href="#34"/><use xlink:href="#35"/><use xlink:href="#36"/><use xlink:href="#37"/><use xlink:href="#38"/><use xlink:href="#39"/><use xlink:href="#40"/><use xlink:href="#41"/><use xlink:href="#42"/><use xlink:href="#52"/><path d="M116.8 291.2h8.4v19.6H116.8z" fill="#fff" class="cursor-active"/></g><g transform="translate(19635,0)"><use xlink:href="#31"/><use xlink:href="#32"/><use xlink:href="#33"/><use xlink:href="#34"/><use xlink:href="#35"/><use xlink:href="#36"/><use xlink:href="#37"/><use xlink:href="#38"/><use xlink:href="#39"/><use xlink:href="#40"/><use xlink:href="#41"/><use xlink:href="#42"/><use xlink:href="#52"/><path d="M125.2 291.2h8.4v19.6H125.2z" fill="#fff" class="cursor-active"/></g><g transform="translate(20020,0)"><use xlink:href="#31"/><use xlink:href="#32"/><use xlink:href="#33"/><use xlink:href="#34"/><use xlink:href="#35"/><use xlink:href="#36"/><use xlink:href="#37"/><use xlink:href="#38"/><use xlink:href="#39"/><use xlink:href="#40"/><use xlink:href="#41"/><use xlink:href="#42"/><use xlink:href="#53"/><path d="M133.6 291.2h8.4v19.6H133.6z" fill="#fff" class="cursor-active"/></g><g transform="translate(20405,0)"><use xlink:href="#31"/><use xlink:href="#32"/><use xlink:href="#33"/><use xlink:href="#34"/><use xlink:href="#35"/><use xlink:href="#36"/><use xlink:href="#37"/><use xlink:href="#38"/><use xlink:href="#39"/><use xlink:href="#40"/><use xlink:href="#41"/><use xlink:href="#42"/><use xlink:href="#54"/><path d="M142 291.2h8.4v19.6H142z" fill="#fff" class="cursor-active"/></g><g transform="translate(20790,0)"><use xlink:href="#31"/><use xlink:href="#32"/><use xlink:href="#33"/><use xlink:href="#34"/><use xlink:href="#35"/><use xlink:href="#36"/><use xlink:href="#37"/><use xlink:href="#38"/><use xlink:href="#39"/><use xlink:href="#40"/><use xlink:href="#41"/><use xlink:href="#42"/><use xlink:href="#55"/><path d="M150.4 291.2h8.4v19.6H150.4z" fill="#fff" class="cursor-active"/></g><g transform="translate(21175,0)"><use xlink:href="#31"/><use xlink:href="#32"/><use xlink:href="#33"/><use xlink:href="#34"/><use xlink:href="#35"/><use xlink:href="#36"/><use xlink:href="#37"/><use xlink:href="#38"/><use xlink:href="#39"/><use xlink:href="#40"/><use xlink:href="#41"/><use xlink:href="#42"/><use xlink:href="#56"/><path d="M158.8 291.2h8.4v19.6H158.8z" fill="#fff" class="cursor-active"/></g><g transform="translate(21560,0)"><use xlink:href="#31"/><use xlink:href="#32"/><use xlink:href="#33"/><use xlink:href="#34"/><use xlink:href="#35"/><use xlink:href="#36"/><use xlink:href="#37"/><use xlink:href="#38"/><use xlink:href="#39"/><use xlink:href="#40"/><use xlink:href="#41"/><use xlink:href="#42"/><use xlink:href="#56"/><path d="M158.8 291.2h8.4v19.6H158.8z" fill="#fff" class="cursor"/></g></g></g></g></svg>