<svg xmlns="http://www.w3.org/2000/svg" xmlns:xlink="http://www.w3.org/1999/xlink" width="456" height="210" viewBox="0 0 456 210"><defs><linearGradient id="bg-gradient" x1="0%" y1="0%" x2="0%" y2="100%"><stop offset="0%" stop-color="#84FFC9"/><stop offset="50%" stop-color="#AAB2FF"/><stop offset="100%" stop-color="#ECA0FF"/></linearGradient><symbol id="1"><text x="16" y="57.3" class="c">$</text></symbol><symbol id="2"><text x="16" y="57.3" class="c">$</text><text x="25.6" y="57.3" class="d"> e</text></symbol><symbol id="3"><text x="16" y="57.3" class="c">$</text><text x="25.6" y="57.3" class="d"> ec</text></symbol><symbol id="4"><text x="16" y="57.3" class="c">$</text><text x="25.6" y="57.3" class="d"> ech</text></symbol><symbol id="5"><text x="16" y="57.3" class="c">$</text><text x="25.6" y="57.3" class="d"> echo</text></symbol><symbol id="6"><text x="16" y="57.3" class="c">$</text><text x="25.6" y="57.3" class="d"> echo &apos;</text></symbol><symbol id="7"><text x="16" y="57.3" class="c">$</text><text x="25.6" y="57.3" class="d"> echo &apos;I</text></symbol><symbol id="8"><text x="16" y="57.3" class="c">$</text><text x="25.6" y="57.3" class="d"> echo &apos;I a</text></symbol><symbol id="9"><text x="16" y="57.3" class="c">$</text><text x="25.6" y="57.3" class="d"> echo &apos;I am</text></symbol><symbol id="10"><text x="16" y="57.3" class="c">$</text><text x="25.6" y="57.3" class="d"> echo &apos;I am a</text></symbol><symbol id="11"><text x="16" y="57.3" class="c">$</text><text x="25.6" y="57.3" class="d"> echo &apos;I am an</text></symbol><symbol id="12"><text x="16" y="57.3" class="c">$</text><text x="25.6" y="57.3" class="d"> echo &apos;I am an i</text></symbol><symbol id="13"><text x="16" y="57.3" class="c">$</text><text x="25.6" y="57.3" class="d"> echo &apos;I am an id</text></symbol><symbol id="14"><text x="16" y="57.3" class="c">$</text><text x="25.6" y="57.3" class="d"> echo &apos;I am an idi</text></symbol><symbol id="15"><text x="16" y="57.3" class="c">$</text><text x="25.6" y="57.3" class="d"> echo &apos;I am an idio</text></symbol><symbol id="16"><text x="16" y="57.3" class="c">$</text><text x="25.6" y="57.3" class="d"> echo &apos;I am an idiot</text></symbol><symbol id="17"><text x="16" y="57.3" class="c">$</text><text x="25.6" y="57.3" class="d"> echo &apos;I am an idiot s</text></symbol><symbol id="18"><text x="16" y="57.3" class="c">$</text><text x="25.6" y="57.3" class="d"> echo &apos;I am an idiot sa</text></symbol><symbol id="19"><text x="16" y="57.3" class="c">$</text><text x="25.6" y="57.3" class="d"> echo &apos;I am an idiot sav</text></symbol><symbol id="20"><text x="16" y="57.3" class="c">$</text><text x="25.6" y="57.3" class="d"> echo &apos;I am an idiot sava</text></symbol><symbol id="21"><text x="16" y="57.3" class="c">$</text><text x="25.6" y="57.3" class="d"> echo &apos;I am an idiot savan</text></symbol><symbol id="22"><text x="16" y="57.3" class="c">$</text><text x="25.6" y="57.3" class="d"> echo &apos;I am an idiot savant</text></symbol><symbol id="23"><text x="16" y="57.3" class="c">$</text><text x="25.6" y="57.3" class="d"> echo &apos;I am an idiot savant d</text></symbol><symbol id="24"><text x="16" y="57.3" class="c">$</text><text x="25.6" y="57.3" class="d"> echo &apos;I am an idiot savant de</text></symbol><symbol id="25"><text x="16" y="57.3" class="c">$</text><text x="25.6" y="57.3" class="d"> echo &apos;I am an idiot savant dev</text></symbol><symbol id="26"><text x="16" y="57.3" class="c">$</text><text x="25.6" y="57.3" class="d"> echo &apos;I am an idiot savant deve</text></symbol><symbol id="27"><text x="16" y="57.3" class="c">$</text><text x="25.6" y="57.3" class="d"> echo &apos;I am an idiot savant devel</text></symbol><symbol id="28"><text x="16" y="57.3" class="c">$</text><text x="25.6" y="57.3" class="d"> echo &apos;I am an idiot savant develo</text></symbol><symbol id="29"><text x="16" y="57.3" class="c">$</text><text x="25.6" y="57.3" class="d"> echo &apos;I am an idiot savant develop</text></symbol><symbol id="30"><text x="16" y="57.3" class="c">$</text><text x="25.6" y="57.3" class="d"> echo &apos;I am an idiot savant develope</text></symbol><symbol id="31"><text x="16" y="57.3" class="c">$</text><text x="25.6" y="57.3" class="d"> echo &apos;I am an idiot savant developer</text></symbol><symbol id="32"><text x="16" y="57.3" class="c">$</text><text x="25.6" y="57.3" class="d"> echo &apos;I am an idiot savant developer&apos;</text></symbol><symbol id="33"><text x="16" y="57.3" class="c">$</text><text x="25.6" y="57.3" class="d"> echo &apos;I am an idiot savantdeveloper&apos;</text></symbol><symbol id="34"><text x="16" y="57.3" class="c">$</text><text x="25.6" y="57.3" class="d"> echo &apos;I am an idiot savandeveloper&apos;</text></symbol><symbol id="35"><text x="16" y="57.3" class="c">$</text><text x="25.6" y="57.3" class="d"> echo &apos;I am an idiot savadeveloper&apos;</text></symbol><symbol id="36"><text x="16" y="57.3" class="c">$</text><text x="25.6" y="57.3" class="d"> echo &apos;I am an idiot savdeveloper&apos;</text></symbol><symbol id="37"><text x="16" y="57.3" class="c">$</text><text x="25.6" y="57.3" class="d"> echo &apos;I am an idiot sadeveloper&apos;</text></symbol><symbol id="38"><text x="16" y="57.3" class="c">$</text><text x="25.6" y="57.3" class="d"> echo &apos;I am an idiot sdeveloper&apos;</text></symbol><symbol id="39"><text x="16" y="57.3" class="c">$</text><text x="25.6" y="57.3" class="d"> echo &apos;I am an idiot developer&apos;</text></symbol><symbol id="40"><text x="16" y="57.3" class="c">$</text><text x="25.6" y="57.3" class="d"> echo &apos;I am an idiotdeveloper&apos;</text></symbol><symbol id="41"><text x="16" y="57.3" class="c">$</text><text x="25.6" y="57.3" class="d"> echo &apos;I am an idiodeveloper&apos;</text></symbol><symbol id="42"><text x="16" y="57.3" class="c">$</text><text x="25.6" y="57.3" class="d"> echo &apos;I am an idideveloper&apos;</text></symbol><symbol id="43"><text x="16" y="57.3" class="c">$</text><text x="25.6" y="57.3" class="d"> echo &apos;I am an iddeveloper&apos;</text></symbol><symbol id="44"><text x="16" y="57.3" class="c">$</text><text x="25.6" y="57.3" class="d"> echo &apos;I am an ideveloper&apos;</text></symbol><symbol id="45"><text x="16" y="57.3" class="c">$</text><text x="25.6" y="57.3" class="d"> echo &apos;I am an developer&apos;</text></symbol><symbol id="46"><text x="16" y="57.3" class="c">$</text><text x="25.6" y="57.3" class="d"> echo &apos;I am andeveloper&apos;</text></symbol><symbol id="47"><text x="16" y="57.3" class="c">$</text><text x="25.6" y="57.3" class="d"> echo &apos;I am adeveloper&apos;</text></symbol><symbol id="48"><text x="16" y="57.3" class="c">$</text><text x="25.6" y="57.3" class="d"> echo &apos;I am developer&apos;</text></symbol><symbol id="49"><text x="16" y="57.3" class="c">$</text><text x="25.6" y="57.3" class="d"> echo &apos;I amdeveloper&apos;</text></symbol><symbol id="50"><text x="16" y="57.3" class="c">$</text><text x="25.6" y="57.3" class="d"> echo &apos;I am a developer&apos;</text></symbol><symbol id="51"><text x="16" y="79.7" class="d">I am a developer</text></symbol><symbol id="52"><text x="16" y="102.1" class="c">$</text></symbol></defs><style>@keyframes f{0.11%{transform:translateX(0px)}0.84%{transform:translateX(-416px)}1.53%{transform:translateX(-832px)}2.22%{transform:translateX(-1248px)}2.93%{transform:translateX(-1664px)}3.63%{transform:translateX(-2080px)}4.35%{transform:translateX(-2496px)}5.07%{transform:translateX(-2912px)}5.77%{transform:translateX(-3328px)}6.47%{transform:translateX(-3744px)}7.20%{transform:translateX(-4160px)}7.95%{transform:translateX(-4576px)}8.64%{transform:translateX(-4992px)}9.36%{transform:translateX(-5408px)}10.05%{transform:translateX(-5824px)}10.77%{transform:translateX(-6240px)}11.47%{transform:translateX(-6656px)}12.16%{transform:translateX(-7072px)}12.85%{transform:translateX(-7488px)}13.54%{transform:translateX(-7904px)}14.27%{transform:translateX(-8320px)}14.99%{transform:translateX(-8736px)}15.71%{transform:translateX(-9152px)}16.43%{transform:translateX(-9568px)}17.14%{transform:translateX(-9984px)}17.87%{transform:translateX(-10400px)}18.55%{transform:translateX(-10816px)}19.24%{transform:translateX(-11232px)}19.96%{transform:translateX(-11648px)}20.69%{transform:translateX(-12064px)}21.37%{transform:translateX(-12480px)}22.13%{transform:translateX(-12896px)}22.83%{transform:translateX(-13312px)}23.57%{transform:translateX(-13728px)}24.21%{transform:translateX(-14144px)}24.93%{transform:translateX(-14560px)}25.65%{transform:translateX(-14976px)}26.35%{transform:translateX(-15392px)}27.08%{transform:translateX(-15808px)}27.81%{transform:translateX(-16224px)}28.54%{transform:translateX(-16640px)}29.29%{transform:translateX(-17056px)}30.06%{transform:translateX(-17472px)}30.78%{transform:translateX(-17888px)}31.54%{transform:translateX(-18304px)}32.26%{transform:translateX(-18720px)}33.02%{transform:translateX(-19136px)}33.76%{transform:translateX(-19552px)}33.82%{transform:translateX(-19968px)}37.42%{transform:translateX(-20384px)}38.15%{transform:translateX(-20800px)}38.88%{transform:translateX(-21216px)}39.63%{transform:translateX(-21632px)}40.35%{transform:translateX(-22048px)}41.09%{transform:translateX(-22464px)}41.85%{transform:translateX(-22880px)}41.89%{transform:translateX(-23296px)}56.52%{transform:translateX(-23712px)}57.25%{transform:translateX(-24128px)}57.98%{transform:translateX(-24544px)}58.72%{transform:translateX(-24960px)}59.48%{transform:translateX(-25376px)}60.19%{transform:translateX(-25792px)}60.92%{transform:translateX(-26208px)}61.63%{transform:translateX(-26624px)}62.33%{transform:translateX(-27040px)}63.05%{transform:translateX(-27456px)}63.77%{transform:translateX(-27872px)}64.47%{transform:translateX(-28288px)}65.18%{transform:translateX(-28704px)}66.61%{transform:translateX(-29120px)}66.68%{transform:translateX(-29536px)}68.17%{transform:translateX(-29952px)}}.a{fill:url(#bg-gradient)}.c{fill:#3fb950;stroke:#3fb950}.d{fill:#c9d1d9;stroke:#c9d1d9}path[fill="none"]{fill:none}path[shape-rendering="crispEdges"]{stroke:none}text{font-family:'SF Mono',Monaco,Consolas,Menlo,monospace;font-size:16px;dominant-baseline:text-before-edge;white-space:pre;}text[class]{stroke:none}.bold{font-weight:700}.italic{font-style:italic}.uline{text-decoration:underline}.strike{text-decoration:line-through}.dim{opacity:0.5}@keyframes blink{0%,50%{opacity:1}50.01%,100%{opacity:0}}.cursor{animation:blink 1s step-end infinite;mix-blend-mode:difference}.cursor-active{opacity:1;mix-blend-mode:difference}</style><rect width="456" height="210" rx="12" fill="url(#bg-gradient)"/><g transform="translate(20,20)"><rect width="416" height="170" rx="8" fill="#0d1117"/><rect width="416" height="40" rx="8" fill="#0d1117"/><path d="M0 32h416v8H0z" fill="#0d1117"/><circle cx="16" cy="20" r="6" fill="#ff5f56"/><circle cx="36" cy="20" r="6" fill="#ffbd2e"/><circle cx="56" cy="20" r="6" fill="#27c93f"/><clipPath id="content-clip"><path d="M0 40h416v130H0z" /></clipPath><g clip-path="url(#content-clip)"><g style="animation:f 7.245s steps(1,end) infinite"><g transform="translate(0,0)"><use xlink:href="#1"/><path d="M35.2 56h9.6v22.4H35.2z" fill="#c9d1d9" class="cursor"/></g><g transform="translate(416,0)"><use xlink:href="#2"/><path d="M44.8 56h9.6v22.4H44.8z" fill="#c9d1d9" class="cursor-active"/></g><g transform="translate(832,0)"><use xlink:href="#3"/><path d="M54.4 56h9.6v22.4H54.4z" fill="#c9d1d9" class="cursor-active"/></g><g transform="translate(1248,0)"><use xlink:href="#4"/><path d="M64 56h9.6v22.4H64z" fill="#c9d1d9" class="cursor-active"/></g><g transform="translate(1664,0)"><use xlink:href="#5"/><path d="M73.6 56h9.6v22.4H73.6z" fill="#c9d1d9" class="cursor-active"/></g><g transform="translate(2080,0)"><use xlink:href="#5"/><path d="M83.2 56h9.6v22.4H83.2z" fill="#c9d1d9" class="cursor-active"/></g><g transform="translate(2496,0)"><use xlink:href="#6"/><path d="M92.8 56h9.6v22.4H92.8z" fill="#c9d1d9" class="cursor-active"/></g><g transform="translate(2912,0)"><use xlink:href="#7"/><path d="M102.4 56h9.6v22.4H102.4z" fill="#c9d1d9" class="cursor-active"/></g><g transform="translate(3328,0)"><use xlink:href="#7"/><path d="M112 56h9.6v22.4H112z" fill="#c9d1d9" class="cursor-active"/></g><g transform="translate(3744,0)"><use xlink:href="#8"/><path d="M121.6 56h9.6v22.4H121.6z" fill="#c9d1d9" class="cursor-active"/></g><g transform="translate(4160,0)"><use xlink:href="#9"/><path d="M131.2 56h9.6v22.4H131.2z" fill="#c9d1d9" class="cursor-active"/></g><g transform="translate(4576,0)"><use xlink:href="#9"/><path d="M140.8 56h9.6v22.4H140.8z" fill="#c9d1d9" class="cursor-active"/></g><g transform="translate(4992,0)"><use xlink:href="#10"/><path d="M150.4 56h9.6v22.4H150.4z" fill="#c9d1d9" class="cursor-active"/></g><g transform="translate(5408,0)"><use xlink:href="#11"/><path d="M160 56h9.6v22.4H160z" fill="#c9d1d9" class="cursor-active"/></g><g transform="translate(5824,0)"><use xlink:href="#11"/><path d="M169.6 56h9.6v22.4H169.6z" fill="#c9d1d9" class="cursor-active"/></g><g transform="translate(6240,0)"><use xlink:href="#12"/><path d="M179.2 56h9.6v22.4H179.2z" fill="#c9d1d9" class="cursor-active"/></g><g transform="translate(6656,0)"><use xlink:href="#13"/><path d="M188.8 56h9.6v22.4H188.8z" fill="#c9d1d9" class="cursor-active"/></g><g transform="translate(7072,0)"><use xlink:href="#14"/><path d="M198.4 56h9.6v22.4H198.4z" fill="#c9d1d9" class="cursor-active"/></g><g transform="translate(7488,0)"><use xlink:href="#15"/><path d="M208 56h9.6v22.4H208z" fill="#c9d1d9" class="cursor-active"/></g><g transform="translate(7904,0)"><use xlink:href="#16"/><path d="M217.6 56h9.6v22.4H217.6z" fill="#c9d1d9" class="cursor-active"/></g><g transform="translate(8320,0)"><use xlink:href="#16"/><path d="M227.2 56h9.6v22.4H227.2z" fill="#c9d1d9" class="cursor-active"/></g><g transform="translate(8736,0)"><use xlink:href="#17"/><path d="M236.8 56h9.6v22.4H236.8z" fill="#c9d1d9" class="cursor-active"/></g><g transform="translate(9152,0)"><use xlink:href="#18"/><path d="M246.4 56h9.6v22.4H246.4z" fill="#c9d1d9" class="cursor-active"/></g><g transform="translate(9568,0)"><use xlink:href="#19"/><path d="M256 56h9.6v22.4H256z" fill="#c9d1d9" class="cursor-active"/></g><g transform="translate(9984,0)"><use xlink:href="#20"/><path d="M265.6 56h9.6v22.4H265.6z" fill="#c9d1d9" class="cursor-active"/></g><g transform="translate(10400,0)"><use xlink:href="#21"/><path d="M275.2 56h9.6v22.4H275.2z" fill="#c9d1d9" class="cursor-active"/></g><g transform="translate(10816,0)"><use xlink:href="#22"/><path d="M284.8 56h9.6v22.4H284.8z" fill="#c9d1d9" class="cursor-active"/></g><g transform="translate(11232,0)"><use xlink:href="#22"/><path d="M294.4 56h9.6v22.4H294.4z" fill="#c9d1d9" class="cursor-active"/></g><g transform="translate(11648,0)"><use xlink:href="#23"/><path d="M304 56h9.6v22.4H304z" fill="#c9d1d9" class="cursor-active"/></g><g transform="translate(12064,0)"><use xlink:href="#24"/><path d="M313.6 56h9.6v22.4H313.6z" fill="#c9d1d9" class="cursor-active"/></g><g transform="translate(12480,0)"><use xlink:href="#25"/><path d="M323.2 56h9.6v22.4H323.2z" fill="#c9d1d9" class="cursor-active"/></g><g transform="translate(12896,0)"><use xlink:href="#26"/><path d="M332.8 56h9.6v22.4H332.8z" fill="#c9d1d9" class="cursor-active"/></g><g transform="translate(13312,0)"><use xlink:href="#27"/><path d="M342.4 56h9.6v22.4H342.4z" fill="#c9d1d9" class="cursor-active"/></g><g transform="translate(13728,0)"><use xlink:href="#28"/><path d="M352 56h9.6v22.4H352z" fill="#c9d1d9" class="cursor-active"/></g><g transform="translate(14144,0)"><use xlink:href="#29"/><path d="M361.6 56h9.6v22.4H361.6z" fill="#c9d1d9" class="cursor-active"/></g><g transform="translate(14560,0)"><use xlink:href="#30"/><path d="M371.2 56h9.6v22.4H371.2z" fill="#c9d1d9" class="cursor-active"/></g><g transform="translate(14976,0)"><use xlink:href="#31"/><path d="M380.8 56h9.6v22.4H380.8z" fill="#c9d1d9" class="cursor-active"/></g><g transform="translate(15392,0)"><use xlink:href="#32"/><path d="M390.4 56h9.6v22.4H390.4z" fill="#c9d1d9" class="cursor-active"/></g><g transform="translate(15808,0)"><use xlink:href="#32"/><path d="M380.8 56h9.6v22.4H380.8z" fill="#c9d1d9" class="cursor-active"/></g><g transform="translate(16224,0)"><use xlink:href="#32"/><path d="M371.2 56h9.6v22.4H371.2z" fill="#c9d1d9" class="cursor-active"/></g><g transform="translate(16640,0)"><use xlink:href="#32"/><path d="M361.6 56h9.6v22.4H361.6z" fill="#c9d1d9" class="cursor-active"/></g><g transform="translate(17056,0)"><use xlink:href="#32"/><path d="M352 56h9.6v22.4H352z" fill="#c9d1d9" class="cursor-active"/></g><g transform="translate(17472,0)"><use xlink:href="#32"/><path d="M342.4 56h9.6v22.4H342.4z" fill="#c9d1d9" class="cursor-active"/></g><g transform="translate(17888,0)"><use xlink:href="#32"/><path d="M332.8 56h9.6v22.4H332.8z" fill="#c9d1d9" class="cursor-active"/></g><g transform="translate(18304,0)"><use xlink:href="#32"/><path d="M323.2 56h9.6v22.4H323.2z" fill="#c9d1d9" class="cursor-active"/></g><g transform="translate(18720,0)"><use xlink:href="#32"/><path d="M313.6 56h9.6v22.4H313.6z" fill="#c9d1d9" class="cursor-active"/></g><g transform="translate(19136,0)"><use xlink:href="#32"/><path d="M304 56h9.6v22.4H304z" fill="#c9d1d9" class="cursor-active"/></g><g transform="translate(19552,0)"><use xlink:href="#32"/><path d="M294.4 56h9.6v22.4H294.4z" fill="#c9d1d9" class="cursor-active"/></g><g transform="translate(19968,0)"><use xlink:href="#32"/><path d="M294.4 56h9.6v22.4H294.4z" fill="#c9d1d9" class="cursor"/></g><g transform="translate(20384,0)"><use xlink:href="#33"/><path d="M284.8 56h9.6v22.4H284.8z" fill="#c9d1d9" class="cursor-active"/></g><g transform="translate(20800,0)"><use xlink:href="#34"/><path d="M275.2 56h9.6v22.4H275.2z" fill="#c9d1d9" class="cursor-active"/></g><g transform="translate(21216,0)"><use xlink:href="#35"/><path d="M265.6 56h9.6v22.4H265.6z" fill="#c9d1d9" class="cursor-active"/></g><g transform="translate(21632,0)"><use xlink:href="#36"/><path d="M256 56h9.6v22.4H256z" fill="#c9d1d9" class="cursor-active"/></g><g transform="translate(22048,0)"><use xlink:href="#37"/><path d="M246.4 56h9.6v22.4H246.4z" fill="#c9d1d9" class="cursor-active"/></g><g transform="translate(22464,0)"><use xlink:href="#38"/><path d="M236.8 56h9.6v22.4H236.8z" fill="#c9d1d9" class="cursor-active"/></g><g transform="translate(22880,0)"><use xlink:href="#39"/><path d="M227.2 56h9.6v22.4H227.2z" fill="#c9d1d9" class="cursor-active"/></g><g transform="translate(23296,0)"><use xlink:href="#39"/><path d="M227.2 56h9.6v22.4H227.2z" fill="#c9d1d9" class="cursor"/></g><g transform="translate(23712,0)"><use xlink:href="#40"/><path d="M217.6 56h9.6v22.4H217.6z" fill="#c9d1d9" class="cursor-active"/></g><g transform="translate(24128,0)"><use xlink:href="#41"/><path d="M208 56h9.6v22.4H208z" fill="#c9d1d9" class="cursor-active"/></g><g transform="translate(24544,0)"><use xlink:href="#42"/><path d="M198.4 56h9.6v22.4H198.4z" fill="#c9d1d9" class="cursor-active"/></g><g transform="translate(24960,0)"><use xlink:href="#43"/><path d="M188.8 56h9.6v22.4H188.8z" fill="#c9d1d9" class="cursor-active"/></g><g transform="translate(25376,0)"><use xlink:href="#44"/><path d="M179.2 56h9.6v22.4H179.2z" fill="#c9d1d9" class="cursor-active"/></g><g transform="translate(25792,0)"><use xlink:href="#45"/><path d="M169.6 56h9.6v22.4H169.6z" fill="#c9d1d9" class="cursor-active"/></g><g transform="translate(26208,0)"><use xlink:href="#46"/><path d="M160 56h9.6v22.4H160z" fill="#c9d1d9" class="cursor-active"/></g><g transform="translate(26624,0)"><use xlink:href="#47"/><path d="M150.4 56h9.6v22.4H150.4z" fill="#c9d1d9" class="cursor-active"/></g><g transform="translate(27040,0)"><use xlink:href="#48"/><path d="M140.8 56h9.6v22.4H140.8z" fill="#c9d1d9" class="cursor-active"/></g><g transform="translate(27456,0)"><use xlink:href="#49"/><path d="M131.2 56h9.6v22.4H131.2z" fill="#c9d1d9" class="cursor-active"/></g><g transform="translate(27872,0)"><use xlink:href="#48"/><path d="M140.8 56h9.6v22.4H140.8z" fill="#c9d1d9" class="cursor-active"/></g><g transform="translate(28288,0)"><use xlink:href="#47"/><path d="M150.4 56h9.6v22.4H150.4z" fill="#c9d1d9" class="cursor-active"/></g><g transform="translate(28704,0)"><use xlink:href="#50"/><path d="M160 56h9.6v22.4H160z" fill="#c9d1d9" class="cursor-active"/></g><g transform="translate(29120,0)"><use xlink:href="#50"/></g><g transform="translate(29536,0)"><use xlink:href="#50"/><use xlink:href="#51"/></g><g transform="translate(29952,0)"><use xlink:href="#50"/><use xlink:href="#51"/><use xlink:href="#52"/><path d="M35.2 100.8h9.6v22.4H35.2z" fill="#c9d1d9" class="cursor"/></g></g></g><text class="dim" x="400" y="142.8" text-anchor="end" dominant-baseline="middle" fill="#c9d1d9" font-size="12">by tool3</text></g></svg>