<svg xmlns="http://www.w3.org/2000/svg" xmlns:xlink="http://www.w3.org/1999/xlink" width="330" height="192" viewBox="0 0 330 192"><defs><symbol id="1"><text x="16" y="57.3" class="c">$</text></symbol><symbol id="2"><text x="16" y="57.3" class="c">$</text><text x="25.6" y="57.3" class="d"> e</text></symbol><symbol id="3"><text x="16" y="57.3" class="c">$</text><text x="25.6" y="57.3" class="d"> ec</text></symbol><symbol id="4"><text x="16" y="57.3" class="c">$</text><text x="25.6" y="57.3" class="d"> ech</text></symbol><symbol id="5"><text x="16" y="57.3" class="c">$</text><text x="25.6" y="57.3" class="d"> echo</text></symbol><symbol id="6"><text x="16" y="57.3" class="c">$</text><text x="25.6" y="57.3" class="d"> echo &apos;</text></symbol><symbol id="7"><text x="16" y="57.3" class="c">$</text><text x="25.6" y="57.3" class="d"> echo &apos;L</text></symbol><symbol id="8"><text x="16" y="57.3" class="c">$</text><text x="25.6" y="57.3" class="d"> echo &apos;Le</text></symbol><symbol id="9"><text x="16" y="57.3" class="c">$</text><text x="25.6" y="57.3" class="d"> echo &apos;Let</text></symbol><symbol id="10"><text x="16" y="57.3" class="c">$</text><text x="25.6" y="57.3" class="d"> echo &apos;Lets</text></symbol><symbol id="11"><text x="16" y="57.3" class="c">$</text><text x="25.6" y="57.3" class="d"> echo &apos;Lets n</text></symbol><symbol id="12"><text x="16" y="57.3" class="c">$</text><text x="25.6" y="57.3" class="d"> echo &apos;Lets no</text></symbol><symbol id="13"><text x="16" y="57.3" class="c">$</text><text x="25.6" y="57.3" class="d"> echo &apos;Lets not</text></symbol><symbol id="14"><text x="16" y="57.3" class="c">$</text><text x="25.6" y="57.3" class="d"> echo &apos;Lets not d</text></symbol><symbol id="15"><text x="16" y="57.3" class="c">$</text><text x="25.6" y="57.3" class="d"> echo &apos;Lets not do</text></symbol><symbol id="16"><text x="16" y="57.3" class="c">$</text><text x="25.6" y="57.3" class="d"> echo &apos;Lets not do t</text></symbol><symbol id="17"><text x="16" y="57.3" class="c">$</text><text x="25.6" y="57.3" class="d"> echo &apos;Lets not do th</text></symbol><symbol id="18"><text x="16" y="57.3" class="c">$</text><text x="25.6" y="57.3" class="d"> echo &apos;Lets not do thi</text></symbol><symbol id="19"><text x="16" y="57.3" class="c">$</text><text x="25.6" y="57.3" class="d"> echo &apos;Lets not do this</text></symbol><symbol id="20"><text x="16" y="57.3" class="c">$</text><text x="25.6" y="57.3" class="d"> echo &apos;Lets not do this&apos;</text></symbol><symbol id="21"><text x="16" y="57.3" class="c">$</text><text x="25.6" y="57.3" class="d"> echo &apos;Lets not do this&apos;^C</text></symbol><symbol id="22"><text x="16" y="79.7" class="c">$</text></symbol><symbol id="23"><text x="16" y="79.7" class="c">$</text><text x="25.6" y="79.7" class="d"> e</text></symbol><symbol id="24"><text x="16" y="79.7" class="c">$</text><text x="25.6" y="79.7" class="d"> ec</text></symbol><symbol id="25"><text x="16" y="79.7" class="c">$</text><text x="25.6" y="79.7" class="d"> ech</text></symbol><symbol id="26"><text x="16" y="79.7" class="c">$</text><text x="25.6" y="79.7" class="d"> echo</text></symbol><symbol id="27"><text x="16" y="79.7" class="c">$</text><text x="25.6" y="79.7" class="d"> echo &apos;</text></symbol><symbol id="28"><text x="16" y="79.7" class="c">$</text><text x="25.6" y="79.7" class="d"> echo &apos;L</text></symbol><symbol id="29"><text x="16" y="79.7" class="c">$</text><text x="25.6" y="79.7" class="d"> echo &apos;Le</text></symbol><symbol id="30"><text x="16" y="79.7" class="c">$</text><text x="25.6" y="79.7" class="d"> echo &apos;Let</text></symbol><symbol id="31"><text x="16" y="79.7" class="c">$</text><text x="25.6" y="79.7" class="d"> echo &apos;Lets</text></symbol><symbol id="32"><text x="16" y="79.7" class="c">$</text><text x="25.6" y="79.7" class="d"> echo &apos;Lets s</text></symbol><symbol id="33"><text x="16" y="79.7" class="c">$</text><text x="25.6" y="79.7" class="d"> echo &apos;Lets st</text></symbol><symbol id="34"><text x="16" y="79.7" class="c">$</text><text x="25.6" y="79.7" class="d"> echo &apos;Lets sta</text></symbol><symbol id="35"><text x="16" y="79.7" class="c">$</text><text x="25.6" y="79.7" class="d"> echo &apos;Lets star</text></symbol><symbol id="36"><text x="16" y="79.7" class="c">$</text><text x="25.6" y="79.7" class="d"> echo &apos;Lets start</text></symbol><symbol id="37"><text x="16" y="79.7" class="c">$</text><text x="25.6" y="79.7" class="d"> echo &apos;Lets start o</text></symbol><symbol id="38"><text x="16" y="79.7" class="c">$</text><text x="25.6" y="79.7" class="d"> echo &apos;Lets start ov</text></symbol><symbol id="39"><text x="16" y="79.7" class="c">$</text><text x="25.6" y="79.7" class="d"> echo &apos;Lets start ove</text></symbol><symbol id="40"><text x="16" y="79.7" class="c">$</text><text x="25.6" y="79.7" class="d"> echo &apos;Lets start over</text></symbol><symbol id="41"><text x="16" y="79.7" class="c">$</text><text x="25.6" y="79.7" class="d"> echo &apos;Lets start over&apos;</text></symbol><symbol id="42"><text x="16" y="102.1" class="d">Lets start over</text></symbol><symbol id="43"><text x="16" y="124.5" class="c">$</text></symbol><symbol id="44"><text x="16" y="124.5" class="c">$</text><text x="25.6" y="124.5" class="d"> c</text></symbol><symbol id="45"><text x="16" y="124.5" class="c">$</text><text x="25.6" y="124.5" class="d"> cl</text></symbol><symbol id="46"><text x="16" y="124.5" class="c">$</text><text x="25.6" y="124.5" class="d"> cle</text></symbol><symbol id="47"><text x="16" y="124.5" class="c">$</text><text x="25.6" y="124.5" class="d"> clea</text></symbol><symbol id="48"><text x="16" y="124.5" class="c">$</text><text x="25.6" y="124.5" class="d"> clear</text></symbol><symbol id="49"><text x="16" y="57.3" class="c">$</text><text x="25.6" y="57.3" class="d"> echo &quot;</text></symbol><symbol id="50"><text x="16" y="57.3" class="c">$</text><text x="25.6" y="57.3" class="d"> echo &quot;N</text></symbol><symbol id="51"><text x="16" y="57.3" class="c">$</text><text x="25.6" y="57.3" class="d"> echo &quot;No</text></symbol><symbol id="52"><text x="16" y="57.3" class="c">$</text><text x="25.6" y="57.3" class="d"> echo &quot;No p</text></symbol><symbol id="53"><text x="16" y="57.3" class="c">$</text><text x="25.6" y="57.3" class="d"> echo &quot;No pl</text></symbol><symbol id="54"><text x="16" y="57.3" class="c">$</text><text x="25.6" y="57.3" class="d"> echo &quot;No pla</text></symbol><symbol id="55"><text x="16" y="57.3" class="c">$</text><text x="25.6" y="57.3" class="d"> echo &quot;No plac</text></symbol><symbol id="56"><text x="16" y="57.3" class="c">$</text><text x="25.6" y="57.3" class="d"> echo &quot;No place</text></symbol><symbol id="57"><text x="16" y="57.3" class="c">$</text><text x="25.6" y="57.3" class="d"> echo &quot;No place l</text></symbol><symbol id="58"><text x="16" y="57.3" class="c">$</text><text x="25.6" y="57.3" class="d"> echo &quot;No place li</text></symbol><symbol id="59"><text x="16" y="57.3" class="c">$</text><text x="25.6" y="57.3" class="d"> echo &quot;No place lik</text></symbol><symbol id="60"><text x="16" y="57.3" class="c">$</text><text x="25.6" y="57.3" class="d"> echo &quot;No place like</text></symbol><symbol id="61"><text x="16" y="57.3" class="c">$</text><text x="25.6" y="57.3" class="d"> echo &quot;No place like $</text></symbol><symbol id="62"><text x="16" y="57.3" class="c">$</text><text x="25.6" y="57.3" class="d"> echo &quot;No place like ${</text></symbol><symbol id="63"><text x="16" y="57.3" class="c">$</text><text x="25.6" y="57.3" class="d"> echo &quot;No place like ${H</text></symbol><symbol id="64"><text x="16" y="57.3" class="c">$</text><text x="25.6" y="57.3" class="d"> echo &quot;No place like ${HO</text></symbol><symbol id="65"><text x="16" y="57.3" class="c">$</text><text x="25.6" y="57.3" class="d"> echo &quot;No place like ${HOM</text></symbol><symbol id="66"><text x="16" y="57.3" class="c">$</text><text x="25.6" y="57.3" class="d"> echo &quot;No place like ${HOME</text></symbol><symbol id="67"><text x="16" y="57.3" class="c">$</text><text x="25.6" y="57.3" class="d"> echo &quot;No place like ${HOME}</text></symbol><symbol id="68"><text x="16" y="57.3" class="c">$</text><text x="25.6" y="57.3" class="d"> echo &quot;No place like ${HOME}&quot;</text></symbol><symbol id="69"><text x="16" y="79.7" class="d">No place like /Users/talhayut</text></symbol><symbol id="70"><text x="16" y="102.1" class="c">$</text></symbol></defs><style>@keyframes f{0.11%{transform:translateX(0px)}0.80%{transform:translateX(-330px)}1.48%{transform:translateX(-660px)}2.14%{transform:translateX(-990px)}2.83%{transform:translateX(-1320px)}3.49%{transform:translateX(-1650px)}4.18%{transform:translateX(-1980px)}4.88%{transform:translateX(-2310px)}5.58%{transform:translateX(-2640px)}6.23%{transform:translateX(-2970px)}6.92%{transform:translateX(-3300px)}7.61%{transform:translateX(-3630px)}8.30%{transform:translateX(-3960px)}9.01%{transform:translateX(-4290px)}9.70%{transform:translateX(-4620px)}10.35%{transform:translateX(-4950px)}11.02%{transform:translateX(-5280px)}11.70%{transform:translateX(-5610px)}12.36%{transform:translateX(-5940px)}13.05%{transform:translateX(-6270px)}13.73%{transform:translateX(-6600px)}14.45%{transform:translateX(-6930px)}15.13%{transform:translateX(-7260px)}15.80%{transform:translateX(-7590px)}15.81%{transform:translateX(-7920px)}20.59%{transform:translateX(-8250px)}21.30%{transform:translateX(-8580px)}21.97%{transform:translateX(-8910px)}22.63%{transform:translateX(-9240px)}23.33%{transform:translateX(-9570px)}24.03%{transform:translateX(-9900px)}24.68%{transform:translateX(-10230px)}25.36%{transform:translateX(-10560px)}26.07%{transform:translateX(-10890px)}26.71%{transform:translateX(-11220px)}27.36%{transform:translateX(-11550px)}28.05%{transform:translateX(-11880px)}28.72%{transform:translateX(-12210px)}29.43%{transform:translateX(-12540px)}30.13%{transform:translateX(-12870px)}30.78%{transform:translateX(-13200px)}31.44%{transform:translateX(-13530px)}32.15%{transform:translateX(-13860px)}32.77%{transform:translateX(-14190px)}33.45%{transform:translateX(-14520px)}34.13%{transform:translateX(-14850px)}34.81%{transform:translateX(-15180px)}35.50%{transform:translateX(-15510px)}35.52%{transform:translateX(-15840px)}39.65%{transform:translateX(-16170px)}39.73%{transform:translateX(-16500px)}41.29%{transform:translateX(-16830px)}41.92%{transform:translateX(-17160px)}42.59%{transform:translateX(-17490px)}43.30%{transform:translateX(-17820px)}43.98%{transform:translateX(-18150px)}44.67%{transform:translateX(-18480px)}44.68%{transform:translateX(-18810px)}48.72%{transform:translateX(-19140px)}49.41%{transform:translateX(-19470px)}50.06%{transform:translateX(-19800px)}50.75%{transform:translateX(-20130px)}51.44%{transform:translateX(-20460px)}52.12%{transform:translateX(-20790px)}52.80%{transform:translateX(-21120px)}53.45%{transform:translateX(-21450px)}54.15%{transform:translateX(-21780px)}54.81%{transform:translateX(-22110px)}55.50%{transform:translateX(-22440px)}56.19%{transform:translateX(-22770px)}56.89%{transform:translateX(-23100px)}57.55%{transform:translateX(-23430px)}58.24%{transform:translateX(-23760px)}58.91%{transform:translateX(-24090px)}59.59%{transform:translateX(-24420px)}60.25%{transform:translateX(-24750px)}60.93%{transform:translateX(-25080px)}61.60%{transform:translateX(-25410px)}62.28%{transform:translateX(-25740px)}62.95%{transform:translateX(-26070px)}63.66%{transform:translateX(-26400px)}64.34%{transform:translateX(-26730px)}65.03%{transform:translateX(-27060px)}65.70%{transform:translateX(-27390px)}66.39%{transform:translateX(-27720px)}67.08%{transform:translateX(-28050px)}67.77%{transform:translateX(-28380px)}67.78%{transform:translateX(-28710px)}71.90%{transform:translateX(-29040px)}71.92%{transform:translateX(-29370px)}73.37%{transform:translateX(-29700px)}}.a{fill:#0d1117}.c{fill:#3fb950;stroke:#3fb950}.d{fill:#c9d1d9;stroke:#c9d1d9}path[fill="none"]{fill:none}path[shape-rendering="crispEdges"]{stroke:none}text{font-family:'SF Mono',Monaco,Consolas,Menlo,monospace;font-size:16px;dominant-baseline:text-before-edge;white-space:pre;}text[class]{stroke:none}.bold{font-weight:700}.italic{font-style:italic}.uline{text-decoration:underline}.strike{text-decoration:line-through}.dim{opacity:0.5}@keyframes blink{0%,50%{opacity:1}50.01%,100%{opacity:0}}.cursor{animation:blink 1s step-end infinite;mix-blend-mode:difference}.cursor-active{opacity:1;mix-blend-mode:difference}</style><g transform="translate(0,0)"><rect width="330" height="192" rx="8" fill="#0d1117"/><rect width="330" height="40" rx="8" fill="#0d1117"/><path d="M0 32h330v8H0z" fill="#0d1117"/><circle cx="16" cy="20" r="6" fill="#ff5f56"/><circle cx="36" cy="20" r="6" fill="#ffbd2e"/><circle cx="56" cy="20" r="6" fill="#27c93f"/><clipPath id="content-clip"><path d="M0 40h330v152H0z" /></clipPath><g clip-path="url(#content-clip)"><g style="animation:f 7.515s steps(1,end) infinite"><g transform="translate(0,0)"><use xlink:href="#1"/><path d="M35.2 56h9.6v22.4H35.2z" fill="#c9d1d9" class="cursor"/></g><g transform="translate(330,0)"><use xlink:href="#2"/><path d="M44.8 56h9.6v22.4H44.8z" fill="#c9d1d9" class="cursor-active"/></g><g transform="translate(660,0)"><use xlink:href="#3"/><path d="M54.4 56h9.6v22.4H54.4z" fill="#c9d1d9" class="cursor-active"/></g><g transform="translate(990,0)"><use xlink:href="#4"/><path d="M64 56h9.6v22.4H64z" fill="#c9d1d9" class="cursor-active"/></g><g transform="translate(1320,0)"><use xlink:href="#5"/><path d="M73.6 56h9.6v22.4H73.6z" fill="#c9d1d9" class="cursor-active"/></g><g transform="translate(1650,0)"><use xlink:href="#5"/><path d="M83.2 56h9.6v22.4H83.2z" fill="#c9d1d9" class="cursor-active"/></g><g transform="translate(1980,0)"><use xlink:href="#6"/><path d="M92.8 56h9.6v22.4H92.8z" fill="#c9d1d9" class="cursor-active"/></g><g transform="translate(2310,0)"><use xlink:href="#7"/><path d="M102.4 56h9.6v22.4H102.4z" fill="#c9d1d9" class="cursor-active"/></g><g transform="translate(2640,0)"><use xlink:href="#8"/><path d="M112 56h9.6v22.4H112z" fill="#c9d1d9" class="cursor-active"/></g><g transform="translate(2970,0)"><use xlink:href="#9"/><path d="M121.6 56h9.6v22.4H121.6z" fill="#c9d1d9" class="cursor-active"/></g><g transform="translate(3300,0)"><use xlink:href="#10"/><path d="M131.2 56h9.6v22.4H131.2z" fill="#c9d1d9" class="cursor-active"/></g><g transform="translate(3630,0)"><use xlink:href="#10"/><path d="M140.8 56h9.6v22.4H140.8z" fill="#c9d1d9" class="cursor-active"/></g><g transform="translate(3960,0)"><use xlink:href="#11"/><path d="M150.4 56h9.6v22.4H150.4z" fill="#c9d1d9" class="cursor-active"/></g><g transform="translate(4290,0)"><use xlink:href="#12"/><path d="M160 56h9.6v22.4H160z" fill="#c9d1d9" class="cursor-active"/></g><g transform="translate(4620,0)"><use xlink:href="#13"/><path d="M169.6 56h9.6v22.4H169.6z" fill="#c9d1d9" class="cursor-active"/></g><g transform="translate(4950,0)"><use xlink:href="#13"/><path d="M179.2 56h9.6v22.4H179.2z" fill="#c9d1d9" class="cursor-active"/></g><g transform="translate(5280,0)"><use xlink:href="#14"/><path d="M188.8 56h9.6v22.4H188.8z" fill="#c9d1d9" class="cursor-active"/></g><g transform="translate(5610,0)"><use xlink:href="#15"/><path d="M198.4 56h9.6v22.4H198.4z" fill="#c9d1d9" class="cursor-active"/></g><g transform="translate(5940,0)"><use xlink:href="#15"/><path d="M208 56h9.6v22.4H208z" fill="#c9d1d9" class="cursor-active"/></g><g transform="translate(6270,0)"><use xlink:href="#16"/><path d="M217.6 56h9.6v22.4H217.6z" fill="#c9d1d9" class="cursor-active"/></g><g transform="translate(6600,0)"><use xlink:href="#17"/><path d="M227.2 56h9.6v22.4H227.2z" fill="#c9d1d9" class="cursor-active"/></g><g transform="translate(6930,0)"><use xlink:href="#18"/><path d="M236.8 56h9.6v22.4H236.8z" fill="#c9d1d9" class="cursor-active"/></g><g transform="translate(7260,0)"><use xlink:href="#19"/><path d="M246.4 56h9.6v22.4H246.4z" fill="#c9d1d9" class="cursor-active"/></g><g transform="translate(7590,0)"><use xlink:href="#20"/><path d="M256 56h9.6v22.4H256z" fill="#c9d1d9" class="cursor-active"/></g><g transform="translate(7920,0)"><use xlink:href="#20"/><path d="M256 56h9.6v22.4H256z" fill="#c9d1d9" class="cursor"/></g><g transform="translate(8250,0)"><use xlink:href="#21"/><use xlink:href="#22"/><path d="M35.2 78.4h9.6v22.4H35.2z" fill="#c9d1d9" class="cursor"/></g><g transform="translate(8580,0)"><use xlink:href="#21"/><use xlink:href="#23"/><path d="M44.8 78.4h9.6v22.4H44.8z" fill="#c9d1d9" class="cursor-active"/></g><g transform="translate(8910,0)"><use xlink:href="#21"/><use xlink:href="#24"/><path d="M54.4 78.4h9.6v22.4H54.4z" fill="#c9d1d9" class="cursor-active"/></g><g transform="translate(9240,0)"><use xlink:href="#21"/><use xlink:href="#25"/><path d="M64 78.4h9.6v22.4H64z" fill="#c9d1d9" class="cursor-active"/></g><g transform="translate(9570,0)"><use xlink:href="#21"/><use xlink:href="#26"/><path d="M73.6 78.4h9.6v22.4H73.6z" fill="#c9d1d9" class="cursor-active"/></g><g transform="translate(9900,0)"><use xlink:href="#21"/><use xlink:href="#26"/><path d="M83.2 78.4h9.6v22.4H83.2z" fill="#c9d1d9" class="cursor-active"/></g><g transform="translate(10230,0)"><use xlink:href="#21"/><use xlink:href="#27"/><path d="M92.8 78.4h9.6v22.4H92.8z" fill="#c9d1d9" class="cursor-active"/></g><g transform="translate(10560,0)"><use xlink:href="#21"/><use xlink:href="#28"/><path d="M102.4 78.4h9.6v22.4H102.4z" fill="#c9d1d9" class="cursor-active"/></g><g transform="translate(10890,0)"><use xlink:href="#21"/><use xlink:href="#29"/><path d="M112 78.4h9.6v22.4H112z" fill="#c9d1d9" class="cursor-active"/></g><g transform="translate(11220,0)"><use xlink:href="#21"/><use xlink:href="#30"/><path d="M121.6 78.4h9.6v22.4H121.6z" fill="#c9d1d9" class="cursor-active"/></g><g transform="translate(11550,0)"><use xlink:href="#21"/><use xlink:href="#31"/><path d="M131.2 78.4h9.6v22.4H131.2z" fill="#c9d1d9" class="cursor-active"/></g><g transform="translate(11880,0)"><use xlink:href="#21"/><use xlink:href="#31"/><path d="M140.8 78.4h9.6v22.4H140.8z" fill="#c9d1d9" class="cursor-active"/></g><g transform="translate(12210,0)"><use xlink:href="#21"/><use xlink:href="#32"/><path d="M150.4 78.4h9.6v22.4H150.4z" fill="#c9d1d9" class="cursor-active"/></g><g transform="translate(12540,0)"><use xlink:href="#21"/><use xlink:href="#33"/><path d="M160 78.4h9.6v22.4H160z" fill="#c9d1d9" class="cursor-active"/></g><g transform="translate(12870,0)"><use xlink:href="#21"/><use xlink:href="#34"/><path d="M169.6 78.4h9.6v22.4H169.6z" fill="#c9d1d9" class="cursor-active"/></g><g transform="translate(13200,0)"><use xlink:href="#21"/><use xlink:href="#35"/><path d="M179.2 78.4h9.6v22.4H179.2z" fill="#c9d1d9" class="cursor-active"/></g><g transform="translate(13530,0)"><use xlink:href="#21"/><use xlink:href="#36"/><path d="M188.8 78.4h9.6v22.4H188.8z" fill="#c9d1d9" class="cursor-active"/></g><g transform="translate(13860,0)"><use xlink:href="#21"/><use xlink:href="#36"/><path d="M198.4 78.4h9.6v22.4H198.4z" fill="#c9d1d9" class="cursor-active"/></g><g transform="translate(14190,0)"><use xlink:href="#21"/><use xlink:href="#37"/><path d="M208 78.4h9.6v22.4H208z" fill="#c9d1d9" class="cursor-active"/></g><g transform="translate(14520,0)"><use xlink:href="#21"/><use xlink:href="#38"/><path d="M217.6 78.4h9.6v22.4H217.6z" fill="#c9d1d9" class="cursor-active"/></g><g transform="translate(14850,0)"><use xlink:href="#21"/><use xlink:href="#39"/><path d="M227.2 78.4h9.6v22.4H227.2z" fill="#c9d1d9" class="cursor-active"/></g><g transform="translate(15180,0)"><use xlink:href="#21"/><use xlink:href="#40"/><path d="M236.8 78.4h9.6v22.4H236.8z" fill="#c9d1d9" class="cursor-active"/></g><g transform="translate(15510,0)"><use xlink:href="#21"/><use xlink:href="#41"/><path d="M246.4 78.4h9.6v22.4H246.4z" fill="#c9d1d9" class="cursor-active"/></g><g transform="translate(15840,0)"><use xlink:href="#21"/><use xlink:href="#41"/><path d="M246.4 78.4h9.6v22.4H246.4z" fill="#c9d1d9" class="cursor"/></g><g transform="translate(16170,0)"><use xlink:href="#21"/><use xlink:href="#41"/></g><g transform="translate(16500,0)"><use xlink:href="#21"/><use xlink:href="#41"/><use xlink:href="#42"/></g><g transform="translate(16830,0)"><use xlink:href="#21"/><use xlink:href="#41"/><use xlink:href="#42"/><use xlink:href="#43"/><path d="M35.2 123.2h9.6v22.4H35.2z" fill="#c9d1d9" class="cursor"/></g><g transform="translate(17160,0)"><use xlink:href="#21"/><use xlink:href="#41"/><use xlink:href="#42"/><use xlink:href="#44"/><path d="M44.8 123.2h9.6v22.4H44.8z" fill="#c9d1d9" class="cursor-active"/></g><g transform="translate(17490,0)"><use xlink:href="#21"/><use xlink:href="#41"/><use xlink:href="#42"/><use xlink:href="#45"/><path d="M54.4 123.2h9.6v22.4H54.4z" fill="#c9d1d9" class="cursor-active"/></g><g transform="translate(17820,0)"><use xlink:href="#21"/><use xlink:href="#41"/><use xlink:href="#42"/><use xlink:href="#46"/><path d="M64 123.2h9.6v22.4H64z" fill="#c9d1d9" class="cursor-active"/></g><g transform="translate(18150,0)"><use xlink:href="#21"/><use xlink:href="#41"/><use xlink:href="#42"/><use xlink:href="#47"/><path d="M73.6 123.2h9.6v22.4H73.6z" fill="#c9d1d9" class="cursor-active"/></g><g transform="translate(18480,0)"><use xlink:href="#21"/><use xlink:href="#41"/><use xlink:href="#42"/><use xlink:href="#48"/><path d="M83.2 123.2h9.6v22.4H83.2z" fill="#c9d1d9" class="cursor-active"/></g><g transform="translate(18810,0)"><use xlink:href="#21"/><use xlink:href="#41"/><use xlink:href="#42"/><use xlink:href="#48"/><path d="M83.2 123.2h9.6v22.4H83.2z" fill="#c9d1d9" class="cursor"/></g><g transform="translate(19140,0)"><use xlink:href="#1"/><path d="M35.2 56h9.6v22.4H35.2z" fill="#c9d1d9" class="cursor"/></g><g transform="translate(19470,0)"><use xlink:href="#2"/><path d="M44.8 56h9.6v22.4H44.8z" fill="#c9d1d9" class="cursor-active"/></g><g transform="translate(19800,0)"><use xlink:href="#3"/><path d="M54.4 56h9.6v22.4H54.4z" fill="#c9d1d9" class="cursor-active"/></g><g transform="translate(20130,0)"><use xlink:href="#4"/><path d="M64 56h9.6v22.4H64z" fill="#c9d1d9" class="cursor-active"/></g><g transform="translate(20460,0)"><use xlink:href="#5"/><path d="M73.6 56h9.6v22.4H73.6z" fill="#c9d1d9" class="cursor-active"/></g><g transform="translate(20790,0)"><use xlink:href="#5"/><path d="M83.2 56h9.6v22.4H83.2z" fill="#c9d1d9" class="cursor-active"/></g><g transform="translate(21120,0)"><use xlink:href="#49"/><path d="M92.8 56h9.6v22.4H92.8z" fill="#c9d1d9" class="cursor-active"/></g><g transform="translate(21450,0)"><use xlink:href="#50"/><path d="M102.4 56h9.6v22.4H102.4z" fill="#c9d1d9" class="cursor-active"/></g><g transform="translate(21780,0)"><use xlink:href="#51"/><path d="M112 56h9.6v22.4H112z" fill="#c9d1d9" class="cursor-active"/></g><g transform="translate(22110,0)"><use xlink:href="#51"/><path d="M121.6 56h9.6v22.4H121.6z" fill="#c9d1d9" class="cursor-active"/></g><g transform="translate(22440,0)"><use xlink:href="#52"/><path d="M131.2 56h9.6v22.4H131.2z" fill="#c9d1d9" class="cursor-active"/></g><g transform="translate(22770,0)"><use xlink:href="#53"/><path d="M140.8 56h9.6v22.4H140.8z" fill="#c9d1d9" class="cursor-active"/></g><g transform="translate(23100,0)"><use xlink:href="#54"/><path d="M150.4 56h9.6v22.4H150.4z" fill="#c9d1d9" class="cursor-active"/></g><g transform="translate(23430,0)"><use xlink:href="#55"/><path d="M160 56h9.6v22.4H160z" fill="#c9d1d9" class="cursor-active"/></g><g transform="translate(23760,0)"><use xlink:href="#56"/><path d="M169.6 56h9.6v22.4H169.6z" fill="#c9d1d9" class="cursor-active"/></g><g transform="translate(24090,0)"><use xlink:href="#56"/><path d="M179.2 56h9.6v22.4H179.2z" fill="#c9d1d9" class="cursor-active"/></g><g transform="translate(24420,0)"><use xlink:href="#57"/><path d="M188.8 56h9.6v22.4H188.8z" fill="#c9d1d9" class="cursor-active"/></g><g transform="translate(24750,0)"><use xlink:href="#58"/><path d="M198.4 56h9.6v22.4H198.4z" fill="#c9d1d9" class="cursor-active"/></g><g transform="translate(25080,0)"><use xlink:href="#59"/><path d="M208 56h9.6v22.4H208z" fill="#c9d1d9" class="cursor-active"/></g><g transform="translate(25410,0)"><use xlink:href="#60"/><path d="M217.6 56h9.6v22.4H217.6z" fill="#c9d1d9" class="cursor-active"/></g><g transform="translate(25740,0)"><use xlink:href="#60"/><path d="M227.2 56h9.6v22.4H227.2z" fill="#c9d1d9" class="cursor-active"/></g><g transform="translate(26070,0)"><use xlink:href="#61"/><path d="M236.8 56h9.6v22.4H236.8z" fill="#c9d1d9" class="cursor-active"/></g><g transform="translate(26400,0)"><use xlink:href="#62"/><path d="M246.4 56h9.6v22.4H246.4z" fill="#c9d1d9" class="cursor-active"/></g><g transform="translate(26730,0)"><use xlink:href="#63"/><path d="M256 56h9.6v22.4H256z" fill="#c9d1d9" class="cursor-active"/></g><g transform="translate(27060,0)"><use xlink:href="#64"/><path d="M265.6 56h9.6v22.4H265.6z" fill="#c9d1d9" class="cursor-active"/></g><g transform="translate(27390,0)"><use xlink:href="#65"/><path d="M275.2 56h9.6v22.4H275.2z" fill="#c9d1d9" class="cursor-active"/></g><g transform="translate(27720,0)"><use xlink:href="#66"/><path d="M284.8 56h9.6v22.4H284.8z" fill="#c9d1d9" class="cursor-active"/></g><g transform="translate(28050,0)"><use xlink:href="#67"/><path d="M294.4 56h9.6v22.4H294.4z" fill="#c9d1d9" class="cursor-active"/></g><g transform="translate(28380,0)"><use xlink:href="#68"/><path d="M304 56h9.6v22.4H304z" fill="#c9d1d9" class="cursor-active"/></g><g transform="translate(28710,0)"><use xlink:href="#68"/><path d="M304 56h9.6v22.4H304z" fill="#c9d1d9" class="cursor"/></g><g transform="translate(29040,0)"><use xlink:href="#68"/></g><g transform="translate(29370,0)"><use xlink:href="#68"/><use xlink:href="#69"/></g><g transform="translate(29700,0)"><use xlink:href="#68"/><use xlink:href="#69"/><use xlink:href="#70"/><path d="M35.2 100.8h9.6v22.4H35.2z" fill="#c9d1d9" class="cursor"/></g></g></g><text class="dim" x="314" y="164.8" text-anchor="end" dominant-baseline="middle" fill="#c9d1d9" font-size="12">talhayut</text></g></svg>