<svg xmlns="http://www.w3.org/2000/svg" xmlns:xlink="http://www.w3.org/1999/xlink" width="200" height="108" viewBox="0 0 200 108"><defs><clipPath id="wm-clip"><rect width="100" height="15" rx="3" fill="#fff"/>
      </clipPath><symbol id="1"><text x="16" y="17" class="c">❯</text></symbol><symbol id="2"><text x="16" y="17" class="c">❯ </text><text x="30.4" y="17" class="d">e</text></symbol><symbol id="3"><text x="16" y="17" class="c">❯ </text><text x="30.4" y="17" class="d">ec</text></symbol><symbol id="4"><text x="16" y="17" class="c">❯ </text><text x="30.4" y="17" class="d">ech</text></symbol><symbol id="5"><text x="16" y="17" class="c">❯ </text><text x="30.4" y="17" class="d">echo</text></symbol><symbol id="6"><text x="16" y="17" class="c">❯ </text><text x="30.4" y="17" class="d">echo &apos;</text></symbol><symbol id="7"><text x="16" y="17" class="c">❯ </text><text x="30.4" y="17" class="d">echo &apos;W</text></symbol><symbol id="8"><text x="16" y="17" class="c">❯ </text><text x="30.4" y="17" class="d">echo &apos;WA</text></symbol><symbol id="9"><text x="16" y="17" class="c">❯ </text><text x="30.4" y="17" class="d">echo &apos;WAT</text></symbol><symbol id="10"><text x="16" y="17" class="c">❯ </text><text x="30.4" y="17" class="d">echo &apos;WATE</text></symbol><symbol id="11"><text x="16" y="17" class="c">❯ </text><text x="30.4" y="17" class="d">echo &apos;WATER</text></symbol><symbol id="12"><text x="16" y="17" class="c">❯ </text><text x="30.4" y="17" class="d">echo &apos;WATERM</text></symbol><symbol id="13"><text x="16" y="17" class="c">❯ </text><text x="30.4" y="17" class="d">echo &apos;WATERMA</text></symbol><symbol id="14"><text x="16" y="17" class="c">❯ </text><text x="30.4" y="17" class="d">echo &apos;WATERMAR</text></symbol><symbol id="15"><text x="16" y="17" class="c">❯ </text><text x="30.4" y="17" class="d">echo &apos;WATERMARK</text></symbol><symbol id="16"><text x="16" y="17" class="c">❯ </text><text x="30.4" y="17" class="d">echo &apos;WATERMARK&apos;</text></symbol><symbol id="17"><text x="16" y="33.8" class="d">WATERMARK</text></symbol><symbol id="18"><text x="16" y="50.6" class="c">❯</text></symbol></defs><style>@keyframes f{0.22%{transform:translateX(0px)}0.78%{transform:translateX(-200px)}1.34%{transform:translateX(-400px)}1.88%{transform:translateX(-600px)}2.44%{transform:translateX(-800px)}2.95%{transform:translateX(-1000px)}3.48%{transform:translateX(-1200px)}4.02%{transform:translateX(-1400px)}4.56%{transform:translateX(-1600px)}5.07%{transform:translateX(-1800px)}5.60%{transform:translateX(-2000px)}6.14%{transform:translateX(-2200px)}6.68%{transform:translateX(-2400px)}7.19%{transform:translateX(-2600px)}7.72%{transform:translateX(-2800px)}8.26%{transform:translateX(-3000px)}8.75%{transform:translateX(-3200px)}8.85%{transform:translateX(-3400px)}23.76%{transform:translateX(-3600px)}24.03%{transform:translateX(-3800px)}26.75%{transform:translateX(-4000px)}}.a{fill:#1e1e1e}.c{fill:#d2a8ff;stroke:#d2a8ff}.d{fill:#c9d1d9;stroke:#c9d1d9}path[fill="none"]{fill:none}path[shape-rendering="crispEdges"]{stroke:none}text{font-family:'SF Mono',Monaco,Consolas,Menlo,monospace;font-size:12px;dominant-baseline:text-before-edge;white-space:pre}text[class]{stroke:none}.bold{font-weight:700}.italic{font-style:italic}.uline{text-decoration:underline}.strike{text-decoration:line-through}.dim{opacity:0.5}@keyframes blink{0%,50%{opacity:1}50.01%,100%{opacity:0}}.cursor{animation:blink 1s step-end infinite;mix-blend-mode:difference}.cursor-active{opacity:1;mix-blend-mode:difference}</style><g transform="translate(0,0)"><rect width="200" height="108" rx="8" fill="#1e1e1e"/><clipPath id="content-clip"><path d="M0 0h200v108H0z" /></clipPath><g clip-path="url(#content-clip)"><g style="animation:f 4.104s steps(1,end) infinite"><g transform="translate(0,0)"><use xlink:href="#1"/><path d="M30.4 16h7.2v16.8H30.4z" fill="#fff" class="cursor"/></g><g transform="translate(200,0)"><use xlink:href="#2"/><path d="M37.6 16h7.2v16.8H37.6z" fill="#fff" class="cursor-active"/></g><g transform="translate(400,0)"><use xlink:href="#3"/><path d="M44.8 16h7.2v16.8H44.8z" fill="#fff" class="cursor-active"/></g><g transform="translate(600,0)"><use xlink:href="#4"/><path d="M52 16h7.2v16.8H52z" fill="#fff" class="cursor-active"/></g><g transform="translate(800,0)"><use xlink:href="#5"/><path d="M59.2 16h7.2v16.8H59.2z" fill="#fff" class="cursor-active"/></g><g transform="translate(1000,0)"><use xlink:href="#5"/><path d="M66.4 16h7.2v16.8H66.4z" fill="#fff" class="cursor-active"/></g><g transform="translate(1200,0)"><use xlink:href="#6"/><path d="M73.6 16h7.2v16.8H73.6z" fill="#fff" class="cursor-active"/></g><g transform="translate(1400,0)"><use xlink:href="#7"/><path d="M80.8 16h7.2v16.8H80.8z" fill="#fff" class="cursor-active"/></g><g transform="translate(1600,0)"><use xlink:href="#8"/><path d="M88 16h7.2v16.8H88z" fill="#fff" class="cursor-active"/></g><g transform="translate(1800,0)"><use xlink:href="#9"/><path d="M95.2 16h7.2v16.8H95.2z" fill="#fff" class="cursor-active"/></g><g transform="translate(2000,0)"><use xlink:href="#10"/><path d="M102.4 16h7.2v16.8H102.4z" fill="#fff" class="cursor-active"/></g><g transform="translate(2200,0)"><use xlink:href="#11"/><path d="M109.6 16h7.2v16.8H109.6z" fill="#fff" class="cursor-active"/></g><g transform="translate(2400,0)"><use xlink:href="#12"/><path d="M116.8 16h7.2v16.8H116.8z" fill="#fff" class="cursor-active"/></g><g transform="translate(2600,0)"><use xlink:href="#13"/><path d="M124 16h7.2v16.8H124z" fill="#fff" class="cursor-active"/></g><g transform="translate(2800,0)"><use xlink:href="#14"/><path d="M131.2 16h7.2v16.8H131.2z" fill="#fff" class="cursor-active"/></g><g transform="translate(3000,0)"><use xlink:href="#15"/><path d="M138.4 16h7.2v16.8H138.4z" fill="#fff" class="cursor-active"/></g><g transform="translate(3200,0)"><use xlink:href="#16"/><path d="M145.6 16h7.2v16.8H145.6z" fill="#fff" class="cursor-active"/></g><g transform="translate(3400,0)"><use xlink:href="#16"/><path d="M145.6 16h7.2v16.8H145.6z" fill="#fff" class="cursor"/></g><g transform="translate(3600,0)"><use xlink:href="#16"/></g><g transform="translate(3800,0)"><use xlink:href="#16"/><use xlink:href="#17"/></g><g transform="translate(4000,0)"><use xlink:href="#16"/><use xlink:href="#17"/><use xlink:href="#18"/><path d="M30.4 49.6h7.2v16.8H30.4z" fill="#fff" class="cursor"/></g></g></g><g transform="translate(184, 83.6)" font-family="'SF Mono',Monaco,Consolas,Menlo,monospace" font-size="9" fill="#c9d1d9"><a href="https://github.com/tool3/shellfie"><g transform="translate(-90, -5)"><g clip-path="url(#wm-clip)"><path d="M0 0h60v15H0z" fill="#555"/><path d="M60 0h40v15H60z" fill="#34D399"/>
    </g><g fill="#fff" text-anchor="middle" font-family="Verdana,Geneva,DejaVu Sans,sans-serif" font-size="110"><text x="385" y="130" transform="scale(.08)" fill="#fff" textLength="650">powered by</text><text x="985" y="130" transform="scale(.08)" fill="#333" textLength="390">shellfie</text>
    </g>
  </g>
</a>
</g></g></svg>