<svg xmlns="http://www.w3.org/2000/svg" xmlns:xlink="http://www.w3.org/1999/xlink" width="427" height="178" viewBox="0 0 427 178"><defs><symbol id="1"><text x="16" y="57.1" class="c">❯</text></symbol><symbol id="2"><text x="16" y="57.1" class="c">❯ </text><text x="32.8" y="57.1" class="d">e</text></symbol><symbol id="3"><text x="16" y="57.1" class="c">❯ </text><text x="32.8" y="57.1" class="d">ec</text></symbol><symbol id="4"><text x="16" y="57.1" class="c">❯ </text><text x="32.8" y="57.1" class="d">ech</text></symbol><symbol id="5"><text x="16" y="57.1" class="c">❯ </text><text x="32.8" y="57.1" class="d">echo</text></symbol><symbol id="6"><text x="16" y="57.1" class="c">❯ </text><text x="32.8" y="57.1" class="d">echo &apos;</text></symbol><symbol id="7"><text x="16" y="57.1" class="c">❯ </text><text x="32.8" y="57.1" class="d">echo &apos;W</text></symbol><symbol id="8"><text x="16" y="57.1" class="c">❯ </text><text x="32.8" y="57.1" class="d">echo &apos;We</text></symbol><symbol id="9"><text x="16" y="57.1" class="c">❯ </text><text x="32.8" y="57.1" class="d">echo &apos;Wel</text></symbol><symbol id="10"><text x="16" y="57.1" class="c">❯ </text><text x="32.8" y="57.1" class="d">echo &apos;Welc</text></symbol><symbol id="11"><text x="16" y="57.1" class="c">❯ </text><text x="32.8" y="57.1" class="d">echo &apos;Welco</text></symbol><symbol id="12"><text x="16" y="57.1" class="c">❯ </text><text x="32.8" y="57.1" class="d">echo &apos;Welcom</text></symbol><symbol id="13"><text x="16" y="57.1" class="c">❯ </text><text x="32.8" y="57.1" class="d">echo &apos;Welcome</text></symbol><symbol id="14"><text x="16" y="57.1" class="c">❯ </text><text x="32.8" y="57.1" class="d">echo &apos;Welcome t</text></symbol><symbol id="15"><text x="16" y="57.1" class="c">❯ </text><text x="32.8" y="57.1" class="d">echo &apos;Welcome to</text></symbol><symbol id="16"><text x="16" y="57.1" class="c">❯ </text><text x="32.8" y="57.1" class="d">echo &apos;Welcome to t</text></symbol><symbol id="17"><text x="16" y="57.1" class="c">❯ </text><text x="32.8" y="57.1" class="d">echo &apos;Welcome to th</text></symbol><symbol id="18"><text x="16" y="57.1" class="c">❯ </text><text x="32.8" y="57.1" class="d">echo &apos;Welcome to the</text></symbol><symbol id="19"><text x="16" y="57.1" class="c">❯ </text><text x="32.8" y="57.1" class="d">echo &apos;Welcome to the c</text></symbol><symbol id="20"><text x="16" y="57.1" class="c">❯ </text><text x="32.8" y="57.1" class="d">echo &apos;Welcome to the ca</text></symbol><symbol id="21"><text x="16" y="57.1" class="c">❯ </text><text x="32.8" y="57.1" class="d">echo &apos;Welcome to the cat</text></symbol><symbol id="22"><text x="16" y="57.1" class="c">❯ </text><text x="32.8" y="57.1" class="d">echo &apos;Welcome to the catp</text></symbol><symbol id="23"><text x="16" y="57.1" class="c">❯ </text><text x="32.8" y="57.1" class="d">echo &apos;Welcome to the catpp</text></symbol><symbol id="24"><text x="16" y="57.1" class="c">❯ </text><text x="32.8" y="57.1" class="d">echo &apos;Welcome to the catppu</text></symbol><symbol id="25"><text x="16" y="57.1" class="c">❯ </text><text x="32.8" y="57.1" class="d">echo &apos;Welcome to the catppuc</text></symbol><symbol id="26"><text x="16" y="57.1" class="c">❯ </text><text x="32.8" y="57.1" class="d">echo &apos;Welcome to the catppucc</text></symbol><symbol id="27"><text x="16" y="57.1" class="c">❯ </text><text x="32.8" y="57.1" class="d">echo &apos;Welcome to the catppucci</text></symbol><symbol id="28"><text x="16" y="57.1" class="c">❯ </text><text x="32.8" y="57.1" class="d">echo &apos;Welcome to the catppuccin</text></symbol><symbol id="29"><text x="16" y="57.1" class="c">❯ </text><text x="32.8" y="57.1" class="d">echo &apos;Welcome to the catppuccinM</text></symbol><symbol id="30"><text x="16" y="57.1" class="c">❯ </text><text x="32.8" y="57.1" class="d">echo &apos;Welcome to the catppuccinMo</text></symbol><symbol id="31"><text x="16" y="57.1" class="c">❯ </text><text x="32.8" y="57.1" class="d">echo &apos;Welcome to the catppuccinMoc</text></symbol><symbol id="32"><text x="16" y="57.1" class="c">❯ </text><text x="32.8" y="57.1" class="d">echo &apos;Welcome to the catppuccinMoch</text></symbol><symbol id="33"><text x="16" y="57.1" class="c">❯ </text><text x="32.8" y="57.1" class="d">echo &apos;Welcome to the catppuccinMocha</text></symbol><symbol id="34"><text x="16" y="57.1" class="c">❯ </text><text x="32.8" y="57.1" class="d">echo &apos;Welcome to the catppuccinMocha t</text></symbol><symbol id="35"><text x="16" y="57.1" class="c">❯ </text><text x="32.8" y="57.1" class="d">echo &apos;Welcome to the catppuccinMocha th</text></symbol><symbol id="36"><text x="16" y="57.1" class="c">❯ </text><text x="32.8" y="57.1" class="d">echo &apos;Welcome to the catppuccinMocha the</text></symbol><symbol id="37"><text x="16" y="57.1" class="c">❯ </text><text x="32.8" y="57.1" class="d">echo &apos;Welcome to the catppuccinMocha them</text></symbol><symbol id="38"><text x="16" y="57.1" class="c">❯ </text><text x="32.8" y="57.1" class="d">echo &apos;Welcome to the catppuccinMocha theme</text></symbol><symbol id="39"><text x="16" y="57.1" class="c">❯ </text><text x="32.8" y="57.1" class="d">echo &apos;Welcome to the catppuccinMocha theme!</text></symbol><symbol id="40"><text x="16" y="57.1" class="c">❯ </text><text x="32.8" y="57.1" class="d">echo &apos;Welcome to the catppuccinMocha theme!&apos;</text></symbol><symbol id="41"><text x="16" y="76.7" class="d">Welcome to the catppuccinMocha theme!</text></symbol><symbol id="42"><text x="16" y="96.3" class="c">❯</text></symbol><symbol id="43"><text x="16" y="96.3" class="c">❯ </text><text x="32.8" y="96.3" class="d">e</text></symbol><symbol id="44"><text x="16" y="96.3" class="c">❯ </text><text x="32.8" y="96.3" class="d">ec</text></symbol><symbol id="45"><text x="16" y="96.3" class="c">❯ </text><text x="32.8" y="96.3" class="d">ech</text></symbol><symbol id="46"><text x="16" y="96.3" class="c">❯ </text><text x="32.8" y="96.3" class="d">echo</text></symbol><symbol id="47"><text x="16" y="96.3" class="c">❯ </text><text x="32.8" y="96.3" class="d">echo &apos;</text></symbol><symbol id="48"><text x="16" y="96.3" class="c">❯ </text><text x="32.8" y="96.3" class="d">echo &apos;T</text></symbol><symbol id="49"><text x="16" y="96.3" class="c">❯ </text><text x="32.8" y="96.3" class="d">echo &apos;Th</text></symbol><symbol id="50"><text x="16" y="96.3" class="c">❯ </text><text x="32.8" y="96.3" class="d">echo &apos;Thi</text></symbol><symbol id="51"><text x="16" y="96.3" class="c">❯ </text><text x="32.8" y="96.3" class="d">echo &apos;This</text></symbol><symbol id="52"><text x="16" y="96.3" class="c">❯ </text><text x="32.8" y="96.3" class="d">echo &apos;This i</text></symbol><symbol id="53"><text x="16" y="96.3" class="c">❯ </text><text x="32.8" y="96.3" class="d">echo &apos;This is</text></symbol><symbol id="54"><text x="16" y="96.3" class="c">❯ </text><text x="32.8" y="96.3" class="d">echo &apos;This is h</text></symbol><symbol id="55"><text x="16" y="96.3" class="c">❯ </text><text x="32.8" y="96.3" class="d">echo &apos;This is ho</text></symbol><symbol id="56"><text x="16" y="96.3" class="c">❯ </text><text x="32.8" y="96.3" class="d">echo &apos;This is how</text></symbol><symbol id="57"><text x="16" y="96.3" class="c">❯ </text><text x="32.8" y="96.3" class="d">echo &apos;This is how y</text></symbol><symbol id="58"><text x="16" y="96.3" class="c">❯ </text><text x="32.8" y="96.3" class="d">echo &apos;This is how yo</text></symbol><symbol id="59"><text x="16" y="96.3" class="c">❯ </text><text x="32.8" y="96.3" class="d">echo &apos;This is how you</text></symbol><symbol id="60"><text x="16" y="96.3" class="c">❯ </text><text x="32.8" y="96.3" class="d">echo &apos;This is how your</text></symbol><symbol id="61"><text x="16" y="96.3" class="c">❯ </text><text x="32.8" y="96.3" class="d">echo &apos;This is how your t</text></symbol><symbol id="62"><text x="16" y="96.3" class="c">❯ </text><text x="32.8" y="96.3" class="d">echo &apos;This is how your te</text></symbol><symbol id="63"><text x="16" y="96.3" class="c">❯ </text><text x="32.8" y="96.3" class="d">echo &apos;This is how your ter</text></symbol><symbol id="64"><text x="16" y="96.3" class="c">❯ </text><text x="32.8" y="96.3" class="d">echo &apos;This is how your term</text></symbol><symbol id="65"><text x="16" y="96.3" class="c">❯ </text><text x="32.8" y="96.3" class="d">echo &apos;This is how your termi</text></symbol><symbol id="66"><text x="16" y="96.3" class="c">❯ </text><text x="32.8" y="96.3" class="d">echo &apos;This is how your termin</text></symbol><symbol id="67"><text x="16" y="96.3" class="c">❯ </text><text x="32.8" y="96.3" class="d">echo &apos;This is how your termina</text></symbol><symbol id="68"><text x="16" y="96.3" class="c">❯ </text><text x="32.8" y="96.3" class="d">echo &apos;This is how your terminal</text></symbol><symbol id="69"><text x="16" y="96.3" class="c">❯ </text><text x="32.8" y="96.3" class="d">echo &apos;This is how your terminal l</text></symbol><symbol id="70"><text x="16" y="96.3" class="c">❯ </text><text x="32.8" y="96.3" class="d">echo &apos;This is how your terminal lo</text></symbol><symbol id="71"><text x="16" y="96.3" class="c">❯ </text><text x="32.8" y="96.3" class="d">echo &apos;This is how your terminal loo</text></symbol><symbol id="72"><text x="16" y="96.3" class="c">❯ </text><text x="32.8" y="96.3" class="d">echo &apos;This is how your terminal look</text></symbol><symbol id="73"><text x="16" y="96.3" class="c">❯ </text><text x="32.8" y="96.3" class="d">echo &apos;This is how your terminal looks</text></symbol><symbol id="74"><text x="16" y="96.3" class="c">❯ </text><text x="32.8" y="96.3" class="d">echo &apos;This is how your terminal looks.</text></symbol><symbol id="75"><text x="16" y="96.3" class="c">❯ </text><text x="32.8" y="96.3" class="d">echo &apos;This is how your terminal looks.&apos;</text></symbol><symbol id="76"><text x="16" y="115.9" class="d">This is how your terminal looks.</text></symbol><symbol id="77"><text x="16" y="135.5" class="c">❯</text></symbol></defs><style>@keyframes f{0.07%{transform:translateX(0px)}0.55%{transform:translateX(-427px)}1.01%{transform:translateX(-854px)}1.48%{transform:translateX(-1281px)}1.95%{transform:translateX(-1708px)}2.42%{transform:translateX(-2135px)}2.89%{transform:translateX(-2562px)}3.35%{transform:translateX(-2989px)}3.84%{transform:translateX(-3416px)}4.30%{transform:translateX(-3843px)}4.78%{transform:translateX(-4270px)}5.25%{transform:translateX(-4697px)}5.72%{transform:translateX(-5124px)}6.18%{transform:translateX(-5551px)}6.64%{transform:translateX(-5978px)}7.12%{transform:translateX(-6405px)}7.58%{transform:translateX(-6832px)}8.05%{transform:translateX(-7259px)}8.51%{transform:translateX(-7686px)}8.99%{transform:translateX(-8113px)}9.46%{transform:translateX(-8540px)}9.93%{transform:translateX(-8967px)}10.40%{transform:translateX(-9394px)}10.86%{transform:translateX(-9821px)}11.33%{transform:translateX(-10248px)}11.80%{transform:translateX(-10675px)}12.27%{transform:translateX(-11102px)}12.73%{transform:translateX(-11529px)}13.21%{transform:translateX(-11956px)}13.67%{transform:translateX(-12383px)}14.15%{transform:translateX(-12810px)}14.62%{transform:translateX(-13237px)}15.10%{transform:translateX(-13664px)}15.57%{transform:translateX(-14091px)}16.05%{transform:translateX(-14518px)}16.53%{transform:translateX(-14945px)}17.02%{transform:translateX(-15372px)}17.47%{transform:translateX(-15799px)}17.96%{transform:translateX(-16226px)}18.43%{transform:translateX(-16653px)}18.89%{transform:translateX(-17080px)}19.36%{transform:translateX(-17507px)}19.85%{transform:translateX(-17934px)}20.32%{transform:translateX(-18361px)}20.78%{transform:translateX(-18788px)}20.79%{transform:translateX(-19215px)}24.52%{transform:translateX(-19642px)}24.56%{transform:translateX(-20069px)}25.60%{transform:translateX(-20496px)}30.83%{transform:translateX(-20923px)}31.30%{transform:translateX(-21350px)}31.78%{transform:translateX(-21777px)}32.25%{transform:translateX(-22204px)}32.72%{transform:translateX(-22631px)}33.18%{transform:translateX(-23058px)}33.65%{transform:translateX(-23485px)}34.11%{transform:translateX(-23912px)}34.58%{transform:translateX(-24339px)}35.03%{transform:translateX(-24766px)}35.49%{transform:translateX(-25193px)}35.96%{transform:translateX(-25620px)}36.42%{transform:translateX(-26047px)}36.89%{transform:translateX(-26474px)}37.35%{transform:translateX(-26901px)}37.82%{transform:translateX(-27328px)}38.30%{transform:translateX(-27755px)}38.76%{transform:translateX(-28182px)}39.23%{transform:translateX(-28609px)}39.70%{transform:translateX(-29036px)}40.18%{transform:translateX(-29463px)}40.65%{transform:translateX(-29890px)}41.12%{transform:translateX(-30317px)}41.59%{transform:translateX(-30744px)}42.06%{transform:translateX(-31171px)}42.51%{transform:translateX(-31598px)}42.99%{transform:translateX(-32025px)}43.43%{transform:translateX(-32452px)}43.92%{transform:translateX(-32879px)}44.38%{transform:translateX(-33306px)}44.83%{transform:translateX(-33733px)}45.31%{transform:translateX(-34160px)}45.78%{transform:translateX(-34587px)}46.25%{transform:translateX(-35014px)}46.72%{transform:translateX(-35441px)}47.19%{transform:translateX(-35868px)}47.66%{transform:translateX(-36295px)}48.11%{transform:translateX(-36722px)}48.59%{transform:translateX(-37149px)}48.60%{transform:translateX(-37576px)}50.97%{transform:translateX(-38003px)}51.49%{transform:translateX(-38430px)}52.01%{transform:translateX(-38857px)}52.52%{transform:translateX(-39284px)}53.04%{transform:translateX(-39711px)}53.56%{transform:translateX(-40138px)}54.08%{transform:translateX(-40565px)}54.60%{transform:translateX(-40992px)}55.10%{transform:translateX(-41419px)}55.63%{transform:translateX(-41846px)}56.16%{transform:translateX(-42273px)}56.68%{transform:translateX(-42700px)}57.20%{transform:translateX(-43127px)}57.70%{transform:translateX(-43554px)}58.23%{transform:translateX(-43981px)}58.76%{transform:translateX(-44408px)}59.29%{transform:translateX(-44835px)}59.82%{transform:translateX(-45262px)}60.35%{transform:translateX(-45689px)}60.86%{transform:translateX(-46116px)}61.39%{transform:translateX(-46543px)}61.92%{transform:translateX(-46970px)}62.44%{transform:translateX(-47397px)}62.97%{transform:translateX(-47824px)}63.49%{transform:translateX(-48251px)}63.56%{transform:translateX(-48678px)}71.16%{transform:translateX(-49105px)}71.16%{transform:translateX(-49532px)}72.21%{transform:translateX(-49959px)}}.a{fill:#1e1e1e}.c{fill:#d2a8ff;stroke:#d2a8ff}.d{fill:#c9d1d9;stroke:#c9d1d9}path[fill="none"]{fill:none}path[shape-rendering="crispEdges"]{stroke:none}text{font-family:'SF Mono',Monaco,Consolas,Menlo,monospace;font-size:14px;dominant-baseline:text-before-edge;white-space:pre}text[class]{stroke:none}.bold{font-weight:700}.italic{font-style:italic}.uline{text-decoration:underline}.strike{text-decoration:line-through}.dim{opacity:0.5}@keyframes blink{0%,50%{opacity:1}50.01%,100%{opacity:0}}.cursor{animation:blink 1s step-end infinite;mix-blend-mode:difference}.cursor-active{opacity:1;mix-blend-mode:difference}</style><g transform="translate(0,0)"><rect width="427" height="178" rx="8" fill="#1e1e1e"/><rect width="427" height="40" rx="8" fill="#1e1e1e"/><path d="M0 32h427v8H0z" fill="#1e1e1e"/><circle cx="16" cy="20" r="6" fill="#ff5f56"/><circle cx="36" cy="20" r="6" fill="#ffbd2e"/><circle cx="56" cy="20" r="6" fill="#27c93f"/><text x="213.5" y="20" text-anchor="middle" dominant-baseline="middle" fill="#c9d1d9" font-size="14">catppuccinMocha</text><clipPath id="content-clip"><path d="M0 40h427v138H0z" /></clipPath><g clip-path="url(#content-clip)"><g style="animation:f 10.845s steps(1,end) infinite"><g transform="translate(0,0)"><use xlink:href="#1"/><path d="M32.8 56h8.4v19.6H32.8z" fill="#fff" class="cursor"/></g><g transform="translate(427,0)"><use xlink:href="#2"/><path d="M41.2 56h8.4v19.6H41.2z" fill="#fff" class="cursor-active"/></g><g transform="translate(854,0)"><use xlink:href="#3"/><path d="M49.6 56h8.4v19.6H49.6z" fill="#fff" class="cursor-active"/></g><g transform="translate(1281,0)"><use xlink:href="#4"/><path d="M58 56h8.4v19.6H58z" fill="#fff" class="cursor-active"/></g><g transform="translate(1708,0)"><use xlink:href="#5"/><path d="M66.4 56h8.4v19.6H66.4z" fill="#fff" class="cursor-active"/></g><g transform="translate(2135,0)"><use xlink:href="#5"/><path d="M74.8 56h8.4v19.6H74.8z" fill="#fff" class="cursor-active"/></g><g transform="translate(2562,0)"><use xlink:href="#6"/><path d="M83.2 56h8.4v19.6H83.2z" fill="#fff" class="cursor-active"/></g><g transform="translate(2989,0)"><use xlink:href="#7"/><path d="M91.6 56h8.4v19.6H91.6z" fill="#fff" class="cursor-active"/></g><g transform="translate(3416,0)"><use xlink:href="#8"/><path d="M100 56h8.4v19.6H100z" fill="#fff" class="cursor-active"/></g><g transform="translate(3843,0)"><use xlink:href="#9"/><path d="M108.4 56h8.4v19.6H108.4z" fill="#fff" class="cursor-active"/></g><g transform="translate(4270,0)"><use xlink:href="#10"/><path d="M116.8 56h8.4v19.6H116.8z" fill="#fff" class="cursor-active"/></g><g transform="translate(4697,0)"><use xlink:href="#11"/><path d="M125.2 56h8.4v19.6H125.2z" fill="#fff" class="cursor-active"/></g><g transform="translate(5124,0)"><use xlink:href="#12"/><path d="M133.6 56h8.4v19.6H133.6z" fill="#fff" class="cursor-active"/></g><g transform="translate(5551,0)"><use xlink:href="#13"/><path d="M142 56h8.4v19.6H142z" fill="#fff" class="cursor-active"/></g><g transform="translate(5978,0)"><use xlink:href="#13"/><path d="M150.4 56h8.4v19.6H150.4z" fill="#fff" class="cursor-active"/></g><g transform="translate(6405,0)"><use xlink:href="#14"/><path d="M158.8 56h8.4v19.6H158.8z" fill="#fff" class="cursor-active"/></g><g transform="translate(6832,0)"><use xlink:href="#15"/><path d="M167.2 56h8.4v19.6H167.2z" fill="#fff" class="cursor-active"/></g><g transform="translate(7259,0)"><use xlink:href="#15"/><path d="M175.6 56h8.4v19.6H175.6z" fill="#fff" class="cursor-active"/></g><g transform="translate(7686,0)"><use xlink:href="#16"/><path d="M184 56h8.4v19.6H184z" fill="#fff" class="cursor-active"/></g><g transform="translate(8113,0)"><use xlink:href="#17"/><path d="M192.4 56h8.4v19.6H192.4z" fill="#fff" class="cursor-active"/></g><g transform="translate(8540,0)"><use xlink:href="#18"/><path d="M200.8 56h8.4v19.6H200.8z" fill="#fff" class="cursor-active"/></g><g transform="translate(8967,0)"><use xlink:href="#18"/><path d="M209.2 56h8.4v19.6H209.2z" fill="#fff" class="cursor-active"/></g><g transform="translate(9394,0)"><use xlink:href="#19"/><path d="M217.6 56h8.4v19.6H217.6z" fill="#fff" class="cursor-active"/></g><g transform="translate(9821,0)"><use xlink:href="#20"/><path d="M226 56h8.4v19.6H226z" fill="#fff" class="cursor-active"/></g><g transform="translate(10248,0)"><use xlink:href="#21"/><path d="M234.4 56h8.4v19.6H234.4z" fill="#fff" class="cursor-active"/></g><g transform="translate(10675,0)"><use xlink:href="#22"/><path d="M242.8 56h8.4v19.6H242.8z" fill="#fff" class="cursor-active"/></g><g transform="translate(11102,0)"><use xlink:href="#23"/><path d="M251.2 56h8.4v19.6H251.2z" fill="#fff" class="cursor-active"/></g><g transform="translate(11529,0)"><use xlink:href="#24"/><path d="M259.6 56h8.4v19.6H259.6z" fill="#fff" class="cursor-active"/></g><g transform="translate(11956,0)"><use xlink:href="#25"/><path d="M268 56h8.4v19.6H268z" fill="#fff" class="cursor-active"/></g><g transform="translate(12383,0)"><use xlink:href="#26"/><path d="M276.4 56h8.4v19.6H276.4z" fill="#fff" class="cursor-active"/></g><g transform="translate(12810,0)"><use xlink:href="#27"/><path d="M284.8 56h8.4v19.6H284.8z" fill="#fff" class="cursor-active"/></g><g transform="translate(13237,0)"><use xlink:href="#28"/><path d="M293.2 56h8.4v19.6H293.2z" fill="#fff" class="cursor-active"/></g><g transform="translate(13664,0)"><use xlink:href="#29"/><path d="M301.6 56h8.4v19.6H301.6z" fill="#fff" class="cursor-active"/></g><g transform="translate(14091,0)"><use xlink:href="#30"/><path d="M310 56h8.4v19.6H310z" fill="#fff" class="cursor-active"/></g><g transform="translate(14518,0)"><use xlink:href="#31"/><path d="M318.4 56h8.4v19.6H318.4z" fill="#fff" class="cursor-active"/></g><g transform="translate(14945,0)"><use xlink:href="#32"/><path d="M326.8 56h8.4v19.6H326.8z" fill="#fff" class="cursor-active"/></g><g transform="translate(15372,0)"><use xlink:href="#33"/><path d="M335.2 56h8.4v19.6H335.2z" fill="#fff" class="cursor-active"/></g><g transform="translate(15799,0)"><use xlink:href="#33"/><path d="M343.6 56h8.4v19.6H343.6z" fill="#fff" class="cursor-active"/></g><g transform="translate(16226,0)"><use xlink:href="#34"/><path d="M352 56h8.4v19.6H352z" fill="#fff" class="cursor-active"/></g><g transform="translate(16653,0)"><use xlink:href="#35"/><path d="M360.4 56h8.4v19.6H360.4z" fill="#fff" class="cursor-active"/></g><g transform="translate(17080,0)"><use xlink:href="#36"/><path d="M368.8 56h8.4v19.6H368.8z" fill="#fff" class="cursor-active"/></g><g transform="translate(17507,0)"><use xlink:href="#37"/><path d="M377.2 56h8.4v19.6H377.2z" fill="#fff" class="cursor-active"/></g><g transform="translate(17934,0)"><use xlink:href="#38"/><path d="M385.6 56h8.4v19.6H385.6z" fill="#fff" class="cursor-active"/></g><g transform="translate(18361,0)"><use xlink:href="#39"/><path d="M394 56h8.4v19.6H394z" fill="#fff" class="cursor-active"/></g><g transform="translate(18788,0)"><use xlink:href="#40"/><path d="M402.4 56h8.4v19.6H402.4z" fill="#fff" class="cursor-active"/></g><g transform="translate(19215,0)"><use xlink:href="#40"/><path d="M402.4 56h8.4v19.6H402.4z" fill="#fff" class="cursor"/></g><g transform="translate(19642,0)"><use xlink:href="#40"/></g><g transform="translate(20069,0)"><use xlink:href="#40"/><use xlink:href="#41"/></g><g transform="translate(20496,0)"><use xlink:href="#40"/><use xlink:href="#41"/><use xlink:href="#42"/><path d="M32.8 95.2h8.4v19.6H32.8z" fill="#fff" class="cursor"/></g><g transform="translate(20923,0)"><use xlink:href="#40"/><use xlink:href="#41"/><use xlink:href="#43"/><path d="M41.2 95.2h8.4v19.6H41.2z" fill="#fff" class="cursor-active"/></g><g transform="translate(21350,0)"><use xlink:href="#40"/><use xlink:href="#41"/><use xlink:href="#44"/><path d="M49.6 95.2h8.4v19.6H49.6z" fill="#fff" class="cursor-active"/></g><g transform="translate(21777,0)"><use xlink:href="#40"/><use xlink:href="#41"/><use xlink:href="#45"/><path d="M58 95.2h8.4v19.6H58z" fill="#fff" class="cursor-active"/></g><g transform="translate(22204,0)"><use xlink:href="#40"/><use xlink:href="#41"/><use xlink:href="#46"/><path d="M66.4 95.2h8.4v19.6H66.4z" fill="#fff" class="cursor-active"/></g><g transform="translate(22631,0)"><use xlink:href="#40"/><use xlink:href="#41"/><use xlink:href="#46"/><path d="M74.8 95.2h8.4v19.6H74.8z" fill="#fff" class="cursor-active"/></g><g transform="translate(23058,0)"><use xlink:href="#40"/><use xlink:href="#41"/><use xlink:href="#47"/><path d="M83.2 95.2h8.4v19.6H83.2z" fill="#fff" class="cursor-active"/></g><g transform="translate(23485,0)"><use xlink:href="#40"/><use xlink:href="#41"/><use xlink:href="#48"/><path d="M91.6 95.2h8.4v19.6H91.6z" fill="#fff" class="cursor-active"/></g><g transform="translate(23912,0)"><use xlink:href="#40"/><use xlink:href="#41"/><use xlink:href="#49"/><path d="M100 95.2h8.4v19.6H100z" fill="#fff" class="cursor-active"/></g><g transform="translate(24339,0)"><use xlink:href="#40"/><use xlink:href="#41"/><use xlink:href="#50"/><path d="M108.4 95.2h8.4v19.6H108.4z" fill="#fff" class="cursor-active"/></g><g transform="translate(24766,0)"><use xlink:href="#40"/><use xlink:href="#41"/><use xlink:href="#51"/><path d="M116.8 95.2h8.4v19.6H116.8z" fill="#fff" class="cursor-active"/></g><g transform="translate(25193,0)"><use xlink:href="#40"/><use xlink:href="#41"/><use xlink:href="#51"/><path d="M125.2 95.2h8.4v19.6H125.2z" fill="#fff" class="cursor-active"/></g><g transform="translate(25620,0)"><use xlink:href="#40"/><use xlink:href="#41"/><use xlink:href="#52"/><path d="M133.6 95.2h8.4v19.6H133.6z" fill="#fff" class="cursor-active"/></g><g transform="translate(26047,0)"><use xlink:href="#40"/><use xlink:href="#41"/><use xlink:href="#53"/><path d="M142 95.2h8.4v19.6H142z" fill="#fff" class="cursor-active"/></g><g transform="translate(26474,0)"><use xlink:href="#40"/><use xlink:href="#41"/><use xlink:href="#53"/><path d="M150.4 95.2h8.4v19.6H150.4z" fill="#fff" class="cursor-active"/></g><g transform="translate(26901,0)"><use xlink:href="#40"/><use xlink:href="#41"/><use xlink:href="#54"/><path d="M158.8 95.2h8.4v19.6H158.8z" fill="#fff" class="cursor-active"/></g><g transform="translate(27328,0)"><use xlink:href="#40"/><use xlink:href="#41"/><use xlink:href="#55"/><path d="M167.2 95.2h8.4v19.6H167.2z" fill="#fff" class="cursor-active"/></g><g transform="translate(27755,0)"><use xlink:href="#40"/><use xlink:href="#41"/><use xlink:href="#56"/><path d="M175.6 95.2h8.4v19.6H175.6z" fill="#fff" class="cursor-active"/></g><g transform="translate(28182,0)"><use xlink:href="#40"/><use xlink:href="#41"/><use xlink:href="#56"/><path d="M184 95.2h8.4v19.6H184z" fill="#fff" class="cursor-active"/></g><g transform="translate(28609,0)"><use xlink:href="#40"/><use xlink:href="#41"/><use xlink:href="#57"/><path d="M192.4 95.2h8.4v19.6H192.4z" fill="#fff" class="cursor-active"/></g><g transform="translate(29036,0)"><use xlink:href="#40"/><use xlink:href="#41"/><use xlink:href="#58"/><path d="M200.8 95.2h8.4v19.6H200.8z" fill="#fff" class="cursor-active"/></g><g transform="translate(29463,0)"><use xlink:href="#40"/><use xlink:href="#41"/><use xlink:href="#59"/><path d="M209.2 95.2h8.4v19.6H209.2z" fill="#fff" class="cursor-active"/></g><g transform="translate(29890,0)"><use xlink:href="#40"/><use xlink:href="#41"/><use xlink:href="#60"/><path d="M217.6 95.2h8.4v19.6H217.6z" fill="#fff" class="cursor-active"/></g><g transform="translate(30317,0)"><use xlink:href="#40"/><use xlink:href="#41"/><use xlink:href="#60"/><path d="M226 95.2h8.4v19.6H226z" fill="#fff" class="cursor-active"/></g><g transform="translate(30744,0)"><use xlink:href="#40"/><use xlink:href="#41"/><use xlink:href="#61"/><path d="M234.4 95.2h8.4v19.6H234.4z" fill="#fff" class="cursor-active"/></g><g transform="translate(31171,0)"><use xlink:href="#40"/><use xlink:href="#41"/><use xlink:href="#62"/><path d="M242.8 95.2h8.4v19.6H242.8z" fill="#fff" class="cursor-active"/></g><g transform="translate(31598,0)"><use xlink:href="#40"/><use xlink:href="#41"/><use xlink:href="#63"/><path d="M251.2 95.2h8.4v19.6H251.2z" fill="#fff" class="cursor-active"/></g><g transform="translate(32025,0)"><use xlink:href="#40"/><use xlink:href="#41"/><use xlink:href="#64"/><path d="M259.6 95.2h8.4v19.6H259.6z" fill="#fff" class="cursor-active"/></g><g transform="translate(32452,0)"><use xlink:href="#40"/><use xlink:href="#41"/><use xlink:href="#65"/><path d="M268 95.2h8.4v19.6H268z" fill="#fff" class="cursor-active"/></g><g transform="translate(32879,0)"><use xlink:href="#40"/><use xlink:href="#41"/><use xlink:href="#66"/><path d="M276.4 95.2h8.4v19.6H276.4z" fill="#fff" class="cursor-active"/></g><g transform="translate(33306,0)"><use xlink:href="#40"/><use xlink:href="#41"/><use xlink:href="#67"/><path d="M284.8 95.2h8.4v19.6H284.8z" fill="#fff" class="cursor-active"/></g><g transform="translate(33733,0)"><use xlink:href="#40"/><use xlink:href="#41"/><use xlink:href="#68"/><path d="M293.2 95.2h8.4v19.6H293.2z" fill="#fff" class="cursor-active"/></g><g transform="translate(34160,0)"><use xlink:href="#40"/><use xlink:href="#41"/><use xlink:href="#68"/><path d="M301.6 95.2h8.4v19.6H301.6z" fill="#fff" class="cursor-active"/></g><g transform="translate(34587,0)"><use xlink:href="#40"/><use xlink:href="#41"/><use xlink:href="#69"/><path d="M310 95.2h8.4v19.6H310z" fill="#fff" class="cursor-active"/></g><g transform="translate(35014,0)"><use xlink:href="#40"/><use xlink:href="#41"/><use xlink:href="#70"/><path d="M318.4 95.2h8.4v19.6H318.4z" fill="#fff" class="cursor-active"/></g><g transform="translate(35441,0)"><use xlink:href="#40"/><use xlink:href="#41"/><use xlink:href="#71"/><path d="M326.8 95.2h8.4v19.6H326.8z" fill="#fff" class="cursor-active"/></g><g transform="translate(35868,0)"><use xlink:href="#40"/><use xlink:href="#41"/><use xlink:href="#72"/><path d="M335.2 95.2h8.4v19.6H335.2z" fill="#fff" class="cursor-active"/></g><g transform="translate(36295,0)"><use xlink:href="#40"/><use xlink:href="#41"/><use xlink:href="#73"/><path d="M343.6 95.2h8.4v19.6H343.6z" fill="#fff" class="cursor-active"/></g><g transform="translate(36722,0)"><use xlink:href="#40"/><use xlink:href="#41"/><use xlink:href="#74"/><path d="M352 95.2h8.4v19.6H352z" fill="#fff" class="cursor-active"/></g><g transform="translate(37149,0)"><use xlink:href="#40"/><use xlink:href="#41"/><use xlink:href="#75"/><path d="M360.4 95.2h8.4v19.6H360.4z" fill="#fff" class="cursor-active"/></g><g transform="translate(37576,0)"><use xlink:href="#40"/><use xlink:href="#41"/><use xlink:href="#75"/><path d="M360.4 95.2h8.4v19.6H360.4z" fill="#fff" class="cursor"/></g><g transform="translate(38003,0)"><use xlink:href="#40"/><use xlink:href="#41"/><use xlink:href="#75"/><path d="M352 95.2h8.4v19.6H352z" fill="#fff" class="cursor-active"/></g><g transform="translate(38430,0)"><use xlink:href="#40"/><use xlink:href="#41"/><use xlink:href="#75"/><path d="M343.6 95.2h8.4v19.6H343.6z" fill="#fff" class="cursor-active"/></g><g transform="translate(38857,0)"><use xlink:href="#40"/><use xlink:href="#41"/><use xlink:href="#75"/><path d="M335.2 95.2h8.4v19.6H335.2z" fill="#fff" class="cursor-active"/></g><g transform="translate(39284,0)"><use xlink:href="#40"/><use xlink:href="#41"/><use xlink:href="#75"/><path d="M326.8 95.2h8.4v19.6H326.8z" fill="#fff" class="cursor-active"/></g><g transform="translate(39711,0)"><use xlink:href="#40"/><use xlink:href="#41"/><use xlink:href="#75"/><path d="M318.4 95.2h8.4v19.6H318.4z" fill="#fff" class="cursor-active"/></g><g transform="translate(40138,0)"><use xlink:href="#40"/><use xlink:href="#41"/><use xlink:href="#75"/><path d="M310 95.2h8.4v19.6H310z" fill="#fff" class="cursor-active"/></g><g transform="translate(40565,0)"><use xlink:href="#40"/><use xlink:href="#41"/><use xlink:href="#75"/><path d="M301.6 95.2h8.4v19.6H301.6z" fill="#fff" class="cursor-active"/></g><g transform="translate(40992,0)"><use xlink:href="#40"/><use xlink:href="#41"/><use xlink:href="#75"/><path d="M293.2 95.2h8.4v19.6H293.2z" fill="#fff" class="cursor-active"/></g><g transform="translate(41419,0)"><use xlink:href="#40"/><use xlink:href="#41"/><use xlink:href="#75"/><path d="M284.8 95.2h8.4v19.6H284.8z" fill="#fff" class="cursor-active"/></g><g transform="translate(41846,0)"><use xlink:href="#40"/><use xlink:href="#41"/><use xlink:href="#75"/><path d="M276.4 95.2h8.4v19.6H276.4z" fill="#fff" class="cursor-active"/></g><g transform="translate(42273,0)"><use xlink:href="#40"/><use xlink:href="#41"/><use xlink:href="#75"/><path d="M268 95.2h8.4v19.6H268z" fill="#fff" class="cursor-active"/></g><g transform="translate(42700,0)"><use xlink:href="#40"/><use xlink:href="#41"/><use xlink:href="#75"/><path d="M259.6 95.2h8.4v19.6H259.6z" fill="#fff" class="cursor-active"/></g><g transform="translate(43127,0)"><use xlink:href="#40"/><use xlink:href="#41"/><use xlink:href="#75"/><path d="M251.2 95.2h8.4v19.6H251.2z" fill="#fff" class="cursor-active"/></g><g transform="translate(43554,0)"><use xlink:href="#40"/><use xlink:href="#41"/><use xlink:href="#75"/><path d="M242.8 95.2h8.4v19.6H242.8z" fill="#fff" class="cursor-active"/></g><g transform="translate(43981,0)"><use xlink:href="#40"/><use xlink:href="#41"/><use xlink:href="#75"/><path d="M234.4 95.2h8.4v19.6H234.4z" fill="#fff" class="cursor-active"/></g><g transform="translate(44408,0)"><use xlink:href="#40"/><use xlink:href="#41"/><use xlink:href="#75"/><path d="M226 95.2h8.4v19.6H226z" fill="#fff" class="cursor-active"/></g><g transform="translate(44835,0)"><use xlink:href="#40"/><use xlink:href="#41"/><use xlink:href="#75"/><path d="M217.6 95.2h8.4v19.6H217.6z" fill="#fff" class="cursor-active"/></g><g transform="translate(45262,0)"><use xlink:href="#40"/><use xlink:href="#41"/><use xlink:href="#75"/><path d="M209.2 95.2h8.4v19.6H209.2z" fill="#fff" class="cursor-active"/></g><g transform="translate(45689,0)"><use xlink:href="#40"/><use xlink:href="#41"/><use xlink:href="#75"/><path d="M200.8 95.2h8.4v19.6H200.8z" fill="#fff" class="cursor-active"/></g><g transform="translate(46116,0)"><use xlink:href="#40"/><use xlink:href="#41"/><use xlink:href="#75"/><path d="M192.4 95.2h8.4v19.6H192.4z" fill="#fff" class="cursor-active"/></g><g transform="translate(46543,0)"><use xlink:href="#40"/><use xlink:href="#41"/><use xlink:href="#75"/><path d="M184 95.2h8.4v19.6H184z" fill="#fff" class="cursor-active"/></g><g transform="translate(46970,0)"><use xlink:href="#40"/><use xlink:href="#41"/><use xlink:href="#75"/><path d="M184 95.2h8.4v19.6H184z" fill="#264f78" opacity="0.5"/><path d="M192.4 95.2h8.4v19.6H192.4z" fill="#fff" class="cursor-active"/></g><g transform="translate(47397,0)"><use xlink:href="#40"/><use xlink:href="#41"/><use xlink:href="#75"/><path d="M184 95.2h16.8v19.6H184z" fill="#264f78" opacity="0.5"/><path d="M200.8 95.2h8.4v19.6H200.8z" fill="#fff" class="cursor-active"/></g><g transform="translate(47824,0)"><use xlink:href="#40"/><use xlink:href="#41"/><use xlink:href="#75"/><path d="M184 95.2h25.2v19.6H184z" fill="#264f78" opacity="0.5"/><path d="M209.2 95.2h8.4v19.6H209.2z" fill="#fff" class="cursor-active"/></g><g transform="translate(48251,0)"><use xlink:href="#40"/><use xlink:href="#41"/><use xlink:href="#75"/><path d="M184 95.2h33.6v19.6H184z" fill="#264f78" opacity="0.5"/><path d="M217.6 95.2h8.4v19.6H217.6z" fill="#fff" class="cursor-active"/></g><g transform="translate(48678,0)"><use xlink:href="#40"/><use xlink:href="#41"/><use xlink:href="#75"/><path d="M184 95.2h33.6v19.6H184z" fill="#264f78" opacity="0.5"/><path d="M217.6 95.2h8.4v19.6H217.6z" fill="#fff" class="cursor"/></g><g transform="translate(49105,0)"><use xlink:href="#40"/><use xlink:href="#41"/><use xlink:href="#75"/></g><g transform="translate(49532,0)"><use xlink:href="#40"/><use xlink:href="#41"/><use xlink:href="#75"/><use xlink:href="#76"/></g><g transform="translate(49959,0)"><use xlink:href="#40"/><use xlink:href="#41"/><use xlink:href="#75"/><use xlink:href="#76"/><use xlink:href="#77"/><path d="M32.8 134.4h8.4v19.6H32.8z" fill="#fff" class="cursor"/></g></g></g></g></svg>