<svg xmlns="http://www.w3.org/2000/svg" xmlns:xlink="http://www.w3.org/1999/xlink" width="301" height="148" viewBox="0 0 301 148"><defs><symbol id="1"><text x="16" y="57.3" class="c">❯</text></symbol><symbol id="2"><text x="16" y="57.3" class="c">❯ </text><text x="35.2" y="57.3" class="d">e</text></symbol><symbol id="3"><text x="16" y="57.3" class="c">❯ </text><text x="35.2" y="57.3" class="d">ec</text></symbol><symbol id="4"><text x="16" y="57.3" class="c">❯ </text><text x="35.2" y="57.3" class="d">ech</text></symbol><symbol id="5"><text x="16" y="57.3" class="c">❯ </text><text x="35.2" y="57.3" class="d">echo</text></symbol><symbol id="6"><text x="16" y="57.3" class="c">❯ </text><text x="35.2" y="57.3" class="d">echo &apos;</text></symbol><symbol id="7"><text x="16" y="57.3" class="c">❯ </text><text x="35.2" y="57.3" class="d">echo &apos;C</text></symbol><symbol id="8"><text x="16" y="57.3" class="c">❯ </text><text x="35.2" y="57.3" class="d">echo &apos;Cu</text></symbol><symbol id="9"><text x="16" y="57.3" class="c">❯ </text><text x="35.2" y="57.3" class="d">echo &apos;Cus</text></symbol><symbol id="10"><text x="16" y="57.3" class="c">❯ </text><text x="35.2" y="57.3" class="d">echo &apos;Cust</text></symbol><symbol id="11"><text x="16" y="57.3" class="c">❯ </text><text x="35.2" y="57.3" class="d">echo &apos;Custo</text></symbol><symbol id="12"><text x="16" y="57.3" class="c">❯ </text><text x="35.2" y="57.3" class="d">echo &apos;Custom</text></symbol><symbol id="13"><text x="16" y="57.3" class="c">❯ </text><text x="35.2" y="57.3" class="d">echo &apos;Custom n</text></symbol><symbol id="14"><text x="16" y="57.3" class="c">❯ </text><text x="35.2" y="57.3" class="d">echo &apos;Custom ne</text></symbol><symbol id="15"><text x="16" y="57.3" class="c">❯ </text><text x="35.2" y="57.3" class="d">echo &apos;Custom neo</text></symbol><symbol id="16"><text x="16" y="57.3" class="c">❯ </text><text x="35.2" y="57.3" class="d">echo &apos;Custom neon</text></symbol><symbol id="17"><text x="16" y="57.3" class="c">❯ </text><text x="35.2" y="57.3" class="d">echo &apos;Custom neon t</text></symbol><symbol id="18"><text x="16" y="57.3" class="c">❯ </text><text x="35.2" y="57.3" class="d">echo &apos;Custom neon th</text></symbol><symbol id="19"><text x="16" y="57.3" class="c">❯ </text><text x="35.2" y="57.3" class="d">echo &apos;Custom neon the</text></symbol><symbol id="20"><text x="16" y="57.3" class="c">❯ </text><text x="35.2" y="57.3" class="d">echo &apos;Custom neon them</text></symbol><symbol id="21"><text x="16" y="57.3" class="c">❯ </text><text x="35.2" y="57.3" class="d">echo &apos;Custom neon theme</text></symbol><symbol id="22"><text x="16" y="57.3" class="c">❯ </text><text x="35.2" y="57.3" class="d">echo &apos;Custom neon theme!</text></symbol><symbol id="23"><text x="16" y="57.3" class="c">❯ </text><text x="35.2" y="57.3" class="d">echo &apos;Custom neon theme!&apos;</text></symbol><symbol id="24"><text x="16" y="79.7" class="d">Custom neon theme!</text></symbol><symbol id="25"><text x="16" y="102.1" class="c">❯</text></symbol><symbol id="26"><text x="16" y="102.1" class="c">❯ </text><text x="35.2" y="102.1" class="d">T</text></symbol><symbol id="27"><text x="16" y="102.1" class="c">❯ </text><text x="35.2" y="102.1" class="d">Th</text></symbol><symbol id="28"><text x="16" y="102.1" class="c">❯ </text><text x="35.2" y="102.1" class="d">Thi</text></symbol><symbol id="29"><text x="16" y="102.1" class="c">❯ </text><text x="35.2" y="102.1" class="d">This</text></symbol><symbol id="30"><text x="16" y="102.1" class="c">❯ </text><text x="35.2" y="102.1" class="d">This i</text></symbol><symbol id="31"><text x="16" y="102.1" class="c">❯ </text><text x="35.2" y="102.1" class="d">This is</text></symbol><symbol id="32"><text x="16" y="102.1" class="c">❯ </text><text x="35.2" y="102.1" class="d">This is a</text></symbol><symbol id="33"><text x="16" y="102.1" class="c">❯ </text><text x="35.2" y="102.1" class="d">This is a c</text></symbol><symbol id="34"><text x="16" y="102.1" class="c">❯ </text><text x="35.2" y="102.1" class="d">This is a cu</text></symbol><symbol id="35"><text x="16" y="102.1" class="c">❯ </text><text x="35.2" y="102.1" class="d">This is a cus</text></symbol><symbol id="36"><text x="16" y="102.1" class="c">❯ </text><text x="35.2" y="102.1" class="d">This is a cust</text></symbol><symbol id="37"><text x="16" y="102.1" class="c">❯ </text><text x="35.2" y="102.1" class="d">This is a custo</text></symbol><symbol id="38"><text x="16" y="102.1" class="c">❯ </text><text x="35.2" y="102.1" class="d">This is a custom</text></symbol><symbol id="39"><text x="16" y="102.1" class="c">❯ </text><text x="35.2" y="102.1" class="d">This is a custom t</text></symbol><symbol id="40"><text x="16" y="102.1" class="c">❯ </text><text x="35.2" y="102.1" class="d">This is a custom th</text></symbol><symbol id="41"><text x="16" y="102.1" class="c">❯ </text><text x="35.2" y="102.1" class="d">This is a custom the</text></symbol><symbol id="42"><text x="16" y="102.1" class="c">❯ </text><text x="35.2" y="102.1" class="d">This is a custom them</text></symbol><symbol id="43"><text x="16" y="102.1" class="c">❯ </text><text x="35.2" y="102.1" class="d">This is a custom theme</text></symbol></defs><style>@keyframes f{0.13%{transform:translateX(0px)}0.99%{transform:translateX(-301px)}1.81%{transform:translateX(-602px)}2.62%{transform:translateX(-903px)}3.44%{transform:translateX(-1204px)}4.28%{transform:translateX(-1505px)}5.13%{transform:translateX(-1806px)}5.95%{transform:translateX(-2107px)}6.81%{transform:translateX(-2408px)}7.64%{transform:translateX(-2709px)}8.50%{transform:translateX(-3010px)}9.30%{transform:translateX(-3311px)}10.12%{transform:translateX(-3612px)}10.93%{transform:translateX(-3913px)}11.78%{transform:translateX(-4214px)}12.63%{transform:translateX(-4515px)}13.47%{transform:translateX(-4816px)}14.30%{transform:translateX(-5117px)}15.14%{transform:translateX(-5418px)}15.95%{transform:translateX(-5719px)}16.80%{transform:translateX(-6020px)}17.64%{transform:translateX(-6321px)}18.46%{transform:translateX(-6622px)}19.29%{transform:translateX(-6923px)}20.12%{transform:translateX(-7224px)}20.95%{transform:translateX(-7525px)}20.97%{transform:translateX(-7826px)}30.79%{transform:translateX(-8127px)}30.86%{transform:translateX(-8428px)}32.62%{transform:translateX(-8729px)}33.43%{transform:translateX(-9030px)}34.26%{transform:translateX(-9331px)}35.08%{transform:translateX(-9632px)}35.92%{transform:translateX(-9933px)}36.79%{transform:translateX(-10234px)}37.60%{transform:translateX(-10535px)}38.43%{transform:translateX(-10836px)}39.26%{transform:translateX(-11137px)}40.06%{transform:translateX(-11438px)}40.89%{transform:translateX(-11739px)}41.74%{transform:translateX(-12040px)}42.55%{transform:translateX(-12341px)}43.40%{transform:translateX(-12642px)}44.27%{transform:translateX(-12943px)}45.13%{transform:translateX(-13244px)}45.91%{transform:translateX(-13545px)}46.76%{transform:translateX(-13846px)}47.61%{transform:translateX(-14147px)}48.42%{transform:translateX(-14448px)}49.30%{transform:translateX(-14749px)}50.15%{transform:translateX(-15050px)}50.91%{transform:translateX(-15351px)}50.93%{transform:translateX(-15652px)}}.a{fill:#0a0a1a}.c{fill:#ff66ff;stroke:#ff66ff}.d{fill:#00ff9f;stroke:#00ff9f}path[fill="none"]{fill:none}path[shape-rendering="crispEdges"]{stroke:none}text{font-family:'SF Mono',Monaco,Consolas,Menlo,monospace;font-size:16px;dominant-baseline:text-before-edge;white-space:pre;}text[class]{stroke:none}.bold{font-weight:700}.italic{font-style:italic}.uline{text-decoration:underline}.strike{text-decoration:line-through}.dim{opacity:0.5}@keyframes blink{0%,50%{opacity:1}50.01%,100%{opacity:0}}.cursor{animation:blink 1s step-end infinite;mix-blend-mode:difference}.cursor-active{opacity:1;mix-blend-mode:difference}</style><g transform="translate(0,0)"><rect width="301" height="148" rx="8" fill="#0a0a1a"/><rect width="301" height="40" rx="8" fill="#0a0a1a"/><path d="M0 32h301v8H0z" fill="#0a0a1a"/><circle cx="16" cy="20" r="6" fill="#ff5f56"/><circle cx="36" cy="20" r="6" fill="#ffbd2e"/><circle cx="56" cy="20" r="6" fill="#27c93f"/><clipPath id="content-clip"><path d="M0 40h301v108H0z" /></clipPath><g clip-path="url(#content-clip)"><g style="animation:f 6.138s steps(1,end) infinite"><g transform="translate(0,0)"><use xlink:href="#1"/><path d="M35.2 56h9.6v22.4H35.2z" fill="#f0f" class="cursor"/></g><g transform="translate(301,0)"><use xlink:href="#2"/><path d="M44.8 56h9.6v22.4H44.8z" fill="#f0f" class="cursor-active"/></g><g transform="translate(602,0)"><use xlink:href="#3"/><path d="M54.4 56h9.6v22.4H54.4z" fill="#f0f" class="cursor-active"/></g><g transform="translate(903,0)"><use xlink:href="#4"/><path d="M64 56h9.6v22.4H64z" fill="#f0f" class="cursor-active"/></g><g transform="translate(1204,0)"><use xlink:href="#5"/><path d="M73.6 56h9.6v22.4H73.6z" fill="#f0f" class="cursor-active"/></g><g transform="translate(1505,0)"><use xlink:href="#5"/><path d="M83.2 56h9.6v22.4H83.2z" fill="#f0f" class="cursor-active"/></g><g transform="translate(1806,0)"><use xlink:href="#6"/><path d="M92.8 56h9.6v22.4H92.8z" fill="#f0f" class="cursor-active"/></g><g transform="translate(2107,0)"><use xlink:href="#7"/><path d="M102.4 56h9.6v22.4H102.4z" fill="#f0f" class="cursor-active"/></g><g transform="translate(2408,0)"><use xlink:href="#8"/><path d="M112 56h9.6v22.4H112z" fill="#f0f" class="cursor-active"/></g><g transform="translate(2709,0)"><use xlink:href="#9"/><path d="M121.6 56h9.6v22.4H121.6z" fill="#f0f" class="cursor-active"/></g><g transform="translate(3010,0)"><use xlink:href="#10"/><path d="M131.2 56h9.6v22.4H131.2z" fill="#f0f" class="cursor-active"/></g><g transform="translate(3311,0)"><use xlink:href="#11"/><path d="M140.8 56h9.6v22.4H140.8z" fill="#f0f" class="cursor-active"/></g><g transform="translate(3612,0)"><use xlink:href="#12"/><path d="M150.4 56h9.6v22.4H150.4z" fill="#f0f" class="cursor-active"/></g><g transform="translate(3913,0)"><use xlink:href="#12"/><path d="M160 56h9.6v22.4H160z" fill="#f0f" class="cursor-active"/></g><g transform="translate(4214,0)"><use xlink:href="#13"/><path d="M169.6 56h9.6v22.4H169.6z" fill="#f0f" class="cursor-active"/></g><g transform="translate(4515,0)"><use xlink:href="#14"/><path d="M179.2 56h9.6v22.4H179.2z" fill="#f0f" class="cursor-active"/></g><g transform="translate(4816,0)"><use xlink:href="#15"/><path d="M188.8 56h9.6v22.4H188.8z" fill="#f0f" class="cursor-active"/></g><g transform="translate(5117,0)"><use xlink:href="#16"/><path d="M198.4 56h9.6v22.4H198.4z" fill="#f0f" class="cursor-active"/></g><g transform="translate(5418,0)"><use xlink:href="#16"/><path d="M208 56h9.6v22.4H208z" fill="#f0f" class="cursor-active"/></g><g transform="translate(5719,0)"><use xlink:href="#17"/><path d="M217.6 56h9.6v22.4H217.6z" fill="#f0f" class="cursor-active"/></g><g transform="translate(6020,0)"><use xlink:href="#18"/><path d="M227.2 56h9.6v22.4H227.2z" fill="#f0f" class="cursor-active"/></g><g transform="translate(6321,0)"><use xlink:href="#19"/><path d="M236.8 56h9.6v22.4H236.8z" fill="#f0f" class="cursor-active"/></g><g transform="translate(6622,0)"><use xlink:href="#20"/><path d="M246.4 56h9.6v22.4H246.4z" fill="#f0f" class="cursor-active"/></g><g transform="translate(6923,0)"><use xlink:href="#21"/><path d="M256 56h9.6v22.4H256z" fill="#f0f" class="cursor-active"/></g><g transform="translate(7224,0)"><use xlink:href="#22"/><path d="M265.6 56h9.6v22.4H265.6z" fill="#f0f" class="cursor-active"/></g><g transform="translate(7525,0)"><use xlink:href="#23"/><path d="M275.2 56h9.6v22.4H275.2z" fill="#f0f" class="cursor-active"/></g><g transform="translate(7826,0)"><use xlink:href="#23"/><path d="M275.2 56h9.6v22.4H275.2z" fill="#f0f" class="cursor"/></g><g transform="translate(8127,0)"><use xlink:href="#23"/></g><g transform="translate(8428,0)"><use xlink:href="#23"/><use xlink:href="#24"/></g><g transform="translate(8729,0)"><use xlink:href="#23"/><use xlink:href="#24"/><use xlink:href="#25"/><path d="M35.2 100.8h9.6v22.4H35.2z" fill="#f0f" class="cursor"/></g><g transform="translate(9030,0)"><use xlink:href="#23"/><use xlink:href="#24"/><use xlink:href="#26"/><path d="M44.8 100.8h9.6v22.4H44.8z" fill="#f0f" class="cursor-active"/></g><g transform="translate(9331,0)"><use xlink:href="#23"/><use xlink:href="#24"/><use xlink:href="#27"/><path d="M54.4 100.8h9.6v22.4H54.4z" fill="#f0f" class="cursor-active"/></g><g transform="translate(9632,0)"><use xlink:href="#23"/><use xlink:href="#24"/><use xlink:href="#28"/><path d="M64 100.8h9.6v22.4H64z" fill="#f0f" class="cursor-active"/></g><g transform="translate(9933,0)"><use xlink:href="#23"/><use xlink:href="#24"/><use xlink:href="#29"/><path d="M73.6 100.8h9.6v22.4H73.6z" fill="#f0f" class="cursor-active"/></g><g transform="translate(10234,0)"><use xlink:href="#23"/><use xlink:href="#24"/><use xlink:href="#29"/><path d="M83.2 100.8h9.6v22.4H83.2z" fill="#f0f" class="cursor-active"/></g><g transform="translate(10535,0)"><use xlink:href="#23"/><use xlink:href="#24"/><use xlink:href="#30"/><path d="M92.8 100.8h9.6v22.4H92.8z" fill="#f0f" class="cursor-active"/></g><g transform="translate(10836,0)"><use xlink:href="#23"/><use xlink:href="#24"/><use xlink:href="#31"/><path d="M102.4 100.8h9.6v22.4H102.4z" fill="#f0f" class="cursor-active"/></g><g transform="translate(11137,0)"><use xlink:href="#23"/><use xlink:href="#24"/><use xlink:href="#31"/><path d="M112 100.8h9.6v22.4H112z" fill="#f0f" class="cursor-active"/></g><g transform="translate(11438,0)"><use xlink:href="#23"/><use xlink:href="#24"/><use xlink:href="#32"/><path d="M121.6 100.8h9.6v22.4H121.6z" fill="#f0f" class="cursor-active"/></g><g transform="translate(11739,0)"><use xlink:href="#23"/><use xlink:href="#24"/><use xlink:href="#32"/><path d="M131.2 100.8h9.6v22.4H131.2z" fill="#f0f" class="cursor-active"/></g><g transform="translate(12040,0)"><use xlink:href="#23"/><use xlink:href="#24"/><use xlink:href="#33"/><path d="M140.8 100.8h9.6v22.4H140.8z" fill="#f0f" class="cursor-active"/></g><g transform="translate(12341,0)"><use xlink:href="#23"/><use xlink:href="#24"/><use xlink:href="#34"/><path d="M150.4 100.8h9.6v22.4H150.4z" fill="#f0f" class="cursor-active"/></g><g transform="translate(12642,0)"><use xlink:href="#23"/><use xlink:href="#24"/><use xlink:href="#35"/><path d="M160 100.8h9.6v22.4H160z" fill="#f0f" class="cursor-active"/></g><g transform="translate(12943,0)"><use xlink:href="#23"/><use xlink:href="#24"/><use xlink:href="#36"/><path d="M169.6 100.8h9.6v22.4H169.6z" fill="#f0f" class="cursor-active"/></g><g transform="translate(13244,0)"><use xlink:href="#23"/><use xlink:href="#24"/><use xlink:href="#37"/><path d="M179.2 100.8h9.6v22.4H179.2z" fill="#f0f" class="cursor-active"/></g><g transform="translate(13545,0)"><use xlink:href="#23"/><use xlink:href="#24"/><use xlink:href="#38"/><path d="M188.8 100.8h9.6v22.4H188.8z" fill="#f0f" class="cursor-active"/></g><g transform="translate(13846,0)"><use xlink:href="#23"/><use xlink:href="#24"/><use xlink:href="#38"/><path d="M198.4 100.8h9.6v22.4H198.4z" fill="#f0f" class="cursor-active"/></g><g transform="translate(14147,0)"><use xlink:href="#23"/><use xlink:href="#24"/><use xlink:href="#39"/><path d="M208 100.8h9.6v22.4H208z" fill="#f0f" class="cursor-active"/></g><g transform="translate(14448,0)"><use xlink:href="#23"/><use xlink:href="#24"/><use xlink:href="#40"/><path d="M217.6 100.8h9.6v22.4H217.6z" fill="#f0f" class="cursor-active"/></g><g transform="translate(14749,0)"><use xlink:href="#23"/><use xlink:href="#24"/><use xlink:href="#41"/><path d="M227.2 100.8h9.6v22.4H227.2z" fill="#f0f" class="cursor-active"/></g><g transform="translate(15050,0)"><use xlink:href="#23"/><use xlink:href="#24"/><use xlink:href="#42"/><path d="M236.8 100.8h9.6v22.4H236.8z" fill="#f0f" class="cursor-active"/></g><g transform="translate(15351,0)"><use xlink:href="#23"/><use xlink:href="#24"/><use xlink:href="#43"/><path d="M246.4 100.8h9.6v22.4H246.4z" fill="#f0f" class="cursor-active"/></g><g transform="translate(15652,0)"><use xlink:href="#23"/><use xlink:href="#24"/><use xlink:href="#43"/><path d="M246.4 100.8h9.6v22.4H246.4z" fill="#f0f" class="cursor"/></g></g></g></g></svg>