<svg xmlns="http://www.w3.org/2000/svg" xmlns:xlink="http://www.w3.org/1999/xlink" width="402" height="178" viewBox="0 0 402 178"><defs><symbol id="1"><text x="16" y="57.1" class="c">❯</text></symbol><symbol id="2"><text x="16" y="57.1" class="c">❯ </text><text x="32.8" y="57.1" class="d">e</text></symbol><symbol id="3"><text x="16" y="57.1" class="c">❯ </text><text x="32.8" y="57.1" class="d">ec</text></symbol><symbol id="4"><text x="16" y="57.1" class="c">❯ </text><text x="32.8" y="57.1" class="d">ech</text></symbol><symbol id="5"><text x="16" y="57.1" class="c">❯ </text><text x="32.8" y="57.1" class="d">echo</text></symbol><symbol id="6"><text x="16" y="57.1" class="c">❯ </text><text x="32.8" y="57.1" class="d">echo &apos;</text></symbol><symbol id="7"><text x="16" y="57.1" class="c">❯ </text><text x="32.8" y="57.1" class="d">echo &apos;W</text></symbol><symbol id="8"><text x="16" y="57.1" class="c">❯ </text><text x="32.8" y="57.1" class="d">echo &apos;We</text></symbol><symbol id="9"><text x="16" y="57.1" class="c">❯ </text><text x="32.8" y="57.1" class="d">echo &apos;Wel</text></symbol><symbol id="10"><text x="16" y="57.1" class="c">❯ </text><text x="32.8" y="57.1" class="d">echo &apos;Welc</text></symbol><symbol id="11"><text x="16" y="57.1" class="c">❯ </text><text x="32.8" y="57.1" class="d">echo &apos;Welco</text></symbol><symbol id="12"><text x="16" y="57.1" class="c">❯ </text><text x="32.8" y="57.1" class="d">echo &apos;Welcom</text></symbol><symbol id="13"><text x="16" y="57.1" class="c">❯ </text><text x="32.8" y="57.1" class="d">echo &apos;Welcome</text></symbol><symbol id="14"><text x="16" y="57.1" class="c">❯ </text><text x="32.8" y="57.1" class="d">echo &apos;Welcome t</text></symbol><symbol id="15"><text x="16" y="57.1" class="c">❯ </text><text x="32.8" y="57.1" class="d">echo &apos;Welcome to</text></symbol><symbol id="16"><text x="16" y="57.1" class="c">❯ </text><text x="32.8" y="57.1" class="d">echo &apos;Welcome to t</text></symbol><symbol id="17"><text x="16" y="57.1" class="c">❯ </text><text x="32.8" y="57.1" class="d">echo &apos;Welcome to th</text></symbol><symbol id="18"><text x="16" y="57.1" class="c">❯ </text><text x="32.8" y="57.1" class="d">echo &apos;Welcome to the</text></symbol><symbol id="19"><text x="16" y="57.1" class="c">❯ </text><text x="32.8" y="57.1" class="d">echo &apos;Welcome to the g</text></symbol><symbol id="20"><text x="16" y="57.1" class="c">❯ </text><text x="32.8" y="57.1" class="d">echo &apos;Welcome to the gr</text></symbol><symbol id="21"><text x="16" y="57.1" class="c">❯ </text><text x="32.8" y="57.1" class="d">echo &apos;Welcome to the gru</text></symbol><symbol id="22"><text x="16" y="57.1" class="c">❯ </text><text x="32.8" y="57.1" class="d">echo &apos;Welcome to the gruv</text></symbol><symbol id="23"><text x="16" y="57.1" class="c">❯ </text><text x="32.8" y="57.1" class="d">echo &apos;Welcome to the gruvb</text></symbol><symbol id="24"><text x="16" y="57.1" class="c">❯ </text><text x="32.8" y="57.1" class="d">echo &apos;Welcome to the gruvbo</text></symbol><symbol id="25"><text x="16" y="57.1" class="c">❯ </text><text x="32.8" y="57.1" class="d">echo &apos;Welcome to the gruvbox</text></symbol><symbol id="26"><text x="16" y="57.1" class="c">❯ </text><text x="32.8" y="57.1" class="d">echo &apos;Welcome to the gruvboxL</text></symbol><symbol id="27"><text x="16" y="57.1" class="c">❯ </text><text x="32.8" y="57.1" class="d">echo &apos;Welcome to the gruvboxLi</text></symbol><symbol id="28"><text x="16" y="57.1" class="c">❯ </text><text x="32.8" y="57.1" class="d">echo &apos;Welcome to the gruvboxLig</text></symbol><symbol id="29"><text x="16" y="57.1" class="c">❯ </text><text x="32.8" y="57.1" class="d">echo &apos;Welcome to the gruvboxLigh</text></symbol><symbol id="30"><text x="16" y="57.1" class="c">❯ </text><text x="32.8" y="57.1" class="d">echo &apos;Welcome to the gruvboxLight</text></symbol><symbol id="31"><text x="16" y="57.1" class="c">❯ </text><text x="32.8" y="57.1" class="d">echo &apos;Welcome to the gruvboxLight t</text></symbol><symbol id="32"><text x="16" y="57.1" class="c">❯ </text><text x="32.8" y="57.1" class="d">echo &apos;Welcome to the gruvboxLight th</text></symbol><symbol id="33"><text x="16" y="57.1" class="c">❯ </text><text x="32.8" y="57.1" class="d">echo &apos;Welcome to the gruvboxLight the</text></symbol><symbol id="34"><text x="16" y="57.1" class="c">❯ </text><text x="32.8" y="57.1" class="d">echo &apos;Welcome to the gruvboxLight them</text></symbol><symbol id="35"><text x="16" y="57.1" class="c">❯ </text><text x="32.8" y="57.1" class="d">echo &apos;Welcome to the gruvboxLight theme</text></symbol><symbol id="36"><text x="16" y="57.1" class="c">❯ </text><text x="32.8" y="57.1" class="d">echo &apos;Welcome to the gruvboxLight theme!</text></symbol><symbol id="37"><text x="16" y="57.1" class="c">❯ </text><text x="32.8" y="57.1" class="d">echo &apos;Welcome to the gruvboxLight theme!&apos;</text></symbol><symbol id="38"><text x="16" y="76.7" class="d">Welcome to the gruvboxLight theme!</text></symbol><symbol id="39"><text x="16" y="96.3" class="c">❯</text></symbol><symbol id="40"><text x="16" y="96.3" class="c">❯ </text><text x="32.8" y="96.3" class="d">e</text></symbol><symbol id="41"><text x="16" y="96.3" class="c">❯ </text><text x="32.8" y="96.3" class="d">ec</text></symbol><symbol id="42"><text x="16" y="96.3" class="c">❯ </text><text x="32.8" y="96.3" class="d">ech</text></symbol><symbol id="43"><text x="16" y="96.3" class="c">❯ </text><text x="32.8" y="96.3" class="d">echo</text></symbol><symbol id="44"><text x="16" y="96.3" class="c">❯ </text><text x="32.8" y="96.3" class="d">echo &apos;</text></symbol><symbol id="45"><text x="16" y="96.3" class="c">❯ </text><text x="32.8" y="96.3" class="d">echo &apos;T</text></symbol><symbol id="46"><text x="16" y="96.3" class="c">❯ </text><text x="32.8" y="96.3" class="d">echo &apos;Th</text></symbol><symbol id="47"><text x="16" y="96.3" class="c">❯ </text><text x="32.8" y="96.3" class="d">echo &apos;Thi</text></symbol><symbol id="48"><text x="16" y="96.3" class="c">❯ </text><text x="32.8" y="96.3" class="d">echo &apos;This</text></symbol><symbol id="49"><text x="16" y="96.3" class="c">❯ </text><text x="32.8" y="96.3" class="d">echo &apos;This i</text></symbol><symbol id="50"><text x="16" y="96.3" class="c">❯ </text><text x="32.8" y="96.3" class="d">echo &apos;This is</text></symbol><symbol id="51"><text x="16" y="96.3" class="c">❯ </text><text x="32.8" y="96.3" class="d">echo &apos;This is h</text></symbol><symbol id="52"><text x="16" y="96.3" class="c">❯ </text><text x="32.8" y="96.3" class="d">echo &apos;This is ho</text></symbol><symbol id="53"><text x="16" y="96.3" class="c">❯ </text><text x="32.8" y="96.3" class="d">echo &apos;This is how</text></symbol><symbol id="54"><text x="16" y="96.3" class="c">❯ </text><text x="32.8" y="96.3" class="d">echo &apos;This is how y</text></symbol><symbol id="55"><text x="16" y="96.3" class="c">❯ </text><text x="32.8" y="96.3" class="d">echo &apos;This is how yo</text></symbol><symbol id="56"><text x="16" y="96.3" class="c">❯ </text><text x="32.8" y="96.3" class="d">echo &apos;This is how you</text></symbol><symbol id="57"><text x="16" y="96.3" class="c">❯ </text><text x="32.8" y="96.3" class="d">echo &apos;This is how your</text></symbol><symbol id="58"><text x="16" y="96.3" class="c">❯ </text><text x="32.8" y="96.3" class="d">echo &apos;This is how your t</text></symbol><symbol id="59"><text x="16" y="96.3" class="c">❯ </text><text x="32.8" y="96.3" class="d">echo &apos;This is how your te</text></symbol><symbol id="60"><text x="16" y="96.3" class="c">❯ </text><text x="32.8" y="96.3" class="d">echo &apos;This is how your ter</text></symbol><symbol id="61"><text x="16" y="96.3" class="c">❯ </text><text x="32.8" y="96.3" class="d">echo &apos;This is how your term</text></symbol><symbol id="62"><text x="16" y="96.3" class="c">❯ </text><text x="32.8" y="96.3" class="d">echo &apos;This is how your termi</text></symbol><symbol id="63"><text x="16" y="96.3" class="c">❯ </text><text x="32.8" y="96.3" class="d">echo &apos;This is how your termin</text></symbol><symbol id="64"><text x="16" y="96.3" class="c">❯ </text><text x="32.8" y="96.3" class="d">echo &apos;This is how your termina</text></symbol><symbol id="65"><text x="16" y="96.3" class="c">❯ </text><text x="32.8" y="96.3" class="d">echo &apos;This is how your terminal</text></symbol><symbol id="66"><text x="16" y="96.3" class="c">❯ </text><text x="32.8" y="96.3" class="d">echo &apos;This is how your terminal l</text></symbol><symbol id="67"><text x="16" y="96.3" class="c">❯ </text><text x="32.8" y="96.3" class="d">echo &apos;This is how your terminal lo</text></symbol><symbol id="68"><text x="16" y="96.3" class="c">❯ </text><text x="32.8" y="96.3" class="d">echo &apos;This is how your terminal loo</text></symbol><symbol id="69"><text x="16" y="96.3" class="c">❯ </text><text x="32.8" y="96.3" class="d">echo &apos;This is how your terminal look</text></symbol><symbol id="70"><text x="16" y="96.3" class="c">❯ </text><text x="32.8" y="96.3" class="d">echo &apos;This is how your terminal looks</text></symbol><symbol id="71"><text x="16" y="96.3" class="c">❯ </text><text x="32.8" y="96.3" class="d">echo &apos;This is how your terminal looks.</text></symbol><symbol id="72"><text x="16" y="96.3" class="c">❯ </text><text x="32.8" y="96.3" class="d">echo &apos;This is how your terminal looks.&apos;</text></symbol><symbol id="73"><text x="16" y="115.9" class="d">This is how your terminal looks.</text></symbol><symbol id="74"><text x="16" y="135.5" class="c">❯</text></symbol></defs><style>@keyframes f{0.09%{transform:translateX(0px)}0.57%{transform:translateX(-402px)}1.05%{transform:translateX(-804px)}1.51%{transform:translateX(-1206px)}1.98%{transform:translateX(-1608px)}2.46%{transform:translateX(-2010px)}2.92%{transform:translateX(-2412px)}3.39%{transform:translateX(-2814px)}3.87%{transform:translateX(-3216px)}4.34%{transform:translateX(-3618px)}4.81%{transform:translateX(-4020px)}5.29%{transform:translateX(-4422px)}5.77%{transform:translateX(-4824px)}6.25%{transform:translateX(-5226px)}6.73%{transform:translateX(-5628px)}7.22%{transform:translateX(-6030px)}7.69%{transform:translateX(-6432px)}8.16%{transform:translateX(-6834px)}8.62%{transform:translateX(-7236px)}9.09%{transform:translateX(-7638px)}9.59%{transform:translateX(-8040px)}10.06%{transform:translateX(-8442px)}10.52%{transform:translateX(-8844px)}10.99%{transform:translateX(-9246px)}11.47%{transform:translateX(-9648px)}11.94%{transform:translateX(-10050px)}12.42%{transform:translateX(-10452px)}12.89%{transform:translateX(-10854px)}13.37%{transform:translateX(-11256px)}13.84%{transform:translateX(-11658px)}14.32%{transform:translateX(-12060px)}14.80%{transform:translateX(-12462px)}15.28%{transform:translateX(-12864px)}15.74%{transform:translateX(-13266px)}16.23%{transform:translateX(-13668px)}16.71%{transform:translateX(-14070px)}17.20%{transform:translateX(-14472px)}17.67%{transform:translateX(-14874px)}18.12%{transform:translateX(-15276px)}18.61%{transform:translateX(-15678px)}19.08%{transform:translateX(-16080px)}19.57%{transform:translateX(-16482px)}19.58%{transform:translateX(-16884px)}23.43%{transform:translateX(-17286px)}23.44%{transform:translateX(-17688px)}24.53%{transform:translateX(-18090px)}29.72%{transform:translateX(-18492px)}30.19%{transform:translateX(-18894px)}30.67%{transform:translateX(-19296px)}31.14%{transform:translateX(-19698px)}31.63%{transform:translateX(-20100px)}32.10%{transform:translateX(-20502px)}32.60%{transform:translateX(-20904px)}33.08%{transform:translateX(-21306px)}33.55%{transform:translateX(-21708px)}34.01%{transform:translateX(-22110px)}34.50%{transform:translateX(-22512px)}34.99%{transform:translateX(-22914px)}35.46%{transform:translateX(-23316px)}35.89%{transform:translateX(-23718px)}36.38%{transform:translateX(-24120px)}36.86%{transform:translateX(-24522px)}37.30%{transform:translateX(-24924px)}37.76%{transform:translateX(-25326px)}38.22%{transform:translateX(-25728px)}38.69%{transform:translateX(-26130px)}39.17%{transform:translateX(-26532px)}39.63%{transform:translateX(-26934px)}40.11%{transform:translateX(-27336px)}40.60%{transform:translateX(-27738px)}41.06%{transform:translateX(-28140px)}41.54%{transform:translateX(-28542px)}42.00%{transform:translateX(-28944px)}42.49%{transform:translateX(-29346px)}42.97%{transform:translateX(-29748px)}43.43%{transform:translateX(-30150px)}43.89%{transform:translateX(-30552px)}44.37%{transform:translateX(-30954px)}44.84%{transform:translateX(-31356px)}45.34%{transform:translateX(-31758px)}45.79%{transform:translateX(-32160px)}46.26%{transform:translateX(-32562px)}46.74%{transform:translateX(-32964px)}47.22%{transform:translateX(-33366px)}47.70%{transform:translateX(-33768px)}47.71%{transform:translateX(-34170px)}50.23%{transform:translateX(-34572px)}50.80%{transform:translateX(-34974px)}51.36%{transform:translateX(-35376px)}51.92%{transform:translateX(-35778px)}52.50%{transform:translateX(-36180px)}53.03%{transform:translateX(-36582px)}53.56%{transform:translateX(-36984px)}54.07%{transform:translateX(-37386px)}54.58%{transform:translateX(-37788px)}55.10%{transform:translateX(-38190px)}55.61%{transform:translateX(-38592px)}56.12%{transform:translateX(-38994px)}56.64%{transform:translateX(-39396px)}57.16%{transform:translateX(-39798px)}57.67%{transform:translateX(-40200px)}58.19%{transform:translateX(-40602px)}58.71%{transform:translateX(-41004px)}59.23%{transform:translateX(-41406px)}59.77%{transform:translateX(-41808px)}60.30%{transform:translateX(-42210px)}60.84%{transform:translateX(-42612px)}61.40%{transform:translateX(-43014px)}61.94%{transform:translateX(-43416px)}62.49%{transform:translateX(-43818px)}63.07%{transform:translateX(-44220px)}63.14%{transform:translateX(-44622px)}70.89%{transform:translateX(-45024px)}70.89%{transform:translateX(-45426px)}71.93%{transform:translateX(-45828px)}}.a{fill:#fbf1c7}.c{fill:#8f3f71;stroke:#8f3f71}.d{fill:#3c3836;stroke:#3c3836}path[fill="none"]{fill:none}path[shape-rendering="crispEdges"]{stroke:none}text{font-family:'SF Mono',Monaco,Consolas,Menlo,monospace;font-size:14px;dominant-baseline:text-before-edge;white-space:pre;}text[class]{stroke:none}.bold{font-weight:700}.italic{font-style:italic}.uline{text-decoration:underline}.strike{text-decoration:line-through}.dim{opacity:0.5}@keyframes blink{0%,50%{opacity:1}50.01%,100%{opacity:0}}.cursor{animation:blink 1s step-end infinite;mix-blend-mode:difference}.cursor-active{opacity:1;mix-blend-mode:difference}</style><g transform="translate(0,0)"><rect width="402" height="178" rx="8" fill="#fbf1c7"/><rect width="402" height="40" rx="8" fill="#fbf1c7"/><path d="M0 32h402v8H0z" fill="#fbf1c7"/><circle cx="16" cy="20" r="6" fill="#ff5f56"/><circle cx="36" cy="20" r="6" fill="#ffbd2e"/><circle cx="56" cy="20" r="6" fill="#27c93f"/><text x="201" y="20" text-anchor="middle" dominant-baseline="middle" fill="#3c3836" font-size="14">gruvboxLight</text><clipPath id="content-clip"><path d="M0 40h402v138H0z" /></clipPath><g clip-path="url(#content-clip)"><g style="animation:f 10.787s steps(1,end) infinite"><g transform="translate(0,0)"><use xlink:href="#1"/><path d="M32.8 56h8.4v19.6H32.8z" fill="#3c3836" class="cursor"/></g><g transform="translate(402,0)"><use xlink:href="#2"/><path d="M41.2 56h8.4v19.6H41.2z" fill="#3c3836" class="cursor-active"/></g><g transform="translate(804,0)"><use xlink:href="#3"/><path d="M49.6 56h8.4v19.6H49.6z" fill="#3c3836" class="cursor-active"/></g><g transform="translate(1206,0)"><use xlink:href="#4"/><path d="M58 56h8.4v19.6H58z" fill="#3c3836" class="cursor-active"/></g><g transform="translate(1608,0)"><use xlink:href="#5"/><path d="M66.4 56h8.4v19.6H66.4z" fill="#3c3836" class="cursor-active"/></g><g transform="translate(2010,0)"><use xlink:href="#5"/><path d="M74.8 56h8.4v19.6H74.8z" fill="#3c3836" class="cursor-active"/></g><g transform="translate(2412,0)"><use xlink:href="#6"/><path d="M83.2 56h8.4v19.6H83.2z" fill="#3c3836" class="cursor-active"/></g><g transform="translate(2814,0)"><use xlink:href="#7"/><path d="M91.6 56h8.4v19.6H91.6z" fill="#3c3836" class="cursor-active"/></g><g transform="translate(3216,0)"><use xlink:href="#8"/><path d="M100 56h8.4v19.6H100z" fill="#3c3836" class="cursor-active"/></g><g transform="translate(3618,0)"><use xlink:href="#9"/><path d="M108.4 56h8.4v19.6H108.4z" fill="#3c3836" class="cursor-active"/></g><g transform="translate(4020,0)"><use xlink:href="#10"/><path d="M116.8 56h8.4v19.6H116.8z" fill="#3c3836" class="cursor-active"/></g><g transform="translate(4422,0)"><use xlink:href="#11"/><path d="M125.2 56h8.4v19.6H125.2z" fill="#3c3836" class="cursor-active"/></g><g transform="translate(4824,0)"><use xlink:href="#12"/><path d="M133.6 56h8.4v19.6H133.6z" fill="#3c3836" class="cursor-active"/></g><g transform="translate(5226,0)"><use xlink:href="#13"/><path d="M142 56h8.4v19.6H142z" fill="#3c3836" class="cursor-active"/></g><g transform="translate(5628,0)"><use xlink:href="#13"/><path d="M150.4 56h8.4v19.6H150.4z" fill="#3c3836" class="cursor-active"/></g><g transform="translate(6030,0)"><use xlink:href="#14"/><path d="M158.8 56h8.4v19.6H158.8z" fill="#3c3836" class="cursor-active"/></g><g transform="translate(6432,0)"><use xlink:href="#15"/><path d="M167.2 56h8.4v19.6H167.2z" fill="#3c3836" class="cursor-active"/></g><g transform="translate(6834,0)"><use xlink:href="#15"/><path d="M175.6 56h8.4v19.6H175.6z" fill="#3c3836" class="cursor-active"/></g><g transform="translate(7236,0)"><use xlink:href="#16"/><path d="M184 56h8.4v19.6H184z" fill="#3c3836" class="cursor-active"/></g><g transform="translate(7638,0)"><use xlink:href="#17"/><path d="M192.4 56h8.4v19.6H192.4z" fill="#3c3836" class="cursor-active"/></g><g transform="translate(8040,0)"><use xlink:href="#18"/><path d="M200.8 56h8.4v19.6H200.8z" fill="#3c3836" class="cursor-active"/></g><g transform="translate(8442,0)"><use xlink:href="#18"/><path d="M209.2 56h8.4v19.6H209.2z" fill="#3c3836" class="cursor-active"/></g><g transform="translate(8844,0)"><use xlink:href="#19"/><path d="M217.6 56h8.4v19.6H217.6z" fill="#3c3836" class="cursor-active"/></g><g transform="translate(9246,0)"><use xlink:href="#20"/><path d="M226 56h8.4v19.6H226z" fill="#3c3836" class="cursor-active"/></g><g transform="translate(9648,0)"><use xlink:href="#21"/><path d="M234.4 56h8.4v19.6H234.4z" fill="#3c3836" class="cursor-active"/></g><g transform="translate(10050,0)"><use xlink:href="#22"/><path d="M242.8 56h8.4v19.6H242.8z" fill="#3c3836" class="cursor-active"/></g><g transform="translate(10452,0)"><use xlink:href="#23"/><path d="M251.2 56h8.4v19.6H251.2z" fill="#3c3836" class="cursor-active"/></g><g transform="translate(10854,0)"><use xlink:href="#24"/><path d="M259.6 56h8.4v19.6H259.6z" fill="#3c3836" class="cursor-active"/></g><g transform="translate(11256,0)"><use xlink:href="#25"/><path d="M268 56h8.4v19.6H268z" fill="#3c3836" class="cursor-active"/></g><g transform="translate(11658,0)"><use xlink:href="#26"/><path d="M276.4 56h8.4v19.6H276.4z" fill="#3c3836" class="cursor-active"/></g><g transform="translate(12060,0)"><use xlink:href="#27"/><path d="M284.8 56h8.4v19.6H284.8z" fill="#3c3836" class="cursor-active"/></g><g transform="translate(12462,0)"><use xlink:href="#28"/><path d="M293.2 56h8.4v19.6H293.2z" fill="#3c3836" class="cursor-active"/></g><g transform="translate(12864,0)"><use xlink:href="#29"/><path d="M301.6 56h8.4v19.6H301.6z" fill="#3c3836" class="cursor-active"/></g><g transform="translate(13266,0)"><use xlink:href="#30"/><path d="M310 56h8.4v19.6H310z" fill="#3c3836" class="cursor-active"/></g><g transform="translate(13668,0)"><use xlink:href="#30"/><path d="M318.4 56h8.4v19.6H318.4z" fill="#3c3836" class="cursor-active"/></g><g transform="translate(14070,0)"><use xlink:href="#31"/><path d="M326.8 56h8.4v19.6H326.8z" fill="#3c3836" class="cursor-active"/></g><g transform="translate(14472,0)"><use xlink:href="#32"/><path d="M335.2 56h8.4v19.6H335.2z" fill="#3c3836" class="cursor-active"/></g><g transform="translate(14874,0)"><use xlink:href="#33"/><path d="M343.6 56h8.4v19.6H343.6z" fill="#3c3836" class="cursor-active"/></g><g transform="translate(15276,0)"><use xlink:href="#34"/><path d="M352 56h8.4v19.6H352z" fill="#3c3836" class="cursor-active"/></g><g transform="translate(15678,0)"><use xlink:href="#35"/><path d="M360.4 56h8.4v19.6H360.4z" fill="#3c3836" class="cursor-active"/></g><g transform="translate(16080,0)"><use xlink:href="#36"/><path d="M368.8 56h8.4v19.6H368.8z" fill="#3c3836" class="cursor-active"/></g><g transform="translate(16482,0)"><use xlink:href="#37"/><path d="M377.2 56h8.4v19.6H377.2z" fill="#3c3836" class="cursor-active"/></g><g transform="translate(16884,0)"><use xlink:href="#37"/><path d="M377.2 56h8.4v19.6H377.2z" fill="#3c3836" class="cursor"/></g><g transform="translate(17286,0)"><use xlink:href="#37"/></g><g transform="translate(17688,0)"><use xlink:href="#37"/><use xlink:href="#38"/></g><g transform="translate(18090,0)"><use xlink:href="#37"/><use xlink:href="#38"/><use xlink:href="#39"/><path d="M32.8 95.2h8.4v19.6H32.8z" fill="#3c3836" class="cursor"/></g><g transform="translate(18492,0)"><use xlink:href="#37"/><use xlink:href="#38"/><use xlink:href="#40"/><path d="M41.2 95.2h8.4v19.6H41.2z" fill="#3c3836" class="cursor-active"/></g><g transform="translate(18894,0)"><use xlink:href="#37"/><use xlink:href="#38"/><use xlink:href="#41"/><path d="M49.6 95.2h8.4v19.6H49.6z" fill="#3c3836" class="cursor-active"/></g><g transform="translate(19296,0)"><use xlink:href="#37"/><use xlink:href="#38"/><use xlink:href="#42"/><path d="M58 95.2h8.4v19.6H58z" fill="#3c3836" class="cursor-active"/></g><g transform="translate(19698,0)"><use xlink:href="#37"/><use xlink:href="#38"/><use xlink:href="#43"/><path d="M66.4 95.2h8.4v19.6H66.4z" fill="#3c3836" class="cursor-active"/></g><g transform="translate(20100,0)"><use xlink:href="#37"/><use xlink:href="#38"/><use xlink:href="#43"/><path d="M74.8 95.2h8.4v19.6H74.8z" fill="#3c3836" class="cursor-active"/></g><g transform="translate(20502,0)"><use xlink:href="#37"/><use xlink:href="#38"/><use xlink:href="#44"/><path d="M83.2 95.2h8.4v19.6H83.2z" fill="#3c3836" class="cursor-active"/></g><g transform="translate(20904,0)"><use xlink:href="#37"/><use xlink:href="#38"/><use xlink:href="#45"/><path d="M91.6 95.2h8.4v19.6H91.6z" fill="#3c3836" class="cursor-active"/></g><g transform="translate(21306,0)"><use xlink:href="#37"/><use xlink:href="#38"/><use xlink:href="#46"/><path d="M100 95.2h8.4v19.6H100z" fill="#3c3836" class="cursor-active"/></g><g transform="translate(21708,0)"><use xlink:href="#37"/><use xlink:href="#38"/><use xlink:href="#47"/><path d="M108.4 95.2h8.4v19.6H108.4z" fill="#3c3836" class="cursor-active"/></g><g transform="translate(22110,0)"><use xlink:href="#37"/><use xlink:href="#38"/><use xlink:href="#48"/><path d="M116.8 95.2h8.4v19.6H116.8z" fill="#3c3836" class="cursor-active"/></g><g transform="translate(22512,0)"><use xlink:href="#37"/><use xlink:href="#38"/><use xlink:href="#48"/><path d="M125.2 95.2h8.4v19.6H125.2z" fill="#3c3836" class="cursor-active"/></g><g transform="translate(22914,0)"><use xlink:href="#37"/><use xlink:href="#38"/><use xlink:href="#49"/><path d="M133.6 95.2h8.4v19.6H133.6z" fill="#3c3836" class="cursor-active"/></g><g transform="translate(23316,0)"><use xlink:href="#37"/><use xlink:href="#38"/><use xlink:href="#50"/><path d="M142 95.2h8.4v19.6H142z" fill="#3c3836" class="cursor-active"/></g><g transform="translate(23718,0)"><use xlink:href="#37"/><use xlink:href="#38"/><use xlink:href="#50"/><path d="M150.4 95.2h8.4v19.6H150.4z" fill="#3c3836" class="cursor-active"/></g><g transform="translate(24120,0)"><use xlink:href="#37"/><use xlink:href="#38"/><use xlink:href="#51"/><path d="M158.8 95.2h8.4v19.6H158.8z" fill="#3c3836" class="cursor-active"/></g><g transform="translate(24522,0)"><use xlink:href="#37"/><use xlink:href="#38"/><use xlink:href="#52"/><path d="M167.2 95.2h8.4v19.6H167.2z" fill="#3c3836" class="cursor-active"/></g><g transform="translate(24924,0)"><use xlink:href="#37"/><use xlink:href="#38"/><use xlink:href="#53"/><path d="M175.6 95.2h8.4v19.6H175.6z" fill="#3c3836" class="cursor-active"/></g><g transform="translate(25326,0)"><use xlink:href="#37"/><use xlink:href="#38"/><use xlink:href="#53"/><path d="M184 95.2h8.4v19.6H184z" fill="#3c3836" class="cursor-active"/></g><g transform="translate(25728,0)"><use xlink:href="#37"/><use xlink:href="#38"/><use xlink:href="#54"/><path d="M192.4 95.2h8.4v19.6H192.4z" fill="#3c3836" class="cursor-active"/></g><g transform="translate(26130,0)"><use xlink:href="#37"/><use xlink:href="#38"/><use xlink:href="#55"/><path d="M200.8 95.2h8.4v19.6H200.8z" fill="#3c3836" class="cursor-active"/></g><g transform="translate(26532,0)"><use xlink:href="#37"/><use xlink:href="#38"/><use xlink:href="#56"/><path d="M209.2 95.2h8.4v19.6H209.2z" fill="#3c3836" class="cursor-active"/></g><g transform="translate(26934,0)"><use xlink:href="#37"/><use xlink:href="#38"/><use xlink:href="#57"/><path d="M217.6 95.2h8.4v19.6H217.6z" fill="#3c3836" class="cursor-active"/></g><g transform="translate(27336,0)"><use xlink:href="#37"/><use xlink:href="#38"/><use xlink:href="#57"/><path d="M226 95.2h8.4v19.6H226z" fill="#3c3836" class="cursor-active"/></g><g transform="translate(27738,0)"><use xlink:href="#37"/><use xlink:href="#38"/><use xlink:href="#58"/><path d="M234.4 95.2h8.4v19.6H234.4z" fill="#3c3836" class="cursor-active"/></g><g transform="translate(28140,0)"><use xlink:href="#37"/><use xlink:href="#38"/><use xlink:href="#59"/><path d="M242.8 95.2h8.4v19.6H242.8z" fill="#3c3836" class="cursor-active"/></g><g transform="translate(28542,0)"><use xlink:href="#37"/><use xlink:href="#38"/><use xlink:href="#60"/><path d="M251.2 95.2h8.4v19.6H251.2z" fill="#3c3836" class="cursor-active"/></g><g transform="translate(28944,0)"><use xlink:href="#37"/><use xlink:href="#38"/><use xlink:href="#61"/><path d="M259.6 95.2h8.4v19.6H259.6z" fill="#3c3836" class="cursor-active"/></g><g transform="translate(29346,0)"><use xlink:href="#37"/><use xlink:href="#38"/><use xlink:href="#62"/><path d="M268 95.2h8.4v19.6H268z" fill="#3c3836" class="cursor-active"/></g><g transform="translate(29748,0)"><use xlink:href="#37"/><use xlink:href="#38"/><use xlink:href="#63"/><path d="M276.4 95.2h8.4v19.6H276.4z" fill="#3c3836" class="cursor-active"/></g><g transform="translate(30150,0)"><use xlink:href="#37"/><use xlink:href="#38"/><use xlink:href="#64"/><path d="M284.8 95.2h8.4v19.6H284.8z" fill="#3c3836" class="cursor-active"/></g><g transform="translate(30552,0)"><use xlink:href="#37"/><use xlink:href="#38"/><use xlink:href="#65"/><path d="M293.2 95.2h8.4v19.6H293.2z" fill="#3c3836" class="cursor-active"/></g><g transform="translate(30954,0)"><use xlink:href="#37"/><use xlink:href="#38"/><use xlink:href="#65"/><path d="M301.6 95.2h8.4v19.6H301.6z" fill="#3c3836" class="cursor-active"/></g><g transform="translate(31356,0)"><use xlink:href="#37"/><use xlink:href="#38"/><use xlink:href="#66"/><path d="M310 95.2h8.4v19.6H310z" fill="#3c3836" class="cursor-active"/></g><g transform="translate(31758,0)"><use xlink:href="#37"/><use xlink:href="#38"/><use xlink:href="#67"/><path d="M318.4 95.2h8.4v19.6H318.4z" fill="#3c3836" class="cursor-active"/></g><g transform="translate(32160,0)"><use xlink:href="#37"/><use xlink:href="#38"/><use xlink:href="#68"/><path d="M326.8 95.2h8.4v19.6H326.8z" fill="#3c3836" class="cursor-active"/></g><g transform="translate(32562,0)"><use xlink:href="#37"/><use xlink:href="#38"/><use xlink:href="#69"/><path d="M335.2 95.2h8.4v19.6H335.2z" fill="#3c3836" class="cursor-active"/></g><g transform="translate(32964,0)"><use xlink:href="#37"/><use xlink:href="#38"/><use xlink:href="#70"/><path d="M343.6 95.2h8.4v19.6H343.6z" fill="#3c3836" class="cursor-active"/></g><g transform="translate(33366,0)"><use xlink:href="#37"/><use xlink:href="#38"/><use xlink:href="#71"/><path d="M352 95.2h8.4v19.6H352z" fill="#3c3836" class="cursor-active"/></g><g transform="translate(33768,0)"><use xlink:href="#37"/><use xlink:href="#38"/><use xlink:href="#72"/><path d="M360.4 95.2h8.4v19.6H360.4z" fill="#3c3836" class="cursor-active"/></g><g transform="translate(34170,0)"><use xlink:href="#37"/><use xlink:href="#38"/><use xlink:href="#72"/><path d="M360.4 95.2h8.4v19.6H360.4z" fill="#3c3836" class="cursor"/></g><g transform="translate(34572,0)"><use xlink:href="#37"/><use xlink:href="#38"/><use xlink:href="#72"/><path d="M352 95.2h8.4v19.6H352z" fill="#3c3836" class="cursor-active"/></g><g transform="translate(34974,0)"><use xlink:href="#37"/><use xlink:href="#38"/><use xlink:href="#72"/><path d="M343.6 95.2h8.4v19.6H343.6z" fill="#3c3836" class="cursor-active"/></g><g transform="translate(35376,0)"><use xlink:href="#37"/><use xlink:href="#38"/><use xlink:href="#72"/><path d="M335.2 95.2h8.4v19.6H335.2z" fill="#3c3836" class="cursor-active"/></g><g transform="translate(35778,0)"><use xlink:href="#37"/><use xlink:href="#38"/><use xlink:href="#72"/><path d="M326.8 95.2h8.4v19.6H326.8z" fill="#3c3836" class="cursor-active"/></g><g transform="translate(36180,0)"><use xlink:href="#37"/><use xlink:href="#38"/><use xlink:href="#72"/><path d="M318.4 95.2h8.4v19.6H318.4z" fill="#3c3836" class="cursor-active"/></g><g transform="translate(36582,0)"><use xlink:href="#37"/><use xlink:href="#38"/><use xlink:href="#72"/><path d="M310 95.2h8.4v19.6H310z" fill="#3c3836" class="cursor-active"/></g><g transform="translate(36984,0)"><use xlink:href="#37"/><use xlink:href="#38"/><use xlink:href="#72"/><path d="M301.6 95.2h8.4v19.6H301.6z" fill="#3c3836" class="cursor-active"/></g><g transform="translate(37386,0)"><use xlink:href="#37"/><use xlink:href="#38"/><use xlink:href="#72"/><path d="M293.2 95.2h8.4v19.6H293.2z" fill="#3c3836" class="cursor-active"/></g><g transform="translate(37788,0)"><use xlink:href="#37"/><use xlink:href="#38"/><use xlink:href="#72"/><path d="M284.8 95.2h8.4v19.6H284.8z" fill="#3c3836" class="cursor-active"/></g><g transform="translate(38190,0)"><use xlink:href="#37"/><use xlink:href="#38"/><use xlink:href="#72"/><path d="M276.4 95.2h8.4v19.6H276.4z" fill="#3c3836" class="cursor-active"/></g><g transform="translate(38592,0)"><use xlink:href="#37"/><use xlink:href="#38"/><use xlink:href="#72"/><path d="M268 95.2h8.4v19.6H268z" fill="#3c3836" class="cursor-active"/></g><g transform="translate(38994,0)"><use xlink:href="#37"/><use xlink:href="#38"/><use xlink:href="#72"/><path d="M259.6 95.2h8.4v19.6H259.6z" fill="#3c3836" class="cursor-active"/></g><g transform="translate(39396,0)"><use xlink:href="#37"/><use xlink:href="#38"/><use xlink:href="#72"/><path d="M251.2 95.2h8.4v19.6H251.2z" fill="#3c3836" class="cursor-active"/></g><g transform="translate(39798,0)"><use xlink:href="#37"/><use xlink:href="#38"/><use xlink:href="#72"/><path d="M242.8 95.2h8.4v19.6H242.8z" fill="#3c3836" class="cursor-active"/></g><g transform="translate(40200,0)"><use xlink:href="#37"/><use xlink:href="#38"/><use xlink:href="#72"/><path d="M234.4 95.2h8.4v19.6H234.4z" fill="#3c3836" class="cursor-active"/></g><g transform="translate(40602,0)"><use xlink:href="#37"/><use xlink:href="#38"/><use xlink:href="#72"/><path d="M226 95.2h8.4v19.6H226z" fill="#3c3836" class="cursor-active"/></g><g transform="translate(41004,0)"><use xlink:href="#37"/><use xlink:href="#38"/><use xlink:href="#72"/><path d="M217.6 95.2h8.4v19.6H217.6z" fill="#3c3836" class="cursor-active"/></g><g transform="translate(41406,0)"><use xlink:href="#37"/><use xlink:href="#38"/><use xlink:href="#72"/><path d="M209.2 95.2h8.4v19.6H209.2z" fill="#3c3836" class="cursor-active"/></g><g transform="translate(41808,0)"><use xlink:href="#37"/><use xlink:href="#38"/><use xlink:href="#72"/><path d="M200.8 95.2h8.4v19.6H200.8z" fill="#3c3836" class="cursor-active"/></g><g transform="translate(42210,0)"><use xlink:href="#37"/><use xlink:href="#38"/><use xlink:href="#72"/><path d="M192.4 95.2h8.4v19.6H192.4z" fill="#3c3836" class="cursor-active"/></g><g transform="translate(42612,0)"><use xlink:href="#37"/><use xlink:href="#38"/><use xlink:href="#72"/><path d="M184 95.2h8.4v19.6H184z" fill="#3c3836" class="cursor-active"/></g><g transform="translate(43014,0)"><use xlink:href="#37"/><use xlink:href="#38"/><use xlink:href="#72"/><path d="M184 95.2h8.4v19.6H184z" fill="#3c3836" opacity="0.5"/><path d="M192.4 95.2h8.4v19.6H192.4z" fill="#3c3836" class="cursor-active"/></g><g transform="translate(43416,0)"><use xlink:href="#37"/><use xlink:href="#38"/><use xlink:href="#72"/><path d="M184 95.2h16.8v19.6H184z" fill="#3c3836" opacity="0.5"/><path d="M200.8 95.2h8.4v19.6H200.8z" fill="#3c3836" class="cursor-active"/></g><g transform="translate(43818,0)"><use xlink:href="#37"/><use xlink:href="#38"/><use xlink:href="#72"/><path d="M184 95.2h25.2v19.6H184z" fill="#3c3836" opacity="0.5"/><path d="M209.2 95.2h8.4v19.6H209.2z" fill="#3c3836" class="cursor-active"/></g><g transform="translate(44220,0)"><use xlink:href="#37"/><use xlink:href="#38"/><use xlink:href="#72"/><path d="M184 95.2h33.6v19.6H184z" fill="#3c3836" opacity="0.5"/><path d="M217.6 95.2h8.4v19.6H217.6z" fill="#3c3836" class="cursor-active"/></g><g transform="translate(44622,0)"><use xlink:href="#37"/><use xlink:href="#38"/><use xlink:href="#72"/><path d="M184 95.2h33.6v19.6H184z" fill="#3c3836" opacity="0.5"/><path d="M217.6 95.2h8.4v19.6H217.6z" fill="#3c3836" class="cursor"/></g><g transform="translate(45024,0)"><use xlink:href="#37"/><use xlink:href="#38"/><use xlink:href="#72"/><path d="M184 95.2h33.6v19.6H184z" fill="#3c3836" opacity="0.5"/></g><g transform="translate(45426,0)"><use xlink:href="#37"/><use xlink:href="#38"/><use xlink:href="#72"/><use xlink:href="#73"/></g><g transform="translate(45828,0)"><use xlink:href="#37"/><use xlink:href="#38"/><use xlink:href="#72"/><use xlink:href="#73"/><use xlink:href="#74"/><path d="M32.8 134.4h8.4v19.6H32.8z" fill="#3c3836" class="cursor"/></g></g></g></g></svg>