<svg xmlns="http://www.w3.org/2000/svg" xmlns:xlink="http://www.w3.org/1999/xlink" width="385" height="178" viewBox="0 0 385 178"><defs><symbol id="1"><text x="16" y="57.1" class="c">❯</text></symbol><symbol id="2"><text x="16" y="57.1" class="c">❯ </text><text x="32.8" y="57.1" class="d">e</text></symbol><symbol id="3"><text x="16" y="57.1" class="c">❯ </text><text x="32.8" y="57.1" class="d">ec</text></symbol><symbol id="4"><text x="16" y="57.1" class="c">❯ </text><text x="32.8" y="57.1" class="d">ech</text></symbol><symbol id="5"><text x="16" y="57.1" class="c">❯ </text><text x="32.8" y="57.1" class="d">echo</text></symbol><symbol id="6"><text x="16" y="57.1" class="c">❯ </text><text x="32.8" y="57.1" class="d">echo &apos;</text></symbol><symbol id="7"><text x="16" y="57.1" class="c">❯ </text><text x="32.8" y="57.1" class="d">echo &apos;W</text></symbol><symbol id="8"><text x="16" y="57.1" class="c">❯ </text><text x="32.8" y="57.1" class="d">echo &apos;We</text></symbol><symbol id="9"><text x="16" y="57.1" class="c">❯ </text><text x="32.8" y="57.1" class="d">echo &apos;Wel</text></symbol><symbol id="10"><text x="16" y="57.1" class="c">❯ </text><text x="32.8" y="57.1" class="d">echo &apos;Welc</text></symbol><symbol id="11"><text x="16" y="57.1" class="c">❯ </text><text x="32.8" y="57.1" class="d">echo &apos;Welco</text></symbol><symbol id="12"><text x="16" y="57.1" class="c">❯ </text><text x="32.8" y="57.1" class="d">echo &apos;Welcom</text></symbol><symbol id="13"><text x="16" y="57.1" class="c">❯ </text><text x="32.8" y="57.1" class="d">echo &apos;Welcome</text></symbol><symbol id="14"><text x="16" y="57.1" class="c">❯ </text><text x="32.8" y="57.1" class="d">echo &apos;Welcome t</text></symbol><symbol id="15"><text x="16" y="57.1" class="c">❯ </text><text x="32.8" y="57.1" class="d">echo &apos;Welcome to</text></symbol><symbol id="16"><text x="16" y="57.1" class="c">❯ </text><text x="32.8" y="57.1" class="d">echo &apos;Welcome to t</text></symbol><symbol id="17"><text x="16" y="57.1" class="c">❯ </text><text x="32.8" y="57.1" class="d">echo &apos;Welcome to th</text></symbol><symbol id="18"><text x="16" y="57.1" class="c">❯ </text><text x="32.8" y="57.1" class="d">echo &apos;Welcome to the</text></symbol><symbol id="19"><text x="16" y="57.1" class="c">❯ </text><text x="32.8" y="57.1" class="d">echo &apos;Welcome to the m</text></symbol><symbol id="20"><text x="16" y="57.1" class="c">❯ </text><text x="32.8" y="57.1" class="d">echo &apos;Welcome to the mo</text></symbol><symbol id="21"><text x="16" y="57.1" class="c">❯ </text><text x="32.8" y="57.1" class="d">echo &apos;Welcome to the mon</text></symbol><symbol id="22"><text x="16" y="57.1" class="c">❯ </text><text x="32.8" y="57.1" class="d">echo &apos;Welcome to the mono</text></symbol><symbol id="23"><text x="16" y="57.1" class="c">❯ </text><text x="32.8" y="57.1" class="d">echo &apos;Welcome to the monok</text></symbol><symbol id="24"><text x="16" y="57.1" class="c">❯ </text><text x="32.8" y="57.1" class="d">echo &apos;Welcome to the monoka</text></symbol><symbol id="25"><text x="16" y="57.1" class="c">❯ </text><text x="32.8" y="57.1" class="d">echo &apos;Welcome to the monokai</text></symbol><symbol id="26"><text x="16" y="57.1" class="c">❯ </text><text x="32.8" y="57.1" class="d">echo &apos;Welcome to the monokai t</text></symbol><symbol id="27"><text x="16" y="57.1" class="c">❯ </text><text x="32.8" y="57.1" class="d">echo &apos;Welcome to the monokai th</text></symbol><symbol id="28"><text x="16" y="57.1" class="c">❯ </text><text x="32.8" y="57.1" class="d">echo &apos;Welcome to the monokai the</text></symbol><symbol id="29"><text x="16" y="57.1" class="c">❯ </text><text x="32.8" y="57.1" class="d">echo &apos;Welcome to the monokai them</text></symbol><symbol id="30"><text x="16" y="57.1" class="c">❯ </text><text x="32.8" y="57.1" class="d">echo &apos;Welcome to the monokai theme</text></symbol><symbol id="31"><text x="16" y="57.1" class="c">❯ </text><text x="32.8" y="57.1" class="d">echo &apos;Welcome to the monokai theme!</text></symbol><symbol id="32"><text x="16" y="57.1" class="c">❯ </text><text x="32.8" y="57.1" class="d">echo &apos;Welcome to the monokai theme!&apos;</text></symbol><symbol id="33"><text x="16" y="76.7" class="d">Welcome to the monokai theme!</text></symbol><symbol id="34"><text x="16" y="96.3" class="c">❯</text></symbol><symbol id="35"><text x="16" y="96.3" class="c">❯ </text><text x="32.8" y="96.3" class="d">e</text></symbol><symbol id="36"><text x="16" y="96.3" class="c">❯ </text><text x="32.8" y="96.3" class="d">ec</text></symbol><symbol id="37"><text x="16" y="96.3" class="c">❯ </text><text x="32.8" y="96.3" class="d">ech</text></symbol><symbol id="38"><text x="16" y="96.3" class="c">❯ </text><text x="32.8" y="96.3" class="d">echo</text></symbol><symbol id="39"><text x="16" y="96.3" class="c">❯ </text><text x="32.8" y="96.3" class="d">echo &apos;</text></symbol><symbol id="40"><text x="16" y="96.3" class="c">❯ </text><text x="32.8" y="96.3" class="d">echo &apos;T</text></symbol><symbol id="41"><text x="16" y="96.3" class="c">❯ </text><text x="32.8" y="96.3" class="d">echo &apos;Th</text></symbol><symbol id="42"><text x="16" y="96.3" class="c">❯ </text><text x="32.8" y="96.3" class="d">echo &apos;Thi</text></symbol><symbol id="43"><text x="16" y="96.3" class="c">❯ </text><text x="32.8" y="96.3" class="d">echo &apos;This</text></symbol><symbol id="44"><text x="16" y="96.3" class="c">❯ </text><text x="32.8" y="96.3" class="d">echo &apos;This i</text></symbol><symbol id="45"><text x="16" y="96.3" class="c">❯ </text><text x="32.8" y="96.3" class="d">echo &apos;This is</text></symbol><symbol id="46"><text x="16" y="96.3" class="c">❯ </text><text x="32.8" y="96.3" class="d">echo &apos;This is h</text></symbol><symbol id="47"><text x="16" y="96.3" class="c">❯ </text><text x="32.8" y="96.3" class="d">echo &apos;This is ho</text></symbol><symbol id="48"><text x="16" y="96.3" class="c">❯ </text><text x="32.8" y="96.3" class="d">echo &apos;This is how</text></symbol><symbol id="49"><text x="16" y="96.3" class="c">❯ </text><text x="32.8" y="96.3" class="d">echo &apos;This is how y</text></symbol><symbol id="50"><text x="16" y="96.3" class="c">❯ </text><text x="32.8" y="96.3" class="d">echo &apos;This is how yo</text></symbol><symbol id="51"><text x="16" y="96.3" class="c">❯ </text><text x="32.8" y="96.3" class="d">echo &apos;This is how you</text></symbol><symbol id="52"><text x="16" y="96.3" class="c">❯ </text><text x="32.8" y="96.3" class="d">echo &apos;This is how your</text></symbol><symbol id="53"><text x="16" y="96.3" class="c">❯ </text><text x="32.8" y="96.3" class="d">echo &apos;This is how your t</text></symbol><symbol id="54"><text x="16" y="96.3" class="c">❯ </text><text x="32.8" y="96.3" class="d">echo &apos;This is how your te</text></symbol><symbol id="55"><text x="16" y="96.3" class="c">❯ </text><text x="32.8" y="96.3" class="d">echo &apos;This is how your ter</text></symbol><symbol id="56"><text x="16" y="96.3" class="c">❯ </text><text x="32.8" y="96.3" class="d">echo &apos;This is how your term</text></symbol><symbol id="57"><text x="16" y="96.3" class="c">❯ </text><text x="32.8" y="96.3" class="d">echo &apos;This is how your termi</text></symbol><symbol id="58"><text x="16" y="96.3" class="c">❯ </text><text x="32.8" y="96.3" class="d">echo &apos;This is how your termin</text></symbol><symbol id="59"><text x="16" y="96.3" class="c">❯ </text><text x="32.8" y="96.3" class="d">echo &apos;This is how your termina</text></symbol><symbol id="60"><text x="16" y="96.3" class="c">❯ </text><text x="32.8" y="96.3" class="d">echo &apos;This is how your terminal</text></symbol><symbol id="61"><text x="16" y="96.3" class="c">❯ </text><text x="32.8" y="96.3" class="d">echo &apos;This is how your terminal l</text></symbol><symbol id="62"><text x="16" y="96.3" class="c">❯ </text><text x="32.8" y="96.3" class="d">echo &apos;This is how your terminal lo</text></symbol><symbol id="63"><text x="16" y="96.3" class="c">❯ </text><text x="32.8" y="96.3" class="d">echo &apos;This is how your terminal loo</text></symbol><symbol id="64"><text x="16" y="96.3" class="c">❯ </text><text x="32.8" y="96.3" class="d">echo &apos;This is how your terminal look</text></symbol><symbol id="65"><text x="16" y="96.3" class="c">❯ </text><text x="32.8" y="96.3" class="d">echo &apos;This is how your terminal looks</text></symbol><symbol id="66"><text x="16" y="96.3" class="c">❯ </text><text x="32.8" y="96.3" class="d">echo &apos;This is how your terminal looks.</text></symbol><symbol id="67"><text x="16" y="96.3" class="c">❯ </text><text x="32.8" y="96.3" class="d">echo &apos;This is how your terminal looks.&apos;</text></symbol><symbol id="68"><text x="16" y="115.9" class="d">This is how your terminal looks.</text></symbol><symbol id="69"><text x="16" y="135.5" class="c">❯</text></symbol></defs><style>@keyframes f{0.08%{transform:translateX(0px)}0.56%{transform:translateX(-385px)}1.05%{transform:translateX(-770px)}1.54%{transform:translateX(-1155px)}2.03%{transform:translateX(-1540px)}2.50%{transform:translateX(-1925px)}2.98%{transform:translateX(-2310px)}3.48%{transform:translateX(-2695px)}3.97%{transform:translateX(-3080px)}4.45%{transform:translateX(-3465px)}4.92%{transform:translateX(-3850px)}5.42%{transform:translateX(-4235px)}5.89%{transform:translateX(-4620px)}6.36%{transform:translateX(-5005px)}6.83%{transform:translateX(-5390px)}7.33%{transform:translateX(-5775px)}7.84%{transform:translateX(-6160px)}8.30%{transform:translateX(-6545px)}8.79%{transform:translateX(-6930px)}9.26%{transform:translateX(-7315px)}9.77%{transform:translateX(-7700px)}10.26%{transform:translateX(-8085px)}10.74%{transform:translateX(-8470px)}11.24%{transform:translateX(-8855px)}11.72%{transform:translateX(-9240px)}12.18%{transform:translateX(-9625px)}12.67%{transform:translateX(-10010px)}13.19%{transform:translateX(-10395px)}13.66%{transform:translateX(-10780px)}14.15%{transform:translateX(-11165px)}14.66%{transform:translateX(-11550px)}15.11%{transform:translateX(-11935px)}15.61%{transform:translateX(-12320px)}16.09%{transform:translateX(-12705px)}16.61%{transform:translateX(-13090px)}17.09%{transform:translateX(-13475px)}17.60%{transform:translateX(-13860px)}17.61%{transform:translateX(-14245px)}21.45%{transform:translateX(-14630px)}21.49%{transform:translateX(-15015px)}22.56%{transform:translateX(-15400px)}27.90%{transform:translateX(-15785px)}28.40%{transform:translateX(-16170px)}28.90%{transform:translateX(-16555px)}29.39%{transform:translateX(-16940px)}29.84%{transform:translateX(-17325px)}30.35%{transform:translateX(-17710px)}30.83%{transform:translateX(-18095px)}31.30%{transform:translateX(-18480px)}31.79%{transform:translateX(-18865px)}32.27%{transform:translateX(-19250px)}32.75%{transform:translateX(-19635px)}33.21%{transform:translateX(-20020px)}33.71%{transform:translateX(-20405px)}34.20%{transform:translateX(-20790px)}34.70%{transform:translateX(-21175px)}35.19%{transform:translateX(-21560px)}35.68%{transform:translateX(-21945px)}36.18%{transform:translateX(-22330px)}36.64%{transform:translateX(-22715px)}37.17%{transform:translateX(-23100px)}37.65%{transform:translateX(-23485px)}38.15%{transform:translateX(-23870px)}38.61%{transform:translateX(-24255px)}39.10%{transform:translateX(-24640px)}39.60%{transform:translateX(-25025px)}40.09%{transform:translateX(-25410px)}40.57%{transform:translateX(-25795px)}41.06%{transform:translateX(-26180px)}41.56%{transform:translateX(-26565px)}42.05%{transform:translateX(-26950px)}42.51%{transform:translateX(-27335px)}42.99%{transform:translateX(-27720px)}43.48%{transform:translateX(-28105px)}43.98%{transform:translateX(-28490px)}44.47%{transform:translateX(-28875px)}44.97%{transform:translateX(-29260px)}45.48%{transform:translateX(-29645px)}45.98%{transform:translateX(-30030px)}46.46%{transform:translateX(-30415px)}46.47%{transform:translateX(-30800px)}48.97%{transform:translateX(-31185px)}49.54%{transform:translateX(-31570px)}50.08%{transform:translateX(-31955px)}50.61%{transform:translateX(-32340px)}51.16%{transform:translateX(-32725px)}51.72%{transform:translateX(-33110px)}52.32%{transform:translateX(-33495px)}52.91%{transform:translateX(-33880px)}53.49%{transform:translateX(-34265px)}54.07%{transform:translateX(-34650px)}54.65%{transform:translateX(-35035px)}55.21%{transform:translateX(-35420px)}55.80%{transform:translateX(-35805px)}56.38%{transform:translateX(-36190px)}56.96%{transform:translateX(-36575px)}57.50%{transform:translateX(-36960px)}58.06%{transform:translateX(-37345px)}58.59%{transform:translateX(-37730px)}59.16%{transform:translateX(-38115px)}59.71%{transform:translateX(-38500px)}60.29%{transform:translateX(-38885px)}60.86%{transform:translateX(-39270px)}61.44%{transform:translateX(-39655px)}62.01%{transform:translateX(-40040px)}62.61%{transform:translateX(-40425px)}62.68%{transform:translateX(-40810px)}70.48%{transform:translateX(-41195px)}70.52%{transform:translateX(-41580px)}71.66%{transform:translateX(-41965px)}}.a{fill:#272822}.c{fill:#ae81ff;stroke:#ae81ff}.d{fill:#f8f8f2;stroke:#f8f8f2}path[fill="none"]{fill:none}path[shape-rendering="crispEdges"]{stroke:none}text{font-family:'SF Mono',Monaco,Consolas,Menlo,monospace;font-size:14px;dominant-baseline:text-before-edge;white-space:pre}text[class]{stroke:none}.bold{font-weight:700}.italic{font-style:italic}.uline{text-decoration:underline}.strike{text-decoration:line-through}.dim{opacity:0.5}@keyframes blink{0%,50%{opacity:1}50.01%,100%{opacity:0}}.cursor{animation:blink 1s step-end infinite;mix-blend-mode:difference}.cursor-active{opacity:1;mix-blend-mode:difference}</style><g transform="translate(0,0)"><rect width="385" height="178" rx="8" fill="#272822"/><rect width="385" height="40" rx="8" fill="#272822"/><path d="M0 32h385v8H0z" fill="#272822"/><circle cx="16" cy="20" r="6" fill="#ff5f56"/><circle cx="36" cy="20" r="6" fill="#ffbd2e"/><circle cx="56" cy="20" r="6" fill="#27c93f"/><text x="192.5" y="20" text-anchor="middle" dominant-baseline="middle" fill="#f8f8f2" font-size="14">monokai</text><clipPath id="content-clip"><path d="M0 40h385v138H0z" /></clipPath><g clip-path="url(#content-clip)"><g style="animation:f 10.655s steps(1,end) infinite"><g transform="translate(0,0)"><use xlink:href="#1"/><path d="M32.8 56h8.4v19.6H32.8z" fill="#fff" class="cursor"/></g><g transform="translate(385,0)"><use xlink:href="#2"/><path d="M41.2 56h8.4v19.6H41.2z" fill="#fff" class="cursor-active"/></g><g transform="translate(770,0)"><use xlink:href="#3"/><path d="M49.6 56h8.4v19.6H49.6z" fill="#fff" class="cursor-active"/></g><g transform="translate(1155,0)"><use xlink:href="#4"/><path d="M58 56h8.4v19.6H58z" fill="#fff" class="cursor-active"/></g><g transform="translate(1540,0)"><use xlink:href="#5"/><path d="M66.4 56h8.4v19.6H66.4z" fill="#fff" class="cursor-active"/></g><g transform="translate(1925,0)"><use xlink:href="#5"/><path d="M74.8 56h8.4v19.6H74.8z" fill="#fff" class="cursor-active"/></g><g transform="translate(2310,0)"><use xlink:href="#6"/><path d="M83.2 56h8.4v19.6H83.2z" fill="#fff" class="cursor-active"/></g><g transform="translate(2695,0)"><use xlink:href="#7"/><path d="M91.6 56h8.4v19.6H91.6z" fill="#fff" class="cursor-active"/></g><g transform="translate(3080,0)"><use xlink:href="#8"/><path d="M100 56h8.4v19.6H100z" fill="#fff" class="cursor-active"/></g><g transform="translate(3465,0)"><use xlink:href="#9"/><path d="M108.4 56h8.4v19.6H108.4z" fill="#fff" class="cursor-active"/></g><g transform="translate(3850,0)"><use xlink:href="#10"/><path d="M116.8 56h8.4v19.6H116.8z" fill="#fff" class="cursor-active"/></g><g transform="translate(4235,0)"><use xlink:href="#11"/><path d="M125.2 56h8.4v19.6H125.2z" fill="#fff" class="cursor-active"/></g><g transform="translate(4620,0)"><use xlink:href="#12"/><path d="M133.6 56h8.4v19.6H133.6z" fill="#fff" class="cursor-active"/></g><g transform="translate(5005,0)"><use xlink:href="#13"/><path d="M142 56h8.4v19.6H142z" fill="#fff" class="cursor-active"/></g><g transform="translate(5390,0)"><use xlink:href="#13"/><path d="M150.4 56h8.4v19.6H150.4z" fill="#fff" class="cursor-active"/></g><g transform="translate(5775,0)"><use xlink:href="#14"/><path d="M158.8 56h8.4v19.6H158.8z" fill="#fff" class="cursor-active"/></g><g transform="translate(6160,0)"><use xlink:href="#15"/><path d="M167.2 56h8.4v19.6H167.2z" fill="#fff" class="cursor-active"/></g><g transform="translate(6545,0)"><use xlink:href="#15"/><path d="M175.6 56h8.4v19.6H175.6z" fill="#fff" class="cursor-active"/></g><g transform="translate(6930,0)"><use xlink:href="#16"/><path d="M184 56h8.4v19.6H184z" fill="#fff" class="cursor-active"/></g><g transform="translate(7315,0)"><use xlink:href="#17"/><path d="M192.4 56h8.4v19.6H192.4z" fill="#fff" class="cursor-active"/></g><g transform="translate(7700,0)"><use xlink:href="#18"/><path d="M200.8 56h8.4v19.6H200.8z" fill="#fff" class="cursor-active"/></g><g transform="translate(8085,0)"><use xlink:href="#18"/><path d="M209.2 56h8.4v19.6H209.2z" fill="#fff" class="cursor-active"/></g><g transform="translate(8470,0)"><use xlink:href="#19"/><path d="M217.6 56h8.4v19.6H217.6z" fill="#fff" class="cursor-active"/></g><g transform="translate(8855,0)"><use xlink:href="#20"/><path d="M226 56h8.4v19.6H226z" fill="#fff" class="cursor-active"/></g><g transform="translate(9240,0)"><use xlink:href="#21"/><path d="M234.4 56h8.4v19.6H234.4z" fill="#fff" class="cursor-active"/></g><g transform="translate(9625,0)"><use xlink:href="#22"/><path d="M242.8 56h8.4v19.6H242.8z" fill="#fff" class="cursor-active"/></g><g transform="translate(10010,0)"><use xlink:href="#23"/><path d="M251.2 56h8.4v19.6H251.2z" fill="#fff" class="cursor-active"/></g><g transform="translate(10395,0)"><use xlink:href="#24"/><path d="M259.6 56h8.4v19.6H259.6z" fill="#fff" class="cursor-active"/></g><g transform="translate(10780,0)"><use xlink:href="#25"/><path d="M268 56h8.4v19.6H268z" fill="#fff" class="cursor-active"/></g><g transform="translate(11165,0)"><use xlink:href="#25"/><path d="M276.4 56h8.4v19.6H276.4z" fill="#fff" class="cursor-active"/></g><g transform="translate(11550,0)"><use xlink:href="#26"/><path d="M284.8 56h8.4v19.6H284.8z" fill="#fff" class="cursor-active"/></g><g transform="translate(11935,0)"><use xlink:href="#27"/><path d="M293.2 56h8.4v19.6H293.2z" fill="#fff" class="cursor-active"/></g><g transform="translate(12320,0)"><use xlink:href="#28"/><path d="M301.6 56h8.4v19.6H301.6z" fill="#fff" class="cursor-active"/></g><g transform="translate(12705,0)"><use xlink:href="#29"/><path d="M310 56h8.4v19.6H310z" fill="#fff" class="cursor-active"/></g><g transform="translate(13090,0)"><use xlink:href="#30"/><path d="M318.4 56h8.4v19.6H318.4z" fill="#fff" class="cursor-active"/></g><g transform="translate(13475,0)"><use xlink:href="#31"/><path d="M326.8 56h8.4v19.6H326.8z" fill="#fff" class="cursor-active"/></g><g transform="translate(13860,0)"><use xlink:href="#32"/><path d="M335.2 56h8.4v19.6H335.2z" fill="#fff" class="cursor-active"/></g><g transform="translate(14245,0)"><use xlink:href="#32"/><path d="M335.2 56h8.4v19.6H335.2z" fill="#fff" class="cursor"/></g><g transform="translate(14630,0)"><use xlink:href="#32"/></g><g transform="translate(15015,0)"><use xlink:href="#32"/><use xlink:href="#33"/></g><g transform="translate(15400,0)"><use xlink:href="#32"/><use xlink:href="#33"/><use xlink:href="#34"/><path d="M32.8 95.2h8.4v19.6H32.8z" fill="#fff" class="cursor"/></g><g transform="translate(15785,0)"><use xlink:href="#32"/><use xlink:href="#33"/><use xlink:href="#35"/><path d="M41.2 95.2h8.4v19.6H41.2z" fill="#fff" class="cursor-active"/></g><g transform="translate(16170,0)"><use xlink:href="#32"/><use xlink:href="#33"/><use xlink:href="#36"/><path d="M49.6 95.2h8.4v19.6H49.6z" fill="#fff" class="cursor-active"/></g><g transform="translate(16555,0)"><use xlink:href="#32"/><use xlink:href="#33"/><use xlink:href="#37"/><path d="M58 95.2h8.4v19.6H58z" fill="#fff" class="cursor-active"/></g><g transform="translate(16940,0)"><use xlink:href="#32"/><use xlink:href="#33"/><use xlink:href="#38"/><path d="M66.4 95.2h8.4v19.6H66.4z" fill="#fff" class="cursor-active"/></g><g transform="translate(17325,0)"><use xlink:href="#32"/><use xlink:href="#33"/><use xlink:href="#38"/><path d="M74.8 95.2h8.4v19.6H74.8z" fill="#fff" class="cursor-active"/></g><g transform="translate(17710,0)"><use xlink:href="#32"/><use xlink:href="#33"/><use xlink:href="#39"/><path d="M83.2 95.2h8.4v19.6H83.2z" fill="#fff" class="cursor-active"/></g><g transform="translate(18095,0)"><use xlink:href="#32"/><use xlink:href="#33"/><use xlink:href="#40"/><path d="M91.6 95.2h8.4v19.6H91.6z" fill="#fff" class="cursor-active"/></g><g transform="translate(18480,0)"><use xlink:href="#32"/><use xlink:href="#33"/><use xlink:href="#41"/><path d="M100 95.2h8.4v19.6H100z" fill="#fff" class="cursor-active"/></g><g transform="translate(18865,0)"><use xlink:href="#32"/><use xlink:href="#33"/><use xlink:href="#42"/><path d="M108.4 95.2h8.4v19.6H108.4z" fill="#fff" class="cursor-active"/></g><g transform="translate(19250,0)"><use xlink:href="#32"/><use xlink:href="#33"/><use xlink:href="#43"/><path d="M116.8 95.2h8.4v19.6H116.8z" fill="#fff" class="cursor-active"/></g><g transform="translate(19635,0)"><use xlink:href="#32"/><use xlink:href="#33"/><use xlink:href="#43"/><path d="M125.2 95.2h8.4v19.6H125.2z" fill="#fff" class="cursor-active"/></g><g transform="translate(20020,0)"><use xlink:href="#32"/><use xlink:href="#33"/><use xlink:href="#44"/><path d="M133.6 95.2h8.4v19.6H133.6z" fill="#fff" class="cursor-active"/></g><g transform="translate(20405,0)"><use xlink:href="#32"/><use xlink:href="#33"/><use xlink:href="#45"/><path d="M142 95.2h8.4v19.6H142z" fill="#fff" class="cursor-active"/></g><g transform="translate(20790,0)"><use xlink:href="#32"/><use xlink:href="#33"/><use xlink:href="#45"/><path d="M150.4 95.2h8.4v19.6H150.4z" fill="#fff" class="cursor-active"/></g><g transform="translate(21175,0)"><use xlink:href="#32"/><use xlink:href="#33"/><use xlink:href="#46"/><path d="M158.8 95.2h8.4v19.6H158.8z" fill="#fff" class="cursor-active"/></g><g transform="translate(21560,0)"><use xlink:href="#32"/><use xlink:href="#33"/><use xlink:href="#47"/><path d="M167.2 95.2h8.4v19.6H167.2z" fill="#fff" class="cursor-active"/></g><g transform="translate(21945,0)"><use xlink:href="#32"/><use xlink:href="#33"/><use xlink:href="#48"/><path d="M175.6 95.2h8.4v19.6H175.6z" fill="#fff" class="cursor-active"/></g><g transform="translate(22330,0)"><use xlink:href="#32"/><use xlink:href="#33"/><use xlink:href="#48"/><path d="M184 95.2h8.4v19.6H184z" fill="#fff" class="cursor-active"/></g><g transform="translate(22715,0)"><use xlink:href="#32"/><use xlink:href="#33"/><use xlink:href="#49"/><path d="M192.4 95.2h8.4v19.6H192.4z" fill="#fff" class="cursor-active"/></g><g transform="translate(23100,0)"><use xlink:href="#32"/><use xlink:href="#33"/><use xlink:href="#50"/><path d="M200.8 95.2h8.4v19.6H200.8z" fill="#fff" class="cursor-active"/></g><g transform="translate(23485,0)"><use xlink:href="#32"/><use xlink:href="#33"/><use xlink:href="#51"/><path d="M209.2 95.2h8.4v19.6H209.2z" fill="#fff" class="cursor-active"/></g><g transform="translate(23870,0)"><use xlink:href="#32"/><use xlink:href="#33"/><use xlink:href="#52"/><path d="M217.6 95.2h8.4v19.6H217.6z" fill="#fff" class="cursor-active"/></g><g transform="translate(24255,0)"><use xlink:href="#32"/><use xlink:href="#33"/><use xlink:href="#52"/><path d="M226 95.2h8.4v19.6H226z" fill="#fff" class="cursor-active"/></g><g transform="translate(24640,0)"><use xlink:href="#32"/><use xlink:href="#33"/><use xlink:href="#53"/><path d="M234.4 95.2h8.4v19.6H234.4z" fill="#fff" class="cursor-active"/></g><g transform="translate(25025,0)"><use xlink:href="#32"/><use xlink:href="#33"/><use xlink:href="#54"/><path d="M242.8 95.2h8.4v19.6H242.8z" fill="#fff" class="cursor-active"/></g><g transform="translate(25410,0)"><use xlink:href="#32"/><use xlink:href="#33"/><use xlink:href="#55"/><path d="M251.2 95.2h8.4v19.6H251.2z" fill="#fff" class="cursor-active"/></g><g transform="translate(25795,0)"><use xlink:href="#32"/><use xlink:href="#33"/><use xlink:href="#56"/><path d="M259.6 95.2h8.4v19.6H259.6z" fill="#fff" class="cursor-active"/></g><g transform="translate(26180,0)"><use xlink:href="#32"/><use xlink:href="#33"/><use xlink:href="#57"/><path d="M268 95.2h8.4v19.6H268z" fill="#fff" class="cursor-active"/></g><g transform="translate(26565,0)"><use xlink:href="#32"/><use xlink:href="#33"/><use xlink:href="#58"/><path d="M276.4 95.2h8.4v19.6H276.4z" fill="#fff" class="cursor-active"/></g><g transform="translate(26950,0)"><use xlink:href="#32"/><use xlink:href="#33"/><use xlink:href="#59"/><path d="M284.8 95.2h8.4v19.6H284.8z" fill="#fff" class="cursor-active"/></g><g transform="translate(27335,0)"><use xlink:href="#32"/><use xlink:href="#33"/><use xlink:href="#60"/><path d="M293.2 95.2h8.4v19.6H293.2z" fill="#fff" class="cursor-active"/></g><g transform="translate(27720,0)"><use xlink:href="#32"/><use xlink:href="#33"/><use xlink:href="#60"/><path d="M301.6 95.2h8.4v19.6H301.6z" fill="#fff" class="cursor-active"/></g><g transform="translate(28105,0)"><use xlink:href="#32"/><use xlink:href="#33"/><use xlink:href="#61"/><path d="M310 95.2h8.4v19.6H310z" fill="#fff" class="cursor-active"/></g><g transform="translate(28490,0)"><use xlink:href="#32"/><use xlink:href="#33"/><use xlink:href="#62"/><path d="M318.4 95.2h8.4v19.6H318.4z" fill="#fff" class="cursor-active"/></g><g transform="translate(28875,0)"><use xlink:href="#32"/><use xlink:href="#33"/><use xlink:href="#63"/><path d="M326.8 95.2h8.4v19.6H326.8z" fill="#fff" class="cursor-active"/></g><g transform="translate(29260,0)"><use xlink:href="#32"/><use xlink:href="#33"/><use xlink:href="#64"/><path d="M335.2 95.2h8.4v19.6H335.2z" fill="#fff" class="cursor-active"/></g><g transform="translate(29645,0)"><use xlink:href="#32"/><use xlink:href="#33"/><use xlink:href="#65"/><path d="M343.6 95.2h8.4v19.6H343.6z" fill="#fff" class="cursor-active"/></g><g transform="translate(30030,0)"><use xlink:href="#32"/><use xlink:href="#33"/><use xlink:href="#66"/><path d="M352 95.2h8.4v19.6H352z" fill="#fff" class="cursor-active"/></g><g transform="translate(30415,0)"><use xlink:href="#32"/><use xlink:href="#33"/><use xlink:href="#67"/><path d="M360.4 95.2h8.4v19.6H360.4z" fill="#fff" class="cursor-active"/></g><g transform="translate(30800,0)"><use xlink:href="#32"/><use xlink:href="#33"/><use xlink:href="#67"/><path d="M360.4 95.2h8.4v19.6H360.4z" fill="#fff" class="cursor"/></g><g transform="translate(31185,0)"><use xlink:href="#32"/><use xlink:href="#33"/><use xlink:href="#67"/><path d="M352 95.2h8.4v19.6H352z" fill="#fff" class="cursor-active"/></g><g transform="translate(31570,0)"><use xlink:href="#32"/><use xlink:href="#33"/><use xlink:href="#67"/><path d="M343.6 95.2h8.4v19.6H343.6z" fill="#fff" class="cursor-active"/></g><g transform="translate(31955,0)"><use xlink:href="#32"/><use xlink:href="#33"/><use xlink:href="#67"/><path d="M335.2 95.2h8.4v19.6H335.2z" fill="#fff" class="cursor-active"/></g><g transform="translate(32340,0)"><use xlink:href="#32"/><use xlink:href="#33"/><use xlink:href="#67"/><path d="M326.8 95.2h8.4v19.6H326.8z" fill="#fff" class="cursor-active"/></g><g transform="translate(32725,0)"><use xlink:href="#32"/><use xlink:href="#33"/><use xlink:href="#67"/><path d="M318.4 95.2h8.4v19.6H318.4z" fill="#fff" class="cursor-active"/></g><g transform="translate(33110,0)"><use xlink:href="#32"/><use xlink:href="#33"/><use xlink:href="#67"/><path d="M310 95.2h8.4v19.6H310z" fill="#fff" class="cursor-active"/></g><g transform="translate(33495,0)"><use xlink:href="#32"/><use xlink:href="#33"/><use xlink:href="#67"/><path d="M301.6 95.2h8.4v19.6H301.6z" fill="#fff" class="cursor-active"/></g><g transform="translate(33880,0)"><use xlink:href="#32"/><use xlink:href="#33"/><use xlink:href="#67"/><path d="M293.2 95.2h8.4v19.6H293.2z" fill="#fff" class="cursor-active"/></g><g transform="translate(34265,0)"><use xlink:href="#32"/><use xlink:href="#33"/><use xlink:href="#67"/><path d="M284.8 95.2h8.4v19.6H284.8z" fill="#fff" class="cursor-active"/></g><g transform="translate(34650,0)"><use xlink:href="#32"/><use xlink:href="#33"/><use xlink:href="#67"/><path d="M276.4 95.2h8.4v19.6H276.4z" fill="#fff" class="cursor-active"/></g><g transform="translate(35035,0)"><use xlink:href="#32"/><use xlink:href="#33"/><use xlink:href="#67"/><path d="M268 95.2h8.4v19.6H268z" fill="#fff" class="cursor-active"/></g><g transform="translate(35420,0)"><use xlink:href="#32"/><use xlink:href="#33"/><use xlink:href="#67"/><path d="M259.6 95.2h8.4v19.6H259.6z" fill="#fff" class="cursor-active"/></g><g transform="translate(35805,0)"><use xlink:href="#32"/><use xlink:href="#33"/><use xlink:href="#67"/><path d="M251.2 95.2h8.4v19.6H251.2z" fill="#fff" class="cursor-active"/></g><g transform="translate(36190,0)"><use xlink:href="#32"/><use xlink:href="#33"/><use xlink:href="#67"/><path d="M242.8 95.2h8.4v19.6H242.8z" fill="#fff" class="cursor-active"/></g><g transform="translate(36575,0)"><use xlink:href="#32"/><use xlink:href="#33"/><use xlink:href="#67"/><path d="M234.4 95.2h8.4v19.6H234.4z" fill="#fff" class="cursor-active"/></g><g transform="translate(36960,0)"><use xlink:href="#32"/><use xlink:href="#33"/><use xlink:href="#67"/><path d="M226 95.2h8.4v19.6H226z" fill="#fff" class="cursor-active"/></g><g transform="translate(37345,0)"><use xlink:href="#32"/><use xlink:href="#33"/><use xlink:href="#67"/><path d="M217.6 95.2h8.4v19.6H217.6z" fill="#fff" class="cursor-active"/></g><g transform="translate(37730,0)"><use xlink:href="#32"/><use xlink:href="#33"/><use xlink:href="#67"/><path d="M209.2 95.2h8.4v19.6H209.2z" fill="#fff" class="cursor-active"/></g><g transform="translate(38115,0)"><use xlink:href="#32"/><use xlink:href="#33"/><use xlink:href="#67"/><path d="M200.8 95.2h8.4v19.6H200.8z" fill="#fff" class="cursor-active"/></g><g transform="translate(38500,0)"><use xlink:href="#32"/><use xlink:href="#33"/><use xlink:href="#67"/><path d="M192.4 95.2h8.4v19.6H192.4z" fill="#fff" class="cursor-active"/></g><g transform="translate(38885,0)"><use xlink:href="#32"/><use xlink:href="#33"/><use xlink:href="#67"/><path d="M184 95.2h8.4v19.6H184z" fill="#fff" class="cursor-active"/></g><g transform="translate(39270,0)"><use xlink:href="#32"/><use xlink:href="#33"/><use xlink:href="#67"/><path d="M184 95.2h8.4v19.6H184z" fill="#49483e" opacity="0.5"/><path d="M192.4 95.2h8.4v19.6H192.4z" fill="#fff" class="cursor-active"/></g><g transform="translate(39655,0)"><use xlink:href="#32"/><use xlink:href="#33"/><use xlink:href="#67"/><path d="M184 95.2h16.8v19.6H184z" fill="#49483e" opacity="0.5"/><path d="M200.8 95.2h8.4v19.6H200.8z" fill="#fff" class="cursor-active"/></g><g transform="translate(40040,0)"><use xlink:href="#32"/><use xlink:href="#33"/><use xlink:href="#67"/><path d="M184 95.2h25.2v19.6H184z" fill="#49483e" opacity="0.5"/><path d="M209.2 95.2h8.4v19.6H209.2z" fill="#fff" class="cursor-active"/></g><g transform="translate(40425,0)"><use xlink:href="#32"/><use xlink:href="#33"/><use xlink:href="#67"/><path d="M184 95.2h33.6v19.6H184z" fill="#49483e" opacity="0.5"/><path d="M217.6 95.2h8.4v19.6H217.6z" fill="#fff" class="cursor-active"/></g><g transform="translate(40810,0)"><use xlink:href="#32"/><use xlink:href="#33"/><use xlink:href="#67"/><path d="M184 95.2h33.6v19.6H184z" fill="#49483e" opacity="0.5"/><path d="M217.6 95.2h8.4v19.6H217.6z" fill="#fff" class="cursor"/></g><g transform="translate(41195,0)"><use xlink:href="#32"/><use xlink:href="#33"/><use xlink:href="#67"/></g><g transform="translate(41580,0)"><use xlink:href="#32"/><use xlink:href="#33"/><use xlink:href="#67"/><use xlink:href="#68"/></g><g transform="translate(41965,0)"><use xlink:href="#32"/><use xlink:href="#33"/><use xlink:href="#67"/><use xlink:href="#68"/><use xlink:href="#69"/><path d="M32.8 134.4h8.4v19.6H32.8z" fill="#fff" class="cursor"/></g></g></g></g></svg>