<svg xmlns="http://www.w3.org/2000/svg" xmlns:xlink="http://www.w3.org/1999/xlink" width="394" height="178" viewBox="0 0 394 178"><defs><symbol id="1"><text x="16" y="57.1" class="c">❯</text></symbol><symbol id="2"><text x="16" y="57.1" class="c">❯ </text><text x="32.8" y="57.1" class="d">e</text></symbol><symbol id="3"><text x="16" y="57.1" class="c">❯ </text><text x="32.8" y="57.1" class="d">ec</text></symbol><symbol id="4"><text x="16" y="57.1" class="c">❯ </text><text x="32.8" y="57.1" class="d">ech</text></symbol><symbol id="5"><text x="16" y="57.1" class="c">❯ </text><text x="32.8" y="57.1" class="d">echo</text></symbol><symbol id="6"><text x="16" y="57.1" class="c">❯ </text><text x="32.8" y="57.1" class="d">echo &apos;</text></symbol><symbol id="7"><text x="16" y="57.1" class="c">❯ </text><text x="32.8" y="57.1" class="d">echo &apos;W</text></symbol><symbol id="8"><text x="16" y="57.1" class="c">❯ </text><text x="32.8" y="57.1" class="d">echo &apos;We</text></symbol><symbol id="9"><text x="16" y="57.1" class="c">❯ </text><text x="32.8" y="57.1" class="d">echo &apos;Wel</text></symbol><symbol id="10"><text x="16" y="57.1" class="c">❯ </text><text x="32.8" y="57.1" class="d">echo &apos;Welc</text></symbol><symbol id="11"><text x="16" y="57.1" class="c">❯ </text><text x="32.8" y="57.1" class="d">echo &apos;Welco</text></symbol><symbol id="12"><text x="16" y="57.1" class="c">❯ </text><text x="32.8" y="57.1" class="d">echo &apos;Welcom</text></symbol><symbol id="13"><text x="16" y="57.1" class="c">❯ </text><text x="32.8" y="57.1" class="d">echo &apos;Welcome</text></symbol><symbol id="14"><text x="16" y="57.1" class="c">❯ </text><text x="32.8" y="57.1" class="d">echo &apos;Welcome t</text></symbol><symbol id="15"><text x="16" y="57.1" class="c">❯ </text><text x="32.8" y="57.1" class="d">echo &apos;Welcome to</text></symbol><symbol id="16"><text x="16" y="57.1" class="c">❯ </text><text x="32.8" y="57.1" class="d">echo &apos;Welcome to t</text></symbol><symbol id="17"><text x="16" y="57.1" class="c">❯ </text><text x="32.8" y="57.1" class="d">echo &apos;Welcome to th</text></symbol><symbol id="18"><text x="16" y="57.1" class="c">❯ </text><text x="32.8" y="57.1" class="d">echo &apos;Welcome to the</text></symbol><symbol id="19"><text x="16" y="57.1" class="c">❯ </text><text x="32.8" y="57.1" class="d">echo &apos;Welcome to the p</text></symbol><symbol id="20"><text x="16" y="57.1" class="c">❯ </text><text x="32.8" y="57.1" class="d">echo &apos;Welcome to the pa</text></symbol><symbol id="21"><text x="16" y="57.1" class="c">❯ </text><text x="32.8" y="57.1" class="d">echo &apos;Welcome to the pan</text></symbol><symbol id="22"><text x="16" y="57.1" class="c">❯ </text><text x="32.8" y="57.1" class="d">echo &apos;Welcome to the pand</text></symbol><symbol id="23"><text x="16" y="57.1" class="c">❯ </text><text x="32.8" y="57.1" class="d">echo &apos;Welcome to the panda</text></symbol><symbol id="24"><text x="16" y="57.1" class="c">❯ </text><text x="32.8" y="57.1" class="d">echo &apos;Welcome to the pandaS</text></symbol><symbol id="25"><text x="16" y="57.1" class="c">❯ </text><text x="32.8" y="57.1" class="d">echo &apos;Welcome to the pandaSy</text></symbol><symbol id="26"><text x="16" y="57.1" class="c">❯ </text><text x="32.8" y="57.1" class="d">echo &apos;Welcome to the pandaSyn</text></symbol><symbol id="27"><text x="16" y="57.1" class="c">❯ </text><text x="32.8" y="57.1" class="d">echo &apos;Welcome to the pandaSynt</text></symbol><symbol id="28"><text x="16" y="57.1" class="c">❯ </text><text x="32.8" y="57.1" class="d">echo &apos;Welcome to the pandaSynta</text></symbol><symbol id="29"><text x="16" y="57.1" class="c">❯ </text><text x="32.8" y="57.1" class="d">echo &apos;Welcome to the pandaSyntax</text></symbol><symbol id="30"><text x="16" y="57.1" class="c">❯ </text><text x="32.8" y="57.1" class="d">echo &apos;Welcome to the pandaSyntax t</text></symbol><symbol id="31"><text x="16" y="57.1" class="c">❯ </text><text x="32.8" y="57.1" class="d">echo &apos;Welcome to the pandaSyntax th</text></symbol><symbol id="32"><text x="16" y="57.1" class="c">❯ </text><text x="32.8" y="57.1" class="d">echo &apos;Welcome to the pandaSyntax the</text></symbol><symbol id="33"><text x="16" y="57.1" class="c">❯ </text><text x="32.8" y="57.1" class="d">echo &apos;Welcome to the pandaSyntax them</text></symbol><symbol id="34"><text x="16" y="57.1" class="c">❯ </text><text x="32.8" y="57.1" class="d">echo &apos;Welcome to the pandaSyntax theme</text></symbol><symbol id="35"><text x="16" y="57.1" class="c">❯ </text><text x="32.8" y="57.1" class="d">echo &apos;Welcome to the pandaSyntax theme!</text></symbol><symbol id="36"><text x="16" y="57.1" class="c">❯ </text><text x="32.8" y="57.1" class="d">echo &apos;Welcome to the pandaSyntax theme!&apos;</text></symbol><symbol id="37"><text x="16" y="76.7" class="d">Welcome to the pandaSyntax theme!</text></symbol><symbol id="38"><text x="16" y="96.3" class="c">❯</text></symbol><symbol id="39"><text x="16" y="96.3" class="c">❯ </text><text x="32.8" y="96.3" class="d">e</text></symbol><symbol id="40"><text x="16" y="96.3" class="c">❯ </text><text x="32.8" y="96.3" class="d">ec</text></symbol><symbol id="41"><text x="16" y="96.3" class="c">❯ </text><text x="32.8" y="96.3" class="d">ech</text></symbol><symbol id="42"><text x="16" y="96.3" class="c">❯ </text><text x="32.8" y="96.3" class="d">echo</text></symbol><symbol id="43"><text x="16" y="96.3" class="c">❯ </text><text x="32.8" y="96.3" class="d">echo &apos;</text></symbol><symbol id="44"><text x="16" y="96.3" class="c">❯ </text><text x="32.8" y="96.3" class="d">echo &apos;T</text></symbol><symbol id="45"><text x="16" y="96.3" class="c">❯ </text><text x="32.8" y="96.3" class="d">echo &apos;Th</text></symbol><symbol id="46"><text x="16" y="96.3" class="c">❯ </text><text x="32.8" y="96.3" class="d">echo &apos;Thi</text></symbol><symbol id="47"><text x="16" y="96.3" class="c">❯ </text><text x="32.8" y="96.3" class="d">echo &apos;This</text></symbol><symbol id="48"><text x="16" y="96.3" class="c">❯ </text><text x="32.8" y="96.3" class="d">echo &apos;This i</text></symbol><symbol id="49"><text x="16" y="96.3" class="c">❯ </text><text x="32.8" y="96.3" class="d">echo &apos;This is</text></symbol><symbol id="50"><text x="16" y="96.3" class="c">❯ </text><text x="32.8" y="96.3" class="d">echo &apos;This is h</text></symbol><symbol id="51"><text x="16" y="96.3" class="c">❯ </text><text x="32.8" y="96.3" class="d">echo &apos;This is ho</text></symbol><symbol id="52"><text x="16" y="96.3" class="c">❯ </text><text x="32.8" y="96.3" class="d">echo &apos;This is how</text></symbol><symbol id="53"><text x="16" y="96.3" class="c">❯ </text><text x="32.8" y="96.3" class="d">echo &apos;This is how y</text></symbol><symbol id="54"><text x="16" y="96.3" class="c">❯ </text><text x="32.8" y="96.3" class="d">echo &apos;This is how yo</text></symbol><symbol id="55"><text x="16" y="96.3" class="c">❯ </text><text x="32.8" y="96.3" class="d">echo &apos;This is how you</text></symbol><symbol id="56"><text x="16" y="96.3" class="c">❯ </text><text x="32.8" y="96.3" class="d">echo &apos;This is how your</text></symbol><symbol id="57"><text x="16" y="96.3" class="c">❯ </text><text x="32.8" y="96.3" class="d">echo &apos;This is how your t</text></symbol><symbol id="58"><text x="16" y="96.3" class="c">❯ </text><text x="32.8" y="96.3" class="d">echo &apos;This is how your te</text></symbol><symbol id="59"><text x="16" y="96.3" class="c">❯ </text><text x="32.8" y="96.3" class="d">echo &apos;This is how your ter</text></symbol><symbol id="60"><text x="16" y="96.3" class="c">❯ </text><text x="32.8" y="96.3" class="d">echo &apos;This is how your term</text></symbol><symbol id="61"><text x="16" y="96.3" class="c">❯ </text><text x="32.8" y="96.3" class="d">echo &apos;This is how your termi</text></symbol><symbol id="62"><text x="16" y="96.3" class="c">❯ </text><text x="32.8" y="96.3" class="d">echo &apos;This is how your termin</text></symbol><symbol id="63"><text x="16" y="96.3" class="c">❯ </text><text x="32.8" y="96.3" class="d">echo &apos;This is how your termina</text></symbol><symbol id="64"><text x="16" y="96.3" class="c">❯ </text><text x="32.8" y="96.3" class="d">echo &apos;This is how your terminal</text></symbol><symbol id="65"><text x="16" y="96.3" class="c">❯ </text><text x="32.8" y="96.3" class="d">echo &apos;This is how your terminal l</text></symbol><symbol id="66"><text x="16" y="96.3" class="c">❯ </text><text x="32.8" y="96.3" class="d">echo &apos;This is how your terminal lo</text></symbol><symbol id="67"><text x="16" y="96.3" class="c">❯ </text><text x="32.8" y="96.3" class="d">echo &apos;This is how your terminal loo</text></symbol><symbol id="68"><text x="16" y="96.3" class="c">❯ </text><text x="32.8" y="96.3" class="d">echo &apos;This is how your terminal look</text></symbol><symbol id="69"><text x="16" y="96.3" class="c">❯ </text><text x="32.8" y="96.3" class="d">echo &apos;This is how your terminal looks</text></symbol><symbol id="70"><text x="16" y="96.3" class="c">❯ </text><text x="32.8" y="96.3" class="d">echo &apos;This is how your terminal looks.</text></symbol><symbol id="71"><text x="16" y="96.3" class="c">❯ </text><text x="32.8" y="96.3" class="d">echo &apos;This is how your terminal looks.&apos;</text></symbol><symbol id="72"><text x="16" y="115.9" class="d">This is how your terminal looks.</text></symbol><symbol id="73"><text x="16" y="135.5" class="c">❯</text></symbol></defs><style>@keyframes f{0.08%{transform:translateX(0px)}0.57%{transform:translateX(-394px)}1.04%{transform:translateX(-788px)}1.51%{transform:translateX(-1182px)}1.99%{transform:translateX(-1576px)}2.46%{transform:translateX(-1970px)}2.91%{transform:translateX(-2364px)}3.39%{transform:translateX(-2758px)}3.85%{transform:translateX(-3152px)}4.33%{transform:translateX(-3546px)}4.81%{transform:translateX(-3940px)}5.27%{transform:translateX(-4334px)}5.75%{transform:translateX(-4728px)}6.23%{transform:translateX(-5122px)}6.69%{transform:translateX(-5516px)}7.17%{transform:translateX(-5910px)}7.65%{transform:translateX(-6304px)}8.12%{transform:translateX(-6698px)}8.59%{transform:translateX(-7092px)}9.07%{transform:translateX(-7486px)}9.56%{transform:translateX(-7880px)}10.02%{transform:translateX(-8274px)}10.50%{transform:translateX(-8668px)}10.97%{transform:translateX(-9062px)}11.48%{transform:translateX(-9456px)}11.93%{transform:translateX(-9850px)}12.40%{transform:translateX(-10244px)}12.88%{transform:translateX(-10638px)}13.35%{transform:translateX(-11032px)}13.84%{transform:translateX(-11426px)}14.33%{transform:translateX(-11820px)}14.81%{transform:translateX(-12214px)}15.29%{transform:translateX(-12608px)}15.77%{transform:translateX(-13002px)}16.25%{transform:translateX(-13396px)}16.70%{transform:translateX(-13790px)}17.18%{transform:translateX(-14184px)}17.67%{transform:translateX(-14578px)}18.15%{transform:translateX(-14972px)}18.62%{transform:translateX(-15366px)}19.09%{transform:translateX(-15760px)}19.10%{transform:translateX(-16154px)}22.92%{transform:translateX(-16548px)}22.93%{transform:translateX(-16942px)}24.01%{transform:translateX(-17336px)}29.29%{transform:translateX(-17730px)}29.77%{transform:translateX(-18124px)}30.22%{transform:translateX(-18518px)}30.70%{transform:translateX(-18912px)}31.17%{transform:translateX(-19306px)}31.64%{transform:translateX(-19700px)}32.11%{transform:translateX(-20094px)}32.59%{transform:translateX(-20488px)}33.07%{transform:translateX(-20882px)}33.53%{transform:translateX(-21276px)}34.00%{transform:translateX(-21670px)}34.49%{transform:translateX(-22064px)}34.96%{transform:translateX(-22458px)}35.43%{transform:translateX(-22852px)}35.93%{transform:translateX(-23246px)}36.41%{transform:translateX(-23640px)}36.89%{transform:translateX(-24034px)}37.36%{transform:translateX(-24428px)}37.83%{transform:translateX(-24822px)}38.31%{transform:translateX(-25216px)}38.79%{transform:translateX(-25610px)}39.26%{transform:translateX(-26004px)}39.73%{transform:translateX(-26398px)}40.20%{transform:translateX(-26792px)}40.66%{transform:translateX(-27186px)}41.13%{transform:translateX(-27580px)}41.61%{transform:translateX(-27974px)}42.06%{transform:translateX(-28368px)}42.53%{transform:translateX(-28762px)}43.00%{transform:translateX(-29156px)}43.47%{transform:translateX(-29550px)}43.95%{transform:translateX(-29944px)}44.44%{transform:translateX(-30338px)}44.87%{transform:translateX(-30732px)}45.34%{transform:translateX(-31126px)}45.82%{transform:translateX(-31520px)}46.29%{transform:translateX(-31914px)}46.77%{transform:translateX(-32308px)}47.25%{transform:translateX(-32702px)}47.26%{transform:translateX(-33096px)}49.78%{transform:translateX(-33490px)}50.32%{transform:translateX(-33884px)}50.87%{transform:translateX(-34278px)}51.43%{transform:translateX(-34672px)}51.99%{transform:translateX(-35066px)}52.56%{transform:translateX(-35460px)}53.14%{transform:translateX(-35854px)}53.69%{transform:translateX(-36248px)}54.26%{transform:translateX(-36642px)}54.82%{transform:translateX(-37036px)}55.38%{transform:translateX(-37430px)}55.93%{transform:translateX(-37824px)}56.48%{transform:translateX(-38218px)}57.02%{transform:translateX(-38612px)}57.58%{transform:translateX(-39006px)}58.13%{transform:translateX(-39400px)}58.68%{transform:translateX(-39794px)}59.22%{transform:translateX(-40188px)}59.77%{transform:translateX(-40582px)}60.30%{transform:translateX(-40976px)}60.84%{transform:translateX(-41370px)}61.38%{transform:translateX(-41764px)}61.91%{transform:translateX(-42158px)}62.46%{transform:translateX(-42552px)}62.99%{transform:translateX(-42946px)}63.05%{transform:translateX(-43340px)}70.82%{transform:translateX(-43734px)}70.80%{transform:translateX(-44128px)}71.95%{transform:translateX(-44522px)}}.a{fill:#292a2b}.c{fill:#bcaafe;stroke:#bcaafe}.d{fill:#e6e6e6;stroke:#e6e6e6}path[fill="none"]{fill:none}path[shape-rendering="crispEdges"]{stroke:none}text{font-family:'SF Mono',Monaco,Consolas,Menlo,monospace;font-size:14px;dominant-baseline:text-before-edge;white-space:pre;}text[class]{stroke:none}.bold{font-weight:700}.italic{font-style:italic}.uline{text-decoration:underline}.strike{text-decoration:line-through}.dim{opacity:0.5}@keyframes blink{0%,50%{opacity:1}50.01%,100%{opacity:0}}.cursor{animation:blink 1s step-end infinite;mix-blend-mode:difference}.cursor-active{opacity:1;mix-blend-mode:difference}</style><g transform="translate(0,0)"><rect width="394" height="178" rx="8" fill="#292a2b"/><rect width="394" height="40" rx="8" fill="#292a2b"/><path d="M0 32h394v8H0z" fill="#292a2b"/><circle cx="16" cy="20" r="6" fill="#ff5f56"/><circle cx="36" cy="20" r="6" fill="#ffbd2e"/><circle cx="56" cy="20" r="6" fill="#27c93f"/><text x="197" y="20" text-anchor="middle" dominant-baseline="middle" fill="#e6e6e6" font-size="14">pandaSyntax</text><clipPath id="content-clip"><path d="M0 40h394v138H0z" /></clipPath><g clip-path="url(#content-clip)"><g style="animation:f 10.778s steps(1,end) infinite"><g transform="translate(0,0)"><use xlink:href="#1"/><path d="M32.8 56h8.4v19.6H32.8z" fill="#ff75b5" class="cursor"/></g><g transform="translate(394,0)"><use xlink:href="#2"/><path d="M41.2 56h8.4v19.6H41.2z" fill="#ff75b5" class="cursor-active"/></g><g transform="translate(788,0)"><use xlink:href="#3"/><path d="M49.6 56h8.4v19.6H49.6z" fill="#ff75b5" class="cursor-active"/></g><g transform="translate(1182,0)"><use xlink:href="#4"/><path d="M58 56h8.4v19.6H58z" fill="#ff75b5" class="cursor-active"/></g><g transform="translate(1576,0)"><use xlink:href="#5"/><path d="M66.4 56h8.4v19.6H66.4z" fill="#ff75b5" class="cursor-active"/></g><g transform="translate(1970,0)"><use xlink:href="#5"/><path d="M74.8 56h8.4v19.6H74.8z" fill="#ff75b5" class="cursor-active"/></g><g transform="translate(2364,0)"><use xlink:href="#6"/><path d="M83.2 56h8.4v19.6H83.2z" fill="#ff75b5" class="cursor-active"/></g><g transform="translate(2758,0)"><use xlink:href="#7"/><path d="M91.6 56h8.4v19.6H91.6z" fill="#ff75b5" class="cursor-active"/></g><g transform="translate(3152,0)"><use xlink:href="#8"/><path d="M100 56h8.4v19.6H100z" fill="#ff75b5" class="cursor-active"/></g><g transform="translate(3546,0)"><use xlink:href="#9"/><path d="M108.4 56h8.4v19.6H108.4z" fill="#ff75b5" class="cursor-active"/></g><g transform="translate(3940,0)"><use xlink:href="#10"/><path d="M116.8 56h8.4v19.6H116.8z" fill="#ff75b5" class="cursor-active"/></g><g transform="translate(4334,0)"><use xlink:href="#11"/><path d="M125.2 56h8.4v19.6H125.2z" fill="#ff75b5" class="cursor-active"/></g><g transform="translate(4728,0)"><use xlink:href="#12"/><path d="M133.6 56h8.4v19.6H133.6z" fill="#ff75b5" class="cursor-active"/></g><g transform="translate(5122,0)"><use xlink:href="#13"/><path d="M142 56h8.4v19.6H142z" fill="#ff75b5" class="cursor-active"/></g><g transform="translate(5516,0)"><use xlink:href="#13"/><path d="M150.4 56h8.4v19.6H150.4z" fill="#ff75b5" class="cursor-active"/></g><g transform="translate(5910,0)"><use xlink:href="#14"/><path d="M158.8 56h8.4v19.6H158.8z" fill="#ff75b5" class="cursor-active"/></g><g transform="translate(6304,0)"><use xlink:href="#15"/><path d="M167.2 56h8.4v19.6H167.2z" fill="#ff75b5" class="cursor-active"/></g><g transform="translate(6698,0)"><use xlink:href="#15"/><path d="M175.6 56h8.4v19.6H175.6z" fill="#ff75b5" class="cursor-active"/></g><g transform="translate(7092,0)"><use xlink:href="#16"/><path d="M184 56h8.4v19.6H184z" fill="#ff75b5" class="cursor-active"/></g><g transform="translate(7486,0)"><use xlink:href="#17"/><path d="M192.4 56h8.4v19.6H192.4z" fill="#ff75b5" class="cursor-active"/></g><g transform="translate(7880,0)"><use xlink:href="#18"/><path d="M200.8 56h8.4v19.6H200.8z" fill="#ff75b5" class="cursor-active"/></g><g transform="translate(8274,0)"><use xlink:href="#18"/><path d="M209.2 56h8.4v19.6H209.2z" fill="#ff75b5" class="cursor-active"/></g><g transform="translate(8668,0)"><use xlink:href="#19"/><path d="M217.6 56h8.4v19.6H217.6z" fill="#ff75b5" class="cursor-active"/></g><g transform="translate(9062,0)"><use xlink:href="#20"/><path d="M226 56h8.4v19.6H226z" fill="#ff75b5" class="cursor-active"/></g><g transform="translate(9456,0)"><use xlink:href="#21"/><path d="M234.4 56h8.4v19.6H234.4z" fill="#ff75b5" class="cursor-active"/></g><g transform="translate(9850,0)"><use xlink:href="#22"/><path d="M242.8 56h8.4v19.6H242.8z" fill="#ff75b5" class="cursor-active"/></g><g transform="translate(10244,0)"><use xlink:href="#23"/><path d="M251.2 56h8.4v19.6H251.2z" fill="#ff75b5" class="cursor-active"/></g><g transform="translate(10638,0)"><use xlink:href="#24"/><path d="M259.6 56h8.4v19.6H259.6z" fill="#ff75b5" class="cursor-active"/></g><g transform="translate(11032,0)"><use xlink:href="#25"/><path d="M268 56h8.4v19.6H268z" fill="#ff75b5" class="cursor-active"/></g><g transform="translate(11426,0)"><use xlink:href="#26"/><path d="M276.4 56h8.4v19.6H276.4z" fill="#ff75b5" class="cursor-active"/></g><g transform="translate(11820,0)"><use xlink:href="#27"/><path d="M284.8 56h8.4v19.6H284.8z" fill="#ff75b5" class="cursor-active"/></g><g transform="translate(12214,0)"><use xlink:href="#28"/><path d="M293.2 56h8.4v19.6H293.2z" fill="#ff75b5" class="cursor-active"/></g><g transform="translate(12608,0)"><use xlink:href="#29"/><path d="M301.6 56h8.4v19.6H301.6z" fill="#ff75b5" class="cursor-active"/></g><g transform="translate(13002,0)"><use xlink:href="#29"/><path d="M310 56h8.4v19.6H310z" fill="#ff75b5" class="cursor-active"/></g><g transform="translate(13396,0)"><use xlink:href="#30"/><path d="M318.4 56h8.4v19.6H318.4z" fill="#ff75b5" class="cursor-active"/></g><g transform="translate(13790,0)"><use xlink:href="#31"/><path d="M326.8 56h8.4v19.6H326.8z" fill="#ff75b5" class="cursor-active"/></g><g transform="translate(14184,0)"><use xlink:href="#32"/><path d="M335.2 56h8.4v19.6H335.2z" fill="#ff75b5" class="cursor-active"/></g><g transform="translate(14578,0)"><use xlink:href="#33"/><path d="M343.6 56h8.4v19.6H343.6z" fill="#ff75b5" class="cursor-active"/></g><g transform="translate(14972,0)"><use xlink:href="#34"/><path d="M352 56h8.4v19.6H352z" fill="#ff75b5" class="cursor-active"/></g><g transform="translate(15366,0)"><use xlink:href="#35"/><path d="M360.4 56h8.4v19.6H360.4z" fill="#ff75b5" class="cursor-active"/></g><g transform="translate(15760,0)"><use xlink:href="#36"/><path d="M368.8 56h8.4v19.6H368.8z" fill="#ff75b5" class="cursor-active"/></g><g transform="translate(16154,0)"><use xlink:href="#36"/><path d="M368.8 56h8.4v19.6H368.8z" fill="#ff75b5" class="cursor"/></g><g transform="translate(16548,0)"><use xlink:href="#36"/></g><g transform="translate(16942,0)"><use xlink:href="#36"/><use xlink:href="#37"/></g><g transform="translate(17336,0)"><use xlink:href="#36"/><use xlink:href="#37"/><use xlink:href="#38"/><path d="M32.8 95.2h8.4v19.6H32.8z" fill="#ff75b5" class="cursor"/></g><g transform="translate(17730,0)"><use xlink:href="#36"/><use xlink:href="#37"/><use xlink:href="#39"/><path d="M41.2 95.2h8.4v19.6H41.2z" fill="#ff75b5" class="cursor-active"/></g><g transform="translate(18124,0)"><use xlink:href="#36"/><use xlink:href="#37"/><use xlink:href="#40"/><path d="M49.6 95.2h8.4v19.6H49.6z" fill="#ff75b5" class="cursor-active"/></g><g transform="translate(18518,0)"><use xlink:href="#36"/><use xlink:href="#37"/><use xlink:href="#41"/><path d="M58 95.2h8.4v19.6H58z" fill="#ff75b5" class="cursor-active"/></g><g transform="translate(18912,0)"><use xlink:href="#36"/><use xlink:href="#37"/><use xlink:href="#42"/><path d="M66.4 95.2h8.4v19.6H66.4z" fill="#ff75b5" class="cursor-active"/></g><g transform="translate(19306,0)"><use xlink:href="#36"/><use xlink:href="#37"/><use xlink:href="#42"/><path d="M74.8 95.2h8.4v19.6H74.8z" fill="#ff75b5" class="cursor-active"/></g><g transform="translate(19700,0)"><use xlink:href="#36"/><use xlink:href="#37"/><use xlink:href="#43"/><path d="M83.2 95.2h8.4v19.6H83.2z" fill="#ff75b5" class="cursor-active"/></g><g transform="translate(20094,0)"><use xlink:href="#36"/><use xlink:href="#37"/><use xlink:href="#44"/><path d="M91.6 95.2h8.4v19.6H91.6z" fill="#ff75b5" class="cursor-active"/></g><g transform="translate(20488,0)"><use xlink:href="#36"/><use xlink:href="#37"/><use xlink:href="#45"/><path d="M100 95.2h8.4v19.6H100z" fill="#ff75b5" class="cursor-active"/></g><g transform="translate(20882,0)"><use xlink:href="#36"/><use xlink:href="#37"/><use xlink:href="#46"/><path d="M108.4 95.2h8.4v19.6H108.4z" fill="#ff75b5" class="cursor-active"/></g><g transform="translate(21276,0)"><use xlink:href="#36"/><use xlink:href="#37"/><use xlink:href="#47"/><path d="M116.8 95.2h8.4v19.6H116.8z" fill="#ff75b5" class="cursor-active"/></g><g transform="translate(21670,0)"><use xlink:href="#36"/><use xlink:href="#37"/><use xlink:href="#47"/><path d="M125.2 95.2h8.4v19.6H125.2z" fill="#ff75b5" class="cursor-active"/></g><g transform="translate(22064,0)"><use xlink:href="#36"/><use xlink:href="#37"/><use xlink:href="#48"/><path d="M133.6 95.2h8.4v19.6H133.6z" fill="#ff75b5" class="cursor-active"/></g><g transform="translate(22458,0)"><use xlink:href="#36"/><use xlink:href="#37"/><use xlink:href="#49"/><path d="M142 95.2h8.4v19.6H142z" fill="#ff75b5" class="cursor-active"/></g><g transform="translate(22852,0)"><use xlink:href="#36"/><use xlink:href="#37"/><use xlink:href="#49"/><path d="M150.4 95.2h8.4v19.6H150.4z" fill="#ff75b5" class="cursor-active"/></g><g transform="translate(23246,0)"><use xlink:href="#36"/><use xlink:href="#37"/><use xlink:href="#50"/><path d="M158.8 95.2h8.4v19.6H158.8z" fill="#ff75b5" class="cursor-active"/></g><g transform="translate(23640,0)"><use xlink:href="#36"/><use xlink:href="#37"/><use xlink:href="#51"/><path d="M167.2 95.2h8.4v19.6H167.2z" fill="#ff75b5" class="cursor-active"/></g><g transform="translate(24034,0)"><use xlink:href="#36"/><use xlink:href="#37"/><use xlink:href="#52"/><path d="M175.6 95.2h8.4v19.6H175.6z" fill="#ff75b5" class="cursor-active"/></g><g transform="translate(24428,0)"><use xlink:href="#36"/><use xlink:href="#37"/><use xlink:href="#52"/><path d="M184 95.2h8.4v19.6H184z" fill="#ff75b5" class="cursor-active"/></g><g transform="translate(24822,0)"><use xlink:href="#36"/><use xlink:href="#37"/><use xlink:href="#53"/><path d="M192.4 95.2h8.4v19.6H192.4z" fill="#ff75b5" class="cursor-active"/></g><g transform="translate(25216,0)"><use xlink:href="#36"/><use xlink:href="#37"/><use xlink:href="#54"/><path d="M200.8 95.2h8.4v19.6H200.8z" fill="#ff75b5" class="cursor-active"/></g><g transform="translate(25610,0)"><use xlink:href="#36"/><use xlink:href="#37"/><use xlink:href="#55"/><path d="M209.2 95.2h8.4v19.6H209.2z" fill="#ff75b5" class="cursor-active"/></g><g transform="translate(26004,0)"><use xlink:href="#36"/><use xlink:href="#37"/><use xlink:href="#56"/><path d="M217.6 95.2h8.4v19.6H217.6z" fill="#ff75b5" class="cursor-active"/></g><g transform="translate(26398,0)"><use xlink:href="#36"/><use xlink:href="#37"/><use xlink:href="#56"/><path d="M226 95.2h8.4v19.6H226z" fill="#ff75b5" class="cursor-active"/></g><g transform="translate(26792,0)"><use xlink:href="#36"/><use xlink:href="#37"/><use xlink:href="#57"/><path d="M234.4 95.2h8.4v19.6H234.4z" fill="#ff75b5" class="cursor-active"/></g><g transform="translate(27186,0)"><use xlink:href="#36"/><use xlink:href="#37"/><use xlink:href="#58"/><path d="M242.8 95.2h8.4v19.6H242.8z" fill="#ff75b5" class="cursor-active"/></g><g transform="translate(27580,0)"><use xlink:href="#36"/><use xlink:href="#37"/><use xlink:href="#59"/><path d="M251.2 95.2h8.4v19.6H251.2z" fill="#ff75b5" class="cursor-active"/></g><g transform="translate(27974,0)"><use xlink:href="#36"/><use xlink:href="#37"/><use xlink:href="#60"/><path d="M259.6 95.2h8.4v19.6H259.6z" fill="#ff75b5" class="cursor-active"/></g><g transform="translate(28368,0)"><use xlink:href="#36"/><use xlink:href="#37"/><use xlink:href="#61"/><path d="M268 95.2h8.4v19.6H268z" fill="#ff75b5" class="cursor-active"/></g><g transform="translate(28762,0)"><use xlink:href="#36"/><use xlink:href="#37"/><use xlink:href="#62"/><path d="M276.4 95.2h8.4v19.6H276.4z" fill="#ff75b5" class="cursor-active"/></g><g transform="translate(29156,0)"><use xlink:href="#36"/><use xlink:href="#37"/><use xlink:href="#63"/><path d="M284.8 95.2h8.4v19.6H284.8z" fill="#ff75b5" class="cursor-active"/></g><g transform="translate(29550,0)"><use xlink:href="#36"/><use xlink:href="#37"/><use xlink:href="#64"/><path d="M293.2 95.2h8.4v19.6H293.2z" fill="#ff75b5" class="cursor-active"/></g><g transform="translate(29944,0)"><use xlink:href="#36"/><use xlink:href="#37"/><use xlink:href="#64"/><path d="M301.6 95.2h8.4v19.6H301.6z" fill="#ff75b5" class="cursor-active"/></g><g transform="translate(30338,0)"><use xlink:href="#36"/><use xlink:href="#37"/><use xlink:href="#65"/><path d="M310 95.2h8.4v19.6H310z" fill="#ff75b5" class="cursor-active"/></g><g transform="translate(30732,0)"><use xlink:href="#36"/><use xlink:href="#37"/><use xlink:href="#66"/><path d="M318.4 95.2h8.4v19.6H318.4z" fill="#ff75b5" class="cursor-active"/></g><g transform="translate(31126,0)"><use xlink:href="#36"/><use xlink:href="#37"/><use xlink:href="#67"/><path d="M326.8 95.2h8.4v19.6H326.8z" fill="#ff75b5" class="cursor-active"/></g><g transform="translate(31520,0)"><use xlink:href="#36"/><use xlink:href="#37"/><use xlink:href="#68"/><path d="M335.2 95.2h8.4v19.6H335.2z" fill="#ff75b5" class="cursor-active"/></g><g transform="translate(31914,0)"><use xlink:href="#36"/><use xlink:href="#37"/><use xlink:href="#69"/><path d="M343.6 95.2h8.4v19.6H343.6z" fill="#ff75b5" class="cursor-active"/></g><g transform="translate(32308,0)"><use xlink:href="#36"/><use xlink:href="#37"/><use xlink:href="#70"/><path d="M352 95.2h8.4v19.6H352z" fill="#ff75b5" class="cursor-active"/></g><g transform="translate(32702,0)"><use xlink:href="#36"/><use xlink:href="#37"/><use xlink:href="#71"/><path d="M360.4 95.2h8.4v19.6H360.4z" fill="#ff75b5" class="cursor-active"/></g><g transform="translate(33096,0)"><use xlink:href="#36"/><use xlink:href="#37"/><use xlink:href="#71"/><path d="M360.4 95.2h8.4v19.6H360.4z" fill="#ff75b5" class="cursor"/></g><g transform="translate(33490,0)"><use xlink:href="#36"/><use xlink:href="#37"/><use xlink:href="#71"/><path d="M352 95.2h8.4v19.6H352z" fill="#ff75b5" class="cursor-active"/></g><g transform="translate(33884,0)"><use xlink:href="#36"/><use xlink:href="#37"/><use xlink:href="#71"/><path d="M343.6 95.2h8.4v19.6H343.6z" fill="#ff75b5" class="cursor-active"/></g><g transform="translate(34278,0)"><use xlink:href="#36"/><use xlink:href="#37"/><use xlink:href="#71"/><path d="M335.2 95.2h8.4v19.6H335.2z" fill="#ff75b5" class="cursor-active"/></g><g transform="translate(34672,0)"><use xlink:href="#36"/><use xlink:href="#37"/><use xlink:href="#71"/><path d="M326.8 95.2h8.4v19.6H326.8z" fill="#ff75b5" class="cursor-active"/></g><g transform="translate(35066,0)"><use xlink:href="#36"/><use xlink:href="#37"/><use xlink:href="#71"/><path d="M318.4 95.2h8.4v19.6H318.4z" fill="#ff75b5" class="cursor-active"/></g><g transform="translate(35460,0)"><use xlink:href="#36"/><use xlink:href="#37"/><use xlink:href="#71"/><path d="M310 95.2h8.4v19.6H310z" fill="#ff75b5" class="cursor-active"/></g><g transform="translate(35854,0)"><use xlink:href="#36"/><use xlink:href="#37"/><use xlink:href="#71"/><path d="M301.6 95.2h8.4v19.6H301.6z" fill="#ff75b5" class="cursor-active"/></g><g transform="translate(36248,0)"><use xlink:href="#36"/><use xlink:href="#37"/><use xlink:href="#71"/><path d="M293.2 95.2h8.4v19.6H293.2z" fill="#ff75b5" class="cursor-active"/></g><g transform="translate(36642,0)"><use xlink:href="#36"/><use xlink:href="#37"/><use xlink:href="#71"/><path d="M284.8 95.2h8.4v19.6H284.8z" fill="#ff75b5" class="cursor-active"/></g><g transform="translate(37036,0)"><use xlink:href="#36"/><use xlink:href="#37"/><use xlink:href="#71"/><path d="M276.4 95.2h8.4v19.6H276.4z" fill="#ff75b5" class="cursor-active"/></g><g transform="translate(37430,0)"><use xlink:href="#36"/><use xlink:href="#37"/><use xlink:href="#71"/><path d="M268 95.2h8.4v19.6H268z" fill="#ff75b5" class="cursor-active"/></g><g transform="translate(37824,0)"><use xlink:href="#36"/><use xlink:href="#37"/><use xlink:href="#71"/><path d="M259.6 95.2h8.4v19.6H259.6z" fill="#ff75b5" class="cursor-active"/></g><g transform="translate(38218,0)"><use xlink:href="#36"/><use xlink:href="#37"/><use xlink:href="#71"/><path d="M251.2 95.2h8.4v19.6H251.2z" fill="#ff75b5" class="cursor-active"/></g><g transform="translate(38612,0)"><use xlink:href="#36"/><use xlink:href="#37"/><use xlink:href="#71"/><path d="M242.8 95.2h8.4v19.6H242.8z" fill="#ff75b5" class="cursor-active"/></g><g transform="translate(39006,0)"><use xlink:href="#36"/><use xlink:href="#37"/><use xlink:href="#71"/><path d="M234.4 95.2h8.4v19.6H234.4z" fill="#ff75b5" class="cursor-active"/></g><g transform="translate(39400,0)"><use xlink:href="#36"/><use xlink:href="#37"/><use xlink:href="#71"/><path d="M226 95.2h8.4v19.6H226z" fill="#ff75b5" class="cursor-active"/></g><g transform="translate(39794,0)"><use xlink:href="#36"/><use xlink:href="#37"/><use xlink:href="#71"/><path d="M217.6 95.2h8.4v19.6H217.6z" fill="#ff75b5" class="cursor-active"/></g><g transform="translate(40188,0)"><use xlink:href="#36"/><use xlink:href="#37"/><use xlink:href="#71"/><path d="M209.2 95.2h8.4v19.6H209.2z" fill="#ff75b5" class="cursor-active"/></g><g transform="translate(40582,0)"><use xlink:href="#36"/><use xlink:href="#37"/><use xlink:href="#71"/><path d="M200.8 95.2h8.4v19.6H200.8z" fill="#ff75b5" class="cursor-active"/></g><g transform="translate(40976,0)"><use xlink:href="#36"/><use xlink:href="#37"/><use xlink:href="#71"/><path d="M192.4 95.2h8.4v19.6H192.4z" fill="#ff75b5" class="cursor-active"/></g><g transform="translate(41370,0)"><use xlink:href="#36"/><use xlink:href="#37"/><use xlink:href="#71"/><path d="M184 95.2h8.4v19.6H184z" fill="#ff75b5" class="cursor-active"/></g><g transform="translate(41764,0)"><use xlink:href="#36"/><use xlink:href="#37"/><use xlink:href="#71"/><path d="M184 95.2h8.4v19.6H184z" fill="#ff75b5" opacity="0.5"/><path d="M192.4 95.2h8.4v19.6H192.4z" fill="#ff75b5" class="cursor-active"/></g><g transform="translate(42158,0)"><use xlink:href="#36"/><use xlink:href="#37"/><use xlink:href="#71"/><path d="M184 95.2h16.8v19.6H184z" fill="#ff75b5" opacity="0.5"/><path d="M200.8 95.2h8.4v19.6H200.8z" fill="#ff75b5" class="cursor-active"/></g><g transform="translate(42552,0)"><use xlink:href="#36"/><use xlink:href="#37"/><use xlink:href="#71"/><path d="M184 95.2h25.2v19.6H184z" fill="#ff75b5" opacity="0.5"/><path d="M209.2 95.2h8.4v19.6H209.2z" fill="#ff75b5" class="cursor-active"/></g><g transform="translate(42946,0)"><use xlink:href="#36"/><use xlink:href="#37"/><use xlink:href="#71"/><path d="M184 95.2h33.6v19.6H184z" fill="#ff75b5" opacity="0.5"/><path d="M217.6 95.2h8.4v19.6H217.6z" fill="#ff75b5" class="cursor-active"/></g><g transform="translate(43340,0)"><use xlink:href="#36"/><use xlink:href="#37"/><use xlink:href="#71"/><path d="M184 95.2h33.6v19.6H184z" fill="#ff75b5" opacity="0.5"/><path d="M217.6 95.2h8.4v19.6H217.6z" fill="#ff75b5" class="cursor"/></g><g transform="translate(43734,0)"><use xlink:href="#36"/><use xlink:href="#37"/><use xlink:href="#71"/><path d="M184 95.2h33.6v19.6H184z" fill="#ff75b5" opacity="0.5"/></g><g transform="translate(44128,0)"><use xlink:href="#36"/><use xlink:href="#37"/><use xlink:href="#71"/><use xlink:href="#72"/></g><g transform="translate(44522,0)"><use xlink:href="#36"/><use xlink:href="#37"/><use xlink:href="#71"/><use xlink:href="#72"/><use xlink:href="#73"/><path d="M32.8 134.4h8.4v19.6H32.8z" fill="#ff75b5" class="cursor"/></g></g></g></g></svg>