<svg xmlns="http://www.w3.org/2000/svg" xmlns:xlink="http://www.w3.org/1999/xlink" width="359" height="148" viewBox="0 0 359 148"><defs><symbol id="1"><text x="16" y="57.3" class="c">❯</text></symbol><symbol id="2"><text x="16" y="57.3" class="c">❯ </text><text x="35.2" y="57.3" class="d">e</text></symbol><symbol id="3"><text x="16" y="57.3" class="c">❯ </text><text x="35.2" y="57.3" class="d">ec</text></symbol><symbol id="4"><text x="16" y="57.3" class="c">❯ </text><text x="35.2" y="57.3" class="d">ech</text></symbol><symbol id="5"><text x="16" y="57.3" class="c">❯ </text><text x="35.2" y="57.3" class="d">echo</text></symbol><symbol id="6"><text x="16" y="57.3" class="c">❯ </text><text x="35.2" y="57.3" class="d">echo &apos;</text></symbol><symbol id="7"><text x="16" y="57.3" class="c">❯ </text><text x="35.2" y="57.3" class="d">echo &apos;P</text></symbol><symbol id="8"><text x="16" y="57.3" class="c">❯ </text><text x="35.2" y="57.3" class="d">echo &apos;Pa</text></symbol><symbol id="9"><text x="16" y="57.3" class="c">❯ </text><text x="35.2" y="57.3" class="d">echo &apos;Par</text></symbol><symbol id="10"><text x="16" y="57.3" class="c">❯ </text><text x="35.2" y="57.3" class="d">echo &apos;Part</text></symbol><symbol id="11"><text x="16" y="57.3" class="c">❯ </text><text x="35.2" y="57.3" class="d">echo &apos;Parti</text></symbol><symbol id="12"><text x="16" y="57.3" class="c">❯ </text><text x="35.2" y="57.3" class="d">echo &apos;Partia</text></symbol><symbol id="13"><text x="16" y="57.3" class="c">❯ </text><text x="35.2" y="57.3" class="d">echo &apos;Partial</text></symbol><symbol id="14"><text x="16" y="57.3" class="c">❯ </text><text x="35.2" y="57.3" class="d">echo &apos;Partial t</text></symbol><symbol id="15"><text x="16" y="57.3" class="c">❯ </text><text x="35.2" y="57.3" class="d">echo &apos;Partial th</text></symbol><symbol id="16"><text x="16" y="57.3" class="c">❯ </text><text x="35.2" y="57.3" class="d">echo &apos;Partial the</text></symbol><symbol id="17"><text x="16" y="57.3" class="c">❯ </text><text x="35.2" y="57.3" class="d">echo &apos;Partial them</text></symbol><symbol id="18"><text x="16" y="57.3" class="c">❯ </text><text x="35.2" y="57.3" class="d">echo &apos;Partial theme</text></symbol><symbol id="19"><text x="16" y="57.3" class="c">❯ </text><text x="35.2" y="57.3" class="d">echo &apos;Partial theme o</text></symbol><symbol id="20"><text x="16" y="57.3" class="c">❯ </text><text x="35.2" y="57.3" class="d">echo &apos;Partial theme ov</text></symbol><symbol id="21"><text x="16" y="57.3" class="c">❯ </text><text x="35.2" y="57.3" class="d">echo &apos;Partial theme ove</text></symbol><symbol id="22"><text x="16" y="57.3" class="c">❯ </text><text x="35.2" y="57.3" class="d">echo &apos;Partial theme over</text></symbol><symbol id="23"><text x="16" y="57.3" class="c">❯ </text><text x="35.2" y="57.3" class="d">echo &apos;Partial theme overr</text></symbol><symbol id="24"><text x="16" y="57.3" class="c">❯ </text><text x="35.2" y="57.3" class="d">echo &apos;Partial theme overri</text></symbol><symbol id="25"><text x="16" y="57.3" class="c">❯ </text><text x="35.2" y="57.3" class="d">echo &apos;Partial theme overrid</text></symbol><symbol id="26"><text x="16" y="57.3" class="c">❯ </text><text x="35.2" y="57.3" class="d">echo &apos;Partial theme override</text></symbol><symbol id="27"><text x="16" y="57.3" class="c">❯ </text><text x="35.2" y="57.3" class="d">echo &apos;Partial theme override!</text></symbol><symbol id="28"><text x="16" y="57.3" class="c">❯ </text><text x="35.2" y="57.3" class="d">echo &apos;Partial theme override!&apos;</text></symbol><symbol id="29"><text x="16" y="79.7" class="d">Partial theme override!</text></symbol><symbol id="30"><text x="16" y="102.1" class="c">❯</text></symbol><symbol id="31"><text x="16" y="102.1" class="c">❯ </text><text x="35.2" y="102.1" class="d">O</text></symbol><symbol id="32"><text x="16" y="102.1" class="c">❯ </text><text x="35.2" y="102.1" class="d">On</text></symbol><symbol id="33"><text x="16" y="102.1" class="c">❯ </text><text x="35.2" y="102.1" class="d">Onl</text></symbol><symbol id="34"><text x="16" y="102.1" class="c">❯ </text><text x="35.2" y="102.1" class="d">Only</text></symbol><symbol id="35"><text x="16" y="102.1" class="c">❯ </text><text x="35.2" y="102.1" class="d">Only B</text></symbol><symbol id="36"><text x="16" y="102.1" class="c">❯ </text><text x="35.2" y="102.1" class="d">Only BG</text></symbol><symbol id="37"><text x="16" y="102.1" class="c">❯ </text><text x="35.2" y="102.1" class="d">Only BG,</text></symbol><symbol id="38"><text x="16" y="102.1" class="c">❯ </text><text x="35.2" y="102.1" class="d">Only BG, F</text></symbol><symbol id="39"><text x="16" y="102.1" class="c">❯ </text><text x="35.2" y="102.1" class="d">Only BG, FG</text></symbol><symbol id="40"><text x="16" y="102.1" class="c">❯ </text><text x="35.2" y="102.1" class="d">Only BG, FG,</text></symbol><symbol id="41"><text x="16" y="102.1" class="c">❯ </text><text x="35.2" y="102.1" class="d">Only BG, FG, a</text></symbol><symbol id="42"><text x="16" y="102.1" class="c">❯ </text><text x="35.2" y="102.1" class="d">Only BG, FG, an</text></symbol><symbol id="43"><text x="16" y="102.1" class="c">❯ </text><text x="35.2" y="102.1" class="d">Only BG, FG, and</text></symbol><symbol id="44"><text x="16" y="102.1" class="c">❯ </text><text x="35.2" y="102.1" class="d">Only BG, FG, and c</text></symbol><symbol id="45"><text x="16" y="102.1" class="c">❯ </text><text x="35.2" y="102.1" class="d">Only BG, FG, and cu</text></symbol><symbol id="46"><text x="16" y="102.1" class="c">❯ </text><text x="35.2" y="102.1" class="d">Only BG, FG, and cur</text></symbol><symbol id="47"><text x="16" y="102.1" class="c">❯ </text><text x="35.2" y="102.1" class="d">Only BG, FG, and curs</text></symbol><symbol id="48"><text x="16" y="102.1" class="c">❯ </text><text x="35.2" y="102.1" class="d">Only BG, FG, and curso</text></symbol><symbol id="49"><text x="16" y="102.1" class="c">❯ </text><text x="35.2" y="102.1" class="d">Only BG, FG, and cursor</text></symbol><symbol id="50"><text x="16" y="102.1" class="c">❯ </text><text x="35.2" y="102.1" class="d">Only BG, FG, and cursor c</text></symbol><symbol id="51"><text x="16" y="102.1" class="c">❯ </text><text x="35.2" y="102.1" class="d">Only BG, FG, and cursor ch</text></symbol><symbol id="52"><text x="16" y="102.1" class="c">❯ </text><text x="35.2" y="102.1" class="d">Only BG, FG, and cursor cha</text></symbol><symbol id="53"><text x="16" y="102.1" class="c">❯ </text><text x="35.2" y="102.1" class="d">Only BG, FG, and cursor chan</text></symbol><symbol id="54"><text x="16" y="102.1" class="c">❯ </text><text x="35.2" y="102.1" class="d">Only BG, FG, and cursor chang</text></symbol><symbol id="55"><text x="16" y="102.1" class="c">❯ </text><text x="35.2" y="102.1" class="d">Only BG, FG, and cursor change</text></symbol><symbol id="56"><text x="16" y="102.1" class="c">❯ </text><text x="35.2" y="102.1" class="d">Only BG, FG, and cursor changed</text></symbol></defs><style>@keyframes f{0.12%{transform:translateX(0px)}0.88%{transform:translateX(-359px)}1.65%{transform:translateX(-718px)}2.40%{transform:translateX(-1077px)}3.16%{transform:translateX(-1436px)}3.89%{transform:translateX(-1795px)}4.63%{transform:translateX(-2154px)}5.38%{transform:translateX(-2513px)}6.12%{transform:translateX(-2872px)}6.89%{transform:translateX(-3231px)}7.64%{transform:translateX(-3590px)}8.37%{transform:translateX(-3949px)}9.12%{transform:translateX(-4308px)}9.89%{transform:translateX(-4667px)}10.62%{transform:translateX(-5026px)}11.41%{transform:translateX(-5385px)}12.14%{transform:translateX(-5744px)}12.93%{transform:translateX(-6103px)}13.65%{transform:translateX(-6462px)}14.39%{transform:translateX(-6821px)}15.11%{transform:translateX(-7180px)}15.89%{transform:translateX(-7539px)}16.63%{transform:translateX(-7898px)}17.37%{transform:translateX(-8257px)}18.14%{transform:translateX(-8616px)}18.86%{transform:translateX(-8975px)}19.58%{transform:translateX(-9334px)}20.36%{transform:translateX(-9693px)}21.12%{transform:translateX(-10052px)}21.84%{transform:translateX(-10411px)}22.59%{transform:translateX(-10770px)}22.62%{transform:translateX(-11129px)}31.42%{transform:translateX(-11488px)}31.57%{transform:translateX(-11847px)}33.15%{transform:translateX(-12206px)}33.90%{transform:translateX(-12565px)}34.66%{transform:translateX(-12924px)}35.42%{transform:translateX(-13283px)}36.17%{transform:translateX(-13642px)}36.95%{transform:translateX(-14001px)}37.66%{transform:translateX(-14360px)}38.37%{transform:translateX(-14719px)}39.14%{transform:translateX(-15078px)}39.89%{transform:translateX(-15437px)}40.61%{transform:translateX(-15796px)}41.34%{transform:translateX(-16155px)}42.08%{transform:translateX(-16514px)}42.87%{transform:translateX(-16873px)}43.61%{transform:translateX(-17232px)}44.36%{transform:translateX(-17591px)}45.09%{transform:translateX(-17950px)}45.87%{transform:translateX(-18309px)}46.61%{transform:translateX(-18668px)}47.42%{transform:translateX(-19027px)}48.14%{transform:translateX(-19386px)}48.85%{transform:translateX(-19745px)}49.62%{transform:translateX(-20104px)}50.35%{transform:translateX(-20463px)}51.11%{transform:translateX(-20822px)}51.85%{transform:translateX(-21181px)}52.61%{transform:translateX(-21540px)}53.37%{transform:translateX(-21899px)}54.10%{transform:translateX(-22258px)}54.88%{transform:translateX(-22617px)}55.59%{transform:translateX(-22976px)}56.36%{transform:translateX(-23335px)}56.38%{transform:translateX(-23694px)}}.a{fill:#1a0a2e}.c{fill:#d2a8ff;stroke:#d2a8ff}.d{fill:#ff79c6;stroke:#ff79c6}path[fill="none"]{fill:none}path[shape-rendering="crispEdges"]{stroke:none}text{font-family:'SF Mono',Monaco,Consolas,Menlo,monospace;font-size:16px;dominant-baseline:text-before-edge;white-space:pre}text[class]{stroke:none}.bold{font-weight:700}.italic{font-style:italic}.uline{text-decoration:underline}.strike{text-decoration:line-through}.dim{opacity:0.5}@keyframes blink{0%,50%{opacity:1}50.01%,100%{opacity:0}}.cursor{animation:blink 1s step-end infinite;mix-blend-mode:difference}.cursor-active{opacity:1;mix-blend-mode:difference}</style><g transform="translate(0,0)"><rect width="359" height="148" rx="8" fill="#1a0a2e"/><rect width="359" height="40" rx="8" fill="#1a0a2e"/><path d="M0 32h359v8H0z" fill="#1a0a2e"/><circle cx="16" cy="20" r="6" fill="#ff5f56"/><circle cx="36" cy="20" r="6" fill="#ffbd2e"/><circle cx="56" cy="20" r="6" fill="#27c93f"/><clipPath id="content-clip"><path d="M0 40h359v108H0z" /></clipPath><g clip-path="url(#content-clip)"><g style="animation:f 6.909s steps(1,end) infinite"><g transform="translate(0,0)"><use xlink:href="#1"/><path d="M35.2 56h9.6v22.4H35.2z" fill="#fff" class="cursor"/></g><g transform="translate(359,0)"><use xlink:href="#2"/><path d="M44.8 56h9.6v22.4H44.8z" fill="#fff" class="cursor-active"/></g><g transform="translate(718,0)"><use xlink:href="#3"/><path d="M54.4 56h9.6v22.4H54.4z" fill="#fff" class="cursor-active"/></g><g transform="translate(1077,0)"><use xlink:href="#4"/><path d="M64 56h9.6v22.4H64z" fill="#fff" class="cursor-active"/></g><g transform="translate(1436,0)"><use xlink:href="#5"/><path d="M73.6 56h9.6v22.4H73.6z" fill="#fff" class="cursor-active"/></g><g transform="translate(1795,0)"><use xlink:href="#5"/><path d="M83.2 56h9.6v22.4H83.2z" fill="#fff" class="cursor-active"/></g><g transform="translate(2154,0)"><use xlink:href="#6"/><path d="M92.8 56h9.6v22.4H92.8z" fill="#fff" class="cursor-active"/></g><g transform="translate(2513,0)"><use xlink:href="#7"/><path d="M102.4 56h9.6v22.4H102.4z" fill="#fff" class="cursor-active"/></g><g transform="translate(2872,0)"><use xlink:href="#8"/><path d="M112 56h9.6v22.4H112z" fill="#fff" class="cursor-active"/></g><g transform="translate(3231,0)"><use xlink:href="#9"/><path d="M121.6 56h9.6v22.4H121.6z" fill="#fff" class="cursor-active"/></g><g transform="translate(3590,0)"><use xlink:href="#10"/><path d="M131.2 56h9.6v22.4H131.2z" fill="#fff" class="cursor-active"/></g><g transform="translate(3949,0)"><use xlink:href="#11"/><path d="M140.8 56h9.6v22.4H140.8z" fill="#fff" class="cursor-active"/></g><g transform="translate(4308,0)"><use xlink:href="#12"/><path d="M150.4 56h9.6v22.4H150.4z" fill="#fff" class="cursor-active"/></g><g transform="translate(4667,0)"><use xlink:href="#13"/><path d="M160 56h9.6v22.4H160z" fill="#fff" class="cursor-active"/></g><g transform="translate(5026,0)"><use xlink:href="#13"/><path d="M169.6 56h9.6v22.4H169.6z" fill="#fff" class="cursor-active"/></g><g transform="translate(5385,0)"><use xlink:href="#14"/><path d="M179.2 56h9.6v22.4H179.2z" fill="#fff" class="cursor-active"/></g><g transform="translate(5744,0)"><use xlink:href="#15"/><path d="M188.8 56h9.6v22.4H188.8z" fill="#fff" class="cursor-active"/></g><g transform="translate(6103,0)"><use xlink:href="#16"/><path d="M198.4 56h9.6v22.4H198.4z" fill="#fff" class="cursor-active"/></g><g transform="translate(6462,0)"><use xlink:href="#17"/><path d="M208 56h9.6v22.4H208z" fill="#fff" class="cursor-active"/></g><g transform="translate(6821,0)"><use xlink:href="#18"/><path d="M217.6 56h9.6v22.4H217.6z" fill="#fff" class="cursor-active"/></g><g transform="translate(7180,0)"><use xlink:href="#18"/><path d="M227.2 56h9.6v22.4H227.2z" fill="#fff" class="cursor-active"/></g><g transform="translate(7539,0)"><use xlink:href="#19"/><path d="M236.8 56h9.6v22.4H236.8z" fill="#fff" class="cursor-active"/></g><g transform="translate(7898,0)"><use xlink:href="#20"/><path d="M246.4 56h9.6v22.4H246.4z" fill="#fff" class="cursor-active"/></g><g transform="translate(8257,0)"><use xlink:href="#21"/><path d="M256 56h9.6v22.4H256z" fill="#fff" class="cursor-active"/></g><g transform="translate(8616,0)"><use xlink:href="#22"/><path d="M265.6 56h9.6v22.4H265.6z" fill="#fff" class="cursor-active"/></g><g transform="translate(8975,0)"><use xlink:href="#23"/><path d="M275.2 56h9.6v22.4H275.2z" fill="#fff" class="cursor-active"/></g><g transform="translate(9334,0)"><use xlink:href="#24"/><path d="M284.8 56h9.6v22.4H284.8z" fill="#fff" class="cursor-active"/></g><g transform="translate(9693,0)"><use xlink:href="#25"/><path d="M294.4 56h9.6v22.4H294.4z" fill="#fff" class="cursor-active"/></g><g transform="translate(10052,0)"><use xlink:href="#26"/><path d="M304 56h9.6v22.4H304z" fill="#fff" class="cursor-active"/></g><g transform="translate(10411,0)"><use xlink:href="#27"/><path d="M313.6 56h9.6v22.4H313.6z" fill="#fff" class="cursor-active"/></g><g transform="translate(10770,0)"><use xlink:href="#28"/><path d="M323.2 56h9.6v22.4H323.2z" fill="#fff" class="cursor-active"/></g><g transform="translate(11129,0)"><use xlink:href="#28"/><path d="M323.2 56h9.6v22.4H323.2z" fill="#fff" class="cursor"/></g><g transform="translate(11488,0)"><use xlink:href="#28"/></g><g transform="translate(11847,0)"><use xlink:href="#28"/><use xlink:href="#29"/></g><g transform="translate(12206,0)"><use xlink:href="#28"/><use xlink:href="#29"/><use xlink:href="#30"/><path d="M35.2 100.8h9.6v22.4H35.2z" fill="#fff" class="cursor"/></g><g transform="translate(12565,0)"><use xlink:href="#28"/><use xlink:href="#29"/><use xlink:href="#31"/><path d="M44.8 100.8h9.6v22.4H44.8z" fill="#fff" class="cursor-active"/></g><g transform="translate(12924,0)"><use xlink:href="#28"/><use xlink:href="#29"/><use xlink:href="#32"/><path d="M54.4 100.8h9.6v22.4H54.4z" fill="#fff" class="cursor-active"/></g><g transform="translate(13283,0)"><use xlink:href="#28"/><use xlink:href="#29"/><use xlink:href="#33"/><path d="M64 100.8h9.6v22.4H64z" fill="#fff" class="cursor-active"/></g><g transform="translate(13642,0)"><use xlink:href="#28"/><use xlink:href="#29"/><use xlink:href="#34"/><path d="M73.6 100.8h9.6v22.4H73.6z" fill="#fff" class="cursor-active"/></g><g transform="translate(14001,0)"><use xlink:href="#28"/><use xlink:href="#29"/><use xlink:href="#34"/><path d="M83.2 100.8h9.6v22.4H83.2z" fill="#fff" class="cursor-active"/></g><g transform="translate(14360,0)"><use xlink:href="#28"/><use xlink:href="#29"/><use xlink:href="#35"/><path d="M92.8 100.8h9.6v22.4H92.8z" fill="#fff" class="cursor-active"/></g><g transform="translate(14719,0)"><use xlink:href="#28"/><use xlink:href="#29"/><use xlink:href="#36"/><path d="M102.4 100.8h9.6v22.4H102.4z" fill="#fff" class="cursor-active"/></g><g transform="translate(15078,0)"><use xlink:href="#28"/><use xlink:href="#29"/><use xlink:href="#37"/><path d="M112 100.8h9.6v22.4H112z" fill="#fff" class="cursor-active"/></g><g transform="translate(15437,0)"><use xlink:href="#28"/><use xlink:href="#29"/><use xlink:href="#37"/><path d="M121.6 100.8h9.6v22.4H121.6z" fill="#fff" class="cursor-active"/></g><g transform="translate(15796,0)"><use xlink:href="#28"/><use xlink:href="#29"/><use xlink:href="#38"/><path d="M131.2 100.8h9.6v22.4H131.2z" fill="#fff" class="cursor-active"/></g><g transform="translate(16155,0)"><use xlink:href="#28"/><use xlink:href="#29"/><use xlink:href="#39"/><path d="M140.8 100.8h9.6v22.4H140.8z" fill="#fff" class="cursor-active"/></g><g transform="translate(16514,0)"><use xlink:href="#28"/><use xlink:href="#29"/><use xlink:href="#40"/><path d="M150.4 100.8h9.6v22.4H150.4z" fill="#fff" class="cursor-active"/></g><g transform="translate(16873,0)"><use xlink:href="#28"/><use xlink:href="#29"/><use xlink:href="#40"/><path d="M160 100.8h9.6v22.4H160z" fill="#fff" class="cursor-active"/></g><g transform="translate(17232,0)"><use xlink:href="#28"/><use xlink:href="#29"/><use xlink:href="#41"/><path d="M169.6 100.8h9.6v22.4H169.6z" fill="#fff" class="cursor-active"/></g><g transform="translate(17591,0)"><use xlink:href="#28"/><use xlink:href="#29"/><use xlink:href="#42"/><path d="M179.2 100.8h9.6v22.4H179.2z" fill="#fff" class="cursor-active"/></g><g transform="translate(17950,0)"><use xlink:href="#28"/><use xlink:href="#29"/><use xlink:href="#43"/><path d="M188.8 100.8h9.6v22.4H188.8z" fill="#fff" class="cursor-active"/></g><g transform="translate(18309,0)"><use xlink:href="#28"/><use xlink:href="#29"/><use xlink:href="#43"/><path d="M198.4 100.8h9.6v22.4H198.4z" fill="#fff" class="cursor-active"/></g><g transform="translate(18668,0)"><use xlink:href="#28"/><use xlink:href="#29"/><use xlink:href="#44"/><path d="M208 100.8h9.6v22.4H208z" fill="#fff" class="cursor-active"/></g><g transform="translate(19027,0)"><use xlink:href="#28"/><use xlink:href="#29"/><use xlink:href="#45"/><path d="M217.6 100.8h9.6v22.4H217.6z" fill="#fff" class="cursor-active"/></g><g transform="translate(19386,0)"><use xlink:href="#28"/><use xlink:href="#29"/><use xlink:href="#46"/><path d="M227.2 100.8h9.6v22.4H227.2z" fill="#fff" class="cursor-active"/></g><g transform="translate(19745,0)"><use xlink:href="#28"/><use xlink:href="#29"/><use xlink:href="#47"/><path d="M236.8 100.8h9.6v22.4H236.8z" fill="#fff" class="cursor-active"/></g><g transform="translate(20104,0)"><use xlink:href="#28"/><use xlink:href="#29"/><use xlink:href="#48"/><path d="M246.4 100.8h9.6v22.4H246.4z" fill="#fff" class="cursor-active"/></g><g transform="translate(20463,0)"><use xlink:href="#28"/><use xlink:href="#29"/><use xlink:href="#49"/><path d="M256 100.8h9.6v22.4H256z" fill="#fff" class="cursor-active"/></g><g transform="translate(20822,0)"><use xlink:href="#28"/><use xlink:href="#29"/><use xlink:href="#49"/><path d="M265.6 100.8h9.6v22.4H265.6z" fill="#fff" class="cursor-active"/></g><g transform="translate(21181,0)"><use xlink:href="#28"/><use xlink:href="#29"/><use xlink:href="#50"/><path d="M275.2 100.8h9.6v22.4H275.2z" fill="#fff" class="cursor-active"/></g><g transform="translate(21540,0)"><use xlink:href="#28"/><use xlink:href="#29"/><use xlink:href="#51"/><path d="M284.8 100.8h9.6v22.4H284.8z" fill="#fff" class="cursor-active"/></g><g transform="translate(21899,0)"><use xlink:href="#28"/><use xlink:href="#29"/><use xlink:href="#52"/><path d="M294.4 100.8h9.6v22.4H294.4z" fill="#fff" class="cursor-active"/></g><g transform="translate(22258,0)"><use xlink:href="#28"/><use xlink:href="#29"/><use xlink:href="#53"/><path d="M304 100.8h9.6v22.4H304z" fill="#fff" class="cursor-active"/></g><g transform="translate(22617,0)"><use xlink:href="#28"/><use xlink:href="#29"/><use xlink:href="#54"/><path d="M313.6 100.8h9.6v22.4H313.6z" fill="#fff" class="cursor-active"/></g><g transform="translate(22976,0)"><use xlink:href="#28"/><use xlink:href="#29"/><use xlink:href="#55"/><path d="M323.2 100.8h9.6v22.4H323.2z" fill="#fff" class="cursor-active"/></g><g transform="translate(23335,0)"><use xlink:href="#28"/><use xlink:href="#29"/><use xlink:href="#56"/><path d="M332.8 100.8h9.6v22.4H332.8z" fill="#fff" class="cursor-active"/></g><g transform="translate(23694,0)"><use xlink:href="#28"/><use xlink:href="#29"/><use xlink:href="#56"/><path d="M332.8 100.8h9.6v22.4H332.8z" fill="#fff" class="cursor"/></g></g></g></g></svg>