<svg xmlns="http://www.w3.org/2000/svg" xmlns:xlink="http://www.w3.org/1999/xlink" width="410" height="178" viewBox="0 0 410 178"><defs><symbol id="1"><text x="16" y="57.1" class="c">❯</text></symbol><symbol id="2"><text x="16" y="57.1" class="c">❯ </text><text x="32.8" y="57.1" class="d">e</text></symbol><symbol id="3"><text x="16" y="57.1" class="c">❯ </text><text x="32.8" y="57.1" class="d">ec</text></symbol><symbol id="4"><text x="16" y="57.1" class="c">❯ </text><text x="32.8" y="57.1" class="d">ech</text></symbol><symbol id="5"><text x="16" y="57.1" class="c">❯ </text><text x="32.8" y="57.1" class="d">echo</text></symbol><symbol id="6"><text x="16" y="57.1" class="c">❯ </text><text x="32.8" y="57.1" class="d">echo &apos;</text></symbol><symbol id="7"><text x="16" y="57.1" class="c">❯ </text><text x="32.8" y="57.1" class="d">echo &apos;W</text></symbol><symbol id="8"><text x="16" y="57.1" class="c">❯ </text><text x="32.8" y="57.1" class="d">echo &apos;We</text></symbol><symbol id="9"><text x="16" y="57.1" class="c">❯ </text><text x="32.8" y="57.1" class="d">echo &apos;Wel</text></symbol><symbol id="10"><text x="16" y="57.1" class="c">❯ </text><text x="32.8" y="57.1" class="d">echo &apos;Welc</text></symbol><symbol id="11"><text x="16" y="57.1" class="c">❯ </text><text x="32.8" y="57.1" class="d">echo &apos;Welco</text></symbol><symbol id="12"><text x="16" y="57.1" class="c">❯ </text><text x="32.8" y="57.1" class="d">echo &apos;Welcom</text></symbol><symbol id="13"><text x="16" y="57.1" class="c">❯ </text><text x="32.8" y="57.1" class="d">echo &apos;Welcome</text></symbol><symbol id="14"><text x="16" y="57.1" class="c">❯ </text><text x="32.8" y="57.1" class="d">echo &apos;Welcome t</text></symbol><symbol id="15"><text x="16" y="57.1" class="c">❯ </text><text x="32.8" y="57.1" class="d">echo &apos;Welcome to</text></symbol><symbol id="16"><text x="16" y="57.1" class="c">❯ </text><text x="32.8" y="57.1" class="d">echo &apos;Welcome to t</text></symbol><symbol id="17"><text x="16" y="57.1" class="c">❯ </text><text x="32.8" y="57.1" class="d">echo &apos;Welcome to th</text></symbol><symbol id="18"><text x="16" y="57.1" class="c">❯ </text><text x="32.8" y="57.1" class="d">echo &apos;Welcome to the</text></symbol><symbol id="19"><text x="16" y="57.1" class="c">❯ </text><text x="32.8" y="57.1" class="d">echo &apos;Welcome to the s</text></symbol><symbol id="20"><text x="16" y="57.1" class="c">❯ </text><text x="32.8" y="57.1" class="d">echo &apos;Welcome to the so</text></symbol><symbol id="21"><text x="16" y="57.1" class="c">❯ </text><text x="32.8" y="57.1" class="d">echo &apos;Welcome to the sol</text></symbol><symbol id="22"><text x="16" y="57.1" class="c">❯ </text><text x="32.8" y="57.1" class="d">echo &apos;Welcome to the sola</text></symbol><symbol id="23"><text x="16" y="57.1" class="c">❯ </text><text x="32.8" y="57.1" class="d">echo &apos;Welcome to the solar</text></symbol><symbol id="24"><text x="16" y="57.1" class="c">❯ </text><text x="32.8" y="57.1" class="d">echo &apos;Welcome to the solari</text></symbol><symbol id="25"><text x="16" y="57.1" class="c">❯ </text><text x="32.8" y="57.1" class="d">echo &apos;Welcome to the solariz</text></symbol><symbol id="26"><text x="16" y="57.1" class="c">❯ </text><text x="32.8" y="57.1" class="d">echo &apos;Welcome to the solarize</text></symbol><symbol id="27"><text x="16" y="57.1" class="c">❯ </text><text x="32.8" y="57.1" class="d">echo &apos;Welcome to the solarized</text></symbol><symbol id="28"><text x="16" y="57.1" class="c">❯ </text><text x="32.8" y="57.1" class="d">echo &apos;Welcome to the solarizedD</text></symbol><symbol id="29"><text x="16" y="57.1" class="c">❯ </text><text x="32.8" y="57.1" class="d">echo &apos;Welcome to the solarizedDa</text></symbol><symbol id="30"><text x="16" y="57.1" class="c">❯ </text><text x="32.8" y="57.1" class="d">echo &apos;Welcome to the solarizedDar</text></symbol><symbol id="31"><text x="16" y="57.1" class="c">❯ </text><text x="32.8" y="57.1" class="d">echo &apos;Welcome to the solarizedDark</text></symbol><symbol id="32"><text x="16" y="57.1" class="c">❯ </text><text x="32.8" y="57.1" class="d">echo &apos;Welcome to the solarizedDark t</text></symbol><symbol id="33"><text x="16" y="57.1" class="c">❯ </text><text x="32.8" y="57.1" class="d">echo &apos;Welcome to the solarizedDark th</text></symbol><symbol id="34"><text x="16" y="57.1" class="c">❯ </text><text x="32.8" y="57.1" class="d">echo &apos;Welcome to the solarizedDark the</text></symbol><symbol id="35"><text x="16" y="57.1" class="c">❯ </text><text x="32.8" y="57.1" class="d">echo &apos;Welcome to the solarizedDark them</text></symbol><symbol id="36"><text x="16" y="57.1" class="c">❯ </text><text x="32.8" y="57.1" class="d">echo &apos;Welcome to the solarizedDark theme</text></symbol><symbol id="37"><text x="16" y="57.1" class="c">❯ </text><text x="32.8" y="57.1" class="d">echo &apos;Welcome to the solarizedDark theme!</text></symbol><symbol id="38"><text x="16" y="57.1" class="c">❯ </text><text x="32.8" y="57.1" class="d">echo &apos;Welcome to the solarizedDark theme!&apos;</text></symbol><symbol id="39"><text x="16" y="76.7" class="d">Welcome to the solarizedDark theme!</text></symbol><symbol id="40"><text x="16" y="96.3" class="c">❯</text></symbol><symbol id="41"><text x="16" y="96.3" class="c">❯ </text><text x="32.8" y="96.3" class="d">e</text></symbol><symbol id="42"><text x="16" y="96.3" class="c">❯ </text><text x="32.8" y="96.3" class="d">ec</text></symbol><symbol id="43"><text x="16" y="96.3" class="c">❯ </text><text x="32.8" y="96.3" class="d">ech</text></symbol><symbol id="44"><text x="16" y="96.3" class="c">❯ </text><text x="32.8" y="96.3" class="d">echo</text></symbol><symbol id="45"><text x="16" y="96.3" class="c">❯ </text><text x="32.8" y="96.3" class="d">echo &apos;</text></symbol><symbol id="46"><text x="16" y="96.3" class="c">❯ </text><text x="32.8" y="96.3" class="d">echo &apos;T</text></symbol><symbol id="47"><text x="16" y="96.3" class="c">❯ </text><text x="32.8" y="96.3" class="d">echo &apos;Th</text></symbol><symbol id="48"><text x="16" y="96.3" class="c">❯ </text><text x="32.8" y="96.3" class="d">echo &apos;Thi</text></symbol><symbol id="49"><text x="16" y="96.3" class="c">❯ </text><text x="32.8" y="96.3" class="d">echo &apos;This</text></symbol><symbol id="50"><text x="16" y="96.3" class="c">❯ </text><text x="32.8" y="96.3" class="d">echo &apos;This i</text></symbol><symbol id="51"><text x="16" y="96.3" class="c">❯ </text><text x="32.8" y="96.3" class="d">echo &apos;This is</text></symbol><symbol id="52"><text x="16" y="96.3" class="c">❯ </text><text x="32.8" y="96.3" class="d">echo &apos;This is h</text></symbol><symbol id="53"><text x="16" y="96.3" class="c">❯ </text><text x="32.8" y="96.3" class="d">echo &apos;This is ho</text></symbol><symbol id="54"><text x="16" y="96.3" class="c">❯ </text><text x="32.8" y="96.3" class="d">echo &apos;This is how</text></symbol><symbol id="55"><text x="16" y="96.3" class="c">❯ </text><text x="32.8" y="96.3" class="d">echo &apos;This is how y</text></symbol><symbol id="56"><text x="16" y="96.3" class="c">❯ </text><text x="32.8" y="96.3" class="d">echo &apos;This is how yo</text></symbol><symbol id="57"><text x="16" y="96.3" class="c">❯ </text><text x="32.8" y="96.3" class="d">echo &apos;This is how you</text></symbol><symbol id="58"><text x="16" y="96.3" class="c">❯ </text><text x="32.8" y="96.3" class="d">echo &apos;This is how your</text></symbol><symbol id="59"><text x="16" y="96.3" class="c">❯ </text><text x="32.8" y="96.3" class="d">echo &apos;This is how your t</text></symbol><symbol id="60"><text x="16" y="96.3" class="c">❯ </text><text x="32.8" y="96.3" class="d">echo &apos;This is how your te</text></symbol><symbol id="61"><text x="16" y="96.3" class="c">❯ </text><text x="32.8" y="96.3" class="d">echo &apos;This is how your ter</text></symbol><symbol id="62"><text x="16" y="96.3" class="c">❯ </text><text x="32.8" y="96.3" class="d">echo &apos;This is how your term</text></symbol><symbol id="63"><text x="16" y="96.3" class="c">❯ </text><text x="32.8" y="96.3" class="d">echo &apos;This is how your termi</text></symbol><symbol id="64"><text x="16" y="96.3" class="c">❯ </text><text x="32.8" y="96.3" class="d">echo &apos;This is how your termin</text></symbol><symbol id="65"><text x="16" y="96.3" class="c">❯ </text><text x="32.8" y="96.3" class="d">echo &apos;This is how your termina</text></symbol><symbol id="66"><text x="16" y="96.3" class="c">❯ </text><text x="32.8" y="96.3" class="d">echo &apos;This is how your terminal</text></symbol><symbol id="67"><text x="16" y="96.3" class="c">❯ </text><text x="32.8" y="96.3" class="d">echo &apos;This is how your terminal l</text></symbol><symbol id="68"><text x="16" y="96.3" class="c">❯ </text><text x="32.8" y="96.3" class="d">echo &apos;This is how your terminal lo</text></symbol><symbol id="69"><text x="16" y="96.3" class="c">❯ </text><text x="32.8" y="96.3" class="d">echo &apos;This is how your terminal loo</text></symbol><symbol id="70"><text x="16" y="96.3" class="c">❯ </text><text x="32.8" y="96.3" class="d">echo &apos;This is how your terminal look</text></symbol><symbol id="71"><text x="16" y="96.3" class="c">❯ </text><text x="32.8" y="96.3" class="d">echo &apos;This is how your terminal looks</text></symbol><symbol id="72"><text x="16" y="96.3" class="c">❯ </text><text x="32.8" y="96.3" class="d">echo &apos;This is how your terminal looks.</text></symbol><symbol id="73"><text x="16" y="96.3" class="c">❯ </text><text x="32.8" y="96.3" class="d">echo &apos;This is how your terminal looks.&apos;</text></symbol><symbol id="74"><text x="16" y="115.9" class="d">This is how your terminal looks.</text></symbol><symbol id="75"><text x="16" y="135.5" class="c">❯</text></symbol></defs><style>@keyframes f{0.07%{transform:translateX(0px)}0.55%{transform:translateX(-410px)}1.03%{transform:translateX(-820px)}1.50%{transform:translateX(-1230px)}1.98%{transform:translateX(-1640px)}2.46%{transform:translateX(-2050px)}2.92%{transform:translateX(-2460px)}3.39%{transform:translateX(-2870px)}3.86%{transform:translateX(-3280px)}4.32%{transform:translateX(-3690px)}4.79%{transform:translateX(-4100px)}5.27%{transform:translateX(-4510px)}5.75%{transform:translateX(-4920px)}6.22%{transform:translateX(-5330px)}6.69%{transform:translateX(-5740px)}7.15%{transform:translateX(-6150px)}7.62%{transform:translateX(-6560px)}8.08%{transform:translateX(-6970px)}8.56%{transform:translateX(-7380px)}9.03%{transform:translateX(-7790px)}9.50%{transform:translateX(-8200px)}9.97%{transform:translateX(-8610px)}10.45%{transform:translateX(-9020px)}10.93%{transform:translateX(-9430px)}11.40%{transform:translateX(-9840px)}11.87%{transform:translateX(-10250px)}12.35%{transform:translateX(-10660px)}12.81%{transform:translateX(-11070px)}13.28%{transform:translateX(-11480px)}13.76%{transform:translateX(-11890px)}14.23%{transform:translateX(-12300px)}14.70%{transform:translateX(-12710px)}15.18%{transform:translateX(-13120px)}15.64%{transform:translateX(-13530px)}16.12%{transform:translateX(-13940px)}16.58%{transform:translateX(-14350px)}17.05%{transform:translateX(-14760px)}17.54%{transform:translateX(-15170px)}18.00%{transform:translateX(-15580px)}18.47%{transform:translateX(-15990px)}18.95%{transform:translateX(-16400px)}19.42%{transform:translateX(-16810px)}19.87%{transform:translateX(-17220px)}19.88%{transform:translateX(-17630px)}23.65%{transform:translateX(-18040px)}23.66%{transform:translateX(-18450px)}24.71%{transform:translateX(-18860px)}29.89%{transform:translateX(-19270px)}30.38%{transform:translateX(-19680px)}30.84%{transform:translateX(-20090px)}31.31%{transform:translateX(-20500px)}31.79%{transform:translateX(-20910px)}32.24%{transform:translateX(-21320px)}32.71%{transform:translateX(-21730px)}33.17%{transform:translateX(-22140px)}33.64%{transform:translateX(-22550px)}34.12%{transform:translateX(-22960px)}34.60%{transform:translateX(-23370px)}35.08%{transform:translateX(-23780px)}35.55%{transform:translateX(-24190px)}36.02%{transform:translateX(-24600px)}36.51%{transform:translateX(-25010px)}36.99%{transform:translateX(-25420px)}37.44%{transform:translateX(-25830px)}37.90%{transform:translateX(-26240px)}38.37%{transform:translateX(-26650px)}38.83%{transform:translateX(-27060px)}39.31%{transform:translateX(-27470px)}39.78%{transform:translateX(-27880px)}40.26%{transform:translateX(-28290px)}40.75%{transform:translateX(-28700px)}41.21%{transform:translateX(-29110px)}41.65%{transform:translateX(-29520px)}42.12%{transform:translateX(-29930px)}42.58%{transform:translateX(-30340px)}43.06%{transform:translateX(-30750px)}43.54%{transform:translateX(-31160px)}44.02%{transform:translateX(-31570px)}44.49%{transform:translateX(-31980px)}44.96%{transform:translateX(-32390px)}45.43%{transform:translateX(-32800px)}45.90%{transform:translateX(-33210px)}46.37%{transform:translateX(-33620px)}46.83%{transform:translateX(-34030px)}47.30%{transform:translateX(-34440px)}47.77%{transform:translateX(-34850px)}47.78%{transform:translateX(-35260px)}50.21%{transform:translateX(-35670px)}50.73%{transform:translateX(-36080px)}51.26%{transform:translateX(-36490px)}51.77%{transform:translateX(-36900px)}52.29%{transform:translateX(-37310px)}52.80%{transform:translateX(-37720px)}53.32%{transform:translateX(-38130px)}53.83%{transform:translateX(-38540px)}54.35%{transform:translateX(-38950px)}54.88%{transform:translateX(-39360px)}55.40%{transform:translateX(-39770px)}55.93%{transform:translateX(-40180px)}56.45%{transform:translateX(-40590px)}57.03%{transform:translateX(-41000px)}57.64%{transform:translateX(-41410px)}58.22%{transform:translateX(-41820px)}58.80%{transform:translateX(-42230px)}59.37%{transform:translateX(-42640px)}59.91%{transform:translateX(-43050px)}60.42%{transform:translateX(-43460px)}60.93%{transform:translateX(-43870px)}61.51%{transform:translateX(-44280px)}62.14%{transform:translateX(-44690px)}62.74%{transform:translateX(-45100px)}63.28%{transform:translateX(-45510px)}63.35%{transform:translateX(-45920px)}71.08%{transform:translateX(-46330px)}71.07%{transform:translateX(-46740px)}72.13%{transform:translateX(-47150px)}}.a{fill:#002b36}.c{fill:#6c71c4;stroke:#6c71c4}.d{fill:#839496;stroke:#839496}path[fill="none"]{fill:none}path[shape-rendering="crispEdges"]{stroke:none}text{font-family:'SF Mono',Monaco,Consolas,Menlo,monospace;font-size:14px;dominant-baseline:text-before-edge;white-space:pre;}text[class]{stroke:none}.bold{font-weight:700}.italic{font-style:italic}.uline{text-decoration:underline}.strike{text-decoration:line-through}.dim{opacity:0.5}@keyframes blink{0%,50%{opacity:1}50.01%,100%{opacity:0}}.cursor{animation:blink 1s step-end infinite;mix-blend-mode:difference}.cursor-active{opacity:1;mix-blend-mode:difference}</style><g transform="translate(0,0)"><rect width="410" height="178" rx="8" fill="#002b36"/><rect width="410" height="40" rx="8" fill="#002b36"/><path d="M0 32h410v8H0z" fill="#002b36"/><circle cx="16" cy="20" r="6" fill="#ff5f56"/><circle cx="36" cy="20" r="6" fill="#ffbd2e"/><circle cx="56" cy="20" r="6" fill="#27c93f"/><text x="205" y="20" text-anchor="middle" dominant-baseline="middle" fill="#839496" font-size="14">solarizedDark</text><clipPath id="content-clip"><path d="M0 40h410v138H0z" /></clipPath><g clip-path="url(#content-clip)"><g style="animation:f 10.828s steps(1,end) infinite"><g transform="translate(0,0)"><use xlink:href="#1"/><path d="M32.8 56h8.4v19.6H32.8z" fill="#839496" class="cursor"/></g><g transform="translate(410,0)"><use xlink:href="#2"/><path d="M41.2 56h8.4v19.6H41.2z" fill="#839496" class="cursor-active"/></g><g transform="translate(820,0)"><use xlink:href="#3"/><path d="M49.6 56h8.4v19.6H49.6z" fill="#839496" class="cursor-active"/></g><g transform="translate(1230,0)"><use xlink:href="#4"/><path d="M58 56h8.4v19.6H58z" fill="#839496" class="cursor-active"/></g><g transform="translate(1640,0)"><use xlink:href="#5"/><path d="M66.4 56h8.4v19.6H66.4z" fill="#839496" class="cursor-active"/></g><g transform="translate(2050,0)"><use xlink:href="#5"/><path d="M74.8 56h8.4v19.6H74.8z" fill="#839496" class="cursor-active"/></g><g transform="translate(2460,0)"><use xlink:href="#6"/><path d="M83.2 56h8.4v19.6H83.2z" fill="#839496" class="cursor-active"/></g><g transform="translate(2870,0)"><use xlink:href="#7"/><path d="M91.6 56h8.4v19.6H91.6z" fill="#839496" class="cursor-active"/></g><g transform="translate(3280,0)"><use xlink:href="#8"/><path d="M100 56h8.4v19.6H100z" fill="#839496" class="cursor-active"/></g><g transform="translate(3690,0)"><use xlink:href="#9"/><path d="M108.4 56h8.4v19.6H108.4z" fill="#839496" class="cursor-active"/></g><g transform="translate(4100,0)"><use xlink:href="#10"/><path d="M116.8 56h8.4v19.6H116.8z" fill="#839496" class="cursor-active"/></g><g transform="translate(4510,0)"><use xlink:href="#11"/><path d="M125.2 56h8.4v19.6H125.2z" fill="#839496" class="cursor-active"/></g><g transform="translate(4920,0)"><use xlink:href="#12"/><path d="M133.6 56h8.4v19.6H133.6z" fill="#839496" class="cursor-active"/></g><g transform="translate(5330,0)"><use xlink:href="#13"/><path d="M142 56h8.4v19.6H142z" fill="#839496" class="cursor-active"/></g><g transform="translate(5740,0)"><use xlink:href="#13"/><path d="M150.4 56h8.4v19.6H150.4z" fill="#839496" class="cursor-active"/></g><g transform="translate(6150,0)"><use xlink:href="#14"/><path d="M158.8 56h8.4v19.6H158.8z" fill="#839496" class="cursor-active"/></g><g transform="translate(6560,0)"><use xlink:href="#15"/><path d="M167.2 56h8.4v19.6H167.2z" fill="#839496" class="cursor-active"/></g><g transform="translate(6970,0)"><use xlink:href="#15"/><path d="M175.6 56h8.4v19.6H175.6z" fill="#839496" class="cursor-active"/></g><g transform="translate(7380,0)"><use xlink:href="#16"/><path d="M184 56h8.4v19.6H184z" fill="#839496" class="cursor-active"/></g><g transform="translate(7790,0)"><use xlink:href="#17"/><path d="M192.4 56h8.4v19.6H192.4z" fill="#839496" class="cursor-active"/></g><g transform="translate(8200,0)"><use xlink:href="#18"/><path d="M200.8 56h8.4v19.6H200.8z" fill="#839496" class="cursor-active"/></g><g transform="translate(8610,0)"><use xlink:href="#18"/><path d="M209.2 56h8.4v19.6H209.2z" fill="#839496" class="cursor-active"/></g><g transform="translate(9020,0)"><use xlink:href="#19"/><path d="M217.6 56h8.4v19.6H217.6z" fill="#839496" class="cursor-active"/></g><g transform="translate(9430,0)"><use xlink:href="#20"/><path d="M226 56h8.4v19.6H226z" fill="#839496" class="cursor-active"/></g><g transform="translate(9840,0)"><use xlink:href="#21"/><path d="M234.4 56h8.4v19.6H234.4z" fill="#839496" class="cursor-active"/></g><g transform="translate(10250,0)"><use xlink:href="#22"/><path d="M242.8 56h8.4v19.6H242.8z" fill="#839496" class="cursor-active"/></g><g transform="translate(10660,0)"><use xlink:href="#23"/><path d="M251.2 56h8.4v19.6H251.2z" fill="#839496" class="cursor-active"/></g><g transform="translate(11070,0)"><use xlink:href="#24"/><path d="M259.6 56h8.4v19.6H259.6z" fill="#839496" class="cursor-active"/></g><g transform="translate(11480,0)"><use xlink:href="#25"/><path d="M268 56h8.4v19.6H268z" fill="#839496" class="cursor-active"/></g><g transform="translate(11890,0)"><use xlink:href="#26"/><path d="M276.4 56h8.4v19.6H276.4z" fill="#839496" class="cursor-active"/></g><g transform="translate(12300,0)"><use xlink:href="#27"/><path d="M284.8 56h8.4v19.6H284.8z" fill="#839496" class="cursor-active"/></g><g transform="translate(12710,0)"><use xlink:href="#28"/><path d="M293.2 56h8.4v19.6H293.2z" fill="#839496" class="cursor-active"/></g><g transform="translate(13120,0)"><use xlink:href="#29"/><path d="M301.6 56h8.4v19.6H301.6z" fill="#839496" class="cursor-active"/></g><g transform="translate(13530,0)"><use xlink:href="#30"/><path d="M310 56h8.4v19.6H310z" fill="#839496" class="cursor-active"/></g><g transform="translate(13940,0)"><use xlink:href="#31"/><path d="M318.4 56h8.4v19.6H318.4z" fill="#839496" class="cursor-active"/></g><g transform="translate(14350,0)"><use xlink:href="#31"/><path d="M326.8 56h8.4v19.6H326.8z" fill="#839496" class="cursor-active"/></g><g transform="translate(14760,0)"><use xlink:href="#32"/><path d="M335.2 56h8.4v19.6H335.2z" fill="#839496" class="cursor-active"/></g><g transform="translate(15170,0)"><use xlink:href="#33"/><path d="M343.6 56h8.4v19.6H343.6z" fill="#839496" class="cursor-active"/></g><g transform="translate(15580,0)"><use xlink:href="#34"/><path d="M352 56h8.4v19.6H352z" fill="#839496" class="cursor-active"/></g><g transform="translate(15990,0)"><use xlink:href="#35"/><path d="M360.4 56h8.4v19.6H360.4z" fill="#839496" class="cursor-active"/></g><g transform="translate(16400,0)"><use xlink:href="#36"/><path d="M368.8 56h8.4v19.6H368.8z" fill="#839496" class="cursor-active"/></g><g transform="translate(16810,0)"><use xlink:href="#37"/><path d="M377.2 56h8.4v19.6H377.2z" fill="#839496" class="cursor-active"/></g><g transform="translate(17220,0)"><use xlink:href="#38"/><path d="M385.6 56h8.4v19.6H385.6z" fill="#839496" class="cursor-active"/></g><g transform="translate(17630,0)"><use xlink:href="#38"/><path d="M385.6 56h8.4v19.6H385.6z" fill="#839496" class="cursor"/></g><g transform="translate(18040,0)"><use xlink:href="#38"/></g><g transform="translate(18450,0)"><use xlink:href="#38"/><use xlink:href="#39"/></g><g transform="translate(18860,0)"><use xlink:href="#38"/><use xlink:href="#39"/><use xlink:href="#40"/><path d="M32.8 95.2h8.4v19.6H32.8z" fill="#839496" class="cursor"/></g><g transform="translate(19270,0)"><use xlink:href="#38"/><use xlink:href="#39"/><use xlink:href="#41"/><path d="M41.2 95.2h8.4v19.6H41.2z" fill="#839496" class="cursor-active"/></g><g transform="translate(19680,0)"><use xlink:href="#38"/><use xlink:href="#39"/><use xlink:href="#42"/><path d="M49.6 95.2h8.4v19.6H49.6z" fill="#839496" class="cursor-active"/></g><g transform="translate(20090,0)"><use xlink:href="#38"/><use xlink:href="#39"/><use xlink:href="#43"/><path d="M58 95.2h8.4v19.6H58z" fill="#839496" class="cursor-active"/></g><g transform="translate(20500,0)"><use xlink:href="#38"/><use xlink:href="#39"/><use xlink:href="#44"/><path d="M66.4 95.2h8.4v19.6H66.4z" fill="#839496" class="cursor-active"/></g><g transform="translate(20910,0)"><use xlink:href="#38"/><use xlink:href="#39"/><use xlink:href="#44"/><path d="M74.8 95.2h8.4v19.6H74.8z" fill="#839496" class="cursor-active"/></g><g transform="translate(21320,0)"><use xlink:href="#38"/><use xlink:href="#39"/><use xlink:href="#45"/><path d="M83.2 95.2h8.4v19.6H83.2z" fill="#839496" class="cursor-active"/></g><g transform="translate(21730,0)"><use xlink:href="#38"/><use xlink:href="#39"/><use xlink:href="#46"/><path d="M91.6 95.2h8.4v19.6H91.6z" fill="#839496" class="cursor-active"/></g><g transform="translate(22140,0)"><use xlink:href="#38"/><use xlink:href="#39"/><use xlink:href="#47"/><path d="M100 95.2h8.4v19.6H100z" fill="#839496" class="cursor-active"/></g><g transform="translate(22550,0)"><use xlink:href="#38"/><use xlink:href="#39"/><use xlink:href="#48"/><path d="M108.4 95.2h8.4v19.6H108.4z" fill="#839496" class="cursor-active"/></g><g transform="translate(22960,0)"><use xlink:href="#38"/><use xlink:href="#39"/><use xlink:href="#49"/><path d="M116.8 95.2h8.4v19.6H116.8z" fill="#839496" class="cursor-active"/></g><g transform="translate(23370,0)"><use xlink:href="#38"/><use xlink:href="#39"/><use xlink:href="#49"/><path d="M125.2 95.2h8.4v19.6H125.2z" fill="#839496" class="cursor-active"/></g><g transform="translate(23780,0)"><use xlink:href="#38"/><use xlink:href="#39"/><use xlink:href="#50"/><path d="M133.6 95.2h8.4v19.6H133.6z" fill="#839496" class="cursor-active"/></g><g transform="translate(24190,0)"><use xlink:href="#38"/><use xlink:href="#39"/><use xlink:href="#51"/><path d="M142 95.2h8.4v19.6H142z" fill="#839496" class="cursor-active"/></g><g transform="translate(24600,0)"><use xlink:href="#38"/><use xlink:href="#39"/><use xlink:href="#51"/><path d="M150.4 95.2h8.4v19.6H150.4z" fill="#839496" class="cursor-active"/></g><g transform="translate(25010,0)"><use xlink:href="#38"/><use xlink:href="#39"/><use xlink:href="#52"/><path d="M158.8 95.2h8.4v19.6H158.8z" fill="#839496" class="cursor-active"/></g><g transform="translate(25420,0)"><use xlink:href="#38"/><use xlink:href="#39"/><use xlink:href="#53"/><path d="M167.2 95.2h8.4v19.6H167.2z" fill="#839496" class="cursor-active"/></g><g transform="translate(25830,0)"><use xlink:href="#38"/><use xlink:href="#39"/><use xlink:href="#54"/><path d="M175.6 95.2h8.4v19.6H175.6z" fill="#839496" class="cursor-active"/></g><g transform="translate(26240,0)"><use xlink:href="#38"/><use xlink:href="#39"/><use xlink:href="#54"/><path d="M184 95.2h8.4v19.6H184z" fill="#839496" class="cursor-active"/></g><g transform="translate(26650,0)"><use xlink:href="#38"/><use xlink:href="#39"/><use xlink:href="#55"/><path d="M192.4 95.2h8.4v19.6H192.4z" fill="#839496" class="cursor-active"/></g><g transform="translate(27060,0)"><use xlink:href="#38"/><use xlink:href="#39"/><use xlink:href="#56"/><path d="M200.8 95.2h8.4v19.6H200.8z" fill="#839496" class="cursor-active"/></g><g transform="translate(27470,0)"><use xlink:href="#38"/><use xlink:href="#39"/><use xlink:href="#57"/><path d="M209.2 95.2h8.4v19.6H209.2z" fill="#839496" class="cursor-active"/></g><g transform="translate(27880,0)"><use xlink:href="#38"/><use xlink:href="#39"/><use xlink:href="#58"/><path d="M217.6 95.2h8.4v19.6H217.6z" fill="#839496" class="cursor-active"/></g><g transform="translate(28290,0)"><use xlink:href="#38"/><use xlink:href="#39"/><use xlink:href="#58"/><path d="M226 95.2h8.4v19.6H226z" fill="#839496" class="cursor-active"/></g><g transform="translate(28700,0)"><use xlink:href="#38"/><use xlink:href="#39"/><use xlink:href="#59"/><path d="M234.4 95.2h8.4v19.6H234.4z" fill="#839496" class="cursor-active"/></g><g transform="translate(29110,0)"><use xlink:href="#38"/><use xlink:href="#39"/><use xlink:href="#60"/><path d="M242.8 95.2h8.4v19.6H242.8z" fill="#839496" class="cursor-active"/></g><g transform="translate(29520,0)"><use xlink:href="#38"/><use xlink:href="#39"/><use xlink:href="#61"/><path d="M251.2 95.2h8.4v19.6H251.2z" fill="#839496" class="cursor-active"/></g><g transform="translate(29930,0)"><use xlink:href="#38"/><use xlink:href="#39"/><use xlink:href="#62"/><path d="M259.6 95.2h8.4v19.6H259.6z" fill="#839496" class="cursor-active"/></g><g transform="translate(30340,0)"><use xlink:href="#38"/><use xlink:href="#39"/><use xlink:href="#63"/><path d="M268 95.2h8.4v19.6H268z" fill="#839496" class="cursor-active"/></g><g transform="translate(30750,0)"><use xlink:href="#38"/><use xlink:href="#39"/><use xlink:href="#64"/><path d="M276.4 95.2h8.4v19.6H276.4z" fill="#839496" class="cursor-active"/></g><g transform="translate(31160,0)"><use xlink:href="#38"/><use xlink:href="#39"/><use xlink:href="#65"/><path d="M284.8 95.2h8.4v19.6H284.8z" fill="#839496" class="cursor-active"/></g><g transform="translate(31570,0)"><use xlink:href="#38"/><use xlink:href="#39"/><use xlink:href="#66"/><path d="M293.2 95.2h8.4v19.6H293.2z" fill="#839496" class="cursor-active"/></g><g transform="translate(31980,0)"><use xlink:href="#38"/><use xlink:href="#39"/><use xlink:href="#66"/><path d="M301.6 95.2h8.4v19.6H301.6z" fill="#839496" class="cursor-active"/></g><g transform="translate(32390,0)"><use xlink:href="#38"/><use xlink:href="#39"/><use xlink:href="#67"/><path d="M310 95.2h8.4v19.6H310z" fill="#839496" class="cursor-active"/></g><g transform="translate(32800,0)"><use xlink:href="#38"/><use xlink:href="#39"/><use xlink:href="#68"/><path d="M318.4 95.2h8.4v19.6H318.4z" fill="#839496" class="cursor-active"/></g><g transform="translate(33210,0)"><use xlink:href="#38"/><use xlink:href="#39"/><use xlink:href="#69"/><path d="M326.8 95.2h8.4v19.6H326.8z" fill="#839496" class="cursor-active"/></g><g transform="translate(33620,0)"><use xlink:href="#38"/><use xlink:href="#39"/><use xlink:href="#70"/><path d="M335.2 95.2h8.4v19.6H335.2z" fill="#839496" class="cursor-active"/></g><g transform="translate(34030,0)"><use xlink:href="#38"/><use xlink:href="#39"/><use xlink:href="#71"/><path d="M343.6 95.2h8.4v19.6H343.6z" fill="#839496" class="cursor-active"/></g><g transform="translate(34440,0)"><use xlink:href="#38"/><use xlink:href="#39"/><use xlink:href="#72"/><path d="M352 95.2h8.4v19.6H352z" fill="#839496" class="cursor-active"/></g><g transform="translate(34850,0)"><use xlink:href="#38"/><use xlink:href="#39"/><use xlink:href="#73"/><path d="M360.4 95.2h8.4v19.6H360.4z" fill="#839496" class="cursor-active"/></g><g transform="translate(35260,0)"><use xlink:href="#38"/><use xlink:href="#39"/><use xlink:href="#73"/><path d="M360.4 95.2h8.4v19.6H360.4z" fill="#839496" class="cursor"/></g><g transform="translate(35670,0)"><use xlink:href="#38"/><use xlink:href="#39"/><use xlink:href="#73"/><path d="M352 95.2h8.4v19.6H352z" fill="#839496" class="cursor-active"/></g><g transform="translate(36080,0)"><use xlink:href="#38"/><use xlink:href="#39"/><use xlink:href="#73"/><path d="M343.6 95.2h8.4v19.6H343.6z" fill="#839496" class="cursor-active"/></g><g transform="translate(36490,0)"><use xlink:href="#38"/><use xlink:href="#39"/><use xlink:href="#73"/><path d="M335.2 95.2h8.4v19.6H335.2z" fill="#839496" class="cursor-active"/></g><g transform="translate(36900,0)"><use xlink:href="#38"/><use xlink:href="#39"/><use xlink:href="#73"/><path d="M326.8 95.2h8.4v19.6H326.8z" fill="#839496" class="cursor-active"/></g><g transform="translate(37310,0)"><use xlink:href="#38"/><use xlink:href="#39"/><use xlink:href="#73"/><path d="M318.4 95.2h8.4v19.6H318.4z" fill="#839496" class="cursor-active"/></g><g transform="translate(37720,0)"><use xlink:href="#38"/><use xlink:href="#39"/><use xlink:href="#73"/><path d="M310 95.2h8.4v19.6H310z" fill="#839496" class="cursor-active"/></g><g transform="translate(38130,0)"><use xlink:href="#38"/><use xlink:href="#39"/><use xlink:href="#73"/><path d="M301.6 95.2h8.4v19.6H301.6z" fill="#839496" class="cursor-active"/></g><g transform="translate(38540,0)"><use xlink:href="#38"/><use xlink:href="#39"/><use xlink:href="#73"/><path d="M293.2 95.2h8.4v19.6H293.2z" fill="#839496" class="cursor-active"/></g><g transform="translate(38950,0)"><use xlink:href="#38"/><use xlink:href="#39"/><use xlink:href="#73"/><path d="M284.8 95.2h8.4v19.6H284.8z" fill="#839496" class="cursor-active"/></g><g transform="translate(39360,0)"><use xlink:href="#38"/><use xlink:href="#39"/><use xlink:href="#73"/><path d="M276.4 95.2h8.4v19.6H276.4z" fill="#839496" class="cursor-active"/></g><g transform="translate(39770,0)"><use xlink:href="#38"/><use xlink:href="#39"/><use xlink:href="#73"/><path d="M268 95.2h8.4v19.6H268z" fill="#839496" class="cursor-active"/></g><g transform="translate(40180,0)"><use xlink:href="#38"/><use xlink:href="#39"/><use xlink:href="#73"/><path d="M259.6 95.2h8.4v19.6H259.6z" fill="#839496" class="cursor-active"/></g><g transform="translate(40590,0)"><use xlink:href="#38"/><use xlink:href="#39"/><use xlink:href="#73"/><path d="M251.2 95.2h8.4v19.6H251.2z" fill="#839496" class="cursor-active"/></g><g transform="translate(41000,0)"><use xlink:href="#38"/><use xlink:href="#39"/><use xlink:href="#73"/><path d="M242.8 95.2h8.4v19.6H242.8z" fill="#839496" class="cursor-active"/></g><g transform="translate(41410,0)"><use xlink:href="#38"/><use xlink:href="#39"/><use xlink:href="#73"/><path d="M234.4 95.2h8.4v19.6H234.4z" fill="#839496" class="cursor-active"/></g><g transform="translate(41820,0)"><use xlink:href="#38"/><use xlink:href="#39"/><use xlink:href="#73"/><path d="M226 95.2h8.4v19.6H226z" fill="#839496" class="cursor-active"/></g><g transform="translate(42230,0)"><use xlink:href="#38"/><use xlink:href="#39"/><use xlink:href="#73"/><path d="M217.6 95.2h8.4v19.6H217.6z" fill="#839496" class="cursor-active"/></g><g transform="translate(42640,0)"><use xlink:href="#38"/><use xlink:href="#39"/><use xlink:href="#73"/><path d="M209.2 95.2h8.4v19.6H209.2z" fill="#839496" class="cursor-active"/></g><g transform="translate(43050,0)"><use xlink:href="#38"/><use xlink:href="#39"/><use xlink:href="#73"/><path d="M200.8 95.2h8.4v19.6H200.8z" fill="#839496" class="cursor-active"/></g><g transform="translate(43460,0)"><use xlink:href="#38"/><use xlink:href="#39"/><use xlink:href="#73"/><path d="M192.4 95.2h8.4v19.6H192.4z" fill="#839496" class="cursor-active"/></g><g transform="translate(43870,0)"><use xlink:href="#38"/><use xlink:href="#39"/><use xlink:href="#73"/><path d="M184 95.2h8.4v19.6H184z" fill="#839496" class="cursor-active"/></g><g transform="translate(44280,0)"><use xlink:href="#38"/><use xlink:href="#39"/><use xlink:href="#73"/><path d="M184 95.2h8.4v19.6H184z" fill="#839496" opacity="0.5"/><path d="M192.4 95.2h8.4v19.6H192.4z" fill="#839496" class="cursor-active"/></g><g transform="translate(44690,0)"><use xlink:href="#38"/><use xlink:href="#39"/><use xlink:href="#73"/><path d="M184 95.2h16.8v19.6H184z" fill="#839496" opacity="0.5"/><path d="M200.8 95.2h8.4v19.6H200.8z" fill="#839496" class="cursor-active"/></g><g transform="translate(45100,0)"><use xlink:href="#38"/><use xlink:href="#39"/><use xlink:href="#73"/><path d="M184 95.2h25.2v19.6H184z" fill="#839496" opacity="0.5"/><path d="M209.2 95.2h8.4v19.6H209.2z" fill="#839496" class="cursor-active"/></g><g transform="translate(45510,0)"><use xlink:href="#38"/><use xlink:href="#39"/><use xlink:href="#73"/><path d="M184 95.2h33.6v19.6H184z" fill="#839496" opacity="0.5"/><path d="M217.6 95.2h8.4v19.6H217.6z" fill="#839496" class="cursor-active"/></g><g transform="translate(45920,0)"><use xlink:href="#38"/><use xlink:href="#39"/><use xlink:href="#73"/><path d="M184 95.2h33.6v19.6H184z" fill="#839496" opacity="0.5"/><path d="M217.6 95.2h8.4v19.6H217.6z" fill="#839496" class="cursor"/></g><g transform="translate(46330,0)"><use xlink:href="#38"/><use xlink:href="#39"/><use xlink:href="#73"/><path d="M184 95.2h33.6v19.6H184z" fill="#839496" opacity="0.5"/></g><g transform="translate(46740,0)"><use xlink:href="#38"/><use xlink:href="#39"/><use xlink:href="#73"/><use xlink:href="#74"/></g><g transform="translate(47150,0)"><use xlink:href="#38"/><use xlink:href="#39"/><use xlink:href="#73"/><use xlink:href="#74"/><use xlink:href="#75"/><path d="M32.8 134.4h8.4v19.6H32.8z" fill="#839496" class="cursor"/></g></g></g></g></svg>