<svg xmlns="http://www.w3.org/2000/svg" xmlns:xlink="http://www.w3.org/1999/xlink" width="419" height="178" viewBox="0 0 419 178"><defs><symbol id="1"><text x="16" y="57.1" class="c">❯</text></symbol><symbol id="2"><text x="16" y="57.1" class="c">❯ </text><text x="32.8" y="57.1" class="d">e</text></symbol><symbol id="3"><text x="16" y="57.1" class="c">❯ </text><text x="32.8" y="57.1" class="d">ec</text></symbol><symbol id="4"><text x="16" y="57.1" class="c">❯ </text><text x="32.8" y="57.1" class="d">ech</text></symbol><symbol id="5"><text x="16" y="57.1" class="c">❯ </text><text x="32.8" y="57.1" class="d">echo</text></symbol><symbol id="6"><text x="16" y="57.1" class="c">❯ </text><text x="32.8" y="57.1" class="d">echo &apos;</text></symbol><symbol id="7"><text x="16" y="57.1" class="c">❯ </text><text x="32.8" y="57.1" class="d">echo &apos;W</text></symbol><symbol id="8"><text x="16" y="57.1" class="c">❯ </text><text x="32.8" y="57.1" class="d">echo &apos;We</text></symbol><symbol id="9"><text x="16" y="57.1" class="c">❯ </text><text x="32.8" y="57.1" class="d">echo &apos;Wel</text></symbol><symbol id="10"><text x="16" y="57.1" class="c">❯ </text><text x="32.8" y="57.1" class="d">echo &apos;Welc</text></symbol><symbol id="11"><text x="16" y="57.1" class="c">❯ </text><text x="32.8" y="57.1" class="d">echo &apos;Welco</text></symbol><symbol id="12"><text x="16" y="57.1" class="c">❯ </text><text x="32.8" y="57.1" class="d">echo &apos;Welcom</text></symbol><symbol id="13"><text x="16" y="57.1" class="c">❯ </text><text x="32.8" y="57.1" class="d">echo &apos;Welcome</text></symbol><symbol id="14"><text x="16" y="57.1" class="c">❯ </text><text x="32.8" y="57.1" class="d">echo &apos;Welcome t</text></symbol><symbol id="15"><text x="16" y="57.1" class="c">❯ </text><text x="32.8" y="57.1" class="d">echo &apos;Welcome to</text></symbol><symbol id="16"><text x="16" y="57.1" class="c">❯ </text><text x="32.8" y="57.1" class="d">echo &apos;Welcome to t</text></symbol><symbol id="17"><text x="16" y="57.1" class="c">❯ </text><text x="32.8" y="57.1" class="d">echo &apos;Welcome to th</text></symbol><symbol id="18"><text x="16" y="57.1" class="c">❯ </text><text x="32.8" y="57.1" class="d">echo &apos;Welcome to the</text></symbol><symbol id="19"><text x="16" y="57.1" class="c">❯ </text><text x="32.8" y="57.1" class="d">echo &apos;Welcome to the s</text></symbol><symbol id="20"><text x="16" y="57.1" class="c">❯ </text><text x="32.8" y="57.1" class="d">echo &apos;Welcome to the so</text></symbol><symbol id="21"><text x="16" y="57.1" class="c">❯ </text><text x="32.8" y="57.1" class="d">echo &apos;Welcome to the sol</text></symbol><symbol id="22"><text x="16" y="57.1" class="c">❯ </text><text x="32.8" y="57.1" class="d">echo &apos;Welcome to the sola</text></symbol><symbol id="23"><text x="16" y="57.1" class="c">❯ </text><text x="32.8" y="57.1" class="d">echo &apos;Welcome to the solar</text></symbol><symbol id="24"><text x="16" y="57.1" class="c">❯ </text><text x="32.8" y="57.1" class="d">echo &apos;Welcome to the solari</text></symbol><symbol id="25"><text x="16" y="57.1" class="c">❯ </text><text x="32.8" y="57.1" class="d">echo &apos;Welcome to the solariz</text></symbol><symbol id="26"><text x="16" y="57.1" class="c">❯ </text><text x="32.8" y="57.1" class="d">echo &apos;Welcome to the solarize</text></symbol><symbol id="27"><text x="16" y="57.1" class="c">❯ </text><text x="32.8" y="57.1" class="d">echo &apos;Welcome to the solarized</text></symbol><symbol id="28"><text x="16" y="57.1" class="c">❯ </text><text x="32.8" y="57.1" class="d">echo &apos;Welcome to the solarizedL</text></symbol><symbol id="29"><text x="16" y="57.1" class="c">❯ </text><text x="32.8" y="57.1" class="d">echo &apos;Welcome to the solarizedLi</text></symbol><symbol id="30"><text x="16" y="57.1" class="c">❯ </text><text x="32.8" y="57.1" class="d">echo &apos;Welcome to the solarizedLig</text></symbol><symbol id="31"><text x="16" y="57.1" class="c">❯ </text><text x="32.8" y="57.1" class="d">echo &apos;Welcome to the solarizedLigh</text></symbol><symbol id="32"><text x="16" y="57.1" class="c">❯ </text><text x="32.8" y="57.1" class="d">echo &apos;Welcome to the solarizedLight</text></symbol><symbol id="33"><text x="16" y="57.1" class="c">❯ </text><text x="32.8" y="57.1" class="d">echo &apos;Welcome to the solarizedLight t</text></symbol><symbol id="34"><text x="16" y="57.1" class="c">❯ </text><text x="32.8" y="57.1" class="d">echo &apos;Welcome to the solarizedLight th</text></symbol><symbol id="35"><text x="16" y="57.1" class="c">❯ </text><text x="32.8" y="57.1" class="d">echo &apos;Welcome to the solarizedLight the</text></symbol><symbol id="36"><text x="16" y="57.1" class="c">❯ </text><text x="32.8" y="57.1" class="d">echo &apos;Welcome to the solarizedLight them</text></symbol><symbol id="37"><text x="16" y="57.1" class="c">❯ </text><text x="32.8" y="57.1" class="d">echo &apos;Welcome to the solarizedLight theme</text></symbol><symbol id="38"><text x="16" y="57.1" class="c">❯ </text><text x="32.8" y="57.1" class="d">echo &apos;Welcome to the solarizedLight theme!</text></symbol><symbol id="39"><text x="16" y="57.1" class="c">❯ </text><text x="32.8" y="57.1" class="d">echo &apos;Welcome to the solarizedLight theme!&apos;</text></symbol><symbol id="40"><text x="16" y="76.7" class="d">Welcome to the solarizedLight theme!</text></symbol><symbol id="41"><text x="16" y="96.3" class="c">❯</text></symbol><symbol id="42"><text x="16" y="96.3" class="c">❯ </text><text x="32.8" y="96.3" class="d">e</text></symbol><symbol id="43"><text x="16" y="96.3" class="c">❯ </text><text x="32.8" y="96.3" class="d">ec</text></symbol><symbol id="44"><text x="16" y="96.3" class="c">❯ </text><text x="32.8" y="96.3" class="d">ech</text></symbol><symbol id="45"><text x="16" y="96.3" class="c">❯ </text><text x="32.8" y="96.3" class="d">echo</text></symbol><symbol id="46"><text x="16" y="96.3" class="c">❯ </text><text x="32.8" y="96.3" class="d">echo &apos;</text></symbol><symbol id="47"><text x="16" y="96.3" class="c">❯ </text><text x="32.8" y="96.3" class="d">echo &apos;T</text></symbol><symbol id="48"><text x="16" y="96.3" class="c">❯ </text><text x="32.8" y="96.3" class="d">echo &apos;Th</text></symbol><symbol id="49"><text x="16" y="96.3" class="c">❯ </text><text x="32.8" y="96.3" class="d">echo &apos;Thi</text></symbol><symbol id="50"><text x="16" y="96.3" class="c">❯ </text><text x="32.8" y="96.3" class="d">echo &apos;This</text></symbol><symbol id="51"><text x="16" y="96.3" class="c">❯ </text><text x="32.8" y="96.3" class="d">echo &apos;This i</text></symbol><symbol id="52"><text x="16" y="96.3" class="c">❯ </text><text x="32.8" y="96.3" class="d">echo &apos;This is</text></symbol><symbol id="53"><text x="16" y="96.3" class="c">❯ </text><text x="32.8" y="96.3" class="d">echo &apos;This is h</text></symbol><symbol id="54"><text x="16" y="96.3" class="c">❯ </text><text x="32.8" y="96.3" class="d">echo &apos;This is ho</text></symbol><symbol id="55"><text x="16" y="96.3" class="c">❯ </text><text x="32.8" y="96.3" class="d">echo &apos;This is how</text></symbol><symbol id="56"><text x="16" y="96.3" class="c">❯ </text><text x="32.8" y="96.3" class="d">echo &apos;This is how y</text></symbol><symbol id="57"><text x="16" y="96.3" class="c">❯ </text><text x="32.8" y="96.3" class="d">echo &apos;This is how yo</text></symbol><symbol id="58"><text x="16" y="96.3" class="c">❯ </text><text x="32.8" y="96.3" class="d">echo &apos;This is how you</text></symbol><symbol id="59"><text x="16" y="96.3" class="c">❯ </text><text x="32.8" y="96.3" class="d">echo &apos;This is how your</text></symbol><symbol id="60"><text x="16" y="96.3" class="c">❯ </text><text x="32.8" y="96.3" class="d">echo &apos;This is how your t</text></symbol><symbol id="61"><text x="16" y="96.3" class="c">❯ </text><text x="32.8" y="96.3" class="d">echo &apos;This is how your te</text></symbol><symbol id="62"><text x="16" y="96.3" class="c">❯ </text><text x="32.8" y="96.3" class="d">echo &apos;This is how your ter</text></symbol><symbol id="63"><text x="16" y="96.3" class="c">❯ </text><text x="32.8" y="96.3" class="d">echo &apos;This is how your term</text></symbol><symbol id="64"><text x="16" y="96.3" class="c">❯ </text><text x="32.8" y="96.3" class="d">echo &apos;This is how your termi</text></symbol><symbol id="65"><text x="16" y="96.3" class="c">❯ </text><text x="32.8" y="96.3" class="d">echo &apos;This is how your termin</text></symbol><symbol id="66"><text x="16" y="96.3" class="c">❯ </text><text x="32.8" y="96.3" class="d">echo &apos;This is how your termina</text></symbol><symbol id="67"><text x="16" y="96.3" class="c">❯ </text><text x="32.8" y="96.3" class="d">echo &apos;This is how your terminal</text></symbol><symbol id="68"><text x="16" y="96.3" class="c">❯ </text><text x="32.8" y="96.3" class="d">echo &apos;This is how your terminal l</text></symbol><symbol id="69"><text x="16" y="96.3" class="c">❯ </text><text x="32.8" y="96.3" class="d">echo &apos;This is how your terminal lo</text></symbol><symbol id="70"><text x="16" y="96.3" class="c">❯ </text><text x="32.8" y="96.3" class="d">echo &apos;This is how your terminal loo</text></symbol><symbol id="71"><text x="16" y="96.3" class="c">❯ </text><text x="32.8" y="96.3" class="d">echo &apos;This is how your terminal look</text></symbol><symbol id="72"><text x="16" y="96.3" class="c">❯ </text><text x="32.8" y="96.3" class="d">echo &apos;This is how your terminal looks</text></symbol><symbol id="73"><text x="16" y="96.3" class="c">❯ </text><text x="32.8" y="96.3" class="d">echo &apos;This is how your terminal looks.</text></symbol><symbol id="74"><text x="16" y="96.3" class="c">❯ </text><text x="32.8" y="96.3" class="d">echo &apos;This is how your terminal looks.&apos;</text></symbol><symbol id="75"><text x="16" y="115.9" class="d">This is how your terminal looks.</text></symbol><symbol id="76"><text x="16" y="135.5" class="c">❯</text></symbol></defs><style>@keyframes f{0.07%{transform:translateX(0px)}0.55%{transform:translateX(-419px)}1.02%{transform:translateX(-838px)}1.48%{transform:translateX(-1257px)}1.95%{transform:translateX(-1676px)}2.42%{transform:translateX(-2095px)}2.89%{transform:translateX(-2514px)}3.36%{transform:translateX(-2933px)}3.83%{transform:translateX(-3352px)}4.29%{transform:translateX(-3771px)}4.77%{transform:translateX(-4190px)}5.24%{transform:translateX(-4609px)}5.70%{transform:translateX(-5028px)}6.17%{transform:translateX(-5447px)}6.65%{transform:translateX(-5866px)}7.11%{transform:translateX(-6285px)}7.59%{transform:translateX(-6704px)}8.07%{transform:translateX(-7123px)}8.54%{transform:translateX(-7542px)}9.01%{transform:translateX(-7961px)}9.48%{transform:translateX(-8380px)}9.95%{transform:translateX(-8799px)}10.42%{transform:translateX(-9218px)}10.88%{transform:translateX(-9637px)}11.37%{transform:translateX(-10056px)}11.84%{transform:translateX(-10475px)}12.31%{transform:translateX(-10894px)}12.77%{transform:translateX(-11313px)}13.24%{transform:translateX(-11732px)}13.71%{transform:translateX(-12151px)}14.19%{transform:translateX(-12570px)}14.66%{transform:translateX(-12989px)}15.13%{transform:translateX(-13408px)}15.61%{transform:translateX(-13827px)}16.07%{transform:translateX(-14246px)}16.54%{transform:translateX(-14665px)}17.00%{transform:translateX(-15084px)}17.46%{transform:translateX(-15503px)}17.94%{transform:translateX(-15922px)}18.39%{transform:translateX(-16341px)}18.86%{transform:translateX(-16760px)}19.33%{transform:translateX(-17179px)}19.80%{transform:translateX(-17598px)}20.28%{transform:translateX(-18017px)}20.29%{transform:translateX(-18436px)}24.01%{transform:translateX(-18855px)}24.04%{transform:translateX(-19274px)}25.05%{transform:translateX(-19693px)}30.23%{transform:translateX(-20112px)}30.70%{transform:translateX(-20531px)}31.16%{transform:translateX(-20950px)}31.63%{transform:translateX(-21369px)}32.11%{transform:translateX(-21788px)}32.59%{transform:translateX(-22207px)}33.06%{transform:translateX(-22626px)}33.55%{transform:translateX(-23045px)}33.99%{transform:translateX(-23464px)}34.47%{transform:translateX(-23883px)}34.95%{transform:translateX(-24302px)}35.42%{transform:translateX(-24721px)}35.89%{transform:translateX(-25140px)}36.35%{transform:translateX(-25559px)}36.82%{transform:translateX(-25978px)}37.29%{transform:translateX(-26397px)}37.76%{transform:translateX(-26816px)}38.22%{transform:translateX(-27235px)}38.70%{transform:translateX(-27654px)}39.17%{transform:translateX(-28073px)}39.64%{transform:translateX(-28492px)}40.11%{transform:translateX(-28911px)}40.57%{transform:translateX(-29330px)}41.04%{transform:translateX(-29749px)}41.50%{transform:translateX(-30168px)}41.98%{transform:translateX(-30587px)}42.44%{transform:translateX(-31006px)}42.92%{transform:translateX(-31425px)}43.40%{transform:translateX(-31844px)}43.88%{transform:translateX(-32263px)}44.35%{transform:translateX(-32682px)}44.83%{transform:translateX(-33101px)}45.30%{transform:translateX(-33520px)}45.74%{transform:translateX(-33939px)}46.21%{transform:translateX(-34358px)}46.71%{transform:translateX(-34777px)}47.18%{transform:translateX(-35196px)}47.65%{transform:translateX(-35615px)}48.12%{transform:translateX(-36034px)}48.13%{transform:translateX(-36453px)}50.54%{transform:translateX(-36872px)}51.06%{transform:translateX(-37291px)}51.59%{transform:translateX(-37710px)}52.12%{transform:translateX(-38129px)}52.64%{transform:translateX(-38548px)}53.17%{transform:translateX(-38967px)}53.70%{transform:translateX(-39386px)}54.24%{transform:translateX(-39805px)}54.77%{transform:translateX(-40224px)}55.31%{transform:translateX(-40643px)}55.86%{transform:translateX(-41062px)}56.41%{transform:translateX(-41481px)}56.97%{transform:translateX(-41900px)}57.52%{transform:translateX(-42319px)}58.04%{transform:translateX(-42738px)}58.58%{transform:translateX(-43157px)}59.10%{transform:translateX(-43576px)}59.65%{transform:translateX(-43995px)}60.16%{transform:translateX(-44414px)}60.69%{transform:translateX(-44833px)}61.19%{transform:translateX(-45252px)}61.71%{transform:translateX(-45671px)}62.23%{transform:translateX(-46090px)}62.74%{transform:translateX(-46509px)}63.27%{transform:translateX(-46928px)}63.34%{transform:translateX(-47347px)}70.99%{transform:translateX(-47766px)}71.03%{transform:translateX(-48185px)}72.08%{transform:translateX(-48604px)}}.a{fill:#1e1e1e}.c{fill:#d2a8ff;stroke:#d2a8ff}.d{fill:#c9d1d9;stroke:#c9d1d9}path[fill="none"]{fill:none}path[shape-rendering="crispEdges"]{stroke:none}text{font-family:'SF Mono',Monaco,Consolas,Menlo,monospace;font-size:14px;dominant-baseline:text-before-edge;white-space:pre}text[class]{stroke:none}.bold{font-weight:700}.italic{font-style:italic}.uline{text-decoration:underline}.strike{text-decoration:line-through}.dim{opacity:0.5}@keyframes blink{0%,50%{opacity:1}50.01%,100%{opacity:0}}.cursor{animation:blink 1s step-end infinite;mix-blend-mode:difference}.cursor-active{opacity:1;mix-blend-mode:difference}</style><g transform="translate(0,0)"><rect width="419" height="178" rx="8" fill="#1e1e1e"/><rect width="419" height="40" rx="8" fill="#1e1e1e"/><path d="M0 32h419v8H0z" fill="#1e1e1e"/><circle cx="16" cy="20" r="6" fill="#ff5f56"/><circle cx="36" cy="20" r="6" fill="#ffbd2e"/><circle cx="56" cy="20" r="6" fill="#27c93f"/><text x="209.5" y="20" text-anchor="middle" dominant-baseline="middle" fill="#c9d1d9" font-size="14">solarizedLight</text><clipPath id="content-clip"><path d="M0 40h419v138H0z" /></clipPath><g clip-path="url(#content-clip)"><g style="animation:f 10.847s steps(1,end) infinite"><g transform="translate(0,0)"><use xlink:href="#1"/><path d="M32.8 56h8.4v19.6H32.8z" fill="#fff" class="cursor"/></g><g transform="translate(419,0)"><use xlink:href="#2"/><path d="M41.2 56h8.4v19.6H41.2z" fill="#fff" class="cursor-active"/></g><g transform="translate(838,0)"><use xlink:href="#3"/><path d="M49.6 56h8.4v19.6H49.6z" fill="#fff" class="cursor-active"/></g><g transform="translate(1257,0)"><use xlink:href="#4"/><path d="M58 56h8.4v19.6H58z" fill="#fff" class="cursor-active"/></g><g transform="translate(1676,0)"><use xlink:href="#5"/><path d="M66.4 56h8.4v19.6H66.4z" fill="#fff" class="cursor-active"/></g><g transform="translate(2095,0)"><use xlink:href="#5"/><path d="M74.8 56h8.4v19.6H74.8z" fill="#fff" class="cursor-active"/></g><g transform="translate(2514,0)"><use xlink:href="#6"/><path d="M83.2 56h8.4v19.6H83.2z" fill="#fff" class="cursor-active"/></g><g transform="translate(2933,0)"><use xlink:href="#7"/><path d="M91.6 56h8.4v19.6H91.6z" fill="#fff" class="cursor-active"/></g><g transform="translate(3352,0)"><use xlink:href="#8"/><path d="M100 56h8.4v19.6H100z" fill="#fff" class="cursor-active"/></g><g transform="translate(3771,0)"><use xlink:href="#9"/><path d="M108.4 56h8.4v19.6H108.4z" fill="#fff" class="cursor-active"/></g><g transform="translate(4190,0)"><use xlink:href="#10"/><path d="M116.8 56h8.4v19.6H116.8z" fill="#fff" class="cursor-active"/></g><g transform="translate(4609,0)"><use xlink:href="#11"/><path d="M125.2 56h8.4v19.6H125.2z" fill="#fff" class="cursor-active"/></g><g transform="translate(5028,0)"><use xlink:href="#12"/><path d="M133.6 56h8.4v19.6H133.6z" fill="#fff" class="cursor-active"/></g><g transform="translate(5447,0)"><use xlink:href="#13"/><path d="M142 56h8.4v19.6H142z" fill="#fff" class="cursor-active"/></g><g transform="translate(5866,0)"><use xlink:href="#13"/><path d="M150.4 56h8.4v19.6H150.4z" fill="#fff" class="cursor-active"/></g><g transform="translate(6285,0)"><use xlink:href="#14"/><path d="M158.8 56h8.4v19.6H158.8z" fill="#fff" class="cursor-active"/></g><g transform="translate(6704,0)"><use xlink:href="#15"/><path d="M167.2 56h8.4v19.6H167.2z" fill="#fff" class="cursor-active"/></g><g transform="translate(7123,0)"><use xlink:href="#15"/><path d="M175.6 56h8.4v19.6H175.6z" fill="#fff" class="cursor-active"/></g><g transform="translate(7542,0)"><use xlink:href="#16"/><path d="M184 56h8.4v19.6H184z" fill="#fff" class="cursor-active"/></g><g transform="translate(7961,0)"><use xlink:href="#17"/><path d="M192.4 56h8.4v19.6H192.4z" fill="#fff" class="cursor-active"/></g><g transform="translate(8380,0)"><use xlink:href="#18"/><path d="M200.8 56h8.4v19.6H200.8z" fill="#fff" class="cursor-active"/></g><g transform="translate(8799,0)"><use xlink:href="#18"/><path d="M209.2 56h8.4v19.6H209.2z" fill="#fff" class="cursor-active"/></g><g transform="translate(9218,0)"><use xlink:href="#19"/><path d="M217.6 56h8.4v19.6H217.6z" fill="#fff" class="cursor-active"/></g><g transform="translate(9637,0)"><use xlink:href="#20"/><path d="M226 56h8.4v19.6H226z" fill="#fff" class="cursor-active"/></g><g transform="translate(10056,0)"><use xlink:href="#21"/><path d="M234.4 56h8.4v19.6H234.4z" fill="#fff" class="cursor-active"/></g><g transform="translate(10475,0)"><use xlink:href="#22"/><path d="M242.8 56h8.4v19.6H242.8z" fill="#fff" class="cursor-active"/></g><g transform="translate(10894,0)"><use xlink:href="#23"/><path d="M251.2 56h8.4v19.6H251.2z" fill="#fff" class="cursor-active"/></g><g transform="translate(11313,0)"><use xlink:href="#24"/><path d="M259.6 56h8.4v19.6H259.6z" fill="#fff" class="cursor-active"/></g><g transform="translate(11732,0)"><use xlink:href="#25"/><path d="M268 56h8.4v19.6H268z" fill="#fff" class="cursor-active"/></g><g transform="translate(12151,0)"><use xlink:href="#26"/><path d="M276.4 56h8.4v19.6H276.4z" fill="#fff" class="cursor-active"/></g><g transform="translate(12570,0)"><use xlink:href="#27"/><path d="M284.8 56h8.4v19.6H284.8z" fill="#fff" class="cursor-active"/></g><g transform="translate(12989,0)"><use xlink:href="#28"/><path d="M293.2 56h8.4v19.6H293.2z" fill="#fff" class="cursor-active"/></g><g transform="translate(13408,0)"><use xlink:href="#29"/><path d="M301.6 56h8.4v19.6H301.6z" fill="#fff" class="cursor-active"/></g><g transform="translate(13827,0)"><use xlink:href="#30"/><path d="M310 56h8.4v19.6H310z" fill="#fff" class="cursor-active"/></g><g transform="translate(14246,0)"><use xlink:href="#31"/><path d="M318.4 56h8.4v19.6H318.4z" fill="#fff" class="cursor-active"/></g><g transform="translate(14665,0)"><use xlink:href="#32"/><path d="M326.8 56h8.4v19.6H326.8z" fill="#fff" class="cursor-active"/></g><g transform="translate(15084,0)"><use xlink:href="#32"/><path d="M335.2 56h8.4v19.6H335.2z" fill="#fff" class="cursor-active"/></g><g transform="translate(15503,0)"><use xlink:href="#33"/><path d="M343.6 56h8.4v19.6H343.6z" fill="#fff" class="cursor-active"/></g><g transform="translate(15922,0)"><use xlink:href="#34"/><path d="M352 56h8.4v19.6H352z" fill="#fff" class="cursor-active"/></g><g transform="translate(16341,0)"><use xlink:href="#35"/><path d="M360.4 56h8.4v19.6H360.4z" fill="#fff" class="cursor-active"/></g><g transform="translate(16760,0)"><use xlink:href="#36"/><path d="M368.8 56h8.4v19.6H368.8z" fill="#fff" class="cursor-active"/></g><g transform="translate(17179,0)"><use xlink:href="#37"/><path d="M377.2 56h8.4v19.6H377.2z" fill="#fff" class="cursor-active"/></g><g transform="translate(17598,0)"><use xlink:href="#38"/><path d="M385.6 56h8.4v19.6H385.6z" fill="#fff" class="cursor-active"/></g><g transform="translate(18017,0)"><use xlink:href="#39"/><path d="M394 56h8.4v19.6H394z" fill="#fff" class="cursor-active"/></g><g transform="translate(18436,0)"><use xlink:href="#39"/><path d="M394 56h8.4v19.6H394z" fill="#fff" class="cursor"/></g><g transform="translate(18855,0)"><use xlink:href="#39"/></g><g transform="translate(19274,0)"><use xlink:href="#39"/><use xlink:href="#40"/></g><g transform="translate(19693,0)"><use xlink:href="#39"/><use xlink:href="#40"/><use xlink:href="#41"/><path d="M32.8 95.2h8.4v19.6H32.8z" fill="#fff" class="cursor"/></g><g transform="translate(20112,0)"><use xlink:href="#39"/><use xlink:href="#40"/><use xlink:href="#42"/><path d="M41.2 95.2h8.4v19.6H41.2z" fill="#fff" class="cursor-active"/></g><g transform="translate(20531,0)"><use xlink:href="#39"/><use xlink:href="#40"/><use xlink:href="#43"/><path d="M49.6 95.2h8.4v19.6H49.6z" fill="#fff" class="cursor-active"/></g><g transform="translate(20950,0)"><use xlink:href="#39"/><use xlink:href="#40"/><use xlink:href="#44"/><path d="M58 95.2h8.4v19.6H58z" fill="#fff" class="cursor-active"/></g><g transform="translate(21369,0)"><use xlink:href="#39"/><use xlink:href="#40"/><use xlink:href="#45"/><path d="M66.4 95.2h8.4v19.6H66.4z" fill="#fff" class="cursor-active"/></g><g transform="translate(21788,0)"><use xlink:href="#39"/><use xlink:href="#40"/><use xlink:href="#45"/><path d="M74.8 95.2h8.4v19.6H74.8z" fill="#fff" class="cursor-active"/></g><g transform="translate(22207,0)"><use xlink:href="#39"/><use xlink:href="#40"/><use xlink:href="#46"/><path d="M83.2 95.2h8.4v19.6H83.2z" fill="#fff" class="cursor-active"/></g><g transform="translate(22626,0)"><use xlink:href="#39"/><use xlink:href="#40"/><use xlink:href="#47"/><path d="M91.6 95.2h8.4v19.6H91.6z" fill="#fff" class="cursor-active"/></g><g transform="translate(23045,0)"><use xlink:href="#39"/><use xlink:href="#40"/><use xlink:href="#48"/><path d="M100 95.2h8.4v19.6H100z" fill="#fff" class="cursor-active"/></g><g transform="translate(23464,0)"><use xlink:href="#39"/><use xlink:href="#40"/><use xlink:href="#49"/><path d="M108.4 95.2h8.4v19.6H108.4z" fill="#fff" class="cursor-active"/></g><g transform="translate(23883,0)"><use xlink:href="#39"/><use xlink:href="#40"/><use xlink:href="#50"/><path d="M116.8 95.2h8.4v19.6H116.8z" fill="#fff" class="cursor-active"/></g><g transform="translate(24302,0)"><use xlink:href="#39"/><use xlink:href="#40"/><use xlink:href="#50"/><path d="M125.2 95.2h8.4v19.6H125.2z" fill="#fff" class="cursor-active"/></g><g transform="translate(24721,0)"><use xlink:href="#39"/><use xlink:href="#40"/><use xlink:href="#51"/><path d="M133.6 95.2h8.4v19.6H133.6z" fill="#fff" class="cursor-active"/></g><g transform="translate(25140,0)"><use xlink:href="#39"/><use xlink:href="#40"/><use xlink:href="#52"/><path d="M142 95.2h8.4v19.6H142z" fill="#fff" class="cursor-active"/></g><g transform="translate(25559,0)"><use xlink:href="#39"/><use xlink:href="#40"/><use xlink:href="#52"/><path d="M150.4 95.2h8.4v19.6H150.4z" fill="#fff" class="cursor-active"/></g><g transform="translate(25978,0)"><use xlink:href="#39"/><use xlink:href="#40"/><use xlink:href="#53"/><path d="M158.8 95.2h8.4v19.6H158.8z" fill="#fff" class="cursor-active"/></g><g transform="translate(26397,0)"><use xlink:href="#39"/><use xlink:href="#40"/><use xlink:href="#54"/><path d="M167.2 95.2h8.4v19.6H167.2z" fill="#fff" class="cursor-active"/></g><g transform="translate(26816,0)"><use xlink:href="#39"/><use xlink:href="#40"/><use xlink:href="#55"/><path d="M175.6 95.2h8.4v19.6H175.6z" fill="#fff" class="cursor-active"/></g><g transform="translate(27235,0)"><use xlink:href="#39"/><use xlink:href="#40"/><use xlink:href="#55"/><path d="M184 95.2h8.4v19.6H184z" fill="#fff" class="cursor-active"/></g><g transform="translate(27654,0)"><use xlink:href="#39"/><use xlink:href="#40"/><use xlink:href="#56"/><path d="M192.4 95.2h8.4v19.6H192.4z" fill="#fff" class="cursor-active"/></g><g transform="translate(28073,0)"><use xlink:href="#39"/><use xlink:href="#40"/><use xlink:href="#57"/><path d="M200.8 95.2h8.4v19.6H200.8z" fill="#fff" class="cursor-active"/></g><g transform="translate(28492,0)"><use xlink:href="#39"/><use xlink:href="#40"/><use xlink:href="#58"/><path d="M209.2 95.2h8.4v19.6H209.2z" fill="#fff" class="cursor-active"/></g><g transform="translate(28911,0)"><use xlink:href="#39"/><use xlink:href="#40"/><use xlink:href="#59"/><path d="M217.6 95.2h8.4v19.6H217.6z" fill="#fff" class="cursor-active"/></g><g transform="translate(29330,0)"><use xlink:href="#39"/><use xlink:href="#40"/><use xlink:href="#59"/><path d="M226 95.2h8.4v19.6H226z" fill="#fff" class="cursor-active"/></g><g transform="translate(29749,0)"><use xlink:href="#39"/><use xlink:href="#40"/><use xlink:href="#60"/><path d="M234.4 95.2h8.4v19.6H234.4z" fill="#fff" class="cursor-active"/></g><g transform="translate(30168,0)"><use xlink:href="#39"/><use xlink:href="#40"/><use xlink:href="#61"/><path d="M242.8 95.2h8.4v19.6H242.8z" fill="#fff" class="cursor-active"/></g><g transform="translate(30587,0)"><use xlink:href="#39"/><use xlink:href="#40"/><use xlink:href="#62"/><path d="M251.2 95.2h8.4v19.6H251.2z" fill="#fff" class="cursor-active"/></g><g transform="translate(31006,0)"><use xlink:href="#39"/><use xlink:href="#40"/><use xlink:href="#63"/><path d="M259.6 95.2h8.4v19.6H259.6z" fill="#fff" class="cursor-active"/></g><g transform="translate(31425,0)"><use xlink:href="#39"/><use xlink:href="#40"/><use xlink:href="#64"/><path d="M268 95.2h8.4v19.6H268z" fill="#fff" class="cursor-active"/></g><g transform="translate(31844,0)"><use xlink:href="#39"/><use xlink:href="#40"/><use xlink:href="#65"/><path d="M276.4 95.2h8.4v19.6H276.4z" fill="#fff" class="cursor-active"/></g><g transform="translate(32263,0)"><use xlink:href="#39"/><use xlink:href="#40"/><use xlink:href="#66"/><path d="M284.8 95.2h8.4v19.6H284.8z" fill="#fff" class="cursor-active"/></g><g transform="translate(32682,0)"><use xlink:href="#39"/><use xlink:href="#40"/><use xlink:href="#67"/><path d="M293.2 95.2h8.4v19.6H293.2z" fill="#fff" class="cursor-active"/></g><g transform="translate(33101,0)"><use xlink:href="#39"/><use xlink:href="#40"/><use xlink:href="#67"/><path d="M301.6 95.2h8.4v19.6H301.6z" fill="#fff" class="cursor-active"/></g><g transform="translate(33520,0)"><use xlink:href="#39"/><use xlink:href="#40"/><use xlink:href="#68"/><path d="M310 95.2h8.4v19.6H310z" fill="#fff" class="cursor-active"/></g><g transform="translate(33939,0)"><use xlink:href="#39"/><use xlink:href="#40"/><use xlink:href="#69"/><path d="M318.4 95.2h8.4v19.6H318.4z" fill="#fff" class="cursor-active"/></g><g transform="translate(34358,0)"><use xlink:href="#39"/><use xlink:href="#40"/><use xlink:href="#70"/><path d="M326.8 95.2h8.4v19.6H326.8z" fill="#fff" class="cursor-active"/></g><g transform="translate(34777,0)"><use xlink:href="#39"/><use xlink:href="#40"/><use xlink:href="#71"/><path d="M335.2 95.2h8.4v19.6H335.2z" fill="#fff" class="cursor-active"/></g><g transform="translate(35196,0)"><use xlink:href="#39"/><use xlink:href="#40"/><use xlink:href="#72"/><path d="M343.6 95.2h8.4v19.6H343.6z" fill="#fff" class="cursor-active"/></g><g transform="translate(35615,0)"><use xlink:href="#39"/><use xlink:href="#40"/><use xlink:href="#73"/><path d="M352 95.2h8.4v19.6H352z" fill="#fff" class="cursor-active"/></g><g transform="translate(36034,0)"><use xlink:href="#39"/><use xlink:href="#40"/><use xlink:href="#74"/><path d="M360.4 95.2h8.4v19.6H360.4z" fill="#fff" class="cursor-active"/></g><g transform="translate(36453,0)"><use xlink:href="#39"/><use xlink:href="#40"/><use xlink:href="#74"/><path d="M360.4 95.2h8.4v19.6H360.4z" fill="#fff" class="cursor"/></g><g transform="translate(36872,0)"><use xlink:href="#39"/><use xlink:href="#40"/><use xlink:href="#74"/><path d="M352 95.2h8.4v19.6H352z" fill="#fff" class="cursor-active"/></g><g transform="translate(37291,0)"><use xlink:href="#39"/><use xlink:href="#40"/><use xlink:href="#74"/><path d="M343.6 95.2h8.4v19.6H343.6z" fill="#fff" class="cursor-active"/></g><g transform="translate(37710,0)"><use xlink:href="#39"/><use xlink:href="#40"/><use xlink:href="#74"/><path d="M335.2 95.2h8.4v19.6H335.2z" fill="#fff" class="cursor-active"/></g><g transform="translate(38129,0)"><use xlink:href="#39"/><use xlink:href="#40"/><use xlink:href="#74"/><path d="M326.8 95.2h8.4v19.6H326.8z" fill="#fff" class="cursor-active"/></g><g transform="translate(38548,0)"><use xlink:href="#39"/><use xlink:href="#40"/><use xlink:href="#74"/><path d="M318.4 95.2h8.4v19.6H318.4z" fill="#fff" class="cursor-active"/></g><g transform="translate(38967,0)"><use xlink:href="#39"/><use xlink:href="#40"/><use xlink:href="#74"/><path d="M310 95.2h8.4v19.6H310z" fill="#fff" class="cursor-active"/></g><g transform="translate(39386,0)"><use xlink:href="#39"/><use xlink:href="#40"/><use xlink:href="#74"/><path d="M301.6 95.2h8.4v19.6H301.6z" fill="#fff" class="cursor-active"/></g><g transform="translate(39805,0)"><use xlink:href="#39"/><use xlink:href="#40"/><use xlink:href="#74"/><path d="M293.2 95.2h8.4v19.6H293.2z" fill="#fff" class="cursor-active"/></g><g transform="translate(40224,0)"><use xlink:href="#39"/><use xlink:href="#40"/><use xlink:href="#74"/><path d="M284.8 95.2h8.4v19.6H284.8z" fill="#fff" class="cursor-active"/></g><g transform="translate(40643,0)"><use xlink:href="#39"/><use xlink:href="#40"/><use xlink:href="#74"/><path d="M276.4 95.2h8.4v19.6H276.4z" fill="#fff" class="cursor-active"/></g><g transform="translate(41062,0)"><use xlink:href="#39"/><use xlink:href="#40"/><use xlink:href="#74"/><path d="M268 95.2h8.4v19.6H268z" fill="#fff" class="cursor-active"/></g><g transform="translate(41481,0)"><use xlink:href="#39"/><use xlink:href="#40"/><use xlink:href="#74"/><path d="M259.6 95.2h8.4v19.6H259.6z" fill="#fff" class="cursor-active"/></g><g transform="translate(41900,0)"><use xlink:href="#39"/><use xlink:href="#40"/><use xlink:href="#74"/><path d="M251.2 95.2h8.4v19.6H251.2z" fill="#fff" class="cursor-active"/></g><g transform="translate(42319,0)"><use xlink:href="#39"/><use xlink:href="#40"/><use xlink:href="#74"/><path d="M242.8 95.2h8.4v19.6H242.8z" fill="#fff" class="cursor-active"/></g><g transform="translate(42738,0)"><use xlink:href="#39"/><use xlink:href="#40"/><use xlink:href="#74"/><path d="M234.4 95.2h8.4v19.6H234.4z" fill="#fff" class="cursor-active"/></g><g transform="translate(43157,0)"><use xlink:href="#39"/><use xlink:href="#40"/><use xlink:href="#74"/><path d="M226 95.2h8.4v19.6H226z" fill="#fff" class="cursor-active"/></g><g transform="translate(43576,0)"><use xlink:href="#39"/><use xlink:href="#40"/><use xlink:href="#74"/><path d="M217.6 95.2h8.4v19.6H217.6z" fill="#fff" class="cursor-active"/></g><g transform="translate(43995,0)"><use xlink:href="#39"/><use xlink:href="#40"/><use xlink:href="#74"/><path d="M209.2 95.2h8.4v19.6H209.2z" fill="#fff" class="cursor-active"/></g><g transform="translate(44414,0)"><use xlink:href="#39"/><use xlink:href="#40"/><use xlink:href="#74"/><path d="M200.8 95.2h8.4v19.6H200.8z" fill="#fff" class="cursor-active"/></g><g transform="translate(44833,0)"><use xlink:href="#39"/><use xlink:href="#40"/><use xlink:href="#74"/><path d="M192.4 95.2h8.4v19.6H192.4z" fill="#fff" class="cursor-active"/></g><g transform="translate(45252,0)"><use xlink:href="#39"/><use xlink:href="#40"/><use xlink:href="#74"/><path d="M184 95.2h8.4v19.6H184z" fill="#fff" class="cursor-active"/></g><g transform="translate(45671,0)"><use xlink:href="#39"/><use xlink:href="#40"/><use xlink:href="#74"/><path d="M184 95.2h8.4v19.6H184z" fill="#264f78" opacity="0.5"/><path d="M192.4 95.2h8.4v19.6H192.4z" fill="#fff" class="cursor-active"/></g><g transform="translate(46090,0)"><use xlink:href="#39"/><use xlink:href="#40"/><use xlink:href="#74"/><path d="M184 95.2h16.8v19.6H184z" fill="#264f78" opacity="0.5"/><path d="M200.8 95.2h8.4v19.6H200.8z" fill="#fff" class="cursor-active"/></g><g transform="translate(46509,0)"><use xlink:href="#39"/><use xlink:href="#40"/><use xlink:href="#74"/><path d="M184 95.2h25.2v19.6H184z" fill="#264f78" opacity="0.5"/><path d="M209.2 95.2h8.4v19.6H209.2z" fill="#fff" class="cursor-active"/></g><g transform="translate(46928,0)"><use xlink:href="#39"/><use xlink:href="#40"/><use xlink:href="#74"/><path d="M184 95.2h33.6v19.6H184z" fill="#264f78" opacity="0.5"/><path d="M217.6 95.2h8.4v19.6H217.6z" fill="#fff" class="cursor-active"/></g><g transform="translate(47347,0)"><use xlink:href="#39"/><use xlink:href="#40"/><use xlink:href="#74"/><path d="M184 95.2h33.6v19.6H184z" fill="#264f78" opacity="0.5"/><path d="M217.6 95.2h8.4v19.6H217.6z" fill="#fff" class="cursor"/></g><g transform="translate(47766,0)"><use xlink:href="#39"/><use xlink:href="#40"/><use xlink:href="#74"/></g><g transform="translate(48185,0)"><use xlink:href="#39"/><use xlink:href="#40"/><use xlink:href="#74"/><use xlink:href="#75"/></g><g transform="translate(48604,0)"><use xlink:href="#39"/><use xlink:href="#40"/><use xlink:href="#74"/><use xlink:href="#75"/><use xlink:href="#76"/><path d="M32.8 134.4h8.4v19.6H32.8z" fill="#fff" class="cursor"/></g></g></g></g></svg>