<svg xmlns="http://www.w3.org/2000/svg" xmlns:xlink="http://www.w3.org/1999/xlink" width="600" height="250" viewBox="0 0 600 250"><defs><symbol id="1"><text x="16" y="57.4" textLength="10.8" lengthAdjust="spacingAndGlyphs" class="c">❯</text></symbol><symbol id="2"><text x="16" y="57.4" textLength="21.6" lengthAdjust="spacingAndGlyphs" class="c">❯ </text><text x="37.6" y="57.4" textLength="10.8" lengthAdjust="spacingAndGlyphs" class="d">n</text></symbol><symbol id="3"><text x="16" y="57.4" textLength="21.6" lengthAdjust="spacingAndGlyphs" class="c">❯ </text><text x="37.6" y="57.4" textLength="21.6" lengthAdjust="spacingAndGlyphs" class="d">no</text></symbol><symbol id="4"><text x="16" y="57.4" textLength="21.6" lengthAdjust="spacingAndGlyphs" class="c">❯ </text><text x="37.6" y="57.4" textLength="32.4" lengthAdjust="spacingAndGlyphs" class="d">nod</text></symbol><symbol id="5"><text x="16" y="57.4" textLength="21.6" lengthAdjust="spacingAndGlyphs" class="c">❯ </text><text x="37.6" y="57.4" textLength="43.2" lengthAdjust="spacingAndGlyphs" class="d">node</text></symbol><symbol id="6"><text x="16" y="57.4" textLength="21.6" lengthAdjust="spacingAndGlyphs" class="c">❯ </text><text x="37.6" y="57.4" textLength="64.8" lengthAdjust="spacingAndGlyphs" class="d">node -</text></symbol><symbol id="7"><text x="16" y="57.4" textLength="21.6" lengthAdjust="spacingAndGlyphs" class="c">❯ </text><text x="37.6" y="57.4" textLength="75.6" lengthAdjust="spacingAndGlyphs" class="d">node -e</text></symbol><symbol id="8"><text x="16" y="57.4" textLength="21.6" lengthAdjust="spacingAndGlyphs" class="c">❯ </text><text x="37.6" y="57.4" textLength="97.2" lengthAdjust="spacingAndGlyphs" class="d">node -e &quot;</text></symbol><symbol id="9"><text x="16" y="57.4" textLength="21.6" lengthAdjust="spacingAndGlyphs" class="c">❯ </text><text x="37.6" y="57.4" textLength="108" lengthAdjust="spacingAndGlyphs" class="d">node -e &quot;c</text></symbol><symbol id="10"><text x="16" y="57.4" textLength="21.6" lengthAdjust="spacingAndGlyphs" class="c">❯ </text><text x="37.6" y="57.4" textLength="118.8" lengthAdjust="spacingAndGlyphs" class="d">node -e &quot;co</text></symbol><symbol id="11"><text x="16" y="57.4" textLength="21.6" lengthAdjust="spacingAndGlyphs" class="c">❯ </text><text x="37.6" y="57.4" textLength="129.6" lengthAdjust="spacingAndGlyphs" class="d">node -e &quot;con</text></symbol><symbol id="12"><text x="16" y="57.4" textLength="21.6" lengthAdjust="spacingAndGlyphs" class="c">❯ </text><text x="37.6" y="57.4" textLength="140.4" lengthAdjust="spacingAndGlyphs" class="d">node -e &quot;cons</text></symbol><symbol id="13"><text x="16" y="57.4" textLength="21.6" lengthAdjust="spacingAndGlyphs" class="c">❯ </text><text x="37.6" y="57.4" textLength="151.2" lengthAdjust="spacingAndGlyphs" class="d">node -e &quot;conso</text></symbol><symbol id="14"><text x="16" y="57.4" textLength="21.6" lengthAdjust="spacingAndGlyphs" class="c">❯ </text><text x="37.6" y="57.4" textLength="162" lengthAdjust="spacingAndGlyphs" class="d">node -e &quot;consol</text></symbol><symbol id="15"><text x="16" y="57.4" textLength="21.6" lengthAdjust="spacingAndGlyphs" class="c">❯ </text><text x="37.6" y="57.4" textLength="172.8" lengthAdjust="spacingAndGlyphs" class="d">node -e &quot;console</text></symbol><symbol id="16"><text x="16" y="57.4" textLength="21.6" lengthAdjust="spacingAndGlyphs" class="c">❯ </text><text x="37.6" y="57.4" textLength="183.6" lengthAdjust="spacingAndGlyphs" class="d">node -e &quot;console.</text></symbol><symbol id="17"><text x="16" y="57.4" textLength="21.6" lengthAdjust="spacingAndGlyphs" class="c">❯ </text><text x="37.6" y="57.4" textLength="194.4" lengthAdjust="spacingAndGlyphs" class="d">node -e &quot;console.l</text></symbol><symbol id="18"><text x="16" y="57.4" textLength="21.6" lengthAdjust="spacingAndGlyphs" class="c">❯ </text><text x="37.6" y="57.4" textLength="205.2" lengthAdjust="spacingAndGlyphs" class="d">node -e &quot;console.lo</text></symbol><symbol id="19"><text x="16" y="57.4" textLength="21.6" lengthAdjust="spacingAndGlyphs" class="c">❯ </text><text x="37.6" y="57.4" textLength="216" lengthAdjust="spacingAndGlyphs" class="d">node -e &quot;console.log</text></symbol><symbol id="20"><text x="16" y="57.4" textLength="21.6" lengthAdjust="spacingAndGlyphs" class="c">❯ </text><text x="37.6" y="57.4" textLength="226.8" lengthAdjust="spacingAndGlyphs" class="d">node -e &quot;console.log(</text></symbol><symbol id="21"><text x="16" y="57.4" textLength="21.6" lengthAdjust="spacingAndGlyphs" class="c">❯ </text><text x="37.6" y="57.4" textLength="237.6" lengthAdjust="spacingAndGlyphs" class="d">node -e &quot;console.log(&apos;</text></symbol><symbol id="22"><text x="16" y="57.4" textLength="21.6" lengthAdjust="spacingAndGlyphs" class="c">❯ </text><text x="37.6" y="57.4" textLength="248.4" lengthAdjust="spacingAndGlyphs" class="d">node -e &quot;console.log(&apos;g</text></symbol><symbol id="23"><text x="16" y="57.4" textLength="21.6" lengthAdjust="spacingAndGlyphs" class="c">❯ </text><text x="37.6" y="57.4" textLength="259.2" lengthAdjust="spacingAndGlyphs" class="d">node -e &quot;console.log(&apos;gr</text></symbol><symbol id="24"><text x="16" y="57.4" textLength="21.6" lengthAdjust="spacingAndGlyphs" class="c">❯ </text><text x="37.6" y="57.4" textLength="270" lengthAdjust="spacingAndGlyphs" class="d">node -e &quot;console.log(&apos;gre</text></symbol><symbol id="25"><text x="16" y="57.4" textLength="21.6" lengthAdjust="spacingAndGlyphs" class="c">❯ </text><text x="37.6" y="57.4" textLength="280.8" lengthAdjust="spacingAndGlyphs" class="d">node -e &quot;console.log(&apos;gree</text></symbol><symbol id="26"><text x="16" y="57.4" textLength="21.6" lengthAdjust="spacingAndGlyphs" class="c">❯ </text><text x="37.6" y="57.4" textLength="291.6" lengthAdjust="spacingAndGlyphs" class="d">node -e &quot;console.log(&apos;greet</text></symbol><symbol id="27"><text x="16" y="57.4" textLength="21.6" lengthAdjust="spacingAndGlyphs" class="c">❯ </text><text x="37.6" y="57.4" textLength="302.4" lengthAdjust="spacingAndGlyphs" class="d">node -e &quot;console.log(&apos;greeti</text></symbol><symbol id="28"><text x="16" y="57.4" textLength="21.6" lengthAdjust="spacingAndGlyphs" class="c">❯ </text><text x="37.6" y="57.4" textLength="313.2" lengthAdjust="spacingAndGlyphs" class="d">node -e &quot;console.log(&apos;greetin</text></symbol><symbol id="29"><text x="16" y="57.4" textLength="21.6" lengthAdjust="spacingAndGlyphs" class="c">❯ </text><text x="37.6" y="57.4" textLength="324" lengthAdjust="spacingAndGlyphs" class="d">node -e &quot;console.log(&apos;greeting</text></symbol><symbol id="30"><text x="16" y="57.4" textLength="21.6" lengthAdjust="spacingAndGlyphs" class="c">❯ </text><text x="37.6" y="57.4" textLength="334.8" lengthAdjust="spacingAndGlyphs" class="d">node -e &quot;console.log(&apos;greetings</text></symbol><symbol id="31"><text x="16" y="57.4" textLength="21.6" lengthAdjust="spacingAndGlyphs" class="c">❯ </text><text x="37.6" y="57.4" textLength="345.6" lengthAdjust="spacingAndGlyphs" class="d">node -e &quot;console.log(&apos;greetings!</text></symbol><symbol id="32"><text x="16" y="57.4" textLength="21.6" lengthAdjust="spacingAndGlyphs" class="c">❯ </text><text x="37.6" y="57.4" textLength="356.4" lengthAdjust="spacingAndGlyphs" class="d">node -e &quot;console.log(&apos;greetings!&apos;</text></symbol><symbol id="33"><text x="16" y="57.4" textLength="21.6" lengthAdjust="spacingAndGlyphs" class="c">❯ </text><text x="37.6" y="57.4" textLength="367.2" lengthAdjust="spacingAndGlyphs" class="d">node -e &quot;console.log(&apos;greetings!&apos;)</text></symbol><symbol id="34"><text x="16" y="57.4" textLength="21.6" lengthAdjust="spacingAndGlyphs" class="c">❯ </text><text x="37.6" y="57.4" textLength="378" lengthAdjust="spacingAndGlyphs" class="d">node -e &quot;console.log(&apos;greetings!&apos;)&quot;</text></symbol><symbol id="35"><text x="16" y="82.6" textLength="108" lengthAdjust="spacingAndGlyphs" class="d">greetings!</text></symbol><symbol id="36"><text x="16" y="107.8" textLength="10.8" lengthAdjust="spacingAndGlyphs" class="c">❯</text></symbol><symbol id="37"><text x="16" y="107.8" textLength="21.6" lengthAdjust="spacingAndGlyphs" class="c">❯ </text><text x="37.6" y="107.8" textLength="10.8" lengthAdjust="spacingAndGlyphs" class="d">/</text></symbol><symbol id="38"><text x="16" y="107.8" textLength="21.6" lengthAdjust="spacingAndGlyphs" class="c">❯ </text><text x="37.6" y="107.8" textLength="21.6" lengthAdjust="spacingAndGlyphs" class="d">//</text></symbol><symbol id="39"><text x="16" y="107.8" textLength="21.6" lengthAdjust="spacingAndGlyphs" class="c">❯ </text><text x="37.6" y="107.8" textLength="43.2" lengthAdjust="spacingAndGlyphs" class="d">// F</text></symbol><symbol id="40"><text x="16" y="107.8" textLength="21.6" lengthAdjust="spacingAndGlyphs" class="c">❯ </text><text x="37.6" y="107.8" textLength="54" lengthAdjust="spacingAndGlyphs" class="d">// Fo</text></symbol><symbol id="41"><text x="16" y="107.8" textLength="21.6" lengthAdjust="spacingAndGlyphs" class="c">❯ </text><text x="37.6" y="107.8" textLength="64.8" lengthAdjust="spacingAndGlyphs" class="d">// Fon</text></symbol><symbol id="42"><text x="16" y="107.8" textLength="21.6" lengthAdjust="spacingAndGlyphs" class="c">❯ </text><text x="37.6" y="107.8" textLength="75.6" lengthAdjust="spacingAndGlyphs" class="d">// Font</text></symbol><symbol id="43"><text x="16" y="107.8" textLength="21.6" lengthAdjust="spacingAndGlyphs" class="c">❯ </text><text x="37.6" y="107.8" textLength="97.2" lengthAdjust="spacingAndGlyphs" class="d">// Font i</text></symbol><symbol id="44"><text x="16" y="107.8" textLength="21.6" lengthAdjust="spacingAndGlyphs" class="c">❯ </text><text x="37.6" y="107.8" textLength="108" lengthAdjust="spacingAndGlyphs" class="d">// Font is</text></symbol><symbol id="45"><text x="16" y="107.8" textLength="21.6" lengthAdjust="spacingAndGlyphs" class="c">❯ </text><text x="37.6" y="107.8" textLength="129.6" lengthAdjust="spacingAndGlyphs" class="d">// Font is e</text></symbol><symbol id="46"><text x="16" y="107.8" textLength="21.6" lengthAdjust="spacingAndGlyphs" class="c">❯ </text><text x="37.6" y="107.8" textLength="140.4" lengthAdjust="spacingAndGlyphs" class="d">// Font is em</text></symbol><symbol id="47"><text x="16" y="107.8" textLength="21.6" lengthAdjust="spacingAndGlyphs" class="c">❯ </text><text x="37.6" y="107.8" textLength="151.2" lengthAdjust="spacingAndGlyphs" class="d">// Font is emb</text></symbol><symbol id="48"><text x="16" y="107.8" textLength="21.6" lengthAdjust="spacingAndGlyphs" class="c">❯ </text><text x="37.6" y="107.8" textLength="162" lengthAdjust="spacingAndGlyphs" class="d">// Font is embe</text></symbol><symbol id="49"><text x="16" y="107.8" textLength="21.6" lengthAdjust="spacingAndGlyphs" class="c">❯ </text><text x="37.6" y="107.8" textLength="172.8" lengthAdjust="spacingAndGlyphs" class="d">// Font is embed</text></symbol><symbol id="50"><text x="16" y="107.8" textLength="21.6" lengthAdjust="spacingAndGlyphs" class="c">❯ </text><text x="37.6" y="107.8" textLength="183.6" lengthAdjust="spacingAndGlyphs" class="d">// Font is embedd</text></symbol><symbol id="51"><text x="16" y="107.8" textLength="21.6" lengthAdjust="spacingAndGlyphs" class="c">❯ </text><text x="37.6" y="107.8" textLength="194.4" lengthAdjust="spacingAndGlyphs" class="d">// Font is embedde</text></symbol><symbol id="52"><text x="16" y="107.8" textLength="21.6" lengthAdjust="spacingAndGlyphs" class="c">❯ </text><text x="37.6" y="107.8" textLength="205.2" lengthAdjust="spacingAndGlyphs" class="d">// Font is embedded</text></symbol><symbol id="53"><text x="16" y="107.8" textLength="21.6" lengthAdjust="spacingAndGlyphs" class="c">❯ </text><text x="37.6" y="107.8" textLength="226.8" lengthAdjust="spacingAndGlyphs" class="d">// Font is embedded -</text></symbol><symbol id="54"><text x="16" y="107.8" textLength="21.6" lengthAdjust="spacingAndGlyphs" class="c">❯ </text><text x="37.6" y="107.8" textLength="248.4" lengthAdjust="spacingAndGlyphs" class="d">// Font is embedded - w</text></symbol><symbol id="55"><text x="16" y="107.8" textLength="21.6" lengthAdjust="spacingAndGlyphs" class="c">❯ </text><text x="37.6" y="107.8" textLength="259.2" lengthAdjust="spacingAndGlyphs" class="d">// Font is embedded - wo</text></symbol><symbol id="56"><text x="16" y="107.8" textLength="21.6" lengthAdjust="spacingAndGlyphs" class="c">❯ </text><text x="37.6" y="107.8" textLength="270" lengthAdjust="spacingAndGlyphs" class="d">// Font is embedded - wor</text></symbol><symbol id="57"><text x="16" y="107.8" textLength="21.6" lengthAdjust="spacingAndGlyphs" class="c">❯ </text><text x="37.6" y="107.8" textLength="280.8" lengthAdjust="spacingAndGlyphs" class="d">// Font is embedded - work</text></symbol><symbol id="58"><text x="16" y="107.8" textLength="21.6" lengthAdjust="spacingAndGlyphs" class="c">❯ </text><text x="37.6" y="107.8" textLength="291.6" lengthAdjust="spacingAndGlyphs" class="d">// Font is embedded - works</text></symbol><symbol id="59"><text x="16" y="107.8" textLength="21.6" lengthAdjust="spacingAndGlyphs" class="c">❯ </text><text x="37.6" y="107.8" textLength="313.2" lengthAdjust="spacingAndGlyphs" class="d">// Font is embedded - works e</text></symbol><symbol id="60"><text x="16" y="107.8" textLength="21.6" lengthAdjust="spacingAndGlyphs" class="c">❯ </text><text x="37.6" y="107.8" textLength="324" lengthAdjust="spacingAndGlyphs" class="d">// Font is embedded - works ev</text></symbol><symbol id="61"><text x="16" y="107.8" textLength="21.6" lengthAdjust="spacingAndGlyphs" class="c">❯ </text><text x="37.6" y="107.8" textLength="334.8" lengthAdjust="spacingAndGlyphs" class="d">// Font is embedded - works eve</text></symbol><symbol id="62"><text x="16" y="107.8" textLength="21.6" lengthAdjust="spacingAndGlyphs" class="c">❯ </text><text x="37.6" y="107.8" textLength="345.6" lengthAdjust="spacingAndGlyphs" class="d">// Font is embedded - works ever</text></symbol><symbol id="63"><text x="16" y="107.8" textLength="21.6" lengthAdjust="spacingAndGlyphs" class="c">❯ </text><text x="37.6" y="107.8" textLength="356.4" lengthAdjust="spacingAndGlyphs" class="d">// Font is embedded - works every</text></symbol><symbol id="64"><text x="16" y="107.8" textLength="21.6" lengthAdjust="spacingAndGlyphs" class="c">❯ </text><text x="37.6" y="107.8" textLength="367.2" lengthAdjust="spacingAndGlyphs" class="d">// Font is embedded - works everyw</text></symbol><symbol id="65"><text x="16" y="107.8" textLength="21.6" lengthAdjust="spacingAndGlyphs" class="c">❯ </text><text x="37.6" y="107.8" textLength="378" lengthAdjust="spacingAndGlyphs" class="d">// Font is embedded - works everywh</text></symbol><symbol id="66"><text x="16" y="107.8" textLength="21.6" lengthAdjust="spacingAndGlyphs" class="c">❯ </text><text x="37.6" y="107.8" textLength="388.8" lengthAdjust="spacingAndGlyphs" class="d">// Font is embedded - works everywhe</text></symbol><symbol id="67"><text x="16" y="107.8" textLength="21.6" lengthAdjust="spacingAndGlyphs" class="c">❯ </text><text x="37.6" y="107.8" textLength="399.6" lengthAdjust="spacingAndGlyphs" class="d">// Font is embedded - works everywher</text></symbol><symbol id="68"><text x="16" y="107.8" textLength="21.6" lengthAdjust="spacingAndGlyphs" class="c">❯ </text><text x="37.6" y="107.8" textLength="410.4" lengthAdjust="spacingAndGlyphs" class="d">// Font is embedded - works everywhere</text></symbol><symbol id="69"><text x="16" y="107.8" textLength="21.6" lengthAdjust="spacingAndGlyphs" class="c">❯ </text><text x="37.6" y="107.8" textLength="421.2" lengthAdjust="spacingAndGlyphs" class="d">// Font is embedded - works everywhere!</text></symbol></defs><style>@keyframes f{0.20%{transform:translateX(0px)}0.90%{transform:translateX(-600px)}1.59%{transform:translateX(-1200px)}2.25%{transform:translateX(-1800px)}2.93%{transform:translateX(-2400px)}3.62%{transform:translateX(-3000px)}4.32%{transform:translateX(-3600px)}5.01%{transform:translateX(-4200px)}5.71%{transform:translateX(-4800px)}6.35%{transform:translateX(-5400px)}7.04%{transform:translateX(-6000px)}7.71%{transform:translateX(-6600px)}8.36%{transform:translateX(-7200px)}9.02%{transform:translateX(-7800px)}9.72%{transform:translateX(-8400px)}10.40%{transform:translateX(-9000px)}11.10%{transform:translateX(-9600px)}11.76%{transform:translateX(-10200px)}12.42%{transform:translateX(-10800px)}13.12%{transform:translateX(-11400px)}13.79%{transform:translateX(-12000px)}14.45%{transform:translateX(-12600px)}15.18%{transform:translateX(-13200px)}15.83%{transform:translateX(-13800px)}16.51%{transform:translateX(-14400px)}17.20%{transform:translateX(-15000px)}17.85%{transform:translateX(-15600px)}18.51%{transform:translateX(-16200px)}19.19%{transform:translateX(-16800px)}19.84%{transform:translateX(-17400px)}20.52%{transform:translateX(-18000px)}21.25%{transform:translateX(-18600px)}21.93%{transform:translateX(-19200px)}22.60%{transform:translateX(-19800px)}23.26%{transform:translateX(-20400px)}23.94%{transform:translateX(-21000px)}23.95%{transform:translateX(-21600px)}31.92%{transform:translateX(-22200px)}32.25%{transform:translateX(-22800px)}33.63%{transform:translateX(-23400px)}34.35%{transform:translateX(-24000px)}35.01%{transform:translateX(-24600px)}35.71%{transform:translateX(-25200px)}36.38%{transform:translateX(-25800px)}37.07%{transform:translateX(-26400px)}37.77%{transform:translateX(-27000px)}38.44%{transform:translateX(-27600px)}39.11%{transform:translateX(-28200px)}39.82%{transform:translateX(-28800px)}40.48%{transform:translateX(-29400px)}41.14%{transform:translateX(-30000px)}41.85%{transform:translateX(-30600px)}42.55%{transform:translateX(-31200px)}43.21%{transform:translateX(-31800px)}43.90%{transform:translateX(-32400px)}44.60%{transform:translateX(-33000px)}45.27%{transform:translateX(-33600px)}45.96%{transform:translateX(-34200px)}46.61%{transform:translateX(-34800px)}47.28%{transform:translateX(-35400px)}47.95%{transform:translateX(-36000px)}48.65%{transform:translateX(-36600px)}49.34%{transform:translateX(-37200px)}49.97%{transform:translateX(-37800px)}50.63%{transform:translateX(-38400px)}51.32%{transform:translateX(-39000px)}52.01%{transform:translateX(-39600px)}52.72%{transform:translateX(-40200px)}53.42%{transform:translateX(-40800px)}54.08%{transform:translateX(-41400px)}54.78%{transform:translateX(-42000px)}55.44%{transform:translateX(-42600px)}56.16%{transform:translateX(-43200px)}56.83%{transform:translateX(-43800px)}57.53%{transform:translateX(-44400px)}58.18%{transform:translateX(-45000px)}58.86%{transform:translateX(-45600px)}59.54%{transform:translateX(-46200px)}60.22%{transform:translateX(-46800px)}60.24%{transform:translateX(-47400px)}}.a{fill:#282a36}.c{fill:#ff92df;stroke:#ff92df}.d{fill:#f8f8f2;stroke:#f8f8f2}path[fill="none"]{fill:none}path[shape-rendering="crispEdges"]{stroke:none}text{font-family:'SF Mono',Monaco,Consolas,Menlo,monospace;font-size:18px;dominant-baseline:text-before-edge;white-space:pre;}text[class]{stroke:none}.bold{font-weight:700}.italic{font-style:italic}.uline{text-decoration:underline}.strike{text-decoration:line-through}.dim{opacity:0.5}@keyframes blink{0%,50%{opacity:1}50.01%,100%{opacity:0}}.cursor{animation:blink 1s step-end infinite;mix-blend-mode:difference}.cursor-active{opacity:1;mix-blend-mode:difference}</style><g transform="translate(0,0)"><rect width="600" height="250" rx="8" fill="#282a36"/><rect width="600" height="40" rx="8" fill="#282a36"/><path d="M0 32h600v8H0z" fill="#282a36"/><circle cx="16" cy="20" r="6" fill="#ff5f56"/><circle cx="36" cy="20" r="6" fill="#ffbd2e"/><circle cx="56" cy="20" r="6" fill="#27c93f"/><text x="300" y="20" text-anchor="middle" dominant-baseline="middle" fill="#f8f8f2" font-size="18">Embedded Font Demo</text><clipPath id="content-clip"><path d="M0 40h600v210H0z" /></clipPath><g clip-path="url(#content-clip)"><g style="animation:f 7.570s steps(1,end) infinite"><g transform="translate(0,0)"><use xlink:href="#1"/><path d="M37.6 56h10.8v25.2H37.6z" fill="#fff" class="cursor"/></g><g transform="translate(600,0)"><use xlink:href="#2"/><path d="M48.4 56h10.8v25.2H48.4z" fill="#fff" class="cursor-active"/></g><g transform="translate(1200,0)"><use xlink:href="#3"/><path d="M59.2 56h10.8v25.2H59.2z" fill="#fff" class="cursor-active"/></g><g transform="translate(1800,0)"><use xlink:href="#4"/><path d="M70 56h10.8v25.2H70z" fill="#fff" class="cursor-active"/></g><g transform="translate(2400,0)"><use xlink:href="#5"/><path d="M80.8 56h10.8v25.2H80.8z" fill="#fff" class="cursor-active"/></g><g transform="translate(3000,0)"><use xlink:href="#5"/><path d="M91.6 56h10.8v25.2H91.6z" fill="#fff" class="cursor-active"/></g><g transform="translate(3600,0)"><use xlink:href="#6"/><path d="M102.4 56h10.8v25.2H102.4z" fill="#fff" class="cursor-active"/></g><g transform="translate(4200,0)"><use xlink:href="#7"/><path d="M113.2 56h10.8v25.2H113.2z" fill="#fff" class="cursor-active"/></g><g transform="translate(4800,0)"><use xlink:href="#7"/><path d="M124 56h10.8v25.2H124z" fill="#fff" class="cursor-active"/></g><g transform="translate(5400,0)"><use xlink:href="#8"/><path d="M134.8 56h10.8v25.2H134.8z" fill="#fff" class="cursor-active"/></g><g transform="translate(6000,0)"><use xlink:href="#9"/><path d="M145.6 56h10.8v25.2H145.6z" fill="#fff" class="cursor-active"/></g><g transform="translate(6600,0)"><use xlink:href="#10"/><path d="M156.4 56h10.8v25.2H156.4z" fill="#fff" class="cursor-active"/></g><g transform="translate(7200,0)"><use xlink:href="#11"/><path d="M167.2 56h10.8v25.2H167.2z" fill="#fff" class="cursor-active"/></g><g transform="translate(7800,0)"><use xlink:href="#12"/><path d="M178 56h10.8v25.2H178z" fill="#fff" class="cursor-active"/></g><g transform="translate(8400,0)"><use xlink:href="#13"/><path d="M188.8 56h10.8v25.2H188.8z" fill="#fff" class="cursor-active"/></g><g transform="translate(9000,0)"><use xlink:href="#14"/><path d="M199.6 56h10.8v25.2H199.6z" fill="#fff" class="cursor-active"/></g><g transform="translate(9600,0)"><use xlink:href="#15"/><path d="M210.4 56h10.8v25.2H210.4z" fill="#fff" class="cursor-active"/></g><g transform="translate(10200,0)"><use xlink:href="#16"/><path d="M221.2 56h10.8v25.2H221.2z" fill="#fff" class="cursor-active"/></g><g transform="translate(10800,0)"><use xlink:href="#17"/><path d="M232 56h10.8v25.2H232z" fill="#fff" class="cursor-active"/></g><g transform="translate(11400,0)"><use xlink:href="#18"/><path d="M242.8 56h10.8v25.2H242.8z" fill="#fff" class="cursor-active"/></g><g transform="translate(12000,0)"><use xlink:href="#19"/><path d="M253.6 56h10.8v25.2H253.6z" fill="#fff" class="cursor-active"/></g><g transform="translate(12600,0)"><use xlink:href="#20"/><path d="M264.4 56h10.8v25.2H264.4z" fill="#fff" class="cursor-active"/></g><g transform="translate(13200,0)"><use xlink:href="#21"/><path d="M275.2 56h10.8v25.2H275.2z" fill="#fff" class="cursor-active"/></g><g transform="translate(13800,0)"><use xlink:href="#22"/><path d="M286 56h10.8v25.2H286z" fill="#fff" class="cursor-active"/></g><g transform="translate(14400,0)"><use xlink:href="#23"/><path d="M296.8 56h10.8v25.2H296.8z" fill="#fff" class="cursor-active"/></g><g transform="translate(15000,0)"><use xlink:href="#24"/><path d="M307.6 56h10.8v25.2H307.6z" fill="#fff" class="cursor-active"/></g><g transform="translate(15600,0)"><use xlink:href="#25"/><path d="M318.4 56h10.8v25.2H318.4z" fill="#fff" class="cursor-active"/></g><g transform="translate(16200,0)"><use xlink:href="#26"/><path d="M329.2 56h10.8v25.2H329.2z" fill="#fff" class="cursor-active"/></g><g transform="translate(16800,0)"><use xlink:href="#27"/><path d="M340 56h10.8v25.2H340z" fill="#fff" class="cursor-active"/></g><g transform="translate(17400,0)"><use xlink:href="#28"/><path d="M350.8 56h10.8v25.2H350.8z" fill="#fff" class="cursor-active"/></g><g transform="translate(18000,0)"><use xlink:href="#29"/><path d="M361.6 56h10.8v25.2H361.6z" fill="#fff" class="cursor-active"/></g><g transform="translate(18600,0)"><use xlink:href="#30"/><path d="M372.4 56h10.8v25.2H372.4z" fill="#fff" class="cursor-active"/></g><g transform="translate(19200,0)"><use xlink:href="#31"/><path d="M383.2 56h10.8v25.2H383.2z" fill="#fff" class="cursor-active"/></g><g transform="translate(19800,0)"><use xlink:href="#32"/><path d="M394 56h10.8v25.2H394z" fill="#fff" class="cursor-active"/></g><g transform="translate(20400,0)"><use xlink:href="#33"/><path d="M404.8 56h10.8v25.2H404.8z" fill="#fff" class="cursor-active"/></g><g transform="translate(21000,0)"><use xlink:href="#34"/><path d="M415.6 56h10.8v25.2H415.6z" fill="#fff" class="cursor-active"/></g><g transform="translate(21600,0)"><use xlink:href="#34"/><path d="M415.6 56h10.8v25.2H415.6z" fill="#fff" class="cursor"/></g><g transform="translate(22200,0)"><use xlink:href="#34"/></g><g transform="translate(22800,0)"><use xlink:href="#34"/><use xlink:href="#35"/></g><g transform="translate(23400,0)"><use xlink:href="#34"/><use xlink:href="#35"/><use xlink:href="#36"/><path d="M37.6 106.4h10.8v25.2H37.6z" fill="#fff" class="cursor"/></g><g transform="translate(24000,0)"><use xlink:href="#34"/><use xlink:href="#35"/><use xlink:href="#37"/><path d="M48.4 106.4h10.8v25.2H48.4z" fill="#fff" class="cursor-active"/></g><g transform="translate(24600,0)"><use xlink:href="#34"/><use xlink:href="#35"/><use xlink:href="#38"/><path d="M59.2 106.4h10.8v25.2H59.2z" fill="#fff" class="cursor-active"/></g><g transform="translate(25200,0)"><use xlink:href="#34"/><use xlink:href="#35"/><use xlink:href="#38"/><path d="M70 106.4h10.8v25.2H70z" fill="#fff" class="cursor-active"/></g><g transform="translate(25800,0)"><use xlink:href="#34"/><use xlink:href="#35"/><use xlink:href="#39"/><path d="M80.8 106.4h10.8v25.2H80.8z" fill="#fff" class="cursor-active"/></g><g transform="translate(26400,0)"><use xlink:href="#34"/><use xlink:href="#35"/><use xlink:href="#40"/><path d="M91.6 106.4h10.8v25.2H91.6z" fill="#fff" class="cursor-active"/></g><g transform="translate(27000,0)"><use xlink:href="#34"/><use xlink:href="#35"/><use xlink:href="#41"/><path d="M102.4 106.4h10.8v25.2H102.4z" fill="#fff" class="cursor-active"/></g><g transform="translate(27600,0)"><use xlink:href="#34"/><use xlink:href="#35"/><use xlink:href="#42"/><path d="M113.2 106.4h10.8v25.2H113.2z" fill="#fff" class="cursor-active"/></g><g transform="translate(28200,0)"><use xlink:href="#34"/><use xlink:href="#35"/><use xlink:href="#42"/><path d="M124 106.4h10.8v25.2H124z" fill="#fff" class="cursor-active"/></g><g transform="translate(28800,0)"><use xlink:href="#34"/><use xlink:href="#35"/><use xlink:href="#43"/><path d="M134.8 106.4h10.8v25.2H134.8z" fill="#fff" class="cursor-active"/></g><g transform="translate(29400,0)"><use xlink:href="#34"/><use xlink:href="#35"/><use xlink:href="#44"/><path d="M145.6 106.4h10.8v25.2H145.6z" fill="#fff" class="cursor-active"/></g><g transform="translate(30000,0)"><use xlink:href="#34"/><use xlink:href="#35"/><use xlink:href="#44"/><path d="M156.4 106.4h10.8v25.2H156.4z" fill="#fff" class="cursor-active"/></g><g transform="translate(30600,0)"><use xlink:href="#34"/><use xlink:href="#35"/><use xlink:href="#45"/><path d="M167.2 106.4h10.8v25.2H167.2z" fill="#fff" class="cursor-active"/></g><g transform="translate(31200,0)"><use xlink:href="#34"/><use xlink:href="#35"/><use xlink:href="#46"/><path d="M178 106.4h10.8v25.2H178z" fill="#fff" class="cursor-active"/></g><g transform="translate(31800,0)"><use xlink:href="#34"/><use xlink:href="#35"/><use xlink:href="#47"/><path d="M188.8 106.4h10.8v25.2H188.8z" fill="#fff" class="cursor-active"/></g><g transform="translate(32400,0)"><use xlink:href="#34"/><use xlink:href="#35"/><use xlink:href="#48"/><path d="M199.6 106.4h10.8v25.2H199.6z" fill="#fff" class="cursor-active"/></g><g transform="translate(33000,0)"><use xlink:href="#34"/><use xlink:href="#35"/><use xlink:href="#49"/><path d="M210.4 106.4h10.8v25.2H210.4z" fill="#fff" class="cursor-active"/></g><g transform="translate(33600,0)"><use xlink:href="#34"/><use xlink:href="#35"/><use xlink:href="#50"/><path d="M221.2 106.4h10.8v25.2H221.2z" fill="#fff" class="cursor-active"/></g><g transform="translate(34200,0)"><use xlink:href="#34"/><use xlink:href="#35"/><use xlink:href="#51"/><path d="M232 106.4h10.8v25.2H232z" fill="#fff" class="cursor-active"/></g><g transform="translate(34800,0)"><use xlink:href="#34"/><use xlink:href="#35"/><use xlink:href="#52"/><path d="M242.8 106.4h10.8v25.2H242.8z" fill="#fff" class="cursor-active"/></g><g transform="translate(35400,0)"><use xlink:href="#34"/><use xlink:href="#35"/><use xlink:href="#52"/><path d="M253.6 106.4h10.8v25.2H253.6z" fill="#fff" class="cursor-active"/></g><g transform="translate(36000,0)"><use xlink:href="#34"/><use xlink:href="#35"/><use xlink:href="#53"/><path d="M264.4 106.4h10.8v25.2H264.4z" fill="#fff" class="cursor-active"/></g><g transform="translate(36600,0)"><use xlink:href="#34"/><use xlink:href="#35"/><use xlink:href="#53"/><path d="M275.2 106.4h10.8v25.2H275.2z" fill="#fff" class="cursor-active"/></g><g transform="translate(37200,0)"><use xlink:href="#34"/><use xlink:href="#35"/><use xlink:href="#54"/><path d="M286 106.4h10.8v25.2H286z" fill="#fff" class="cursor-active"/></g><g transform="translate(37800,0)"><use xlink:href="#34"/><use xlink:href="#35"/><use xlink:href="#55"/><path d="M296.8 106.4h10.8v25.2H296.8z" fill="#fff" class="cursor-active"/></g><g transform="translate(38400,0)"><use xlink:href="#34"/><use xlink:href="#35"/><use xlink:href="#56"/><path d="M307.6 106.4h10.8v25.2H307.6z" fill="#fff" class="cursor-active"/></g><g transform="translate(39000,0)"><use xlink:href="#34"/><use xlink:href="#35"/><use xlink:href="#57"/><path d="M318.4 106.4h10.8v25.2H318.4z" fill="#fff" class="cursor-active"/></g><g transform="translate(39600,0)"><use xlink:href="#34"/><use xlink:href="#35"/><use xlink:href="#58"/><path d="M329.2 106.4h10.8v25.2H329.2z" fill="#fff" class="cursor-active"/></g><g transform="translate(40200,0)"><use xlink:href="#34"/><use xlink:href="#35"/><use xlink:href="#58"/><path d="M340 106.4h10.8v25.2H340z" fill="#fff" class="cursor-active"/></g><g transform="translate(40800,0)"><use xlink:href="#34"/><use xlink:href="#35"/><use xlink:href="#59"/><path d="M350.8 106.4h10.8v25.2H350.8z" fill="#fff" class="cursor-active"/></g><g transform="translate(41400,0)"><use xlink:href="#34"/><use xlink:href="#35"/><use xlink:href="#60"/><path d="M361.6 106.4h10.8v25.2H361.6z" fill="#fff" class="cursor-active"/></g><g transform="translate(42000,0)"><use xlink:href="#34"/><use xlink:href="#35"/><use xlink:href="#61"/><path d="M372.4 106.4h10.8v25.2H372.4z" fill="#fff" class="cursor-active"/></g><g transform="translate(42600,0)"><use xlink:href="#34"/><use xlink:href="#35"/><use xlink:href="#62"/><path d="M383.2 106.4h10.8v25.2H383.2z" fill="#fff" class="cursor-active"/></g><g transform="translate(43200,0)"><use xlink:href="#34"/><use xlink:href="#35"/><use xlink:href="#63"/><path d="M394 106.4h10.8v25.2H394z" fill="#fff" class="cursor-active"/></g><g transform="translate(43800,0)"><use xlink:href="#34"/><use xlink:href="#35"/><use xlink:href="#64"/><path d="M404.8 106.4h10.8v25.2H404.8z" fill="#fff" class="cursor-active"/></g><g transform="translate(44400,0)"><use xlink:href="#34"/><use xlink:href="#35"/><use xlink:href="#65"/><path d="M415.6 106.4h10.8v25.2H415.6z" fill="#fff" class="cursor-active"/></g><g transform="translate(45000,0)"><use xlink:href="#34"/><use xlink:href="#35"/><use xlink:href="#66"/><path d="M426.4 106.4h10.8v25.2H426.4z" fill="#fff" class="cursor-active"/></g><g transform="translate(45600,0)"><use xlink:href="#34"/><use xlink:href="#35"/><use xlink:href="#67"/><path d="M437.2 106.4h10.8v25.2H437.2z" fill="#fff" class="cursor-active"/></g><g transform="translate(46200,0)"><use xlink:href="#34"/><use xlink:href="#35"/><use xlink:href="#68"/><path d="M448 106.4h10.8v25.2H448z" fill="#fff" class="cursor-active"/></g><g transform="translate(46800,0)"><use xlink:href="#34"/><use xlink:href="#35"/><use xlink:href="#69"/><path d="M458.8 106.4h10.8v25.2H458.8z" fill="#fff" class="cursor-active"/></g><g transform="translate(47400,0)"><use xlink:href="#34"/><use xlink:href="#35"/><use xlink:href="#69"/><path d="M458.8 106.4h10.8v25.2H458.8z" fill="#fff" class="cursor"/></g></g></g></g></svg>