<svg xmlns="http://www.w3.org/2000/svg" xmlns:xlink="http://www.w3.org/1999/xlink" width="212" height="54" viewBox="0 0 212 54"><defs><symbol id="1"><text x="16" y="16.8" textLength="6" lengthAdjust="spacingAndGlyphs" class="c">➜</text></symbol><symbol id="2"><text x="16" y="16.8" textLength="6" lengthAdjust="spacingAndGlyphs" class="c">➜</text><text x="22" y="16.8" textLength="12" lengthAdjust="spacingAndGlyphs" class="d"> T</text></symbol><symbol id="3"><text x="16" y="16.8" textLength="6" lengthAdjust="spacingAndGlyphs" class="c">➜</text><text x="22" y="16.8" textLength="18" lengthAdjust="spacingAndGlyphs" class="d"> Th</text></symbol><symbol id="4"><text x="16" y="16.8" textLength="6" lengthAdjust="spacingAndGlyphs" class="c">➜</text><text x="22" y="16.8" textLength="24" lengthAdjust="spacingAndGlyphs" class="d"> The</text></symbol><symbol id="5"><text x="16" y="16.8" textLength="6" lengthAdjust="spacingAndGlyphs" class="c">➜</text><text x="22" y="16.8" textLength="36" lengthAdjust="spacingAndGlyphs" class="d"> The f</text></symbol><symbol id="6"><text x="16" y="16.8" textLength="6" lengthAdjust="spacingAndGlyphs" class="c">➜</text><text x="22" y="16.8" textLength="42" lengthAdjust="spacingAndGlyphs" class="d"> The fo</text></symbol><symbol id="7"><text x="16" y="16.8" textLength="6" lengthAdjust="spacingAndGlyphs" class="c">➜</text><text x="22" y="16.8" textLength="48" lengthAdjust="spacingAndGlyphs" class="d"> The fon</text></symbol><symbol id="8"><text x="16" y="16.8" textLength="6" lengthAdjust="spacingAndGlyphs" class="c">➜</text><text x="22" y="16.8" textLength="54" lengthAdjust="spacingAndGlyphs" class="d"> The font</text></symbol><symbol id="9"><text x="16" y="16.8" textLength="6" lengthAdjust="spacingAndGlyphs" class="c">➜</text><text x="22" y="16.8" textLength="66" lengthAdjust="spacingAndGlyphs" class="d"> The font i</text></symbol><symbol id="10"><text x="16" y="16.8" textLength="6" lengthAdjust="spacingAndGlyphs" class="c">➜</text><text x="22" y="16.8" textLength="72" lengthAdjust="spacingAndGlyphs" class="d"> The font is</text></symbol><symbol id="11"><text x="16" y="16.8" textLength="6" lengthAdjust="spacingAndGlyphs" class="c">➜</text><text x="22" y="16.8" textLength="84" lengthAdjust="spacingAndGlyphs" class="d"> The font is t</text></symbol><symbol id="12"><text x="16" y="16.8" textLength="6" lengthAdjust="spacingAndGlyphs" class="c">➜</text><text x="22" y="16.8" textLength="90" lengthAdjust="spacingAndGlyphs" class="d"> The font is th</text></symbol><symbol id="13"><text x="16" y="16.8" textLength="6" lengthAdjust="spacingAndGlyphs" class="c">➜</text><text x="22" y="16.8" textLength="96" lengthAdjust="spacingAndGlyphs" class="d"> The font is thi</text></symbol><symbol id="14"><text x="16" y="16.8" textLength="6" lengthAdjust="spacingAndGlyphs" class="c">➜</text><text x="22" y="16.8" textLength="102" lengthAdjust="spacingAndGlyphs" class="d"> The font is this</text></symbol><symbol id="15"><text x="16" y="16.8" textLength="6" lengthAdjust="spacingAndGlyphs" class="c">➜</text><text x="22" y="16.8" textLength="114" lengthAdjust="spacingAndGlyphs" class="d"> The font is this b</text></symbol><symbol id="16"><text x="16" y="16.8" textLength="6" lengthAdjust="spacingAndGlyphs" class="c">➜</text><text x="22" y="16.8" textLength="120" lengthAdjust="spacingAndGlyphs" class="d"> The font is this bi</text></symbol><symbol id="17"><text x="16" y="16.8" textLength="6" lengthAdjust="spacingAndGlyphs" class="c">➜</text><text x="22" y="16.8" textLength="126" lengthAdjust="spacingAndGlyphs" class="d"> The font is this big</text></symbol><symbol id="18"><text x="16" y="16.8" textLength="6" lengthAdjust="spacingAndGlyphs" class="c">➜</text><text x="22" y="16.8" textLength="132" lengthAdjust="spacingAndGlyphs" class="d"> The font is this big!</text></symbol><symbol id="19"><text x="16" y="16.8" textLength="6" lengthAdjust="spacingAndGlyphs" class="c">➜</text><text x="22" y="16.8" textLength="144" lengthAdjust="spacingAndGlyphs" class="d"> The font is this big! s</text></symbol><symbol id="20"><text x="16" y="16.8" textLength="6" lengthAdjust="spacingAndGlyphs" class="c">➜</text><text x="22" y="16.8" textLength="150" lengthAdjust="spacingAndGlyphs" class="d"> The font is this big! se</text></symbol><symbol id="21"><text x="16" y="16.8" textLength="6" lengthAdjust="spacingAndGlyphs" class="c">➜</text><text x="22" y="16.8" textLength="156" lengthAdjust="spacingAndGlyphs" class="d"> The font is this big! see</text></symbol><symbol id="22"><text x="16" y="16.8" textLength="6" lengthAdjust="spacingAndGlyphs" class="c">➜</text><text x="22" y="16.8" textLength="168" lengthAdjust="spacingAndGlyphs" class="d"> The font is this big! see ?</text></symbol></defs><style>@keyframes f{0.17%{transform:translateX(0px)}1.14%{transform:translateX(-212px)}2.13%{transform:translateX(-424px)}3.05%{transform:translateX(-636px)}4.05%{transform:translateX(-848px)}4.99%{transform:translateX(-1060px)}5.94%{transform:translateX(-1272px)}6.94%{transform:translateX(-1484px)}7.84%{transform:translateX(-1696px)}8.83%{transform:translateX(-1908px)}9.77%{transform:translateX(-2120px)}10.71%{transform:translateX(-2332px)}11.72%{transform:translateX(-2544px)}12.62%{transform:translateX(-2756px)}13.60%{transform:translateX(-2968px)}14.61%{transform:translateX(-3180px)}15.53%{transform:translateX(-3392px)}16.49%{transform:translateX(-3604px)}17.50%{transform:translateX(-3816px)}18.49%{transform:translateX(-4028px)}19.41%{transform:translateX(-4240px)}20.45%{transform:translateX(-4452px)}21.35%{transform:translateX(-4664px)}22.23%{transform:translateX(-4876px)}23.22%{transform:translateX(-5088px)}24.18%{transform:translateX(-5300px)}25.17%{transform:translateX(-5512px)}26.13%{transform:translateX(-5724px)}26.15%{transform:translateX(-5936px)}}.a{fill:#1e1e1e}.c{fill:#3fb950;stroke:#3fb950}.d{fill:#c9d1d9;stroke:#c9d1d9}path[fill="none"]{fill:none}path[shape-rendering="crispEdges"]{stroke:none}text{font-family:'SF Mono',Monaco,Consolas,Menlo,monospace;font-size:10px;dominant-baseline:text-before-edge;white-space:pre;}text[class]{stroke:none}.bold{font-weight:700}.italic{font-style:italic}.uline{text-decoration:underline}.strike{text-decoration:line-through}.dim{opacity:0.5}@keyframes blink{0%,50%{opacity:1}50.01%,100%{opacity:0}}.cursor{animation:blink 1s step-end infinite;mix-blend-mode:difference}.cursor-active{opacity:1;mix-blend-mode:difference}</style><g transform="translate(0,0)"><rect width="212" height="54" rx="8" fill="#1e1e1e"/><clipPath id="content-clip"><path d="M0 0h212v54H0z" /></clipPath><g clip-path="url(#content-clip)"><g style="animation:f 5.434s steps(1,end) infinite"><g transform="translate(0,0)"><use xlink:href="#1"/><path d="M28 16h6v14H28z" fill="#fff" class="cursor"/></g><g transform="translate(212,0)"><use xlink:href="#2"/><path d="M34 16h6v14H34z" fill="#fff" class="cursor-active"/></g><g transform="translate(424,0)"><use xlink:href="#3"/><path d="M40 16h6v14H40z" fill="#fff" class="cursor-active"/></g><g transform="translate(636,0)"><use xlink:href="#4"/><path d="M46 16h6v14H46z" fill="#fff" class="cursor-active"/></g><g transform="translate(848,0)"><use xlink:href="#4"/><path d="M52 16h6v14H52z" fill="#fff" class="cursor-active"/></g><g transform="translate(1060,0)"><use xlink:href="#5"/><path d="M58 16h6v14H58z" fill="#fff" class="cursor-active"/></g><g transform="translate(1272,0)"><use xlink:href="#6"/><path d="M64 16h6v14H64z" fill="#fff" class="cursor-active"/></g><g transform="translate(1484,0)"><use xlink:href="#7"/><path d="M70 16h6v14H70z" fill="#fff" class="cursor-active"/></g><g transform="translate(1696,0)"><use xlink:href="#8"/><path d="M76 16h6v14H76z" fill="#fff" class="cursor-active"/></g><g transform="translate(1908,0)"><use xlink:href="#8"/><path d="M82 16h6v14H82z" fill="#fff" class="cursor-active"/></g><g transform="translate(2120,0)"><use xlink:href="#9"/><path d="M88 16h6v14H88z" fill="#fff" class="cursor-active"/></g><g transform="translate(2332,0)"><use xlink:href="#10"/><path d="M94 16h6v14H94z" fill="#fff" class="cursor-active"/></g><g transform="translate(2544,0)"><use xlink:href="#10"/><path d="M100 16h6v14H100z" fill="#fff" class="cursor-active"/></g><g transform="translate(2756,0)"><use xlink:href="#11"/><path d="M106 16h6v14H106z" fill="#fff" class="cursor-active"/></g><g transform="translate(2968,0)"><use xlink:href="#12"/><path d="M112 16h6v14H112z" fill="#fff" class="cursor-active"/></g><g transform="translate(3180,0)"><use xlink:href="#13"/><path d="M118 16h6v14H118z" fill="#fff" class="cursor-active"/></g><g transform="translate(3392,0)"><use xlink:href="#14"/><path d="M124 16h6v14H124z" fill="#fff" class="cursor-active"/></g><g transform="translate(3604,0)"><use xlink:href="#14"/><path d="M130 16h6v14H130z" fill="#fff" class="cursor-active"/></g><g transform="translate(3816,0)"><use xlink:href="#15"/><path d="M136 16h6v14H136z" fill="#fff" class="cursor-active"/></g><g transform="translate(4028,0)"><use xlink:href="#16"/><path d="M142 16h6v14H142z" fill="#fff" class="cursor-active"/></g><g transform="translate(4240,0)"><use xlink:href="#17"/><path d="M148 16h6v14H148z" fill="#fff" class="cursor-active"/></g><g transform="translate(4452,0)"><use xlink:href="#18"/><path d="M154 16h6v14H154z" fill="#fff" class="cursor-active"/></g><g transform="translate(4664,0)"><use xlink:href="#18"/><path d="M160 16h6v14H160z" fill="#fff" class="cursor-active"/></g><g transform="translate(4876,0)"><use xlink:href="#19"/><path d="M166 16h6v14H166z" fill="#fff" class="cursor-active"/></g><g transform="translate(5088,0)"><use xlink:href="#20"/><path d="M172 16h6v14H172z" fill="#fff" class="cursor-active"/></g><g transform="translate(5300,0)"><use xlink:href="#21"/><path d="M178 16h6v14H178z" fill="#fff" class="cursor-active"/></g><g transform="translate(5512,0)"><use xlink:href="#21"/><path d="M184 16h6v14H184z" fill="#fff" class="cursor-active"/></g><g transform="translate(5724,0)"><use xlink:href="#22"/><path d="M190 16h6v14H190z" fill="#fff" class="cursor-active"/></g><g transform="translate(5936,0)"><use xlink:href="#22"/><path d="M190 16h6v14H190z" fill="#fff" class="cursor"/></g></g></g></g></svg>