<svg xmlns="http://www.w3.org/2000/svg" xmlns:xlink="http://www.w3.org/1999/xlink" width="392" height="68" viewBox="0 0 392 68"><defs><symbol id="1"><text x="16" y="17.6" class="c">➜</text></symbol><symbol id="2"><text x="16" y="17.6" class="c">➜</text><text x="28" y="17.6" class="d"> T</text></symbol><symbol id="3"><text x="16" y="17.6" class="c">➜</text><text x="28" y="17.6" class="d"> Th</text></symbol><symbol id="4"><text x="16" y="17.6" class="c">➜</text><text x="28" y="17.6" class="d"> The</text></symbol><symbol id="5"><text x="16" y="17.6" class="c">➜</text><text x="28" y="17.6" class="d"> The f</text></symbol><symbol id="6"><text x="16" y="17.6" class="c">➜</text><text x="28" y="17.6" class="d"> The fo</text></symbol><symbol id="7"><text x="16" y="17.6" class="c">➜</text><text x="28" y="17.6" class="d"> The fon</text></symbol><symbol id="8"><text x="16" y="17.6" class="c">➜</text><text x="28" y="17.6" class="d"> The font</text></symbol><symbol id="9"><text x="16" y="17.6" class="c">➜</text><text x="28" y="17.6" class="d"> The font i</text></symbol><symbol id="10"><text x="16" y="17.6" class="c">➜</text><text x="28" y="17.6" class="d"> The font is</text></symbol><symbol id="11"><text x="16" y="17.6" class="c">➜</text><text x="28" y="17.6" class="d"> The font is t</text></symbol><symbol id="12"><text x="16" y="17.6" class="c">➜</text><text x="28" y="17.6" class="d"> The font is th</text></symbol><symbol id="13"><text x="16" y="17.6" class="c">➜</text><text x="28" y="17.6" class="d"> The font is thi</text></symbol><symbol id="14"><text x="16" y="17.6" class="c">➜</text><text x="28" y="17.6" class="d"> The font is this</text></symbol><symbol id="15"><text x="16" y="17.6" class="c">➜</text><text x="28" y="17.6" class="d"> The font is this b</text></symbol><symbol id="16"><text x="16" y="17.6" class="c">➜</text><text x="28" y="17.6" class="d"> The font is this bi</text></symbol><symbol id="17"><text x="16" y="17.6" class="c">➜</text><text x="28" y="17.6" class="d"> The font is this big</text></symbol><symbol id="18"><text x="16" y="17.6" class="c">➜</text><text x="28" y="17.6" class="d"> The font is this big!</text></symbol><symbol id="19"><text x="16" y="17.6" class="c">➜</text><text x="28" y="17.6" class="d"> The font is this big! s</text></symbol><symbol id="20"><text x="16" y="17.6" class="c">➜</text><text x="28" y="17.6" class="d"> The font is this big! se</text></symbol><symbol id="21"><text x="16" y="17.6" class="c">➜</text><text x="28" y="17.6" class="d"> The font is this big! see</text></symbol><symbol id="22"><text x="16" y="17.6" class="c">➜</text><text x="28" y="17.6" class="d"> The font is this big! see ?</text></symbol></defs><style>@keyframes f{0.15%{transform:translateX(0px)}1.11%{transform:translateX(-392px)}2.04%{transform:translateX(-784px)}2.98%{transform:translateX(-1176px)}3.95%{transform:translateX(-1568px)}4.91%{transform:translateX(-1960px)}5.87%{transform:translateX(-2352px)}6.85%{transform:translateX(-2744px)}7.82%{transform:translateX(-3136px)}8.76%{transform:translateX(-3528px)}9.71%{transform:translateX(-3920px)}10.67%{transform:translateX(-4312px)}11.63%{transform:translateX(-4704px)}12.58%{transform:translateX(-5096px)}13.50%{transform:translateX(-5488px)}14.45%{transform:translateX(-5880px)}15.37%{transform:translateX(-6272px)}16.32%{transform:translateX(-6664px)}17.26%{transform:translateX(-7056px)}18.21%{transform:translateX(-7448px)}19.15%{transform:translateX(-7840px)}20.10%{transform:translateX(-8232px)}21.08%{transform:translateX(-8624px)}22.00%{transform:translateX(-9016px)}22.99%{transform:translateX(-9408px)}23.93%{transform:translateX(-9800px)}24.86%{transform:translateX(-10192px)}25.82%{transform:translateX(-10584px)}25.84%{transform:translateX(-10976px)}}.a{fill:#1e1e1e}.c{fill:#3fb950;stroke:#3fb950}.d{fill:#c9d1d9;stroke:#c9d1d9}path[fill="none"]{fill:none}path[shape-rendering="crispEdges"]{stroke:none}text{font-family:'SF Mono',Monaco,Consolas,Menlo,monospace;font-size:20px;dominant-baseline:text-before-edge;white-space:pre}text[class]{stroke:none}.bold{font-weight:700}.italic{font-style:italic}.uline{text-decoration:underline}.strike{text-decoration:line-through}.dim{opacity:0.5}@keyframes blink{0%,50%{opacity:1}50.01%,100%{opacity:0}}.cursor{animation:blink 1s step-end infinite;mix-blend-mode:difference}.cursor-active{opacity:1;mix-blend-mode:difference}</style><g transform="translate(0,0)"><rect width="392" height="68" rx="8" fill="#1e1e1e"/><clipPath id="content-clip"><path d="M0 0h392v68H0z" /></clipPath><g clip-path="url(#content-clip)"><g style="animation:f 5.399s steps(1,end) infinite"><g transform="translate(0,0)"><use xlink:href="#1"/><path d="M40 16h12v28H40z" fill="#fff" class="cursor"/></g><g transform="translate(392,0)"><use xlink:href="#2"/><path d="M52 16h12v28H52z" fill="#fff" class="cursor-active"/></g><g transform="translate(784,0)"><use xlink:href="#3"/><path d="M64 16h12v28H64z" fill="#fff" class="cursor-active"/></g><g transform="translate(1176,0)"><use xlink:href="#4"/><path d="M76 16h12v28H76z" fill="#fff" class="cursor-active"/></g><g transform="translate(1568,0)"><use xlink:href="#4"/><path d="M88 16h12v28H88z" fill="#fff" class="cursor-active"/></g><g transform="translate(1960,0)"><use xlink:href="#5"/><path d="M100 16h12v28H100z" fill="#fff" class="cursor-active"/></g><g transform="translate(2352,0)"><use xlink:href="#6"/><path d="M112 16h12v28H112z" fill="#fff" class="cursor-active"/></g><g transform="translate(2744,0)"><use xlink:href="#7"/><path d="M124 16h12v28H124z" fill="#fff" class="cursor-active"/></g><g transform="translate(3136,0)"><use xlink:href="#8"/><path d="M136 16h12v28H136z" fill="#fff" class="cursor-active"/></g><g transform="translate(3528,0)"><use xlink:href="#8"/><path d="M148 16h12v28H148z" fill="#fff" class="cursor-active"/></g><g transform="translate(3920,0)"><use xlink:href="#9"/><path d="M160 16h12v28H160z" fill="#fff" class="cursor-active"/></g><g transform="translate(4312,0)"><use xlink:href="#10"/><path d="M172 16h12v28H172z" fill="#fff" class="cursor-active"/></g><g transform="translate(4704,0)"><use xlink:href="#10"/><path d="M184 16h12v28H184z" fill="#fff" class="cursor-active"/></g><g transform="translate(5096,0)"><use xlink:href="#11"/><path d="M196 16h12v28H196z" fill="#fff" class="cursor-active"/></g><g transform="translate(5488,0)"><use xlink:href="#12"/><path d="M208 16h12v28H208z" fill="#fff" class="cursor-active"/></g><g transform="translate(5880,0)"><use xlink:href="#13"/><path d="M220 16h12v28H220z" fill="#fff" class="cursor-active"/></g><g transform="translate(6272,0)"><use xlink:href="#14"/><path d="M232 16h12v28H232z" fill="#fff" class="cursor-active"/></g><g transform="translate(6664,0)"><use xlink:href="#14"/><path d="M244 16h12v28H244z" fill="#fff" class="cursor-active"/></g><g transform="translate(7056,0)"><use xlink:href="#15"/><path d="M256 16h12v28H256z" fill="#fff" class="cursor-active"/></g><g transform="translate(7448,0)"><use xlink:href="#16"/><path d="M268 16h12v28H268z" fill="#fff" class="cursor-active"/></g><g transform="translate(7840,0)"><use xlink:href="#17"/><path d="M280 16h12v28H280z" fill="#fff" class="cursor-active"/></g><g transform="translate(8232,0)"><use xlink:href="#18"/><path d="M292 16h12v28H292z" fill="#fff" class="cursor-active"/></g><g transform="translate(8624,0)"><use xlink:href="#18"/><path d="M304 16h12v28H304z" fill="#fff" class="cursor-active"/></g><g transform="translate(9016,0)"><use xlink:href="#19"/><path d="M316 16h12v28H316z" fill="#fff" class="cursor-active"/></g><g transform="translate(9408,0)"><use xlink:href="#20"/><path d="M328 16h12v28H328z" fill="#fff" class="cursor-active"/></g><g transform="translate(9800,0)"><use xlink:href="#21"/><path d="M340 16h12v28H340z" fill="#fff" class="cursor-active"/></g><g transform="translate(10192,0)"><use xlink:href="#21"/><path d="M352 16h12v28H352z" fill="#fff" class="cursor-active"/></g><g transform="translate(10584,0)"><use xlink:href="#22"/><path d="M364 16h12v28H364z" fill="#fff" class="cursor-active"/></g><g transform="translate(10976,0)"><use xlink:href="#22"/><path d="M364 16h12v28H364z" fill="#fff" class="cursor"/></g></g></g></g></svg>