<svg xmlns="http://www.w3.org/2000/svg" xmlns:xlink="http://www.w3.org/1999/xlink" width="752" height="96" viewBox="0 0 752 96"><defs><symbol id="1"><text x="16" y="19.2" class="c">➜</text></symbol><symbol id="2"><text x="16" y="19.2" class="c">➜</text><text x="40" y="19.2" class="d"> T</text></symbol><symbol id="3"><text x="16" y="19.2" class="c">➜</text><text x="40" y="19.2" class="d"> Th</text></symbol><symbol id="4"><text x="16" y="19.2" class="c">➜</text><text x="40" y="19.2" class="d"> The</text></symbol><symbol id="5"><text x="16" y="19.2" class="c">➜</text><text x="40" y="19.2" class="d"> The f</text></symbol><symbol id="6"><text x="16" y="19.2" class="c">➜</text><text x="40" y="19.2" class="d"> The fo</text></symbol><symbol id="7"><text x="16" y="19.2" class="c">➜</text><text x="40" y="19.2" class="d"> The fon</text></symbol><symbol id="8"><text x="16" y="19.2" class="c">➜</text><text x="40" y="19.2" class="d"> The font</text></symbol><symbol id="9"><text x="16" y="19.2" class="c">➜</text><text x="40" y="19.2" class="d"> The font i</text></symbol><symbol id="10"><text x="16" y="19.2" class="c">➜</text><text x="40" y="19.2" class="d"> The font is</text></symbol><symbol id="11"><text x="16" y="19.2" class="c">➜</text><text x="40" y="19.2" class="d"> The font is t</text></symbol><symbol id="12"><text x="16" y="19.2" class="c">➜</text><text x="40" y="19.2" class="d"> The font is th</text></symbol><symbol id="13"><text x="16" y="19.2" class="c">➜</text><text x="40" y="19.2" class="d"> The font is thi</text></symbol><symbol id="14"><text x="16" y="19.2" class="c">➜</text><text x="40" y="19.2" class="d"> The font is this</text></symbol><symbol id="15"><text x="16" y="19.2" class="c">➜</text><text x="40" y="19.2" class="d"> The font is this b</text></symbol><symbol id="16"><text x="16" y="19.2" class="c">➜</text><text x="40" y="19.2" class="d"> The font is this bi</text></symbol><symbol id="17"><text x="16" y="19.2" class="c">➜</text><text x="40" y="19.2" class="d"> The font is this big</text></symbol><symbol id="18"><text x="16" y="19.2" class="c">➜</text><text x="40" y="19.2" class="d"> The font is this big!</text></symbol><symbol id="19"><text x="16" y="19.2" class="c">➜</text><text x="40" y="19.2" class="d"> The font is this big! s</text></symbol><symbol id="20"><text x="16" y="19.2" class="c">➜</text><text x="40" y="19.2" class="d"> The font is this big! se</text></symbol><symbol id="21"><text x="16" y="19.2" class="c">➜</text><text x="40" y="19.2" class="d"> The font is this big! see</text></symbol><symbol id="22"><text x="16" y="19.2" class="c">➜</text><text x="40" y="19.2" class="d"> The font is this big! see ?</text></symbol></defs><style>@keyframes f{0.15%{transform:translateX(0px)}1.11%{transform:translateX(-752px)}2.08%{transform:translateX(-1504px)}3.02%{transform:translateX(-2256px)}3.98%{transform:translateX(-3008px)}4.95%{transform:translateX(-3760px)}5.87%{transform:translateX(-4512px)}6.86%{transform:translateX(-5264px)}7.80%{transform:translateX(-6016px)}8.73%{transform:translateX(-6768px)}9.69%{transform:translateX(-7520px)}10.65%{transform:translateX(-8272px)}11.62%{transform:translateX(-9024px)}12.56%{transform:translateX(-9776px)}13.49%{transform:translateX(-10528px)}14.43%{transform:translateX(-11280px)}15.36%{transform:translateX(-12032px)}16.32%{transform:translateX(-12784px)}17.27%{transform:translateX(-13536px)}18.23%{transform:translateX(-14288px)}19.16%{transform:translateX(-15040px)}20.12%{transform:translateX(-15792px)}21.07%{transform:translateX(-16544px)}22.01%{transform:translateX(-17296px)}22.94%{transform:translateX(-18048px)}23.90%{transform:translateX(-18800px)}24.87%{transform:translateX(-19552px)}25.81%{transform:translateX(-20304px)}25.83%{transform:translateX(-21056px)}}.a{fill:#1e1e1e}.c{fill:#3fb950;stroke:#3fb950}.d{fill:#c9d1d9;stroke:#c9d1d9}path[fill="none"]{fill:none}path[shape-rendering="crispEdges"]{stroke:none}text{font-family:'SF Mono',Monaco,Consolas,Menlo,monospace;font-size:40px;dominant-baseline:text-before-edge;white-space:pre;}text[class]{stroke:none}.bold{font-weight:700}.italic{font-style:italic}.uline{text-decoration:underline}.strike{text-decoration:line-through}.dim{opacity:0.5}@keyframes blink{0%,50%{opacity:1}50.01%,100%{opacity:0}}.cursor{animation:blink 1s step-end infinite;mix-blend-mode:difference}.cursor-active{opacity:1;mix-blend-mode:difference}</style><g transform="translate(0,0)"><rect width="752" height="96" rx="8" fill="#1e1e1e"/><clipPath id="content-clip"><path d="M0 0h752v96H0z" /></clipPath><g clip-path="url(#content-clip)"><g style="animation:f 5.397s steps(1,end) infinite"><g transform="translate(0,0)"><use xlink:href="#1"/><path d="M64 16h24v56H64z" fill="#c9d1d9" class="cursor"/></g><g transform="translate(752,0)"><use xlink:href="#2"/><path d="M88 16h24v56H88z" fill="#c9d1d9" class="cursor-active"/></g><g transform="translate(1504,0)"><use xlink:href="#3"/><path d="M112 16h24v56H112z" fill="#c9d1d9" class="cursor-active"/></g><g transform="translate(2256,0)"><use xlink:href="#4"/><path d="M136 16h24v56H136z" fill="#c9d1d9" class="cursor-active"/></g><g transform="translate(3008,0)"><use xlink:href="#4"/><path d="M160 16h24v56H160z" fill="#c9d1d9" class="cursor-active"/></g><g transform="translate(3760,0)"><use xlink:href="#5"/><path d="M184 16h24v56H184z" fill="#c9d1d9" class="cursor-active"/></g><g transform="translate(4512,0)"><use xlink:href="#6"/><path d="M208 16h24v56H208z" fill="#c9d1d9" class="cursor-active"/></g><g transform="translate(5264,0)"><use xlink:href="#7"/><path d="M232 16h24v56H232z" fill="#c9d1d9" class="cursor-active"/></g><g transform="translate(6016,0)"><use xlink:href="#8"/><path d="M256 16h24v56H256z" fill="#c9d1d9" class="cursor-active"/></g><g transform="translate(6768,0)"><use xlink:href="#8"/><path d="M280 16h24v56H280z" fill="#c9d1d9" class="cursor-active"/></g><g transform="translate(7520,0)"><use xlink:href="#9"/><path d="M304 16h24v56H304z" fill="#c9d1d9" class="cursor-active"/></g><g transform="translate(8272,0)"><use xlink:href="#10"/><path d="M328 16h24v56H328z" fill="#c9d1d9" class="cursor-active"/></g><g transform="translate(9024,0)"><use xlink:href="#10"/><path d="M352 16h24v56H352z" fill="#c9d1d9" class="cursor-active"/></g><g transform="translate(9776,0)"><use xlink:href="#11"/><path d="M376 16h24v56H376z" fill="#c9d1d9" class="cursor-active"/></g><g transform="translate(10528,0)"><use xlink:href="#12"/><path d="M400 16h24v56H400z" fill="#c9d1d9" class="cursor-active"/></g><g transform="translate(11280,0)"><use xlink:href="#13"/><path d="M424 16h24v56H424z" fill="#c9d1d9" class="cursor-active"/></g><g transform="translate(12032,0)"><use xlink:href="#14"/><path d="M448 16h24v56H448z" fill="#c9d1d9" class="cursor-active"/></g><g transform="translate(12784,0)"><use xlink:href="#14"/><path d="M472 16h24v56H472z" fill="#c9d1d9" class="cursor-active"/></g><g transform="translate(13536,0)"><use xlink:href="#15"/><path d="M496 16h24v56H496z" fill="#c9d1d9" class="cursor-active"/></g><g transform="translate(14288,0)"><use xlink:href="#16"/><path d="M520 16h24v56H520z" fill="#c9d1d9" class="cursor-active"/></g><g transform="translate(15040,0)"><use xlink:href="#17"/><path d="M544 16h24v56H544z" fill="#c9d1d9" class="cursor-active"/></g><g transform="translate(15792,0)"><use xlink:href="#18"/><path d="M568 16h24v56H568z" fill="#c9d1d9" class="cursor-active"/></g><g transform="translate(16544,0)"><use xlink:href="#18"/><path d="M592 16h24v56H592z" fill="#c9d1d9" class="cursor-active"/></g><g transform="translate(17296,0)"><use xlink:href="#19"/><path d="M616 16h24v56H616z" fill="#c9d1d9" class="cursor-active"/></g><g transform="translate(18048,0)"><use xlink:href="#20"/><path d="M640 16h24v56H640z" fill="#c9d1d9" class="cursor-active"/></g><g transform="translate(18800,0)"><use xlink:href="#21"/><path d="M664 16h24v56H664z" fill="#c9d1d9" class="cursor-active"/></g><g transform="translate(19552,0)"><use xlink:href="#21"/><path d="M688 16h24v56H688z" fill="#c9d1d9" class="cursor-active"/></g><g transform="translate(20304,0)"><use xlink:href="#22"/><path d="M712 16h24v56H712z" fill="#c9d1d9" class="cursor-active"/></g><g transform="translate(21056,0)"><use xlink:href="#22"/><path d="M712 16h24v56H712z" fill="#c9d1d9" class="cursor"/></g></g></g></g></svg>