<svg xmlns="http://www.w3.org/2000/svg" xmlns:xlink="http://www.w3.org/1999/xlink" width="542" height="164" viewBox="0 0 542 164"><defs><symbol id="1"><text x="16" y="57.6" class="c">❯</text></symbol><symbol id="2"><text x="16" y="57.6" class="c">❯ </text><text x="40" y="57.6" class="d">S</text></symbol><symbol id="3"><text x="16" y="57.6" class="c">❯ </text><text x="40" y="57.6" class="d">Sp</text></symbol><symbol id="4"><text x="16" y="57.6" class="c">❯ </text><text x="40" y="57.6" class="d">Spa</text></symbol><symbol id="5"><text x="16" y="57.6" class="c">❯ </text><text x="40" y="57.6" class="d">Spac</text></symbol><symbol id="6"><text x="16" y="57.6" class="c">❯ </text><text x="40" y="57.6" class="d">Space</text></symbol><symbol id="7"><text x="16" y="57.6" class="c">❯ </text><text x="40" y="57.6" class="d">Spaced</text></symbol><symbol id="8"><text x="16" y="57.6" class="c">❯ </text><text x="40" y="57.6" class="d">Spaced o</text></symbol><symbol id="9"><text x="16" y="57.6" class="c">❯ </text><text x="40" y="57.6" class="d">Spaced ou</text></symbol><symbol id="10"><text x="16" y="57.6" class="c">❯ </text><text x="40" y="57.6" class="d">Spaced out</text></symbol><symbol id="11"><text x="16" y="57.6" class="c">❯ </text><text x="40" y="57.6" class="d">Spaced out t</text></symbol><symbol id="12"><text x="16" y="57.6" class="c">❯ </text><text x="40" y="57.6" class="d">Spaced out te</text></symbol><symbol id="13"><text x="16" y="57.6" class="c">❯ </text><text x="40" y="57.6" class="d">Spaced out tex</text></symbol><symbol id="14"><text x="16" y="57.6" class="c">❯ </text><text x="40" y="57.6" class="d">Spaced out text</text></symbol><symbol id="15"><text x="16" y="57.6" class="c">❯ </text><text x="40" y="57.6" class="d">Spaced out text l</text></symbol><symbol id="16"><text x="16" y="57.6" class="c">❯ </text><text x="40" y="57.6" class="d">Spaced out text lo</text></symbol><symbol id="17"><text x="16" y="57.6" class="c">❯ </text><text x="40" y="57.6" class="d">Spaced out text loo</text></symbol><symbol id="18"><text x="16" y="57.6" class="c">❯ </text><text x="40" y="57.6" class="d">Spaced out text look</text></symbol><symbol id="19"><text x="16" y="57.6" class="c">❯ </text><text x="40" y="57.6" class="d">Spaced out text looks</text></symbol><symbol id="20"><text x="16" y="57.6" class="c">❯ </text><text x="40" y="57.6" class="d">Spaced out text looks l</text></symbol><symbol id="21"><text x="16" y="57.6" class="c">❯ </text><text x="40" y="57.6" class="d">Spaced out text looks li</text></symbol><symbol id="22"><text x="16" y="57.6" class="c">❯ </text><text x="40" y="57.6" class="d">Spaced out text looks lik</text></symbol><symbol id="23"><text x="16" y="57.6" class="c">❯ </text><text x="40" y="57.6" class="d">Spaced out text looks like</text></symbol><symbol id="24"><text x="16" y="57.6" class="c">❯ </text><text x="40" y="57.6" class="d">Spaced out text looks like t</text></symbol><symbol id="25"><text x="16" y="57.6" class="c">❯ </text><text x="40" y="57.6" class="d">Spaced out text looks like th</text></symbol><symbol id="26"><text x="16" y="57.6" class="c">❯ </text><text x="40" y="57.6" class="d">Spaced out text looks like thi</text></symbol><symbol id="27"><text x="16" y="57.6" class="c">❯ </text><text x="40" y="57.6" class="d">Spaced out text looks like this</text></symbol><symbol id="28"><text x="16" y="85.6" class="d">zsh:1: command not found: Spaced</text></symbol><symbol id="29"><text x="16" y="113.6" class="c">❯</text></symbol><symbol id="30"><text x="16" y="113.6" class="c">❯ </text><text x="40" y="113.6" class="d">N</text></symbol><symbol id="31"><text x="16" y="113.6" class="c">❯ </text><text x="40" y="113.6" class="d">No</text></symbol><symbol id="32"><text x="16" y="113.6" class="c">❯ </text><text x="40" y="113.6" class="d">Nor</text></symbol><symbol id="33"><text x="16" y="113.6" class="c">❯ </text><text x="40" y="113.6" class="d">Norm</text></symbol><symbol id="34"><text x="16" y="113.6" class="c">❯ </text><text x="40" y="113.6" class="d">Norma</text></symbol><symbol id="35"><text x="16" y="113.6" class="c">❯ </text><text x="40" y="113.6" class="d">Normal</text></symbol><symbol id="36"><text x="16" y="113.6" class="c">❯ </text><text x="40" y="113.6" class="d">Normal s</text></symbol><symbol id="37"><text x="16" y="113.6" class="c">❯ </text><text x="40" y="113.6" class="d">Normal sp</text></symbol><symbol id="38"><text x="16" y="113.6" class="c">❯ </text><text x="40" y="113.6" class="d">Normal spa</text></symbol><symbol id="39"><text x="16" y="113.6" class="c">❯ </text><text x="40" y="113.6" class="d">Normal spac</text></symbol><symbol id="40"><text x="16" y="113.6" class="c">❯ </text><text x="40" y="113.6" class="d">Normal spaci</text></symbol><symbol id="41"><text x="16" y="113.6" class="c">❯ </text><text x="40" y="113.6" class="d">Normal spacin</text></symbol><symbol id="42"><text x="16" y="113.6" class="c">❯ </text><text x="40" y="113.6" class="d">Normal spacing</text></symbol><symbol id="43"><text x="16" y="113.6" class="c">❯ </text><text x="40" y="113.6" class="d">Normal spacing w</text></symbol><symbol id="44"><text x="16" y="113.6" class="c">❯ </text><text x="40" y="113.6" class="d">Normal spacing wo</text></symbol><symbol id="45"><text x="16" y="113.6" class="c">❯ </text><text x="40" y="113.6" class="d">Normal spacing wou</text></symbol><symbol id="46"><text x="16" y="113.6" class="c">❯ </text><text x="40" y="113.6" class="d">Normal spacing woul</text></symbol><symbol id="47"><text x="16" y="113.6" class="c">❯ </text><text x="40" y="113.6" class="d">Normal spacing would</text></symbol><symbol id="48"><text x="16" y="113.6" class="c">❯ </text><text x="40" y="113.6" class="d">Normal spacing would b</text></symbol><symbol id="49"><text x="16" y="113.6" class="c">❯ </text><text x="40" y="113.6" class="d">Normal spacing would be</text></symbol><symbol id="50"><text x="16" y="113.6" class="c">❯ </text><text x="40" y="113.6" class="d">Normal spacing would be 0</text></symbol></defs><style>@keyframes f{0.13%{transform:translateX(0px)}0.87%{transform:translateX(-542px)}1.58%{transform:translateX(-1084px)}2.31%{transform:translateX(-1626px)}3.03%{transform:translateX(-2168px)}3.73%{transform:translateX(-2710px)}4.45%{transform:translateX(-3252px)}5.20%{transform:translateX(-3794px)}5.90%{transform:translateX(-4336px)}6.62%{transform:translateX(-4878px)}7.32%{transform:translateX(-5420px)}8.03%{transform:translateX(-5962px)}8.76%{transform:translateX(-6504px)}9.48%{transform:translateX(-7046px)}10.17%{transform:translateX(-7588px)}10.90%{transform:translateX(-8130px)}11.61%{transform:translateX(-8672px)}12.31%{transform:translateX(-9214px)}13.04%{transform:translateX(-9756px)}13.76%{transform:translateX(-10298px)}14.47%{transform:translateX(-10840px)}15.20%{transform:translateX(-11382px)}15.93%{transform:translateX(-11924px)}16.66%{transform:translateX(-12466px)}17.40%{transform:translateX(-13008px)}18.13%{transform:translateX(-13550px)}18.83%{transform:translateX(-14092px)}19.58%{transform:translateX(-14634px)}20.30%{transform:translateX(-15176px)}21.00%{transform:translateX(-15718px)}21.71%{transform:translateX(-16260px)}22.44%{transform:translateX(-16802px)}22.45%{transform:translateX(-17344px)}37.99%{transform:translateX(-17886px)}38.10%{transform:translateX(-18428px)}39.58%{transform:translateX(-18970px)}40.29%{transform:translateX(-19512px)}41.01%{transform:translateX(-20054px)}41.74%{transform:translateX(-20596px)}42.47%{transform:translateX(-21138px)}43.22%{transform:translateX(-21680px)}43.94%{transform:translateX(-22222px)}44.67%{transform:translateX(-22764px)}45.40%{transform:translateX(-23306px)}46.13%{transform:translateX(-23848px)}46.87%{transform:translateX(-24390px)}47.58%{transform:translateX(-24932px)}48.32%{transform:translateX(-25474px)}49.04%{transform:translateX(-26016px)}49.75%{transform:translateX(-26558px)}50.47%{transform:translateX(-27100px)}51.12%{transform:translateX(-27642px)}51.84%{transform:translateX(-28184px)}52.57%{transform:translateX(-28726px)}53.29%{transform:translateX(-29268px)}53.99%{transform:translateX(-29810px)}54.75%{transform:translateX(-30352px)}55.49%{transform:translateX(-30894px)}56.18%{transform:translateX(-31436px)}56.88%{transform:translateX(-31978px)}57.61%{transform:translateX(-32520px)}57.63%{transform:translateX(-33062px)}}.a{fill:#1e1e1e}.c{fill:#d2a8ff;stroke:#d2a8ff}.d{fill:#c9d1d9;stroke:#c9d1d9}path[fill="none"]{fill:none}path[shape-rendering="crispEdges"]{stroke:none}text{font-family:'SF Mono',Monaco,Consolas,Menlo,monospace;font-size:20px;dominant-baseline:text-before-edge;white-space:pre}text[class]{stroke:none}.bold{font-weight:700}.italic{font-style:italic}.uline{text-decoration:underline}.strike{text-decoration:line-through}.dim{opacity:0.5}@keyframes blink{0%,50%{opacity:1}50.01%,100%{opacity:0}}.cursor{animation:blink 1s step-end infinite;mix-blend-mode:difference}.cursor-active{opacity:1;mix-blend-mode:difference}</style><g transform="translate(0,0)"><rect width="542" height="164" rx="8" fill="#1e1e1e"/><rect width="542" height="40" rx="8" fill="#1e1e1e"/><path d="M0 32h542v8H0z" fill="#1e1e1e"/><circle cx="16" cy="20" r="6" fill="#ff5f56"/><circle cx="36" cy="20" r="6" fill="#ffbd2e"/><circle cx="56" cy="20" r="6" fill="#27c93f"/><clipPath id="content-clip"><path d="M0 40h542v124H0z" /></clipPath><g clip-path="url(#content-clip)"><g style="animation:f 7.099s steps(1,end) infinite"><g transform="translate(0,0)"><use xlink:href="#1"/><path d="M40 56h12v28H40z" fill="#fff" class="cursor"/></g><g transform="translate(542,0)"><use xlink:href="#2"/><path d="M52 56h12v28H52z" fill="#fff" class="cursor-active"/></g><g transform="translate(1084,0)"><use xlink:href="#3"/><path d="M64 56h12v28H64z" fill="#fff" class="cursor-active"/></g><g transform="translate(1626,0)"><use xlink:href="#4"/><path d="M76 56h12v28H76z" fill="#fff" class="cursor-active"/></g><g transform="translate(2168,0)"><use xlink:href="#5"/><path d="M88 56h12v28H88z" fill="#fff" class="cursor-active"/></g><g transform="translate(2710,0)"><use xlink:href="#6"/><path d="M100 56h12v28H100z" fill="#fff" class="cursor-active"/></g><g transform="translate(3252,0)"><use xlink:href="#7"/><path d="M112 56h12v28H112z" fill="#fff" class="cursor-active"/></g><g transform="translate(3794,0)"><use xlink:href="#7"/><path d="M124 56h12v28H124z" fill="#fff" class="cursor-active"/></g><g transform="translate(4336,0)"><use xlink:href="#8"/><path d="M136 56h12v28H136z" fill="#fff" class="cursor-active"/></g><g transform="translate(4878,0)"><use xlink:href="#9"/><path d="M148 56h12v28H148z" fill="#fff" class="cursor-active"/></g><g transform="translate(5420,0)"><use xlink:href="#10"/><path d="M160 56h12v28H160z" fill="#fff" class="cursor-active"/></g><g transform="translate(5962,0)"><use xlink:href="#10"/><path d="M172 56h12v28H172z" fill="#fff" class="cursor-active"/></g><g transform="translate(6504,0)"><use xlink:href="#11"/><path d="M184 56h12v28H184z" fill="#fff" class="cursor-active"/></g><g transform="translate(7046,0)"><use xlink:href="#12"/><path d="M196 56h12v28H196z" fill="#fff" class="cursor-active"/></g><g transform="translate(7588,0)"><use xlink:href="#13"/><path d="M208 56h12v28H208z" fill="#fff" class="cursor-active"/></g><g transform="translate(8130,0)"><use xlink:href="#14"/><path d="M220 56h12v28H220z" fill="#fff" class="cursor-active"/></g><g transform="translate(8672,0)"><use xlink:href="#14"/><path d="M232 56h12v28H232z" fill="#fff" class="cursor-active"/></g><g transform="translate(9214,0)"><use xlink:href="#15"/><path d="M244 56h12v28H244z" fill="#fff" class="cursor-active"/></g><g transform="translate(9756,0)"><use xlink:href="#16"/><path d="M256 56h12v28H256z" fill="#fff" class="cursor-active"/></g><g transform="translate(10298,0)"><use xlink:href="#17"/><path d="M268 56h12v28H268z" fill="#fff" class="cursor-active"/></g><g transform="translate(10840,0)"><use xlink:href="#18"/><path d="M280 56h12v28H280z" fill="#fff" class="cursor-active"/></g><g transform="translate(11382,0)"><use xlink:href="#19"/><path d="M292 56h12v28H292z" fill="#fff" class="cursor-active"/></g><g transform="translate(11924,0)"><use xlink:href="#19"/><path d="M304 56h12v28H304z" fill="#fff" class="cursor-active"/></g><g transform="translate(12466,0)"><use xlink:href="#20"/><path d="M316 56h12v28H316z" fill="#fff" class="cursor-active"/></g><g transform="translate(13008,0)"><use xlink:href="#21"/><path d="M328 56h12v28H328z" fill="#fff" class="cursor-active"/></g><g transform="translate(13550,0)"><use xlink:href="#22"/><path d="M340 56h12v28H340z" fill="#fff" class="cursor-active"/></g><g transform="translate(14092,0)"><use xlink:href="#23"/><path d="M352 56h12v28H352z" fill="#fff" class="cursor-active"/></g><g transform="translate(14634,0)"><use xlink:href="#23"/><path d="M364 56h12v28H364z" fill="#fff" class="cursor-active"/></g><g transform="translate(15176,0)"><use xlink:href="#24"/><path d="M376 56h12v28H376z" fill="#fff" class="cursor-active"/></g><g transform="translate(15718,0)"><use xlink:href="#25"/><path d="M388 56h12v28H388z" fill="#fff" class="cursor-active"/></g><g transform="translate(16260,0)"><use xlink:href="#26"/><path d="M400 56h12v28H400z" fill="#fff" class="cursor-active"/></g><g transform="translate(16802,0)"><use xlink:href="#27"/><path d="M412 56h12v28H412z" fill="#fff" class="cursor-active"/></g><g transform="translate(17344,0)"><use xlink:href="#27"/><path d="M412 56h12v28H412z" fill="#fff" class="cursor"/></g><g transform="translate(17886,0)"><use xlink:href="#27"/></g><g transform="translate(18428,0)"><use xlink:href="#27"/><use xlink:href="#28"/></g><g transform="translate(18970,0)"><use xlink:href="#27"/><use xlink:href="#28"/><use xlink:href="#29"/><path d="M40 112h12v28H40z" fill="#fff" class="cursor"/></g><g transform="translate(19512,0)"><use xlink:href="#27"/><use xlink:href="#28"/><use xlink:href="#30"/><path d="M52 112h12v28H52z" fill="#fff" class="cursor-active"/></g><g transform="translate(20054,0)"><use xlink:href="#27"/><use xlink:href="#28"/><use xlink:href="#31"/><path d="M64 112h12v28H64z" fill="#fff" class="cursor-active"/></g><g transform="translate(20596,0)"><use xlink:href="#27"/><use xlink:href="#28"/><use xlink:href="#32"/><path d="M76 112h12v28H76z" fill="#fff" class="cursor-active"/></g><g transform="translate(21138,0)"><use xlink:href="#27"/><use xlink:href="#28"/><use xlink:href="#33"/><path d="M88 112h12v28H88z" fill="#fff" class="cursor-active"/></g><g transform="translate(21680,0)"><use xlink:href="#27"/><use xlink:href="#28"/><use xlink:href="#34"/><path d="M100 112h12v28H100z" fill="#fff" class="cursor-active"/></g><g transform="translate(22222,0)"><use xlink:href="#27"/><use xlink:href="#28"/><use xlink:href="#35"/><path d="M112 112h12v28H112z" fill="#fff" class="cursor-active"/></g><g transform="translate(22764,0)"><use xlink:href="#27"/><use xlink:href="#28"/><use xlink:href="#35"/><path d="M124 112h12v28H124z" fill="#fff" class="cursor-active"/></g><g transform="translate(23306,0)"><use xlink:href="#27"/><use xlink:href="#28"/><use xlink:href="#36"/><path d="M136 112h12v28H136z" fill="#fff" class="cursor-active"/></g><g transform="translate(23848,0)"><use xlink:href="#27"/><use xlink:href="#28"/><use xlink:href="#37"/><path d="M148 112h12v28H148z" fill="#fff" class="cursor-active"/></g><g transform="translate(24390,0)"><use xlink:href="#27"/><use xlink:href="#28"/><use xlink:href="#38"/><path d="M160 112h12v28H160z" fill="#fff" class="cursor-active"/></g><g transform="translate(24932,0)"><use xlink:href="#27"/><use xlink:href="#28"/><use xlink:href="#39"/><path d="M172 112h12v28H172z" fill="#fff" class="cursor-active"/></g><g transform="translate(25474,0)"><use xlink:href="#27"/><use xlink:href="#28"/><use xlink:href="#40"/><path d="M184 112h12v28H184z" fill="#fff" class="cursor-active"/></g><g transform="translate(26016,0)"><use xlink:href="#27"/><use xlink:href="#28"/><use xlink:href="#41"/><path d="M196 112h12v28H196z" fill="#fff" class="cursor-active"/></g><g transform="translate(26558,0)"><use xlink:href="#27"/><use xlink:href="#28"/><use xlink:href="#42"/><path d="M208 112h12v28H208z" fill="#fff" class="cursor-active"/></g><g transform="translate(27100,0)"><use xlink:href="#27"/><use xlink:href="#28"/><use xlink:href="#42"/><path d="M220 112h12v28H220z" fill="#fff" class="cursor-active"/></g><g transform="translate(27642,0)"><use xlink:href="#27"/><use xlink:href="#28"/><use xlink:href="#43"/><path d="M232 112h12v28H232z" fill="#fff" class="cursor-active"/></g><g transform="translate(28184,0)"><use xlink:href="#27"/><use xlink:href="#28"/><use xlink:href="#44"/><path d="M244 112h12v28H244z" fill="#fff" class="cursor-active"/></g><g transform="translate(28726,0)"><use xlink:href="#27"/><use xlink:href="#28"/><use xlink:href="#45"/><path d="M256 112h12v28H256z" fill="#fff" class="cursor-active"/></g><g transform="translate(29268,0)"><use xlink:href="#27"/><use xlink:href="#28"/><use xlink:href="#46"/><path d="M268 112h12v28H268z" fill="#fff" class="cursor-active"/></g><g transform="translate(29810,0)"><use xlink:href="#27"/><use xlink:href="#28"/><use xlink:href="#47"/><path d="M280 112h12v28H280z" fill="#fff" class="cursor-active"/></g><g transform="translate(30352,0)"><use xlink:href="#27"/><use xlink:href="#28"/><use xlink:href="#47"/><path d="M292 112h12v28H292z" fill="#fff" class="cursor-active"/></g><g transform="translate(30894,0)"><use xlink:href="#27"/><use xlink:href="#28"/><use xlink:href="#48"/><path d="M304 112h12v28H304z" fill="#fff" class="cursor-active"/></g><g transform="translate(31436,0)"><use xlink:href="#27"/><use xlink:href="#28"/><use xlink:href="#49"/><path d="M316 112h12v28H316z" fill="#fff" class="cursor-active"/></g><g transform="translate(31978,0)"><use xlink:href="#27"/><use xlink:href="#28"/><use xlink:href="#49"/><path d="M328 112h12v28H328z" fill="#fff" class="cursor-active"/></g><g transform="translate(32520,0)"><use xlink:href="#27"/><use xlink:href="#28"/><use xlink:href="#50"/><path d="M340 112h12v28H340z" fill="#fff" class="cursor-active"/></g><g transform="translate(33062,0)"><use xlink:href="#27"/><use xlink:href="#28"/><use xlink:href="#50"/><path d="M340 112h12v28H340z" fill="#fff" class="cursor"/></g></g></g></g></svg>