<svg xmlns="http://www.w3.org/2000/svg" xmlns:xlink="http://www.w3.org/1999/xlink" width="368" height="108" viewBox="0 0 368 108"><defs><symbol id="1"><text x="16" y="17.3" textLength="9.6" lengthAdjust="spacingAndGlyphs" class="c">➜</text></symbol><symbol id="2"><text x="16" y="17.3" textLength="9.6" lengthAdjust="spacingAndGlyphs" class="c">➜</text><text x="25.6" y="17.3" textLength="19.2" lengthAdjust="spacingAndGlyphs" class="d"> e</text></symbol><symbol id="3"><text x="16" y="17.3" textLength="9.6" lengthAdjust="spacingAndGlyphs" class="c">➜</text><text x="25.6" y="17.3" textLength="28.8" lengthAdjust="spacingAndGlyphs" class="d"> ec</text></symbol><symbol id="4"><text x="16" y="17.3" textLength="9.6" lengthAdjust="spacingAndGlyphs" class="c">➜</text><text x="25.6" y="17.3" textLength="38.4" lengthAdjust="spacingAndGlyphs" class="d"> ech</text></symbol><symbol id="5"><text x="16" y="17.3" textLength="9.6" lengthAdjust="spacingAndGlyphs" class="c">➜</text><text x="25.6" y="17.3" textLength="48" lengthAdjust="spacingAndGlyphs" class="d"> echo</text></symbol><symbol id="6"><text x="16" y="17.3" textLength="9.6" lengthAdjust="spacingAndGlyphs" class="c">➜</text><text x="25.6" y="17.3" textLength="67.2" lengthAdjust="spacingAndGlyphs" class="d"> echo &apos;</text></symbol><symbol id="7"><text x="16" y="17.3" textLength="9.6" lengthAdjust="spacingAndGlyphs" class="c">➜</text><text x="25.6" y="17.3" textLength="76.8" lengthAdjust="spacingAndGlyphs" class="d"> echo &apos;C</text></symbol><symbol id="8"><text x="16" y="17.3" textLength="9.6" lengthAdjust="spacingAndGlyphs" class="c">➜</text><text x="25.6" y="17.3" textLength="86.4" lengthAdjust="spacingAndGlyphs" class="d"> echo &apos;Cu</text></symbol><symbol id="9"><text x="16" y="17.3" textLength="9.6" lengthAdjust="spacingAndGlyphs" class="c">➜</text><text x="25.6" y="17.3" textLength="96" lengthAdjust="spacingAndGlyphs" class="d"> echo &apos;Cus</text></symbol><symbol id="10"><text x="16" y="17.3" textLength="9.6" lengthAdjust="spacingAndGlyphs" class="c">➜</text><text x="25.6" y="17.3" textLength="105.6" lengthAdjust="spacingAndGlyphs" class="d"> echo &apos;Cust</text></symbol><symbol id="11"><text x="16" y="17.3" textLength="9.6" lengthAdjust="spacingAndGlyphs" class="c">➜</text><text x="25.6" y="17.3" textLength="115.2" lengthAdjust="spacingAndGlyphs" class="d"> echo &apos;Custo</text></symbol><symbol id="12"><text x="16" y="17.3" textLength="9.6" lengthAdjust="spacingAndGlyphs" class="c">➜</text><text x="25.6" y="17.3" textLength="124.8" lengthAdjust="spacingAndGlyphs" class="d"> echo &apos;Custom</text></symbol><symbol id="13"><text x="16" y="17.3" textLength="9.6" lengthAdjust="spacingAndGlyphs" class="c">➜</text><text x="25.6" y="17.3" textLength="144" lengthAdjust="spacingAndGlyphs" class="d"> echo &apos;Custom c</text></symbol><symbol id="14"><text x="16" y="17.3" textLength="9.6" lengthAdjust="spacingAndGlyphs" class="c">➜</text><text x="25.6" y="17.3" textLength="153.6" lengthAdjust="spacingAndGlyphs" class="d"> echo &apos;Custom cy</text></symbol><symbol id="15"><text x="16" y="17.3" textLength="9.6" lengthAdjust="spacingAndGlyphs" class="c">➜</text><text x="25.6" y="17.3" textLength="163.2" lengthAdjust="spacingAndGlyphs" class="d"> echo &apos;Custom cya</text></symbol><symbol id="16"><text x="16" y="17.3" textLength="9.6" lengthAdjust="spacingAndGlyphs" class="c">➜</text><text x="25.6" y="17.3" textLength="172.8" lengthAdjust="spacingAndGlyphs" class="d"> echo &apos;Custom cyan</text></symbol><symbol id="17"><text x="16" y="17.3" textLength="9.6" lengthAdjust="spacingAndGlyphs" class="c">➜</text><text x="25.6" y="17.3" textLength="192" lengthAdjust="spacingAndGlyphs" class="d"> echo &apos;Custom cyan a</text></symbol><symbol id="18"><text x="16" y="17.3" textLength="9.6" lengthAdjust="spacingAndGlyphs" class="c">➜</text><text x="25.6" y="17.3" textLength="201.6" lengthAdjust="spacingAndGlyphs" class="d"> echo &apos;Custom cyan ar</text></symbol><symbol id="19"><text x="16" y="17.3" textLength="9.6" lengthAdjust="spacingAndGlyphs" class="c">➜</text><text x="25.6" y="17.3" textLength="211.2" lengthAdjust="spacingAndGlyphs" class="d"> echo &apos;Custom cyan arr</text></symbol><symbol id="20"><text x="16" y="17.3" textLength="9.6" lengthAdjust="spacingAndGlyphs" class="c">➜</text><text x="25.6" y="17.3" textLength="220.8" lengthAdjust="spacingAndGlyphs" class="d"> echo &apos;Custom cyan arro</text></symbol><symbol id="21"><text x="16" y="17.3" textLength="9.6" lengthAdjust="spacingAndGlyphs" class="c">➜</text><text x="25.6" y="17.3" textLength="230.4" lengthAdjust="spacingAndGlyphs" class="d"> echo &apos;Custom cyan arrow</text></symbol><symbol id="22"><text x="16" y="17.3" textLength="9.6" lengthAdjust="spacingAndGlyphs" class="c">➜</text><text x="25.6" y="17.3" textLength="249.6" lengthAdjust="spacingAndGlyphs" class="d"> echo &apos;Custom cyan arrow p</text></symbol><symbol id="23"><text x="16" y="17.3" textLength="9.6" lengthAdjust="spacingAndGlyphs" class="c">➜</text><text x="25.6" y="17.3" textLength="259.2" lengthAdjust="spacingAndGlyphs" class="d"> echo &apos;Custom cyan arrow pr</text></symbol><symbol id="24"><text x="16" y="17.3" textLength="9.6" lengthAdjust="spacingAndGlyphs" class="c">➜</text><text x="25.6" y="17.3" textLength="268.8" lengthAdjust="spacingAndGlyphs" class="d"> echo &apos;Custom cyan arrow pro</text></symbol><symbol id="25"><text x="16" y="17.3" textLength="9.6" lengthAdjust="spacingAndGlyphs" class="c">➜</text><text x="25.6" y="17.3" textLength="278.4" lengthAdjust="spacingAndGlyphs" class="d"> echo &apos;Custom cyan arrow prom</text></symbol><symbol id="26"><text x="16" y="17.3" textLength="9.6" lengthAdjust="spacingAndGlyphs" class="c">➜</text><text x="25.6" y="17.3" textLength="288" lengthAdjust="spacingAndGlyphs" class="d"> echo &apos;Custom cyan arrow promp</text></symbol><symbol id="27"><text x="16" y="17.3" textLength="9.6" lengthAdjust="spacingAndGlyphs" class="c">➜</text><text x="25.6" y="17.3" textLength="297.6" lengthAdjust="spacingAndGlyphs" class="d"> echo &apos;Custom cyan arrow prompt</text></symbol><symbol id="28"><text x="16" y="17.3" textLength="9.6" lengthAdjust="spacingAndGlyphs" class="c">➜</text><text x="25.6" y="17.3" textLength="307.2" lengthAdjust="spacingAndGlyphs" class="d"> echo &apos;Custom cyan arrow prompt!</text></symbol><symbol id="29"><text x="16" y="17.3" textLength="9.6" lengthAdjust="spacingAndGlyphs" class="c">➜</text><text x="25.6" y="17.3" textLength="316.8" lengthAdjust="spacingAndGlyphs" class="d"> echo &apos;Custom cyan arrow prompt!&apos;</text></symbol><symbol id="30"><text x="16" y="39.7" textLength="240" lengthAdjust="spacingAndGlyphs" class="d">Custom cyan arrow prompt!</text></symbol><symbol id="31"><text x="16" y="62.1" textLength="9.6" lengthAdjust="spacingAndGlyphs" class="c">➜</text></symbol></defs><style>@keyframes f{0.12%{transform:translateX(0px)}0.95%{transform:translateX(-368px)}1.73%{transform:translateX(-736px)}2.53%{transform:translateX(-1104px)}3.36%{transform:translateX(-1472px)}4.17%{transform:translateX(-1840px)}4.98%{transform:translateX(-2208px)}5.80%{transform:translateX(-2576px)}6.61%{transform:translateX(-2944px)}7.43%{transform:translateX(-3312px)}8.22%{transform:translateX(-3680px)}9.03%{transform:translateX(-4048px)}9.87%{transform:translateX(-4416px)}10.68%{transform:translateX(-4784px)}11.46%{transform:translateX(-5152px)}12.31%{transform:translateX(-5520px)}13.11%{transform:translateX(-5888px)}13.91%{transform:translateX(-6256px)}14.74%{transform:translateX(-6624px)}15.55%{transform:translateX(-6992px)}16.32%{transform:translateX(-7360px)}17.16%{transform:translateX(-7728px)}17.97%{transform:translateX(-8096px)}18.77%{transform:translateX(-8464px)}19.56%{transform:translateX(-8832px)}20.40%{transform:translateX(-9200px)}21.19%{transform:translateX(-9568px)}21.97%{transform:translateX(-9936px)}22.79%{transform:translateX(-10304px)}23.60%{transform:translateX(-10672px)}24.39%{transform:translateX(-11040px)}25.25%{transform:translateX(-11408px)}26.04%{transform:translateX(-11776px)}26.06%{transform:translateX(-12144px)}35.68%{transform:translateX(-12512px)}35.77%{transform:translateX(-12880px)}37.64%{transform:translateX(-13248px)}}.a{fill:#1e1e1e}.c{fill:#39c5cf;stroke:#39c5cf}.d{fill:#c9d1d9;stroke:#c9d1d9}path[fill="none"]{fill:none}path[shape-rendering="crispEdges"]{stroke:none}text{font-family:'SF Mono',Monaco,Consolas,Menlo,monospace;font-size:16px;dominant-baseline:text-before-edge;white-space:pre;}text[class]{stroke:none}.bold{font-weight:700}.italic{font-style:italic}.uline{text-decoration:underline}.strike{text-decoration:line-through}.dim{opacity:0.5}@keyframes blink{0%,50%{opacity:1}50.01%,100%{opacity:0}}.cursor{animation:blink 1s step-end infinite;mix-blend-mode:difference}.cursor-active{opacity:1;mix-blend-mode:difference}</style><g transform="translate(0,0)"><rect width="368" height="108" rx="8" fill="#1e1e1e"/><clipPath id="content-clip"><path d="M0 0h368v108H0z" /></clipPath><g clip-path="url(#content-clip)"><g style="animation:f 6.432s steps(1,end) infinite"><g transform="translate(0,0)"><use xlink:href="#1"/><path d="M35.2 16h9.6v22.4H35.2z" fill="#fff" class="cursor"/></g><g transform="translate(368,0)"><use xlink:href="#2"/><path d="M44.8 16h9.6v22.4H44.8z" fill="#fff" class="cursor-active"/></g><g transform="translate(736,0)"><use xlink:href="#3"/><path d="M54.4 16h9.6v22.4H54.4z" fill="#fff" class="cursor-active"/></g><g transform="translate(1104,0)"><use xlink:href="#4"/><path d="M64 16h9.6v22.4H64z" fill="#fff" class="cursor-active"/></g><g transform="translate(1472,0)"><use xlink:href="#5"/><path d="M73.6 16h9.6v22.4H73.6z" fill="#fff" class="cursor-active"/></g><g transform="translate(1840,0)"><use xlink:href="#5"/><path d="M83.2 16h9.6v22.4H83.2z" fill="#fff" class="cursor-active"/></g><g transform="translate(2208,0)"><use xlink:href="#6"/><path d="M92.8 16h9.6v22.4H92.8z" fill="#fff" class="cursor-active"/></g><g transform="translate(2576,0)"><use xlink:href="#7"/><path d="M102.4 16h9.6v22.4H102.4z" fill="#fff" class="cursor-active"/></g><g transform="translate(2944,0)"><use xlink:href="#8"/><path d="M112 16h9.6v22.4H112z" fill="#fff" class="cursor-active"/></g><g transform="translate(3312,0)"><use xlink:href="#9"/><path d="M121.6 16h9.6v22.4H121.6z" fill="#fff" class="cursor-active"/></g><g transform="translate(3680,0)"><use xlink:href="#10"/><path d="M131.2 16h9.6v22.4H131.2z" fill="#fff" class="cursor-active"/></g><g transform="translate(4048,0)"><use xlink:href="#11"/><path d="M140.8 16h9.6v22.4H140.8z" fill="#fff" class="cursor-active"/></g><g transform="translate(4416,0)"><use xlink:href="#12"/><path d="M150.4 16h9.6v22.4H150.4z" fill="#fff" class="cursor-active"/></g><g transform="translate(4784,0)"><use xlink:href="#12"/><path d="M160 16h9.6v22.4H160z" fill="#fff" class="cursor-active"/></g><g transform="translate(5152,0)"><use xlink:href="#13"/><path d="M169.6 16h9.6v22.4H169.6z" fill="#fff" class="cursor-active"/></g><g transform="translate(5520,0)"><use xlink:href="#14"/><path d="M179.2 16h9.6v22.4H179.2z" fill="#fff" class="cursor-active"/></g><g transform="translate(5888,0)"><use xlink:href="#15"/><path d="M188.8 16h9.6v22.4H188.8z" fill="#fff" class="cursor-active"/></g><g transform="translate(6256,0)"><use xlink:href="#16"/><path d="M198.4 16h9.6v22.4H198.4z" fill="#fff" class="cursor-active"/></g><g transform="translate(6624,0)"><use xlink:href="#16"/><path d="M208 16h9.6v22.4H208z" fill="#fff" class="cursor-active"/></g><g transform="translate(6992,0)"><use xlink:href="#17"/><path d="M217.6 16h9.6v22.4H217.6z" fill="#fff" class="cursor-active"/></g><g transform="translate(7360,0)"><use xlink:href="#18"/><path d="M227.2 16h9.6v22.4H227.2z" fill="#fff" class="cursor-active"/></g><g transform="translate(7728,0)"><use xlink:href="#19"/><path d="M236.8 16h9.6v22.4H236.8z" fill="#fff" class="cursor-active"/></g><g transform="translate(8096,0)"><use xlink:href="#20"/><path d="M246.4 16h9.6v22.4H246.4z" fill="#fff" class="cursor-active"/></g><g transform="translate(8464,0)"><use xlink:href="#21"/><path d="M256 16h9.6v22.4H256z" fill="#fff" class="cursor-active"/></g><g transform="translate(8832,0)"><use xlink:href="#21"/><path d="M265.6 16h9.6v22.4H265.6z" fill="#fff" class="cursor-active"/></g><g transform="translate(9200,0)"><use xlink:href="#22"/><path d="M275.2 16h9.6v22.4H275.2z" fill="#fff" class="cursor-active"/></g><g transform="translate(9568,0)"><use xlink:href="#23"/><path d="M284.8 16h9.6v22.4H284.8z" fill="#fff" class="cursor-active"/></g><g transform="translate(9936,0)"><use xlink:href="#24"/><path d="M294.4 16h9.6v22.4H294.4z" fill="#fff" class="cursor-active"/></g><g transform="translate(10304,0)"><use xlink:href="#25"/><path d="M304 16h9.6v22.4H304z" fill="#fff" class="cursor-active"/></g><g transform="translate(10672,0)"><use xlink:href="#26"/><path d="M313.6 16h9.6v22.4H313.6z" fill="#fff" class="cursor-active"/></g><g transform="translate(11040,0)"><use xlink:href="#27"/><path d="M323.2 16h9.6v22.4H323.2z" fill="#fff" class="cursor-active"/></g><g transform="translate(11408,0)"><use xlink:href="#28"/><path d="M332.8 16h9.6v22.4H332.8z" fill="#fff" class="cursor-active"/></g><g transform="translate(11776,0)"><use xlink:href="#29"/><path d="M342.4 16h9.6v22.4H342.4z" fill="#fff" class="cursor-active"/></g><g transform="translate(12144,0)"><use xlink:href="#29"/><path d="M342.4 16h9.6v22.4H342.4z" fill="#fff" class="cursor"/></g><g transform="translate(12512,0)"><use xlink:href="#29"/></g><g transform="translate(12880,0)"><use xlink:href="#29"/><use xlink:href="#30"/></g><g transform="translate(13248,0)"><use xlink:href="#29"/><use xlink:href="#30"/><use xlink:href="#31"/><path d="M35.2 60.8h9.6v22.4H35.2z" fill="#fff" class="cursor"/></g></g></g></g></svg>