<svg width="385" height="335" xmlns="http://www.w3.org/2000/svg">
  <defs><clipPath id="rounded-corners"><rect x="0" y="0" width="385" height="335" rx="8" ry="8"/></clipPath></defs>
  <style>
    
.text {
  font-family: 'SF Mono', 'Monaco', 'Menlo', 'Consolas', monospace;
  font-size: 14px;
  dominant-baseline: text-before-edge;
  text-rendering: geometricPrecision;
  white-space: pre;
}
.bold { font-weight: bold; }
.italic { font-style: italic; }
.uline { text-decoration: underline; }
.strike { text-decoration: line-through; }
.dim { opacity: 0.5; }
.fg { fill: #c9d1d9; }
.f0 { fill: #000000; }
.f1 { fill: #ff7b72; }
.f2 { fill: #3fb950; }
.f3 { fill: #d29922; }
.f4 { fill: #58a6ff; }
.f5 { fill: #bc8cff; }
.f6 { fill: #39c5cf; }
.f7 { fill: #b1bac4; }
.f8 { fill: #6e7681; }
.f9 { fill: #ffa198; }
.f10 { fill: #56d364; }
.f11 { fill: #e3b341; }
.f12 { fill: #79c0ff; }
.f13 { fill: #d2a8ff; }
.f14 { fill: #56d4dd; }
.f15 { fill: #f0f6fc; }
.bg { fill: #1e1e1e; }
.b0 { fill: #000000; }
.b1 { fill: #ff7b72; }
.b2 { fill: #3fb950; }
.b3 { fill: #d29922; }
.b4 { fill: #58a6ff; }
.b5 { fill: #bc8cff; }
.b6 { fill: #39c5cf; }
.b7 { fill: #b1bac4; }
.b8 { fill: #6e7681; }
.b9 { fill: #ffa198; }
.b10 { fill: #56d364; }
.b11 { fill: #e3b341; }
.b12 { fill: #79c0ff; }
.b13 { fill: #d2a8ff; }
.b14 { fill: #56d4dd; }
.b15 { fill: #f0f6fc; }
.cursor { animation: blink 1s step-end infinite; }
@keyframes blink {
  0%, 50% { opacity: 1; }
  50.01%, 100% { opacity: 0; }
}
.cursor-active { opacity: 1; }

  </style>

  <g clip-path="url(#rounded-corners)">
  <!-- Persistent background - never animated -->
  <rect width="100%" height="100%" fill="#1e1e1e" rx="8" ry="8" />

  <!-- Animated frames with discrete visibility transitions -->
  
  <g id="frame-0" visibility="visible">
    <rect class="window-bg" x="0" y="0" width="385" height="335" fill="#1e1e1e" rx="8" ry="8"/>
<g class="chrome"><rect class="header-bg" x="0" y="0" width="385" height="40" fill="#1e1e1e" rx="8" ry="8"/>
<rect x="0" y="32" width="385" height="8" fill="#1e1e1e"/>
<circle cx="22" cy="20" r="6" fill="#ff5f56"/>
<circle cx="42" cy="20" r="6" fill="#ffbd2e"/>
<circle cx="62" cy="20" r="6" fill="#27c93f"/>
<text class="text fg" x="192.5" y="20" text-anchor="middle" style="dominant-baseline: central">FIGLET Art Demo</text></g>
<g class="text-layer">
<text class="text f13" x="16" y="56">❯</text>
</g>
<g class="cursor-layer">
<rect class="cursor" x="32.8" y="56" width="8.4" height="19.6" fill="#c9d1d9"/>
</g>
    <animate attributeName="visibility" values="visible;hidden;hidden" keyTimes="0;0.010738;1" dur="5.03s" repeatCount="indefinite" calcMode="discrete" fill="freeze"/>
  </g>

  <g id="frame-1" visibility="hidden">
    <rect class="window-bg" x="0" y="0" width="385" height="335" fill="#1e1e1e" rx="8" ry="8"/>
<g class="chrome"><rect class="header-bg" x="0" y="0" width="385" height="40" fill="#1e1e1e" rx="8" ry="8"/>
<rect x="0" y="32" width="385" height="8" fill="#1e1e1e"/>
<circle cx="22" cy="20" r="6" fill="#ff5f56"/>
<circle cx="42" cy="20" r="6" fill="#ffbd2e"/>
<circle cx="62" cy="20" r="6" fill="#27c93f"/>
<text class="text fg" x="192.5" y="20" text-anchor="middle" style="dominant-baseline: central">FIGLET Art Demo</text></g>
<g class="text-layer">
<text class="text f13" x="16" y="56">❯</text>
<text class="text fg" x="24.4" y="56"> f</text>
</g>
<g class="cursor-layer">
<rect class="cursor-active" x="41.2" y="56" width="8.4" height="19.6" fill="#c9d1d9"/>
</g>
    <animate attributeName="visibility" values="hidden;visible;hidden;hidden" keyTimes="0;0.010738;0.020879;1" dur="5.03s" repeatCount="indefinite" calcMode="discrete" fill="freeze"/>
  </g>

  <g id="frame-2" visibility="hidden">
    <rect class="window-bg" x="0" y="0" width="385" height="335" fill="#1e1e1e" rx="8" ry="8"/>
<g class="chrome"><rect class="header-bg" x="0" y="0" width="385" height="40" fill="#1e1e1e" rx="8" ry="8"/>
<rect x="0" y="32" width="385" height="8" fill="#1e1e1e"/>
<circle cx="22" cy="20" r="6" fill="#ff5f56"/>
<circle cx="42" cy="20" r="6" fill="#ffbd2e"/>
<circle cx="62" cy="20" r="6" fill="#27c93f"/>
<text class="text fg" x="192.5" y="20" text-anchor="middle" style="dominant-baseline: central">FIGLET Art Demo</text></g>
<g class="text-layer">
<text class="text f13" x="16" y="56">❯</text>
<text class="text fg" x="24.4" y="56"> fi</text>
</g>
<g class="cursor-layer">
<rect class="cursor-active" x="49.6" y="56" width="8.4" height="19.6" fill="#c9d1d9"/>
</g>
    <animate attributeName="visibility" values="hidden;visible;hidden;hidden" keyTimes="0;0.020879;0.03102;1" dur="5.03s" repeatCount="indefinite" calcMode="discrete" fill="freeze"/>
  </g>

  <g id="frame-3" visibility="hidden">
    <rect class="window-bg" x="0" y="0" width="385" height="335" fill="#1e1e1e" rx="8" ry="8"/>
<g class="chrome"><rect class="header-bg" x="0" y="0" width="385" height="40" fill="#1e1e1e" rx="8" ry="8"/>
<rect x="0" y="32" width="385" height="8" fill="#1e1e1e"/>
<circle cx="22" cy="20" r="6" fill="#ff5f56"/>
<circle cx="42" cy="20" r="6" fill="#ffbd2e"/>
<circle cx="62" cy="20" r="6" fill="#27c93f"/>
<text class="text fg" x="192.5" y="20" text-anchor="middle" style="dominant-baseline: central">FIGLET Art Demo</text></g>
<g class="text-layer">
<text class="text f13" x="16" y="56">❯</text>
<text class="text fg" x="24.4" y="56"> fig</text>
</g>
<g class="cursor-layer">
<rect class="cursor-active" x="58" y="56" width="8.4" height="19.6" fill="#c9d1d9"/>
</g>
    <animate attributeName="visibility" values="hidden;visible;hidden;hidden" keyTimes="0;0.03102;0.041161;1" dur="5.03s" repeatCount="indefinite" calcMode="discrete" fill="freeze"/>
  </g>

  <g id="frame-4" visibility="hidden">
    <rect class="window-bg" x="0" y="0" width="385" height="335" fill="#1e1e1e" rx="8" ry="8"/>
<g class="chrome"><rect class="header-bg" x="0" y="0" width="385" height="40" fill="#1e1e1e" rx="8" ry="8"/>
<rect x="0" y="32" width="385" height="8" fill="#1e1e1e"/>
<circle cx="22" cy="20" r="6" fill="#ff5f56"/>
<circle cx="42" cy="20" r="6" fill="#ffbd2e"/>
<circle cx="62" cy="20" r="6" fill="#27c93f"/>
<text class="text fg" x="192.5" y="20" text-anchor="middle" style="dominant-baseline: central">FIGLET Art Demo</text></g>
<g class="text-layer">
<text class="text f13" x="16" y="56">❯</text>
<text class="text fg" x="24.4" y="56"> figl</text>
</g>
<g class="cursor-layer">
<rect class="cursor-active" x="66.4" y="56" width="8.4" height="19.6" fill="#c9d1d9"/>
</g>
    <animate attributeName="visibility" values="hidden;visible;hidden;hidden" keyTimes="0;0.041161;0.051501;1" dur="5.03s" repeatCount="indefinite" calcMode="discrete" fill="freeze"/>
  </g>

  <g id="frame-5" visibility="hidden">
    <rect class="window-bg" x="0" y="0" width="385" height="335" fill="#1e1e1e" rx="8" ry="8"/>
<g class="chrome"><rect class="header-bg" x="0" y="0" width="385" height="40" fill="#1e1e1e" rx="8" ry="8"/>
<rect x="0" y="32" width="385" height="8" fill="#1e1e1e"/>
<circle cx="22" cy="20" r="6" fill="#ff5f56"/>
<circle cx="42" cy="20" r="6" fill="#ffbd2e"/>
<circle cx="62" cy="20" r="6" fill="#27c93f"/>
<text class="text fg" x="192.5" y="20" text-anchor="middle" style="dominant-baseline: central">FIGLET Art Demo</text></g>
<g class="text-layer">
<text class="text f13" x="16" y="56">❯</text>
<text class="text fg" x="24.4" y="56"> figle</text>
</g>
<g class="cursor-layer">
<rect class="cursor-active" x="74.8" y="56" width="8.4" height="19.6" fill="#c9d1d9"/>
</g>
    <animate attributeName="visibility" values="hidden;visible;hidden;hidden" keyTimes="0;0.051501;0.061841;1" dur="5.03s" repeatCount="indefinite" calcMode="discrete" fill="freeze"/>
  </g>

  <g id="frame-6" visibility="hidden">
    <rect class="window-bg" x="0" y="0" width="385" height="335" fill="#1e1e1e" rx="8" ry="8"/>
<g class="chrome"><rect class="header-bg" x="0" y="0" width="385" height="40" fill="#1e1e1e" rx="8" ry="8"/>
<rect x="0" y="32" width="385" height="8" fill="#1e1e1e"/>
<circle cx="22" cy="20" r="6" fill="#ff5f56"/>
<circle cx="42" cy="20" r="6" fill="#ffbd2e"/>
<circle cx="62" cy="20" r="6" fill="#27c93f"/>
<text class="text fg" x="192.5" y="20" text-anchor="middle" style="dominant-baseline: central">FIGLET Art Demo</text></g>
<g class="text-layer">
<text class="text f13" x="16" y="56">❯</text>
<text class="text fg" x="24.4" y="56"> figlet</text>
</g>
<g class="cursor-layer">
<rect class="cursor-active" x="83.2" y="56" width="8.4" height="19.6" fill="#c9d1d9"/>
</g>
    <animate attributeName="visibility" values="hidden;visible;hidden;hidden" keyTimes="0;0.061841;0.071784;1" dur="5.03s" repeatCount="indefinite" calcMode="discrete" fill="freeze"/>
  </g>

  <g id="frame-7" visibility="hidden">
    <rect class="window-bg" x="0" y="0" width="385" height="335" fill="#1e1e1e" rx="8" ry="8"/>
<g class="chrome"><rect class="header-bg" x="0" y="0" width="385" height="40" fill="#1e1e1e" rx="8" ry="8"/>
<rect x="0" y="32" width="385" height="8" fill="#1e1e1e"/>
<circle cx="22" cy="20" r="6" fill="#ff5f56"/>
<circle cx="42" cy="20" r="6" fill="#ffbd2e"/>
<circle cx="62" cy="20" r="6" fill="#27c93f"/>
<text class="text fg" x="192.5" y="20" text-anchor="middle" style="dominant-baseline: central">FIGLET Art Demo</text></g>
<g class="text-layer">
<text class="text f13" x="16" y="56">❯</text>
<text class="text fg" x="24.4" y="56"> figlet</text>
</g>
<g class="cursor-layer">
<rect class="cursor-active" x="91.6" y="56" width="8.4" height="19.6" fill="#c9d1d9"/>
</g>
    <animate attributeName="visibility" values="hidden;visible;hidden;hidden" keyTimes="0;0.071784;0.082124;1" dur="5.03s" repeatCount="indefinite" calcMode="discrete" fill="freeze"/>
  </g>

  <g id="frame-8" visibility="hidden">
    <rect class="window-bg" x="0" y="0" width="385" height="335" fill="#1e1e1e" rx="8" ry="8"/>
<g class="chrome"><rect class="header-bg" x="0" y="0" width="385" height="40" fill="#1e1e1e" rx="8" ry="8"/>
<rect x="0" y="32" width="385" height="8" fill="#1e1e1e"/>
<circle cx="22" cy="20" r="6" fill="#ff5f56"/>
<circle cx="42" cy="20" r="6" fill="#ffbd2e"/>
<circle cx="62" cy="20" r="6" fill="#27c93f"/>
<text class="text fg" x="192.5" y="20" text-anchor="middle" style="dominant-baseline: central">FIGLET Art Demo</text></g>
<g class="text-layer">
<text class="text f13" x="16" y="56">❯</text>
<text class="text fg" x="24.4" y="56"> figlet -</text>
</g>
<g class="cursor-layer">
<rect class="cursor-active" x="100" y="56" width="8.4" height="19.6" fill="#c9d1d9"/>
</g>
    <animate attributeName="visibility" values="hidden;visible;hidden;hidden" keyTimes="0;0.082124;0.092464;1" dur="5.03s" repeatCount="indefinite" calcMode="discrete" fill="freeze"/>
  </g>

  <g id="frame-9" visibility="hidden">
    <rect class="window-bg" x="0" y="0" width="385" height="335" fill="#1e1e1e" rx="8" ry="8"/>
<g class="chrome"><rect class="header-bg" x="0" y="0" width="385" height="40" fill="#1e1e1e" rx="8" ry="8"/>
<rect x="0" y="32" width="385" height="8" fill="#1e1e1e"/>
<circle cx="22" cy="20" r="6" fill="#ff5f56"/>
<circle cx="42" cy="20" r="6" fill="#ffbd2e"/>
<circle cx="62" cy="20" r="6" fill="#27c93f"/>
<text class="text fg" x="192.5" y="20" text-anchor="middle" style="dominant-baseline: central">FIGLET Art Demo</text></g>
<g class="text-layer">
<text class="text f13" x="16" y="56">❯</text>
<text class="text fg" x="24.4" y="56"> figlet -f</text>
</g>
<g class="cursor-layer">
<rect class="cursor-active" x="108.4" y="56" width="8.4" height="19.6" fill="#c9d1d9"/>
</g>
    <animate attributeName="visibility" values="hidden;visible;hidden;hidden" keyTimes="0;0.092464;0.102406;1" dur="5.03s" repeatCount="indefinite" calcMode="discrete" fill="freeze"/>
  </g>

  <g id="frame-10" visibility="hidden">
    <rect class="window-bg" x="0" y="0" width="385" height="335" fill="#1e1e1e" rx="8" ry="8"/>
<g class="chrome"><rect class="header-bg" x="0" y="0" width="385" height="40" fill="#1e1e1e" rx="8" ry="8"/>
<rect x="0" y="32" width="385" height="8" fill="#1e1e1e"/>
<circle cx="22" cy="20" r="6" fill="#ff5f56"/>
<circle cx="42" cy="20" r="6" fill="#ffbd2e"/>
<circle cx="62" cy="20" r="6" fill="#27c93f"/>
<text class="text fg" x="192.5" y="20" text-anchor="middle" style="dominant-baseline: central">FIGLET Art Demo</text></g>
<g class="text-layer">
<text class="text f13" x="16" y="56">❯</text>
<text class="text fg" x="24.4" y="56"> figlet -f</text>
</g>
<g class="cursor-layer">
<rect class="cursor-active" x="116.8" y="56" width="8.4" height="19.6" fill="#c9d1d9"/>
</g>
    <animate attributeName="visibility" values="hidden;visible;hidden;hidden" keyTimes="0;0.102406;0.111951;1" dur="5.03s" repeatCount="indefinite" calcMode="discrete" fill="freeze"/>
  </g>

  <g id="frame-11" visibility="hidden">
    <rect class="window-bg" x="0" y="0" width="385" height="335" fill="#1e1e1e" rx="8" ry="8"/>
<g class="chrome"><rect class="header-bg" x="0" y="0" width="385" height="40" fill="#1e1e1e" rx="8" ry="8"/>
<rect x="0" y="32" width="385" height="8" fill="#1e1e1e"/>
<circle cx="22" cy="20" r="6" fill="#ff5f56"/>
<circle cx="42" cy="20" r="6" fill="#ffbd2e"/>
<circle cx="62" cy="20" r="6" fill="#27c93f"/>
<text class="text fg" x="192.5" y="20" text-anchor="middle" style="dominant-baseline: central">FIGLET Art Demo</text></g>
<g class="text-layer">
<text class="text f13" x="16" y="56">❯</text>
<text class="text fg" x="24.4" y="56"> figlet -f i</text>
</g>
<g class="cursor-layer">
<rect class="cursor-active" x="125.2" y="56" width="8.4" height="19.6" fill="#c9d1d9"/>
</g>
    <animate attributeName="visibility" values="hidden;visible;hidden;hidden" keyTimes="0;0.111951;0.122092;1" dur="5.03s" repeatCount="indefinite" calcMode="discrete" fill="freeze"/>
  </g>

  <g id="frame-12" visibility="hidden">
    <rect class="window-bg" x="0" y="0" width="385" height="335" fill="#1e1e1e" rx="8" ry="8"/>
<g class="chrome"><rect class="header-bg" x="0" y="0" width="385" height="40" fill="#1e1e1e" rx="8" ry="8"/>
<rect x="0" y="32" width="385" height="8" fill="#1e1e1e"/>
<circle cx="22" cy="20" r="6" fill="#ff5f56"/>
<circle cx="42" cy="20" r="6" fill="#ffbd2e"/>
<circle cx="62" cy="20" r="6" fill="#27c93f"/>
<text class="text fg" x="192.5" y="20" text-anchor="middle" style="dominant-baseline: central">FIGLET Art Demo</text></g>
<g class="text-layer">
<text class="text f13" x="16" y="56">❯</text>
<text class="text fg" x="24.4" y="56"> figlet -f is</text>
</g>
<g class="cursor-layer">
<rect class="cursor-active" x="133.6" y="56" width="8.4" height="19.6" fill="#c9d1d9"/>
</g>
    <animate attributeName="visibility" values="hidden;visible;hidden;hidden" keyTimes="0;0.122092;0.132432;1" dur="5.03s" repeatCount="indefinite" calcMode="discrete" fill="freeze"/>
  </g>

  <g id="frame-13" visibility="hidden">
    <rect class="window-bg" x="0" y="0" width="385" height="335" fill="#1e1e1e" rx="8" ry="8"/>
<g class="chrome"><rect class="header-bg" x="0" y="0" width="385" height="40" fill="#1e1e1e" rx="8" ry="8"/>
<rect x="0" y="32" width="385" height="8" fill="#1e1e1e"/>
<circle cx="22" cy="20" r="6" fill="#ff5f56"/>
<circle cx="42" cy="20" r="6" fill="#ffbd2e"/>
<circle cx="62" cy="20" r="6" fill="#27c93f"/>
<text class="text fg" x="192.5" y="20" text-anchor="middle" style="dominant-baseline: central">FIGLET Art Demo</text></g>
<g class="text-layer">
<text class="text f13" x="16" y="56">❯</text>
<text class="text fg" x="24.4" y="56"> figlet -f iso</text>
</g>
<g class="cursor-layer">
<rect class="cursor-active" x="142" y="56" width="8.4" height="19.6" fill="#c9d1d9"/>
</g>
    <animate attributeName="visibility" values="hidden;visible;hidden;hidden" keyTimes="0;0.132432;0.142573;1" dur="5.03s" repeatCount="indefinite" calcMode="discrete" fill="freeze"/>
  </g>

  <g id="frame-14" visibility="hidden">
    <rect class="window-bg" x="0" y="0" width="385" height="335" fill="#1e1e1e" rx="8" ry="8"/>
<g class="chrome"><rect class="header-bg" x="0" y="0" width="385" height="40" fill="#1e1e1e" rx="8" ry="8"/>
<rect x="0" y="32" width="385" height="8" fill="#1e1e1e"/>
<circle cx="22" cy="20" r="6" fill="#ff5f56"/>
<circle cx="42" cy="20" r="6" fill="#ffbd2e"/>
<circle cx="62" cy="20" r="6" fill="#27c93f"/>
<text class="text fg" x="192.5" y="20" text-anchor="middle" style="dominant-baseline: central">FIGLET Art Demo</text></g>
<g class="text-layer">
<text class="text f13" x="16" y="56">❯</text>
<text class="text fg" x="24.4" y="56"> figlet -f isom</text>
</g>
<g class="cursor-layer">
<rect class="cursor-active" x="150.4" y="56" width="8.4" height="19.6" fill="#c9d1d9"/>
</g>
    <animate attributeName="visibility" values="hidden;visible;hidden;hidden" keyTimes="0;0.142573;0.152913;1" dur="5.03s" repeatCount="indefinite" calcMode="discrete" fill="freeze"/>
  </g>

  <g id="frame-15" visibility="hidden">
    <rect class="window-bg" x="0" y="0" width="385" height="335" fill="#1e1e1e" rx="8" ry="8"/>
<g class="chrome"><rect class="header-bg" x="0" y="0" width="385" height="40" fill="#1e1e1e" rx="8" ry="8"/>
<rect x="0" y="32" width="385" height="8" fill="#1e1e1e"/>
<circle cx="22" cy="20" r="6" fill="#ff5f56"/>
<circle cx="42" cy="20" r="6" fill="#ffbd2e"/>
<circle cx="62" cy="20" r="6" fill="#27c93f"/>
<text class="text fg" x="192.5" y="20" text-anchor="middle" style="dominant-baseline: central">FIGLET Art Demo</text></g>
<g class="text-layer">
<text class="text f13" x="16" y="56">❯</text>
<text class="text fg" x="24.4" y="56"> figlet -f isome</text>
</g>
<g class="cursor-layer">
<rect class="cursor-active" x="158.8" y="56" width="8.4" height="19.6" fill="#c9d1d9"/>
</g>
    <animate attributeName="visibility" values="hidden;visible;hidden;hidden" keyTimes="0;0.152913;0.162657;1" dur="5.03s" repeatCount="indefinite" calcMode="discrete" fill="freeze"/>
  </g>

  <g id="frame-16" visibility="hidden">
    <rect class="window-bg" x="0" y="0" width="385" height="335" fill="#1e1e1e" rx="8" ry="8"/>
<g class="chrome"><rect class="header-bg" x="0" y="0" width="385" height="40" fill="#1e1e1e" rx="8" ry="8"/>
<rect x="0" y="32" width="385" height="8" fill="#1e1e1e"/>
<circle cx="22" cy="20" r="6" fill="#ff5f56"/>
<circle cx="42" cy="20" r="6" fill="#ffbd2e"/>
<circle cx="62" cy="20" r="6" fill="#27c93f"/>
<text class="text fg" x="192.5" y="20" text-anchor="middle" style="dominant-baseline: central">FIGLET Art Demo</text></g>
<g class="text-layer">
<text class="text f13" x="16" y="56">❯</text>
<text class="text fg" x="24.4" y="56"> figlet -f isomet</text>
</g>
<g class="cursor-layer">
<rect class="cursor-active" x="167.2" y="56" width="8.4" height="19.6" fill="#c9d1d9"/>
</g>
    <animate attributeName="visibility" values="hidden;visible;hidden;hidden" keyTimes="0;0.162657;0.172599;1" dur="5.03s" repeatCount="indefinite" calcMode="discrete" fill="freeze"/>
  </g>

  <g id="frame-17" visibility="hidden">
    <rect class="window-bg" x="0" y="0" width="385" height="335" fill="#1e1e1e" rx="8" ry="8"/>
<g class="chrome"><rect class="header-bg" x="0" y="0" width="385" height="40" fill="#1e1e1e" rx="8" ry="8"/>
<rect x="0" y="32" width="385" height="8" fill="#1e1e1e"/>
<circle cx="22" cy="20" r="6" fill="#ff5f56"/>
<circle cx="42" cy="20" r="6" fill="#ffbd2e"/>
<circle cx="62" cy="20" r="6" fill="#27c93f"/>
<text class="text fg" x="192.5" y="20" text-anchor="middle" style="dominant-baseline: central">FIGLET Art Demo</text></g>
<g class="text-layer">
<text class="text f13" x="16" y="56">❯</text>
<text class="text fg" x="24.4" y="56"> figlet -f isometr</text>
</g>
<g class="cursor-layer">
<rect class="cursor-active" x="175.6" y="56" width="8.4" height="19.6" fill="#c9d1d9"/>
</g>
    <animate attributeName="visibility" values="hidden;visible;hidden;hidden" keyTimes="0;0.172599;0.18274;1" dur="5.03s" repeatCount="indefinite" calcMode="discrete" fill="freeze"/>
  </g>

  <g id="frame-18" visibility="hidden">
    <rect class="window-bg" x="0" y="0" width="385" height="335" fill="#1e1e1e" rx="8" ry="8"/>
<g class="chrome"><rect class="header-bg" x="0" y="0" width="385" height="40" fill="#1e1e1e" rx="8" ry="8"/>
<rect x="0" y="32" width="385" height="8" fill="#1e1e1e"/>
<circle cx="22" cy="20" r="6" fill="#ff5f56"/>
<circle cx="42" cy="20" r="6" fill="#ffbd2e"/>
<circle cx="62" cy="20" r="6" fill="#27c93f"/>
<text class="text fg" x="192.5" y="20" text-anchor="middle" style="dominant-baseline: central">FIGLET Art Demo</text></g>
<g class="text-layer">
<text class="text f13" x="16" y="56">❯</text>
<text class="text fg" x="24.4" y="56"> figlet -f isometri</text>
</g>
<g class="cursor-layer">
<rect class="cursor-active" x="184" y="56" width="8.4" height="19.6" fill="#c9d1d9"/>
</g>
    <animate attributeName="visibility" values="hidden;visible;hidden;hidden" keyTimes="0;0.18274;0.19308;1" dur="5.03s" repeatCount="indefinite" calcMode="discrete" fill="freeze"/>
  </g>

  <g id="frame-19" visibility="hidden">
    <rect class="window-bg" x="0" y="0" width="385" height="335" fill="#1e1e1e" rx="8" ry="8"/>
<g class="chrome"><rect class="header-bg" x="0" y="0" width="385" height="40" fill="#1e1e1e" rx="8" ry="8"/>
<rect x="0" y="32" width="385" height="8" fill="#1e1e1e"/>
<circle cx="22" cy="20" r="6" fill="#ff5f56"/>
<circle cx="42" cy="20" r="6" fill="#ffbd2e"/>
<circle cx="62" cy="20" r="6" fill="#27c93f"/>
<text class="text fg" x="192.5" y="20" text-anchor="middle" style="dominant-baseline: central">FIGLET Art Demo</text></g>
<g class="text-layer">
<text class="text f13" x="16" y="56">❯</text>
<text class="text fg" x="24.4" y="56"> figlet -f isometric</text>
</g>
<g class="cursor-layer">
<rect class="cursor-active" x="192.4" y="56" width="8.4" height="19.6" fill="#c9d1d9"/>
</g>
    <animate attributeName="visibility" values="hidden;visible;hidden;hidden" keyTimes="0;0.19308;0.203221;1" dur="5.03s" repeatCount="indefinite" calcMode="discrete" fill="freeze"/>
  </g>

  <g id="frame-20" visibility="hidden">
    <rect class="window-bg" x="0" y="0" width="385" height="335" fill="#1e1e1e" rx="8" ry="8"/>
<g class="chrome"><rect class="header-bg" x="0" y="0" width="385" height="40" fill="#1e1e1e" rx="8" ry="8"/>
<rect x="0" y="32" width="385" height="8" fill="#1e1e1e"/>
<circle cx="22" cy="20" r="6" fill="#ff5f56"/>
<circle cx="42" cy="20" r="6" fill="#ffbd2e"/>
<circle cx="62" cy="20" r="6" fill="#27c93f"/>
<text class="text fg" x="192.5" y="20" text-anchor="middle" style="dominant-baseline: central">FIGLET Art Demo</text></g>
<g class="text-layer">
<text class="text f13" x="16" y="56">❯</text>
<text class="text fg" x="24.4" y="56"> figlet -f isometric3</text>
</g>
<g class="cursor-layer">
<rect class="cursor-active" x="200.8" y="56" width="8.4" height="19.6" fill="#c9d1d9"/>
</g>
    <animate attributeName="visibility" values="hidden;visible;hidden;hidden" keyTimes="0;0.203221;0.212965;1" dur="5.03s" repeatCount="indefinite" calcMode="discrete" fill="freeze"/>
  </g>

  <g id="frame-21" visibility="hidden">
    <rect class="window-bg" x="0" y="0" width="385" height="335" fill="#1e1e1e" rx="8" ry="8"/>
<g class="chrome"><rect class="header-bg" x="0" y="0" width="385" height="40" fill="#1e1e1e" rx="8" ry="8"/>
<rect x="0" y="32" width="385" height="8" fill="#1e1e1e"/>
<circle cx="22" cy="20" r="6" fill="#ff5f56"/>
<circle cx="42" cy="20" r="6" fill="#ffbd2e"/>
<circle cx="62" cy="20" r="6" fill="#27c93f"/>
<text class="text fg" x="192.5" y="20" text-anchor="middle" style="dominant-baseline: central">FIGLET Art Demo</text></g>
<g class="text-layer">
<text class="text f13" x="16" y="56">❯</text>
<text class="text fg" x="24.4" y="56"> figlet -f isometric3</text>
</g>
<g class="cursor-layer">
<rect class="cursor-active" x="209.2" y="56" width="8.4" height="19.6" fill="#c9d1d9"/>
</g>
    <animate attributeName="visibility" values="hidden;visible;hidden;hidden" keyTimes="0;0.212965;0.223106;1" dur="5.03s" repeatCount="indefinite" calcMode="discrete" fill="freeze"/>
  </g>

  <g id="frame-22" visibility="hidden">
    <rect class="window-bg" x="0" y="0" width="385" height="335" fill="#1e1e1e" rx="8" ry="8"/>
<g class="chrome"><rect class="header-bg" x="0" y="0" width="385" height="40" fill="#1e1e1e" rx="8" ry="8"/>
<rect x="0" y="32" width="385" height="8" fill="#1e1e1e"/>
<circle cx="22" cy="20" r="6" fill="#ff5f56"/>
<circle cx="42" cy="20" r="6" fill="#ffbd2e"/>
<circle cx="62" cy="20" r="6" fill="#27c93f"/>
<text class="text fg" x="192.5" y="20" text-anchor="middle" style="dominant-baseline: central">FIGLET Art Demo</text></g>
<g class="text-layer">
<text class="text f13" x="16" y="56">❯</text>
<text class="text fg" x="24.4" y="56"> figlet -f isometric3 d</text>
</g>
<g class="cursor-layer">
<rect class="cursor-active" x="217.6" y="56" width="8.4" height="19.6" fill="#c9d1d9"/>
</g>
    <animate attributeName="visibility" values="hidden;visible;hidden;hidden" keyTimes="0;0.223106;0.233446;1" dur="5.03s" repeatCount="indefinite" calcMode="discrete" fill="freeze"/>
  </g>

  <g id="frame-23" visibility="hidden">
    <rect class="window-bg" x="0" y="0" width="385" height="335" fill="#1e1e1e" rx="8" ry="8"/>
<g class="chrome"><rect class="header-bg" x="0" y="0" width="385" height="40" fill="#1e1e1e" rx="8" ry="8"/>
<rect x="0" y="32" width="385" height="8" fill="#1e1e1e"/>
<circle cx="22" cy="20" r="6" fill="#ff5f56"/>
<circle cx="42" cy="20" r="6" fill="#ffbd2e"/>
<circle cx="62" cy="20" r="6" fill="#27c93f"/>
<text class="text fg" x="192.5" y="20" text-anchor="middle" style="dominant-baseline: central">FIGLET Art Demo</text></g>
<g class="text-layer">
<text class="text f13" x="16" y="56">❯</text>
<text class="text fg" x="24.4" y="56"> figlet -f isometric3 dv</text>
</g>
<g class="cursor-layer">
<rect class="cursor-active" x="226" y="56" width="8.4" height="19.6" fill="#c9d1d9"/>
</g>
    <animate attributeName="visibility" values="hidden;visible;hidden;hidden" keyTimes="0;0.233446;0.243587;1" dur="5.03s" repeatCount="indefinite" calcMode="discrete" fill="freeze"/>
  </g>

  <g id="frame-24" visibility="hidden">
    <rect class="window-bg" x="0" y="0" width="385" height="335" fill="#1e1e1e" rx="8" ry="8"/>
<g class="chrome"><rect class="header-bg" x="0" y="0" width="385" height="40" fill="#1e1e1e" rx="8" ry="8"/>
<rect x="0" y="32" width="385" height="8" fill="#1e1e1e"/>
<circle cx="22" cy="20" r="6" fill="#ff5f56"/>
<circle cx="42" cy="20" r="6" fill="#ffbd2e"/>
<circle cx="62" cy="20" r="6" fill="#27c93f"/>
<text class="text fg" x="192.5" y="20" text-anchor="middle" style="dominant-baseline: central">FIGLET Art Demo</text></g>
<g class="text-layer">
<text class="text f13" x="16" y="56">❯</text>
<text class="text fg" x="24.4" y="56"> figlet -f isometric3 dvd</text>
</g>
<g class="cursor-layer">
<rect class="cursor-active" x="234.4" y="56" width="8.4" height="19.6" fill="#c9d1d9"/>
</g>
    <animate attributeName="visibility" values="hidden;visible;hidden;hidden" keyTimes="0;0.243587;0.243786;1" dur="5.03s" repeatCount="indefinite" calcMode="discrete" fill="freeze"/>
  </g>

  <g id="frame-25" visibility="hidden">
    <rect class="window-bg" x="0" y="0" width="385" height="335" fill="#1e1e1e" rx="8" ry="8"/>
<g class="chrome"><rect class="header-bg" x="0" y="0" width="385" height="40" fill="#1e1e1e" rx="8" ry="8"/>
<rect x="0" y="32" width="385" height="8" fill="#1e1e1e"/>
<circle cx="22" cy="20" r="6" fill="#ff5f56"/>
<circle cx="42" cy="20" r="6" fill="#ffbd2e"/>
<circle cx="62" cy="20" r="6" fill="#27c93f"/>
<text class="text fg" x="192.5" y="20" text-anchor="middle" style="dominant-baseline: central">FIGLET Art Demo</text></g>
<g class="text-layer">
<text class="text f13" x="16" y="56">❯</text>
<text class="text fg" x="24.4" y="56"> figlet -f isometric3 dvd</text>
</g>
<g class="cursor-layer">
<rect class="cursor" x="234.4" y="56" width="8.4" height="19.6" fill="#c9d1d9"/>
</g>
    <animate attributeName="visibility" values="hidden;visible;hidden;hidden" keyTimes="0;0.243786;0.344402;1" dur="5.03s" repeatCount="indefinite" calcMode="discrete" fill="freeze"/>
  </g>

  <g id="frame-26" visibility="hidden">
    <rect class="window-bg" x="0" y="0" width="385" height="335" fill="#1e1e1e" rx="8" ry="8"/>
<g class="chrome"><rect class="header-bg" x="0" y="0" width="385" height="40" fill="#1e1e1e" rx="8" ry="8"/>
<rect x="0" y="32" width="385" height="8" fill="#1e1e1e"/>
<circle cx="22" cy="20" r="6" fill="#ff5f56"/>
<circle cx="42" cy="20" r="6" fill="#ffbd2e"/>
<circle cx="62" cy="20" r="6" fill="#27c93f"/>
<text class="text fg" x="192.5" y="20" text-anchor="middle" style="dominant-baseline: central">FIGLET Art Demo</text></g>
<g class="text-layer">
<text class="text f13" x="16" y="56">❯</text>
<text class="text fg" x="24.4" y="56"> figlet -f isometric3 dvd</text>
</g>
<g class="cursor-layer">
<rect class="cursor" x="234.4" y="56" width="8.4" height="19.6" fill="#c9d1d9"/>
</g>
    <animate attributeName="visibility" values="hidden;visible;hidden;hidden" keyTimes="0;0.344402;0.365083;1" dur="5.03s" repeatCount="indefinite" calcMode="discrete" fill="freeze"/>
  </g>

  <g id="frame-27" visibility="hidden">
    <rect class="window-bg" x="0" y="0" width="385" height="335" fill="#1e1e1e" rx="8" ry="8"/>
<g class="chrome"><rect class="header-bg" x="0" y="0" width="385" height="40" fill="#1e1e1e" rx="8" ry="8"/>
<rect x="0" y="32" width="385" height="8" fill="#1e1e1e"/>
<circle cx="22" cy="20" r="6" fill="#ff5f56"/>
<circle cx="42" cy="20" r="6" fill="#ffbd2e"/>
<circle cx="62" cy="20" r="6" fill="#27c93f"/>
<text class="text fg" x="192.5" y="20" text-anchor="middle" style="dominant-baseline: central">FIGLET Art Demo</text></g>
<g class="text-layer">
<text class="text f13" x="16" y="56">❯</text>
<text class="text fg" x="24.4" y="56"> figlet -f isometric3 dvd</text>
</g>
    <animate attributeName="visibility" values="hidden;visible;hidden;hidden" keyTimes="0;0.365083;0.372241;1" dur="5.03s" repeatCount="indefinite" calcMode="discrete" fill="freeze"/>
  </g>

  <g id="frame-28" visibility="hidden">
    <rect class="window-bg" x="0" y="0" width="385" height="335" fill="#1e1e1e" rx="8" ry="8"/>
<g class="chrome"><rect class="header-bg" x="0" y="0" width="385" height="40" fill="#1e1e1e" rx="8" ry="8"/>
<rect x="0" y="32" width="385" height="8" fill="#1e1e1e"/>
<circle cx="22" cy="20" r="6" fill="#ff5f56"/>
<circle cx="42" cy="20" r="6" fill="#ffbd2e"/>
<circle cx="62" cy="20" r="6" fill="#27c93f"/>
<text class="text fg" x="192.5" y="20" text-anchor="middle" style="dominant-baseline: central">FIGLET Art Demo</text></g>
<g class="text-layer">
<text class="text f13" x="16" y="56">❯</text>
<text class="text fg" x="24.4" y="56"> figlet -f isometric3 dvd</text>
<text class="text fg" x="16" y="75.6">     _____                      _____</text>
<text class="text fg" x="16" y="95.2">    /  /::\         ___        /  /::\</text>
<text class="text fg" x="16" y="114.8">   /  /:/\:\       /__/\      /  /:/\:\</text>
<text class="text fg" x="16" y="134.4">  /  /:/  \:\      \  \:\    /  /:/  \:\</text>
<text class="text fg" x="16" y="154"> /__/:/ \__\:|      \  \:\  /__/:/ \__\:|</text>
<text class="text fg" x="16" y="173.6"> \  \:\ /  /:/  ___  \__\:\ \  \:\ /  /:/</text>
<text class="text fg" x="16" y="193.2">  \  \:\  /:/  /__/\ |  |:|  \  \:\  /:/</text>
<text class="text fg" x="16" y="212.8">   \  \:\/:/   \  \:\|  |:|   \  \:\/:/</text>
<text class="text fg" x="16" y="232.4">    \  \::/     \  \:\__|:|    \  \::/</text>
<text class="text fg" x="16" y="252">     \__\/       \__\::::/      \__\/</text>
<text class="text fg" x="16" y="271.6">                     ~~~~</text>
</g>
    <animate attributeName="visibility" values="hidden;visible;hidden;hidden" keyTimes="0;0.372241;0.397296;1" dur="5.03s" repeatCount="indefinite" calcMode="discrete" fill="freeze"/>
  </g>

  <g id="frame-29" visibility="hidden">
    <rect class="window-bg" x="0" y="0" width="385" height="335" fill="#1e1e1e" rx="8" ry="8"/>
<g class="chrome"><rect class="header-bg" x="0" y="0" width="385" height="40" fill="#1e1e1e" rx="8" ry="8"/>
<rect x="0" y="32" width="385" height="8" fill="#1e1e1e"/>
<circle cx="22" cy="20" r="6" fill="#ff5f56"/>
<circle cx="42" cy="20" r="6" fill="#ffbd2e"/>
<circle cx="62" cy="20" r="6" fill="#27c93f"/>
<text class="text fg" x="192.5" y="20" text-anchor="middle" style="dominant-baseline: central">FIGLET Art Demo</text></g>
<g class="text-layer">
<text class="text f13" x="16" y="56">❯</text>
<text class="text fg" x="24.4" y="56"> figlet -f isometric3 dvd</text>
<text class="text fg" x="16" y="75.6">     _____                      _____</text>
<text class="text fg" x="16" y="95.2">    /  /::\         ___        /  /::\</text>
<text class="text fg" x="16" y="114.8">   /  /:/\:\       /__/\      /  /:/\:\</text>
<text class="text fg" x="16" y="134.4">  /  /:/  \:\      \  \:\    /  /:/  \:\</text>
<text class="text fg" x="16" y="154"> /__/:/ \__\:|      \  \:\  /__/:/ \__\:|</text>
<text class="text fg" x="16" y="173.6"> \  \:\ /  /:/  ___  \__\:\ \  \:\ /  /:/</text>
<text class="text fg" x="16" y="193.2">  \  \:\  /:/  /__/\ |  |:|  \  \:\  /:/</text>
<text class="text fg" x="16" y="212.8">   \  \:\/:/   \  \:\|  |:|   \  \:\/:/</text>
<text class="text fg" x="16" y="232.4">    \  \::/     \  \:\__|:|    \  \::/</text>
<text class="text fg" x="16" y="252">     \__\/       \__\::::/      \__\/</text>
<text class="text fg" x="16" y="271.6">                     ~~~~</text>
<text class="text f13" x="16" y="291.2">❯</text>
</g>
<g class="cursor-layer">
<rect class="cursor" x="32.8" y="291.2" width="8.4" height="19.6" fill="#c9d1d9"/>
</g>
    <animate attributeName="visibility" values="hidden;visible;hidden;hidden" keyTimes="0;0.397296;0.798171;1" dur="5.03s" repeatCount="indefinite" calcMode="discrete" fill="freeze"/>
  </g>

  <g id="frame-30" visibility="hidden">
    <rect class="window-bg" x="0" y="0" width="385" height="335" fill="#1e1e1e" rx="8" ry="8"/>
<g class="chrome"><rect class="header-bg" x="0" y="0" width="385" height="40" fill="#1e1e1e" rx="8" ry="8"/>
<rect x="0" y="32" width="385" height="8" fill="#1e1e1e"/>
<circle cx="22" cy="20" r="6" fill="#ff5f56"/>
<circle cx="42" cy="20" r="6" fill="#ffbd2e"/>
<circle cx="62" cy="20" r="6" fill="#27c93f"/>
<text class="text fg" x="192.5" y="20" text-anchor="middle" style="dominant-baseline: central">FIGLET Art Demo</text></g>
<g class="text-layer">
<text class="text f13" x="16" y="56">❯</text>
<text class="text fg" x="24.4" y="56"> figlet -f isometric3 dvd</text>
<text class="text fg" x="16" y="75.6">     _____                      _____</text>
<text class="text fg" x="16" y="95.2">    /  /::\         ___        /  /::\</text>
<text class="text fg" x="16" y="114.8">   /  /:/\:\       /__/\      /  /:/\:\</text>
<text class="text fg" x="16" y="134.4">  /  /:/  \:\      \  \:\    /  /:/  \:\</text>
<text class="text fg" x="16" y="154"> /__/:/ \__\:|      \  \:\  /__/:/ \__\:|</text>
<text class="text fg" x="16" y="173.6"> \  \:\ /  /:/  ___  \__\:\ \  \:\ /  /:/</text>
<text class="text fg" x="16" y="193.2">  \  \:\  /:/  /__/\ |  |:|  \  \:\  /:/</text>
<text class="text fg" x="16" y="212.8">   \  \:\/:/   \  \:\|  |:|   \  \:\/:/</text>
<text class="text fg" x="16" y="232.4">    \  \::/     \  \:\__|:|    \  \::/</text>
<text class="text fg" x="16" y="252">     \__\/       \__\::::/      \__\/</text>
<text class="text fg" x="16" y="271.6">                     ~~~~</text>
<text class="text f13" x="16" y="291.2">❯</text>
</g>
<g class="cursor-layer">
<rect class="cursor" x="32.8" y="291.2" width="8.4" height="19.6" fill="#c9d1d9"/>
</g>
    <animate attributeName="visibility" values="hidden;visible;hidden;hidden" keyTimes="0;0.798171;0.801153;1" dur="5.03s" repeatCount="indefinite" calcMode="discrete" fill="freeze"/>
  </g>

  <g id="frame-31" visibility="hidden">
    <rect class="window-bg" x="0" y="0" width="385" height="335" fill="#1e1e1e" rx="8" ry="8"/>
<g class="chrome"><rect class="header-bg" x="0" y="0" width="385" height="40" fill="#1e1e1e" rx="8" ry="8"/>
<rect x="0" y="32" width="385" height="8" fill="#1e1e1e"/>
<circle cx="22" cy="20" r="6" fill="#ff5f56"/>
<circle cx="42" cy="20" r="6" fill="#ffbd2e"/>
<circle cx="62" cy="20" r="6" fill="#27c93f"/>
<text class="text fg" x="192.5" y="20" text-anchor="middle" style="dominant-baseline: central">FIGLET Art Demo</text></g>
<g class="text-layer">
<text class="text f13" x="16" y="56">❯</text>
<text class="text fg" x="24.4" y="56"> figlet -f isometric3 dvd</text>
<text class="text fg" x="16" y="75.6">     _____                      _____</text>
<text class="text fg" x="16" y="95.2">    /  /::\         ___        /  /::\</text>
<text class="text fg" x="16" y="114.8">   /  /:/\:\       /__/\      /  /:/\:\</text>
<text class="text fg" x="16" y="134.4">  /  /:/  \:\      \  \:\    /  /:/  \:\</text>
<text class="text fg" x="16" y="154"> /__/:/ \__\:|      \  \:\  /__/:/ \__\:|</text>
<text class="text fg" x="16" y="173.6"> \  \:\ /  /:/  ___  \__\:\ \  \:\ /  /:/</text>
<text class="text fg" x="16" y="193.2">  \  \:\  /:/  /__/\ |  |:|  \  \:\  /:/</text>
<text class="text fg" x="16" y="212.8">   \  \:\/:/   \  \:\|  |:|   \  \:\/:/</text>
<text class="text fg" x="16" y="232.4">    \  \::/     \  \:\__|:|    \  \::/</text>
<text class="text fg" x="16" y="252">     \__\/       \__\::::/      \__\/</text>
<text class="text fg" x="16" y="271.6">                     ~~~~</text>
<text class="text f13" x="16" y="291.2">❯</text>
</g>
<g class="cursor-layer">
<rect class="cursor" x="32.8" y="291.2" width="8.4" height="19.6" fill="#c9d1d9"/>
</g>
    <animate attributeName="visibility" values="hidden;visible;visible" keyTimes="0;0.801153;1" dur="5.03s" repeatCount="indefinite" calcMode="discrete" fill="freeze"/>
  </g>
  </g>
</svg>