<svg width="385" height="335" xmlns="http://www.w3.org/2000/svg">
  <defs><clipPath id="rounded-corners"><rect x="0" y="0" width="385" height="335" rx="8" ry="8"/></clipPath></defs>
  <style>
    
.text {
  font-family: 'SF Mono', 'Monaco', 'Menlo', 'Consolas', monospace;
  font-size: 14px;
  dominant-baseline: text-before-edge;
  text-rendering: geometricPrecision;
  white-space: pre;
}
.bold { font-weight: bold; }
.italic { font-style: italic; }
.uline { text-decoration: underline; }
.strike { text-decoration: line-through; }
.dim { opacity: 0.5; }
.fg { fill: #ebdbb2; }
.f0 { fill: #282828; }
.f1 { fill: #cc241d; }
.f2 { fill: #98971a; }
.f3 { fill: #d79921; }
.f4 { fill: #458588; }
.f5 { fill: #b16286; }
.f6 { fill: #689d6a; }
.f7 { fill: #a89984; }
.f8 { fill: #928374; }
.f9 { fill: #fb4934; }
.f10 { fill: #b8bb26; }
.f11 { fill: #fabd2f; }
.f12 { fill: #83a598; }
.f13 { fill: #d3869b; }
.f14 { fill: #8ec07c; }
.f15 { fill: #ebdbb2; }
.bg { fill: #282828; }
.b0 { fill: #282828; }
.b1 { fill: #cc241d; }
.b2 { fill: #98971a; }
.b3 { fill: #d79921; }
.b4 { fill: #458588; }
.b5 { fill: #b16286; }
.b6 { fill: #689d6a; }
.b7 { fill: #a89984; }
.b8 { fill: #928374; }
.b9 { fill: #fb4934; }
.b10 { fill: #b8bb26; }
.b11 { fill: #fabd2f; }
.b12 { fill: #83a598; }
.b13 { fill: #d3869b; }
.b14 { fill: #8ec07c; }
.b15 { fill: #ebdbb2; }
.cursor { animation: blink 1s step-end infinite; }
@keyframes blink {
  0%, 50% { opacity: 1; }
  50.01%, 100% { opacity: 0; }
}
.cursor-active { opacity: 1; }

  </style>

  <g clip-path="url(#rounded-corners)">
  <!-- Persistent background - never animated -->
  <rect width="100%" height="100%" fill="#282828" rx="8" ry="8" />

  <!-- Animated frames with discrete visibility transitions -->
  
  <g id="frame-0" visibility="visible">
    <rect class="window-bg" x="0" y="0" width="385" height="335" fill="#282828" rx="8" ry="8"/>
<g class="chrome"><rect class="header-bg" x="0" y="0" width="385" height="40" fill="#282828" rx="8" ry="8"/>
<rect x="0" y="32" width="385" height="8" fill="#282828"/>
<circle cx="22" cy="20" r="6" fill="#ff5f56"/>
<circle cx="42" cy="20" r="6" fill="#ffbd2e"/>
<circle cx="62" cy="20" r="6" fill="#27c93f"/>
<text class="text fg" x="192.5" y="20" text-anchor="middle" style="dominant-baseline: central">FIGLET Art Demo</text></g>
<g class="text-layer">
<text class="text f13" x="16" y="56">❯</text>
</g>
<g class="cursor-layer">
<rect class="cursor" x="32.8" y="56" width="8.4" height="19.6" fill="#ebdbb2"/>
</g>
    <animate attributeName="visibility" values="visible;hidden;hidden" keyTimes="0;0.010989;1" dur="5.00s" repeatCount="indefinite" calcMode="discrete" fill="freeze"/>
  </g>

  <g id="frame-1" visibility="hidden">
    <rect class="window-bg" x="0" y="0" width="385" height="335" fill="#282828" rx="8" ry="8"/>
<g class="chrome"><rect class="header-bg" x="0" y="0" width="385" height="40" fill="#282828" rx="8" ry="8"/>
<rect x="0" y="32" width="385" height="8" fill="#282828"/>
<circle cx="22" cy="20" r="6" fill="#ff5f56"/>
<circle cx="42" cy="20" r="6" fill="#ffbd2e"/>
<circle cx="62" cy="20" r="6" fill="#27c93f"/>
<text class="text fg" x="192.5" y="20" text-anchor="middle" style="dominant-baseline: central">FIGLET Art Demo</text></g>
<g class="text-layer">
<text class="text f13" x="16" y="56">❯</text>
<text class="text fg" x="24.4" y="56"> f</text>
</g>
<g class="cursor-layer">
<rect class="cursor-active" x="41.2" y="56" width="8.4" height="19.6" fill="#ebdbb2"/>
</g>
    <animate attributeName="visibility" values="hidden;visible;hidden;hidden" keyTimes="0;0.010989;0.021379;1" dur="5.00s" repeatCount="indefinite" calcMode="discrete" fill="freeze"/>
  </g>

  <g id="frame-2" visibility="hidden">
    <rect class="window-bg" x="0" y="0" width="385" height="335" fill="#282828" rx="8" ry="8"/>
<g class="chrome"><rect class="header-bg" x="0" y="0" width="385" height="40" fill="#282828" rx="8" ry="8"/>
<rect x="0" y="32" width="385" height="8" fill="#282828"/>
<circle cx="22" cy="20" r="6" fill="#ff5f56"/>
<circle cx="42" cy="20" r="6" fill="#ffbd2e"/>
<circle cx="62" cy="20" r="6" fill="#27c93f"/>
<text class="text fg" x="192.5" y="20" text-anchor="middle" style="dominant-baseline: central">FIGLET Art Demo</text></g>
<g class="text-layer">
<text class="text f13" x="16" y="56">❯</text>
<text class="text fg" x="24.4" y="56"> fi</text>
</g>
<g class="cursor-layer">
<rect class="cursor-active" x="49.6" y="56" width="8.4" height="19.6" fill="#ebdbb2"/>
</g>
    <animate attributeName="visibility" values="hidden;visible;hidden;hidden" keyTimes="0;0.021379;0.031568;1" dur="5.00s" repeatCount="indefinite" calcMode="discrete" fill="freeze"/>
  </g>

  <g id="frame-3" visibility="hidden">
    <rect class="window-bg" x="0" y="0" width="385" height="335" fill="#282828" rx="8" ry="8"/>
<g class="chrome"><rect class="header-bg" x="0" y="0" width="385" height="40" fill="#282828" rx="8" ry="8"/>
<rect x="0" y="32" width="385" height="8" fill="#282828"/>
<circle cx="22" cy="20" r="6" fill="#ff5f56"/>
<circle cx="42" cy="20" r="6" fill="#ffbd2e"/>
<circle cx="62" cy="20" r="6" fill="#27c93f"/>
<text class="text fg" x="192.5" y="20" text-anchor="middle" style="dominant-baseline: central">FIGLET Art Demo</text></g>
<g class="text-layer">
<text class="text f13" x="16" y="56">❯</text>
<text class="text fg" x="24.4" y="56"> fig</text>
</g>
<g class="cursor-layer">
<rect class="cursor-active" x="58" y="56" width="8.4" height="19.6" fill="#ebdbb2"/>
</g>
    <animate attributeName="visibility" values="hidden;visible;hidden;hidden" keyTimes="0;0.031568;0.041758;1" dur="5.00s" repeatCount="indefinite" calcMode="discrete" fill="freeze"/>
  </g>

  <g id="frame-4" visibility="hidden">
    <rect class="window-bg" x="0" y="0" width="385" height="335" fill="#282828" rx="8" ry="8"/>
<g class="chrome"><rect class="header-bg" x="0" y="0" width="385" height="40" fill="#282828" rx="8" ry="8"/>
<rect x="0" y="32" width="385" height="8" fill="#282828"/>
<circle cx="22" cy="20" r="6" fill="#ff5f56"/>
<circle cx="42" cy="20" r="6" fill="#ffbd2e"/>
<circle cx="62" cy="20" r="6" fill="#27c93f"/>
<text class="text fg" x="192.5" y="20" text-anchor="middle" style="dominant-baseline: central">FIGLET Art Demo</text></g>
<g class="text-layer">
<text class="text f13" x="16" y="56">❯</text>
<text class="text fg" x="24.4" y="56"> figl</text>
</g>
<g class="cursor-layer">
<rect class="cursor-active" x="66.4" y="56" width="8.4" height="19.6" fill="#ebdbb2"/>
</g>
    <animate attributeName="visibility" values="hidden;visible;hidden;hidden" keyTimes="0;0.041758;0.051948;1" dur="5.00s" repeatCount="indefinite" calcMode="discrete" fill="freeze"/>
  </g>

  <g id="frame-5" visibility="hidden">
    <rect class="window-bg" x="0" y="0" width="385" height="335" fill="#282828" rx="8" ry="8"/>
<g class="chrome"><rect class="header-bg" x="0" y="0" width="385" height="40" fill="#282828" rx="8" ry="8"/>
<rect x="0" y="32" width="385" height="8" fill="#282828"/>
<circle cx="22" cy="20" r="6" fill="#ff5f56"/>
<circle cx="42" cy="20" r="6" fill="#ffbd2e"/>
<circle cx="62" cy="20" r="6" fill="#27c93f"/>
<text class="text fg" x="192.5" y="20" text-anchor="middle" style="dominant-baseline: central">FIGLET Art Demo</text></g>
<g class="text-layer">
<text class="text f13" x="16" y="56">❯</text>
<text class="text fg" x="24.4" y="56"> figle</text>
</g>
<g class="cursor-layer">
<rect class="cursor-active" x="74.8" y="56" width="8.4" height="19.6" fill="#ebdbb2"/>
</g>
    <animate attributeName="visibility" values="hidden;visible;hidden;hidden" keyTimes="0;0.051948;0.062338;1" dur="5.00s" repeatCount="indefinite" calcMode="discrete" fill="freeze"/>
  </g>

  <g id="frame-6" visibility="hidden">
    <rect class="window-bg" x="0" y="0" width="385" height="335" fill="#282828" rx="8" ry="8"/>
<g class="chrome"><rect class="header-bg" x="0" y="0" width="385" height="40" fill="#282828" rx="8" ry="8"/>
<rect x="0" y="32" width="385" height="8" fill="#282828"/>
<circle cx="22" cy="20" r="6" fill="#ff5f56"/>
<circle cx="42" cy="20" r="6" fill="#ffbd2e"/>
<circle cx="62" cy="20" r="6" fill="#27c93f"/>
<text class="text fg" x="192.5" y="20" text-anchor="middle" style="dominant-baseline: central">FIGLET Art Demo</text></g>
<g class="text-layer">
<text class="text f13" x="16" y="56">❯</text>
<text class="text fg" x="24.4" y="56"> figlet</text>
</g>
<g class="cursor-layer">
<rect class="cursor-active" x="83.2" y="56" width="8.4" height="19.6" fill="#ebdbb2"/>
</g>
    <animate attributeName="visibility" values="hidden;visible;hidden;hidden" keyTimes="0;0.062338;0.072328;1" dur="5.00s" repeatCount="indefinite" calcMode="discrete" fill="freeze"/>
  </g>

  <g id="frame-7" visibility="hidden">
    <rect class="window-bg" x="0" y="0" width="385" height="335" fill="#282828" rx="8" ry="8"/>
<g class="chrome"><rect class="header-bg" x="0" y="0" width="385" height="40" fill="#282828" rx="8" ry="8"/>
<rect x="0" y="32" width="385" height="8" fill="#282828"/>
<circle cx="22" cy="20" r="6" fill="#ff5f56"/>
<circle cx="42" cy="20" r="6" fill="#ffbd2e"/>
<circle cx="62" cy="20" r="6" fill="#27c93f"/>
<text class="text fg" x="192.5" y="20" text-anchor="middle" style="dominant-baseline: central">FIGLET Art Demo</text></g>
<g class="text-layer">
<text class="text f13" x="16" y="56">❯</text>
<text class="text fg" x="24.4" y="56"> figlet</text>
</g>
<g class="cursor-layer">
<rect class="cursor-active" x="91.6" y="56" width="8.4" height="19.6" fill="#ebdbb2"/>
</g>
    <animate attributeName="visibility" values="hidden;visible;hidden;hidden" keyTimes="0;0.072328;0.082717;1" dur="5.00s" repeatCount="indefinite" calcMode="discrete" fill="freeze"/>
  </g>

  <g id="frame-8" visibility="hidden">
    <rect class="window-bg" x="0" y="0" width="385" height="335" fill="#282828" rx="8" ry="8"/>
<g class="chrome"><rect class="header-bg" x="0" y="0" width="385" height="40" fill="#282828" rx="8" ry="8"/>
<rect x="0" y="32" width="385" height="8" fill="#282828"/>
<circle cx="22" cy="20" r="6" fill="#ff5f56"/>
<circle cx="42" cy="20" r="6" fill="#ffbd2e"/>
<circle cx="62" cy="20" r="6" fill="#27c93f"/>
<text class="text fg" x="192.5" y="20" text-anchor="middle" style="dominant-baseline: central">FIGLET Art Demo</text></g>
<g class="text-layer">
<text class="text f13" x="16" y="56">❯</text>
<text class="text fg" x="24.4" y="56"> figlet -</text>
</g>
<g class="cursor-layer">
<rect class="cursor-active" x="100" y="56" width="8.4" height="19.6" fill="#ebdbb2"/>
</g>
    <animate attributeName="visibility" values="hidden;visible;hidden;hidden" keyTimes="0;0.082717;0.092707;1" dur="5.00s" repeatCount="indefinite" calcMode="discrete" fill="freeze"/>
  </g>

  <g id="frame-9" visibility="hidden">
    <rect class="window-bg" x="0" y="0" width="385" height="335" fill="#282828" rx="8" ry="8"/>
<g class="chrome"><rect class="header-bg" x="0" y="0" width="385" height="40" fill="#282828" rx="8" ry="8"/>
<rect x="0" y="32" width="385" height="8" fill="#282828"/>
<circle cx="22" cy="20" r="6" fill="#ff5f56"/>
<circle cx="42" cy="20" r="6" fill="#ffbd2e"/>
<circle cx="62" cy="20" r="6" fill="#27c93f"/>
<text class="text fg" x="192.5" y="20" text-anchor="middle" style="dominant-baseline: central">FIGLET Art Demo</text></g>
<g class="text-layer">
<text class="text f13" x="16" y="56">❯</text>
<text class="text fg" x="24.4" y="56"> figlet -f</text>
</g>
<g class="cursor-layer">
<rect class="cursor-active" x="108.4" y="56" width="8.4" height="19.6" fill="#ebdbb2"/>
</g>
    <animate attributeName="visibility" values="hidden;visible;hidden;hidden" keyTimes="0;0.092707;0.102897;1" dur="5.00s" repeatCount="indefinite" calcMode="discrete" fill="freeze"/>
  </g>

  <g id="frame-10" visibility="hidden">
    <rect class="window-bg" x="0" y="0" width="385" height="335" fill="#282828" rx="8" ry="8"/>
<g class="chrome"><rect class="header-bg" x="0" y="0" width="385" height="40" fill="#282828" rx="8" ry="8"/>
<rect x="0" y="32" width="385" height="8" fill="#282828"/>
<circle cx="22" cy="20" r="6" fill="#ff5f56"/>
<circle cx="42" cy="20" r="6" fill="#ffbd2e"/>
<circle cx="62" cy="20" r="6" fill="#27c93f"/>
<text class="text fg" x="192.5" y="20" text-anchor="middle" style="dominant-baseline: central">FIGLET Art Demo</text></g>
<g class="text-layer">
<text class="text f13" x="16" y="56">❯</text>
<text class="text fg" x="24.4" y="56"> figlet -f</text>
</g>
<g class="cursor-layer">
<rect class="cursor-active" x="116.8" y="56" width="8.4" height="19.6" fill="#ebdbb2"/>
</g>
    <animate attributeName="visibility" values="hidden;visible;hidden;hidden" keyTimes="0;0.102897;0.113287;1" dur="5.00s" repeatCount="indefinite" calcMode="discrete" fill="freeze"/>
  </g>

  <g id="frame-11" visibility="hidden">
    <rect class="window-bg" x="0" y="0" width="385" height="335" fill="#282828" rx="8" ry="8"/>
<g class="chrome"><rect class="header-bg" x="0" y="0" width="385" height="40" fill="#282828" rx="8" ry="8"/>
<rect x="0" y="32" width="385" height="8" fill="#282828"/>
<circle cx="22" cy="20" r="6" fill="#ff5f56"/>
<circle cx="42" cy="20" r="6" fill="#ffbd2e"/>
<circle cx="62" cy="20" r="6" fill="#27c93f"/>
<text class="text fg" x="192.5" y="20" text-anchor="middle" style="dominant-baseline: central">FIGLET Art Demo</text></g>
<g class="text-layer">
<text class="text f13" x="16" y="56">❯</text>
<text class="text fg" x="24.4" y="56"> figlet -f i</text>
</g>
<g class="cursor-layer">
<rect class="cursor-active" x="125.2" y="56" width="8.4" height="19.6" fill="#ebdbb2"/>
</g>
    <animate attributeName="visibility" values="hidden;visible;hidden;hidden" keyTimes="0;0.113287;0.123277;1" dur="5.00s" repeatCount="indefinite" calcMode="discrete" fill="freeze"/>
  </g>

  <g id="frame-12" visibility="hidden">
    <rect class="window-bg" x="0" y="0" width="385" height="335" fill="#282828" rx="8" ry="8"/>
<g class="chrome"><rect class="header-bg" x="0" y="0" width="385" height="40" fill="#282828" rx="8" ry="8"/>
<rect x="0" y="32" width="385" height="8" fill="#282828"/>
<circle cx="22" cy="20" r="6" fill="#ff5f56"/>
<circle cx="42" cy="20" r="6" fill="#ffbd2e"/>
<circle cx="62" cy="20" r="6" fill="#27c93f"/>
<text class="text fg" x="192.5" y="20" text-anchor="middle" style="dominant-baseline: central">FIGLET Art Demo</text></g>
<g class="text-layer">
<text class="text f13" x="16" y="56">❯</text>
<text class="text fg" x="24.4" y="56"> figlet -f is</text>
</g>
<g class="cursor-layer">
<rect class="cursor-active" x="133.6" y="56" width="8.4" height="19.6" fill="#ebdbb2"/>
</g>
    <animate attributeName="visibility" values="hidden;visible;hidden;hidden" keyTimes="0;0.123277;0.133467;1" dur="5.00s" repeatCount="indefinite" calcMode="discrete" fill="freeze"/>
  </g>

  <g id="frame-13" visibility="hidden">
    <rect class="window-bg" x="0" y="0" width="385" height="335" fill="#282828" rx="8" ry="8"/>
<g class="chrome"><rect class="header-bg" x="0" y="0" width="385" height="40" fill="#282828" rx="8" ry="8"/>
<rect x="0" y="32" width="385" height="8" fill="#282828"/>
<circle cx="22" cy="20" r="6" fill="#ff5f56"/>
<circle cx="42" cy="20" r="6" fill="#ffbd2e"/>
<circle cx="62" cy="20" r="6" fill="#27c93f"/>
<text class="text fg" x="192.5" y="20" text-anchor="middle" style="dominant-baseline: central">FIGLET Art Demo</text></g>
<g class="text-layer">
<text class="text f13" x="16" y="56">❯</text>
<text class="text fg" x="24.4" y="56"> figlet -f iso</text>
</g>
<g class="cursor-layer">
<rect class="cursor-active" x="142" y="56" width="8.4" height="19.6" fill="#ebdbb2"/>
</g>
    <animate attributeName="visibility" values="hidden;visible;hidden;hidden" keyTimes="0;0.133467;0.144056;1" dur="5.00s" repeatCount="indefinite" calcMode="discrete" fill="freeze"/>
  </g>

  <g id="frame-14" visibility="hidden">
    <rect class="window-bg" x="0" y="0" width="385" height="335" fill="#282828" rx="8" ry="8"/>
<g class="chrome"><rect class="header-bg" x="0" y="0" width="385" height="40" fill="#282828" rx="8" ry="8"/>
<rect x="0" y="32" width="385" height="8" fill="#282828"/>
<circle cx="22" cy="20" r="6" fill="#ff5f56"/>
<circle cx="42" cy="20" r="6" fill="#ffbd2e"/>
<circle cx="62" cy="20" r="6" fill="#27c93f"/>
<text class="text fg" x="192.5" y="20" text-anchor="middle" style="dominant-baseline: central">FIGLET Art Demo</text></g>
<g class="text-layer">
<text class="text f13" x="16" y="56">❯</text>
<text class="text fg" x="24.4" y="56"> figlet -f isom</text>
</g>
<g class="cursor-layer">
<rect class="cursor-active" x="150.4" y="56" width="8.4" height="19.6" fill="#ebdbb2"/>
</g>
    <animate attributeName="visibility" values="hidden;visible;hidden;hidden" keyTimes="0;0.144056;0.154046;1" dur="5.00s" repeatCount="indefinite" calcMode="discrete" fill="freeze"/>
  </g>

  <g id="frame-15" visibility="hidden">
    <rect class="window-bg" x="0" y="0" width="385" height="335" fill="#282828" rx="8" ry="8"/>
<g class="chrome"><rect class="header-bg" x="0" y="0" width="385" height="40" fill="#282828" rx="8" ry="8"/>
<rect x="0" y="32" width="385" height="8" fill="#282828"/>
<circle cx="22" cy="20" r="6" fill="#ff5f56"/>
<circle cx="42" cy="20" r="6" fill="#ffbd2e"/>
<circle cx="62" cy="20" r="6" fill="#27c93f"/>
<text class="text fg" x="192.5" y="20" text-anchor="middle" style="dominant-baseline: central">FIGLET Art Demo</text></g>
<g class="text-layer">
<text class="text f13" x="16" y="56">❯</text>
<text class="text fg" x="24.4" y="56"> figlet -f isome</text>
</g>
<g class="cursor-layer">
<rect class="cursor-active" x="158.8" y="56" width="8.4" height="19.6" fill="#ebdbb2"/>
</g>
    <animate attributeName="visibility" values="hidden;visible;hidden;hidden" keyTimes="0;0.154046;0.164036;1" dur="5.00s" repeatCount="indefinite" calcMode="discrete" fill="freeze"/>
  </g>

  <g id="frame-16" visibility="hidden">
    <rect class="window-bg" x="0" y="0" width="385" height="335" fill="#282828" rx="8" ry="8"/>
<g class="chrome"><rect class="header-bg" x="0" y="0" width="385" height="40" fill="#282828" rx="8" ry="8"/>
<rect x="0" y="32" width="385" height="8" fill="#282828"/>
<circle cx="22" cy="20" r="6" fill="#ff5f56"/>
<circle cx="42" cy="20" r="6" fill="#ffbd2e"/>
<circle cx="62" cy="20" r="6" fill="#27c93f"/>
<text class="text fg" x="192.5" y="20" text-anchor="middle" style="dominant-baseline: central">FIGLET Art Demo</text></g>
<g class="text-layer">
<text class="text f13" x="16" y="56">❯</text>
<text class="text fg" x="24.4" y="56"> figlet -f isomet</text>
</g>
<g class="cursor-layer">
<rect class="cursor-active" x="167.2" y="56" width="8.4" height="19.6" fill="#ebdbb2"/>
</g>
    <animate attributeName="visibility" values="hidden;visible;hidden;hidden" keyTimes="0;0.164036;0.174026;1" dur="5.00s" repeatCount="indefinite" calcMode="discrete" fill="freeze"/>
  </g>

  <g id="frame-17" visibility="hidden">
    <rect class="window-bg" x="0" y="0" width="385" height="335" fill="#282828" rx="8" ry="8"/>
<g class="chrome"><rect class="header-bg" x="0" y="0" width="385" height="40" fill="#282828" rx="8" ry="8"/>
<rect x="0" y="32" width="385" height="8" fill="#282828"/>
<circle cx="22" cy="20" r="6" fill="#ff5f56"/>
<circle cx="42" cy="20" r="6" fill="#ffbd2e"/>
<circle cx="62" cy="20" r="6" fill="#27c93f"/>
<text class="text fg" x="192.5" y="20" text-anchor="middle" style="dominant-baseline: central">FIGLET Art Demo</text></g>
<g class="text-layer">
<text class="text f13" x="16" y="56">❯</text>
<text class="text fg" x="24.4" y="56"> figlet -f isometr</text>
</g>
<g class="cursor-layer">
<rect class="cursor-active" x="175.6" y="56" width="8.4" height="19.6" fill="#ebdbb2"/>
</g>
    <animate attributeName="visibility" values="hidden;visible;hidden;hidden" keyTimes="0;0.174026;0.184016;1" dur="5.00s" repeatCount="indefinite" calcMode="discrete" fill="freeze"/>
  </g>

  <g id="frame-18" visibility="hidden">
    <rect class="window-bg" x="0" y="0" width="385" height="335" fill="#282828" rx="8" ry="8"/>
<g class="chrome"><rect class="header-bg" x="0" y="0" width="385" height="40" fill="#282828" rx="8" ry="8"/>
<rect x="0" y="32" width="385" height="8" fill="#282828"/>
<circle cx="22" cy="20" r="6" fill="#ff5f56"/>
<circle cx="42" cy="20" r="6" fill="#ffbd2e"/>
<circle cx="62" cy="20" r="6" fill="#27c93f"/>
<text class="text fg" x="192.5" y="20" text-anchor="middle" style="dominant-baseline: central">FIGLET Art Demo</text></g>
<g class="text-layer">
<text class="text f13" x="16" y="56">❯</text>
<text class="text fg" x="24.4" y="56"> figlet -f isometri</text>
</g>
<g class="cursor-layer">
<rect class="cursor-active" x="184" y="56" width="8.4" height="19.6" fill="#ebdbb2"/>
</g>
    <animate attributeName="visibility" values="hidden;visible;hidden;hidden" keyTimes="0;0.184016;0.194406;1" dur="5.00s" repeatCount="indefinite" calcMode="discrete" fill="freeze"/>
  </g>

  <g id="frame-19" visibility="hidden">
    <rect class="window-bg" x="0" y="0" width="385" height="335" fill="#282828" rx="8" ry="8"/>
<g class="chrome"><rect class="header-bg" x="0" y="0" width="385" height="40" fill="#282828" rx="8" ry="8"/>
<rect x="0" y="32" width="385" height="8" fill="#282828"/>
<circle cx="22" cy="20" r="6" fill="#ff5f56"/>
<circle cx="42" cy="20" r="6" fill="#ffbd2e"/>
<circle cx="62" cy="20" r="6" fill="#27c93f"/>
<text class="text fg" x="192.5" y="20" text-anchor="middle" style="dominant-baseline: central">FIGLET Art Demo</text></g>
<g class="text-layer">
<text class="text f13" x="16" y="56">❯</text>
<text class="text fg" x="24.4" y="56"> figlet -f isometric</text>
</g>
<g class="cursor-layer">
<rect class="cursor-active" x="192.4" y="56" width="8.4" height="19.6" fill="#ebdbb2"/>
</g>
    <animate attributeName="visibility" values="hidden;visible;hidden;hidden" keyTimes="0;0.194406;0.204595;1" dur="5.00s" repeatCount="indefinite" calcMode="discrete" fill="freeze"/>
  </g>

  <g id="frame-20" visibility="hidden">
    <rect class="window-bg" x="0" y="0" width="385" height="335" fill="#282828" rx="8" ry="8"/>
<g class="chrome"><rect class="header-bg" x="0" y="0" width="385" height="40" fill="#282828" rx="8" ry="8"/>
<rect x="0" y="32" width="385" height="8" fill="#282828"/>
<circle cx="22" cy="20" r="6" fill="#ff5f56"/>
<circle cx="42" cy="20" r="6" fill="#ffbd2e"/>
<circle cx="62" cy="20" r="6" fill="#27c93f"/>
<text class="text fg" x="192.5" y="20" text-anchor="middle" style="dominant-baseline: central">FIGLET Art Demo</text></g>
<g class="text-layer">
<text class="text f13" x="16" y="56">❯</text>
<text class="text fg" x="24.4" y="56"> figlet -f isometric3</text>
</g>
<g class="cursor-layer">
<rect class="cursor-active" x="200.8" y="56" width="8.4" height="19.6" fill="#ebdbb2"/>
</g>
    <animate attributeName="visibility" values="hidden;visible;hidden;hidden" keyTimes="0;0.204595;0.214785;1" dur="5.00s" repeatCount="indefinite" calcMode="discrete" fill="freeze"/>
  </g>

  <g id="frame-21" visibility="hidden">
    <rect class="window-bg" x="0" y="0" width="385" height="335" fill="#282828" rx="8" ry="8"/>
<g class="chrome"><rect class="header-bg" x="0" y="0" width="385" height="40" fill="#282828" rx="8" ry="8"/>
<rect x="0" y="32" width="385" height="8" fill="#282828"/>
<circle cx="22" cy="20" r="6" fill="#ff5f56"/>
<circle cx="42" cy="20" r="6" fill="#ffbd2e"/>
<circle cx="62" cy="20" r="6" fill="#27c93f"/>
<text class="text fg" x="192.5" y="20" text-anchor="middle" style="dominant-baseline: central">FIGLET Art Demo</text></g>
<g class="text-layer">
<text class="text f13" x="16" y="56">❯</text>
<text class="text fg" x="24.4" y="56"> figlet -f isometric3</text>
</g>
<g class="cursor-layer">
<rect class="cursor-active" x="209.2" y="56" width="8.4" height="19.6" fill="#ebdbb2"/>
</g>
    <animate attributeName="visibility" values="hidden;visible;hidden;hidden" keyTimes="0;0.214785;0.225175;1" dur="5.00s" repeatCount="indefinite" calcMode="discrete" fill="freeze"/>
  </g>

  <g id="frame-22" visibility="hidden">
    <rect class="window-bg" x="0" y="0" width="385" height="335" fill="#282828" rx="8" ry="8"/>
<g class="chrome"><rect class="header-bg" x="0" y="0" width="385" height="40" fill="#282828" rx="8" ry="8"/>
<rect x="0" y="32" width="385" height="8" fill="#282828"/>
<circle cx="22" cy="20" r="6" fill="#ff5f56"/>
<circle cx="42" cy="20" r="6" fill="#ffbd2e"/>
<circle cx="62" cy="20" r="6" fill="#27c93f"/>
<text class="text fg" x="192.5" y="20" text-anchor="middle" style="dominant-baseline: central">FIGLET Art Demo</text></g>
<g class="text-layer">
<text class="text f13" x="16" y="56">❯</text>
<text class="text fg" x="24.4" y="56"> figlet -f isometric3 d</text>
</g>
<g class="cursor-layer">
<rect class="cursor-active" x="217.6" y="56" width="8.4" height="19.6" fill="#ebdbb2"/>
</g>
    <animate attributeName="visibility" values="hidden;visible;hidden;hidden" keyTimes="0;0.225175;0.235165;1" dur="5.00s" repeatCount="indefinite" calcMode="discrete" fill="freeze"/>
  </g>

  <g id="frame-23" visibility="hidden">
    <rect class="window-bg" x="0" y="0" width="385" height="335" fill="#282828" rx="8" ry="8"/>
<g class="chrome"><rect class="header-bg" x="0" y="0" width="385" height="40" fill="#282828" rx="8" ry="8"/>
<rect x="0" y="32" width="385" height="8" fill="#282828"/>
<circle cx="22" cy="20" r="6" fill="#ff5f56"/>
<circle cx="42" cy="20" r="6" fill="#ffbd2e"/>
<circle cx="62" cy="20" r="6" fill="#27c93f"/>
<text class="text fg" x="192.5" y="20" text-anchor="middle" style="dominant-baseline: central">FIGLET Art Demo</text></g>
<g class="text-layer">
<text class="text f13" x="16" y="56">❯</text>
<text class="text fg" x="24.4" y="56"> figlet -f isometric3 dv</text>
</g>
<g class="cursor-layer">
<rect class="cursor-active" x="226" y="56" width="8.4" height="19.6" fill="#ebdbb2"/>
</g>
    <animate attributeName="visibility" values="hidden;visible;hidden;hidden" keyTimes="0;0.235165;0.245355;1" dur="5.00s" repeatCount="indefinite" calcMode="discrete" fill="freeze"/>
  </g>

  <g id="frame-24" visibility="hidden">
    <rect class="window-bg" x="0" y="0" width="385" height="335" fill="#282828" rx="8" ry="8"/>
<g class="chrome"><rect class="header-bg" x="0" y="0" width="385" height="40" fill="#282828" rx="8" ry="8"/>
<rect x="0" y="32" width="385" height="8" fill="#282828"/>
<circle cx="22" cy="20" r="6" fill="#ff5f56"/>
<circle cx="42" cy="20" r="6" fill="#ffbd2e"/>
<circle cx="62" cy="20" r="6" fill="#27c93f"/>
<text class="text fg" x="192.5" y="20" text-anchor="middle" style="dominant-baseline: central">FIGLET Art Demo</text></g>
<g class="text-layer">
<text class="text f13" x="16" y="56">❯</text>
<text class="text fg" x="24.4" y="56"> figlet -f isometric3 dvd</text>
</g>
<g class="cursor-layer">
<rect class="cursor-active" x="234.4" y="56" width="8.4" height="19.6" fill="#ebdbb2"/>
</g>
    <animate attributeName="visibility" values="hidden;visible;hidden;hidden" keyTimes="0;0.245355;0.245155;1" dur="5.00s" repeatCount="indefinite" calcMode="discrete" fill="freeze"/>
  </g>

  <g id="frame-25" visibility="hidden">
    <rect class="window-bg" x="0" y="0" width="385" height="335" fill="#282828" rx="8" ry="8"/>
<g class="chrome"><rect class="header-bg" x="0" y="0" width="385" height="40" fill="#282828" rx="8" ry="8"/>
<rect x="0" y="32" width="385" height="8" fill="#282828"/>
<circle cx="22" cy="20" r="6" fill="#ff5f56"/>
<circle cx="42" cy="20" r="6" fill="#ffbd2e"/>
<circle cx="62" cy="20" r="6" fill="#27c93f"/>
<text class="text fg" x="192.5" y="20" text-anchor="middle" style="dominant-baseline: central">FIGLET Art Demo</text></g>
<g class="text-layer">
<text class="text f13" x="16" y="56">❯</text>
<text class="text fg" x="24.4" y="56"> figlet -f isometric3 dvd</text>
</g>
<g class="cursor-layer">
<rect class="cursor" x="234.4" y="56" width="8.4" height="19.6" fill="#ebdbb2"/>
</g>
    <animate attributeName="visibility" values="hidden;visible;hidden;hidden" keyTimes="0;0.245155;0.345455;1" dur="5.00s" repeatCount="indefinite" calcMode="discrete" fill="freeze"/>
  </g>

  <g id="frame-26" visibility="hidden">
    <rect class="window-bg" x="0" y="0" width="385" height="335" fill="#282828" rx="8" ry="8"/>
<g class="chrome"><rect class="header-bg" x="0" y="0" width="385" height="40" fill="#282828" rx="8" ry="8"/>
<rect x="0" y="32" width="385" height="8" fill="#282828"/>
<circle cx="22" cy="20" r="6" fill="#ff5f56"/>
<circle cx="42" cy="20" r="6" fill="#ffbd2e"/>
<circle cx="62" cy="20" r="6" fill="#27c93f"/>
<text class="text fg" x="192.5" y="20" text-anchor="middle" style="dominant-baseline: central">FIGLET Art Demo</text></g>
<g class="text-layer">
<text class="text f13" x="16" y="56">❯</text>
<text class="text fg" x="24.4" y="56"> figlet -f isometric3 dvd</text>
</g>
<g class="cursor-layer">
<rect class="cursor" x="234.4" y="56" width="8.4" height="19.6" fill="#ebdbb2"/>
</g>
    <animate attributeName="visibility" values="hidden;visible;hidden;hidden" keyTimes="0;0.345455;0.365834;1" dur="5.00s" repeatCount="indefinite" calcMode="discrete" fill="freeze"/>
  </g>

  <g id="frame-27" visibility="hidden">
    <rect class="window-bg" x="0" y="0" width="385" height="335" fill="#282828" rx="8" ry="8"/>
<g class="chrome"><rect class="header-bg" x="0" y="0" width="385" height="40" fill="#282828" rx="8" ry="8"/>
<rect x="0" y="32" width="385" height="8" fill="#282828"/>
<circle cx="22" cy="20" r="6" fill="#ff5f56"/>
<circle cx="42" cy="20" r="6" fill="#ffbd2e"/>
<circle cx="62" cy="20" r="6" fill="#27c93f"/>
<text class="text fg" x="192.5" y="20" text-anchor="middle" style="dominant-baseline: central">FIGLET Art Demo</text></g>
<g class="text-layer">
<text class="text f13" x="16" y="56">❯</text>
<text class="text fg" x="24.4" y="56"> figlet -f isometric3 dvd</text>
</g>
    <animate attributeName="visibility" values="hidden;visible;hidden;hidden" keyTimes="0;0.365834;0.37043;1" dur="5.00s" repeatCount="indefinite" calcMode="discrete" fill="freeze"/>
  </g>

  <g id="frame-28" visibility="hidden">
    <rect class="window-bg" x="0" y="0" width="385" height="335" fill="#282828" rx="8" ry="8"/>
<g class="chrome"><rect class="header-bg" x="0" y="0" width="385" height="40" fill="#282828" rx="8" ry="8"/>
<rect x="0" y="32" width="385" height="8" fill="#282828"/>
<circle cx="22" cy="20" r="6" fill="#ff5f56"/>
<circle cx="42" cy="20" r="6" fill="#ffbd2e"/>
<circle cx="62" cy="20" r="6" fill="#27c93f"/>
<text class="text fg" x="192.5" y="20" text-anchor="middle" style="dominant-baseline: central">FIGLET Art Demo</text></g>
<g class="text-layer">
<text class="text f13" x="16" y="56">❯</text>
<text class="text fg" x="24.4" y="56"> figlet -f isometric3 dvd</text>
<text class="text fg" x="16" y="75.6">     _____                      _____</text>
<text class="text fg" x="16" y="95.2">    /  /::\         ___        /  /::\</text>
<text class="text fg" x="16" y="114.8">   /  /:/\:\       /__/\      /  /:/\:\</text>
<text class="text fg" x="16" y="134.4">  /  /:/  \:\      \  \:\    /  /:/  \:\</text>
<text class="text fg" x="16" y="154"> /__/:/ \__\:|      \  \:\  /__/:/ \__\:|</text>
<text class="text fg" x="16" y="173.6"> \  \:\ /  /:/  ___  \__\:\ \  \:\ /  /:/</text>
<text class="text fg" x="16" y="193.2">  \  \:\  /:/  /__/\ |  |:|  \  \:\  /:/</text>
<text class="text fg" x="16" y="212.8">   \  \:\/:/   \  \:\|  |:|   \  \:\/:/</text>
<text class="text fg" x="16" y="232.4">    \  \::/     \  \:\__|:|    \  \::/</text>
<text class="text fg" x="16" y="252">     \__\/       \__\::::/      \__\/</text>
<text class="text fg" x="16" y="271.6">                     ~~~~</text>
</g>
    <animate attributeName="visibility" values="hidden;visible;hidden;hidden" keyTimes="0;0.37043;0.394206;1" dur="5.00s" repeatCount="indefinite" calcMode="discrete" fill="freeze"/>
  </g>

  <g id="frame-29" visibility="hidden">
    <rect class="window-bg" x="0" y="0" width="385" height="335" fill="#282828" rx="8" ry="8"/>
<g class="chrome"><rect class="header-bg" x="0" y="0" width="385" height="40" fill="#282828" rx="8" ry="8"/>
<rect x="0" y="32" width="385" height="8" fill="#282828"/>
<circle cx="22" cy="20" r="6" fill="#ff5f56"/>
<circle cx="42" cy="20" r="6" fill="#ffbd2e"/>
<circle cx="62" cy="20" r="6" fill="#27c93f"/>
<text class="text fg" x="192.5" y="20" text-anchor="middle" style="dominant-baseline: central">FIGLET Art Demo</text></g>
<g class="text-layer">
<text class="text f13" x="16" y="56">❯</text>
<text class="text fg" x="24.4" y="56"> figlet -f isometric3 dvd</text>
<text class="text fg" x="16" y="75.6">     _____                      _____</text>
<text class="text fg" x="16" y="95.2">    /  /::\         ___        /  /::\</text>
<text class="text fg" x="16" y="114.8">   /  /:/\:\       /__/\      /  /:/\:\</text>
<text class="text fg" x="16" y="134.4">  /  /:/  \:\      \  \:\    /  /:/  \:\</text>
<text class="text fg" x="16" y="154"> /__/:/ \__\:|      \  \:\  /__/:/ \__\:|</text>
<text class="text fg" x="16" y="173.6"> \  \:\ /  /:/  ___  \__\:\ \  \:\ /  /:/</text>
<text class="text fg" x="16" y="193.2">  \  \:\  /:/  /__/\ |  |:|  \  \:\  /:/</text>
<text class="text fg" x="16" y="212.8">   \  \:\/:/   \  \:\|  |:|   \  \:\/:/</text>
<text class="text fg" x="16" y="232.4">    \  \::/     \  \:\__|:|    \  \::/</text>
<text class="text fg" x="16" y="252">     \__\/       \__\::::/      \__\/</text>
<text class="text fg" x="16" y="271.6">                     ~~~~</text>
<text class="text f13" x="16" y="291.2">❯</text>
</g>
<g class="cursor-layer">
<rect class="cursor" x="32.8" y="291.2" width="8.4" height="19.6" fill="#ebdbb2"/>
</g>
    <animate attributeName="visibility" values="hidden;visible;hidden;hidden" keyTimes="0;0.394206;0.797203;1" dur="5.00s" repeatCount="indefinite" calcMode="discrete" fill="freeze"/>
  </g>

  <g id="frame-30" visibility="hidden">
    <rect class="window-bg" x="0" y="0" width="385" height="335" fill="#282828" rx="8" ry="8"/>
<g class="chrome"><rect class="header-bg" x="0" y="0" width="385" height="40" fill="#282828" rx="8" ry="8"/>
<rect x="0" y="32" width="385" height="8" fill="#282828"/>
<circle cx="22" cy="20" r="6" fill="#ff5f56"/>
<circle cx="42" cy="20" r="6" fill="#ffbd2e"/>
<circle cx="62" cy="20" r="6" fill="#27c93f"/>
<text class="text fg" x="192.5" y="20" text-anchor="middle" style="dominant-baseline: central">FIGLET Art Demo</text></g>
<g class="text-layer">
<text class="text f13" x="16" y="56">❯</text>
<text class="text fg" x="24.4" y="56"> figlet -f isometric3 dvd</text>
<text class="text fg" x="16" y="75.6">     _____                      _____</text>
<text class="text fg" x="16" y="95.2">    /  /::\         ___        /  /::\</text>
<text class="text fg" x="16" y="114.8">   /  /:/\:\       /__/\      /  /:/\:\</text>
<text class="text fg" x="16" y="134.4">  /  /:/  \:\      \  \:\    /  /:/  \:\</text>
<text class="text fg" x="16" y="154"> /__/:/ \__\:|      \  \:\  /__/:/ \__\:|</text>
<text class="text fg" x="16" y="173.6"> \  \:\ /  /:/  ___  \__\:\ \  \:\ /  /:/</text>
<text class="text fg" x="16" y="193.2">  \  \:\  /:/  /__/\ |  |:|  \  \:\  /:/</text>
<text class="text fg" x="16" y="212.8">   \  \:\/:/   \  \:\|  |:|   \  \:\/:/</text>
<text class="text fg" x="16" y="232.4">    \  \::/     \  \:\__|:|    \  \::/</text>
<text class="text fg" x="16" y="252">     \__\/       \__\::::/      \__\/</text>
<text class="text fg" x="16" y="271.6">                     ~~~~</text>
<text class="text f13" x="16" y="291.2">❯</text>
</g>
<g class="cursor-layer">
<rect class="cursor" x="32.8" y="291.2" width="8.4" height="19.6" fill="#ebdbb2"/>
</g>
    <animate attributeName="visibility" values="hidden;visible;hidden;hidden" keyTimes="0;0.797203;0.8002;1" dur="5.00s" repeatCount="indefinite" calcMode="discrete" fill="freeze"/>
  </g>

  <g id="frame-31" visibility="hidden">
    <rect class="window-bg" x="0" y="0" width="385" height="335" fill="#282828" rx="8" ry="8"/>
<g class="chrome"><rect class="header-bg" x="0" y="0" width="385" height="40" fill="#282828" rx="8" ry="8"/>
<rect x="0" y="32" width="385" height="8" fill="#282828"/>
<circle cx="22" cy="20" r="6" fill="#ff5f56"/>
<circle cx="42" cy="20" r="6" fill="#ffbd2e"/>
<circle cx="62" cy="20" r="6" fill="#27c93f"/>
<text class="text fg" x="192.5" y="20" text-anchor="middle" style="dominant-baseline: central">FIGLET Art Demo</text></g>
<g class="text-layer">
<text class="text f13" x="16" y="56">❯</text>
<text class="text fg" x="24.4" y="56"> figlet -f isometric3 dvd</text>
<text class="text fg" x="16" y="75.6">     _____                      _____</text>
<text class="text fg" x="16" y="95.2">    /  /::\         ___        /  /::\</text>
<text class="text fg" x="16" y="114.8">   /  /:/\:\       /__/\      /  /:/\:\</text>
<text class="text fg" x="16" y="134.4">  /  /:/  \:\      \  \:\    /  /:/  \:\</text>
<text class="text fg" x="16" y="154"> /__/:/ \__\:|      \  \:\  /__/:/ \__\:|</text>
<text class="text fg" x="16" y="173.6"> \  \:\ /  /:/  ___  \__\:\ \  \:\ /  /:/</text>
<text class="text fg" x="16" y="193.2">  \  \:\  /:/  /__/\ |  |:|  \  \:\  /:/</text>
<text class="text fg" x="16" y="212.8">   \  \:\/:/   \  \:\|  |:|   \  \:\/:/</text>
<text class="text fg" x="16" y="232.4">    \  \::/     \  \:\__|:|    \  \::/</text>
<text class="text fg" x="16" y="252">     \__\/       \__\::::/      \__\/</text>
<text class="text fg" x="16" y="271.6">                     ~~~~</text>
<text class="text f13" x="16" y="291.2">❯</text>
</g>
<g class="cursor-layer">
<rect class="cursor" x="32.8" y="291.2" width="8.4" height="19.6" fill="#ebdbb2"/>
</g>
    <animate attributeName="visibility" values="hidden;visible;visible" keyTimes="0;0.8002;1" dur="5.00s" repeatCount="indefinite" calcMode="discrete" fill="freeze"/>
  </g>
  </g>
</svg>