<svg width="695" height="460" xmlns="http://www.w3.org/2000/svg"><defs><clipPath id="rounded-corners"><rect x="0" y="0" width="695" height="460" rx="8" ry="8"/></clipPath></defs><style>
.text {
  font-family: 'SF Mono', 'Monaco', 'Menlo', 'Consolas', monospace;
  font-size: 12px;
  dominant-baseline: text-before-edge;
  text-rendering: geometricPrecision;
  white-space: pre;
}
.bold { font-weight: bold; }
.italic { font-style: italic; }
.uline { text-decoration: underline; }
.strike { text-decoration: line-through; }
.dim { opacity: 0.5; }
.fg { fill: #c9d1d9; }
.f0 { fill: #000; }
.f1 { fill: #ff7b72; }
.f2 { fill: #3fb950; }
.f3 { fill: #d29922; }
.f4 { fill: #58a6ff; }
.f5 { fill: #bc8cff; }
.f6 { fill: #39c5cf; }
.f7 { fill: #b1bac4; }
.f8 { fill: #6e7681; }
.f9 { fill: #ffa198; }
.f10 { fill: #56d364; }
.f11 { fill: #e3b341; }
.f12 { fill: #79c0ff; }
.f13 { fill: #d2a8ff; }
.f14 { fill: #56d4dd; }
.f15 { fill: #f0f6fc; }
.bg { fill: #1e1e1e; }
.b0 { fill: #000; }
.b1 { fill: #ff7b72; }
.b2 { fill: #3fb950; }
.b3 { fill: #d29922; }
.b4 { fill: #58a6ff; }
.b5 { fill: #bc8cff; }
.b6 { fill: #39c5cf; }
.b7 { fill: #b1bac4; }
.b8 { fill: #6e7681; }
.b9 { fill: #ffa198; }
.b10 { fill: #56d364; }
.b11 { fill: #e3b341; }
.b12 { fill: #79c0ff; }
.b13 { fill: #d2a8ff; }
.b14 { fill: #56d4dd; }
.b15 { fill: #f0f6fc; }
.cursor { animation: blink 1s step-end infinite; }
@keyframes blink {
  0%, 50% { opacity: 1; }
  50.01%, 100% { opacity: 0; }
}
.cursor-active { opacity: 1; }
  </style><g clip-path="url(#rounded-corners)"><rect width="100%" height="100%" fill="#1e1e1e" rx="8" ry="8" /><g id="frame-0"><g class="text-layer"><text class="text f13" x="16" y="16">❯</text></g><g class="cursor-layer"><path d="M30.4 16h7.2v16.8H30.4z" fill="#c9d1d9" class="cursor"/></g><animate attributeName="visibility" values="visible;hidden;hidden" keyTimes="0;0.0147;1" dur="3.87s" repeatCount="indefinite" calcMode="discrete" fill="freeze"/></g><g id="frame-1" visibility="hidden"><g class="text-layer"><text class="text f13" x="16" y="16">❯</text><text class="text fg" x="23" y="16"> n</text></g><g class="cursor-layer"><path d="M37.6 16h7.2v16.8H37.6z" fill="#c9d1d9" class="cursor-active"/></g><animate attributeName="visibility" values="hidden;visible;hidden;hidden" keyTimes="0;0.0147;0.0276;1" dur="3.87s" repeatCount="indefinite" calcMode="discrete" fill="freeze"/></g><g id="frame-2" visibility="hidden"><g class="text-layer"><text class="text f13" x="16" y="16">❯</text><text class="text fg" x="23" y="16"> np</text></g><g class="cursor-layer"><path d="M44.8 16h7.2v16.8H44.8z" fill="#c9d1d9" class="cursor-active"/></g><animate attributeName="visibility" values="hidden;visible;hidden;hidden" keyTimes="0;0.0276;0.0411;1" dur="3.87s" repeatCount="indefinite" calcMode="discrete" fill="freeze"/></g><g id="frame-3" visibility="hidden"><g class="text-layer"><text class="text f13" x="16" y="16">❯</text><text class="text fg" x="23" y="16"> npm</text></g><g class="cursor-layer"><path d="M52 16h7.2v16.8H52z" fill="#c9d1d9" class="cursor-active"/></g><animate attributeName="visibility" values="hidden;visible;hidden;hidden" keyTimes="0;0.0411;0.0545;1" dur="3.87s" repeatCount="indefinite" calcMode="discrete" fill="freeze"/></g><g id="frame-4" visibility="hidden"><g class="text-layer"><text class="text f13" x="16" y="16">❯</text><text class="text fg" x="23" y="16"> npm</text></g><g class="cursor-layer"><path d="M59.2 16h7.2v16.8H59.2z" fill="#c9d1d9" class="cursor-active"/></g><animate attributeName="visibility" values="hidden;visible;hidden;hidden" keyTimes="0;0.0545;0.0671;1" dur="3.87s" repeatCount="indefinite" calcMode="discrete" fill="freeze"/></g><g id="frame-5" visibility="hidden"><g class="text-layer"><text class="text f13" x="16" y="16">❯</text><text class="text fg" x="23" y="16"> npm t</text></g><g class="cursor-layer"><path d="M66.4 16h7.2v16.8H66.4z" fill="#c9d1d9" class="cursor-active"/></g><animate attributeName="visibility" values="hidden;visible;hidden;hidden" keyTimes="0;0.0671;0.0814;1" dur="3.87s" repeatCount="indefinite" calcMode="discrete" fill="freeze"/></g><g id="frame-6" visibility="hidden"><g class="text-layer"><text class="text f13" x="16" y="16">❯</text><text class="text fg" x="23" y="16"> npm te</text></g><g class="cursor-layer"><path d="M73.6 16h7.2v16.8H73.6z" fill="#c9d1d9" class="cursor-active"/></g><animate attributeName="visibility" values="hidden;visible;hidden;hidden" keyTimes="0;0.0814;0.0953;1" dur="3.87s" repeatCount="indefinite" calcMode="discrete" fill="freeze"/></g><g id="frame-7" visibility="hidden"><g class="text-layer"><text class="text f13" x="16" y="16">❯</text><text class="text fg" x="23" y="16"> npm tes</text></g><g class="cursor-layer"><path d="M80.8 16h7.2v16.8H80.8z" fill="#c9d1d9" class="cursor-active"/></g><animate attributeName="visibility" values="hidden;visible;hidden;hidden" keyTimes="0;0.0953;0.1077;1" dur="3.87s" repeatCount="indefinite" calcMode="discrete" fill="freeze"/></g><g id="frame-8" visibility="hidden"><g class="text-layer"><text class="text f13" x="16" y="16">❯</text><text class="text fg" x="23" y="16"> npm test</text></g><g class="cursor-layer"><path d="M88 16h7.2v16.8H88z" fill="#c9d1d9" class="cursor-active"/></g><animate attributeName="visibility" values="hidden;visible;hidden;hidden" keyTimes="0;0.1077;0.1074;1" dur="3.87s" repeatCount="indefinite" calcMode="discrete" fill="freeze"/></g><g id="frame-9" visibility="hidden"><g class="text-layer"><text class="text f13" x="16" y="16">❯</text><text class="text fg" x="23" y="16"> npm test</text></g><g class="cursor-layer"><path d="M88 16h7.2v16.8H88z" fill="#c9d1d9" class="cursor"/></g><animate attributeName="visibility" values="hidden;visible;hidden;hidden" keyTimes="0;0.1074;0.2681;1" dur="3.87s" repeatCount="indefinite" calcMode="discrete" fill="freeze"/></g><g id="frame-10" visibility="hidden"><g class="text-layer"><text class="text f13" x="16" y="16">❯</text><text class="text fg" x="23" y="16"> npm test</text></g><animate attributeName="visibility" values="hidden;visible;hidden;hidden" keyTimes="0;0.2681;0.2916;1" dur="3.87s" repeatCount="indefinite" calcMode="discrete" fill="freeze"/></g><g id="frame-11" visibility="hidden"><g class="text-layer"><text class="text f13" x="16" y="16">❯</text><text class="text fg" x="23" y="16"> npm test</text><text class="text fg" x="16" y="49.6">&gt; dvd-cli@1.0.0 test</text><text class="text fg" x="16" y="66.4">&gt; vitest run</text></g><animate attributeName="visibility" values="hidden;visible;hidden;hidden" keyTimes="0;0.2916;0.3329;1" dur="3.87s" repeatCount="indefinite" calcMode="discrete" fill="freeze"/></g><g id="frame-12" visibility="hidden"><g class="bg-layer"><path d="M16 116.8h36v16.8H16z" fill="#39c5cf"/></g><g class="text-layer"><text class="text f13" x="16" y="16">❯</text><text class="text fg" x="23" y="16"> npm test</text><text class="text fg" x="16" y="49.6">&gt; dvd-cli@1.0.0 test</text><text class="text fg" x="16" y="66.4">&gt; vitest run</text><text class="text bold fg" x="16" y="116.8"> RUN </text><text class="text f6" x="59" y="116.8">v4.0.18</text><text class="text f8" x="117" y="116.8">/Users/talhayut/projects/dvd</text></g><animate attributeName="visibility" values="hidden;visible;hidden;hidden" keyTimes="0;0.3329;0.3848;1" dur="3.87s" repeatCount="indefinite" calcMode="discrete" fill="freeze"/></g><g id="frame-13" visibility="hidden"><g class="bg-layer"><path d="M16 116.8h36v16.8H16z" fill="#39c5cf"/></g><g class="text-layer"><text class="text f13" x="16" y="16">❯</text><text class="text fg" x="23" y="16"> npm test</text><text class="text fg" x="16" y="49.6">&gt; dvd-cli@1.0.0 test</text><text class="text fg" x="16" y="66.4">&gt; vitest run</text><text class="text bold fg" x="16" y="116.8"> RUN </text><text class="text f6" x="59" y="116.8">v4.0.18</text><text class="text f8" x="117" y="116.8">/Users/talhayut/projects/dvd</text><text class="text f2" x="23" y="150.4">✓</text><text class="text fg" x="30" y="150.4"> src/pipeline/svg-emitter/chrome.test.ts</text><text class="text dim fg" x="326" y="150.4">(18 tests)</text><text class="text f2" x="398" y="150.4"> 3</text><text class="text dim f2" x="412" y="150.4">ms</text></g><animate attributeName="visibility" values="hidden;visible;hidden;hidden" keyTimes="0;0.3848;0.3902;1" dur="3.87s" repeatCount="indefinite" calcMode="discrete" fill="freeze"/></g><g id="frame-14" visibility="hidden"><g class="bg-layer"><path d="M16 116.8h36v16.8H16z" fill="#39c5cf"/></g><g class="text-layer"><text class="text f13" x="16" y="16">❯</text><text class="text fg" x="23" y="16"> npm test</text><text class="text fg" x="16" y="49.6">&gt; dvd-cli@1.0.0 test</text><text class="text fg" x="16" y="66.4">&gt; vitest run</text><text class="text bold fg" x="16" y="116.8"> RUN </text><text class="text f6" x="59" y="116.8">v4.0.18</text><text class="text f8" x="117" y="116.8">/Users/talhayut/projects/dvd</text><text class="text f2" x="23" y="150.4">✓</text><text class="text fg" x="30" y="150.4"> src/pipeline/svg-emitter/chrome.test.ts</text><text class="text dim fg" x="326" y="150.4">(18 tests)</text><text class="text f2" x="398" y="150.4"> 3</text><text class="text dim f2" x="412" y="150.4">ms</text><text class="text f2" x="23" y="167.2">✓</text><text class="text fg" x="30" y="167.2"> src/utils/wcwidth.test.ts</text><text class="text dim fg" x="225" y="167.2">(28 tests)</text><text class="text f2" x="297" y="167.2"> 3</text><text class="text dim f2" x="311" y="167.2">ms</text><text class="text f2" x="23" y="184">✓</text><text class="text fg" x="30" y="184"> src/pipeline/svg-emitter/utils.test.ts</text><text class="text dim fg" x="318" y="184">(33 tests)</text><text class="text f2" x="390" y="184"> 3</text><text class="text dim f2" x="405" y="184">ms</text><text class="text f2" x="23" y="200.8">✓</text><text class="text fg" x="30" y="200.8"> src/pipeline/svg-emitter/cursor.test.ts</text><text class="text dim fg" x="326" y="200.8">(16 tests)</text><text class="text f2" x="398" y="200.8"> 3</text><text class="text dim f2" x="412" y="200.8">ms</text><text class="text f2" x="23" y="217.6">✓</text><text class="text fg" x="30" y="217.6"> src/animator/svg-animator.test.ts</text><text class="text dim fg" x="282" y="217.6">(21 tests)</text><text class="text f2" x="354" y="217.6"> 5</text><text class="text dim f2" x="369" y="217.6">ms</text><text class="text f2" x="23" y="234.4">✓</text><text class="text fg" x="30" y="234.4"> src/parser/cd-parser.test.ts</text><text class="text dim fg" x="246" y="234.4">(33 tests)</text><text class="text f2" x="318" y="234.4"> 5</text><text class="text dim f2" x="333" y="234.4">ms</text></g><animate attributeName="visibility" values="hidden;visible;hidden;hidden" keyTimes="0;0.3902;0.3959;1" dur="3.87s" repeatCount="indefinite" calcMode="discrete" fill="freeze"/></g><g id="frame-15" visibility="hidden"><g class="bg-layer"><path d="M16 116.8h36v16.8H16z" fill="#39c5cf"/></g><g class="text-layer"><text class="text f13" x="16" y="16">❯</text><text class="text fg" x="23" y="16"> npm test</text><text class="text fg" x="16" y="49.6">&gt; dvd-cli@1.0.0 test</text><text class="text fg" x="16" y="66.4">&gt; vitest run</text><text class="text bold fg" x="16" y="116.8"> RUN </text><text class="text f6" x="59" y="116.8">v4.0.18</text><text class="text f8" x="117" y="116.8">/Users/talhayut/projects/dvd</text><text class="text f2" x="23" y="150.4">✓</text><text class="text fg" x="30" y="150.4"> src/pipeline/svg-emitter/chrome.test.ts</text><text class="text dim fg" x="326" y="150.4">(18 tests)</text><text class="text f2" x="398" y="150.4"> 3</text><text class="text dim f2" x="412" y="150.4">ms</text><text class="text f2" x="23" y="167.2">✓</text><text class="text fg" x="30" y="167.2"> src/utils/wcwidth.test.ts</text><text class="text dim fg" x="225" y="167.2">(28 tests)</text><text class="text f2" x="297" y="167.2"> 3</text><text class="text dim f2" x="311" y="167.2">ms</text><text class="text f2" x="23" y="184">✓</text><text class="text fg" x="30" y="184"> src/pipeline/svg-emitter/utils.test.ts</text><text class="text dim fg" x="318" y="184">(33 tests)</text><text class="text f2" x="390" y="184"> 3</text><text class="text dim f2" x="405" y="184">ms</text><text class="text f2" x="23" y="200.8">✓</text><text class="text fg" x="30" y="200.8"> src/pipeline/svg-emitter/cursor.test.ts</text><text class="text dim fg" x="326" y="200.8">(16 tests)</text><text class="text f2" x="398" y="200.8"> 3</text><text class="text dim f2" x="412" y="200.8">ms</text><text class="text f2" x="23" y="217.6">✓</text><text class="text fg" x="30" y="217.6"> src/animator/svg-animator.test.ts</text><text class="text dim fg" x="282" y="217.6">(21 tests)</text><text class="text f2" x="354" y="217.6"> 5</text><text class="text dim f2" x="369" y="217.6">ms</text><text class="text f2" x="23" y="234.4">✓</text><text class="text fg" x="30" y="234.4"> src/parser/cd-parser.test.ts</text><text class="text dim fg" x="246" y="234.4">(33 tests)</text><text class="text f2" x="318" y="234.4"> 5</text><text class="text dim f2" x="333" y="234.4">ms</text><text class="text f2" x="23" y="251.2">✓</text><text class="text fg" x="30" y="251.2"> src/pipeline/vterminal.test.ts</text><text class="text dim fg" x="261" y="251.2">(23 tests)</text><text class="text f2" x="333" y="251.2"> 11</text><text class="text dim f2" x="354" y="251.2">ms</text></g><animate attributeName="visibility" values="hidden;visible;hidden;hidden" keyTimes="0;0.3959;0.4019;1" dur="3.87s" repeatCount="indefinite" calcMode="discrete" fill="freeze"/></g><g id="frame-16" visibility="hidden"><g class="bg-layer"><path d="M16 116.8h36v16.8H16z" fill="#39c5cf"/></g><g class="text-layer"><text class="text f13" x="16" y="16">❯</text><text class="text fg" x="23" y="16"> npm test</text><text class="text fg" x="16" y="49.6">&gt; dvd-cli@1.0.0 test</text><text class="text fg" x="16" y="66.4">&gt; vitest run</text><text class="text bold fg" x="16" y="116.8"> RUN </text><text class="text f6" x="59" y="116.8">v4.0.18</text><text class="text f8" x="117" y="116.8">/Users/talhayut/projects/dvd</text><text class="text f2" x="23" y="150.4">✓</text><text class="text fg" x="30" y="150.4"> src/pipeline/svg-emitter/chrome.test.ts</text><text class="text dim fg" x="326" y="150.4">(18 tests)</text><text class="text f2" x="398" y="150.4"> 3</text><text class="text dim f2" x="412" y="150.4">ms</text><text class="text f2" x="23" y="167.2">✓</text><text class="text fg" x="30" y="167.2"> src/utils/wcwidth.test.ts</text><text class="text dim fg" x="225" y="167.2">(28 tests)</text><text class="text f2" x="297" y="167.2"> 3</text><text class="text dim f2" x="311" y="167.2">ms</text><text class="text f2" x="23" y="184">✓</text><text class="text fg" x="30" y="184"> src/pipeline/svg-emitter/utils.test.ts</text><text class="text dim fg" x="318" y="184">(33 tests)</text><text class="text f2" x="390" y="184"> 3</text><text class="text dim f2" x="405" y="184">ms</text><text class="text f2" x="23" y="200.8">✓</text><text class="text fg" x="30" y="200.8"> src/pipeline/svg-emitter/cursor.test.ts</text><text class="text dim fg" x="326" y="200.8">(16 tests)</text><text class="text f2" x="398" y="200.8"> 3</text><text class="text dim f2" x="412" y="200.8">ms</text><text class="text f2" x="23" y="217.6">✓</text><text class="text fg" x="30" y="217.6"> src/animator/svg-animator.test.ts</text><text class="text dim fg" x="282" y="217.6">(21 tests)</text><text class="text f2" x="354" y="217.6"> 5</text><text class="text dim f2" x="369" y="217.6">ms</text><text class="text f2" x="23" y="234.4">✓</text><text class="text fg" x="30" y="234.4"> src/parser/cd-parser.test.ts</text><text class="text dim fg" x="246" y="234.4">(33 tests)</text><text class="text f2" x="318" y="234.4"> 5</text><text class="text dim f2" x="333" y="234.4">ms</text><text class="text f2" x="23" y="251.2">✓</text><text class="text fg" x="30" y="251.2"> src/pipeline/vterminal.test.ts</text><text class="text dim fg" x="261" y="251.2">(23 tests)</text><text class="text f2" x="333" y="251.2"> 11</text><text class="text dim f2" x="354" y="251.2">ms</text><text class="text f2" x="23" y="268">✓</text><text class="text fg" x="30" y="268"> src/pipeline/svg-emitter.test.ts</text><text class="text dim fg" x="275" y="268">(31 tests)</text><text class="text f2" x="347" y="268"> 5</text><text class="text dim f2" x="362" y="268">ms</text></g><animate attributeName="visibility" values="hidden;visible;hidden;hidden" keyTimes="0;0.4019;0.4086;1" dur="3.87s" repeatCount="indefinite" calcMode="discrete" fill="freeze"/></g><g id="frame-17" visibility="hidden"><g class="bg-layer"><path d="M16 116.8h36v16.8H16z" fill="#39c5cf"/></g><g class="text-layer"><text class="text f13" x="16" y="16">❯</text><text class="text fg" x="23" y="16"> npm test</text><text class="text fg" x="16" y="49.6">&gt; dvd-cli@1.0.0 test</text><text class="text fg" x="16" y="66.4">&gt; vitest run</text><text class="text bold fg" x="16" y="116.8"> RUN </text><text class="text f6" x="59" y="116.8">v4.0.18</text><text class="text f8" x="117" y="116.8">/Users/talhayut/projects/dvd</text><text class="text f2" x="23" y="150.4">✓</text><text class="text fg" x="30" y="150.4"> src/pipeline/svg-emitter/chrome.test.ts</text><text class="text dim fg" x="326" y="150.4">(18 tests)</text><text class="text f2" x="398" y="150.4"> 3</text><text class="text dim f2" x="412" y="150.4">ms</text><text class="text f2" x="23" y="167.2">✓</text><text class="text fg" x="30" y="167.2"> src/utils/wcwidth.test.ts</text><text class="text dim fg" x="225" y="167.2">(28 tests)</text><text class="text f2" x="297" y="167.2"> 3</text><text class="text dim f2" x="311" y="167.2">ms</text><text class="text f2" x="23" y="184">✓</text><text class="text fg" x="30" y="184"> src/pipeline/svg-emitter/utils.test.ts</text><text class="text dim fg" x="318" y="184">(33 tests)</text><text class="text f2" x="390" y="184"> 3</text><text class="text dim f2" x="405" y="184">ms</text><text class="text f2" x="23" y="200.8">✓</text><text class="text fg" x="30" y="200.8"> src/pipeline/svg-emitter/cursor.test.ts</text><text class="text dim fg" x="326" y="200.8">(16 tests)</text><text class="text f2" x="398" y="200.8"> 3</text><text class="text dim f2" x="412" y="200.8">ms</text><text class="text f2" x="23" y="217.6">✓</text><text class="text fg" x="30" y="217.6"> src/animator/svg-animator.test.ts</text><text class="text dim fg" x="282" y="217.6">(21 tests)</text><text class="text f2" x="354" y="217.6"> 5</text><text class="text dim f2" x="369" y="217.6">ms</text><text class="text f2" x="23" y="234.4">✓</text><text class="text fg" x="30" y="234.4"> src/parser/cd-parser.test.ts</text><text class="text dim fg" x="246" y="234.4">(33 tests)</text><text class="text f2" x="318" y="234.4"> 5</text><text class="text dim f2" x="333" y="234.4">ms</text><text class="text f2" x="23" y="251.2">✓</text><text class="text fg" x="30" y="251.2"> src/pipeline/vterminal.test.ts</text><text class="text dim fg" x="261" y="251.2">(23 tests)</text><text class="text f2" x="333" y="251.2"> 11</text><text class="text dim f2" x="354" y="251.2">ms</text><text class="text f2" x="23" y="268">✓</text><text class="text fg" x="30" y="268"> src/pipeline/svg-emitter.test.ts</text><text class="text dim fg" x="275" y="268">(31 tests)</text><text class="text f2" x="347" y="268"> 5</text><text class="text dim f2" x="362" y="268">ms</text><text class="text f2" x="23" y="284.8">✓</text><text class="text fg" x="30" y="284.8"> src/pipeline/coalescer.test.ts</text><text class="text dim fg" x="261" y="284.8">(14 tests)</text><text class="text f2" x="333" y="284.8"> 11</text><text class="text dim f2" x="354" y="284.8">ms</text></g><animate attributeName="visibility" values="hidden;visible;hidden;hidden" keyTimes="0;0.4086;0.4176;1" dur="3.87s" repeatCount="indefinite" calcMode="discrete" fill="freeze"/></g><g id="frame-18" visibility="hidden"><g class="bg-layer"><path d="M16 116.8h36v16.8H16z" fill="#39c5cf"/></g><g class="text-layer"><text class="text f13" x="16" y="16">❯</text><text class="text fg" x="23" y="16"> npm test</text><text class="text fg" x="16" y="49.6">&gt; dvd-cli@1.0.0 test</text><text class="text fg" x="16" y="66.4">&gt; vitest run</text><text class="text bold fg" x="16" y="116.8"> RUN </text><text class="text f6" x="59" y="116.8">v4.0.18</text><text class="text f8" x="117" y="116.8">/Users/talhayut/projects/dvd</text><text class="text f2" x="23" y="150.4">✓</text><text class="text fg" x="30" y="150.4"> src/pipeline/svg-emitter/chrome.test.ts</text><text class="text dim fg" x="326" y="150.4">(18 tests)</text><text class="text f2" x="398" y="150.4"> 3</text><text class="text dim f2" x="412" y="150.4">ms</text><text class="text f2" x="23" y="167.2">✓</text><text class="text fg" x="30" y="167.2"> src/utils/wcwidth.test.ts</text><text class="text dim fg" x="225" y="167.2">(28 tests)</text><text class="text f2" x="297" y="167.2"> 3</text><text class="text dim f2" x="311" y="167.2">ms</text><text class="text f2" x="23" y="184">✓</text><text class="text fg" x="30" y="184"> src/pipeline/svg-emitter/utils.test.ts</text><text class="text dim fg" x="318" y="184">(33 tests)</text><text class="text f2" x="390" y="184"> 3</text><text class="text dim f2" x="405" y="184">ms</text><text class="text f2" x="23" y="200.8">✓</text><text class="text fg" x="30" y="200.8"> src/pipeline/svg-emitter/cursor.test.ts</text><text class="text dim fg" x="326" y="200.8">(16 tests)</text><text class="text f2" x="398" y="200.8"> 3</text><text class="text dim f2" x="412" y="200.8">ms</text><text class="text f2" x="23" y="217.6">✓</text><text class="text fg" x="30" y="217.6"> src/animator/svg-animator.test.ts</text><text class="text dim fg" x="282" y="217.6">(21 tests)</text><text class="text f2" x="354" y="217.6"> 5</text><text class="text dim f2" x="369" y="217.6">ms</text><text class="text f2" x="23" y="234.4">✓</text><text class="text fg" x="30" y="234.4"> src/parser/cd-parser.test.ts</text><text class="text dim fg" x="246" y="234.4">(33 tests)</text><text class="text f2" x="318" y="234.4"> 5</text><text class="text dim f2" x="333" y="234.4">ms</text><text class="text f2" x="23" y="251.2">✓</text><text class="text fg" x="30" y="251.2"> src/pipeline/vterminal.test.ts</text><text class="text dim fg" x="261" y="251.2">(23 tests)</text><text class="text f2" x="333" y="251.2"> 11</text><text class="text dim f2" x="354" y="251.2">ms</text><text class="text f2" x="23" y="268">✓</text><text class="text fg" x="30" y="268"> src/pipeline/svg-emitter.test.ts</text><text class="text dim fg" x="275" y="268">(31 tests)</text><text class="text f2" x="347" y="268"> 5</text><text class="text dim f2" x="362" y="268">ms</text><text class="text f2" x="23" y="284.8">✓</text><text class="text fg" x="30" y="284.8"> src/pipeline/coalescer.test.ts</text><text class="text dim fg" x="261" y="284.8">(14 tests)</text><text class="text f2" x="333" y="284.8"> 11</text><text class="text dim f2" x="354" y="284.8">ms</text><text class="text f2" x="23" y="301.6">✓</text><text class="text fg" x="30" y="301.6"> src/executor/executor.test.ts</text><text class="text dim fg" x="254" y="301.6">(30 tests)</text><text class="text f2" x="326" y="301.6"> 55</text><text class="text dim f2" x="347" y="301.6">ms</text><text class="text dim fg" x="16" y="335.2"> Test Files</text><text class="text bold f2" x="110" y="335.2">10 passed</text><text class="text f8" x="174" y="335.2"> (10)</text><text class="text dim fg" x="16" y="352">      Tests</text><text class="text bold f2" x="110" y="352">247 passed</text><text class="text f8" x="182" y="352"> (247)</text><text class="text dim fg" x="16" y="368.8">   Start at</text><text class="text fg" x="102" y="368.8"> 15:04:31</text><text class="text dim fg" x="16" y="385.6">   Duration</text><text class="text fg" x="102" y="385.6"> 295ms</text><text class="text dim fg" x="146" y="385.6"> (transform 962ms, setup 0ms, import 1.10s, tests 103ms, environment 1ms)</text></g><animate attributeName="visibility" values="hidden;visible;hidden;hidden" keyTimes="0;0.4176;0.462;1" dur="3.87s" repeatCount="indefinite" calcMode="discrete" fill="freeze"/></g><g id="frame-19" visibility="hidden"><g class="bg-layer"><path d="M16 116.8h36v16.8H16z" fill="#39c5cf"/></g><g class="text-layer"><text class="text f13" x="16" y="16">❯</text><text class="text fg" x="23" y="16"> npm test</text><text class="text fg" x="16" y="49.6">&gt; dvd-cli@1.0.0 test</text><text class="text fg" x="16" y="66.4">&gt; vitest run</text><text class="text bold fg" x="16" y="116.8"> RUN </text><text class="text f6" x="59" y="116.8">v4.0.18</text><text class="text f8" x="117" y="116.8">/Users/talhayut/projects/dvd</text><text class="text f2" x="23" y="150.4">✓</text><text class="text fg" x="30" y="150.4"> src/pipeline/svg-emitter/chrome.test.ts</text><text class="text dim fg" x="326" y="150.4">(18 tests)</text><text class="text f2" x="398" y="150.4"> 3</text><text class="text dim f2" x="412" y="150.4">ms</text><text class="text f2" x="23" y="167.2">✓</text><text class="text fg" x="30" y="167.2"> src/utils/wcwidth.test.ts</text><text class="text dim fg" x="225" y="167.2">(28 tests)</text><text class="text f2" x="297" y="167.2"> 3</text><text class="text dim f2" x="311" y="167.2">ms</text><text class="text f2" x="23" y="184">✓</text><text class="text fg" x="30" y="184"> src/pipeline/svg-emitter/utils.test.ts</text><text class="text dim fg" x="318" y="184">(33 tests)</text><text class="text f2" x="390" y="184"> 3</text><text class="text dim f2" x="405" y="184">ms</text><text class="text f2" x="23" y="200.8">✓</text><text class="text fg" x="30" y="200.8"> src/pipeline/svg-emitter/cursor.test.ts</text><text class="text dim fg" x="326" y="200.8">(16 tests)</text><text class="text f2" x="398" y="200.8"> 3</text><text class="text dim f2" x="412" y="200.8">ms</text><text class="text f2" x="23" y="217.6">✓</text><text class="text fg" x="30" y="217.6"> src/animator/svg-animator.test.ts</text><text class="text dim fg" x="282" y="217.6">(21 tests)</text><text class="text f2" x="354" y="217.6"> 5</text><text class="text dim f2" x="369" y="217.6">ms</text><text class="text f2" x="23" y="234.4">✓</text><text class="text fg" x="30" y="234.4"> src/parser/cd-parser.test.ts</text><text class="text dim fg" x="246" y="234.4">(33 tests)</text><text class="text f2" x="318" y="234.4"> 5</text><text class="text dim f2" x="333" y="234.4">ms</text><text class="text f2" x="23" y="251.2">✓</text><text class="text fg" x="30" y="251.2"> src/pipeline/vterminal.test.ts</text><text class="text dim fg" x="261" y="251.2">(23 tests)</text><text class="text f2" x="333" y="251.2"> 11</text><text class="text dim f2" x="354" y="251.2">ms</text><text class="text f2" x="23" y="268">✓</text><text class="text fg" x="30" y="268"> src/pipeline/svg-emitter.test.ts</text><text class="text dim fg" x="275" y="268">(31 tests)</text><text class="text f2" x="347" y="268"> 5</text><text class="text dim f2" x="362" y="268">ms</text><text class="text f2" x="23" y="284.8">✓</text><text class="text fg" x="30" y="284.8"> src/pipeline/coalescer.test.ts</text><text class="text dim fg" x="261" y="284.8">(14 tests)</text><text class="text f2" x="333" y="284.8"> 11</text><text class="text dim f2" x="354" y="284.8">ms</text><text class="text f2" x="23" y="301.6">✓</text><text class="text fg" x="30" y="301.6"> src/executor/executor.test.ts</text><text class="text dim fg" x="254" y="301.6">(30 tests)</text><text class="text f2" x="326" y="301.6"> 55</text><text class="text dim f2" x="347" y="301.6">ms</text><text class="text dim fg" x="16" y="335.2"> Test Files</text><text class="text bold f2" x="110" y="335.2">10 passed</text><text class="text f8" x="174" y="335.2"> (10)</text><text class="text dim fg" x="16" y="352">      Tests</text><text class="text bold f2" x="110" y="352">247 passed</text><text class="text f8" x="182" y="352"> (247)</text><text class="text dim fg" x="16" y="368.8">   Start at</text><text class="text fg" x="102" y="368.8"> 15:04:31</text><text class="text dim fg" x="16" y="385.6">   Duration</text><text class="text fg" x="102" y="385.6"> 295ms</text><text class="text dim fg" x="146" y="385.6"> (transform 962ms, setup 0ms, import 1.10s, tests 103ms, environment 1ms)</text><text class="text f13" x="16" y="419.2">❯</text></g><g class="cursor-layer"><path d="M30.4 419.2h7.2v16.8H30.4z" fill="#c9d1d9" class="cursor"/></g><animate attributeName="visibility" values="hidden;visible;hidden;hidden" keyTimes="0;0.462;0.7417;1" dur="3.87s" repeatCount="indefinite" calcMode="discrete" fill="freeze"/></g><g id="frame-20" visibility="hidden"><g class="bg-layer"><path d="M16 116.8h36v16.8H16z" fill="#39c5cf"/></g><g class="text-layer"><text class="text f13" x="16" y="16">❯</text><text class="text fg" x="23" y="16"> npm test</text><text class="text fg" x="16" y="49.6">&gt; dvd-cli@1.0.0 test</text><text class="text fg" x="16" y="66.4">&gt; vitest run</text><text class="text bold fg" x="16" y="116.8"> RUN </text><text class="text f6" x="59" y="116.8">v4.0.18</text><text class="text f8" x="117" y="116.8">/Users/talhayut/projects/dvd</text><text class="text f2" x="23" y="150.4">✓</text><text class="text fg" x="30" y="150.4"> src/pipeline/svg-emitter/chrome.test.ts</text><text class="text dim fg" x="326" y="150.4">(18 tests)</text><text class="text f2" x="398" y="150.4"> 3</text><text class="text dim f2" x="412" y="150.4">ms</text><text class="text f2" x="23" y="167.2">✓</text><text class="text fg" x="30" y="167.2"> src/utils/wcwidth.test.ts</text><text class="text dim fg" x="225" y="167.2">(28 tests)</text><text class="text f2" x="297" y="167.2"> 3</text><text class="text dim f2" x="311" y="167.2">ms</text><text class="text f2" x="23" y="184">✓</text><text class="text fg" x="30" y="184"> src/pipeline/svg-emitter/utils.test.ts</text><text class="text dim fg" x="318" y="184">(33 tests)</text><text class="text f2" x="390" y="184"> 3</text><text class="text dim f2" x="405" y="184">ms</text><text class="text f2" x="23" y="200.8">✓</text><text class="text fg" x="30" y="200.8"> src/pipeline/svg-emitter/cursor.test.ts</text><text class="text dim fg" x="326" y="200.8">(16 tests)</text><text class="text f2" x="398" y="200.8"> 3</text><text class="text dim f2" x="412" y="200.8">ms</text><text class="text f2" x="23" y="217.6">✓</text><text class="text fg" x="30" y="217.6"> src/animator/svg-animator.test.ts</text><text class="text dim fg" x="282" y="217.6">(21 tests)</text><text class="text f2" x="354" y="217.6"> 5</text><text class="text dim f2" x="369" y="217.6">ms</text><text class="text f2" x="23" y="234.4">✓</text><text class="text fg" x="30" y="234.4"> src/parser/cd-parser.test.ts</text><text class="text dim fg" x="246" y="234.4">(33 tests)</text><text class="text f2" x="318" y="234.4"> 5</text><text class="text dim f2" x="333" y="234.4">ms</text><text class="text f2" x="23" y="251.2">✓</text><text class="text fg" x="30" y="251.2"> src/pipeline/vterminal.test.ts</text><text class="text dim fg" x="261" y="251.2">(23 tests)</text><text class="text f2" x="333" y="251.2"> 11</text><text class="text dim f2" x="354" y="251.2">ms</text><text class="text f2" x="23" y="268">✓</text><text class="text fg" x="30" y="268"> src/pipeline/svg-emitter.test.ts</text><text class="text dim fg" x="275" y="268">(31 tests)</text><text class="text f2" x="347" y="268"> 5</text><text class="text dim f2" x="362" y="268">ms</text><text class="text f2" x="23" y="284.8">✓</text><text class="text fg" x="30" y="284.8"> src/pipeline/coalescer.test.ts</text><text class="text dim fg" x="261" y="284.8">(14 tests)</text><text class="text f2" x="333" y="284.8"> 11</text><text class="text dim f2" x="354" y="284.8">ms</text><text class="text f2" x="23" y="301.6">✓</text><text class="text fg" x="30" y="301.6"> src/executor/executor.test.ts</text><text class="text dim fg" x="254" y="301.6">(30 tests)</text><text class="text f2" x="326" y="301.6"> 55</text><text class="text dim f2" x="347" y="301.6">ms</text><text class="text dim fg" x="16" y="335.2"> Test Files</text><text class="text bold f2" x="110" y="335.2">10 passed</text><text class="text f8" x="174" y="335.2"> (10)</text><text class="text dim fg" x="16" y="352">      Tests</text><text class="text bold f2" x="110" y="352">247 passed</text><text class="text f8" x="182" y="352"> (247)</text><text class="text dim fg" x="16" y="368.8">   Start at</text><text class="text fg" x="102" y="368.8"> 15:04:31</text><text class="text dim fg" x="16" y="385.6">   Duration</text><text class="text fg" x="102" y="385.6"> 295ms</text><text class="text dim fg" x="146" y="385.6"> (transform 962ms, setup 0ms, import 1.10s, tests 103ms, environment 1ms)</text><text class="text f13" x="16" y="419.2">❯</text></g><g class="cursor-layer"><path d="M30.4 419.2h7.2v16.8H30.4z" fill="#c9d1d9" class="cursor"/></g><animate attributeName="visibility" values="hidden;visible;visible" keyTimes="0;0.7417;1" dur="3.87s" repeatCount="indefinite" calcMode="discrete" fill="freeze"/></g></g></svg>