<svg width="310" height="139" xmlns="http://www.w3.org/2000/svg">
  <defs><clipPath id="rounded-corners"><rect x="0" y="0" width="310" height="139" rx="8" ry="8"/></clipPath></defs>
  <style>
    
.text {
  font-family: 'SF Mono', 'Monaco', 'Menlo', 'Consolas', monospace;
  font-size: 14px;
  dominant-baseline: text-before-edge;
  text-rendering: geometricPrecision;
  white-space: pre;
}
.bold { font-weight: bold; }
.italic { font-style: italic; }
.uline { text-decoration: underline; }
.strike { text-decoration: line-through; }
.dim { opacity: 0.5; }
.fg { fill: #c9d1d9; }
.f0 { fill: #484f58; }
.f1 { fill: #ff7b72; }
.f2 { fill: #3fb950; }
.f3 { fill: #d29922; }
.f4 { fill: #58a6ff; }
.f5 { fill: #bc8cff; }
.f6 { fill: #39c5cf; }
.f7 { fill: #b1bac4; }
.f8 { fill: #6e7681; }
.f9 { fill: #ffa198; }
.f10 { fill: #56d364; }
.f11 { fill: #e3b341; }
.f12 { fill: #79c0ff; }
.f13 { fill: #d2a8ff; }
.f14 { fill: #56d4dd; }
.f15 { fill: #f0f6fc; }
.bg { fill: #0d1117; }
.b0 { fill: #484f58; }
.b1 { fill: #ff7b72; }
.b2 { fill: #3fb950; }
.b3 { fill: #d29922; }
.b4 { fill: #58a6ff; }
.b5 { fill: #bc8cff; }
.b6 { fill: #39c5cf; }
.b7 { fill: #b1bac4; }
.b8 { fill: #6e7681; }
.b9 { fill: #ffa198; }
.b10 { fill: #56d364; }
.b11 { fill: #e3b341; }
.b12 { fill: #79c0ff; }
.b13 { fill: #d2a8ff; }
.b14 { fill: #56d4dd; }
.b15 { fill: #f0f6fc; }
.cursor { animation: blink 1s step-end infinite; }
@keyframes blink {
  0%, 50% { opacity: 1; }
  50.01%, 100% { opacity: 0; }
}
.cursor-active { opacity: 1; }

  </style>

  <g clip-path="url(#rounded-corners)">
  <!-- Persistent background - never animated -->
  <rect width="100%" height="100%" fill="#0d1117" rx="8" ry="8" />

  <!-- Animated frames with discrete visibility transitions -->
  
  <g id="frame-0" visibility="visible">
    <rect class="window-bg" x="0" y="0" width="310" height="139" fill="#0d1117" rx="8" ry="8"/>
<g class="chrome"><rect class="header-bg" x="0" y="0" width="310" height="40" fill="#0d1117" rx="8" ry="8"/>
<rect x="0" y="32" width="310" height="8" fill="#0d1117"/>
<circle cx="22" cy="20" r="6" fill="#ff5f56"/>
<circle cx="42" cy="20" r="6" fill="#ffbd2e"/>
<circle cx="62" cy="20" r="6" fill="#27c93f"/>
<text class="text fg" x="155" y="20" text-anchor="middle" style="dominant-baseline: central">Directory Tree</text></g>
<g class="text-layer">
<text class="text f13" x="16" y="56">❯</text>
</g>
<g class="cursor-layer">
<rect class="cursor" x="32.8" y="56" width="8.4" height="19.6" fill="#c9d1d9"/>
</g>
    <animate attributeName="visibility" values="visible;hidden;hidden" keyTimes="0;0.010565;1" dur="5.21s" repeatCount="indefinite" calcMode="discrete" fill="freeze"/>
  </g>

  <g id="frame-1" visibility="hidden">
    <rect class="window-bg" x="0" y="0" width="310" height="139" fill="#0d1117" rx="8" ry="8"/>
<g class="chrome"><rect class="header-bg" x="0" y="0" width="310" height="40" fill="#0d1117" rx="8" ry="8"/>
<rect x="0" y="32" width="310" height="8" fill="#0d1117"/>
<circle cx="22" cy="20" r="6" fill="#ff5f56"/>
<circle cx="42" cy="20" r="6" fill="#ffbd2e"/>
<circle cx="62" cy="20" r="6" fill="#27c93f"/>
<text class="text fg" x="155" y="20" text-anchor="middle" style="dominant-baseline: central">Directory Tree</text></g>
<g class="text-layer">
<text class="text f13" x="16" y="56">❯</text>
<text class="text fg" x="24.4" y="56"> t</text>
</g>
<g class="cursor-layer">
<rect class="cursor-active" x="41.2" y="56" width="8.4" height="19.6" fill="#c9d1d9"/>
</g>
    <animate attributeName="visibility" values="hidden;visible;hidden;hidden" keyTimes="0;0.010565;0.020169;1" dur="5.21s" repeatCount="indefinite" calcMode="discrete" fill="freeze"/>
  </g>

  <g id="frame-2" visibility="hidden">
    <rect class="window-bg" x="0" y="0" width="310" height="139" fill="#0d1117" rx="8" ry="8"/>
<g class="chrome"><rect class="header-bg" x="0" y="0" width="310" height="40" fill="#0d1117" rx="8" ry="8"/>
<rect x="0" y="32" width="310" height="8" fill="#0d1117"/>
<circle cx="22" cy="20" r="6" fill="#ff5f56"/>
<circle cx="42" cy="20" r="6" fill="#ffbd2e"/>
<circle cx="62" cy="20" r="6" fill="#27c93f"/>
<text class="text fg" x="155" y="20" text-anchor="middle" style="dominant-baseline: central">Directory Tree</text></g>
<g class="text-layer">
<text class="text f13" x="16" y="56">❯</text>
<text class="text fg" x="24.4" y="56"> tr</text>
</g>
<g class="cursor-layer">
<rect class="cursor-active" x="49.6" y="56" width="8.4" height="19.6" fill="#c9d1d9"/>
</g>
    <animate attributeName="visibility" values="hidden;visible;hidden;hidden" keyTimes="0;0.020169;0.029773;1" dur="5.21s" repeatCount="indefinite" calcMode="discrete" fill="freeze"/>
  </g>

  <g id="frame-3" visibility="hidden">
    <rect class="window-bg" x="0" y="0" width="310" height="139" fill="#0d1117" rx="8" ry="8"/>
<g class="chrome"><rect class="header-bg" x="0" y="0" width="310" height="40" fill="#0d1117" rx="8" ry="8"/>
<rect x="0" y="32" width="310" height="8" fill="#0d1117"/>
<circle cx="22" cy="20" r="6" fill="#ff5f56"/>
<circle cx="42" cy="20" r="6" fill="#ffbd2e"/>
<circle cx="62" cy="20" r="6" fill="#27c93f"/>
<text class="text fg" x="155" y="20" text-anchor="middle" style="dominant-baseline: central">Directory Tree</text></g>
<g class="text-layer">
<text class="text f13" x="16" y="56">❯</text>
<text class="text fg" x="24.4" y="56"> tre</text>
</g>
<g class="cursor-layer">
<rect class="cursor-active" x="58" y="56" width="8.4" height="19.6" fill="#c9d1d9"/>
</g>
    <animate attributeName="visibility" values="hidden;visible;hidden;hidden" keyTimes="0;0.029773;0.039762;1" dur="5.21s" repeatCount="indefinite" calcMode="discrete" fill="freeze"/>
  </g>

  <g id="frame-4" visibility="hidden">
    <rect class="window-bg" x="0" y="0" width="310" height="139" fill="#0d1117" rx="8" ry="8"/>
<g class="chrome"><rect class="header-bg" x="0" y="0" width="310" height="40" fill="#0d1117" rx="8" ry="8"/>
<rect x="0" y="32" width="310" height="8" fill="#0d1117"/>
<circle cx="22" cy="20" r="6" fill="#ff5f56"/>
<circle cx="42" cy="20" r="6" fill="#ffbd2e"/>
<circle cx="62" cy="20" r="6" fill="#27c93f"/>
<text class="text fg" x="155" y="20" text-anchor="middle" style="dominant-baseline: central">Directory Tree</text></g>
<g class="text-layer">
<text class="text f13" x="16" y="56">❯</text>
<text class="text fg" x="24.4" y="56"> tree</text>
</g>
<g class="cursor-layer">
<rect class="cursor-active" x="66.4" y="56" width="8.4" height="19.6" fill="#c9d1d9"/>
</g>
    <animate attributeName="visibility" values="hidden;visible;hidden;hidden" keyTimes="0;0.039762;0.049558;1" dur="5.21s" repeatCount="indefinite" calcMode="discrete" fill="freeze"/>
  </g>

  <g id="frame-5" visibility="hidden">
    <rect class="window-bg" x="0" y="0" width="310" height="139" fill="#0d1117" rx="8" ry="8"/>
<g class="chrome"><rect class="header-bg" x="0" y="0" width="310" height="40" fill="#0d1117" rx="8" ry="8"/>
<rect x="0" y="32" width="310" height="8" fill="#0d1117"/>
<circle cx="22" cy="20" r="6" fill="#ff5f56"/>
<circle cx="42" cy="20" r="6" fill="#ffbd2e"/>
<circle cx="62" cy="20" r="6" fill="#27c93f"/>
<text class="text fg" x="155" y="20" text-anchor="middle" style="dominant-baseline: central">Directory Tree</text></g>
<g class="text-layer">
<text class="text f13" x="16" y="56">❯</text>
<text class="text fg" x="24.4" y="56"> tree</text>
</g>
<g class="cursor-layer">
<rect class="cursor-active" x="74.8" y="56" width="8.4" height="19.6" fill="#c9d1d9"/>
</g>
    <animate attributeName="visibility" values="hidden;visible;hidden;hidden" keyTimes="0;0.049558;0.059547;1" dur="5.21s" repeatCount="indefinite" calcMode="discrete" fill="freeze"/>
  </g>

  <g id="frame-6" visibility="hidden">
    <rect class="window-bg" x="0" y="0" width="310" height="139" fill="#0d1117" rx="8" ry="8"/>
<g class="chrome"><rect class="header-bg" x="0" y="0" width="310" height="40" fill="#0d1117" rx="8" ry="8"/>
<rect x="0" y="32" width="310" height="8" fill="#0d1117"/>
<circle cx="22" cy="20" r="6" fill="#ff5f56"/>
<circle cx="42" cy="20" r="6" fill="#ffbd2e"/>
<circle cx="62" cy="20" r="6" fill="#27c93f"/>
<text class="text fg" x="155" y="20" text-anchor="middle" style="dominant-baseline: central">Directory Tree</text></g>
<g class="text-layer">
<text class="text f13" x="16" y="56">❯</text>
<text class="text fg" x="24.4" y="56"> tree -</text>
</g>
<g class="cursor-layer">
<rect class="cursor-active" x="83.2" y="56" width="8.4" height="19.6" fill="#c9d1d9"/>
</g>
    <animate attributeName="visibility" values="hidden;visible;hidden;hidden" keyTimes="0;0.059547;0.069727;1" dur="5.21s" repeatCount="indefinite" calcMode="discrete" fill="freeze"/>
  </g>

  <g id="frame-7" visibility="hidden">
    <rect class="window-bg" x="0" y="0" width="310" height="139" fill="#0d1117" rx="8" ry="8"/>
<g class="chrome"><rect class="header-bg" x="0" y="0" width="310" height="40" fill="#0d1117" rx="8" ry="8"/>
<rect x="0" y="32" width="310" height="8" fill="#0d1117"/>
<circle cx="22" cy="20" r="6" fill="#ff5f56"/>
<circle cx="42" cy="20" r="6" fill="#ffbd2e"/>
<circle cx="62" cy="20" r="6" fill="#27c93f"/>
<text class="text fg" x="155" y="20" text-anchor="middle" style="dominant-baseline: central">Directory Tree</text></g>
<g class="text-layer">
<text class="text f13" x="16" y="56">❯</text>
<text class="text fg" x="24.4" y="56"> tree -L</text>
</g>
<g class="cursor-layer">
<rect class="cursor-active" x="91.6" y="56" width="8.4" height="19.6" fill="#c9d1d9"/>
</g>
    <animate attributeName="visibility" values="hidden;visible;hidden;hidden" keyTimes="0;0.069727;0.079332;1" dur="5.21s" repeatCount="indefinite" calcMode="discrete" fill="freeze"/>
  </g>

  <g id="frame-8" visibility="hidden">
    <rect class="window-bg" x="0" y="0" width="310" height="139" fill="#0d1117" rx="8" ry="8"/>
<g class="chrome"><rect class="header-bg" x="0" y="0" width="310" height="40" fill="#0d1117" rx="8" ry="8"/>
<rect x="0" y="32" width="310" height="8" fill="#0d1117"/>
<circle cx="22" cy="20" r="6" fill="#ff5f56"/>
<circle cx="42" cy="20" r="6" fill="#ffbd2e"/>
<circle cx="62" cy="20" r="6" fill="#27c93f"/>
<text class="text fg" x="155" y="20" text-anchor="middle" style="dominant-baseline: central">Directory Tree</text></g>
<g class="text-layer">
<text class="text f13" x="16" y="56">❯</text>
<text class="text fg" x="24.4" y="56"> tree -L</text>
</g>
<g class="cursor-layer">
<rect class="cursor-active" x="100" y="56" width="8.4" height="19.6" fill="#c9d1d9"/>
</g>
    <animate attributeName="visibility" values="hidden;visible;hidden;hidden" keyTimes="0;0.079332;0.088744;1" dur="5.21s" repeatCount="indefinite" calcMode="discrete" fill="freeze"/>
  </g>

  <g id="frame-9" visibility="hidden">
    <rect class="window-bg" x="0" y="0" width="310" height="139" fill="#0d1117" rx="8" ry="8"/>
<g class="chrome"><rect class="header-bg" x="0" y="0" width="310" height="40" fill="#0d1117" rx="8" ry="8"/>
<rect x="0" y="32" width="310" height="8" fill="#0d1117"/>
<circle cx="22" cy="20" r="6" fill="#ff5f56"/>
<circle cx="42" cy="20" r="6" fill="#ffbd2e"/>
<circle cx="62" cy="20" r="6" fill="#27c93f"/>
<text class="text fg" x="155" y="20" text-anchor="middle" style="dominant-baseline: central">Directory Tree</text></g>
<g class="text-layer">
<text class="text f13" x="16" y="56">❯</text>
<text class="text fg" x="24.4" y="56"> tree -L 2</text>
</g>
<g class="cursor-layer">
<rect class="cursor-active" x="108.4" y="56" width="8.4" height="19.6" fill="#c9d1d9"/>
</g>
    <animate attributeName="visibility" values="hidden;visible;hidden;hidden" keyTimes="0;0.088744;0.098732;1" dur="5.21s" repeatCount="indefinite" calcMode="discrete" fill="freeze"/>
  </g>

  <g id="frame-10" visibility="hidden">
    <rect class="window-bg" x="0" y="0" width="310" height="139" fill="#0d1117" rx="8" ry="8"/>
<g class="chrome"><rect class="header-bg" x="0" y="0" width="310" height="40" fill="#0d1117" rx="8" ry="8"/>
<rect x="0" y="32" width="310" height="8" fill="#0d1117"/>
<circle cx="22" cy="20" r="6" fill="#ff5f56"/>
<circle cx="42" cy="20" r="6" fill="#ffbd2e"/>
<circle cx="62" cy="20" r="6" fill="#27c93f"/>
<text class="text fg" x="155" y="20" text-anchor="middle" style="dominant-baseline: central">Directory Tree</text></g>
<g class="text-layer">
<text class="text f13" x="16" y="56">❯</text>
<text class="text fg" x="24.4" y="56"> tree -L 2</text>
</g>
<g class="cursor-layer">
<rect class="cursor-active" x="116.8" y="56" width="8.4" height="19.6" fill="#c9d1d9"/>
</g>
    <animate attributeName="visibility" values="hidden;visible;hidden;hidden" keyTimes="0;0.098732;0.108144;1" dur="5.21s" repeatCount="indefinite" calcMode="discrete" fill="freeze"/>
  </g>

  <g id="frame-11" visibility="hidden">
    <rect class="window-bg" x="0" y="0" width="310" height="139" fill="#0d1117" rx="8" ry="8"/>
<g class="chrome"><rect class="header-bg" x="0" y="0" width="310" height="40" fill="#0d1117" rx="8" ry="8"/>
<rect x="0" y="32" width="310" height="8" fill="#0d1117"/>
<circle cx="22" cy="20" r="6" fill="#ff5f56"/>
<circle cx="42" cy="20" r="6" fill="#ffbd2e"/>
<circle cx="62" cy="20" r="6" fill="#27c93f"/>
<text class="text fg" x="155" y="20" text-anchor="middle" style="dominant-baseline: central">Directory Tree</text></g>
<g class="text-layer">
<text class="text f13" x="16" y="56">❯</text>
<text class="text fg" x="24.4" y="56"> tree -L 2 -</text>
</g>
<g class="cursor-layer">
<rect class="cursor-active" x="125.2" y="56" width="8.4" height="19.6" fill="#c9d1d9"/>
</g>
    <animate attributeName="visibility" values="hidden;visible;hidden;hidden" keyTimes="0;0.108144;0.117557;1" dur="5.21s" repeatCount="indefinite" calcMode="discrete" fill="freeze"/>
  </g>

  <g id="frame-12" visibility="hidden">
    <rect class="window-bg" x="0" y="0" width="310" height="139" fill="#0d1117" rx="8" ry="8"/>
<g class="chrome"><rect class="header-bg" x="0" y="0" width="310" height="40" fill="#0d1117" rx="8" ry="8"/>
<rect x="0" y="32" width="310" height="8" fill="#0d1117"/>
<circle cx="22" cy="20" r="6" fill="#ff5f56"/>
<circle cx="42" cy="20" r="6" fill="#ffbd2e"/>
<circle cx="62" cy="20" r="6" fill="#27c93f"/>
<text class="text fg" x="155" y="20" text-anchor="middle" style="dominant-baseline: central">Directory Tree</text></g>
<g class="text-layer">
<text class="text f13" x="16" y="56">❯</text>
<text class="text fg" x="24.4" y="56"> tree -L 2 --</text>
</g>
<g class="cursor-layer">
<rect class="cursor-active" x="133.6" y="56" width="8.4" height="19.6" fill="#c9d1d9"/>
</g>
    <animate attributeName="visibility" values="hidden;visible;hidden;hidden" keyTimes="0;0.117557;0.127353;1" dur="5.21s" repeatCount="indefinite" calcMode="discrete" fill="freeze"/>
  </g>

  <g id="frame-13" visibility="hidden">
    <rect class="window-bg" x="0" y="0" width="310" height="139" fill="#0d1117" rx="8" ry="8"/>
<g class="chrome"><rect class="header-bg" x="0" y="0" width="310" height="40" fill="#0d1117" rx="8" ry="8"/>
<rect x="0" y="32" width="310" height="8" fill="#0d1117"/>
<circle cx="22" cy="20" r="6" fill="#ff5f56"/>
<circle cx="42" cy="20" r="6" fill="#ffbd2e"/>
<circle cx="62" cy="20" r="6" fill="#27c93f"/>
<text class="text fg" x="155" y="20" text-anchor="middle" style="dominant-baseline: central">Directory Tree</text></g>
<g class="text-layer">
<text class="text f13" x="16" y="56">❯</text>
<text class="text fg" x="24.4" y="56"> tree -L 2 --d</text>
</g>
<g class="cursor-layer">
<rect class="cursor-active" x="142" y="56" width="8.4" height="19.6" fill="#c9d1d9"/>
</g>
    <animate attributeName="visibility" values="hidden;visible;hidden;hidden" keyTimes="0;0.127353;0.137342;1" dur="5.21s" repeatCount="indefinite" calcMode="discrete" fill="freeze"/>
  </g>

  <g id="frame-14" visibility="hidden">
    <rect class="window-bg" x="0" y="0" width="310" height="139" fill="#0d1117" rx="8" ry="8"/>
<g class="chrome"><rect class="header-bg" x="0" y="0" width="310" height="40" fill="#0d1117" rx="8" ry="8"/>
<rect x="0" y="32" width="310" height="8" fill="#0d1117"/>
<circle cx="22" cy="20" r="6" fill="#ff5f56"/>
<circle cx="42" cy="20" r="6" fill="#ffbd2e"/>
<circle cx="62" cy="20" r="6" fill="#27c93f"/>
<text class="text fg" x="155" y="20" text-anchor="middle" style="dominant-baseline: central">Directory Tree</text></g>
<g class="text-layer">
<text class="text f13" x="16" y="56">❯</text>
<text class="text fg" x="24.4" y="56"> tree -L 2 --di</text>
</g>
<g class="cursor-layer">
<rect class="cursor-active" x="150.4" y="56" width="8.4" height="19.6" fill="#c9d1d9"/>
</g>
    <animate attributeName="visibility" values="hidden;visible;hidden;hidden" keyTimes="0;0.137342;0.146754;1" dur="5.21s" repeatCount="indefinite" calcMode="discrete" fill="freeze"/>
  </g>

  <g id="frame-15" visibility="hidden">
    <rect class="window-bg" x="0" y="0" width="310" height="139" fill="#0d1117" rx="8" ry="8"/>
<g class="chrome"><rect class="header-bg" x="0" y="0" width="310" height="40" fill="#0d1117" rx="8" ry="8"/>
<rect x="0" y="32" width="310" height="8" fill="#0d1117"/>
<circle cx="22" cy="20" r="6" fill="#ff5f56"/>
<circle cx="42" cy="20" r="6" fill="#ffbd2e"/>
<circle cx="62" cy="20" r="6" fill="#27c93f"/>
<text class="text fg" x="155" y="20" text-anchor="middle" style="dominant-baseline: central">Directory Tree</text></g>
<g class="text-layer">
<text class="text f13" x="16" y="56">❯</text>
<text class="text fg" x="24.4" y="56"> tree -L 2 --dir</text>
</g>
<g class="cursor-layer">
<rect class="cursor-active" x="158.8" y="56" width="8.4" height="19.6" fill="#c9d1d9"/>
</g>
    <animate attributeName="visibility" values="hidden;visible;hidden;hidden" keyTimes="0;0.146754;0.156742;1" dur="5.21s" repeatCount="indefinite" calcMode="discrete" fill="freeze"/>
  </g>

  <g id="frame-16" visibility="hidden">
    <rect class="window-bg" x="0" y="0" width="310" height="139" fill="#0d1117" rx="8" ry="8"/>
<g class="chrome"><rect class="header-bg" x="0" y="0" width="310" height="40" fill="#0d1117" rx="8" ry="8"/>
<rect x="0" y="32" width="310" height="8" fill="#0d1117"/>
<circle cx="22" cy="20" r="6" fill="#ff5f56"/>
<circle cx="42" cy="20" r="6" fill="#ffbd2e"/>
<circle cx="62" cy="20" r="6" fill="#27c93f"/>
<text class="text fg" x="155" y="20" text-anchor="middle" style="dominant-baseline: central">Directory Tree</text></g>
<g class="text-layer">
<text class="text f13" x="16" y="56">❯</text>
<text class="text fg" x="24.4" y="56"> tree -L 2 --dirs</text>
</g>
<g class="cursor-layer">
<rect class="cursor-active" x="167.2" y="56" width="8.4" height="19.6" fill="#c9d1d9"/>
</g>
    <animate attributeName="visibility" values="hidden;visible;hidden;hidden" keyTimes="0;0.156742;0.166347;1" dur="5.21s" repeatCount="indefinite" calcMode="discrete" fill="freeze"/>
  </g>

  <g id="frame-17" visibility="hidden">
    <rect class="window-bg" x="0" y="0" width="310" height="139" fill="#0d1117" rx="8" ry="8"/>
<g class="chrome"><rect class="header-bg" x="0" y="0" width="310" height="40" fill="#0d1117" rx="8" ry="8"/>
<rect x="0" y="32" width="310" height="8" fill="#0d1117"/>
<circle cx="22" cy="20" r="6" fill="#ff5f56"/>
<circle cx="42" cy="20" r="6" fill="#ffbd2e"/>
<circle cx="62" cy="20" r="6" fill="#27c93f"/>
<text class="text fg" x="155" y="20" text-anchor="middle" style="dominant-baseline: central">Directory Tree</text></g>
<g class="text-layer">
<text class="text f13" x="16" y="56">❯</text>
<text class="text fg" x="24.4" y="56"> tree -L 2 --dirsf</text>
</g>
<g class="cursor-layer">
<rect class="cursor-active" x="175.6" y="56" width="8.4" height="19.6" fill="#c9d1d9"/>
</g>
    <animate attributeName="visibility" values="hidden;visible;hidden;hidden" keyTimes="0;0.166347;0.176335;1" dur="5.21s" repeatCount="indefinite" calcMode="discrete" fill="freeze"/>
  </g>

  <g id="frame-18" visibility="hidden">
    <rect class="window-bg" x="0" y="0" width="310" height="139" fill="#0d1117" rx="8" ry="8"/>
<g class="chrome"><rect class="header-bg" x="0" y="0" width="310" height="40" fill="#0d1117" rx="8" ry="8"/>
<rect x="0" y="32" width="310" height="8" fill="#0d1117"/>
<circle cx="22" cy="20" r="6" fill="#ff5f56"/>
<circle cx="42" cy="20" r="6" fill="#ffbd2e"/>
<circle cx="62" cy="20" r="6" fill="#27c93f"/>
<text class="text fg" x="155" y="20" text-anchor="middle" style="dominant-baseline: central">Directory Tree</text></g>
<g class="text-layer">
<text class="text f13" x="16" y="56">❯</text>
<text class="text fg" x="24.4" y="56"> tree -L 2 --dirsfi</text>
</g>
<g class="cursor-layer">
<rect class="cursor-active" x="184" y="56" width="8.4" height="19.6" fill="#c9d1d9"/>
</g>
    <animate attributeName="visibility" values="hidden;visible;hidden;hidden" keyTimes="0;0.176335;0.186131;1" dur="5.21s" repeatCount="indefinite" calcMode="discrete" fill="freeze"/>
  </g>

  <g id="frame-19" visibility="hidden">
    <rect class="window-bg" x="0" y="0" width="310" height="139" fill="#0d1117" rx="8" ry="8"/>
<g class="chrome"><rect class="header-bg" x="0" y="0" width="310" height="40" fill="#0d1117" rx="8" ry="8"/>
<rect x="0" y="32" width="310" height="8" fill="#0d1117"/>
<circle cx="22" cy="20" r="6" fill="#ff5f56"/>
<circle cx="42" cy="20" r="6" fill="#ffbd2e"/>
<circle cx="62" cy="20" r="6" fill="#27c93f"/>
<text class="text fg" x="155" y="20" text-anchor="middle" style="dominant-baseline: central">Directory Tree</text></g>
<g class="text-layer">
<text class="text f13" x="16" y="56">❯</text>
<text class="text fg" x="24.4" y="56"> tree -L 2 --dirsfir</text>
</g>
<g class="cursor-layer">
<rect class="cursor-active" x="192.4" y="56" width="8.4" height="19.6" fill="#c9d1d9"/>
</g>
    <animate attributeName="visibility" values="hidden;visible;hidden;hidden" keyTimes="0;0.186131;0.19612;1" dur="5.21s" repeatCount="indefinite" calcMode="discrete" fill="freeze"/>
  </g>

  <g id="frame-20" visibility="hidden">
    <rect class="window-bg" x="0" y="0" width="310" height="139" fill="#0d1117" rx="8" ry="8"/>
<g class="chrome"><rect class="header-bg" x="0" y="0" width="310" height="40" fill="#0d1117" rx="8" ry="8"/>
<rect x="0" y="32" width="310" height="8" fill="#0d1117"/>
<circle cx="22" cy="20" r="6" fill="#ff5f56"/>
<circle cx="42" cy="20" r="6" fill="#ffbd2e"/>
<circle cx="62" cy="20" r="6" fill="#27c93f"/>
<text class="text fg" x="155" y="20" text-anchor="middle" style="dominant-baseline: central">Directory Tree</text></g>
<g class="text-layer">
<text class="text f13" x="16" y="56">❯</text>
<text class="text fg" x="24.4" y="56"> tree -L 2 --dirsfirs</text>
</g>
<g class="cursor-layer">
<rect class="cursor-active" x="200.8" y="56" width="8.4" height="19.6" fill="#c9d1d9"/>
</g>
    <animate attributeName="visibility" values="hidden;visible;hidden;hidden" keyTimes="0;0.19612;0.205724;1" dur="5.21s" repeatCount="indefinite" calcMode="discrete" fill="freeze"/>
  </g>

  <g id="frame-21" visibility="hidden">
    <rect class="window-bg" x="0" y="0" width="310" height="139" fill="#0d1117" rx="8" ry="8"/>
<g class="chrome"><rect class="header-bg" x="0" y="0" width="310" height="40" fill="#0d1117" rx="8" ry="8"/>
<rect x="0" y="32" width="310" height="8" fill="#0d1117"/>
<circle cx="22" cy="20" r="6" fill="#ff5f56"/>
<circle cx="42" cy="20" r="6" fill="#ffbd2e"/>
<circle cx="62" cy="20" r="6" fill="#27c93f"/>
<text class="text fg" x="155" y="20" text-anchor="middle" style="dominant-baseline: central">Directory Tree</text></g>
<g class="text-layer">
<text class="text f13" x="16" y="56">❯</text>
<text class="text fg" x="24.4" y="56"> tree -L 2 --dirsfirst</text>
</g>
<g class="cursor-layer">
<rect class="cursor-active" x="209.2" y="56" width="8.4" height="19.6" fill="#c9d1d9"/>
</g>
    <animate attributeName="visibility" values="hidden;visible;hidden;hidden" keyTimes="0;0.205724;0.215713;1" dur="5.21s" repeatCount="indefinite" calcMode="discrete" fill="freeze"/>
  </g>

  <g id="frame-22" visibility="hidden">
    <rect class="window-bg" x="0" y="0" width="310" height="139" fill="#0d1117" rx="8" ry="8"/>
<g class="chrome"><rect class="header-bg" x="0" y="0" width="310" height="40" fill="#0d1117" rx="8" ry="8"/>
<rect x="0" y="32" width="310" height="8" fill="#0d1117"/>
<circle cx="22" cy="20" r="6" fill="#ff5f56"/>
<circle cx="42" cy="20" r="6" fill="#ffbd2e"/>
<circle cx="62" cy="20" r="6" fill="#27c93f"/>
<text class="text fg" x="155" y="20" text-anchor="middle" style="dominant-baseline: central">Directory Tree</text></g>
<g class="text-layer">
<text class="text f13" x="16" y="56">❯</text>
<text class="text fg" x="24.4" y="56"> tree -L 2 --dirsfirst</text>
</g>
<g class="cursor-layer">
<rect class="cursor-active" x="217.6" y="56" width="8.4" height="19.6" fill="#c9d1d9"/>
</g>
    <animate attributeName="visibility" values="hidden;visible;hidden;hidden" keyTimes="0;0.215713;0.225317;1" dur="5.21s" repeatCount="indefinite" calcMode="discrete" fill="freeze"/>
  </g>

  <g id="frame-23" visibility="hidden">
    <rect class="window-bg" x="0" y="0" width="310" height="139" fill="#0d1117" rx="8" ry="8"/>
<g class="chrome"><rect class="header-bg" x="0" y="0" width="310" height="40" fill="#0d1117" rx="8" ry="8"/>
<rect x="0" y="32" width="310" height="8" fill="#0d1117"/>
<circle cx="22" cy="20" r="6" fill="#ff5f56"/>
<circle cx="42" cy="20" r="6" fill="#ffbd2e"/>
<circle cx="62" cy="20" r="6" fill="#27c93f"/>
<text class="text fg" x="155" y="20" text-anchor="middle" style="dominant-baseline: central">Directory Tree</text></g>
<g class="text-layer">
<text class="text f13" x="16" y="56">❯</text>
<text class="text fg" x="24.4" y="56"> tree -L 2 --dirsfirst -</text>
</g>
<g class="cursor-layer">
<rect class="cursor-active" x="226" y="56" width="8.4" height="19.6" fill="#c9d1d9"/>
</g>
    <animate attributeName="visibility" values="hidden;visible;hidden;hidden" keyTimes="0;0.225317;0.235113;1" dur="5.21s" repeatCount="indefinite" calcMode="discrete" fill="freeze"/>
  </g>

  <g id="frame-24" visibility="hidden">
    <rect class="window-bg" x="0" y="0" width="310" height="139" fill="#0d1117" rx="8" ry="8"/>
<g class="chrome"><rect class="header-bg" x="0" y="0" width="310" height="40" fill="#0d1117" rx="8" ry="8"/>
<rect x="0" y="32" width="310" height="8" fill="#0d1117"/>
<circle cx="22" cy="20" r="6" fill="#ff5f56"/>
<circle cx="42" cy="20" r="6" fill="#ffbd2e"/>
<circle cx="62" cy="20" r="6" fill="#27c93f"/>
<text class="text fg" x="155" y="20" text-anchor="middle" style="dominant-baseline: central">Directory Tree</text></g>
<g class="text-layer">
<text class="text f13" x="16" y="56">❯</text>
<text class="text fg" x="24.4" y="56"> tree -L 2 --dirsfirst -C</text>
</g>
<g class="cursor-layer">
<rect class="cursor-active" x="234.4" y="56" width="8.4" height="19.6" fill="#c9d1d9"/>
</g>
    <animate attributeName="visibility" values="hidden;visible;hidden;hidden" keyTimes="0;0.235113;0.245102;1" dur="5.21s" repeatCount="indefinite" calcMode="discrete" fill="freeze"/>
  </g>

  <g id="frame-25" visibility="hidden">
    <rect class="window-bg" x="0" y="0" width="310" height="139" fill="#0d1117" rx="8" ry="8"/>
<g class="chrome"><rect class="header-bg" x="0" y="0" width="310" height="40" fill="#0d1117" rx="8" ry="8"/>
<rect x="0" y="32" width="310" height="8" fill="#0d1117"/>
<circle cx="22" cy="20" r="6" fill="#ff5f56"/>
<circle cx="42" cy="20" r="6" fill="#ffbd2e"/>
<circle cx="62" cy="20" r="6" fill="#27c93f"/>
<text class="text fg" x="155" y="20" text-anchor="middle" style="dominant-baseline: central">Directory Tree</text></g>
<g class="text-layer">
<text class="text f13" x="16" y="56">❯</text>
<text class="text fg" x="24.4" y="56"> tree -L 2 --dirsfirst -C</text>
</g>
<g class="cursor-layer">
<rect class="cursor-active" x="242.8" y="56" width="8.4" height="19.6" fill="#c9d1d9"/>
</g>
    <animate attributeName="visibility" values="hidden;visible;hidden;hidden" keyTimes="0;0.245102;0.254706;1" dur="5.21s" repeatCount="indefinite" calcMode="discrete" fill="freeze"/>
  </g>

  <g id="frame-26" visibility="hidden">
    <rect class="window-bg" x="0" y="0" width="310" height="139" fill="#0d1117" rx="8" ry="8"/>
<g class="chrome"><rect class="header-bg" x="0" y="0" width="310" height="40" fill="#0d1117" rx="8" ry="8"/>
<rect x="0" y="32" width="310" height="8" fill="#0d1117"/>
<circle cx="22" cy="20" r="6" fill="#ff5f56"/>
<circle cx="42" cy="20" r="6" fill="#ffbd2e"/>
<circle cx="62" cy="20" r="6" fill="#27c93f"/>
<text class="text fg" x="155" y="20" text-anchor="middle" style="dominant-baseline: central">Directory Tree</text></g>
<g class="text-layer">
<text class="text f13" x="16" y="56">❯</text>
<text class="text fg" x="24.4" y="56"> tree -L 2 --dirsfirst -C s</text>
</g>
<g class="cursor-layer">
<rect class="cursor-active" x="251.2" y="56" width="8.4" height="19.6" fill="#c9d1d9"/>
</g>
    <animate attributeName="visibility" values="hidden;visible;hidden;hidden" keyTimes="0;0.254706;0.264502;1" dur="5.21s" repeatCount="indefinite" calcMode="discrete" fill="freeze"/>
  </g>

  <g id="frame-27" visibility="hidden">
    <rect class="window-bg" x="0" y="0" width="310" height="139" fill="#0d1117" rx="8" ry="8"/>
<g class="chrome"><rect class="header-bg" x="0" y="0" width="310" height="40" fill="#0d1117" rx="8" ry="8"/>
<rect x="0" y="32" width="310" height="8" fill="#0d1117"/>
<circle cx="22" cy="20" r="6" fill="#ff5f56"/>
<circle cx="42" cy="20" r="6" fill="#ffbd2e"/>
<circle cx="62" cy="20" r="6" fill="#27c93f"/>
<text class="text fg" x="155" y="20" text-anchor="middle" style="dominant-baseline: central">Directory Tree</text></g>
<g class="text-layer">
<text class="text f13" x="16" y="56">❯</text>
<text class="text fg" x="24.4" y="56"> tree -L 2 --dirsfirst -C sr</text>
</g>
<g class="cursor-layer">
<rect class="cursor-active" x="259.6" y="56" width="8.4" height="19.6" fill="#c9d1d9"/>
</g>
    <animate attributeName="visibility" values="hidden;visible;hidden;hidden" keyTimes="0;0.264502;0.274299;1" dur="5.21s" repeatCount="indefinite" calcMode="discrete" fill="freeze"/>
  </g>

  <g id="frame-28" visibility="hidden">
    <rect class="window-bg" x="0" y="0" width="310" height="139" fill="#0d1117" rx="8" ry="8"/>
<g class="chrome"><rect class="header-bg" x="0" y="0" width="310" height="40" fill="#0d1117" rx="8" ry="8"/>
<rect x="0" y="32" width="310" height="8" fill="#0d1117"/>
<circle cx="22" cy="20" r="6" fill="#ff5f56"/>
<circle cx="42" cy="20" r="6" fill="#ffbd2e"/>
<circle cx="62" cy="20" r="6" fill="#27c93f"/>
<text class="text fg" x="155" y="20" text-anchor="middle" style="dominant-baseline: central">Directory Tree</text></g>
<g class="text-layer">
<text class="text f13" x="16" y="56">❯</text>
<text class="text fg" x="24.4" y="56"> tree -L 2 --dirsfirst -C src</text>
</g>
<g class="cursor-layer">
<rect class="cursor-active" x="268" y="56" width="8.4" height="19.6" fill="#c9d1d9"/>
</g>
    <animate attributeName="visibility" values="hidden;visible;hidden;hidden" keyTimes="0;0.274299;0.283903;1" dur="5.21s" repeatCount="indefinite" calcMode="discrete" fill="freeze"/>
  </g>

  <g id="frame-29" visibility="hidden">
    <rect class="window-bg" x="0" y="0" width="310" height="139" fill="#0d1117" rx="8" ry="8"/>
<g class="chrome"><rect class="header-bg" x="0" y="0" width="310" height="40" fill="#0d1117" rx="8" ry="8"/>
<rect x="0" y="32" width="310" height="8" fill="#0d1117"/>
<circle cx="22" cy="20" r="6" fill="#ff5f56"/>
<circle cx="42" cy="20" r="6" fill="#ffbd2e"/>
<circle cx="62" cy="20" r="6" fill="#27c93f"/>
<text class="text fg" x="155" y="20" text-anchor="middle" style="dominant-baseline: central">Directory Tree</text></g>
<g class="text-layer">
<text class="text f13" x="16" y="56">❯</text>
<text class="text fg" x="24.4" y="56"> tree -L 2 --dirsfirst -C src/</text>
</g>
<g class="cursor-layer">
<rect class="cursor-active" x="276.4" y="56" width="8.4" height="19.6" fill="#c9d1d9"/>
</g>
    <animate attributeName="visibility" values="hidden;visible;hidden;hidden" keyTimes="0;0.283903;0.284095;1" dur="5.21s" repeatCount="indefinite" calcMode="discrete" fill="freeze"/>
  </g>

  <g id="frame-30" visibility="hidden">
    <rect class="window-bg" x="0" y="0" width="310" height="139" fill="#0d1117" rx="8" ry="8"/>
<g class="chrome"><rect class="header-bg" x="0" y="0" width="310" height="40" fill="#0d1117" rx="8" ry="8"/>
<rect x="0" y="32" width="310" height="8" fill="#0d1117"/>
<circle cx="22" cy="20" r="6" fill="#ff5f56"/>
<circle cx="42" cy="20" r="6" fill="#ffbd2e"/>
<circle cx="62" cy="20" r="6" fill="#27c93f"/>
<text class="text fg" x="155" y="20" text-anchor="middle" style="dominant-baseline: central">Directory Tree</text></g>
<g class="text-layer">
<text class="text f13" x="16" y="56">❯</text>
<text class="text fg" x="24.4" y="56"> tree -L 2 --dirsfirst -C src/</text>
</g>
<g class="cursor-layer">
<rect class="cursor" x="276.4" y="56" width="8.4" height="19.6" fill="#c9d1d9"/>
</g>
    <animate attributeName="visibility" values="hidden;visible;hidden;hidden" keyTimes="0;0.284095;0.380522;1" dur="5.21s" repeatCount="indefinite" calcMode="discrete" fill="freeze"/>
  </g>

  <g id="frame-31" visibility="hidden">
    <rect class="window-bg" x="0" y="0" width="310" height="139" fill="#0d1117" rx="8" ry="8"/>
<g class="chrome"><rect class="header-bg" x="0" y="0" width="310" height="40" fill="#0d1117" rx="8" ry="8"/>
<rect x="0" y="32" width="310" height="8" fill="#0d1117"/>
<circle cx="22" cy="20" r="6" fill="#ff5f56"/>
<circle cx="42" cy="20" r="6" fill="#ffbd2e"/>
<circle cx="62" cy="20" r="6" fill="#27c93f"/>
<text class="text fg" x="155" y="20" text-anchor="middle" style="dominant-baseline: central">Directory Tree</text></g>
<g class="text-layer">
<text class="text f13" x="16" y="56">❯</text>
<text class="text fg" x="24.4" y="56"> tree -L 2 --dirsfirst -C src/</text>
</g>
<g class="cursor-layer">
<rect class="cursor" x="276.4" y="56" width="8.4" height="19.6" fill="#c9d1d9"/>
</g>
    <animate attributeName="visibility" values="hidden;visible;hidden;hidden" keyTimes="0;0.380522;0.400307;1" dur="5.21s" repeatCount="indefinite" calcMode="discrete" fill="freeze"/>
  </g>

  <g id="frame-32" visibility="hidden">
    <rect class="window-bg" x="0" y="0" width="310" height="139" fill="#0d1117" rx="8" ry="8"/>
<g class="chrome"><rect class="header-bg" x="0" y="0" width="310" height="40" fill="#0d1117" rx="8" ry="8"/>
<rect x="0" y="32" width="310" height="8" fill="#0d1117"/>
<circle cx="22" cy="20" r="6" fill="#ff5f56"/>
<circle cx="42" cy="20" r="6" fill="#ffbd2e"/>
<circle cx="62" cy="20" r="6" fill="#27c93f"/>
<text class="text fg" x="155" y="20" text-anchor="middle" style="dominant-baseline: central">Directory Tree</text></g>
<g class="text-layer">
<text class="text f13" x="16" y="56">❯</text>
<text class="text fg" x="24.4" y="56"> tree -L 2 --dirsfirst -C src/</text>
</g>
    <animate attributeName="visibility" values="hidden;visible;hidden;hidden" keyTimes="0;0.400307;0.401652;1" dur="5.21s" repeatCount="indefinite" calcMode="discrete" fill="freeze"/>
  </g>

  <g id="frame-33" visibility="hidden">
    <rect class="window-bg" x="0" y="0" width="310" height="139" fill="#0d1117" rx="8" ry="8"/>
<g class="chrome"><rect class="header-bg" x="0" y="0" width="310" height="40" fill="#0d1117" rx="8" ry="8"/>
<rect x="0" y="32" width="310" height="8" fill="#0d1117"/>
<circle cx="22" cy="20" r="6" fill="#ff5f56"/>
<circle cx="42" cy="20" r="6" fill="#ffbd2e"/>
<circle cx="62" cy="20" r="6" fill="#27c93f"/>
<text class="text fg" x="155" y="20" text-anchor="middle" style="dominant-baseline: central">Directory Tree</text></g>
<g class="text-layer">
<text class="text f13" x="16" y="56">❯</text>
<text class="text fg" x="24.4" y="56"> tree -L 2 --dirsfirst -C src/</text>
<text class="text fg" x="16" y="75.6">/bin/sh: tree: command not found</text>
</g>
    <animate attributeName="visibility" values="hidden;visible;hidden;hidden" keyTimes="0;0.401652;0.421629;1" dur="5.21s" repeatCount="indefinite" calcMode="discrete" fill="freeze"/>
  </g>

  <g id="frame-34" visibility="hidden">
    <rect class="window-bg" x="0" y="0" width="310" height="139" fill="#0d1117" rx="8" ry="8"/>
<g class="chrome"><rect class="header-bg" x="0" y="0" width="310" height="40" fill="#0d1117" rx="8" ry="8"/>
<rect x="0" y="32" width="310" height="8" fill="#0d1117"/>
<circle cx="22" cy="20" r="6" fill="#ff5f56"/>
<circle cx="42" cy="20" r="6" fill="#ffbd2e"/>
<circle cx="62" cy="20" r="6" fill="#27c93f"/>
<text class="text fg" x="155" y="20" text-anchor="middle" style="dominant-baseline: central">Directory Tree</text></g>
<g class="text-layer">
<text class="text f13" x="16" y="56">❯</text>
<text class="text fg" x="24.4" y="56"> tree -L 2 --dirsfirst -C src/</text>
<text class="text fg" x="16" y="75.6">/bin/sh: tree: command not found</text>
<text class="text f13" x="16" y="95.2">❯</text>
</g>
<g class="cursor-layer">
<rect class="cursor" x="32.8" y="95.2" width="8.4" height="19.6" fill="#c9d1d9"/>
</g>
    <animate attributeName="visibility" values="hidden;visible;hidden;hidden" keyTimes="0;0.421629;0.806954;1" dur="5.21s" repeatCount="indefinite" calcMode="discrete" fill="freeze"/>
  </g>

  <g id="frame-35" visibility="hidden">
    <rect class="window-bg" x="0" y="0" width="310" height="139" fill="#0d1117" rx="8" ry="8"/>
<g class="chrome"><rect class="header-bg" x="0" y="0" width="310" height="40" fill="#0d1117" rx="8" ry="8"/>
<rect x="0" y="32" width="310" height="8" fill="#0d1117"/>
<circle cx="22" cy="20" r="6" fill="#ff5f56"/>
<circle cx="42" cy="20" r="6" fill="#ffbd2e"/>
<circle cx="62" cy="20" r="6" fill="#27c93f"/>
<text class="text fg" x="155" y="20" text-anchor="middle" style="dominant-baseline: central">Directory Tree</text></g>
<g class="text-layer">
<text class="text f13" x="16" y="56">❯</text>
<text class="text fg" x="24.4" y="56"> tree -L 2 --dirsfirst -C src/</text>
<text class="text fg" x="16" y="75.6">/bin/sh: tree: command not found</text>
<text class="text f13" x="16" y="95.2">❯</text>
</g>
<g class="cursor-layer">
<rect class="cursor" x="32.8" y="95.2" width="8.4" height="19.6" fill="#c9d1d9"/>
</g>
    <animate attributeName="visibility" values="hidden;visible;hidden;hidden" keyTimes="0;0.806954;0.807914;1" dur="5.21s" repeatCount="indefinite" calcMode="discrete" fill="freeze"/>
  </g>

  <g id="frame-36" visibility="hidden">
    <rect class="window-bg" x="0" y="0" width="310" height="139" fill="#0d1117" rx="8" ry="8"/>
<g class="chrome"><rect class="header-bg" x="0" y="0" width="310" height="40" fill="#0d1117" rx="8" ry="8"/>
<rect x="0" y="32" width="310" height="8" fill="#0d1117"/>
<circle cx="22" cy="20" r="6" fill="#ff5f56"/>
<circle cx="42" cy="20" r="6" fill="#ffbd2e"/>
<circle cx="62" cy="20" r="6" fill="#27c93f"/>
<text class="text fg" x="155" y="20" text-anchor="middle" style="dominant-baseline: central">Directory Tree</text></g>
<g class="text-layer">
<text class="text f13" x="16" y="56">❯</text>
<text class="text fg" x="24.4" y="56"> tree -L 2 --dirsfirst -C src/</text>
<text class="text fg" x="16" y="75.6">/bin/sh: tree: command not found</text>
<text class="text f13" x="16" y="95.2">❯</text>
</g>
<g class="cursor-layer">
<rect class="cursor" x="32.8" y="95.2" width="8.4" height="19.6" fill="#c9d1d9"/>
</g>
    <animate attributeName="visibility" values="hidden;visible;visible" keyTimes="0;0.807914;1" dur="5.21s" repeatCount="indefinite" calcMode="discrete" fill="freeze"/>
  </g>
  </g>
</svg>