<svg xmlns="http://www.w3.org/2000/svg" xmlns:xlink="http://www.w3.org/1999/xlink" width="612" height="234" viewBox="0 0 612 234"><defs><symbol id="1"><text x="16" y="19.7" class="c">❯</text></symbol><symbol id="2"><text x="16" y="19.7" class="c">❯ </text><text x="71.2" y="19.7" class="d">e</text></symbol><symbol id="3"><text x="16" y="19.7" class="c">❯ </text><text x="71.2" y="19.7" class="d">ec</text></symbol><symbol id="4"><text x="16" y="19.7" class="c">❯ </text><text x="71.2" y="19.7" class="d">ech</text></symbol><symbol id="5"><text x="16" y="19.7" class="c">❯ </text><text x="71.2" y="19.7" class="d">echo</text></symbol><symbol id="6"><text x="16" y="19.7" class="c">❯ </text><text x="71.2" y="19.7" class="d">echo &apos;</text></symbol><symbol id="7"><text x="16" y="19.7" class="c">❯ </text><text x="71.2" y="19.7" class="d">echo &apos;H</text></symbol><symbol id="8"><text x="16" y="19.7" class="c">❯ </text><text x="71.2" y="19.7" class="d">echo &apos;He</text></symbol><symbol id="9"><text x="16" y="19.7" class="c">❯ </text><text x="71.2" y="19.7" class="d">echo &apos;Hel</text></symbol><symbol id="10"><text x="16" y="19.7" class="c">❯ </text><text x="71.2" y="19.7" class="d">echo &apos;Hell</text></symbol><symbol id="11"><text x="16" y="19.7" class="c">❯ </text><text x="71.2" y="19.7" class="d">echo &apos;Hello</text></symbol><symbol id="12"><text x="16" y="19.7" class="c">❯ </text><text x="71.2" y="19.7" class="d">echo &apos;Hello w</text></symbol><symbol id="13"><text x="16" y="19.7" class="c">❯ </text><text x="71.2" y="19.7" class="d">echo &apos;Hello wo</text></symbol><symbol id="14"><text x="16" y="19.7" class="c">❯ </text><text x="71.2" y="19.7" class="d">echo &apos;Hello wor</text></symbol><symbol id="15"><text x="16" y="19.7" class="c">❯ </text><text x="71.2" y="19.7" class="d">echo &apos;Hello worl</text></symbol><symbol id="16"><text x="16" y="19.7" class="c">❯ </text><text x="71.2" y="19.7" class="d">echo &apos;Hello world</text></symbol><symbol id="17"><text x="16" y="19.7" class="c">❯ </text><text x="71.2" y="19.7" class="d">echo &apos;Hello world&apos;</text></symbol><symbol id="18"><text x="16" y="84.1" class="d">Hello world</text></symbol><symbol id="19"><text x="16" y="148.5" class="c">❯</text></symbol><symbol id="20"><text x="16" y="148.5" class="c">❯ </text><text x="71.2" y="148.5" class="d">W</text></symbol><symbol id="21"><text x="16" y="148.5" class="c">❯ </text><text x="71.2" y="148.5" class="d">We</text></symbol><symbol id="22"><text x="16" y="148.5" class="c">❯ </text><text x="71.2" y="148.5" class="d">Wel</text></symbol><symbol id="23"><text x="16" y="148.5" class="c">❯ </text><text x="71.2" y="148.5" class="d">Welc</text></symbol><symbol id="24"><text x="16" y="148.5" class="c">❯ </text><text x="71.2" y="148.5" class="d">Welco</text></symbol><symbol id="25"><text x="16" y="148.5" class="c">❯ </text><text x="71.2" y="148.5" class="d">Welcom</text></symbol><symbol id="26"><text x="16" y="148.5" class="c">❯ </text><text x="71.2" y="148.5" class="d">Welcome</text></symbol><symbol id="27"><text x="16" y="148.5" class="c">❯ </text><text x="71.2" y="148.5" class="d">Welcome t</text></symbol><symbol id="28"><text x="16" y="148.5" class="c">❯ </text><text x="71.2" y="148.5" class="d">Welcome to</text></symbol><symbol id="29"><text x="16" y="148.5" class="c">❯ </text><text x="71.2" y="148.5" class="d">Welcome to D</text></symbol><symbol id="30"><text x="16" y="148.5" class="c">❯ </text><text x="71.2" y="148.5" class="d">Welcome to DV</text></symbol><symbol id="31"><text x="16" y="148.5" class="c">❯ </text><text x="71.2" y="148.5" class="d">Welcome to DVD</text></symbol><symbol id="32"><text x="16" y="148.5" class="c">❯ </text><text x="71.2" y="148.5" class="d">Welcome to DVD!</text></symbol></defs><style>@keyframes f{0.15%{transform:translateX(0px)}1.09%{transform:translateX(-612px)}2.01%{transform:translateX(-1224px)}2.97%{transform:translateX(-1836px)}3.92%{transform:translateX(-2448px)}4.86%{transform:translateX(-3060px)}5.78%{transform:translateX(-3672px)}6.78%{transform:translateX(-4284px)}7.72%{transform:translateX(-4896px)}8.68%{transform:translateX(-5508px)}9.62%{transform:translateX(-6120px)}10.54%{transform:translateX(-6732px)}11.48%{transform:translateX(-7344px)}12.45%{transform:translateX(-7956px)}13.36%{transform:translateX(-8568px)}14.30%{transform:translateX(-9180px)}15.25%{transform:translateX(-9792px)}16.19%{transform:translateX(-10404px)}17.11%{transform:translateX(-11016px)}17.13%{transform:translateX(-11628px)}28.30%{transform:translateX(-12240px)}28.52%{transform:translateX(-12852px)}30.45%{transform:translateX(-13464px)}31.47%{transform:translateX(-14076px)}32.42%{transform:translateX(-14688px)}33.36%{transform:translateX(-15300px)}34.29%{transform:translateX(-15912px)}35.24%{transform:translateX(-16524px)}36.16%{transform:translateX(-17136px)}37.09%{transform:translateX(-17748px)}38.04%{transform:translateX(-18360px)}38.98%{transform:translateX(-18972px)}39.92%{transform:translateX(-19584px)}40.88%{transform:translateX(-20196px)}41.82%{transform:translateX(-20808px)}42.76%{transform:translateX(-21420px)}43.74%{transform:translateX(-22032px)}44.66%{transform:translateX(-22644px)}44.68%{transform:translateX(-23256px)}}.a{fill:#22212c}.c{fill:#ff99cc;stroke:#ff99cc}.d{fill:#f8f8f2;stroke:#f8f8f2}path[fill="none"]{fill:none}path[shape-rendering="crispEdges"]{stroke:none}text{font-family:'SF Mono',Monaco,Consolas,Menlo,monospace;font-size:46px;dominant-baseline:text-before-edge;white-space:pre}text[class]{stroke:none}.bold{font-weight:700}.italic{font-style:italic}.uline{text-decoration:underline}.strike{text-decoration:line-through}.dim{opacity:0.5}@keyframes blink{0%,50%{opacity:1}50.01%,100%{opacity:0}}.cursor{animation:blink 1s step-end infinite;mix-blend-mode:difference}.cursor-active{opacity:1;mix-blend-mode:difference}</style><g transform="translate(0,0)"><rect width="612" height="234" rx="10" fill="#22212c"/><clipPath id="content-clip"><path d="M0 0h612v234H0z" /></clipPath><g clip-path="url(#content-clip)"><g style="animation:f 5.428s steps(1,end) infinite"><g transform="translate(0,0)"><use xlink:href="#1"/><path d="M71.2 16h27.6v64.4H71.2z" fill="#fff" class="cursor"/></g><g transform="translate(612,0)"><use xlink:href="#2"/><path d="M98.8 16h27.6v64.4H98.8z" fill="#fff" class="cursor-active"/></g><g transform="translate(1224,0)"><use xlink:href="#3"/><path d="M126.4 16h27.6v64.4H126.4z" fill="#fff" class="cursor-active"/></g><g transform="translate(1836,0)"><use xlink:href="#4"/><path d="M154 16h27.6v64.4H154z" fill="#fff" class="cursor-active"/></g><g transform="translate(2448,0)"><use xlink:href="#5"/><path d="M181.6 16h27.6v64.4H181.6z" fill="#fff" class="cursor-active"/></g><g transform="translate(3060,0)"><use xlink:href="#5"/><path d="M209.2 16h27.6v64.4H209.2z" fill="#fff" class="cursor-active"/></g><g transform="translate(3672,0)"><use xlink:href="#6"/><path d="M236.8 16h27.6v64.4H236.8z" fill="#fff" class="cursor-active"/></g><g transform="translate(4284,0)"><use xlink:href="#7"/><path d="M264.4 16h27.6v64.4H264.4z" fill="#fff" class="cursor-active"/></g><g transform="translate(4896,0)"><use xlink:href="#8"/><path d="M292 16h27.6v64.4H292z" fill="#fff" class="cursor-active"/></g><g transform="translate(5508,0)"><use xlink:href="#9"/><path d="M319.6 16h27.6v64.4H319.6z" fill="#fff" class="cursor-active"/></g><g transform="translate(6120,0)"><use xlink:href="#10"/><path d="M347.2 16h27.6v64.4H347.2z" fill="#fff" class="cursor-active"/></g><g transform="translate(6732,0)"><use xlink:href="#11"/><path d="M374.8 16h27.6v64.4H374.8z" fill="#fff" class="cursor-active"/></g><g transform="translate(7344,0)"><use xlink:href="#11"/><path d="M402.4 16h27.6v64.4H402.4z" fill="#fff" class="cursor-active"/></g><g transform="translate(7956,0)"><use xlink:href="#12"/><path d="M430 16h27.6v64.4H430z" fill="#fff" class="cursor-active"/></g><g transform="translate(8568,0)"><use xlink:href="#13"/><path d="M457.6 16h27.6v64.4H457.6z" fill="#fff" class="cursor-active"/></g><g transform="translate(9180,0)"><use xlink:href="#14"/><path d="M485.2 16h27.6v64.4H485.2z" fill="#fff" class="cursor-active"/></g><g transform="translate(9792,0)"><use xlink:href="#15"/><path d="M512.8 16h27.6v64.4H512.8z" fill="#fff" class="cursor-active"/></g><g transform="translate(10404,0)"><use xlink:href="#16"/><path d="M540.4 16h27.6v64.4H540.4z" fill="#fff" class="cursor-active"/></g><g transform="translate(11016,0)"><use xlink:href="#17"/><path d="M568 16h27.6v64.4H568z" fill="#fff" class="cursor-active"/></g><g transform="translate(11628,0)"><use xlink:href="#17"/><path d="M568 16h27.6v64.4H568z" fill="#fff" class="cursor"/></g><g transform="translate(12240,0)"><use xlink:href="#17"/></g><g transform="translate(12852,0)"><use xlink:href="#17"/><use xlink:href="#18"/></g><g transform="translate(13464,0)"><use xlink:href="#17"/><use xlink:href="#18"/><use xlink:href="#19"/><path d="M71.2 144.8h27.6v64.4H71.2z" fill="#fff" class="cursor"/></g><g transform="translate(14076,0)"><use xlink:href="#17"/><use xlink:href="#18"/><use xlink:href="#20"/><path d="M98.8 144.8h27.6v64.4H98.8z" fill="#fff" class="cursor-active"/></g><g transform="translate(14688,0)"><use xlink:href="#17"/><use xlink:href="#18"/><use xlink:href="#21"/><path d="M126.4 144.8h27.6v64.4H126.4z" fill="#fff" class="cursor-active"/></g><g transform="translate(15300,0)"><use xlink:href="#17"/><use xlink:href="#18"/><use xlink:href="#22"/><path d="M154 144.8h27.6v64.4H154z" fill="#fff" class="cursor-active"/></g><g transform="translate(15912,0)"><use xlink:href="#17"/><use xlink:href="#18"/><use xlink:href="#23"/><path d="M181.6 144.8h27.6v64.4H181.6z" fill="#fff" class="cursor-active"/></g><g transform="translate(16524,0)"><use xlink:href="#17"/><use xlink:href="#18"/><use xlink:href="#24"/><path d="M209.2 144.8h27.6v64.4H209.2z" fill="#fff" class="cursor-active"/></g><g transform="translate(17136,0)"><use xlink:href="#17"/><use xlink:href="#18"/><use xlink:href="#25"/><path d="M236.8 144.8h27.6v64.4H236.8z" fill="#fff" class="cursor-active"/></g><g transform="translate(17748,0)"><use xlink:href="#17"/><use xlink:href="#18"/><use xlink:href="#26"/><path d="M264.4 144.8h27.6v64.4H264.4z" fill="#fff" class="cursor-active"/></g><g transform="translate(18360,0)"><use xlink:href="#17"/><use xlink:href="#18"/><use xlink:href="#26"/><path d="M292 144.8h27.6v64.4H292z" fill="#fff" class="cursor-active"/></g><g transform="translate(18972,0)"><use xlink:href="#17"/><use xlink:href="#18"/><use xlink:href="#27"/><path d="M319.6 144.8h27.6v64.4H319.6z" fill="#fff" class="cursor-active"/></g><g transform="translate(19584,0)"><use xlink:href="#17"/><use xlink:href="#18"/><use xlink:href="#28"/><path d="M347.2 144.8h27.6v64.4H347.2z" fill="#fff" class="cursor-active"/></g><g transform="translate(20196,0)"><use xlink:href="#17"/><use xlink:href="#18"/><use xlink:href="#28"/><path d="M374.8 144.8h27.6v64.4H374.8z" fill="#fff" class="cursor-active"/></g><g transform="translate(20808,0)"><use xlink:href="#17"/><use xlink:href="#18"/><use xlink:href="#29"/><path d="M402.4 144.8h27.6v64.4H402.4z" fill="#fff" class="cursor-active"/></g><g transform="translate(21420,0)"><use xlink:href="#17"/><use xlink:href="#18"/><use xlink:href="#30"/><path d="M430 144.8h27.6v64.4H430z" fill="#fff" class="cursor-active"/></g><g transform="translate(22032,0)"><use xlink:href="#17"/><use xlink:href="#18"/><use xlink:href="#31"/><path d="M457.6 144.8h27.6v64.4H457.6z" fill="#fff" class="cursor-active"/></g><g transform="translate(22644,0)"><use xlink:href="#17"/><use xlink:href="#18"/><use xlink:href="#32"/><path d="M485.2 144.8h27.6v64.4H485.2z" fill="#fff" class="cursor-active"/></g><g transform="translate(23256,0)"><use xlink:href="#17"/><use xlink:href="#18"/><use xlink:href="#32"/><path d="M485.2 144.8h27.6v64.4H485.2z" fill="#fff" class="cursor"/></g></g></g></g></svg>