<svg xmlns="http://www.w3.org/2000/svg" xmlns:xlink="http://www.w3.org/1999/xlink" width="612" height="230" viewBox="0 0 612 230"><defs><symbol id="1"><text x="16" y="19.7" fill="#f9c">❯</text></symbol><symbol id="2"><text x="16" y="19.7" fill="#f9c">❯ </text><text x="71.2" y="19.7" fill="#f8f8f2">e</text></symbol><symbol id="3"><text x="16" y="19.7" fill="#f9c">❯ </text><text x="71.2" y="19.7" fill="#f8f8f2">ec</text></symbol><symbol id="4"><text x="16" y="19.7" fill="#f9c">❯ </text><text x="71.2" y="19.7" fill="#f8f8f2">ech</text></symbol><symbol id="5"><text x="16" y="19.7" fill="#f9c">❯ </text><text x="71.2" y="19.7" fill="#f8f8f2">echo</text></symbol><symbol id="6"><text x="16" y="19.7" fill="#f9c">❯ </text><text x="71.2" y="19.7" fill="#f8f8f2">echo &apos;</text></symbol><symbol id="7"><text x="16" y="19.7" fill="#f9c">❯ </text><text x="71.2" y="19.7" fill="#f8f8f2">echo &apos;H</text></symbol><symbol id="8"><text x="16" y="19.7" fill="#f9c">❯ </text><text x="71.2" y="19.7" fill="#f8f8f2">echo &apos;He</text></symbol><symbol id="9"><text x="16" y="19.7" fill="#f9c">❯ </text><text x="71.2" y="19.7" fill="#f8f8f2">echo &apos;Hel</text></symbol><symbol id="10"><text x="16" y="19.7" fill="#f9c">❯ </text><text x="71.2" y="19.7" fill="#f8f8f2">echo &apos;Hell</text></symbol><symbol id="11"><text x="16" y="19.7" fill="#f9c">❯ </text><text x="71.2" y="19.7" fill="#f8f8f2">echo &apos;Hello</text></symbol><symbol id="12"><text x="16" y="19.7" fill="#f9c">❯ </text><text x="71.2" y="19.7" fill="#f8f8f2">echo &apos;Hello w</text></symbol><symbol id="13"><text x="16" y="19.7" fill="#f9c">❯ </text><text x="71.2" y="19.7" fill="#f8f8f2">echo &apos;Hello wo</text></symbol><symbol id="14"><text x="16" y="19.7" fill="#f9c">❯ </text><text x="71.2" y="19.7" fill="#f8f8f2">echo &apos;Hello wor</text></symbol><symbol id="15"><text x="16" y="19.7" fill="#f9c">❯ </text><text x="71.2" y="19.7" fill="#f8f8f2">echo &apos;Hello worl</text></symbol><symbol id="16"><text x="16" y="19.7" fill="#f9c">❯ </text><text x="71.2" y="19.7" fill="#f8f8f2">echo &apos;Hello world</text></symbol><symbol id="17"><text x="16" y="19.7" fill="#f9c">❯ </text><text x="71.2" y="19.7" fill="#f8f8f2">echo &apos;Hello world&apos;</text></symbol><symbol id="18"><text x="16" y="84.1" fill="#f8f8f2">Hello world</text></symbol><symbol id="19"><text x="16" y="148.5" fill="#f9c">❯</text></symbol><symbol id="20"><text x="16" y="148.5" fill="#f9c">❯ </text><text x="71.2" y="148.5" fill="#f8f8f2">W</text></symbol><symbol id="21"><text x="16" y="148.5" fill="#f9c">❯ </text><text x="71.2" y="148.5" fill="#f8f8f2">We</text></symbol><symbol id="22"><text x="16" y="148.5" fill="#f9c">❯ </text><text x="71.2" y="148.5" fill="#f8f8f2">Wel</text></symbol><symbol id="23"><text x="16" y="148.5" fill="#f9c">❯ </text><text x="71.2" y="148.5" fill="#f8f8f2">Welc</text></symbol><symbol id="24"><text x="16" y="148.5" fill="#f9c">❯ </text><text x="71.2" y="148.5" fill="#f8f8f2">Welco</text></symbol><symbol id="25"><text x="16" y="148.5" fill="#f9c">❯ </text><text x="71.2" y="148.5" fill="#f8f8f2">Welcom</text></symbol><symbol id="26"><text x="16" y="148.5" fill="#f9c">❯ </text><text x="71.2" y="148.5" fill="#f8f8f2">Welcome</text></symbol><symbol id="27"><text x="16" y="148.5" fill="#f9c">❯ </text><text x="71.2" y="148.5" fill="#f8f8f2">Welcome t</text></symbol><symbol id="28"><text x="16" y="148.5" fill="#f9c">❯ </text><text x="71.2" y="148.5" fill="#f8f8f2">Welcome to</text></symbol><symbol id="29"><text x="16" y="148.5" fill="#f9c">❯ </text><text x="71.2" y="148.5" fill="#f8f8f2">Welcome to D</text></symbol><symbol id="30"><text x="16" y="148.5" fill="#f9c">❯ </text><text x="71.2" y="148.5" fill="#f8f8f2">Welcome to DV</text></symbol><symbol id="31"><text x="16" y="148.5" fill="#f9c">❯ </text><text x="71.2" y="148.5" fill="#f8f8f2">Welcome to DVD</text></symbol><symbol id="32"><text x="16" y="148.5" fill="#f9c">❯ </text><text x="71.2" y="148.5" fill="#f8f8f2">Welcome to DVD!</text></symbol></defs><style>text{font-family:'SF Mono',Monaco,Consolas,Menlo,monospace;font-size:46px;dominant-baseline:text-before-edge;white-space:pre;}.bold{font-weight:700}.italic{font-style:italic}.uline{text-decoration:underline}.strike{text-decoration:line-through}.dim{opacity:0.5}@keyframes blink{0%,50%{opacity:1}50.01%,100%{opacity:0}}.cursor{animation:blink 1s step-end infinite;mix-blend-mode:difference}.cursor-active{opacity:1;mix-blend-mode:difference}</style><g transform="translate(0,0)"><rect width="612" height="230" rx="10" fill="#22212c"/><clipPath id="content-clip"><path d="M0 0h612v230H0z" /></clipPath><g clip-path="url(#content-clip)"><g><g transform="translate(0,0)"><use xlink:href="#1"/><path d="M71.2 16h27.6v64.4H71.2z" fill="#f8f8f2" class="cursor"/></g><g transform="translate(0,230)"><use xlink:href="#2"/><path d="M98.8 16h27.6v64.4H98.8z" fill="#f8f8f2" class="cursor-active"/></g><g transform="translate(0,460)"><use xlink:href="#3"/><path d="M126.4 16h27.6v64.4H126.4z" fill="#f8f8f2" class="cursor-active"/></g><g transform="translate(0,690)"><use xlink:href="#4"/><path d="M154 16h27.6v64.4H154z" fill="#f8f8f2" class="cursor-active"/></g><g transform="translate(0,920)"><use xlink:href="#5"/><path d="M181.6 16h27.6v64.4H181.6z" fill="#f8f8f2" class="cursor-active"/></g><g transform="translate(0,1150)"><use xlink:href="#5"/><path d="M209.2 16h27.6v64.4H209.2z" fill="#f8f8f2" class="cursor-active"/></g><g transform="translate(0,1380)"><use xlink:href="#6"/><path d="M236.8 16h27.6v64.4H236.8z" fill="#f8f8f2" class="cursor-active"/></g><g transform="translate(0,1610)"><use xlink:href="#7"/><path d="M264.4 16h27.6v64.4H264.4z" fill="#f8f8f2" class="cursor-active"/></g><g transform="translate(0,1840)"><use xlink:href="#8"/><path d="M292 16h27.6v64.4H292z" fill="#f8f8f2" class="cursor-active"/></g><g transform="translate(0,2070)"><use xlink:href="#9"/><path d="M319.6 16h27.6v64.4H319.6z" fill="#f8f8f2" class="cursor-active"/></g><g transform="translate(0,2300)"><use xlink:href="#10"/><path d="M347.2 16h27.6v64.4H347.2z" fill="#f8f8f2" class="cursor-active"/></g><g transform="translate(0,2530)"><use xlink:href="#11"/><path d="M374.8 16h27.6v64.4H374.8z" fill="#f8f8f2" class="cursor-active"/></g><g transform="translate(0,2760)"><use xlink:href="#11"/><path d="M402.4 16h27.6v64.4H402.4z" fill="#f8f8f2" class="cursor-active"/></g><g transform="translate(0,2990)"><use xlink:href="#12"/><path d="M430 16h27.6v64.4H430z" fill="#f8f8f2" class="cursor-active"/></g><g transform="translate(0,3220)"><use xlink:href="#13"/><path d="M457.6 16h27.6v64.4H457.6z" fill="#f8f8f2" class="cursor-active"/></g><g transform="translate(0,3450)"><use xlink:href="#14"/><path d="M485.2 16h27.6v64.4H485.2z" fill="#f8f8f2" class="cursor-active"/></g><g transform="translate(0,3680)"><use xlink:href="#15"/><path d="M512.8 16h27.6v64.4H512.8z" fill="#f8f8f2" class="cursor-active"/></g><g transform="translate(0,3910)"><use xlink:href="#16"/><path d="M540.4 16h27.6v64.4H540.4z" fill="#f8f8f2" class="cursor-active"/></g><g transform="translate(0,4140)"><use xlink:href="#17"/><path d="M568 16h27.6v64.4H568z" fill="#f8f8f2" class="cursor-active"/></g><g transform="translate(0,4370)"><use xlink:href="#17"/><path d="M568 16h27.6v64.4H568z" fill="#f8f8f2" class="cursor"/></g><g transform="translate(0,4600)"><use xlink:href="#17"/></g><g transform="translate(0,4830)"><use xlink:href="#17"/><use xlink:href="#18"/></g><g transform="translate(0,5060)"><use xlink:href="#17"/><use xlink:href="#18"/><use xlink:href="#19"/><path d="M71.2 144.8h27.6v64.4H71.2z" fill="#f8f8f2" class="cursor"/></g><g transform="translate(0,5290)"><use xlink:href="#17"/><use xlink:href="#18"/><use xlink:href="#20"/><path d="M98.8 144.8h27.6v64.4H98.8z" fill="#f8f8f2" class="cursor-active"/></g><g transform="translate(0,5520)"><use xlink:href="#17"/><use xlink:href="#18"/><use xlink:href="#21"/><path d="M126.4 144.8h27.6v64.4H126.4z" fill="#f8f8f2" class="cursor-active"/></g><g transform="translate(0,5750)"><use xlink:href="#17"/><use xlink:href="#18"/><use xlink:href="#22"/><path d="M154 144.8h27.6v64.4H154z" fill="#f8f8f2" class="cursor-active"/></g><g transform="translate(0,5980)"><use xlink:href="#17"/><use xlink:href="#18"/><use xlink:href="#23"/><path d="M181.6 144.8h27.6v64.4H181.6z" fill="#f8f8f2" class="cursor-active"/></g><g transform="translate(0,6210)"><use xlink:href="#17"/><use xlink:href="#18"/><use xlink:href="#24"/><path d="M209.2 144.8h27.6v64.4H209.2z" fill="#f8f8f2" class="cursor-active"/></g><g transform="translate(0,6440)"><use xlink:href="#17"/><use xlink:href="#18"/><use xlink:href="#25"/><path d="M236.8 144.8h27.6v64.4H236.8z" fill="#f8f8f2" class="cursor-active"/></g><g transform="translate(0,6670)"><use xlink:href="#17"/><use xlink:href="#18"/><use xlink:href="#26"/><path d="M264.4 144.8h27.6v64.4H264.4z" fill="#f8f8f2" class="cursor-active"/></g><g transform="translate(0,6900)"><use xlink:href="#17"/><use xlink:href="#18"/><use xlink:href="#26"/><path d="M292 144.8h27.6v64.4H292z" fill="#f8f8f2" class="cursor-active"/></g><g transform="translate(0,7130)"><use xlink:href="#17"/><use xlink:href="#18"/><use xlink:href="#27"/><path d="M319.6 144.8h27.6v64.4H319.6z" fill="#f8f8f2" class="cursor-active"/></g><g transform="translate(0,7360)"><use xlink:href="#17"/><use xlink:href="#18"/><use xlink:href="#28"/><path d="M347.2 144.8h27.6v64.4H347.2z" fill="#f8f8f2" class="cursor-active"/></g><g transform="translate(0,7590)"><use xlink:href="#17"/><use xlink:href="#18"/><use xlink:href="#28"/><path d="M374.8 144.8h27.6v64.4H374.8z" fill="#f8f8f2" class="cursor-active"/></g><g transform="translate(0,7820)"><use xlink:href="#17"/><use xlink:href="#18"/><use xlink:href="#29"/><path d="M402.4 144.8h27.6v64.4H402.4z" fill="#f8f8f2" class="cursor-active"/></g><g transform="translate(0,8050)"><use xlink:href="#17"/><use xlink:href="#18"/><use xlink:href="#30"/><path d="M430 144.8h27.6v64.4H430z" fill="#f8f8f2" class="cursor-active"/></g><g transform="translate(0,8280)"><use xlink:href="#17"/><use xlink:href="#18"/><use xlink:href="#31"/><path d="M457.6 144.8h27.6v64.4H457.6z" fill="#f8f8f2" class="cursor-active"/></g><g transform="translate(0,8510)"><use xlink:href="#17"/><use xlink:href="#18"/><use xlink:href="#32"/><path d="M485.2 144.8h27.6v64.4H485.2z" fill="#f8f8f2" class="cursor-active"/></g><g transform="translate(0,8740)"><use xlink:href="#17"/><use xlink:href="#18"/><use xlink:href="#32"/><path d="M485.2 144.8h27.6v64.4H485.2z" fill="#f8f8f2" class="cursor"/></g><animateTransform attributeName="transform" type="translate" values="0 0;0 -230;0 -460;0 -690;0 -920;0 -1150;0 -1380;0 -1610;0 -1840;0 -2070;0 -2300;0 -2530;0 -2760;0 -2990;0 -3220;0 -3450;0 -3680;0 -3910;0 -4140;0 -4370;0 -4600;0 -4830;0 -5060;0 -5290;0 -5520;0 -5750;0 -5980;0 -6210;0 -6440;0 -6670;0 -6900;0 -7130;0 -7360;0 -7590;0 -7820;0 -8050;0 -8280;0 -8510;0 -8740;0 -8740" keyTimes="0;0.0109;0.0203;0.0295;0.039;0.0484;0.058;0.0674;0.0768;0.0862;0.0956;0.1052;0.1148;0.1241;0.1335;0.1431;0.1523;0.1621;0.1715;0.1717;0.2834;0.2847;0.3041;0.3135;0.3235;0.3322;0.3418;0.3512;0.3604;0.3702;0.3794;0.3888;0.3984;0.4079;0.4173;0.4269;0.4361;0.4455;0.4457;1" dur="5.42s" repeatCount="indefinite" calcMode="discrete" fill="freeze"/></g></g></g></svg>