<svg xmlns="http://www.w3.org/2000/svg" xmlns:xlink="http://www.w3.org/1999/xlink" width="522" height="383" viewBox="0 0 522 383"><defs><symbol id="1"><text x="16" y="57" class="c">❯</text></symbol><symbol id="2"><text x="16" y="57" class="c">❯ </text><text x="30.4" y="57" class="d">g</text></symbol><symbol id="3"><text x="16" y="57" class="c">❯ </text><text x="30.4" y="57" class="d">gi</text></symbol><symbol id="4"><text x="16" y="57" class="c">❯ </text><text x="30.4" y="57" class="d">git</text></symbol><symbol id="5"><text x="16" y="57" class="c">❯ </text><text x="30.4" y="57" class="d">git l</text></symbol><symbol id="6"><text x="16" y="57" class="c">❯ </text><text x="30.4" y="57" class="d">git lo</text></symbol><symbol id="7"><text x="16" y="57" class="c">❯ </text><text x="30.4" y="57" class="d">git log</text></symbol><symbol id="8"><text x="16" y="57" class="c">❯ </text><text x="30.4" y="57" class="d">git log -</text></symbol><symbol id="9"><text x="16" y="57" class="c">❯ </text><text x="30.4" y="57" class="d">git log --</text></symbol><symbol id="10"><text x="16" y="57" class="c">❯ </text><text x="30.4" y="57" class="d">git log --c</text></symbol><symbol id="11"><text x="16" y="57" class="c">❯ </text><text x="30.4" y="57" class="d">git log --co</text></symbol><symbol id="12"><text x="16" y="57" class="c">❯ </text><text x="30.4" y="57" class="d">git log --col</text></symbol><symbol id="13"><text x="16" y="57" class="c">❯ </text><text x="30.4" y="57" class="d">git log --colo</text></symbol><symbol id="14"><text x="16" y="57" class="c">❯ </text><text x="30.4" y="57" class="d">git log --color</text></symbol><symbol id="15"><text x="16" y="57" class="c">❯ </text><text x="30.4" y="57" class="d">git log --color -</text></symbol><symbol id="16"><text x="16" y="57" class="c">❯ </text><text x="30.4" y="57" class="d">git log --color --</text></symbol><symbol id="17"><text x="16" y="57" class="c">❯ </text><text x="30.4" y="57" class="d">git log --color --o</text></symbol><symbol id="18"><text x="16" y="57" class="c">❯ </text><text x="30.4" y="57" class="d">git log --color --on</text></symbol><symbol id="19"><text x="16" y="57" class="c">❯ </text><text x="30.4" y="57" class="d">git log --color --one</text></symbol><symbol id="20"><text x="16" y="57" class="c">❯ </text><text x="30.4" y="57" class="d">git log --color --onel</text></symbol><symbol id="21"><text x="16" y="57" class="c">❯ </text><text x="30.4" y="57" class="d">git log --color --oneli</text></symbol><symbol id="22"><text x="16" y="57" class="c">❯ </text><text x="30.4" y="57" class="d">git log --color --onelin</text></symbol><symbol id="23"><text x="16" y="57" class="c">❯ </text><text x="30.4" y="57" class="d">git log --color --oneline</text></symbol><symbol id="24"><text x="16" y="57" class="c">❯ </text><text x="30.4" y="57" class="d">git log --color --oneline -</text></symbol><symbol id="25"><text x="16" y="57" class="c">❯ </text><text x="30.4" y="57" class="d">git log --color --oneline --</text></symbol><symbol id="26"><text x="16" y="57" class="c">❯ </text><text x="30.4" y="57" class="d">git log --color --oneline --g</text></symbol><symbol id="27"><text x="16" y="57" class="c">❯ </text><text x="30.4" y="57" class="d">git log --color --oneline --gr</text></symbol><symbol id="28"><text x="16" y="57" class="c">❯ </text><text x="30.4" y="57" class="d">git log --color --oneline --gra</text></symbol><symbol id="29"><text x="16" y="57" class="c">❯ </text><text x="30.4" y="57" class="d">git log --color --oneline --grap</text></symbol><symbol id="30"><text x="16" y="57" class="c">❯ </text><text x="30.4" y="57" class="d">git log --color --oneline --graph</text></symbol><symbol id="31"><text x="16" y="57" class="c">❯ </text><text x="30.4" y="57" class="d">git log --color --oneline --graph -</text></symbol><symbol id="32"><text x="16" y="57" class="c">❯ </text><text x="30.4" y="57" class="d">git log --color --oneline --graph --</text></symbol><symbol id="33"><text x="16" y="57" class="c">❯ </text><text x="30.4" y="57" class="d">git log --color --oneline --graph --d</text></symbol><symbol id="34"><text x="16" y="57" class="c">❯ </text><text x="30.4" y="57" class="d">git log --color --oneline --graph --de</text></symbol><symbol id="35"><text x="16" y="57" class="c">❯ </text><text x="30.4" y="57" class="d">git log --color --oneline --graph --dec</text></symbol><symbol id="36"><text x="16" y="57" class="c">❯ </text><text x="30.4" y="57" class="d">git log --color --oneline --graph --deco</text></symbol><symbol id="37"><text x="16" y="57" class="c">❯ </text><text x="30.4" y="57" class="d">git log --color --oneline --graph --decor</text></symbol><symbol id="38"><text x="16" y="57" class="c">❯ </text><text x="30.4" y="57" class="d">git log --color --oneline --graph --decora</text></symbol><symbol id="39"><text x="16" y="57" class="c">❯ </text><text x="30.4" y="57" class="d">git log --color --oneline --graph --decorat</text></symbol><symbol id="40"><text x="16" y="57" class="c">❯ </text><text x="30.4" y="57" class="d">git log --color --oneline --graph --decorate</text></symbol><symbol id="41"><text x="16" y="57" class="c">❯ </text><text x="30.4" y="57" class="d">git log --color --oneline --graph --decorate -</text></symbol><symbol id="42"><text x="16" y="57" class="c">❯ </text><text x="30.4" y="57" class="d">git log --color --oneline --graph --decorate --</text></symbol><symbol id="43"><text x="16" y="57" class="c">❯ </text><text x="30.4" y="57" class="d">git log --color --oneline --graph --decorate --a</text></symbol><symbol id="44"><text x="16" y="57" class="c">❯ </text><text x="30.4" y="57" class="d">git log --color --oneline --graph --decorate --al</text></symbol><symbol id="45"><text x="16" y="57" class="c">❯ </text><text x="30.4" y="57" class="d">git log --color --oneline --graph --decorate --all</text></symbol><symbol id="46"><text x="16" y="57" class="c">❯ </text><text x="30.4" y="57" class="d">git log --color --oneline --graph --decorate --all -</text></symbol><symbol id="47"><text x="16" y="57" class="c">❯ </text><text x="30.4" y="57" class="d">git log --color --oneline --graph --decorate --all -1</text></symbol><symbol id="48"><text x="16" y="57" class="c">❯ </text><text x="30.4" y="57" class="d">git log --color --oneline --graph --decorate --all -15</text></symbol><symbol id="49"><text x="16" y="73.8" class="d">* </text><text x="30.4" y="73.8" class="e">97521d9 (</text><text x="95.2" y="73.8" class="f bold">HEAD</text><text x="124" y="73.8" class="e"> -&gt; </text><text x="152.8" y="73.8" class="g bold">feat/rec</text><text x="210.4" y="73.8" class="e">, </text><text x="224.8" y="73.8" class="h bold">origin/feat/rec</text><text x="332.8" y="73.8" class="e">)</text><text x="340" y="73.8" class="d"> chore: redo examples</text></symbol><symbol id="50"><text x="16" y="90.6" class="d">* </text><text x="30.4" y="90.6" class="e">b392ddc</text><text x="80.8" y="90.6" class="d"> fix: cursor animations</text></symbol><symbol id="51"><text x="16" y="107.4" class="d">* </text><text x="30.4" y="107.4" class="e">c41d767</text><text x="80.8" y="107.4" class="d"> fix: block rendering</text></symbol><symbol id="52"><text x="16" y="124.2" class="d">* </text><text x="30.4" y="124.2" class="e">a88f15d</text><text x="80.8" y="124.2" class="d"> fix: cursor in rener</text></symbol><symbol id="53"><text x="16" y="141" class="d">* </text><text x="30.4" y="141" class="e">2686a78</text><text x="80.8" y="141" class="d"> fear: render command coming</text></symbol><symbol id="54"><text x="16" y="157.8" class="d">* </text><text x="30.4" y="157.8" class="e">6f8da7c</text><text x="80.8" y="157.8" class="d"> feat: selection and glyphs</text></symbol><symbol id="55"><text x="16" y="174.6" class="d">* </text><text x="30.4" y="174.6" class="e">2dada32</text><text x="80.8" y="174.6" class="d"> feat: working on rec and render</text></symbol><symbol id="56"><text x="16" y="191.4" class="d">* </text><text x="30.4" y="191.4" class="e">bc00793</text><text x="80.8" y="191.4" class="d"> chore: loop styles support for filmstrip</text></symbol><symbol id="57"><text x="16" y="208.2" class="d">* </text><text x="30.4" y="208.2" class="e">2f109bc</text><text x="80.8" y="208.2" class="d"> feat: filmstrip</text></symbol><symbol id="58"><text x="16" y="225" class="h">|</text><text x="23.2" y="225" class="d"> * </text><text x="44.8" y="225" class="e">0c56284 (</text><text x="109.6" y="225" class="h bold">origin/chore/opt</text><text x="224.8" y="225" class="e">, </text><text x="239.2" y="225" class="g bold">chore/opt</text><text x="304" y="225" class="e">)</text><text x="311.2" y="225" class="d"> chore: attempt optimize</text></symbol><symbol id="59"><text x="16" y="241.8" class="h">|/</text></symbol><symbol id="60"><text x="16" y="258.6" class="d">* </text><text x="30.4" y="258.6" class="e">23cb312 (</text><text x="95.2" y="258.6" class="h bold">origin/master</text><text x="188.8" y="258.6" class="e">, </text><text x="203.2" y="258.6" class="h bold">origin/HEAD</text><text x="282.4" y="258.6" class="e">, </text><text x="296.8" y="258.6" class="g bold">master</text><text x="340" y="258.6" class="e">)</text><text x="347.2" y="258.6" class="d"> chore: redo branding</text></symbol><symbol id="61"><text x="16" y="275.4" class="d">* </text><text x="30.4" y="275.4" class="e">0b39269</text><text x="80.8" y="275.4" class="d"> chore: update name again</text></symbol><symbol id="62"><text x="16" y="292.2" class="d">* </text><text x="30.4" y="292.2" class="e">875443b</text><text x="80.8" y="292.2" class="d"> chore: update name</text></symbol><symbol id="63"><text x="16" y="309" class="d">* </text><text x="30.4" y="309" class="e">c7a0533</text><text x="80.8" y="309" class="d"> chore: getting ready for release</text></symbol><symbol id="64"><text x="16" y="325.8" class="d">* </text><text x="30.4" y="325.8" class="e">b22fcd2</text><text x="80.8" y="325.8" class="d"> chore: release script</text></symbol><symbol id="65"><text x="16" y="73.8" class="d">* </text><text x="30.4" y="73.8" class="e">97521d9 (</text><text x="95.2" y="73.8" class="f bold">HEAD</text><text x="124" y="73.8" class="e"> -&gt; </text><text x="152.8" y="73.8" class="g bold">feat/rec</text><text x="210.4" y="73.8" class="e">, </text><text x="224.8" y="73.8" class="h bold">origin/feat/rec</text><text x="332.8" y="73.8" class="e">) </text><text x="347.2" y="73.8" class="d">chore: redo examples</text></symbol><symbol id="66"><text x="16" y="90.6" class="d">* </text><text x="30.4" y="90.6" class="e">b392ddc </text><text x="88" y="90.6" class="d">fix: cursor animations</text></symbol><symbol id="67"><text x="16" y="107.4" class="d">* </text><text x="30.4" y="107.4" class="e">c41d767 </text><text x="88" y="107.4" class="d">fix: block rendering</text></symbol><symbol id="68"><text x="16" y="124.2" class="d">* </text><text x="30.4" y="124.2" class="e">a88f15d </text><text x="88" y="124.2" class="d">fix: cursor in rener</text></symbol><symbol id="69"><text x="16" y="141" class="d">* </text><text x="30.4" y="141" class="e">2686a78 </text><text x="88" y="141" class="d">fear: render command coming</text></symbol><symbol id="70"><text x="16" y="157.8" class="d">* </text><text x="30.4" y="157.8" class="e">6f8da7c </text><text x="88" y="157.8" class="d">feat: selection and glyphs</text></symbol><symbol id="71"><text x="16" y="174.6" class="d">* </text><text x="30.4" y="174.6" class="e">2dada32 </text><text x="88" y="174.6" class="d">feat: working on rec and render</text></symbol><symbol id="72"><text x="16" y="191.4" class="d">* </text><text x="30.4" y="191.4" class="e">bc00793 </text><text x="88" y="191.4" class="d">chore: loop styles support for filmstrip</text></symbol><symbol id="73"><text x="16" y="208.2" class="d">* </text><text x="30.4" y="208.2" class="e">2f109bc </text><text x="88" y="208.2" class="d">feat: filmstrip</text></symbol><symbol id="74"><text x="16" y="225" class="h">| </text><text x="30.4" y="225" class="d">* </text><text x="44.8" y="225" class="e">0c56284 (</text><text x="109.6" y="225" class="h bold">origin/chore/opt</text><text x="224.8" y="225" class="e">, </text><text x="239.2" y="225" class="g bold">chore/opt</text><text x="304" y="225" class="e">) </text><text x="318.4" y="225" class="d">chore: attempt optimize</text></symbol><symbol id="75"><text x="16" y="258.6" class="d">* </text><text x="30.4" y="258.6" class="e">23cb312 (</text><text x="95.2" y="258.6" class="h bold">origin/master</text><text x="188.8" y="258.6" class="e">, </text><text x="203.2" y="258.6" class="h bold">origin/HEAD</text><text x="282.4" y="258.6" class="e">, </text><text x="296.8" y="258.6" class="g bold">master</text><text x="340" y="258.6" class="e">) </text><text x="354.4" y="258.6" class="d">chore: redo branding</text></symbol><symbol id="76"><text x="16" y="275.4" class="d">* </text><text x="30.4" y="275.4" class="e">0b39269 </text><text x="88" y="275.4" class="d">chore: update name again</text></symbol><symbol id="77"><text x="16" y="292.2" class="d">* </text><text x="30.4" y="292.2" class="e">875443b </text><text x="88" y="292.2" class="d">chore: update name</text></symbol><symbol id="78"><text x="16" y="309" class="d">* </text><text x="30.4" y="309" class="e">c7a0533 </text><text x="88" y="309" class="d">chore: getting ready for release</text></symbol><symbol id="79"><text x="16" y="325.8" class="d">* </text><text x="30.4" y="325.8" class="e">b22fcd2 </text><text x="88" y="325.8" class="d">chore: release script</text></symbol><symbol id="80"><text x="16" y="342.6" class="c">❯</text></symbol></defs><style>@keyframes f{0.10%{transform:translateX(0px)}0.77%{transform:translateX(-522px)}1.44%{transform:translateX(-1044px)}2.09%{transform:translateX(-1566px)}2.74%{transform:translateX(-2088px)}3.37%{transform:translateX(-2610px)}4.04%{transform:translateX(-3132px)}4.68%{transform:translateX(-3654px)}5.33%{transform:translateX(-4176px)}5.99%{transform:translateX(-4698px)}6.62%{transform:translateX(-5220px)}7.27%{transform:translateX(-5742px)}7.92%{transform:translateX(-6264px)}8.58%{transform:translateX(-6786px)}9.22%{transform:translateX(-7308px)}9.86%{transform:translateX(-7830px)}10.53%{transform:translateX(-8352px)}11.18%{transform:translateX(-8874px)}11.83%{transform:translateX(-9396px)}12.50%{transform:translateX(-9918px)}13.16%{transform:translateX(-10440px)}13.81%{transform:translateX(-10962px)}14.45%{transform:translateX(-11484px)}15.10%{transform:translateX(-12006px)}15.76%{transform:translateX(-12528px)}16.41%{transform:translateX(-13050px)}17.04%{transform:translateX(-13572px)}17.71%{transform:translateX(-14094px)}18.36%{transform:translateX(-14616px)}19.03%{transform:translateX(-15138px)}19.66%{transform:translateX(-15660px)}20.32%{transform:translateX(-16182px)}20.96%{transform:translateX(-16704px)}21.64%{transform:translateX(-17226px)}22.28%{transform:translateX(-17748px)}22.94%{transform:translateX(-18270px)}23.58%{transform:translateX(-18792px)}24.23%{transform:translateX(-19314px)}24.89%{transform:translateX(-19836px)}25.55%{transform:translateX(-20358px)}26.22%{transform:translateX(-20880px)}26.86%{transform:translateX(-21402px)}27.53%{transform:translateX(-21924px)}28.17%{transform:translateX(-22446px)}28.84%{transform:translateX(-22968px)}29.50%{transform:translateX(-23490px)}30.16%{transform:translateX(-24012px)}30.81%{transform:translateX(-24534px)}31.47%{transform:translateX(-25056px)}32.12%{transform:translateX(-25578px)}32.81%{transform:translateX(-26100px)}33.47%{transform:translateX(-26622px)}34.09%{transform:translateX(-27144px)}34.80%{transform:translateX(-27666px)}35.48%{transform:translateX(-28188px)}35.49%{transform:translateX(-28710px)}43.26%{transform:translateX(-29232px)}43.84%{transform:translateX(-29754px)}46.70%{transform:translateX(-30276px)}}.a{fill:#0d1117}.c{fill:#d2a8ff;stroke:#d2a8ff}.d{fill:#c9d1d9;stroke:#c9d1d9}.e{fill:#d29922;stroke:#d29922}.f{fill:#39c5cf;stroke:#39c5cf}.g{fill:#3fb950;stroke:#3fb950}.h{fill:#ff7b72;stroke:#ff7b72}path[fill="none"]{fill:none}path[shape-rendering="crispEdges"]{stroke:none}text{font-family:'SF Mono',Monaco,Consolas,Menlo,monospace;font-size:12px;dominant-baseline:text-before-edge;white-space:pre}text[class]{stroke:none}.bold{font-weight:700}.italic{font-style:italic}.uline{text-decoration:underline}.strike{text-decoration:line-through}.dim{opacity:0.5}@keyframes blink{0%,50%{opacity:1}50.01%,100%{opacity:0}}.cursor{animation:blink 1s step-end infinite;mix-blend-mode:difference}.cursor-active{opacity:1;mix-blend-mode:difference}</style><g transform="translate(0,0)"><rect width="522" height="383" rx="8" fill="#0d1117"/><rect width="522" height="40" rx="8" fill="#0d1117"/><path d="M0 32h522v8H0z" fill="#0d1117"/><circle cx="16" cy="20" r="6" fill="#ff5f56"/><circle cx="36" cy="20" r="6" fill="#ffbd2e"/><circle cx="56" cy="20" r="6" fill="#27c93f"/><text x="261" y="20" text-anchor="middle" dominant-baseline="middle" fill="#c9d1d9" font-size="12">Git History</text><clipPath id="content-clip"><path d="M0 40h522v343H0z" /></clipPath><g clip-path="url(#content-clip)"><g style="animation:f 7.799s steps(1,end) infinite"><g transform="translate(0,0)"><use xlink:href="#1"/><path d="M30.4 56h7.2v16.8H30.4z" fill="#fff" class="cursor"/></g><g transform="translate(522,0)"><use xlink:href="#2"/><path d="M37.6 56h7.2v16.8H37.6z" fill="#fff" class="cursor-active"/></g><g transform="translate(1044,0)"><use xlink:href="#3"/><path d="M44.8 56h7.2v16.8H44.8z" fill="#fff" class="cursor-active"/></g><g transform="translate(1566,0)"><use xlink:href="#4"/><path d="M52 56h7.2v16.8H52z" fill="#fff" class="cursor-active"/></g><g transform="translate(2088,0)"><use xlink:href="#4"/><path d="M59.2 56h7.2v16.8H59.2z" fill="#fff" class="cursor-active"/></g><g transform="translate(2610,0)"><use xlink:href="#5"/><path d="M66.4 56h7.2v16.8H66.4z" fill="#fff" class="cursor-active"/></g><g transform="translate(3132,0)"><use xlink:href="#6"/><path d="M73.6 56h7.2v16.8H73.6z" fill="#fff" class="cursor-active"/></g><g transform="translate(3654,0)"><use xlink:href="#7"/><path d="M80.8 56h7.2v16.8H80.8z" fill="#fff" class="cursor-active"/></g><g transform="translate(4176,0)"><use xlink:href="#7"/><path d="M88 56h7.2v16.8H88z" fill="#fff" class="cursor-active"/></g><g transform="translate(4698,0)"><use xlink:href="#8"/><path d="M95.2 56h7.2v16.8H95.2z" fill="#fff" class="cursor-active"/></g><g transform="translate(5220,0)"><use xlink:href="#9"/><path d="M102.4 56h7.2v16.8H102.4z" fill="#fff" class="cursor-active"/></g><g transform="translate(5742,0)"><use xlink:href="#10"/><path d="M109.6 56h7.2v16.8H109.6z" fill="#fff" class="cursor-active"/></g><g transform="translate(6264,0)"><use xlink:href="#11"/><path d="M116.8 56h7.2v16.8H116.8z" fill="#fff" class="cursor-active"/></g><g transform="translate(6786,0)"><use xlink:href="#12"/><path d="M124 56h7.2v16.8H124z" fill="#fff" class="cursor-active"/></g><g transform="translate(7308,0)"><use xlink:href="#13"/><path d="M131.2 56h7.2v16.8H131.2z" fill="#fff" class="cursor-active"/></g><g transform="translate(7830,0)"><use xlink:href="#14"/><path d="M138.4 56h7.2v16.8H138.4z" fill="#fff" class="cursor-active"/></g><g transform="translate(8352,0)"><use xlink:href="#14"/><path d="M145.6 56h7.2v16.8H145.6z" fill="#fff" class="cursor-active"/></g><g transform="translate(8874,0)"><use xlink:href="#15"/><path d="M152.8 56h7.2v16.8H152.8z" fill="#fff" class="cursor-active"/></g><g transform="translate(9396,0)"><use xlink:href="#16"/><path d="M160 56h7.2v16.8H160z" fill="#fff" class="cursor-active"/></g><g transform="translate(9918,0)"><use xlink:href="#17"/><path d="M167.2 56h7.2v16.8H167.2z" fill="#fff" class="cursor-active"/></g><g transform="translate(10440,0)"><use xlink:href="#18"/><path d="M174.4 56h7.2v16.8H174.4z" fill="#fff" class="cursor-active"/></g><g transform="translate(10962,0)"><use xlink:href="#19"/><path d="M181.6 56h7.2v16.8H181.6z" fill="#fff" class="cursor-active"/></g><g transform="translate(11484,0)"><use xlink:href="#20"/><path d="M188.8 56h7.2v16.8H188.8z" fill="#fff" class="cursor-active"/></g><g transform="translate(12006,0)"><use xlink:href="#21"/><path d="M196 56h7.2v16.8H196z" fill="#fff" class="cursor-active"/></g><g transform="translate(12528,0)"><use xlink:href="#22"/><path d="M203.2 56h7.2v16.8H203.2z" fill="#fff" class="cursor-active"/></g><g transform="translate(13050,0)"><use xlink:href="#23"/><path d="M210.4 56h7.2v16.8H210.4z" fill="#fff" class="cursor-active"/></g><g transform="translate(13572,0)"><use xlink:href="#23"/><path d="M217.6 56h7.2v16.8H217.6z" fill="#fff" class="cursor-active"/></g><g transform="translate(14094,0)"><use xlink:href="#24"/><path d="M224.8 56h7.2v16.8H224.8z" fill="#fff" class="cursor-active"/></g><g transform="translate(14616,0)"><use xlink:href="#25"/><path d="M232 56h7.2v16.8H232z" fill="#fff" class="cursor-active"/></g><g transform="translate(15138,0)"><use xlink:href="#26"/><path d="M239.2 56h7.2v16.8H239.2z" fill="#fff" class="cursor-active"/></g><g transform="translate(15660,0)"><use xlink:href="#27"/><path d="M246.4 56h7.2v16.8H246.4z" fill="#fff" class="cursor-active"/></g><g transform="translate(16182,0)"><use xlink:href="#28"/><path d="M253.6 56h7.2v16.8H253.6z" fill="#fff" class="cursor-active"/></g><g transform="translate(16704,0)"><use xlink:href="#29"/><path d="M260.8 56h7.2v16.8H260.8z" fill="#fff" class="cursor-active"/></g><g transform="translate(17226,0)"><use xlink:href="#30"/><path d="M268 56h7.2v16.8H268z" fill="#fff" class="cursor-active"/></g><g transform="translate(17748,0)"><use xlink:href="#30"/><path d="M275.2 56h7.2v16.8H275.2z" fill="#fff" class="cursor-active"/></g><g transform="translate(18270,0)"><use xlink:href="#31"/><path d="M282.4 56h7.2v16.8H282.4z" fill="#fff" class="cursor-active"/></g><g transform="translate(18792,0)"><use xlink:href="#32"/><path d="M289.6 56h7.2v16.8H289.6z" fill="#fff" class="cursor-active"/></g><g transform="translate(19314,0)"><use xlink:href="#33"/><path d="M296.8 56h7.2v16.8H296.8z" fill="#fff" class="cursor-active"/></g><g transform="translate(19836,0)"><use xlink:href="#34"/><path d="M304 56h7.2v16.8H304z" fill="#fff" class="cursor-active"/></g><g transform="translate(20358,0)"><use xlink:href="#35"/><path d="M311.2 56h7.2v16.8H311.2z" fill="#fff" class="cursor-active"/></g><g transform="translate(20880,0)"><use xlink:href="#36"/><path d="M318.4 56h7.2v16.8H318.4z" fill="#fff" class="cursor-active"/></g><g transform="translate(21402,0)"><use xlink:href="#37"/><path d="M325.6 56h7.2v16.8H325.6z" fill="#fff" class="cursor-active"/></g><g transform="translate(21924,0)"><use xlink:href="#38"/><path d="M332.8 56h7.2v16.8H332.8z" fill="#fff" class="cursor-active"/></g><g transform="translate(22446,0)"><use xlink:href="#39"/><path d="M340 56h7.2v16.8H340z" fill="#fff" class="cursor-active"/></g><g transform="translate(22968,0)"><use xlink:href="#40"/><path d="M347.2 56h7.2v16.8H347.2z" fill="#fff" class="cursor-active"/></g><g transform="translate(23490,0)"><use xlink:href="#40"/><path d="M354.4 56h7.2v16.8H354.4z" fill="#fff" class="cursor-active"/></g><g transform="translate(24012,0)"><use xlink:href="#41"/><path d="M361.6 56h7.2v16.8H361.6z" fill="#fff" class="cursor-active"/></g><g transform="translate(24534,0)"><use xlink:href="#42"/><path d="M368.8 56h7.2v16.8H368.8z" fill="#fff" class="cursor-active"/></g><g transform="translate(25056,0)"><use xlink:href="#43"/><path d="M376 56h7.2v16.8H376z" fill="#fff" class="cursor-active"/></g><g transform="translate(25578,0)"><use xlink:href="#44"/><path d="M383.2 56h7.2v16.8H383.2z" fill="#fff" class="cursor-active"/></g><g transform="translate(26100,0)"><use xlink:href="#45"/><path d="M390.4 56h7.2v16.8H390.4z" fill="#fff" class="cursor-active"/></g><g transform="translate(26622,0)"><use xlink:href="#45"/><path d="M397.6 56h7.2v16.8H397.6z" fill="#fff" class="cursor-active"/></g><g transform="translate(27144,0)"><use xlink:href="#46"/><path d="M404.8 56h7.2v16.8H404.8z" fill="#fff" class="cursor-active"/></g><g transform="translate(27666,0)"><use xlink:href="#47"/><path d="M412 56h7.2v16.8H412z" fill="#fff" class="cursor-active"/></g><g transform="translate(28188,0)"><use xlink:href="#48"/><path d="M419.2 56h7.2v16.8H419.2z" fill="#fff" class="cursor-active"/></g><g transform="translate(28710,0)"><use xlink:href="#48"/><path d="M419.2 56h7.2v16.8H419.2z" fill="#fff" class="cursor"/></g><g transform="translate(29232,0)"><use xlink:href="#48"/></g><g transform="translate(29754,0)"><use xlink:href="#48"/><use xlink:href="#49"/><use xlink:href="#50"/><use xlink:href="#51"/><use xlink:href="#52"/><use xlink:href="#53"/><use xlink:href="#54"/><use xlink:href="#55"/><use xlink:href="#56"/><use xlink:href="#57"/><use xlink:href="#58"/><use xlink:href="#59"/><use xlink:href="#60"/><use xlink:href="#61"/><use xlink:href="#62"/><use xlink:href="#63"/><use xlink:href="#64"/></g><g transform="translate(30276,0)"><use xlink:href="#48"/><use xlink:href="#65"/><use xlink:href="#66"/><use xlink:href="#67"/><use xlink:href="#68"/><use xlink:href="#69"/><use xlink:href="#70"/><use xlink:href="#71"/><use xlink:href="#72"/><use xlink:href="#73"/><use xlink:href="#74"/><use xlink:href="#59"/><use xlink:href="#75"/><use xlink:href="#76"/><use xlink:href="#77"/><use xlink:href="#78"/><use xlink:href="#79"/><use xlink:href="#80"/><path d="M30.4 341.6h7.2v16.8H30.4z" fill="#fff" class="cursor"/></g></g></g></g></svg>