<svg xmlns="http://www.w3.org/2000/svg" xmlns:xlink="http://www.w3.org/1999/xlink" width="658" height="188" viewBox="0 0 658 188"><defs><linearGradient id="bg-gradient" x1="0%" y1="0%" x2="100%" y2="100%"><stop offset="0%" stop-color="#4ecdc4"/><stop offset="100%" stop-color="#ff6b6b"/></linearGradient><symbol id="1"><text x="16" y="57.3" class="c">❯</text></symbol><symbol id="2"><text x="16" y="57.3" class="c">❯ </text><text x="35.2" y="57.3" class="d">e</text></symbol><symbol id="3"><text x="16" y="57.3" class="c">❯ </text><text x="35.2" y="57.3" class="d">ec</text></symbol><symbol id="4"><text x="16" y="57.3" class="c">❯ </text><text x="35.2" y="57.3" class="d">ech</text></symbol><symbol id="5"><text x="16" y="57.3" class="c">❯ </text><text x="35.2" y="57.3" class="d">echo</text></symbol><symbol id="6"><text x="16" y="57.3" class="c">❯ </text><text x="35.2" y="57.3" class="d">echo &apos;</text></symbol><symbol id="7"><text x="16" y="57.3" class="c">❯ </text><text x="35.2" y="57.3" class="d">echo &apos;H</text></symbol><symbol id="8"><text x="16" y="57.3" class="c">❯ </text><text x="35.2" y="57.3" class="d">echo &apos;He</text></symbol><symbol id="9"><text x="16" y="57.3" class="c">❯ </text><text x="35.2" y="57.3" class="d">echo &apos;Hel</text></symbol><symbol id="10"><text x="16" y="57.3" class="c">❯ </text><text x="35.2" y="57.3" class="d">echo &apos;Hell</text></symbol><symbol id="11"><text x="16" y="57.3" class="c">❯ </text><text x="35.2" y="57.3" class="d">echo &apos;Hello</text></symbol><symbol id="12"><text x="16" y="57.3" class="c">❯ </text><text x="35.2" y="57.3" class="d">echo &apos;Hello f</text></symbol><symbol id="13"><text x="16" y="57.3" class="c">❯ </text><text x="35.2" y="57.3" class="d">echo &apos;Hello fr</text></symbol><symbol id="14"><text x="16" y="57.3" class="c">❯ </text><text x="35.2" y="57.3" class="d">echo &apos;Hello fro</text></symbol><symbol id="15"><text x="16" y="57.3" class="c">❯ </text><text x="35.2" y="57.3" class="d">echo &apos;Hello from</text></symbol><symbol id="16"><text x="16" y="57.3" class="c">❯ </text><text x="35.2" y="57.3" class="d">echo &apos;Hello from a</text></symbol><symbol id="17"><text x="16" y="57.3" class="c">❯ </text><text x="35.2" y="57.3" class="d">echo &apos;Hello from a r</text></symbol><symbol id="18"><text x="16" y="57.3" class="c">❯ </text><text x="35.2" y="57.3" class="d">echo &apos;Hello from a re</text></symbol><symbol id="19"><text x="16" y="57.3" class="c">❯ </text><text x="35.2" y="57.3" class="d">echo &apos;Hello from a rev</text></symbol><symbol id="20"><text x="16" y="57.3" class="c">❯ </text><text x="35.2" y="57.3" class="d">echo &apos;Hello from a reve</text></symbol><symbol id="21"><text x="16" y="57.3" class="c">❯ </text><text x="35.2" y="57.3" class="d">echo &apos;Hello from a rever</text></symbol><symbol id="22"><text x="16" y="57.3" class="c">❯ </text><text x="35.2" y="57.3" class="d">echo &apos;Hello from a revers</text></symbol><symbol id="23"><text x="16" y="57.3" class="c">❯ </text><text x="35.2" y="57.3" class="d">echo &apos;Hello from a reverse</text></symbol><symbol id="24"><text x="16" y="57.3" class="c">❯ </text><text x="35.2" y="57.3" class="d">echo &apos;Hello from a reversed</text></symbol><symbol id="25"><text x="16" y="57.3" class="c">❯ </text><text x="35.2" y="57.3" class="d">echo &apos;Hello from a reversed d</text></symbol><symbol id="26"><text x="16" y="57.3" class="c">❯ </text><text x="35.2" y="57.3" class="d">echo &apos;Hello from a reversed di</text></symbol><symbol id="27"><text x="16" y="57.3" class="c">❯ </text><text x="35.2" y="57.3" class="d">echo &apos;Hello from a reversed dia</text></symbol><symbol id="28"><text x="16" y="57.3" class="c">❯ </text><text x="35.2" y="57.3" class="d">echo &apos;Hello from a reversed diag</text></symbol><symbol id="29"><text x="16" y="57.3" class="c">❯ </text><text x="35.2" y="57.3" class="d">echo &apos;Hello from a reversed diago</text></symbol><symbol id="30"><text x="16" y="57.3" class="c">❯ </text><text x="35.2" y="57.3" class="d">echo &apos;Hello from a reversed diagon</text></symbol><symbol id="31"><text x="16" y="57.3" class="c">❯ </text><text x="35.2" y="57.3" class="d">echo &apos;Hello from a reversed diagona</text></symbol><symbol id="32"><text x="16" y="57.3" class="c">❯ </text><text x="35.2" y="57.3" class="d">echo &apos;Hello from a reversed diagonal</text></symbol><symbol id="33"><text x="16" y="57.3" class="c">❯ </text><text x="35.2" y="57.3" class="d">echo &apos;Hello from a reversed diagonal g</text></symbol><symbol id="34"><text x="16" y="57.3" class="c">❯ </text><text x="35.2" y="57.3" class="d">echo &apos;Hello from a reversed diagonal gr</text></symbol><symbol id="35"><text x="16" y="57.3" class="c">❯ </text><text x="35.2" y="57.3" class="d">echo &apos;Hello from a reversed diagonal gra</text></symbol><symbol id="36"><text x="16" y="57.3" class="c">❯ </text><text x="35.2" y="57.3" class="d">echo &apos;Hello from a reversed diagonal grad</text></symbol><symbol id="37"><text x="16" y="57.3" class="c">❯ </text><text x="35.2" y="57.3" class="d">echo &apos;Hello from a reversed diagonal gradi</text></symbol><symbol id="38"><text x="16" y="57.3" class="c">❯ </text><text x="35.2" y="57.3" class="d">echo &apos;Hello from a reversed diagonal gradie</text></symbol><symbol id="39"><text x="16" y="57.3" class="c">❯ </text><text x="35.2" y="57.3" class="d">echo &apos;Hello from a reversed diagonal gradien</text></symbol><symbol id="40"><text x="16" y="57.3" class="c">❯ </text><text x="35.2" y="57.3" class="d">echo &apos;Hello from a reversed diagonal gradient</text></symbol><symbol id="41"><text x="16" y="57.3" class="c">❯ </text><text x="35.2" y="57.3" class="d">echo &apos;Hello from a reversed diagonal gradient b</text></symbol><symbol id="42"><text x="16" y="57.3" class="c">❯ </text><text x="35.2" y="57.3" class="d">echo &apos;Hello from a reversed diagonal gradient ba</text></symbol><symbol id="43"><text x="16" y="57.3" class="c">❯ </text><text x="35.2" y="57.3" class="d">echo &apos;Hello from a reversed diagonal gradient bac</text></symbol><symbol id="44"><text x="16" y="57.3" class="c">❯ </text><text x="35.2" y="57.3" class="d">echo &apos;Hello from a reversed diagonal gradient back</text></symbol><symbol id="45"><text x="16" y="57.3" class="c">❯ </text><text x="35.2" y="57.3" class="d">echo &apos;Hello from a reversed diagonal gradient backg</text></symbol><symbol id="46"><text x="16" y="57.3" class="c">❯ </text><text x="35.2" y="57.3" class="d">echo &apos;Hello from a reversed diagonal gradient backgr</text></symbol><symbol id="47"><text x="16" y="57.3" class="c">❯ </text><text x="35.2" y="57.3" class="d">echo &apos;Hello from a reversed diagonal gradient backgro</text></symbol><symbol id="48"><text x="16" y="57.3" class="c">❯ </text><text x="35.2" y="57.3" class="d">echo &apos;Hello from a reversed diagonal gradient backgrou</text></symbol><symbol id="49"><text x="16" y="57.3" class="c">❯ </text><text x="35.2" y="57.3" class="d">echo &apos;Hello from a reversed diagonal gradient backgroun</text></symbol><symbol id="50"><text x="16" y="57.3" class="c">❯ </text><text x="35.2" y="57.3" class="d">echo &apos;Hello from a reversed diagonal gradient background</text></symbol><symbol id="51"><text x="16" y="57.3" class="c">❯ </text><text x="35.2" y="57.3" class="d">echo &apos;Hello from a reversed diagonal gradient background!</text></symbol><symbol id="52"><text x="16" y="57.3" class="c">❯ </text><text x="35.2" y="57.3" class="d">echo &apos;Hello from a reversed diagonal gradient background!&apos;</text></symbol><symbol id="53"><text x="16" y="79.7" class="d">Hello from a reversed diagonal gradient background!</text></symbol><symbol id="54"><text x="16" y="102.1" class="c">❯</text></symbol><symbol id="55"><text x="16" y="102.1" class="c">❯ </text><text x="35.2" y="102.1" class="d">T</text></symbol><symbol id="56"><text x="16" y="102.1" class="c">❯ </text><text x="35.2" y="102.1" class="d">Th</text></symbol><symbol id="57"><text x="16" y="102.1" class="c">❯ </text><text x="35.2" y="102.1" class="d">Thi</text></symbol><symbol id="58"><text x="16" y="102.1" class="c">❯ </text><text x="35.2" y="102.1" class="d">This</text></symbol><symbol id="59"><text x="16" y="102.1" class="c">❯ </text><text x="35.2" y="102.1" class="d">This l</text></symbol><symbol id="60"><text x="16" y="102.1" class="c">❯ </text><text x="35.2" y="102.1" class="d">This lo</text></symbol><symbol id="61"><text x="16" y="102.1" class="c">❯ </text><text x="35.2" y="102.1" class="d">This loo</text></symbol><symbol id="62"><text x="16" y="102.1" class="c">❯ </text><text x="35.2" y="102.1" class="d">This look</text></symbol><symbol id="63"><text x="16" y="102.1" class="c">❯ </text><text x="35.2" y="102.1" class="d">This looks</text></symbol><symbol id="64"><text x="16" y="102.1" class="c">❯ </text><text x="35.2" y="102.1" class="d">This looks p</text></symbol><symbol id="65"><text x="16" y="102.1" class="c">❯ </text><text x="35.2" y="102.1" class="d">This looks pr</text></symbol><symbol id="66"><text x="16" y="102.1" class="c">❯ </text><text x="35.2" y="102.1" class="d">This looks pre</text></symbol><symbol id="67"><text x="16" y="102.1" class="c">❯ </text><text x="35.2" y="102.1" class="d">This looks pret</text></symbol><symbol id="68"><text x="16" y="102.1" class="c">❯ </text><text x="35.2" y="102.1" class="d">This looks prett</text></symbol><symbol id="69"><text x="16" y="102.1" class="c">❯ </text><text x="35.2" y="102.1" class="d">This looks pretty</text></symbol><symbol id="70"><text x="16" y="102.1" class="c">❯ </text><text x="35.2" y="102.1" class="d">This looks pretty c</text></symbol><symbol id="71"><text x="16" y="102.1" class="c">❯ </text><text x="35.2" y="102.1" class="d">This looks pretty co</text></symbol><symbol id="72"><text x="16" y="102.1" class="c">❯ </text><text x="35.2" y="102.1" class="d">This looks pretty coo</text></symbol><symbol id="73"><text x="16" y="102.1" class="c">❯ </text><text x="35.2" y="102.1" class="d">This looks pretty cool</text></symbol></defs><style>@keyframes f{0.11%{transform:translateX(0px)}0.78%{transform:translateX(-618px)}1.44%{transform:translateX(-1236px)}2.07%{transform:translateX(-1854px)}2.72%{transform:translateX(-2472px)}3.37%{transform:translateX(-3090px)}4.02%{transform:translateX(-3708px)}4.67%{transform:translateX(-4326px)}5.31%{transform:translateX(-4944px)}5.96%{transform:translateX(-5562px)}6.61%{transform:translateX(-6180px)}7.27%{transform:translateX(-6798px)}7.92%{transform:translateX(-7416px)}8.57%{transform:translateX(-8034px)}9.22%{transform:translateX(-8652px)}9.88%{transform:translateX(-9270px)}10.53%{transform:translateX(-9888px)}11.19%{transform:translateX(-10506px)}11.82%{transform:translateX(-11124px)}12.48%{transform:translateX(-11742px)}13.15%{transform:translateX(-12360px)}13.82%{transform:translateX(-12978px)}14.47%{transform:translateX(-13596px)}15.13%{transform:translateX(-14214px)}15.78%{transform:translateX(-14832px)}16.43%{transform:translateX(-15450px)}17.07%{transform:translateX(-16068px)}17.72%{transform:translateX(-16686px)}18.38%{transform:translateX(-17304px)}19.03%{transform:translateX(-17922px)}19.68%{transform:translateX(-18540px)}20.32%{transform:translateX(-19158px)}20.98%{transform:translateX(-19776px)}21.61%{transform:translateX(-20394px)}22.29%{transform:translateX(-21012px)}22.93%{transform:translateX(-21630px)}23.60%{transform:translateX(-22248px)}24.22%{transform:translateX(-22866px)}24.85%{transform:translateX(-23484px)}25.51%{transform:translateX(-24102px)}26.19%{transform:translateX(-24720px)}26.85%{transform:translateX(-25338px)}27.50%{transform:translateX(-25956px)}28.16%{transform:translateX(-26574px)}28.81%{transform:translateX(-27192px)}29.47%{transform:translateX(-27810px)}30.10%{transform:translateX(-28428px)}30.75%{transform:translateX(-29046px)}31.41%{transform:translateX(-29664px)}32.05%{transform:translateX(-30282px)}32.70%{transform:translateX(-30900px)}33.33%{transform:translateX(-31518px)}33.99%{transform:translateX(-32136px)}34.62%{transform:translateX(-32754px)}35.27%{transform:translateX(-33372px)}35.91%{transform:translateX(-33990px)}36.58%{transform:translateX(-34608px)}37.21%{transform:translateX(-35226px)}37.87%{transform:translateX(-35844px)}37.88%{transform:translateX(-36462px)}45.66%{transform:translateX(-37080px)}45.65%{transform:translateX(-37698px)}47.15%{transform:translateX(-38316px)}47.81%{transform:translateX(-38934px)}48.47%{transform:translateX(-39552px)}49.08%{transform:translateX(-40170px)}49.76%{transform:translateX(-40788px)}50.41%{transform:translateX(-41406px)}51.09%{transform:translateX(-42024px)}51.74%{transform:translateX(-42642px)}52.42%{transform:translateX(-43260px)}53.06%{transform:translateX(-43878px)}53.72%{transform:translateX(-44496px)}54.40%{transform:translateX(-45114px)}55.07%{transform:translateX(-45732px)}55.68%{transform:translateX(-46350px)}56.34%{transform:translateX(-46968px)}56.98%{transform:translateX(-47586px)}57.60%{transform:translateX(-48204px)}58.26%{transform:translateX(-48822px)}58.91%{transform:translateX(-49440px)}59.55%{transform:translateX(-50058px)}60.20%{transform:translateX(-50676px)}60.83%{transform:translateX(-51294px)}61.48%{transform:translateX(-51912px)}61.49%{transform:translateX(-52530px)}}.a{fill:url(#bg-gradient)}.c{fill:#ff92df;stroke:#ff92df}.d{fill:#f8f8f2;stroke:#f8f8f2}path[fill="none"]{fill:none}path[shape-rendering="crispEdges"]{stroke:none}text{font-family:'SF Mono',Monaco,Consolas,Menlo,monospace;font-size:16px;dominant-baseline:text-before-edge;white-space:pre;}text[class]{stroke:none}.bold{font-weight:700}.italic{font-style:italic}.uline{text-decoration:underline}.strike{text-decoration:line-through}.dim{opacity:0.5}@keyframes blink{0%,50%{opacity:1}50.01%,100%{opacity:0}}.cursor{animation:blink 1s step-end infinite;mix-blend-mode:difference}.cursor-active{opacity:1;mix-blend-mode:difference}</style><rect width="658" height="188" rx="12" fill="url(#bg-gradient)"/><g transform="translate(20,20)"><rect width="618" height="148" rx="8" fill="#282a36"/><rect width="618" height="40" rx="8" fill="#282a36"/><path d="M0 32h618v8H0z" fill="#282a36"/><circle cx="16" cy="20" r="6" fill="#ff5f56"/><circle cx="36" cy="20" r="6" fill="#ffbd2e"/><circle cx="56" cy="20" r="6" fill="#27c93f"/><clipPath id="content-clip"><path d="M0 40h618v108H0z" /></clipPath><g clip-path="url(#content-clip)"><g style="animation:f 7.866s steps(1,end) infinite"><g transform="translate(0,0)"><use xlink:href="#1"/><path d="M35.2 56h9.6v22.4H35.2z" fill="#f8f8f2" class="cursor"/></g><g transform="translate(618,0)"><use xlink:href="#2"/><path d="M44.8 56h9.6v22.4H44.8z" fill="#f8f8f2" class="cursor-active"/></g><g transform="translate(1236,0)"><use xlink:href="#3"/><path d="M54.4 56h9.6v22.4H54.4z" fill="#f8f8f2" class="cursor-active"/></g><g transform="translate(1854,0)"><use xlink:href="#4"/><path d="M64 56h9.6v22.4H64z" fill="#f8f8f2" class="cursor-active"/></g><g transform="translate(2472,0)"><use xlink:href="#5"/><path d="M73.6 56h9.6v22.4H73.6z" fill="#f8f8f2" class="cursor-active"/></g><g transform="translate(3090,0)"><use xlink:href="#5"/><path d="M83.2 56h9.6v22.4H83.2z" fill="#f8f8f2" class="cursor-active"/></g><g transform="translate(3708,0)"><use xlink:href="#6"/><path d="M92.8 56h9.6v22.4H92.8z" fill="#f8f8f2" class="cursor-active"/></g><g transform="translate(4326,0)"><use xlink:href="#7"/><path d="M102.4 56h9.6v22.4H102.4z" fill="#f8f8f2" class="cursor-active"/></g><g transform="translate(4944,0)"><use xlink:href="#8"/><path d="M112 56h9.6v22.4H112z" fill="#f8f8f2" class="cursor-active"/></g><g transform="translate(5562,0)"><use xlink:href="#9"/><path d="M121.6 56h9.6v22.4H121.6z" fill="#f8f8f2" class="cursor-active"/></g><g transform="translate(6180,0)"><use xlink:href="#10"/><path d="M131.2 56h9.6v22.4H131.2z" fill="#f8f8f2" class="cursor-active"/></g><g transform="translate(6798,0)"><use xlink:href="#11"/><path d="M140.8 56h9.6v22.4H140.8z" fill="#f8f8f2" class="cursor-active"/></g><g transform="translate(7416,0)"><use xlink:href="#11"/><path d="M150.4 56h9.6v22.4H150.4z" fill="#f8f8f2" class="cursor-active"/></g><g transform="translate(8034,0)"><use xlink:href="#12"/><path d="M160 56h9.6v22.4H160z" fill="#f8f8f2" class="cursor-active"/></g><g transform="translate(8652,0)"><use xlink:href="#13"/><path d="M169.6 56h9.6v22.4H169.6z" fill="#f8f8f2" class="cursor-active"/></g><g transform="translate(9270,0)"><use xlink:href="#14"/><path d="M179.2 56h9.6v22.4H179.2z" fill="#f8f8f2" class="cursor-active"/></g><g transform="translate(9888,0)"><use xlink:href="#15"/><path d="M188.8 56h9.6v22.4H188.8z" fill="#f8f8f2" class="cursor-active"/></g><g transform="translate(10506,0)"><use xlink:href="#15"/><path d="M198.4 56h9.6v22.4H198.4z" fill="#f8f8f2" class="cursor-active"/></g><g transform="translate(11124,0)"><use xlink:href="#16"/><path d="M208 56h9.6v22.4H208z" fill="#f8f8f2" class="cursor-active"/></g><g transform="translate(11742,0)"><use xlink:href="#16"/><path d="M217.6 56h9.6v22.4H217.6z" fill="#f8f8f2" class="cursor-active"/></g><g transform="translate(12360,0)"><use xlink:href="#17"/><path d="M227.2 56h9.6v22.4H227.2z" fill="#f8f8f2" class="cursor-active"/></g><g transform="translate(12978,0)"><use xlink:href="#18"/><path d="M236.8 56h9.6v22.4H236.8z" fill="#f8f8f2" class="cursor-active"/></g><g transform="translate(13596,0)"><use xlink:href="#19"/><path d="M246.4 56h9.6v22.4H246.4z" fill="#f8f8f2" class="cursor-active"/></g><g transform="translate(14214,0)"><use xlink:href="#20"/><path d="M256 56h9.6v22.4H256z" fill="#f8f8f2" class="cursor-active"/></g><g transform="translate(14832,0)"><use xlink:href="#21"/><path d="M265.6 56h9.6v22.4H265.6z" fill="#f8f8f2" class="cursor-active"/></g><g transform="translate(15450,0)"><use xlink:href="#22"/><path d="M275.2 56h9.6v22.4H275.2z" fill="#f8f8f2" class="cursor-active"/></g><g transform="translate(16068,0)"><use xlink:href="#23"/><path d="M284.8 56h9.6v22.4H284.8z" fill="#f8f8f2" class="cursor-active"/></g><g transform="translate(16686,0)"><use xlink:href="#24"/><path d="M294.4 56h9.6v22.4H294.4z" fill="#f8f8f2" class="cursor-active"/></g><g transform="translate(17304,0)"><use xlink:href="#24"/><path d="M304 56h9.6v22.4H304z" fill="#f8f8f2" class="cursor-active"/></g><g transform="translate(17922,0)"><use xlink:href="#25"/><path d="M313.6 56h9.6v22.4H313.6z" fill="#f8f8f2" class="cursor-active"/></g><g transform="translate(18540,0)"><use xlink:href="#26"/><path d="M323.2 56h9.6v22.4H323.2z" fill="#f8f8f2" class="cursor-active"/></g><g transform="translate(19158,0)"><use xlink:href="#27"/><path d="M332.8 56h9.6v22.4H332.8z" fill="#f8f8f2" class="cursor-active"/></g><g transform="translate(19776,0)"><use xlink:href="#28"/><path d="M342.4 56h9.6v22.4H342.4z" fill="#f8f8f2" class="cursor-active"/></g><g transform="translate(20394,0)"><use xlink:href="#29"/><path d="M352 56h9.6v22.4H352z" fill="#f8f8f2" class="cursor-active"/></g><g transform="translate(21012,0)"><use xlink:href="#30"/><path d="M361.6 56h9.6v22.4H361.6z" fill="#f8f8f2" class="cursor-active"/></g><g transform="translate(21630,0)"><use xlink:href="#31"/><path d="M371.2 56h9.6v22.4H371.2z" fill="#f8f8f2" class="cursor-active"/></g><g transform="translate(22248,0)"><use xlink:href="#32"/><path d="M380.8 56h9.6v22.4H380.8z" fill="#f8f8f2" class="cursor-active"/></g><g transform="translate(22866,0)"><use xlink:href="#32"/><path d="M390.4 56h9.6v22.4H390.4z" fill="#f8f8f2" class="cursor-active"/></g><g transform="translate(23484,0)"><use xlink:href="#33"/><path d="M400 56h9.6v22.4H400z" fill="#f8f8f2" class="cursor-active"/></g><g transform="translate(24102,0)"><use xlink:href="#34"/><path d="M409.6 56h9.6v22.4H409.6z" fill="#f8f8f2" class="cursor-active"/></g><g transform="translate(24720,0)"><use xlink:href="#35"/><path d="M419.2 56h9.6v22.4H419.2z" fill="#f8f8f2" class="cursor-active"/></g><g transform="translate(25338,0)"><use xlink:href="#36"/><path d="M428.8 56h9.6v22.4H428.8z" fill="#f8f8f2" class="cursor-active"/></g><g transform="translate(25956,0)"><use xlink:href="#37"/><path d="M438.4 56h9.6v22.4H438.4z" fill="#f8f8f2" class="cursor-active"/></g><g transform="translate(26574,0)"><use xlink:href="#38"/><path d="M448 56h9.6v22.4H448z" fill="#f8f8f2" class="cursor-active"/></g><g transform="translate(27192,0)"><use xlink:href="#39"/><path d="M457.6 56h9.6v22.4H457.6z" fill="#f8f8f2" class="cursor-active"/></g><g transform="translate(27810,0)"><use xlink:href="#40"/><path d="M467.2 56h9.6v22.4H467.2z" fill="#f8f8f2" class="cursor-active"/></g><g transform="translate(28428,0)"><use xlink:href="#40"/><path d="M476.8 56h9.6v22.4H476.8z" fill="#f8f8f2" class="cursor-active"/></g><g transform="translate(29046,0)"><use xlink:href="#41"/><path d="M486.4 56h9.6v22.4H486.4z" fill="#f8f8f2" class="cursor-active"/></g><g transform="translate(29664,0)"><use xlink:href="#42"/><path d="M496 56h9.6v22.4H496z" fill="#f8f8f2" class="cursor-active"/></g><g transform="translate(30282,0)"><use xlink:href="#43"/><path d="M505.6 56h9.6v22.4H505.6z" fill="#f8f8f2" class="cursor-active"/></g><g transform="translate(30900,0)"><use xlink:href="#44"/><path d="M515.2 56h9.6v22.4H515.2z" fill="#f8f8f2" class="cursor-active"/></g><g transform="translate(31518,0)"><use xlink:href="#45"/><path d="M524.8 56h9.6v22.4H524.8z" fill="#f8f8f2" class="cursor-active"/></g><g transform="translate(32136,0)"><use xlink:href="#46"/><path d="M534.4 56h9.6v22.4H534.4z" fill="#f8f8f2" class="cursor-active"/></g><g transform="translate(32754,0)"><use xlink:href="#47"/><path d="M544 56h9.6v22.4H544z" fill="#f8f8f2" class="cursor-active"/></g><g transform="translate(33372,0)"><use xlink:href="#48"/><path d="M553.6 56h9.6v22.4H553.6z" fill="#f8f8f2" class="cursor-active"/></g><g transform="translate(33990,0)"><use xlink:href="#49"/><path d="M563.2 56h9.6v22.4H563.2z" fill="#f8f8f2" class="cursor-active"/></g><g transform="translate(34608,0)"><use xlink:href="#50"/><path d="M572.8 56h9.6v22.4H572.8z" fill="#f8f8f2" class="cursor-active"/></g><g transform="translate(35226,0)"><use xlink:href="#51"/><path d="M582.4 56h9.6v22.4H582.4z" fill="#f8f8f2" class="cursor-active"/></g><g transform="translate(35844,0)"><use xlink:href="#52"/><path d="M592 56h9.6v22.4H592z" fill="#f8f8f2" class="cursor-active"/></g><g transform="translate(36462,0)"><use xlink:href="#52"/><path d="M592 56h9.6v22.4H592z" fill="#f8f8f2" class="cursor"/></g><g transform="translate(37080,0)"><use xlink:href="#52"/></g><g transform="translate(37698,0)"><use xlink:href="#52"/><use xlink:href="#53"/></g><g transform="translate(38316,0)"><use xlink:href="#52"/><use xlink:href="#53"/><use xlink:href="#54"/><path d="M35.2 100.8h9.6v22.4H35.2z" fill="#f8f8f2" class="cursor"/></g><g transform="translate(38934,0)"><use xlink:href="#52"/><use xlink:href="#53"/><use xlink:href="#55"/><path d="M44.8 100.8h9.6v22.4H44.8z" fill="#f8f8f2" class="cursor-active"/></g><g transform="translate(39552,0)"><use xlink:href="#52"/><use xlink:href="#53"/><use xlink:href="#56"/><path d="M54.4 100.8h9.6v22.4H54.4z" fill="#f8f8f2" class="cursor-active"/></g><g transform="translate(40170,0)"><use xlink:href="#52"/><use xlink:href="#53"/><use xlink:href="#57"/><path d="M64 100.8h9.6v22.4H64z" fill="#f8f8f2" class="cursor-active"/></g><g transform="translate(40788,0)"><use xlink:href="#52"/><use xlink:href="#53"/><use xlink:href="#58"/><path d="M73.6 100.8h9.6v22.4H73.6z" fill="#f8f8f2" class="cursor-active"/></g><g transform="translate(41406,0)"><use xlink:href="#52"/><use xlink:href="#53"/><use xlink:href="#58"/><path d="M83.2 100.8h9.6v22.4H83.2z" fill="#f8f8f2" class="cursor-active"/></g><g transform="translate(42024,0)"><use xlink:href="#52"/><use xlink:href="#53"/><use xlink:href="#59"/><path d="M92.8 100.8h9.6v22.4H92.8z" fill="#f8f8f2" class="cursor-active"/></g><g transform="translate(42642,0)"><use xlink:href="#52"/><use xlink:href="#53"/><use xlink:href="#60"/><path d="M102.4 100.8h9.6v22.4H102.4z" fill="#f8f8f2" class="cursor-active"/></g><g transform="translate(43260,0)"><use xlink:href="#52"/><use xlink:href="#53"/><use xlink:href="#61"/><path d="M112 100.8h9.6v22.4H112z" fill="#f8f8f2" class="cursor-active"/></g><g transform="translate(43878,0)"><use xlink:href="#52"/><use xlink:href="#53"/><use xlink:href="#62"/><path d="M121.6 100.8h9.6v22.4H121.6z" fill="#f8f8f2" class="cursor-active"/></g><g transform="translate(44496,0)"><use xlink:href="#52"/><use xlink:href="#53"/><use xlink:href="#63"/><path d="M131.2 100.8h9.6v22.4H131.2z" fill="#f8f8f2" class="cursor-active"/></g><g transform="translate(45114,0)"><use xlink:href="#52"/><use xlink:href="#53"/><use xlink:href="#63"/><path d="M140.8 100.8h9.6v22.4H140.8z" fill="#f8f8f2" class="cursor-active"/></g><g transform="translate(45732,0)"><use xlink:href="#52"/><use xlink:href="#53"/><use xlink:href="#64"/><path d="M150.4 100.8h9.6v22.4H150.4z" fill="#f8f8f2" class="cursor-active"/></g><g transform="translate(46350,0)"><use xlink:href="#52"/><use xlink:href="#53"/><use xlink:href="#65"/><path d="M160 100.8h9.6v22.4H160z" fill="#f8f8f2" class="cursor-active"/></g><g transform="translate(46968,0)"><use xlink:href="#52"/><use xlink:href="#53"/><use xlink:href="#66"/><path d="M169.6 100.8h9.6v22.4H169.6z" fill="#f8f8f2" class="cursor-active"/></g><g transform="translate(47586,0)"><use xlink:href="#52"/><use xlink:href="#53"/><use xlink:href="#67"/><path d="M179.2 100.8h9.6v22.4H179.2z" fill="#f8f8f2" class="cursor-active"/></g><g transform="translate(48204,0)"><use xlink:href="#52"/><use xlink:href="#53"/><use xlink:href="#68"/><path d="M188.8 100.8h9.6v22.4H188.8z" fill="#f8f8f2" class="cursor-active"/></g><g transform="translate(48822,0)"><use xlink:href="#52"/><use xlink:href="#53"/><use xlink:href="#69"/><path d="M198.4 100.8h9.6v22.4H198.4z" fill="#f8f8f2" class="cursor-active"/></g><g transform="translate(49440,0)"><use xlink:href="#52"/><use xlink:href="#53"/><use xlink:href="#69"/><path d="M208 100.8h9.6v22.4H208z" fill="#f8f8f2" class="cursor-active"/></g><g transform="translate(50058,0)"><use xlink:href="#52"/><use xlink:href="#53"/><use xlink:href="#70"/><path d="M217.6 100.8h9.6v22.4H217.6z" fill="#f8f8f2" class="cursor-active"/></g><g transform="translate(50676,0)"><use xlink:href="#52"/><use xlink:href="#53"/><use xlink:href="#71"/><path d="M227.2 100.8h9.6v22.4H227.2z" fill="#f8f8f2" class="cursor-active"/></g><g transform="translate(51294,0)"><use xlink:href="#52"/><use xlink:href="#53"/><use xlink:href="#72"/><path d="M236.8 100.8h9.6v22.4H236.8z" fill="#f8f8f2" class="cursor-active"/></g><g transform="translate(51912,0)"><use xlink:href="#52"/><use xlink:href="#53"/><use xlink:href="#73"/><path d="M246.4 100.8h9.6v22.4H246.4z" fill="#f8f8f2" class="cursor-active"/></g><g transform="translate(52530,0)"><use xlink:href="#52"/><use xlink:href="#53"/><use xlink:href="#73"/><path d="M246.4 100.8h9.6v22.4H246.4z" fill="#f8f8f2" class="cursor"/></g></g></g></g></svg>