<svg xmlns="http://www.w3.org/2000/svg" xmlns:xlink="http://www.w3.org/1999/xlink" width="380" height="198" viewBox="0 0 380 198"><defs><linearGradient id="bg-gradient" x1="0%" y1="0%" x2="100%" y2="0%"><stop offset="0%" stop-color="#ff1b6b"/><stop offset="100%" stop-color="#45caff"/></linearGradient><symbol id="1"><text x="16" y="57.3" class="c">❯</text></symbol><symbol id="2"><text x="16" y="57.3" class="c">❯ </text><text x="35.2" y="57.3" class="d">e</text></symbol><symbol id="3"><text x="16" y="57.3" class="c">❯ </text><text x="35.2" y="57.3" class="d">ec</text></symbol><symbol id="4"><text x="16" y="57.3" class="c">❯ </text><text x="35.2" y="57.3" class="d">ech</text></symbol><symbol id="5"><text x="16" y="57.3" class="c">❯ </text><text x="35.2" y="57.3" class="d">echo</text></symbol><symbol id="6"><text x="16" y="57.3" class="c">❯ </text><text x="35.2" y="57.3" class="d">echo &apos;</text></symbol><symbol id="7"><text x="16" y="57.3" class="c">❯ </text><text x="35.2" y="57.3" class="d">echo &apos;H</text></symbol><symbol id="8"><text x="16" y="57.3" class="c">❯ </text><text x="35.2" y="57.3" class="d">echo &apos;Ho</text></symbol><symbol id="9"><text x="16" y="57.3" class="c">❯ </text><text x="35.2" y="57.3" class="d">echo &apos;Hor</text></symbol><symbol id="10"><text x="16" y="57.3" class="c">❯ </text><text x="35.2" y="57.3" class="d">echo &apos;Hori</text></symbol><symbol id="11"><text x="16" y="57.3" class="c">❯ </text><text x="35.2" y="57.3" class="d">echo &apos;Horiz</text></symbol><symbol id="12"><text x="16" y="57.3" class="c">❯ </text><text x="35.2" y="57.3" class="d">echo &apos;Horizo</text></symbol><symbol id="13"><text x="16" y="57.3" class="c">❯ </text><text x="35.2" y="57.3" class="d">echo &apos;Horizon</text></symbol><symbol id="14"><text x="16" y="57.3" class="c">❯ </text><text x="35.2" y="57.3" class="d">echo &apos;Horizont</text></symbol><symbol id="15"><text x="16" y="57.3" class="c">❯ </text><text x="35.2" y="57.3" class="d">echo &apos;Horizonta</text></symbol><symbol id="16"><text x="16" y="57.3" class="c">❯ </text><text x="35.2" y="57.3" class="d">echo &apos;Horizontal</text></symbol><symbol id="17"><text x="16" y="57.3" class="c">❯ </text><text x="35.2" y="57.3" class="d">echo &apos;Horizontal g</text></symbol><symbol id="18"><text x="16" y="57.3" class="c">❯ </text><text x="35.2" y="57.3" class="d">echo &apos;Horizontal gr</text></symbol><symbol id="19"><text x="16" y="57.3" class="c">❯ </text><text x="35.2" y="57.3" class="d">echo &apos;Horizontal gra</text></symbol><symbol id="20"><text x="16" y="57.3" class="c">❯ </text><text x="35.2" y="57.3" class="d">echo &apos;Horizontal grad</text></symbol><symbol id="21"><text x="16" y="57.3" class="c">❯ </text><text x="35.2" y="57.3" class="d">echo &apos;Horizontal gradi</text></symbol><symbol id="22"><text x="16" y="57.3" class="c">❯ </text><text x="35.2" y="57.3" class="d">echo &apos;Horizontal gradie</text></symbol><symbol id="23"><text x="16" y="57.3" class="c">❯ </text><text x="35.2" y="57.3" class="d">echo &apos;Horizontal gradien</text></symbol><symbol id="24"><text x="16" y="57.3" class="c">❯ </text><text x="35.2" y="57.3" class="d">echo &apos;Horizontal gradient</text></symbol><symbol id="25"><text x="16" y="57.3" class="c">❯ </text><text x="35.2" y="57.3" class="d">echo &apos;Horizontal gradient!</text></symbol><symbol id="26"><text x="16" y="57.3" class="c">❯ </text><text x="35.2" y="57.3" class="d">echo &apos;Horizontal gradient!&apos;</text></symbol><symbol id="27"><text x="16" y="79.7" class="d">Horizontal gradient!</text></symbol><symbol id="28"><text x="16" y="102.1" class="c">❯</text></symbol><symbol id="29"><text x="16" y="102.1" class="c">❯ </text><text x="35.2" y="102.1" class="d">T</text></symbol><symbol id="30"><text x="16" y="102.1" class="c">❯ </text><text x="35.2" y="102.1" class="d">Th</text></symbol><symbol id="31"><text x="16" y="102.1" class="c">❯ </text><text x="35.2" y="102.1" class="d">Thr</text></symbol><symbol id="32"><text x="16" y="102.1" class="c">❯ </text><text x="35.2" y="102.1" class="d">Thre</text></symbol><symbol id="33"><text x="16" y="102.1" class="c">❯ </text><text x="35.2" y="102.1" class="d">Three</text></symbol><symbol id="34"><text x="16" y="102.1" class="c">❯ </text><text x="35.2" y="102.1" class="d">Three c</text></symbol><symbol id="35"><text x="16" y="102.1" class="c">❯ </text><text x="35.2" y="102.1" class="d">Three co</text></symbol><symbol id="36"><text x="16" y="102.1" class="c">❯ </text><text x="35.2" y="102.1" class="d">Three col</text></symbol><symbol id="37"><text x="16" y="102.1" class="c">❯ </text><text x="35.2" y="102.1" class="d">Three colo</text></symbol><symbol id="38"><text x="16" y="102.1" class="c">❯ </text><text x="35.2" y="102.1" class="d">Three color</text></symbol><symbol id="39"><text x="16" y="102.1" class="c">❯ </text><text x="35.2" y="102.1" class="d">Three colors</text></symbol><symbol id="40"><text x="16" y="102.1" class="c">❯ </text><text x="35.2" y="102.1" class="d">Three colors:</text></symbol><symbol id="41"><text x="16" y="102.1" class="c">❯ </text><text x="35.2" y="102.1" class="d">Three colors: p</text></symbol><symbol id="42"><text x="16" y="102.1" class="c">❯ </text><text x="35.2" y="102.1" class="d">Three colors: pu</text></symbol><symbol id="43"><text x="16" y="102.1" class="c">❯ </text><text x="35.2" y="102.1" class="d">Three colors: pur</text></symbol><symbol id="44"><text x="16" y="102.1" class="c">❯ </text><text x="35.2" y="102.1" class="d">Three colors: purp</text></symbol><symbol id="45"><text x="16" y="102.1" class="c">❯ </text><text x="35.2" y="102.1" class="d">Three colors: purpl</text></symbol><symbol id="46"><text x="16" y="102.1" class="c">❯ </text><text x="35.2" y="102.1" class="d">Three colors: purple</text></symbol><symbol id="47"><text x="16" y="102.1" class="c">❯ </text><text x="35.2" y="102.1" class="d">Three colors: purple t</text></symbol><symbol id="48"><text x="16" y="102.1" class="c">❯ </text><text x="35.2" y="102.1" class="d">Three colors: purple to</text></symbol><symbol id="49"><text x="16" y="102.1" class="c">❯ </text><text x="35.2" y="102.1" class="d">Three colors: purple to p</text></symbol><symbol id="50"><text x="16" y="102.1" class="c">❯ </text><text x="35.2" y="102.1" class="d">Three colors: purple to pi</text></symbol><symbol id="51"><text x="16" y="102.1" class="c">❯ </text><text x="35.2" y="102.1" class="d">Three colors: purple to pin</text></symbol><symbol id="52"><text x="16" y="102.1" class="c">❯ </text><text x="35.2" y="102.1" class="d">Three colors: purple to pink</text></symbol></defs><style>@keyframes f{0.14%{transform:translateX(0px)}0.92%{transform:translateX(-330px)}1.70%{transform:translateX(-660px)}2.48%{transform:translateX(-990px)}3.26%{transform:translateX(-1320px)}4.05%{transform:translateX(-1650px)}4.84%{transform:translateX(-1980px)}5.62%{transform:translateX(-2310px)}6.42%{transform:translateX(-2640px)}7.17%{transform:translateX(-2970px)}7.98%{transform:translateX(-3300px)}8.74%{transform:translateX(-3630px)}9.52%{transform:translateX(-3960px)}10.30%{transform:translateX(-4290px)}11.08%{transform:translateX(-4620px)}11.86%{transform:translateX(-4950px)}12.64%{transform:translateX(-5280px)}13.43%{transform:translateX(-5610px)}14.21%{transform:translateX(-5940px)}14.96%{transform:translateX(-6270px)}15.74%{transform:translateX(-6600px)}16.54%{transform:translateX(-6930px)}17.30%{transform:translateX(-7260px)}18.08%{transform:translateX(-7590px)}18.88%{transform:translateX(-7920px)}19.67%{transform:translateX(-8250px)}20.42%{transform:translateX(-8580px)}21.20%{transform:translateX(-8910px)}21.21%{transform:translateX(-9240px)}30.48%{transform:translateX(-9570px)}30.55%{transform:translateX(-9900px)}32.17%{transform:translateX(-10230px)}32.97%{transform:translateX(-10560px)}33.76%{transform:translateX(-10890px)}34.60%{transform:translateX(-11220px)}35.34%{transform:translateX(-11550px)}36.15%{transform:translateX(-11880px)}36.89%{transform:translateX(-12210px)}37.66%{transform:translateX(-12540px)}38.45%{transform:translateX(-12870px)}39.25%{transform:translateX(-13200px)}40.01%{transform:translateX(-13530px)}40.78%{transform:translateX(-13860px)}41.54%{transform:translateX(-14190px)}42.35%{transform:translateX(-14520px)}43.10%{transform:translateX(-14850px)}43.88%{transform:translateX(-15180px)}44.69%{transform:translateX(-15510px)}45.47%{transform:translateX(-15840px)}46.25%{transform:translateX(-16170px)}47.07%{transform:translateX(-16500px)}47.88%{transform:translateX(-16830px)}48.63%{transform:translateX(-17160px)}49.37%{transform:translateX(-17490px)}50.16%{transform:translateX(-17820px)}50.96%{transform:translateX(-18150px)}51.73%{transform:translateX(-18480px)}52.53%{transform:translateX(-18810px)}53.31%{transform:translateX(-19140px)}54.10%{transform:translateX(-19470px)}54.12%{transform:translateX(-19800px)}}.a{fill:url(#bg-gradient)}.c{fill:#ff92df;stroke:#ff92df}.d{fill:#f8f8f2;stroke:#f8f8f2}path[fill="none"]{fill:none}path[shape-rendering="crispEdges"]{stroke:none}text{font-family:'SF Mono',Monaco,Consolas,Menlo,monospace;font-size:16px;dominant-baseline:text-before-edge;white-space:pre}text[class]{stroke:none}.bold{font-weight:700}.italic{font-style:italic}.uline{text-decoration:underline}.strike{text-decoration:line-through}.dim{opacity:0.5}@keyframes blink{0%,50%{opacity:1}50.01%,100%{opacity:0}}.cursor{animation:blink 1s step-end infinite;mix-blend-mode:difference}.cursor-active{opacity:1;mix-blend-mode:difference}</style><rect width="380" height="198" rx="12" fill="url(#bg-gradient)"/><g transform="translate(25,25)"><rect width="330" height="148" rx="8" fill="#282a36"/><rect width="330" height="40" rx="8" fill="#282a36"/><path d="M0 32h330v8H0z" fill="#282a36"/><circle cx="16" cy="20" r="6" fill="#ff5f56"/><circle cx="36" cy="20" r="6" fill="#ffbd2e"/><circle cx="56" cy="20" r="6" fill="#27c93f"/><clipPath id="content-clip"><path d="M0 40h330v108H0z" /></clipPath><g clip-path="url(#content-clip)"><g style="animation:f 6.543s steps(1,end) infinite"><g transform="translate(0,0)"><use xlink:href="#1"/><path d="M35.2 56h9.6v22.4H35.2z" fill="#fff" class="cursor"/></g><g transform="translate(330,0)"><use xlink:href="#2"/><path d="M44.8 56h9.6v22.4H44.8z" fill="#fff" class="cursor-active"/></g><g transform="translate(660,0)"><use xlink:href="#3"/><path d="M54.4 56h9.6v22.4H54.4z" fill="#fff" class="cursor-active"/></g><g transform="translate(990,0)"><use xlink:href="#4"/><path d="M64 56h9.6v22.4H64z" fill="#fff" class="cursor-active"/></g><g transform="translate(1320,0)"><use xlink:href="#5"/><path d="M73.6 56h9.6v22.4H73.6z" fill="#fff" class="cursor-active"/></g><g transform="translate(1650,0)"><use xlink:href="#5"/><path d="M83.2 56h9.6v22.4H83.2z" fill="#fff" class="cursor-active"/></g><g transform="translate(1980,0)"><use xlink:href="#6"/><path d="M92.8 56h9.6v22.4H92.8z" fill="#fff" class="cursor-active"/></g><g transform="translate(2310,0)"><use xlink:href="#7"/><path d="M102.4 56h9.6v22.4H102.4z" fill="#fff" class="cursor-active"/></g><g transform="translate(2640,0)"><use xlink:href="#8"/><path d="M112 56h9.6v22.4H112z" fill="#fff" class="cursor-active"/></g><g transform="translate(2970,0)"><use xlink:href="#9"/><path d="M121.6 56h9.6v22.4H121.6z" fill="#fff" class="cursor-active"/></g><g transform="translate(3300,0)"><use xlink:href="#10"/><path d="M131.2 56h9.6v22.4H131.2z" fill="#fff" class="cursor-active"/></g><g transform="translate(3630,0)"><use xlink:href="#11"/><path d="M140.8 56h9.6v22.4H140.8z" fill="#fff" class="cursor-active"/></g><g transform="translate(3960,0)"><use xlink:href="#12"/><path d="M150.4 56h9.6v22.4H150.4z" fill="#fff" class="cursor-active"/></g><g transform="translate(4290,0)"><use xlink:href="#13"/><path d="M160 56h9.6v22.4H160z" fill="#fff" class="cursor-active"/></g><g transform="translate(4620,0)"><use xlink:href="#14"/><path d="M169.6 56h9.6v22.4H169.6z" fill="#fff" class="cursor-active"/></g><g transform="translate(4950,0)"><use xlink:href="#15"/><path d="M179.2 56h9.6v22.4H179.2z" fill="#fff" class="cursor-active"/></g><g transform="translate(5280,0)"><use xlink:href="#16"/><path d="M188.8 56h9.6v22.4H188.8z" fill="#fff" class="cursor-active"/></g><g transform="translate(5610,0)"><use xlink:href="#16"/><path d="M198.4 56h9.6v22.4H198.4z" fill="#fff" class="cursor-active"/></g><g transform="translate(5940,0)"><use xlink:href="#17"/><path d="M208 56h9.6v22.4H208z" fill="#fff" class="cursor-active"/></g><g transform="translate(6270,0)"><use xlink:href="#18"/><path d="M217.6 56h9.6v22.4H217.6z" fill="#fff" class="cursor-active"/></g><g transform="translate(6600,0)"><use xlink:href="#19"/><path d="M227.2 56h9.6v22.4H227.2z" fill="#fff" class="cursor-active"/></g><g transform="translate(6930,0)"><use xlink:href="#20"/><path d="M236.8 56h9.6v22.4H236.8z" fill="#fff" class="cursor-active"/></g><g transform="translate(7260,0)"><use xlink:href="#21"/><path d="M246.4 56h9.6v22.4H246.4z" fill="#fff" class="cursor-active"/></g><g transform="translate(7590,0)"><use xlink:href="#22"/><path d="M256 56h9.6v22.4H256z" fill="#fff" class="cursor-active"/></g><g transform="translate(7920,0)"><use xlink:href="#23"/><path d="M265.6 56h9.6v22.4H265.6z" fill="#fff" class="cursor-active"/></g><g transform="translate(8250,0)"><use xlink:href="#24"/><path d="M275.2 56h9.6v22.4H275.2z" fill="#fff" class="cursor-active"/></g><g transform="translate(8580,0)"><use xlink:href="#25"/><path d="M284.8 56h9.6v22.4H284.8z" fill="#fff" class="cursor-active"/></g><g transform="translate(8910,0)"><use xlink:href="#26"/><path d="M294.4 56h9.6v22.4H294.4z" fill="#fff" class="cursor-active"/></g><g transform="translate(9240,0)"><use xlink:href="#26"/><path d="M294.4 56h9.6v22.4H294.4z" fill="#fff" class="cursor"/></g><g transform="translate(9570,0)"><use xlink:href="#26"/></g><g transform="translate(9900,0)"><use xlink:href="#26"/><use xlink:href="#27"/></g><g transform="translate(10230,0)"><use xlink:href="#26"/><use xlink:href="#27"/><use xlink:href="#28"/><path d="M35.2 100.8h9.6v22.4H35.2z" fill="#fff" class="cursor"/></g><g transform="translate(10560,0)"><use xlink:href="#26"/><use xlink:href="#27"/><use xlink:href="#29"/><path d="M44.8 100.8h9.6v22.4H44.8z" fill="#fff" class="cursor-active"/></g><g transform="translate(10890,0)"><use xlink:href="#26"/><use xlink:href="#27"/><use xlink:href="#30"/><path d="M54.4 100.8h9.6v22.4H54.4z" fill="#fff" class="cursor-active"/></g><g transform="translate(11220,0)"><use xlink:href="#26"/><use xlink:href="#27"/><use xlink:href="#31"/><path d="M64 100.8h9.6v22.4H64z" fill="#fff" class="cursor-active"/></g><g transform="translate(11550,0)"><use xlink:href="#26"/><use xlink:href="#27"/><use xlink:href="#32"/><path d="M73.6 100.8h9.6v22.4H73.6z" fill="#fff" class="cursor-active"/></g><g transform="translate(11880,0)"><use xlink:href="#26"/><use xlink:href="#27"/><use xlink:href="#33"/><path d="M83.2 100.8h9.6v22.4H83.2z" fill="#fff" class="cursor-active"/></g><g transform="translate(12210,0)"><use xlink:href="#26"/><use xlink:href="#27"/><use xlink:href="#33"/><path d="M92.8 100.8h9.6v22.4H92.8z" fill="#fff" class="cursor-active"/></g><g transform="translate(12540,0)"><use xlink:href="#26"/><use xlink:href="#27"/><use xlink:href="#34"/><path d="M102.4 100.8h9.6v22.4H102.4z" fill="#fff" class="cursor-active"/></g><g transform="translate(12870,0)"><use xlink:href="#26"/><use xlink:href="#27"/><use xlink:href="#35"/><path d="M112 100.8h9.6v22.4H112z" fill="#fff" class="cursor-active"/></g><g transform="translate(13200,0)"><use xlink:href="#26"/><use xlink:href="#27"/><use xlink:href="#36"/><path d="M121.6 100.8h9.6v22.4H121.6z" fill="#fff" class="cursor-active"/></g><g transform="translate(13530,0)"><use xlink:href="#26"/><use xlink:href="#27"/><use xlink:href="#37"/><path d="M131.2 100.8h9.6v22.4H131.2z" fill="#fff" class="cursor-active"/></g><g transform="translate(13860,0)"><use xlink:href="#26"/><use xlink:href="#27"/><use xlink:href="#38"/><path d="M140.8 100.8h9.6v22.4H140.8z" fill="#fff" class="cursor-active"/></g><g transform="translate(14190,0)"><use xlink:href="#26"/><use xlink:href="#27"/><use xlink:href="#39"/><path d="M150.4 100.8h9.6v22.4H150.4z" fill="#fff" class="cursor-active"/></g><g transform="translate(14520,0)"><use xlink:href="#26"/><use xlink:href="#27"/><use xlink:href="#40"/><path d="M160 100.8h9.6v22.4H160z" fill="#fff" class="cursor-active"/></g><g transform="translate(14850,0)"><use xlink:href="#26"/><use xlink:href="#27"/><use xlink:href="#40"/><path d="M169.6 100.8h9.6v22.4H169.6z" fill="#fff" class="cursor-active"/></g><g transform="translate(15180,0)"><use xlink:href="#26"/><use xlink:href="#27"/><use xlink:href="#41"/><path d="M179.2 100.8h9.6v22.4H179.2z" fill="#fff" class="cursor-active"/></g><g transform="translate(15510,0)"><use xlink:href="#26"/><use xlink:href="#27"/><use xlink:href="#42"/><path d="M188.8 100.8h9.6v22.4H188.8z" fill="#fff" class="cursor-active"/></g><g transform="translate(15840,0)"><use xlink:href="#26"/><use xlink:href="#27"/><use xlink:href="#43"/><path d="M198.4 100.8h9.6v22.4H198.4z" fill="#fff" class="cursor-active"/></g><g transform="translate(16170,0)"><use xlink:href="#26"/><use xlink:href="#27"/><use xlink:href="#44"/><path d="M208 100.8h9.6v22.4H208z" fill="#fff" class="cursor-active"/></g><g transform="translate(16500,0)"><use xlink:href="#26"/><use xlink:href="#27"/><use xlink:href="#45"/><path d="M217.6 100.8h9.6v22.4H217.6z" fill="#fff" class="cursor-active"/></g><g transform="translate(16830,0)"><use xlink:href="#26"/><use xlink:href="#27"/><use xlink:href="#46"/><path d="M227.2 100.8h9.6v22.4H227.2z" fill="#fff" class="cursor-active"/></g><g transform="translate(17160,0)"><use xlink:href="#26"/><use xlink:href="#27"/><use xlink:href="#46"/><path d="M236.8 100.8h9.6v22.4H236.8z" fill="#fff" class="cursor-active"/></g><g transform="translate(17490,0)"><use xlink:href="#26"/><use xlink:href="#27"/><use xlink:href="#47"/><path d="M246.4 100.8h9.6v22.4H246.4z" fill="#fff" class="cursor-active"/></g><g transform="translate(17820,0)"><use xlink:href="#26"/><use xlink:href="#27"/><use xlink:href="#48"/><path d="M256 100.8h9.6v22.4H256z" fill="#fff" class="cursor-active"/></g><g transform="translate(18150,0)"><use xlink:href="#26"/><use xlink:href="#27"/><use xlink:href="#48"/><path d="M265.6 100.8h9.6v22.4H265.6z" fill="#fff" class="cursor-active"/></g><g transform="translate(18480,0)"><use xlink:href="#26"/><use xlink:href="#27"/><use xlink:href="#49"/><path d="M275.2 100.8h9.6v22.4H275.2z" fill="#fff" class="cursor-active"/></g><g transform="translate(18810,0)"><use xlink:href="#26"/><use xlink:href="#27"/><use xlink:href="#50"/><path d="M284.8 100.8h9.6v22.4H284.8z" fill="#fff" class="cursor-active"/></g><g transform="translate(19140,0)"><use xlink:href="#26"/><use xlink:href="#27"/><use xlink:href="#51"/><path d="M294.4 100.8h9.6v22.4H294.4z" fill="#fff" class="cursor-active"/></g><g transform="translate(19470,0)"><use xlink:href="#26"/><use xlink:href="#27"/><use xlink:href="#52"/><path d="M304 100.8h9.6v22.4H304z" fill="#fff" class="cursor-active"/></g><g transform="translate(19800,0)"><use xlink:href="#26"/><use xlink:href="#27"/><use xlink:href="#52"/><path d="M304 100.8h9.6v22.4H304z" fill="#fff" class="cursor"/></g></g></g></g></svg>