<svg xmlns="http://www.w3.org/2000/svg" xmlns:xlink="http://www.w3.org/1999/xlink" width="428" height="208" viewBox="0 0 428 208"><defs><symbol id="1"><text x="16" y="57.3" class="c">❯</text></symbol><symbol id="2"><text x="16" y="57.3" class="c">❯ </text><text x="35.2" y="57.3" class="d">e</text></symbol><symbol id="3"><text x="16" y="57.3" class="c">❯ </text><text x="35.2" y="57.3" class="d">ec</text></symbol><symbol id="4"><text x="16" y="57.3" class="c">❯ </text><text x="35.2" y="57.3" class="d">ech</text></symbol><symbol id="5"><text x="16" y="57.3" class="c">❯ </text><text x="35.2" y="57.3" class="d">echo</text></symbol><symbol id="6"><text x="16" y="57.3" class="c">❯ </text><text x="35.2" y="57.3" class="d">echo &apos;</text></symbol><symbol id="7"><text x="16" y="57.3" class="c">❯ </text><text x="35.2" y="57.3" class="d">echo &apos;S</text></symbol><symbol id="8"><text x="16" y="57.3" class="c">❯ </text><text x="35.2" y="57.3" class="d">echo &apos;So</text></symbol><symbol id="9"><text x="16" y="57.3" class="c">❯ </text><text x="35.2" y="57.3" class="d">echo &apos;Sol</text></symbol><symbol id="10"><text x="16" y="57.3" class="c">❯ </text><text x="35.2" y="57.3" class="d">echo &apos;Soli</text></symbol><symbol id="11"><text x="16" y="57.3" class="c">❯ </text><text x="35.2" y="57.3" class="d">echo &apos;Solid</text></symbol><symbol id="12"><text x="16" y="57.3" class="c">❯ </text><text x="35.2" y="57.3" class="d">echo &apos;Solid c</text></symbol><symbol id="13"><text x="16" y="57.3" class="c">❯ </text><text x="35.2" y="57.3" class="d">echo &apos;Solid co</text></symbol><symbol id="14"><text x="16" y="57.3" class="c">❯ </text><text x="35.2" y="57.3" class="d">echo &apos;Solid col</text></symbol><symbol id="15"><text x="16" y="57.3" class="c">❯ </text><text x="35.2" y="57.3" class="d">echo &apos;Solid colo</text></symbol><symbol id="16"><text x="16" y="57.3" class="c">❯ </text><text x="35.2" y="57.3" class="d">echo &apos;Solid color</text></symbol><symbol id="17"><text x="16" y="57.3" class="c">❯ </text><text x="35.2" y="57.3" class="d">echo &apos;Solid color b</text></symbol><symbol id="18"><text x="16" y="57.3" class="c">❯ </text><text x="35.2" y="57.3" class="d">echo &apos;Solid color ba</text></symbol><symbol id="19"><text x="16" y="57.3" class="c">❯ </text><text x="35.2" y="57.3" class="d">echo &apos;Solid color bac</text></symbol><symbol id="20"><text x="16" y="57.3" class="c">❯ </text><text x="35.2" y="57.3" class="d">echo &apos;Solid color back</text></symbol><symbol id="21"><text x="16" y="57.3" class="c">❯ </text><text x="35.2" y="57.3" class="d">echo &apos;Solid color backg</text></symbol><symbol id="22"><text x="16" y="57.3" class="c">❯ </text><text x="35.2" y="57.3" class="d">echo &apos;Solid color backgr</text></symbol><symbol id="23"><text x="16" y="57.3" class="c">❯ </text><text x="35.2" y="57.3" class="d">echo &apos;Solid color backgro</text></symbol><symbol id="24"><text x="16" y="57.3" class="c">❯ </text><text x="35.2" y="57.3" class="d">echo &apos;Solid color backgrou</text></symbol><symbol id="25"><text x="16" y="57.3" class="c">❯ </text><text x="35.2" y="57.3" class="d">echo &apos;Solid color backgroun</text></symbol><symbol id="26"><text x="16" y="57.3" class="c">❯ </text><text x="35.2" y="57.3" class="d">echo &apos;Solid color background</text></symbol><symbol id="27"><text x="16" y="57.3" class="c">❯ </text><text x="35.2" y="57.3" class="d">echo &apos;Solid color background!</text></symbol><symbol id="28"><text x="16" y="57.3" class="c">❯ </text><text x="35.2" y="57.3" class="d">echo &apos;Solid color background!&apos;</text></symbol><symbol id="29"><text x="16" y="79.7" class="d">Solid color background!</text></symbol><symbol id="30"><text x="16" y="102.1" class="c">❯</text></symbol><symbol id="31"><text x="16" y="102.1" class="c">❯ </text><text x="35.2" y="102.1" class="d">N</text></symbol><symbol id="32"><text x="16" y="102.1" class="c">❯ </text><text x="35.2" y="102.1" class="d">Ni</text></symbol><symbol id="33"><text x="16" y="102.1" class="c">❯ </text><text x="35.2" y="102.1" class="d">Nic</text></symbol><symbol id="34"><text x="16" y="102.1" class="c">❯ </text><text x="35.2" y="102.1" class="d">Nice</text></symbol><symbol id="35"><text x="16" y="102.1" class="c">❯ </text><text x="35.2" y="102.1" class="d">Nice p</text></symbol><symbol id="36"><text x="16" y="102.1" class="c">❯ </text><text x="35.2" y="102.1" class="d">Nice pa</text></symbol><symbol id="37"><text x="16" y="102.1" class="c">❯ </text><text x="35.2" y="102.1" class="d">Nice pad</text></symbol><symbol id="38"><text x="16" y="102.1" class="c">❯ </text><text x="35.2" y="102.1" class="d">Nice padd</text></symbol><symbol id="39"><text x="16" y="102.1" class="c">❯ </text><text x="35.2" y="102.1" class="d">Nice paddi</text></symbol><symbol id="40"><text x="16" y="102.1" class="c">❯ </text><text x="35.2" y="102.1" class="d">Nice paddin</text></symbol><symbol id="41"><text x="16" y="102.1" class="c">❯ </text><text x="35.2" y="102.1" class="d">Nice padding</text></symbol><symbol id="42"><text x="16" y="102.1" class="c">❯ </text><text x="35.2" y="102.1" class="d">Nice padding a</text></symbol><symbol id="43"><text x="16" y="102.1" class="c">❯ </text><text x="35.2" y="102.1" class="d">Nice padding ar</text></symbol><symbol id="44"><text x="16" y="102.1" class="c">❯ </text><text x="35.2" y="102.1" class="d">Nice padding aro</text></symbol><symbol id="45"><text x="16" y="102.1" class="c">❯ </text><text x="35.2" y="102.1" class="d">Nice padding arou</text></symbol><symbol id="46"><text x="16" y="102.1" class="c">❯ </text><text x="35.2" y="102.1" class="d">Nice padding aroun</text></symbol><symbol id="47"><text x="16" y="102.1" class="c">❯ </text><text x="35.2" y="102.1" class="d">Nice padding around</text></symbol><symbol id="48"><text x="16" y="102.1" class="c">❯ </text><text x="35.2" y="102.1" class="d">Nice padding around t</text></symbol><symbol id="49"><text x="16" y="102.1" class="c">❯ </text><text x="35.2" y="102.1" class="d">Nice padding around th</text></symbol><symbol id="50"><text x="16" y="102.1" class="c">❯ </text><text x="35.2" y="102.1" class="d">Nice padding around the</text></symbol><symbol id="51"><text x="16" y="102.1" class="c">❯ </text><text x="35.2" y="102.1" class="d">Nice padding around the t</text></symbol><symbol id="52"><text x="16" y="102.1" class="c">❯ </text><text x="35.2" y="102.1" class="d">Nice padding around the te</text></symbol><symbol id="53"><text x="16" y="102.1" class="c">❯ </text><text x="35.2" y="102.1" class="d">Nice padding around the ter</text></symbol><symbol id="54"><text x="16" y="102.1" class="c">❯ </text><text x="35.2" y="102.1" class="d">Nice padding around the term</text></symbol><symbol id="55"><text x="16" y="102.1" class="c">❯ </text><text x="35.2" y="102.1" class="d">Nice padding around the termi</text></symbol><symbol id="56"><text x="16" y="102.1" class="c">❯ </text><text x="35.2" y="102.1" class="d">Nice padding around the termin</text></symbol><symbol id="57"><text x="16" y="102.1" class="c">❯ </text><text x="35.2" y="102.1" class="d">Nice padding around the termina</text></symbol><symbol id="58"><text x="16" y="102.1" class="c">❯ </text><text x="35.2" y="102.1" class="d">Nice padding around the terminal</text></symbol></defs><style>@keyframes f{0.12%{transform:translateX(0px)}0.87%{transform:translateX(-368px)}1.59%{transform:translateX(-736px)}2.33%{transform:translateX(-1104px)}3.10%{transform:translateX(-1472px)}3.83%{transform:translateX(-1840px)}4.60%{transform:translateX(-2208px)}5.34%{transform:translateX(-2576px)}6.07%{transform:translateX(-2944px)}6.81%{transform:translateX(-3312px)}7.55%{transform:translateX(-3680px)}8.30%{transform:translateX(-4048px)}9.04%{transform:translateX(-4416px)}9.79%{transform:translateX(-4784px)}10.53%{transform:translateX(-5152px)}11.25%{transform:translateX(-5520px)}12.00%{transform:translateX(-5888px)}12.76%{transform:translateX(-6256px)}13.54%{transform:translateX(-6624px)}14.22%{transform:translateX(-6992px)}14.94%{transform:translateX(-7360px)}15.69%{transform:translateX(-7728px)}16.46%{transform:translateX(-8096px)}17.21%{transform:translateX(-8464px)}17.95%{transform:translateX(-8832px)}18.69%{transform:translateX(-9200px)}19.44%{transform:translateX(-9568px)}20.13%{transform:translateX(-9936px)}20.87%{transform:translateX(-10304px)}21.62%{transform:translateX(-10672px)}22.39%{transform:translateX(-11040px)}22.40%{transform:translateX(-11408px)}31.15%{transform:translateX(-11776px)}31.21%{transform:translateX(-12144px)}32.79%{transform:translateX(-12512px)}33.53%{transform:translateX(-12880px)}34.28%{transform:translateX(-13248px)}35.03%{transform:translateX(-13616px)}35.81%{transform:translateX(-13984px)}36.52%{transform:translateX(-14352px)}37.24%{transform:translateX(-14720px)}38.00%{transform:translateX(-15088px)}38.75%{transform:translateX(-15456px)}39.49%{transform:translateX(-15824px)}40.19%{transform:translateX(-16192px)}40.97%{transform:translateX(-16560px)}41.61%{transform:translateX(-16928px)}42.38%{transform:translateX(-17296px)}43.12%{transform:translateX(-17664px)}43.91%{transform:translateX(-18032px)}44.68%{transform:translateX(-18400px)}45.40%{transform:translateX(-18768px)}46.15%{transform:translateX(-19136px)}46.88%{transform:translateX(-19504px)}47.60%{transform:translateX(-19872px)}48.38%{transform:translateX(-20240px)}49.12%{transform:translateX(-20608px)}49.83%{transform:translateX(-20976px)}50.51%{transform:translateX(-21344px)}51.24%{transform:translateX(-21712px)}52.00%{transform:translateX(-22080px)}52.75%{transform:translateX(-22448px)}53.51%{transform:translateX(-22816px)}54.31%{transform:translateX(-23184px)}55.02%{transform:translateX(-23552px)}55.77%{transform:translateX(-23920px)}56.55%{transform:translateX(-24288px)}56.57%{transform:translateX(-24656px)}}.a{fill:#ff6b6b}.c{fill:#ff92df;stroke:#ff92df}.d{fill:#f8f8f2;stroke:#f8f8f2}path[fill="none"]{fill:none}path[shape-rendering="crispEdges"]{stroke:none}text{font-family:'SF Mono',Monaco,Consolas,Menlo,monospace;font-size:16px;dominant-baseline:text-before-edge;white-space:pre;}text[class]{stroke:none}.bold{font-weight:700}.italic{font-style:italic}.uline{text-decoration:underline}.strike{text-decoration:line-through}.dim{opacity:0.5}@keyframes blink{0%,50%{opacity:1}50.01%,100%{opacity:0}}.cursor{animation:blink 1s step-end infinite;mix-blend-mode:difference}.cursor-active{opacity:1;mix-blend-mode:difference}</style><rect width="428" height="208" rx="5" fill="#ff6b6b"/><g transform="translate(30,30)"><rect width="368" height="148" rx="8" fill="#282a36"/><rect width="368" height="40" rx="8" fill="#282a36"/><path d="M0 32h368v8H0z" fill="#282a36"/><circle cx="16" cy="20" r="6" fill="#ff5f56"/><circle cx="36" cy="20" r="6" fill="#ffbd2e"/><circle cx="56" cy="20" r="6" fill="#27c93f"/><clipPath id="content-clip"><path d="M0 40h368v108H0z" /></clipPath><g clip-path="url(#content-clip)"><g style="animation:f 6.914s steps(1,end) infinite"><g transform="translate(0,0)"><use xlink:href="#1"/><path d="M35.2 56h9.6v22.4H35.2z" fill="#f8f8f2" class="cursor"/></g><g transform="translate(368,0)"><use xlink:href="#2"/><path d="M44.8 56h9.6v22.4H44.8z" fill="#f8f8f2" class="cursor-active"/></g><g transform="translate(736,0)"><use xlink:href="#3"/><path d="M54.4 56h9.6v22.4H54.4z" fill="#f8f8f2" class="cursor-active"/></g><g transform="translate(1104,0)"><use xlink:href="#4"/><path d="M64 56h9.6v22.4H64z" fill="#f8f8f2" class="cursor-active"/></g><g transform="translate(1472,0)"><use xlink:href="#5"/><path d="M73.6 56h9.6v22.4H73.6z" fill="#f8f8f2" class="cursor-active"/></g><g transform="translate(1840,0)"><use xlink:href="#5"/><path d="M83.2 56h9.6v22.4H83.2z" fill="#f8f8f2" class="cursor-active"/></g><g transform="translate(2208,0)"><use xlink:href="#6"/><path d="M92.8 56h9.6v22.4H92.8z" fill="#f8f8f2" class="cursor-active"/></g><g transform="translate(2576,0)"><use xlink:href="#7"/><path d="M102.4 56h9.6v22.4H102.4z" fill="#f8f8f2" class="cursor-active"/></g><g transform="translate(2944,0)"><use xlink:href="#8"/><path d="M112 56h9.6v22.4H112z" fill="#f8f8f2" class="cursor-active"/></g><g transform="translate(3312,0)"><use xlink:href="#9"/><path d="M121.6 56h9.6v22.4H121.6z" fill="#f8f8f2" class="cursor-active"/></g><g transform="translate(3680,0)"><use xlink:href="#10"/><path d="M131.2 56h9.6v22.4H131.2z" fill="#f8f8f2" class="cursor-active"/></g><g transform="translate(4048,0)"><use xlink:href="#11"/><path d="M140.8 56h9.6v22.4H140.8z" fill="#f8f8f2" class="cursor-active"/></g><g transform="translate(4416,0)"><use xlink:href="#11"/><path d="M150.4 56h9.6v22.4H150.4z" fill="#f8f8f2" class="cursor-active"/></g><g transform="translate(4784,0)"><use xlink:href="#12"/><path d="M160 56h9.6v22.4H160z" fill="#f8f8f2" class="cursor-active"/></g><g transform="translate(5152,0)"><use xlink:href="#13"/><path d="M169.6 56h9.6v22.4H169.6z" fill="#f8f8f2" class="cursor-active"/></g><g transform="translate(5520,0)"><use xlink:href="#14"/><path d="M179.2 56h9.6v22.4H179.2z" fill="#f8f8f2" class="cursor-active"/></g><g transform="translate(5888,0)"><use xlink:href="#15"/><path d="M188.8 56h9.6v22.4H188.8z" fill="#f8f8f2" class="cursor-active"/></g><g transform="translate(6256,0)"><use xlink:href="#16"/><path d="M198.4 56h9.6v22.4H198.4z" fill="#f8f8f2" class="cursor-active"/></g><g transform="translate(6624,0)"><use xlink:href="#16"/><path d="M208 56h9.6v22.4H208z" fill="#f8f8f2" class="cursor-active"/></g><g transform="translate(6992,0)"><use xlink:href="#17"/><path d="M217.6 56h9.6v22.4H217.6z" fill="#f8f8f2" class="cursor-active"/></g><g transform="translate(7360,0)"><use xlink:href="#18"/><path d="M227.2 56h9.6v22.4H227.2z" fill="#f8f8f2" class="cursor-active"/></g><g transform="translate(7728,0)"><use xlink:href="#19"/><path d="M236.8 56h9.6v22.4H236.8z" fill="#f8f8f2" class="cursor-active"/></g><g transform="translate(8096,0)"><use xlink:href="#20"/><path d="M246.4 56h9.6v22.4H246.4z" fill="#f8f8f2" class="cursor-active"/></g><g transform="translate(8464,0)"><use xlink:href="#21"/><path d="M256 56h9.6v22.4H256z" fill="#f8f8f2" class="cursor-active"/></g><g transform="translate(8832,0)"><use xlink:href="#22"/><path d="M265.6 56h9.6v22.4H265.6z" fill="#f8f8f2" class="cursor-active"/></g><g transform="translate(9200,0)"><use xlink:href="#23"/><path d="M275.2 56h9.6v22.4H275.2z" fill="#f8f8f2" class="cursor-active"/></g><g transform="translate(9568,0)"><use xlink:href="#24"/><path d="M284.8 56h9.6v22.4H284.8z" fill="#f8f8f2" class="cursor-active"/></g><g transform="translate(9936,0)"><use xlink:href="#25"/><path d="M294.4 56h9.6v22.4H294.4z" fill="#f8f8f2" class="cursor-active"/></g><g transform="translate(10304,0)"><use xlink:href="#26"/><path d="M304 56h9.6v22.4H304z" fill="#f8f8f2" class="cursor-active"/></g><g transform="translate(10672,0)"><use xlink:href="#27"/><path d="M313.6 56h9.6v22.4H313.6z" fill="#f8f8f2" class="cursor-active"/></g><g transform="translate(11040,0)"><use xlink:href="#28"/><path d="M323.2 56h9.6v22.4H323.2z" fill="#f8f8f2" class="cursor-active"/></g><g transform="translate(11408,0)"><use xlink:href="#28"/><path d="M323.2 56h9.6v22.4H323.2z" fill="#f8f8f2" class="cursor"/></g><g transform="translate(11776,0)"><use xlink:href="#28"/></g><g transform="translate(12144,0)"><use xlink:href="#28"/><use xlink:href="#29"/></g><g transform="translate(12512,0)"><use xlink:href="#28"/><use xlink:href="#29"/><use xlink:href="#30"/><path d="M35.2 100.8h9.6v22.4H35.2z" fill="#f8f8f2" class="cursor"/></g><g transform="translate(12880,0)"><use xlink:href="#28"/><use xlink:href="#29"/><use xlink:href="#31"/><path d="M44.8 100.8h9.6v22.4H44.8z" fill="#f8f8f2" class="cursor-active"/></g><g transform="translate(13248,0)"><use xlink:href="#28"/><use xlink:href="#29"/><use xlink:href="#32"/><path d="M54.4 100.8h9.6v22.4H54.4z" fill="#f8f8f2" class="cursor-active"/></g><g transform="translate(13616,0)"><use xlink:href="#28"/><use xlink:href="#29"/><use xlink:href="#33"/><path d="M64 100.8h9.6v22.4H64z" fill="#f8f8f2" class="cursor-active"/></g><g transform="translate(13984,0)"><use xlink:href="#28"/><use xlink:href="#29"/><use xlink:href="#34"/><path d="M73.6 100.8h9.6v22.4H73.6z" fill="#f8f8f2" class="cursor-active"/></g><g transform="translate(14352,0)"><use xlink:href="#28"/><use xlink:href="#29"/><use xlink:href="#34"/><path d="M83.2 100.8h9.6v22.4H83.2z" fill="#f8f8f2" class="cursor-active"/></g><g transform="translate(14720,0)"><use xlink:href="#28"/><use xlink:href="#29"/><use xlink:href="#35"/><path d="M92.8 100.8h9.6v22.4H92.8z" fill="#f8f8f2" class="cursor-active"/></g><g transform="translate(15088,0)"><use xlink:href="#28"/><use xlink:href="#29"/><use xlink:href="#36"/><path d="M102.4 100.8h9.6v22.4H102.4z" fill="#f8f8f2" class="cursor-active"/></g><g transform="translate(15456,0)"><use xlink:href="#28"/><use xlink:href="#29"/><use xlink:href="#37"/><path d="M112 100.8h9.6v22.4H112z" fill="#f8f8f2" class="cursor-active"/></g><g transform="translate(15824,0)"><use xlink:href="#28"/><use xlink:href="#29"/><use xlink:href="#38"/><path d="M121.6 100.8h9.6v22.4H121.6z" fill="#f8f8f2" class="cursor-active"/></g><g transform="translate(16192,0)"><use xlink:href="#28"/><use xlink:href="#29"/><use xlink:href="#39"/><path d="M131.2 100.8h9.6v22.4H131.2z" fill="#f8f8f2" class="cursor-active"/></g><g transform="translate(16560,0)"><use xlink:href="#28"/><use xlink:href="#29"/><use xlink:href="#40"/><path d="M140.8 100.8h9.6v22.4H140.8z" fill="#f8f8f2" class="cursor-active"/></g><g transform="translate(16928,0)"><use xlink:href="#28"/><use xlink:href="#29"/><use xlink:href="#41"/><path d="M150.4 100.8h9.6v22.4H150.4z" fill="#f8f8f2" class="cursor-active"/></g><g transform="translate(17296,0)"><use xlink:href="#28"/><use xlink:href="#29"/><use xlink:href="#41"/><path d="M160 100.8h9.6v22.4H160z" fill="#f8f8f2" class="cursor-active"/></g><g transform="translate(17664,0)"><use xlink:href="#28"/><use xlink:href="#29"/><use xlink:href="#42"/><path d="M169.6 100.8h9.6v22.4H169.6z" fill="#f8f8f2" class="cursor-active"/></g><g transform="translate(18032,0)"><use xlink:href="#28"/><use xlink:href="#29"/><use xlink:href="#43"/><path d="M179.2 100.8h9.6v22.4H179.2z" fill="#f8f8f2" class="cursor-active"/></g><g transform="translate(18400,0)"><use xlink:href="#28"/><use xlink:href="#29"/><use xlink:href="#44"/><path d="M188.8 100.8h9.6v22.4H188.8z" fill="#f8f8f2" class="cursor-active"/></g><g transform="translate(18768,0)"><use xlink:href="#28"/><use xlink:href="#29"/><use xlink:href="#45"/><path d="M198.4 100.8h9.6v22.4H198.4z" fill="#f8f8f2" class="cursor-active"/></g><g transform="translate(19136,0)"><use xlink:href="#28"/><use xlink:href="#29"/><use xlink:href="#46"/><path d="M208 100.8h9.6v22.4H208z" fill="#f8f8f2" class="cursor-active"/></g><g transform="translate(19504,0)"><use xlink:href="#28"/><use xlink:href="#29"/><use xlink:href="#47"/><path d="M217.6 100.8h9.6v22.4H217.6z" fill="#f8f8f2" class="cursor-active"/></g><g transform="translate(19872,0)"><use xlink:href="#28"/><use xlink:href="#29"/><use xlink:href="#47"/><path d="M227.2 100.8h9.6v22.4H227.2z" fill="#f8f8f2" class="cursor-active"/></g><g transform="translate(20240,0)"><use xlink:href="#28"/><use xlink:href="#29"/><use xlink:href="#48"/><path d="M236.8 100.8h9.6v22.4H236.8z" fill="#f8f8f2" class="cursor-active"/></g><g transform="translate(20608,0)"><use xlink:href="#28"/><use xlink:href="#29"/><use xlink:href="#49"/><path d="M246.4 100.8h9.6v22.4H246.4z" fill="#f8f8f2" class="cursor-active"/></g><g transform="translate(20976,0)"><use xlink:href="#28"/><use xlink:href="#29"/><use xlink:href="#50"/><path d="M256 100.8h9.6v22.4H256z" fill="#f8f8f2" class="cursor-active"/></g><g transform="translate(21344,0)"><use xlink:href="#28"/><use xlink:href="#29"/><use xlink:href="#50"/><path d="M265.6 100.8h9.6v22.4H265.6z" fill="#f8f8f2" class="cursor-active"/></g><g transform="translate(21712,0)"><use xlink:href="#28"/><use xlink:href="#29"/><use xlink:href="#51"/><path d="M275.2 100.8h9.6v22.4H275.2z" fill="#f8f8f2" class="cursor-active"/></g><g transform="translate(22080,0)"><use xlink:href="#28"/><use xlink:href="#29"/><use xlink:href="#52"/><path d="M284.8 100.8h9.6v22.4H284.8z" fill="#f8f8f2" class="cursor-active"/></g><g transform="translate(22448,0)"><use xlink:href="#28"/><use xlink:href="#29"/><use xlink:href="#53"/><path d="M294.4 100.8h9.6v22.4H294.4z" fill="#f8f8f2" class="cursor-active"/></g><g transform="translate(22816,0)"><use xlink:href="#28"/><use xlink:href="#29"/><use xlink:href="#54"/><path d="M304 100.8h9.6v22.4H304z" fill="#f8f8f2" class="cursor-active"/></g><g transform="translate(23184,0)"><use xlink:href="#28"/><use xlink:href="#29"/><use xlink:href="#55"/><path d="M313.6 100.8h9.6v22.4H313.6z" fill="#f8f8f2" class="cursor-active"/></g><g transform="translate(23552,0)"><use xlink:href="#28"/><use xlink:href="#29"/><use xlink:href="#56"/><path d="M323.2 100.8h9.6v22.4H323.2z" fill="#f8f8f2" class="cursor-active"/></g><g transform="translate(23920,0)"><use xlink:href="#28"/><use xlink:href="#29"/><use xlink:href="#57"/><path d="M332.8 100.8h9.6v22.4H332.8z" fill="#f8f8f2" class="cursor-active"/></g><g transform="translate(24288,0)"><use xlink:href="#28"/><use xlink:href="#29"/><use xlink:href="#58"/><path d="M342.4 100.8h9.6v22.4H342.4z" fill="#f8f8f2" class="cursor-active"/></g><g transform="translate(24656,0)"><use xlink:href="#28"/><use xlink:href="#29"/><use xlink:href="#58"/><path d="M342.4 100.8h9.6v22.4H342.4z" fill="#f8f8f2" class="cursor"/></g></g></g></g></svg>