<svg xmlns="http://www.w3.org/2000/svg" xmlns:xlink="http://www.w3.org/1999/xlink" width="668" height="188" viewBox="0 0 668 188"><defs><linearGradient id="bg-gradient" x1="0%" y1="0%" x2="0%" y2="100%"><stop offset="0%" stop-color="#83F5E5"/><stop offset="100%" stop-color="#E761BD"/></linearGradient><symbol id="1"><text x="16" y="57.3" textLength="9.6" lengthAdjust="spacingAndGlyphs" class="c">❯</text></symbol><symbol id="2"><text x="16" y="57.3" textLength="19.2" lengthAdjust="spacingAndGlyphs" class="c">❯ </text><text x="35.2" y="57.3" textLength="9.6" lengthAdjust="spacingAndGlyphs" class="d">e</text></symbol><symbol id="3"><text x="16" y="57.3" textLength="19.2" lengthAdjust="spacingAndGlyphs" class="c">❯ </text><text x="35.2" y="57.3" textLength="19.2" lengthAdjust="spacingAndGlyphs" class="d">ec</text></symbol><symbol id="4"><text x="16" y="57.3" textLength="19.2" lengthAdjust="spacingAndGlyphs" class="c">❯ </text><text x="35.2" y="57.3" textLength="28.8" lengthAdjust="spacingAndGlyphs" class="d">ech</text></symbol><symbol id="5"><text x="16" y="57.3" textLength="19.2" lengthAdjust="spacingAndGlyphs" class="c">❯ </text><text x="35.2" y="57.3" textLength="38.4" lengthAdjust="spacingAndGlyphs" class="d">echo</text></symbol><symbol id="6"><text x="16" y="57.3" textLength="19.2" lengthAdjust="spacingAndGlyphs" class="c">❯ </text><text x="35.2" y="57.3" textLength="57.6" lengthAdjust="spacingAndGlyphs" class="d">echo &apos;</text></symbol><symbol id="7"><text x="16" y="57.3" textLength="19.2" lengthAdjust="spacingAndGlyphs" class="c">❯ </text><text x="35.2" y="57.3" textLength="67.2" lengthAdjust="spacingAndGlyphs" class="d">echo &apos;H</text></symbol><symbol id="8"><text x="16" y="57.3" textLength="19.2" lengthAdjust="spacingAndGlyphs" class="c">❯ </text><text x="35.2" y="57.3" textLength="76.8" lengthAdjust="spacingAndGlyphs" class="d">echo &apos;He</text></symbol><symbol id="9"><text x="16" y="57.3" textLength="19.2" lengthAdjust="spacingAndGlyphs" class="c">❯ </text><text x="35.2" y="57.3" textLength="86.4" lengthAdjust="spacingAndGlyphs" class="d">echo &apos;Hel</text></symbol><symbol id="10"><text x="16" y="57.3" textLength="19.2" lengthAdjust="spacingAndGlyphs" class="c">❯ </text><text x="35.2" y="57.3" textLength="96" lengthAdjust="spacingAndGlyphs" class="d">echo &apos;Hell</text></symbol><symbol id="11"><text x="16" y="57.3" textLength="19.2" lengthAdjust="spacingAndGlyphs" class="c">❯ </text><text x="35.2" y="57.3" textLength="105.6" lengthAdjust="spacingAndGlyphs" class="d">echo &apos;Hello</text></symbol><symbol id="12"><text x="16" y="57.3" textLength="19.2" lengthAdjust="spacingAndGlyphs" class="c">❯ </text><text x="35.2" y="57.3" textLength="124.8" lengthAdjust="spacingAndGlyphs" class="d">echo &apos;Hello f</text></symbol><symbol id="13"><text x="16" y="57.3" textLength="19.2" lengthAdjust="spacingAndGlyphs" class="c">❯ </text><text x="35.2" y="57.3" textLength="134.4" lengthAdjust="spacingAndGlyphs" class="d">echo &apos;Hello fr</text></symbol><symbol id="14"><text x="16" y="57.3" textLength="19.2" lengthAdjust="spacingAndGlyphs" class="c">❯ </text><text x="35.2" y="57.3" textLength="144" lengthAdjust="spacingAndGlyphs" class="d">echo &apos;Hello fro</text></symbol><symbol id="15"><text x="16" y="57.3" textLength="19.2" lengthAdjust="spacingAndGlyphs" class="c">❯ </text><text x="35.2" y="57.3" textLength="153.6" lengthAdjust="spacingAndGlyphs" class="d">echo &apos;Hello from</text></symbol><symbol id="16"><text x="16" y="57.3" textLength="19.2" lengthAdjust="spacingAndGlyphs" class="c">❯ </text><text x="35.2" y="57.3" textLength="172.8" lengthAdjust="spacingAndGlyphs" class="d">echo &apos;Hello from t</text></symbol><symbol id="17"><text x="16" y="57.3" textLength="19.2" lengthAdjust="spacingAndGlyphs" class="c">❯ </text><text x="35.2" y="57.3" textLength="182.4" lengthAdjust="spacingAndGlyphs" class="d">echo &apos;Hello from th</text></symbol><symbol id="18"><text x="16" y="57.3" textLength="19.2" lengthAdjust="spacingAndGlyphs" class="c">❯ </text><text x="35.2" y="57.3" textLength="192" lengthAdjust="spacingAndGlyphs" class="d">echo &apos;Hello from the</text></symbol><symbol id="19"><text x="16" y="57.3" textLength="19.2" lengthAdjust="spacingAndGlyphs" class="c">❯ </text><text x="35.2" y="57.3" textLength="211.2" lengthAdjust="spacingAndGlyphs" class="d">echo &apos;Hello from the d</text></symbol><symbol id="20"><text x="16" y="57.3" textLength="19.2" lengthAdjust="spacingAndGlyphs" class="c">❯ </text><text x="35.2" y="57.3" textLength="220.8" lengthAdjust="spacingAndGlyphs" class="d">echo &apos;Hello from the de</text></symbol><symbol id="21"><text x="16" y="57.3" textLength="19.2" lengthAdjust="spacingAndGlyphs" class="c">❯ </text><text x="35.2" y="57.3" textLength="230.4" lengthAdjust="spacingAndGlyphs" class="d">echo &apos;Hello from the def</text></symbol><symbol id="22"><text x="16" y="57.3" textLength="19.2" lengthAdjust="spacingAndGlyphs" class="c">❯ </text><text x="35.2" y="57.3" textLength="240" lengthAdjust="spacingAndGlyphs" class="d">echo &apos;Hello from the defa</text></symbol><symbol id="23"><text x="16" y="57.3" textLength="19.2" lengthAdjust="spacingAndGlyphs" class="c">❯ </text><text x="35.2" y="57.3" textLength="249.6" lengthAdjust="spacingAndGlyphs" class="d">echo &apos;Hello from the defau</text></symbol><symbol id="24"><text x="16" y="57.3" textLength="19.2" lengthAdjust="spacingAndGlyphs" class="c">❯ </text><text x="35.2" y="57.3" textLength="259.2" lengthAdjust="spacingAndGlyphs" class="d">echo &apos;Hello from the defaul</text></symbol><symbol id="25"><text x="16" y="57.3" textLength="19.2" lengthAdjust="spacingAndGlyphs" class="c">❯ </text><text x="35.2" y="57.3" textLength="268.8" lengthAdjust="spacingAndGlyphs" class="d">echo &apos;Hello from the default</text></symbol><symbol id="26"><text x="16" y="57.3" textLength="19.2" lengthAdjust="spacingAndGlyphs" class="c">❯ </text><text x="35.2" y="57.3" textLength="288" lengthAdjust="spacingAndGlyphs" class="d">echo &apos;Hello from the default v</text></symbol><symbol id="27"><text x="16" y="57.3" textLength="19.2" lengthAdjust="spacingAndGlyphs" class="c">❯ </text><text x="35.2" y="57.3" textLength="297.6" lengthAdjust="spacingAndGlyphs" class="d">echo &apos;Hello from the default ve</text></symbol><symbol id="28"><text x="16" y="57.3" textLength="19.2" lengthAdjust="spacingAndGlyphs" class="c">❯ </text><text x="35.2" y="57.3" textLength="307.2" lengthAdjust="spacingAndGlyphs" class="d">echo &apos;Hello from the default ver</text></symbol><symbol id="29"><text x="16" y="57.3" textLength="19.2" lengthAdjust="spacingAndGlyphs" class="c">❯ </text><text x="35.2" y="57.3" textLength="316.8" lengthAdjust="spacingAndGlyphs" class="d">echo &apos;Hello from the default vert</text></symbol><symbol id="30"><text x="16" y="57.3" textLength="19.2" lengthAdjust="spacingAndGlyphs" class="c">❯ </text><text x="35.2" y="57.3" textLength="326.4" lengthAdjust="spacingAndGlyphs" class="d">echo &apos;Hello from the default verti</text></symbol><symbol id="31"><text x="16" y="57.3" textLength="19.2" lengthAdjust="spacingAndGlyphs" class="c">❯ </text><text x="35.2" y="57.3" textLength="336" lengthAdjust="spacingAndGlyphs" class="d">echo &apos;Hello from the default vertic</text></symbol><symbol id="32"><text x="16" y="57.3" textLength="19.2" lengthAdjust="spacingAndGlyphs" class="c">❯ </text><text x="35.2" y="57.3" textLength="345.6" lengthAdjust="spacingAndGlyphs" class="d">echo &apos;Hello from the default vertica</text></symbol><symbol id="33"><text x="16" y="57.3" textLength="19.2" lengthAdjust="spacingAndGlyphs" class="c">❯ </text><text x="35.2" y="57.3" textLength="355.2" lengthAdjust="spacingAndGlyphs" class="d">echo &apos;Hello from the default vertical</text></symbol><symbol id="34"><text x="16" y="57.3" textLength="19.2" lengthAdjust="spacingAndGlyphs" class="c">❯ </text><text x="35.2" y="57.3" textLength="374.4" lengthAdjust="spacingAndGlyphs" class="d">echo &apos;Hello from the default vertical g</text></symbol><symbol id="35"><text x="16" y="57.3" textLength="19.2" lengthAdjust="spacingAndGlyphs" class="c">❯ </text><text x="35.2" y="57.3" textLength="384" lengthAdjust="spacingAndGlyphs" class="d">echo &apos;Hello from the default vertical gr</text></symbol><symbol id="36"><text x="16" y="57.3" textLength="19.2" lengthAdjust="spacingAndGlyphs" class="c">❯ </text><text x="35.2" y="57.3" textLength="393.6" lengthAdjust="spacingAndGlyphs" class="d">echo &apos;Hello from the default vertical gra</text></symbol><symbol id="37"><text x="16" y="57.3" textLength="19.2" lengthAdjust="spacingAndGlyphs" class="c">❯ </text><text x="35.2" y="57.3" textLength="403.2" lengthAdjust="spacingAndGlyphs" class="d">echo &apos;Hello from the default vertical grad</text></symbol><symbol id="38"><text x="16" y="57.3" textLength="19.2" lengthAdjust="spacingAndGlyphs" class="c">❯ </text><text x="35.2" y="57.3" textLength="412.8" lengthAdjust="spacingAndGlyphs" class="d">echo &apos;Hello from the default vertical gradi</text></symbol><symbol id="39"><text x="16" y="57.3" textLength="19.2" lengthAdjust="spacingAndGlyphs" class="c">❯ </text><text x="35.2" y="57.3" textLength="422.4" lengthAdjust="spacingAndGlyphs" class="d">echo &apos;Hello from the default vertical gradie</text></symbol><symbol id="40"><text x="16" y="57.3" textLength="19.2" lengthAdjust="spacingAndGlyphs" class="c">❯ </text><text x="35.2" y="57.3" textLength="432" lengthAdjust="spacingAndGlyphs" class="d">echo &apos;Hello from the default vertical gradien</text></symbol><symbol id="41"><text x="16" y="57.3" textLength="19.2" lengthAdjust="spacingAndGlyphs" class="c">❯ </text><text x="35.2" y="57.3" textLength="441.6" lengthAdjust="spacingAndGlyphs" class="d">echo &apos;Hello from the default vertical gradient</text></symbol><symbol id="42"><text x="16" y="57.3" textLength="19.2" lengthAdjust="spacingAndGlyphs" class="c">❯ </text><text x="35.2" y="57.3" textLength="460.8" lengthAdjust="spacingAndGlyphs" class="d">echo &apos;Hello from the default vertical gradient b</text></symbol><symbol id="43"><text x="16" y="57.3" textLength="19.2" lengthAdjust="spacingAndGlyphs" class="c">❯ </text><text x="35.2" y="57.3" textLength="470.4" lengthAdjust="spacingAndGlyphs" class="d">echo &apos;Hello from the default vertical gradient ba</text></symbol><symbol id="44"><text x="16" y="57.3" textLength="19.2" lengthAdjust="spacingAndGlyphs" class="c">❯ </text><text x="35.2" y="57.3" textLength="480" lengthAdjust="spacingAndGlyphs" class="d">echo &apos;Hello from the default vertical gradient bac</text></symbol><symbol id="45"><text x="16" y="57.3" textLength="19.2" lengthAdjust="spacingAndGlyphs" class="c">❯ </text><text x="35.2" y="57.3" textLength="489.6" lengthAdjust="spacingAndGlyphs" class="d">echo &apos;Hello from the default vertical gradient back</text></symbol><symbol id="46"><text x="16" y="57.3" textLength="19.2" lengthAdjust="spacingAndGlyphs" class="c">❯ </text><text x="35.2" y="57.3" textLength="499.2" lengthAdjust="spacingAndGlyphs" class="d">echo &apos;Hello from the default vertical gradient backg</text></symbol><symbol id="47"><text x="16" y="57.3" textLength="19.2" lengthAdjust="spacingAndGlyphs" class="c">❯ </text><text x="35.2" y="57.3" textLength="508.8" lengthAdjust="spacingAndGlyphs" class="d">echo &apos;Hello from the default vertical gradient backgr</text></symbol><symbol id="48"><text x="16" y="57.3" textLength="19.2" lengthAdjust="spacingAndGlyphs" class="c">❯ </text><text x="35.2" y="57.3" textLength="518.4" lengthAdjust="spacingAndGlyphs" class="d">echo &apos;Hello from the default vertical gradient backgro</text></symbol><symbol id="49"><text x="16" y="57.3" textLength="19.2" lengthAdjust="spacingAndGlyphs" class="c">❯ </text><text x="35.2" y="57.3" textLength="528" lengthAdjust="spacingAndGlyphs" class="d">echo &apos;Hello from the default vertical gradient backgrou</text></symbol><symbol id="50"><text x="16" y="57.3" textLength="19.2" lengthAdjust="spacingAndGlyphs" class="c">❯ </text><text x="35.2" y="57.3" textLength="537.6" lengthAdjust="spacingAndGlyphs" class="d">echo &apos;Hello from the default vertical gradient backgroun</text></symbol><symbol id="51"><text x="16" y="57.3" textLength="19.2" lengthAdjust="spacingAndGlyphs" class="c">❯ </text><text x="35.2" y="57.3" textLength="547.2" lengthAdjust="spacingAndGlyphs" class="d">echo &apos;Hello from the default vertical gradient background</text></symbol><symbol id="52"><text x="16" y="57.3" textLength="19.2" lengthAdjust="spacingAndGlyphs" class="c">❯ </text><text x="35.2" y="57.3" textLength="556.8" lengthAdjust="spacingAndGlyphs" class="d">echo &apos;Hello from the default vertical gradient background!</text></symbol><symbol id="53"><text x="16" y="57.3" textLength="19.2" lengthAdjust="spacingAndGlyphs" class="c">❯ </text><text x="35.2" y="57.3" textLength="566.4" lengthAdjust="spacingAndGlyphs" class="d">echo &apos;Hello from the default vertical gradient background!&apos;</text></symbol><symbol id="54"><text x="16" y="79.7" textLength="499.2" lengthAdjust="spacingAndGlyphs" class="d">Hello from the default vertical gradient background!</text></symbol><symbol id="55"><text x="16" y="102.1" textLength="9.6" lengthAdjust="spacingAndGlyphs" class="c">❯</text></symbol><symbol id="56"><text x="16" y="102.1" textLength="19.2" lengthAdjust="spacingAndGlyphs" class="c">❯ </text><text x="35.2" y="102.1" textLength="9.6" lengthAdjust="spacingAndGlyphs" class="d">T</text></symbol><symbol id="57"><text x="16" y="102.1" textLength="19.2" lengthAdjust="spacingAndGlyphs" class="c">❯ </text><text x="35.2" y="102.1" textLength="19.2" lengthAdjust="spacingAndGlyphs" class="d">Th</text></symbol><symbol id="58"><text x="16" y="102.1" textLength="19.2" lengthAdjust="spacingAndGlyphs" class="c">❯ </text><text x="35.2" y="102.1" textLength="28.8" lengthAdjust="spacingAndGlyphs" class="d">Thi</text></symbol><symbol id="59"><text x="16" y="102.1" textLength="19.2" lengthAdjust="spacingAndGlyphs" class="c">❯ </text><text x="35.2" y="102.1" textLength="38.4" lengthAdjust="spacingAndGlyphs" class="d">This</text></symbol><symbol id="60"><text x="16" y="102.1" textLength="19.2" lengthAdjust="spacingAndGlyphs" class="c">❯ </text><text x="35.2" y="102.1" textLength="57.6" lengthAdjust="spacingAndGlyphs" class="d">This l</text></symbol><symbol id="61"><text x="16" y="102.1" textLength="19.2" lengthAdjust="spacingAndGlyphs" class="c">❯ </text><text x="35.2" y="102.1" textLength="67.2" lengthAdjust="spacingAndGlyphs" class="d">This lo</text></symbol><symbol id="62"><text x="16" y="102.1" textLength="19.2" lengthAdjust="spacingAndGlyphs" class="c">❯ </text><text x="35.2" y="102.1" textLength="76.8" lengthAdjust="spacingAndGlyphs" class="d">This loo</text></symbol><symbol id="63"><text x="16" y="102.1" textLength="19.2" lengthAdjust="spacingAndGlyphs" class="c">❯ </text><text x="35.2" y="102.1" textLength="86.4" lengthAdjust="spacingAndGlyphs" class="d">This look</text></symbol><symbol id="64"><text x="16" y="102.1" textLength="19.2" lengthAdjust="spacingAndGlyphs" class="c">❯ </text><text x="35.2" y="102.1" textLength="96" lengthAdjust="spacingAndGlyphs" class="d">This looks</text></symbol><symbol id="65"><text x="16" y="102.1" textLength="19.2" lengthAdjust="spacingAndGlyphs" class="c">❯ </text><text x="35.2" y="102.1" textLength="115.2" lengthAdjust="spacingAndGlyphs" class="d">This looks p</text></symbol><symbol id="66"><text x="16" y="102.1" textLength="19.2" lengthAdjust="spacingAndGlyphs" class="c">❯ </text><text x="35.2" y="102.1" textLength="124.8" lengthAdjust="spacingAndGlyphs" class="d">This looks pr</text></symbol><symbol id="67"><text x="16" y="102.1" textLength="19.2" lengthAdjust="spacingAndGlyphs" class="c">❯ </text><text x="35.2" y="102.1" textLength="134.4" lengthAdjust="spacingAndGlyphs" class="d">This looks pre</text></symbol><symbol id="68"><text x="16" y="102.1" textLength="19.2" lengthAdjust="spacingAndGlyphs" class="c">❯ </text><text x="35.2" y="102.1" textLength="144" lengthAdjust="spacingAndGlyphs" class="d">This looks pret</text></symbol><symbol id="69"><text x="16" y="102.1" textLength="19.2" lengthAdjust="spacingAndGlyphs" class="c">❯ </text><text x="35.2" y="102.1" textLength="153.6" lengthAdjust="spacingAndGlyphs" class="d">This looks prett</text></symbol><symbol id="70"><text x="16" y="102.1" textLength="19.2" lengthAdjust="spacingAndGlyphs" class="c">❯ </text><text x="35.2" y="102.1" textLength="163.2" lengthAdjust="spacingAndGlyphs" class="d">This looks pretty</text></symbol><symbol id="71"><text x="16" y="102.1" textLength="19.2" lengthAdjust="spacingAndGlyphs" class="c">❯ </text><text x="35.2" y="102.1" textLength="182.4" lengthAdjust="spacingAndGlyphs" class="d">This looks pretty c</text></symbol><symbol id="72"><text x="16" y="102.1" textLength="19.2" lengthAdjust="spacingAndGlyphs" class="c">❯ </text><text x="35.2" y="102.1" textLength="192" lengthAdjust="spacingAndGlyphs" class="d">This looks pretty co</text></symbol><symbol id="73"><text x="16" y="102.1" textLength="19.2" lengthAdjust="spacingAndGlyphs" class="c">❯ </text><text x="35.2" y="102.1" textLength="201.6" lengthAdjust="spacingAndGlyphs" class="d">This looks pretty coo</text></symbol><symbol id="74"><text x="16" y="102.1" textLength="19.2" lengthAdjust="spacingAndGlyphs" class="c">❯ </text><text x="35.2" y="102.1" textLength="211.2" lengthAdjust="spacingAndGlyphs" class="d">This looks pretty cool</text></symbol></defs><style>@keyframes f{0.10%{transform:translateX(0px)}0.77%{transform:translateX(-628px)}1.40%{transform:translateX(-1256px)}2.03%{transform:translateX(-1884px)}2.70%{transform:translateX(-2512px)}3.33%{transform:translateX(-3140px)}3.98%{transform:translateX(-3768px)}4.63%{transform:translateX(-4396px)}5.26%{transform:translateX(-5024px)}5.91%{transform:translateX(-5652px)}6.56%{transform:translateX(-6280px)}7.19%{transform:translateX(-6908px)}7.85%{transform:translateX(-7536px)}8.49%{transform:translateX(-8164px)}9.13%{transform:translateX(-8792px)}9.79%{transform:translateX(-9420px)}10.45%{transform:translateX(-10048px)}11.09%{transform:translateX(-10676px)}11.75%{transform:translateX(-11304px)}12.41%{transform:translateX(-11932px)}13.01%{transform:translateX(-12560px)}13.68%{transform:translateX(-13188px)}14.30%{transform:translateX(-13816px)}14.93%{transform:translateX(-14444px)}15.60%{transform:translateX(-15072px)}16.24%{transform:translateX(-15700px)}16.86%{transform:translateX(-16328px)}17.56%{transform:translateX(-16956px)}18.17%{transform:translateX(-17584px)}18.81%{transform:translateX(-18212px)}19.49%{transform:translateX(-18840px)}20.12%{transform:translateX(-19468px)}20.75%{transform:translateX(-20096px)}21.39%{transform:translateX(-20724px)}22.02%{transform:translateX(-21352px)}22.67%{transform:translateX(-21980px)}23.32%{transform:translateX(-22608px)}23.99%{transform:translateX(-23236px)}24.65%{transform:translateX(-23864px)}25.26%{transform:translateX(-24492px)}25.95%{transform:translateX(-25120px)}26.56%{transform:translateX(-25748px)}27.19%{transform:translateX(-26376px)}27.88%{transform:translateX(-27004px)}28.51%{transform:translateX(-27632px)}29.13%{transform:translateX(-28260px)}29.75%{transform:translateX(-28888px)}30.46%{transform:translateX(-29516px)}31.10%{transform:translateX(-30144px)}31.69%{transform:translateX(-30772px)}32.35%{transform:translateX(-31400px)}33.02%{transform:translateX(-32028px)}33.67%{transform:translateX(-32656px)}34.29%{transform:translateX(-33284px)}34.96%{transform:translateX(-33912px)}35.62%{transform:translateX(-34540px)}36.20%{transform:translateX(-35168px)}36.87%{transform:translateX(-35796px)}37.51%{transform:translateX(-36424px)}38.17%{transform:translateX(-37052px)}38.18%{transform:translateX(-37680px)}46.07%{transform:translateX(-38308px)}46.03%{transform:translateX(-38936px)}47.65%{transform:translateX(-39564px)}48.25%{transform:translateX(-40192px)}48.90%{transform:translateX(-40820px)}49.54%{transform:translateX(-41448px)}50.18%{transform:translateX(-42076px)}50.81%{transform:translateX(-42704px)}51.48%{transform:translateX(-43332px)}52.13%{transform:translateX(-43960px)}52.78%{transform:translateX(-44588px)}53.44%{transform:translateX(-45216px)}54.08%{transform:translateX(-45844px)}54.70%{transform:translateX(-46472px)}55.33%{transform:translateX(-47100px)}55.95%{transform:translateX(-47728px)}56.59%{transform:translateX(-48356px)}57.26%{transform:translateX(-48984px)}57.92%{transform:translateX(-49612px)}58.54%{transform:translateX(-50240px)}59.19%{transform:translateX(-50868px)}59.85%{transform:translateX(-51496px)}60.51%{transform:translateX(-52124px)}61.15%{transform:translateX(-52752px)}61.76%{transform:translateX(-53380px)}61.77%{transform:translateX(-54008px)}}.a{fill:url(#bg-gradient)}.c{fill:#ff92df;stroke:#ff92df}.d{fill:#f8f8f2;stroke:#f8f8f2}path[fill="none"]{fill:none}path[shape-rendering="crispEdges"]{stroke:none}text{font-family:'SF Mono',Monaco,Consolas,Menlo,monospace;font-size:16px;dominant-baseline:text-before-edge;white-space:pre;}text[class]{stroke:none}.bold{font-weight:700}.italic{font-style:italic}.uline{text-decoration:underline}.strike{text-decoration:line-through}.dim{opacity:0.5}@keyframes blink{0%,50%{opacity:1}50.01%,100%{opacity:0}}.cursor{animation:blink 1s step-end infinite;mix-blend-mode:difference}.cursor-active{opacity:1;mix-blend-mode:difference}</style><rect width="668" height="188" rx="12" fill="url(#bg-gradient)"/><g transform="translate(20,20)"><rect width="628" height="148" rx="8" fill="#282a36"/><rect width="628" height="40" rx="8" fill="#282a36"/><path d="M0 32h628v8H0z" fill="#282a36"/><circle cx="16" cy="20" r="6" fill="#ff5f56"/><circle cx="36" cy="20" r="6" fill="#ffbd2e"/><circle cx="56" cy="20" r="6" fill="#27c93f"/><clipPath id="content-clip"><path d="M0 40h628v108H0z" /></clipPath><g clip-path="url(#content-clip)"><g style="animation:f 7.923s steps(1,end) infinite"><g transform="translate(0,0)"><use xlink:href="#1"/><path d="M35.2 56h9.6v22.4H35.2z" fill="#fff" class="cursor"/></g><g transform="translate(628,0)"><use xlink:href="#2"/><path d="M44.8 56h9.6v22.4H44.8z" fill="#fff" class="cursor-active"/></g><g transform="translate(1256,0)"><use xlink:href="#3"/><path d="M54.4 56h9.6v22.4H54.4z" fill="#fff" class="cursor-active"/></g><g transform="translate(1884,0)"><use xlink:href="#4"/><path d="M64 56h9.6v22.4H64z" fill="#fff" class="cursor-active"/></g><g transform="translate(2512,0)"><use xlink:href="#5"/><path d="M73.6 56h9.6v22.4H73.6z" fill="#fff" class="cursor-active"/></g><g transform="translate(3140,0)"><use xlink:href="#5"/><path d="M83.2 56h9.6v22.4H83.2z" fill="#fff" class="cursor-active"/></g><g transform="translate(3768,0)"><use xlink:href="#6"/><path d="M92.8 56h9.6v22.4H92.8z" fill="#fff" class="cursor-active"/></g><g transform="translate(4396,0)"><use xlink:href="#7"/><path d="M102.4 56h9.6v22.4H102.4z" fill="#fff" class="cursor-active"/></g><g transform="translate(5024,0)"><use xlink:href="#8"/><path d="M112 56h9.6v22.4H112z" fill="#fff" class="cursor-active"/></g><g transform="translate(5652,0)"><use xlink:href="#9"/><path d="M121.6 56h9.6v22.4H121.6z" fill="#fff" class="cursor-active"/></g><g transform="translate(6280,0)"><use xlink:href="#10"/><path d="M131.2 56h9.6v22.4H131.2z" fill="#fff" class="cursor-active"/></g><g transform="translate(6908,0)"><use xlink:href="#11"/><path d="M140.8 56h9.6v22.4H140.8z" fill="#fff" class="cursor-active"/></g><g transform="translate(7536,0)"><use xlink:href="#11"/><path d="M150.4 56h9.6v22.4H150.4z" fill="#fff" class="cursor-active"/></g><g transform="translate(8164,0)"><use xlink:href="#12"/><path d="M160 56h9.6v22.4H160z" fill="#fff" class="cursor-active"/></g><g transform="translate(8792,0)"><use xlink:href="#13"/><path d="M169.6 56h9.6v22.4H169.6z" fill="#fff" class="cursor-active"/></g><g transform="translate(9420,0)"><use xlink:href="#14"/><path d="M179.2 56h9.6v22.4H179.2z" fill="#fff" class="cursor-active"/></g><g transform="translate(10048,0)"><use xlink:href="#15"/><path d="M188.8 56h9.6v22.4H188.8z" fill="#fff" class="cursor-active"/></g><g transform="translate(10676,0)"><use xlink:href="#15"/><path d="M198.4 56h9.6v22.4H198.4z" fill="#fff" class="cursor-active"/></g><g transform="translate(11304,0)"><use xlink:href="#16"/><path d="M208 56h9.6v22.4H208z" fill="#fff" class="cursor-active"/></g><g transform="translate(11932,0)"><use xlink:href="#17"/><path d="M217.6 56h9.6v22.4H217.6z" fill="#fff" class="cursor-active"/></g><g transform="translate(12560,0)"><use xlink:href="#18"/><path d="M227.2 56h9.6v22.4H227.2z" fill="#fff" class="cursor-active"/></g><g transform="translate(13188,0)"><use xlink:href="#18"/><path d="M236.8 56h9.6v22.4H236.8z" fill="#fff" class="cursor-active"/></g><g transform="translate(13816,0)"><use xlink:href="#19"/><path d="M246.4 56h9.6v22.4H246.4z" fill="#fff" class="cursor-active"/></g><g transform="translate(14444,0)"><use xlink:href="#20"/><path d="M256 56h9.6v22.4H256z" fill="#fff" class="cursor-active"/></g><g transform="translate(15072,0)"><use xlink:href="#21"/><path d="M265.6 56h9.6v22.4H265.6z" fill="#fff" class="cursor-active"/></g><g transform="translate(15700,0)"><use xlink:href="#22"/><path d="M275.2 56h9.6v22.4H275.2z" fill="#fff" class="cursor-active"/></g><g transform="translate(16328,0)"><use xlink:href="#23"/><path d="M284.8 56h9.6v22.4H284.8z" fill="#fff" class="cursor-active"/></g><g transform="translate(16956,0)"><use xlink:href="#24"/><path d="M294.4 56h9.6v22.4H294.4z" fill="#fff" class="cursor-active"/></g><g transform="translate(17584,0)"><use xlink:href="#25"/><path d="M304 56h9.6v22.4H304z" fill="#fff" class="cursor-active"/></g><g transform="translate(18212,0)"><use xlink:href="#25"/><path d="M313.6 56h9.6v22.4H313.6z" fill="#fff" class="cursor-active"/></g><g transform="translate(18840,0)"><use xlink:href="#26"/><path d="M323.2 56h9.6v22.4H323.2z" fill="#fff" class="cursor-active"/></g><g transform="translate(19468,0)"><use xlink:href="#27"/><path d="M332.8 56h9.6v22.4H332.8z" fill="#fff" class="cursor-active"/></g><g transform="translate(20096,0)"><use xlink:href="#28"/><path d="M342.4 56h9.6v22.4H342.4z" fill="#fff" class="cursor-active"/></g><g transform="translate(20724,0)"><use xlink:href="#29"/><path d="M352 56h9.6v22.4H352z" fill="#fff" class="cursor-active"/></g><g transform="translate(21352,0)"><use xlink:href="#30"/><path d="M361.6 56h9.6v22.4H361.6z" fill="#fff" class="cursor-active"/></g><g transform="translate(21980,0)"><use xlink:href="#31"/><path d="M371.2 56h9.6v22.4H371.2z" fill="#fff" class="cursor-active"/></g><g transform="translate(22608,0)"><use xlink:href="#32"/><path d="M380.8 56h9.6v22.4H380.8z" fill="#fff" class="cursor-active"/></g><g transform="translate(23236,0)"><use xlink:href="#33"/><path d="M390.4 56h9.6v22.4H390.4z" fill="#fff" class="cursor-active"/></g><g transform="translate(23864,0)"><use xlink:href="#33"/><path d="M400 56h9.6v22.4H400z" fill="#fff" class="cursor-active"/></g><g transform="translate(24492,0)"><use xlink:href="#34"/><path d="M409.6 56h9.6v22.4H409.6z" fill="#fff" class="cursor-active"/></g><g transform="translate(25120,0)"><use xlink:href="#35"/><path d="M419.2 56h9.6v22.4H419.2z" fill="#fff" class="cursor-active"/></g><g transform="translate(25748,0)"><use xlink:href="#36"/><path d="M428.8 56h9.6v22.4H428.8z" fill="#fff" class="cursor-active"/></g><g transform="translate(26376,0)"><use xlink:href="#37"/><path d="M438.4 56h9.6v22.4H438.4z" fill="#fff" class="cursor-active"/></g><g transform="translate(27004,0)"><use xlink:href="#38"/><path d="M448 56h9.6v22.4H448z" fill="#fff" class="cursor-active"/></g><g transform="translate(27632,0)"><use xlink:href="#39"/><path d="M457.6 56h9.6v22.4H457.6z" fill="#fff" class="cursor-active"/></g><g transform="translate(28260,0)"><use xlink:href="#40"/><path d="M467.2 56h9.6v22.4H467.2z" fill="#fff" class="cursor-active"/></g><g transform="translate(28888,0)"><use xlink:href="#41"/><path d="M476.8 56h9.6v22.4H476.8z" fill="#fff" class="cursor-active"/></g><g transform="translate(29516,0)"><use xlink:href="#41"/><path d="M486.4 56h9.6v22.4H486.4z" fill="#fff" class="cursor-active"/></g><g transform="translate(30144,0)"><use xlink:href="#42"/><path d="M496 56h9.6v22.4H496z" fill="#fff" class="cursor-active"/></g><g transform="translate(30772,0)"><use xlink:href="#43"/><path d="M505.6 56h9.6v22.4H505.6z" fill="#fff" class="cursor-active"/></g><g transform="translate(31400,0)"><use xlink:href="#44"/><path d="M515.2 56h9.6v22.4H515.2z" fill="#fff" class="cursor-active"/></g><g transform="translate(32028,0)"><use xlink:href="#45"/><path d="M524.8 56h9.6v22.4H524.8z" fill="#fff" class="cursor-active"/></g><g transform="translate(32656,0)"><use xlink:href="#46"/><path d="M534.4 56h9.6v22.4H534.4z" fill="#fff" class="cursor-active"/></g><g transform="translate(33284,0)"><use xlink:href="#47"/><path d="M544 56h9.6v22.4H544z" fill="#fff" class="cursor-active"/></g><g transform="translate(33912,0)"><use xlink:href="#48"/><path d="M553.6 56h9.6v22.4H553.6z" fill="#fff" class="cursor-active"/></g><g transform="translate(34540,0)"><use xlink:href="#49"/><path d="M563.2 56h9.6v22.4H563.2z" fill="#fff" class="cursor-active"/></g><g transform="translate(35168,0)"><use xlink:href="#50"/><path d="M572.8 56h9.6v22.4H572.8z" fill="#fff" class="cursor-active"/></g><g transform="translate(35796,0)"><use xlink:href="#51"/><path d="M582.4 56h9.6v22.4H582.4z" fill="#fff" class="cursor-active"/></g><g transform="translate(36424,0)"><use xlink:href="#52"/><path d="M592 56h9.6v22.4H592z" fill="#fff" class="cursor-active"/></g><g transform="translate(37052,0)"><use xlink:href="#53"/><path d="M601.6 56h9.6v22.4H601.6z" fill="#fff" class="cursor-active"/></g><g transform="translate(37680,0)"><use xlink:href="#53"/><path d="M601.6 56h9.6v22.4H601.6z" fill="#fff" class="cursor"/></g><g transform="translate(38308,0)"><use xlink:href="#53"/></g><g transform="translate(38936,0)"><use xlink:href="#53"/><use xlink:href="#54"/></g><g transform="translate(39564,0)"><use xlink:href="#53"/><use xlink:href="#54"/><use xlink:href="#55"/><path d="M35.2 100.8h9.6v22.4H35.2z" fill="#fff" class="cursor"/></g><g transform="translate(40192,0)"><use xlink:href="#53"/><use xlink:href="#54"/><use xlink:href="#56"/><path d="M44.8 100.8h9.6v22.4H44.8z" fill="#fff" class="cursor-active"/></g><g transform="translate(40820,0)"><use xlink:href="#53"/><use xlink:href="#54"/><use xlink:href="#57"/><path d="M54.4 100.8h9.6v22.4H54.4z" fill="#fff" class="cursor-active"/></g><g transform="translate(41448,0)"><use xlink:href="#53"/><use xlink:href="#54"/><use xlink:href="#58"/><path d="M64 100.8h9.6v22.4H64z" fill="#fff" class="cursor-active"/></g><g transform="translate(42076,0)"><use xlink:href="#53"/><use xlink:href="#54"/><use xlink:href="#59"/><path d="M73.6 100.8h9.6v22.4H73.6z" fill="#fff" class="cursor-active"/></g><g transform="translate(42704,0)"><use xlink:href="#53"/><use xlink:href="#54"/><use xlink:href="#59"/><path d="M83.2 100.8h9.6v22.4H83.2z" fill="#fff" class="cursor-active"/></g><g transform="translate(43332,0)"><use xlink:href="#53"/><use xlink:href="#54"/><use xlink:href="#60"/><path d="M92.8 100.8h9.6v22.4H92.8z" fill="#fff" class="cursor-active"/></g><g transform="translate(43960,0)"><use xlink:href="#53"/><use xlink:href="#54"/><use xlink:href="#61"/><path d="M102.4 100.8h9.6v22.4H102.4z" fill="#fff" class="cursor-active"/></g><g transform="translate(44588,0)"><use xlink:href="#53"/><use xlink:href="#54"/><use xlink:href="#62"/><path d="M112 100.8h9.6v22.4H112z" fill="#fff" class="cursor-active"/></g><g transform="translate(45216,0)"><use xlink:href="#53"/><use xlink:href="#54"/><use xlink:href="#63"/><path d="M121.6 100.8h9.6v22.4H121.6z" fill="#fff" class="cursor-active"/></g><g transform="translate(45844,0)"><use xlink:href="#53"/><use xlink:href="#54"/><use xlink:href="#64"/><path d="M131.2 100.8h9.6v22.4H131.2z" fill="#fff" class="cursor-active"/></g><g transform="translate(46472,0)"><use xlink:href="#53"/><use xlink:href="#54"/><use xlink:href="#64"/><path d="M140.8 100.8h9.6v22.4H140.8z" fill="#fff" class="cursor-active"/></g><g transform="translate(47100,0)"><use xlink:href="#53"/><use xlink:href="#54"/><use xlink:href="#65"/><path d="M150.4 100.8h9.6v22.4H150.4z" fill="#fff" class="cursor-active"/></g><g transform="translate(47728,0)"><use xlink:href="#53"/><use xlink:href="#54"/><use xlink:href="#66"/><path d="M160 100.8h9.6v22.4H160z" fill="#fff" class="cursor-active"/></g><g transform="translate(48356,0)"><use xlink:href="#53"/><use xlink:href="#54"/><use xlink:href="#67"/><path d="M169.6 100.8h9.6v22.4H169.6z" fill="#fff" class="cursor-active"/></g><g transform="translate(48984,0)"><use xlink:href="#53"/><use xlink:href="#54"/><use xlink:href="#68"/><path d="M179.2 100.8h9.6v22.4H179.2z" fill="#fff" class="cursor-active"/></g><g transform="translate(49612,0)"><use xlink:href="#53"/><use xlink:href="#54"/><use xlink:href="#69"/><path d="M188.8 100.8h9.6v22.4H188.8z" fill="#fff" class="cursor-active"/></g><g transform="translate(50240,0)"><use xlink:href="#53"/><use xlink:href="#54"/><use xlink:href="#70"/><path d="M198.4 100.8h9.6v22.4H198.4z" fill="#fff" class="cursor-active"/></g><g transform="translate(50868,0)"><use xlink:href="#53"/><use xlink:href="#54"/><use xlink:href="#70"/><path d="M208 100.8h9.6v22.4H208z" fill="#fff" class="cursor-active"/></g><g transform="translate(51496,0)"><use xlink:href="#53"/><use xlink:href="#54"/><use xlink:href="#71"/><path d="M217.6 100.8h9.6v22.4H217.6z" fill="#fff" class="cursor-active"/></g><g transform="translate(52124,0)"><use xlink:href="#53"/><use xlink:href="#54"/><use xlink:href="#72"/><path d="M227.2 100.8h9.6v22.4H227.2z" fill="#fff" class="cursor-active"/></g><g transform="translate(52752,0)"><use xlink:href="#53"/><use xlink:href="#54"/><use xlink:href="#73"/><path d="M236.8 100.8h9.6v22.4H236.8z" fill="#fff" class="cursor-active"/></g><g transform="translate(53380,0)"><use xlink:href="#53"/><use xlink:href="#54"/><use xlink:href="#74"/><path d="M246.4 100.8h9.6v22.4H246.4z" fill="#fff" class="cursor-active"/></g><g transform="translate(54008,0)"><use xlink:href="#53"/><use xlink:href="#54"/><use xlink:href="#74"/><path d="M246.4 100.8h9.6v22.4H246.4z" fill="#fff" class="cursor"/></g></g></g></g></svg>